<?xml version="1.0" encoding="utf-8"?>
<!-- Generator: Adobe Illustrator 19.1.0, SVG Export Plug-In . SVG Version: 6.00 Build 0)  -->
<svg version="1.1" baseProfile="tiny" id="Layer_1_copy"
	 xmlns="http://www.w3.org/2000/svg" xmlns:xlink="http://www.w3.org/1999/xlink" x="0px" y="0px" >
<rect fill="#FFFFFF" width="1920" height="1080"/>
<g>
	<path fill="#9AD2E6" d="M177.7,139.5h41.8v5.8h-18.1V196h-6.1v-50.7h-17.6V139.5z"/>
	<path fill="#9AD2E6" d="M234.7,139.5v21.8c2.7-3.5,7.4-5.7,12.3-5.7c10.1,0,15.7,6.3,15.7,17.5v23h-6v-23.5
		c0-7.3-3.7-11.4-10.1-11.4c-7.7,0-11.9,5.9-11.9,15.3V196h-6v-56.5H234.7z"/>
	<path fill="#9AD2E6" d="M307.5,178.1H278c0.6,8.3,5.6,13.2,13.3,13.2c4.4,0,8.1-1.9,11.3-5.8l4.1,3.8c-4.2,5.1-9.4,7.6-15.4,7.6
		c-5.9,0-10.6-1.9-14.2-5.6c-3.5-3.8-5.2-8.7-5.2-14.8c0-6,1.6-11,4.8-14.9c3.3-4,7.7-6,13.1-6c4,0,7.4,1,10.2,3.1
		c5.6,4.2,7.5,10.2,7.5,16.7L307.5,178.1z M278.3,172.8h23.2c-0.6-7-4.9-11.6-11.4-11.6C283.4,161.2,279.3,165.9,278.3,172.8z"/>
	<path fill="#9AD2E6" d="M328.5,178.3c-7.5-1.8-11.2-5.6-11.2-11.4c0-3.5,1.4-6.3,4-8.3s5.9-3.1,9.6-3.1c5.2,0,9.9,2.1,14,6.4
		l-4,4.3c-3.2-3.4-6.7-5.1-10.4-5.1c-4.3,0-7.3,2.3-7.3,5.6c0,3,1.9,4.9,5.9,5.8l6.2,1.5c7.5,1.8,11.2,5.5,11.2,11.1
		c0,7-5.8,11.8-14.8,11.8c-6.8,0-12.7-3.2-16-7.4l3.9-4.1c3.2,4,7.2,6,11.9,6c5.6,0,8.9-2.3,8.9-6c0-2.8-2.1-4.8-6.2-5.7
		L328.5,178.3z"/>
	<path fill="#9AD2E6" d="M390.8,178.1h-29.4c0.6,8.3,5.6,13.2,13.3,13.2c4.4,0,8.1-1.9,11.3-5.8l4.1,3.8c-4.2,5.1-9.4,7.6-15.4,7.6
		c-5.9,0-10.6-1.9-14.2-5.6c-3.5-3.8-5.2-8.7-5.2-14.8c0-6,1.6-11,4.8-14.9c3.3-4,7.7-6,13.1-6c4,0,7.4,1,10.2,3.1
		c5.6,4.2,7.5,10.2,7.5,16.7L390.8,178.1z M361.6,172.8h23.2c-0.6-7-4.9-11.6-11.4-11.6C366.7,161.2,362.7,165.9,361.6,172.8z"/>
	<path fill="#9AD2E6" d="M424.9,184.9c0-7.8,5.9-12.4,14.6-12.4c2.9,0,6.5,0.6,10.8,1.9v-4c0-5.9-3.9-9.3-9.8-9.3
		c-4.8,0-8.7,2.9-10.3,6.5l-4.1-3.9c3.1-5.5,8-8.2,14.5-8.2c9.6,0,15.6,5.6,15.6,15.5v25h-5.8v-4.1c-3,3.3-7,5-12.3,5
		C430.7,196.9,424.9,192.4,424.9,184.9z M438.5,191.6c4.8,0,9.3-2.7,11.8-6.3V180c-3.9-1.3-7.3-1.9-10.5-1.9c-6,0-8.9,2.8-8.9,7
		C430.9,189,434,191.6,438.5,191.6z"/>
	<path fill="#9AD2E6" d="M490.1,161.7c-0.4-0.1-0.9-0.1-1.4-0.1c-9.4,0-13.1,4.7-13.1,17.5V196h-6v-39.5h5.8v5.2
		c3.5-4.3,7.1-5.8,12.9-5.8c0.6,0,1.2,0,1.8,0.1V161.7z"/>
	<path fill="#9AD2E6" d="M531.7,178.1h-29.4c0.6,8.3,5.6,13.2,13.3,13.2c4.4,0,8.1-1.9,11.3-5.8l4.1,3.8c-4.2,5.1-9.4,7.6-15.4,7.6
		c-5.9,0-10.6-1.9-14.2-5.6c-3.5-3.8-5.2-8.7-5.2-14.8c0-6,1.6-11,4.8-14.9c3.3-4,7.7-6,13.1-6c4,0,7.4,1,10.2,3.1
		c5.6,4.2,7.5,10.2,7.5,16.7L531.7,178.1z M502.5,172.8h23.2c-0.6-7-4.9-11.6-11.4-11.6C507.5,161.2,503.5,165.9,502.5,172.8z"/>
	<path fill="#9AD2E6" d="M194.2,291.6h-6.5l6-15.2l-16.4-40h6.7l13,32.8l12.7-32.8h6.6L194.2,291.6z"/>
	<path fill="#9AD2E6" d="M226.5,270.9c-3.8-4-5.6-8.9-5.6-14.7s1.9-10.6,5.6-14.7c3.8-4,8.5-6,14.2-6c5.6,0,10.4,2,14.2,6
		c3.9,4,5.8,8.9,5.8,14.7s-1.9,10.6-5.7,14.7c-3.8,3.9-8.5,6-14.3,6C235.1,276.9,230.3,274.9,226.5,270.9z M250.6,267.1
		c2.6-2.9,3.9-6.5,3.9-10.8s-1.3-7.9-3.9-10.7c-2.6-2.9-5.9-4.4-9.9-4.4c-3.9,0-7.3,1.5-9.8,4.4c-2.6,2.8-3.9,6.4-3.9,10.7
		s1.3,7.9,3.9,10.8c2.6,2.8,5.9,4.3,9.8,4.3C244.7,271.3,248,269.9,250.6,267.1z"/>
	<path fill="#9AD2E6" d="M297.9,276v-5c-3.1,4-7.3,5.9-12.5,5.9c-9.9,0-14.8-5.8-14.8-17.4v-23h6v23.2c0,7.5,3.3,11.5,9.7,11.5
		c7.7,0,11.4-5.6,11.4-15.2v-19.6h6V276H297.9z"/>
	<path fill="#9AD2E6" d="M337.8,241.7c-0.4-0.1-0.9-0.1-1.4-0.1c-9.4,0-13.1,4.7-13.1,17.5V276h-6v-39.5h5.8v5.2
		c3.5-4.3,7.1-5.8,12.9-5.8c0.6,0,1.2,0,1.8,0.1V241.7z"/>
	<path fill="#9AD2E6" d="M364.9,219.5h44.3v11h-16.2V276h-11.9v-45.5h-16.2V219.5z"/>
	<path fill="#9AD2E6" d="M407.9,256.2c0-5.9,2-10.8,6-14.8c4-4,9-6,14.9-6s10.9,2,14.8,6c4,4,6,8.9,6,14.8s-2,10.8-6,14.8
		s-8.9,5.9-14.9,5.9c-6,0-11-1.9-14.9-5.9C409.9,267.1,407.9,262.1,407.9,256.2z M419.6,256.2c0,2.9,0.9,5.3,2.6,7.2
		c1.7,1.9,4,2.8,6.6,2.8s4.9-1,6.6-2.8c1.7-1.9,2.6-4.3,2.6-7.2s-0.9-5.3-2.6-7.2c-1.7-1.9-4-2.8-6.6-2.8s-4.9,1-6.6,2.8
		C420.5,250.9,419.6,253.3,419.6,256.2z"/>
	<path fill="#9AD2E6" d="M455.8,256.2c0-5.9,2-10.8,6-14.8c4-4,9-6,14.9-6s10.9,2,14.8,6c4,4,6,8.9,6,14.8s-2,10.8-6,14.8
		s-8.9,5.9-14.9,5.9c-6,0-11-1.9-14.9-5.9C457.8,267.1,455.8,262.1,455.8,256.2z M467.5,256.2c0,2.9,0.9,5.3,2.6,7.2
		c1.7,1.9,4,2.8,6.6,2.8s4.9-1,6.6-2.8c1.7-1.9,2.6-4.3,2.6-7.2s-0.9-5.3-2.6-7.2c-1.7-1.9-4-2.8-6.6-2.8s-4.9,1-6.6,2.8
		C468.4,250.9,467.5,253.3,467.5,256.2z"/>
	<path fill="#9AD2E6" d="M505.5,276v-56.5h11.4V276H505.5z"/>
	<path fill="#9AD2E6" d="M538.7,260.9c-8.6-2.2-12.9-6.4-12.9-12.9c0-3.8,1.5-6.8,4.4-9c3-2.3,6.6-3.5,10.9-3.5
		c6,0,11.3,2.1,15.9,6.2l-7,7.4c-3.1-2.6-6.2-3.9-9.4-3.9c-2.3,0-3.7,1-3.7,2.3c0,1,1,1.7,2.8,2.1l5.9,1.4c8.6,2,13,6.4,13,13.1
		c0,7.5-6.4,12.7-16.5,12.7c-7.3,0-14-3.5-17.3-7.7l7-7.2c3.5,3.5,7.3,5.2,11.3,5.2c2.3,0,4.4-1,4.4-2.6c0-1-1.2-1.9-3.5-2.5
		L538.7,260.9z"/>
	<path fill="#9AD2E6" d="M568.3,265c2.7-2.7,7.2-2.7,9.8,0c2.8,2.7,2.8,7.2,0,9.8c-2.7,2.7-7.2,2.7-9.8,0
		C565.8,272.1,565.8,267.6,568.3,265z"/>
</g>
<g>
	<path fill="#9AD2E6" d="M740.2,426.7h6.2v34.3c0,6.8-1.9,12.3-5.7,16.6c-3.8,4.3-9,6.4-15.7,6.4c-6.7,0-11.9-2.2-15.7-6.4
		s-5.7-9.8-5.7-16.6v-34.3h6.2v34.4c0,5,1.3,9.1,3.9,12.4c2.7,3.2,6.4,4.8,11.3,4.8c4.8,0,8.5-1.6,11.2-4.9s4-7.4,4-12.4V426.7z"/>
	<path fill="#9AD2E6" d="M767.3,465.5c-7.5-1.8-11.2-5.6-11.2-11.4c0-3.5,1.4-6.3,4-8.3c2.7-2,5.9-3.1,9.6-3.1c5.2,0,9.9,2.1,14,6.4
		l-4,4.3c-3.2-3.4-6.7-5.1-10.4-5.1c-4.3,0-7.3,2.3-7.3,5.6c0,3,1.9,4.9,5.9,5.8l6.2,1.5c7.5,1.8,11.2,5.5,11.2,11.1
		c0,7-5.8,11.8-14.8,11.8c-6.8,0-12.7-3.2-16-7.4l4-4.1c3.2,4,7.2,6,11.9,6c5.6,0,8.9-2.3,8.9-6c0-2.8-2.1-4.8-6.2-5.7L767.3,465.5z
		"/>
	<path fill="#9AD2E6" d="M829.6,465.3h-29.4c0.6,8.3,5.6,13.2,13.3,13.2c4.4,0,8.1-1.9,11.3-5.8l4.1,3.8c-4.2,5.1-9.4,7.6-15.4,7.6
		c-5.9,0-10.6-1.9-14.2-5.6c-3.5-3.8-5.2-8.7-5.2-14.8c0-6,1.6-11,4.8-14.9c3.3-4,7.7-6,13.1-6c4,0,7.4,1,10.2,3.1
		c5.6,4.2,7.5,10.2,7.5,16.7L829.6,465.3z M800.5,460h23.2c-0.6-7-4.9-11.6-11.4-11.6C805.5,448.4,801.5,453.2,800.5,460z"/>
	<path fill="#9AD2E6" d="M867.5,471.6v-22.4H861v-5.5h6.4v-11h6v11h9.2v5.5h-9.2v21.5c0,5.2,1.3,7.2,6,7.2l3.1-0.1v5.4
		c-1,0.1-2.3,0.2-3.7,0.2C871.2,483.4,867.5,480.1,867.5,471.6z"/>
	<path fill="#9AD2E6" d="M899.1,426.7v21.8c2.7-3.5,7.4-5.7,12.3-5.7c10.1,0,15.7,6.3,15.7,17.5v23h-6v-23.5
		c0-7.3-3.7-11.4-10.1-11.4c-7.7,0-11.9,5.9-11.9,15.3v19.6h-6v-56.5H899.1z"/>
	<path fill="#9AD2E6" d="M971.9,465.3h-29.4c0.6,8.3,5.6,13.2,13.3,13.2c4.4,0,8.1-1.9,11.3-5.8l4.1,3.8c-4.2,5.1-9.4,7.6-15.4,7.6
		c-5.9,0-10.6-1.9-14.2-5.6c-3.5-3.8-5.2-8.7-5.2-14.8c0-6,1.6-11,4.8-14.9c3.3-4,7.7-6,13.1-6c4,0,7.4,1,10.2,3.1
		c5.6,4.2,7.5,10.2,7.5,16.7L971.9,465.3z M942.8,460H966c-0.6-7-4.9-11.6-11.4-11.6C947.8,448.4,943.8,453.2,942.8,460z"/>
	<path fill="#9AD2E6" d="M988.9,443.7v4.8c2.3-3.2,6.6-5.7,11.4-5.7c5.4,0,9.3,2.2,11.8,6.5c3-4.4,7.1-6.5,12.3-6.5
		c10.2,0,15.2,5.8,15.2,17.5v23h-6v-23.5c0-7.7-3.1-11.4-9.2-11.4c-6.5,0-10.2,4.8-10.2,13.1v21.8h-6v-23.1c0-7.9-3-11.8-8.9-11.8
		c-6.8,0-10.4,4.8-10.4,13.1v21.8h-6v-39.5H988.9z"/>
	<path fill="#9AD2E6" d="M1078.7,471.6v-22.4h-6.4v-5.5h6.4v-11h6v11h9.2v5.5h-9.2v21.5c0,5.2,1.3,7.2,6,7.2l3.1-0.1v5.4
		c-1,0.1-2.3,0.2-3.7,0.2C1082.4,483.4,1078.7,480.1,1078.7,471.6z"/>
	<path fill="#9AD2E6" d="M1107.7,478.1c-3.8-4-5.6-8.9-5.6-14.7c0-5.7,1.9-10.6,5.6-14.7c3.8-4,8.5-6,14.2-6c5.6,0,10.4,2,14.2,6
		c3.9,4,5.8,8.9,5.8,14.7c0,5.7-1.9,10.6-5.7,14.7c-3.8,4-8.5,6-14.3,6C1116.2,484.1,1111.5,482.1,1107.7,478.1z M1131.8,474.3
		c2.6-2.9,3.9-6.5,3.9-10.8c0-4.3-1.3-7.9-3.9-10.7c-2.6-2.9-5.9-4.4-9.9-4.4c-4,0-7.3,1.5-9.8,4.4c-2.6,2.8-3.9,6.4-3.9,10.7
		c0,4.3,1.3,7.9,3.9,10.8c2.6,2.8,5.9,4.3,9.8,4.3C1125.9,478.6,1129.2,477.1,1131.8,474.3z"/>
	<path fill="#9AD2E6" d="M1175.9,472.1c0-7.8,5.9-12.4,14.6-12.4c2.9,0,6.5,0.6,10.8,1.9v-4c0-5.9-3.9-9.3-9.8-9.3
		c-4.8,0-8.7,2.9-10.3,6.5l-4.1-3.9c3.1-5.5,8-8.2,14.5-8.2c9.6,0,15.6,5.6,15.6,15.5v25h-5.8v-4.1c-3,3.3-7,5-12.3,5
		C1181.7,484.1,1175.9,479.6,1175.9,472.1z M1189.5,478.8c4.8,0,9.3-2.7,11.8-6.3v-5.3c-3.9-1.3-7.3-1.9-10.5-1.9
		c-6,0-8.9,2.8-8.9,7C1181.9,476.2,1185,478.8,1189.5,478.8z"/>
	<path fill="#9AD2E6" d="M1249.5,449v-22.2h6v56.5h-5.7v-5.4c-3.6,4.2-8.1,6.3-13.5,6.3s-9.8-2-13.2-6c-3.5-3.9-5.2-8.9-5.2-14.7
		c0-5.8,1.7-10.7,5.2-14.7c3.5-4,7.8-6,13.2-6C1241.5,442.8,1246,444.9,1249.5,449z M1224,463.5c0,4.4,1.1,8,3.5,10.8
		c2.3,2.8,5.4,4.3,9.4,4.3c3.9,0,7.1-1.5,9.4-4.3c2.3-2.8,3.5-6.4,3.5-10.8c0-4.4-1.2-8-3.5-10.8s-5.5-4.3-9.4-4.3
		c-4,0-7,1.5-9.4,4.3S1224,459.1,1224,463.5z"/>
	<path fill="#9AD2E6" d="M1298.2,449v-22.2h6v56.5h-5.7v-5.4c-3.6,4.2-8.1,6.3-13.5,6.3s-9.8-2-13.2-6c-3.5-3.9-5.2-8.9-5.2-14.7
		c0-5.8,1.7-10.7,5.2-14.7c3.5-4,7.8-6,13.2-6C1290.2,442.8,1294.7,444.9,1298.2,449z M1272.6,463.5c0,4.4,1.1,8,3.5,10.8
		c2.3,2.8,5.4,4.3,9.4,4.3c3.9,0,7.1-1.5,9.4-4.3c2.3-2.8,3.5-6.4,3.5-10.8c0-4.4-1.2-8-3.5-10.8s-5.5-4.3-9.4-4.3
		c-4,0-7,1.5-9.4,4.3S1272.6,459.1,1272.6,463.5z"/>
	<path fill="#9AD2E6" d="M1319.2,483.2l23.8-56.5h6.4l-23.8,56.5H1319.2z"/>
	<path fill="#9AD2E6" d="M1390.8,465.3h-29.4c0.6,8.3,5.6,13.2,13.3,13.2c4.4,0,8.1-1.9,11.3-5.8l4.1,3.8c-4.2,5.1-9.4,7.6-15.4,7.6
		c-5.9,0-10.6-1.9-14.2-5.6c-3.5-3.8-5.2-8.7-5.2-14.8c0-6,1.6-11,4.8-14.9c3.3-4,7.7-6,13.1-6c4,0,7.4,1,10.2,3.1
		c5.6,4.2,7.5,10.2,7.5,16.7L1390.8,465.3z M1361.6,460h23.2c-0.6-7-4.9-11.6-11.4-11.6C1366.7,448.4,1362.7,453.2,1361.6,460z"/>
	<path fill="#9AD2E6" d="M1432.3,449v-22.2h6v56.5h-5.7v-5.4c-3.6,4.2-8.1,6.3-13.5,6.3c-5.4,0-9.8-2-13.2-6
		c-3.5-3.9-5.2-8.9-5.2-14.7c0-5.8,1.7-10.7,5.2-14.7c3.5-4,7.8-6,13.2-6C1424.3,442.8,1428.7,444.9,1432.3,449z M1406.7,463.5
		c0,4.4,1.1,8,3.5,10.8c2.3,2.8,5.4,4.3,9.4,4.3c3.9,0,7.1-1.5,9.4-4.3c2.3-2.8,3.5-6.4,3.5-10.8c0-4.4-1.2-8-3.5-10.8
		s-5.5-4.3-9.4-4.3c-4,0-7,1.5-9.4,4.3S1406.7,459.1,1406.7,463.5z"/>
	<path fill="#9AD2E6" d="M1452.3,427.1c1.9-1.7,4.7-1.7,6.4,0c1.9,1.7,1.9,4.5,0,6.4c-1.7,1.7-4.5,1.7-6.4,0
		C1450.7,431.6,1450.7,428.8,1452.3,427.1z M1452.6,483.2v-39.5h6v39.5H1452.6z"/>
	<path fill="#9AD2E6" d="M1473.9,471.6v-22.4h-6.4v-5.5h6.4v-11h6v11h9.2v5.5h-9.2v21.5c0,5.2,1.3,7.2,6,7.2l3.1-0.1v5.4
		c-1,0.1-2.3,0.2-3.7,0.2C1477.7,483.4,1473.9,480.1,1473.9,471.6z"/>
	<path fill="#9AD2E6" d="M714.5,563.2h-11.4v-39.5h11.3v2.7c2.6-2.5,5.7-3.7,9.5-3.7c4.6,0,8.2,1.6,11,4.8c3.1-3.1,7.1-4.8,11.9-4.8
		c10.6,0,16.5,6.3,16.5,17.5v23h-11.4v-22.5c0-4.4-2.1-7.3-6-7.3c-4.3,0-6.9,3.3-6.9,8.8v21h-11.4v-22.5c0-4.4-2.1-7.3-6-7.3
		c-4.5,0-6.9,3.5-6.9,9.6V563.2z"/>
	<path fill="#9AD2E6" d="M770.2,551.6c0-4.1,1.5-7.3,4.5-9.4c3-2.2,6.7-3.3,11.1-3.3c2.7,0,5.3,0.4,7.9,1.1v-0.6
		c0-3.8-2.5-6.4-6.6-6.4c-3.6,0-6.4,1.5-8.5,4.6l-7.3-6.9c4.4-5.2,9.8-7.8,16.5-7.8c5,0,9.1,1.5,12.4,4.3c3.3,2.8,4.9,6.6,4.9,11.5
		v24.7h-11.4v-2.6c-2.7,2.3-6,3.5-10,3.5C775.5,564.1,770.2,559,770.2,551.6z M786.6,554.4c2.6,0,4.9-0.8,7.1-2.4v-4.5
		c-2-0.5-3.8-0.7-5.3-0.7c-4.3,0-6.7,1.6-6.7,4.1C781.7,552.9,783.7,554.4,786.6,554.4z"/>
	<path fill="#9AD2E6" d="M826.5,548.2c-8.6-2.2-12.9-6.4-12.9-12.9c0-3.8,1.5-6.8,4.4-9c3-2.3,6.6-3.5,10.9-3.5
		c6,0,11.3,2.1,15.9,6.2l-7,7.4c-3.1-2.6-6.2-3.9-9.4-3.9c-2.3,0-3.7,1-3.7,2.3c0,1,1,1.7,2.8,2.1l5.9,1.4c8.6,2,13,6.4,13,13.1
		c0,7.5-6.4,12.7-16.5,12.7c-7.3,0-14-3.5-17.3-7.7l7-7.2c3.5,3.5,7.3,5.2,11.3,5.2c2.3,0,4.4-1,4.4-2.6c0-1-1.2-1.9-3.5-2.5
		L826.5,548.2z"/>
	<path fill="#9AD2E6" d="M854.2,563.2v-56.5h11.4v29.5l11-12.5h14.4L876.5,540l15.2,23.2h-13.9l-9.4-15l-2.7,2.9v12.1H854.2z"/>
	<path fill="#9AD2E6" d="M932.3,548.2c-8.6-2.2-12.9-6.4-12.9-12.9c0-3.8,1.5-6.8,4.4-9c3-2.3,6.6-3.5,10.9-3.5
		c6,0,11.3,2.1,15.9,6.2l-7,7.4c-3.1-2.6-6.2-3.9-9.4-3.9c-2.3,0-3.7,1-3.7,2.3c0,1,1,1.7,2.8,2.1l5.9,1.4c8.6,2,13,6.4,13,13.1
		c0,7.5-6.4,12.7-16.5,12.7c-7.3,0-14-3.5-17.3-7.7l7-7.2c3.5,3.5,7.3,5.2,11.3,5.2c2.3,0,4.4-1,4.4-2.6c0-1-1.2-1.9-3.5-2.5
		L932.3,548.2z"/>
	<path fill="#9AD2E6" d="M971.5,563.2H960v-56.5h11.4V526c2.3-2.2,5.4-3.2,9.2-3.2c9.8,0,16.1,6.4,16.1,17.5v23h-11.5v-22.1
		c0-4.5-2.1-7.7-6.5-7.7c-4.8,0-7.3,3.4-7.3,10.1V563.2z"/>
	<path fill="#9AD2E6" d="M1003.6,551.6c0-4.1,1.5-7.3,4.5-9.4c3-2.2,6.7-3.3,11.1-3.3c2.7,0,5.3,0.4,7.9,1.1v-0.6
		c0-3.8-2.5-6.4-6.6-6.4c-3.6,0-6.4,1.5-8.5,4.6l-7.3-6.9c4.4-5.2,9.8-7.8,16.5-7.8c5,0,9.1,1.5,12.4,4.3c3.3,2.8,4.9,6.6,4.9,11.5
		v24.7h-11.4v-2.6c-2.7,2.3-6,3.5-10,3.5C1008.9,564.1,1003.6,559,1003.6,551.6z M1020.1,554.4c2.6,0,4.9-0.8,7.1-2.4v-4.5
		c-2-0.5-3.8-0.7-5.3-0.7c-4.3,0-6.7,1.6-6.7,4.1C1015.1,552.9,1017.2,554.4,1020.1,554.4z"/>
	<path fill="#9AD2E6" d="M1084.9,558.4c-3.8,3.8-8.5,5.7-14,5.7c-4.2,0-7.6-1.1-10.2-3.4v18.1h-11.4v-55.1h11.3v2.8
		c2.7-2.5,6-3.8,10.3-3.8c5.6,0,10.2,1.9,14,5.7c3.8,3.8,5.7,8.8,5.7,15C1090.6,549.6,1088.7,554.6,1084.9,558.4z M1060.5,543.5
		c0,3,0.9,5.5,2.6,7.4c1.8,1.9,3.9,2.9,6.6,2.9s4.8-1,6.5-2.9c1.8-1.9,2.7-4.4,2.7-7.4s-0.9-5.5-2.7-7.4c-1.7-1.9-3.9-2.9-6.5-2.9
		s-4.8,1-6.6,2.9C1061.4,538,1060.5,540.5,1060.5,543.5z"/>
	<path fill="#9AD2E6" d="M1135,546.4h-26.8c0.6,4.3,4,7.3,8.9,7.3c4,0,7.3-1.5,9.7-4.6l7.6,7.1c-4.3,5.3-9.9,8-16.9,8
		c-6,0-11-1.9-14.9-5.6c-4-3.8-5.9-8.7-5.9-14.8c0-6,1.8-11,5.4-15c3.6-3.9,8.3-6,14-6c6,0,10.7,2,14,6c3.3,4,5,8.8,5,14.2
		L1135,546.4z M1108.8,538.7h14.2c-0.2-3.3-2.9-5.9-6.7-5.9C1112.2,532.8,1109.6,535.3,1108.8,538.7z"/>
	<path fill="#9AD2E6" d="M1154.6,548.2c-8.6-2.2-12.9-6.4-12.9-12.9c0-3.8,1.5-6.8,4.4-9c3-2.3,6.6-3.5,10.9-3.5
		c6,0,11.3,2.1,15.9,6.2l-7,7.4c-3.1-2.6-6.2-3.9-9.4-3.9c-2.3,0-3.7,1-3.7,2.3c0,1,1,1.7,2.8,2.1l5.9,1.4c8.6,2,13,6.4,13,13.1
		c0,7.5-6.4,12.7-16.5,12.7c-7.3,0-14-3.5-17.3-7.7l7-7.2c3.5,3.5,7.3,5.2,11.3,5.2c2.3,0,4.4-1,4.4-2.6c0-1-1.2-1.9-3.5-2.5
		L1154.6,548.2z"/>
	<path fill="#9AD2E6" d="M1204.4,552.1c0-7.8,5.9-12.4,14.6-12.4c2.9,0,6.5,0.6,10.8,1.9v-4c0-5.9-3.9-9.3-9.8-9.3
		c-4.8,0-8.7,2.9-10.3,6.5l-4.1-3.9c3.1-5.5,8-8.2,14.5-8.2c9.6,0,15.6,5.6,15.6,15.5v25h-5.8v-4.1c-3,3.3-7,5-12.3,5
		C1210.2,564.1,1204.4,559.6,1204.4,552.1z M1218,558.8c4.8,0,9.3-2.7,11.8-6.3v-5.3c-3.9-1.3-7.3-1.9-10.5-1.9c-6,0-8.9,2.8-8.9,7
		C1210.3,556.2,1213.5,558.8,1218,558.8z"/>
	<path fill="#9AD2E6" d="M1254.8,523.7v4.8c2.7-3.5,7.6-5.8,12.5-5.8c10.1,0,15.7,6.3,15.7,17.5v23h-6v-23.5
		c0-7.3-3.7-11.4-10.1-11.4c-7.7,0-11.9,5.9-11.9,15.3v19.6h-6v-39.5H1254.8z"/>
	<path fill="#9AD2E6" d="M1325.3,529v-22.2h6v56.5h-5.7v-5.4c-3.6,4.2-8.1,6.3-13.5,6.3c-5.4,0-9.8-2-13.2-6
		c-3.5-3.9-5.2-8.9-5.2-14.7c0-5.8,1.7-10.7,5.2-14.7c3.5-4,7.8-6,13.2-6C1317.3,522.8,1321.7,524.9,1325.3,529z M1299.7,543.5
		c0,4.4,1.1,8,3.5,10.8c2.3,2.8,5.4,4.3,9.4,4.3c3.9,0,7.1-1.5,9.4-4.3c2.3-2.8,3.5-6.4,3.5-10.8s-1.2-8-3.5-10.8
		c-2.3-2.8-5.5-4.3-9.4-4.3c-4,0-7,1.5-9.4,4.3C1300.9,535.5,1299.7,539.1,1299.7,543.5z"/>
	<path fill="#9AD2E6" d="M1370.8,551.6v-22.4h-6.4v-5.5h6.4v-11h6v11h9.2v5.5h-9.2v21.5c0,5.2,1.3,7.2,6,7.2l3.1-0.1v5.4
		c-1,0.1-2.3,0.2-3.7,0.2C1374.5,563.4,1370.8,560.1,1370.8,551.6z"/>
	<path fill="#9AD2E6" d="M1399.9,558.1c-3.8-4-5.6-8.9-5.6-14.7c0-5.7,1.9-10.6,5.6-14.7c3.8-4,8.5-6,14.2-6c5.6,0,10.4,2,14.2,6
		c3.9,4,5.8,8.9,5.8,14.7c0,5.7-1.9,10.6-5.7,14.7c-3.8,3.9-8.5,6-14.3,6C1408.4,564.1,1403.6,562.1,1399.9,558.1z M1424,554.3
		c2.6-2.9,3.9-6.5,3.9-10.8c0-4.3-1.3-7.9-3.9-10.7c-2.6-2.9-5.9-4.4-9.9-4.4c-4,0-7.3,1.5-9.8,4.4c-2.6,2.8-3.9,6.4-3.9,10.7
		c0,4.3,1.3,7.9,3.9,10.8c2.6,2.8,5.9,4.3,9.8,4.3C1418.1,558.6,1421.4,557.1,1424,554.3z"/>
	<path fill="#9AD2E6" d="M714.7,628.2c-8.6-2.2-12.9-6.4-12.9-12.9c0-3.8,1.5-6.8,4.4-9c3-2.3,6.6-3.5,10.9-3.5
		c6,0,11.3,2.1,15.9,6.2l-7,7.4c-3.1-2.6-6.2-3.9-9.4-3.9c-2.3,0-3.7,1-3.7,2.3c0,1,1,1.7,2.8,2.1l5.9,1.4c8.6,2,13,6.4,13,13.1
		c0,7.5-6.4,12.7-16.5,12.7c-7.3,0-14-3.5-17.3-7.7l7-7.2c3.5,3.5,7.3,5.2,11.3,5.2c2.3,0,4.4-1,4.4-2.6c0-1-1.2-1.9-3.5-2.5
		L714.7,628.2z"/>
	<path fill="#9AD2E6" d="M774.4,603.7l6.5,23.6l5.6-23.6h12.3l-11.1,39.5h-12.5l-7.1-24.3l-7.1,24.3h-12.5l-11.1-39.5h12.3l5.6,23.6
		l6.4-23.6H774.4z"/>
	<path fill="#9AD2E6" d="M810.9,585.8c3.8,0,6.7,2.9,6.7,6.7c0,3.6-3.1,6.6-6.7,6.6s-6.6-3-6.6-6.6
		C804.3,588.7,807.2,585.8,810.9,585.8z M805.1,643.2v-39.5h11.5v39.5H805.1z"/>
	<path fill="#9AD2E6" d="M828.7,629.3v-15h-5.2v-10.6h5.2v-11H840v11h8.8v10.6H840v13.6c0,3.8,1.7,4.8,5.2,4.8h3.4v10.5
		c-2,0.1-4.1,0.2-6.2,0.2C833.3,643.4,828.7,638.7,828.7,629.3z"/>
	<path fill="#9AD2E6" d="M892.9,635.7c-4.3,5.6-10,8.4-17.3,8.4c-6,0-11-1.9-14.9-5.9c-4-3.9-6-8.9-6-14.8s2-10.8,6-14.8
		c4-3.9,9-6,14.9-6c6.3,0,11.8,2.7,16.5,7.9l-7.7,7.5c-2.5-3.1-5.3-4.6-8.4-4.6c-5.5,0-9.6,4.1-9.6,9.9c0,5.8,4.1,9.9,9.6,9.9
		c3.5,0,6.5-1.7,9.2-5.2L892.9,635.7z"/>
	<path fill="#9AD2E6" d="M911.8,643.2h-11.4v-56.5h11.4V606c2.3-2.2,5.4-3.2,9.2-3.2c9.8,0,16.1,6.4,16.1,17.5v23h-11.5v-22.1
		c0-4.5-2.1-7.7-6.5-7.7c-4.8,0-7.3,3.4-7.3,10.1V643.2z"/>
	<path fill="#9AD2E6" d="M980.2,643.2h-11.4v-39.5h11.3v2.7c2.6-2.5,5.7-3.7,9.5-3.7c4.6,0,8.2,1.6,11,4.8c3.1-3.1,7.1-4.8,11.8-4.8
		c10.6,0,16.5,6.3,16.5,17.5v23h-11.4v-22.5c0-4.4-2.1-7.3-6-7.3c-4.3,0-6.9,3.3-6.9,8.8v21h-11.4v-22.5c0-4.4-2.1-7.3-6-7.3
		c-4.5,0-6.9,3.5-6.9,9.6V643.2z"/>
	<path fill="#9AD2E6" d="M1036,623.5c0-5.9,2-10.8,6-14.8c4-3.9,9-6,14.9-6s10.9,2,14.8,6c4,4,6,8.9,6,14.8s-2,10.8-6,14.8
		c-4,4-8.9,5.9-14.9,5.9c-6,0-11-1.9-14.9-5.9C1038,634.3,1036,629.4,1036,623.5z M1047.6,623.5c0,2.9,0.9,5.3,2.6,7.2
		c1.7,1.9,4,2.8,6.6,2.8s4.9-1,6.6-2.8c1.7-1.9,2.6-4.3,2.6-7.2s-0.9-5.3-2.6-7.2c-1.7-1.9-4-2.8-6.6-2.8s-4.9,1-6.6,2.8
		C1048.5,618.2,1047.6,620.6,1047.6,623.5z"/>
	<path fill="#9AD2E6" d="M1089.4,608.6c3.8-3.9,8.5-5.8,14.1-5.8c4.1,0,7.5,1.1,10.2,3.5v-19.5h11.4v56.5h-11.3v-2.8
		c-2.6,2.5-6,3.7-10.3,3.7c-5.6,0-10.3-1.9-14.1-5.6s-5.6-8.8-5.6-15C1083.8,617.3,1085.6,612.4,1089.4,608.6z M1113.8,623.5
		c0-3-0.9-5.5-2.7-7.4c-1.7-1.9-3.9-2.9-6.5-2.9s-4.8,1-6.6,2.9c-1.7,1.9-2.6,4.4-2.6,7.4s0.9,5.5,2.6,7.4c1.8,1.9,4,2.9,6.6,2.9
		s4.8-1,6.5-2.9C1112.9,629,1113.8,626.5,1113.8,623.5z"/>
	<path fill="#9AD2E6" d="M1171.4,626.4h-26.8c0.6,4.3,4,7.3,8.9,7.3c4,0,7.3-1.5,9.7-4.6l7.6,7.1c-4.3,5.3-9.9,8-16.9,8
		c-6,0-11-1.9-14.9-5.6c-4-3.8-5.9-8.7-5.9-14.8c0-6,1.8-11,5.4-15c3.6-3.9,8.3-6,14-6c6,0,10.7,2,14,6c3.3,4,5,8.8,5,14.2
		L1171.4,626.4z M1145.2,618.7h14.2c-0.2-3.3-2.9-5.9-6.7-5.9C1148.6,612.8,1145.9,615.3,1145.2,618.7z"/>
	<path fill="#9AD2E6" d="M1191,628.2c-8.6-2.2-12.9-6.4-12.9-12.9c0-3.8,1.5-6.8,4.4-9c3-2.3,6.6-3.5,10.9-3.5
		c6,0,11.3,2.1,15.9,6.2l-7,7.4c-3.1-2.6-6.2-3.9-9.4-3.9c-2.3,0-3.7,1-3.7,2.3c0,1,1,1.7,2.8,2.1l5.9,1.4c8.6,2,13,6.4,13,13.1
		c0,7.5-6.4,12.7-16.5,12.7c-7.3,0-14-3.5-17.3-7.7l7-7.2c3.5,3.5,7.3,5.2,11.3,5.2c2.3,0,4.4-1,4.4-2.6c0-1-1.2-1.9-3.5-2.5
		L1191,628.2z"/>
	<path fill="#9AD2E6" d="M1230.6,639.4c0,2.7-2.1,4.8-4.9,4.8c-2.7,0-4.8-2.1-4.8-4.8s2.1-4.8,4.8-4.8
		C1228.5,634.5,1230.6,636.5,1230.6,639.4z"/>
</g>
</svg>
