<?xml version="1.0" encoding="utf-8"?>
<!-- Generator: Adobe Illustrator 19.1.0, SVG Export Plug-In . SVG Version: 6.00 Build 0)  -->
<svg version="1.1" baseProfile="tiny" id="Layer_1_copy"
	 xmlns="http://www.w3.org/2000/svg" xmlns:xlink="http://www.w3.org/1999/xlink" x="0px" y="0px" >
<rect fill="#FFFFFF" width="1920" height="1080"/>
<g>
	<path fill="#9AD2E6" d="M700.3,426.7h44.3v11h-16.2v45.5h-11.9v-45.5h-16.2V426.7z"/>
	<path fill="#9AD2E6" d="M763.4,483.2h-11.4v-56.5h11.4V446c2.3-2.2,5.4-3.2,9.2-3.2c9.8,0,16.1,6.4,16.1,17.5v23h-11.5v-22.1
		c0-4.5-2.1-7.7-6.5-7.7c-4.8,0-7.3,3.4-7.3,10.1V483.2z"/>
	<path fill="#9AD2E6" d="M795.5,471.6c0-4.1,1.5-7.3,4.5-9.4c3-2.2,6.7-3.3,11.1-3.3c2.7,0,5.3,0.4,7.9,1.1v-0.6
		c0-3.8-2.5-6.4-6.6-6.4c-3.6,0-6.4,1.5-8.5,4.6l-7.3-6.9c4.4-5.2,9.8-7.8,16.5-7.8c5,0,9.1,1.5,12.4,4.3s4.9,6.6,4.9,11.5v24.7
		h-11.4v-2.6c-2.7,2.3-6,3.5-10,3.5C800.9,484.1,795.5,479,795.5,471.6z M812,474.4c2.6,0,4.9-0.8,7.1-2.4v-4.5
		c-2-0.5-3.8-0.7-5.3-0.7c-4.3,0-6.7,1.6-6.7,4.1C807.1,472.9,809.1,474.4,812,474.4z"/>
	<path fill="#9AD2E6" d="M841.3,469.3v-15h-5.2v-10.6h5.2v-11h11.4v11h8.8v10.6h-8.8v13.6c0,3.8,1.7,4.8,5.2,4.8h3.4v10.5
		c-2,0.1-4.1,0.2-6.2,0.2C845.9,483.4,841.3,478.7,841.3,469.3z"/>
	<path fill="#9AD2E6" d="M874.1,426.7h12.3l-8.8,18.9h-11.1L874.1,426.7z"/>
	<path fill="#9AD2E6" d="M900.7,468.2c-8.6-2.2-12.9-6.4-12.9-12.9c0-3.8,1.5-6.8,4.4-9c3-2.3,6.6-3.5,10.9-3.5
		c6,0,11.3,2.1,15.9,6.2l-7,7.4c-3.1-2.6-6.2-3.9-9.4-3.9c-2.3,0-3.7,1-3.7,2.3c0,1,1,1.7,2.8,2.1l5.9,1.4c8.6,2,13,6.4,13,13.1
		c0,7.5-6.4,12.7-16.5,12.7c-7.3,0-14-3.5-17.3-7.7l7-7.2c3.5,3.5,7.3,5.2,11.3,5.2c2.3,0,4.4-1,4.4-2.6c0-1-1.2-1.9-3.5-2.5
		L900.7,468.2z"/>
	<path fill="#9AD2E6" d="M957,425.8c3.8,0,6.7,2.9,6.7,6.7c0,3.6-3.1,6.6-6.7,6.6s-6.6-3-6.6-6.6C950.4,428.7,953.4,425.8,957,425.8
		z M951.3,483.2v-39.5h11.5v39.5H951.3z"/>
	<path fill="#9AD2E6" d="M974.8,469.3v-15h-5.2v-10.6h5.2v-11h11.4v11h8.8v10.6h-8.8v13.6c0,3.8,1.7,4.8,5.2,4.8h3.4v10.5
		c-2,0.1-4.1,0.2-6.2,0.2C979.4,483.4,974.8,478.7,974.8,469.3z"/>
	<path fill="#9AD2E6" d="M1007,472.2c2.7-2.7,7.2-2.7,9.8,0c2.8,2.7,2.8,7.2,0,9.8c-2.7,2.7-7.2,2.7-9.8,0
		C1004.4,479.4,1004.4,474.8,1007,472.2z"/>
	<path fill="#9AD2E6" d="M741.3,565.2v-25.9h-30.7v25.9h-6.1v-56.5h6.1v24.8h30.7v-24.8h6.1v56.5H741.3z"/>
	<path fill="#9AD2E6" d="M758.5,554.1c0-7.8,5.9-12.4,14.6-12.4c2.9,0,6.5,0.6,10.8,1.9v-4c0-5.9-4-9.3-9.8-9.3
		c-4.8,0-8.7,2.9-10.3,6.5l-4.1-3.9c3.1-5.5,8-8.2,14.5-8.2c9.6,0,15.6,5.6,15.6,15.5v25H784v-4.1c-3,3.3-7,5-12.3,5
		C764.3,566.1,758.5,561.6,758.5,554.1z M772.1,560.8c4.8,0,9.3-2.7,11.8-6.3v-5.3c-3.9-1.3-7.3-1.9-10.5-1.9c-6,0-8.9,2.8-8.9,7
		C764.4,558.2,767.6,560.8,772.1,560.8z"/>
	<path fill="#9AD2E6" d="M833,525.7l-15,39.5h-6.3l-15-39.5h6.5l11.6,32.2l11.6-32.2H833z"/>
	<path fill="#9AD2E6" d="M874,547.3h-29.4c0.6,8.3,5.6,13.2,13.3,13.2c4.4,0,8.1-1.9,11.3-5.8l4.1,3.8c-4.2,5.1-9.4,7.6-15.4,7.6
		c-5.9,0-10.6-1.9-14.2-5.6c-3.5-3.8-5.2-8.7-5.2-14.8c0-6,1.6-11,4.8-14.9c3.3-4,7.7-6,13.1-6c4,0,7.4,1,10.2,3.1
		c5.6,4.2,7.5,10.2,7.5,16.7L874,547.3z M844.8,542H868c-0.6-7-4.9-11.6-11.4-11.6C849.9,530.4,845.9,535.2,844.8,542z"/>
	<path fill="#9AD2E6" d="M927.8,508.8v5.4h-2.1c-5.9,0-8,2.7-8,8.5v3h9.2v5.5h-9.2v34h-6v-34h-6.4v-5.5h6.4v-3c0-9.8,4.8-14,13.9-14
		L927.8,508.8z"/>
	<path fill="#9AD2E6" d="M963.2,565.2v-5c-3.1,4-7.3,5.9-12.5,5.9c-9.9,0-14.8-5.8-14.8-17.4v-23h6v23.2c0,7.5,3.3,11.5,9.7,11.5
		c7.7,0,11.4-5.6,11.4-15.2v-19.6h6v39.5H963.2z"/>
	<path fill="#9AD2E6" d="M988.5,525.7v4.8c2.7-3.5,7.6-5.8,12.5-5.8c10.1,0,15.7,6.3,15.7,17.5v23h-6v-23.5
		c0-7.3-3.7-11.4-10.1-11.4c-7.7,0-11.9,5.9-11.9,15.3v19.6h-6v-39.5H988.5z"/>
	<path fill="#9AD2E6" d="M1030.1,575.3h-6.4l7.7-19.3h7.5L1030.1,575.3z"/>
	<path fill="#9AD2E6" d="M1077.5,553.6v-22.4h-6.4v-5.5h6.4v-11h6v11h9.2v5.5h-9.2v21.5c0,5.2,1.3,7.2,6,7.2l3.1-0.1v5.4
		c-1,0.1-2.3,0.2-3.7,0.2C1081.2,565.4,1077.5,562.1,1077.5,553.6z"/>
	<path fill="#9AD2E6" d="M1123.7,531c-0.4-0.1-0.9-0.1-1.4-0.1c-9.4,0-13.1,4.7-13.1,17.5v16.8h-6v-39.5h5.8v5.2
		c3.5-4.3,7.1-5.8,12.9-5.8c0.6,0,1.2,0,1.8,0.1V531z"/>
	<path fill="#9AD2E6" d="M1146.1,580.9h-6.5l6-15.2l-16.4-40h6.7l13,32.8l12.7-32.8h6.6L1146.1,580.9z"/>
	<path fill="#9AD2E6" d="M1203.6,553.6v-22.4h-6.4v-5.5h6.4v-11h6v11h9.2v5.5h-9.2v21.5c0,5.2,1.3,7.2,6,7.2l3.1-0.1v5.4
		c-1,0.1-2.3,0.2-3.7,0.2C1207.3,565.4,1203.6,562.1,1203.6,553.6z"/>
	<path fill="#9AD2E6" d="M1235.2,508.7v21.8c2.7-3.5,7.4-5.7,12.3-5.7c10.1,0,15.7,6.3,15.7,17.5v23h-6v-23.5
		c0-7.3-3.7-11.4-10.1-11.4c-7.7,0-11.9,5.9-11.9,15.3v19.6h-6v-56.5H1235.2z"/>
	<path fill="#9AD2E6" d="M1275.5,509.1c1.9-1.7,4.7-1.7,6.4,0c1.9,1.7,1.9,4.5,0,6.4c-1.7,1.7-4.5,1.7-6.4,0
		C1273.9,513.6,1273.9,510.8,1275.5,509.1z M1275.8,565.2v-39.5h6v39.5H1275.8z"/>
	<path fill="#9AD2E6" d="M1302,525.7v4.8c2.7-3.5,7.6-5.8,12.5-5.8c10.1,0,15.7,6.3,15.7,17.5v23h-6v-23.5c0-7.3-3.7-11.4-10.1-11.4
		c-7.7,0-11.9,5.9-11.9,15.3v19.6h-6v-39.5H1302z"/>
	<path fill="#9AD2E6" d="M1346.5,568.8c2.8,5,6.8,7.5,12,7.5c8.5,0,13.1-5.5,13.1-13.8v-4.1c-3,3.9-7.3,6-12.9,6
		c-5.1,0-9.3-1.9-12.7-5.6c-3.5-3.8-5.2-8.5-5.2-14.1c0-5.7,1.7-10.4,5.2-14.2c3.5-3.8,7.7-5.6,12.7-5.6c5.6,0,9.9,2,13.1,6v-5.1
		h5.8V562c0,12-7.3,19.8-19,19.8c-7.1,0-12.6-2.9-16.4-8.8L1346.5,568.8z M1350.4,554.7c2.3,2.7,5.2,3.9,8.9,3.9
		c3.6,0,6.6-1.3,8.9-3.9s3.5-6,3.5-10.2c0-4.2-1.2-7.6-3.5-10.2c-2.3-2.7-5.3-4-8.9-4c-3.6,0-6.5,1.3-8.9,4c-2.3,2.7-3.5,6-3.5,10.2
		C1346.9,548.7,1348,552.1,1350.4,554.7z"/>
	<path fill="#9AD2E6" d="M1400.3,547.5c-7.5-1.8-11.2-5.6-11.2-11.4c0-3.5,1.4-6.3,4-8.3c2.7-2,5.9-3.1,9.6-3.1
		c5.2,0,9.9,2.1,14,6.4l-4,4.3c-3.2-3.4-6.7-5.1-10.4-5.1c-4.3,0-7.3,2.3-7.3,5.6c0,3,1.9,4.9,5.9,5.8l6.2,1.5
		c7.5,1.8,11.2,5.5,11.2,11.1c0,7-5.8,11.8-14.8,11.8c-6.8,0-12.7-3.2-16-7.4l4-4.1c3.2,4,7.2,6,11.9,6c5.6,0,8.9-2.3,8.9-6
		c0-2.8-2.1-4.8-6.2-5.7L1400.3,547.5z"/>
	<path fill="#9AD2E6" d="M1429,575.3h-6.4l7.7-19.3h7.5L1429,575.3z"/>
	<path fill="#9AD2E6" d="M702.6,636.1c0-7.8,5.9-12.4,14.6-12.4c2.9,0,6.5,0.6,10.8,1.9v-4c0-5.9-4-9.3-9.8-9.3
		c-4.8,0-8.7,2.9-10.3,6.5l-4.1-3.9c3.1-5.5,8-8.2,14.5-8.2c9.6,0,15.6,5.6,15.6,15.5v25h-5.8v-4.1c-3,3.3-7,5-12.3,5
		C708.4,648.1,702.6,643.6,702.6,636.1z M716.2,642.8c4.8,0,9.3-2.7,11.8-6.3v-5.3c-3.9-1.3-7.3-1.9-10.5-1.9c-6,0-8.9,2.8-8.9,7
		C708.6,640.2,711.7,642.8,716.2,642.8z"/>
	<path fill="#9AD2E6" d="M753.1,607.7v4.8c2.7-3.5,7.6-5.8,12.5-5.8c10.1,0,15.7,6.3,15.7,17.5v23h-6v-23.5
		c0-7.3-3.7-11.4-10.1-11.4c-7.7,0-11.9,5.9-11.9,15.3v19.6h-6v-39.5H753.1z"/>
	<path fill="#9AD2E6" d="M823.5,613v-22.2h6v56.5h-5.7v-5.4c-3.6,4.2-8.1,6.3-13.5,6.3c-5.4,0-9.8-2-13.2-6
		c-3.5-3.9-5.2-8.9-5.2-14.7c0-5.8,1.7-10.7,5.2-14.7c3.5-4,7.8-6,13.2-6C815.5,606.8,820,608.9,823.5,613z M798,627.5
		c0,4.4,1.1,8,3.5,10.8c2.3,2.8,5.4,4.3,9.4,4.3c4,0,7.1-1.5,9.4-4.3c2.3-2.8,3.5-6.4,3.5-10.8s-1.2-8-3.5-10.8
		c-2.3-2.8-5.5-4.3-9.4-4.3c-3.9,0-7,1.5-9.4,4.3C799.1,619.5,798,623.1,798,627.5z"/>
	<path fill="#9AD2E6" d="M871.1,650.8c2.8,5,6.8,7.5,12,7.5c8.5,0,13.1-5.5,13.1-13.8v-4.1c-3,3.9-7.3,6-12.9,6
		c-5.1,0-9.3-1.9-12.7-5.6c-3.5-3.8-5.2-8.5-5.2-14.1c0-5.7,1.7-10.4,5.2-14.2c3.5-3.8,7.7-5.6,12.7-5.6c5.6,0,9.9,2,13.1,6v-5.1
		h5.8V644c0,12-7.3,19.8-19,19.8c-7.1,0-12.6-2.9-16.4-8.8L871.1,650.8z M875,636.7c2.3,2.7,5.2,3.9,8.9,3.9c3.6,0,6.6-1.3,8.9-3.9
		s3.5-6,3.5-10.2c0-4.2-1.2-7.6-3.5-10.2c-2.3-2.7-5.3-4-8.9-4c-3.6,0-6.5,1.3-8.9,4c-2.3,2.7-3.5,6-3.5,10.2
		C871.5,630.7,872.6,634.1,875,636.7z"/>
	<path fill="#9AD2E6" d="M916.2,591.1c1.9-1.7,4.7-1.7,6.4,0c1.9,1.7,1.9,4.5,0,6.4c-1.7,1.7-4.5,1.7-6.4,0
		C914.5,595.6,914.5,592.8,916.2,591.1z M916.5,647.2v-39.5h6v39.5H916.5z"/>
	<path fill="#9AD2E6" d="M968.1,607.7l-15,39.5h-6.3l-15-39.5h6.5l11.6,32.2l11.6-32.2H968.1z"/>
	<path fill="#9AD2E6" d="M1009.1,629.3h-29.4c0.6,8.3,5.6,13.2,13.3,13.2c4.4,0,8.1-1.9,11.3-5.8l4.1,3.8c-4.2,5.1-9.4,7.6-15.4,7.6
		c-5.9,0-10.6-1.9-14.2-5.6c-3.5-3.8-5.2-8.7-5.2-14.8c0-6,1.6-11,4.8-14.9c3.3-4,7.7-6,13.1-6c4,0,7.4,1,10.2,3.1
		c5.6,4.2,7.5,10.2,7.5,16.7L1009.1,629.3z M979.9,624h23.2c-0.6-7-4.9-11.6-11.4-11.6C985,612.4,981,617.2,979.9,624z"/>
	<path fill="#9AD2E6" d="M1050.9,607.7v4.8c2.3-3.2,6.6-5.7,11.4-5.7c5.4,0,9.3,2.2,11.8,6.5c3-4.4,7.1-6.5,12.3-6.5
		c10.2,0,15.2,5.8,15.2,17.5v23h-6v-23.5c0-7.7-3.1-11.4-9.2-11.4c-6.5,0-10.2,4.8-10.2,13.1v21.8h-6v-23.1c0-7.9-3-11.8-8.9-11.8
		c-6.8,0-10.4,4.8-10.4,13.1v21.8h-6v-39.5H1050.9z"/>
	<path fill="#9AD2E6" d="M1147.7,629.3h-29.4c0.6,8.3,5.6,13.2,13.3,13.2c4.4,0,8.1-1.9,11.3-5.8l4.1,3.8c-4.2,5.1-9.4,7.6-15.4,7.6
		c-5.9,0-10.6-1.9-14.2-5.6c-3.5-3.8-5.2-8.7-5.2-14.8c0-6,1.6-11,4.8-14.9c3.3-4,7.7-6,13.1-6c4,0,7.4,1,10.2,3.1
		c5.6,4.2,7.5,10.2,7.5,16.7L1147.7,629.3z M1118.5,624h23.2c-0.6-7-4.9-11.6-11.4-11.6C1123.6,612.4,1119.5,617.2,1118.5,624z"/>
	<path fill="#9AD2E6" d="M1181.8,636.1c0-7.8,5.9-12.4,14.6-12.4c2.9,0,6.5,0.6,10.8,1.9v-4c0-5.9-3.9-9.3-9.8-9.3
		c-4.8,0-8.7,2.9-10.3,6.5l-4.1-3.9c3.1-5.5,8-8.2,14.5-8.2c9.6,0,15.6,5.6,15.6,15.5v25h-5.8v-4.1c-3,3.3-7,5-12.3,5
		C1187.6,648.1,1181.8,643.6,1181.8,636.1z M1195.4,642.8c4.8,0,9.3-2.7,11.8-6.3v-5.3c-3.9-1.3-7.3-1.9-10.5-1.9
		c-6,0-8.9,2.8-8.9,7C1187.8,640.2,1190.9,642.8,1195.4,642.8z"/>
	<path fill="#9AD2E6" d="M1260.3,629.5c-7.5-1.8-11.2-5.6-11.2-11.4c0-3.5,1.4-6.3,4-8.3c2.7-2,5.9-3.1,9.6-3.1
		c5.2,0,9.9,2.1,14,6.4l-4,4.3c-3.2-3.4-6.7-5.1-10.4-5.1c-4.3,0-7.3,2.3-7.3,5.6c0,3,1.9,4.9,5.9,5.8l6.2,1.5
		c7.5,1.8,11.2,5.5,11.2,11.1c0,7-5.8,11.8-14.8,11.8c-6.8,0-12.7-3.2-16-7.4l4-4.1c3.2,4,7.2,6,11.9,6c5.6,0,8.9-2.3,8.9-6
		c0-2.8-2.1-4.8-6.2-5.7L1260.3,629.5z"/>
	<path fill="#9AD2E6" d="M1295.4,590.7v21.8c2.7-3.5,7.4-5.7,12.3-5.7c10.1,0,15.7,6.3,15.7,17.5v23h-6v-23.5
		c0-7.3-3.7-11.4-10.1-11.4c-7.7,0-11.9,5.9-11.9,15.3v19.6h-6v-56.5H1295.4z"/>
	<path fill="#9AD2E6" d="M1338.3,642.1c-3.8-4-5.6-8.9-5.6-14.7c0-5.7,1.9-10.6,5.6-14.7c3.8-4,8.5-6,14.2-6c5.6,0,10.4,2,14.2,6
		c3.9,4,5.8,8.9,5.8,14.7c0,5.7-1.9,10.6-5.7,14.7c-3.8,3.9-8.5,6-14.3,6C1346.8,648.1,1342.1,646.1,1338.3,642.1z M1362.4,638.3
		c2.6-2.9,3.9-6.5,3.9-10.8c0-4.3-1.3-7.9-3.9-10.7c-2.6-2.9-5.9-4.4-9.9-4.4c-4,0-7.3,1.5-9.8,4.4c-2.6,2.8-3.9,6.4-3.9,10.7
		c0,4.3,1.3,7.9,3.9,10.8c2.6,2.8,5.9,4.3,9.8,4.3C1356.5,642.6,1359.8,641.1,1362.4,638.3z"/>
	<path fill="#9AD2E6" d="M1409.6,647.2v-5c-3.1,4-7.3,5.9-12.5,5.9c-9.9,0-14.8-5.8-14.8-17.4v-23h6v23.2c0,7.5,3.3,11.5,9.7,11.5
		c7.7,0,11.4-5.6,11.4-15.2v-19.6h6v39.5H1409.6z"/>
	<path fill="#9AD2E6" d="M1430.1,635.6v-22.4h-6.4v-5.5h6.4v-11h6v11h9.2v5.5h-9.2v21.5c0,5.2,1.3,7.2,6,7.2l3.1-0.1v5.4
		c-1,0.1-2.3,0.2-3.7,0.2C1433.8,647.4,1430.1,644.1,1430.1,635.6z"/>
	<path fill="#9AD2E6" d="M704.8,673.1c1.9-1.7,4.7-1.7,6.4,0c1.9,1.7,1.9,4.5,0,6.4c-1.7,1.7-4.5,1.7-6.4,0
		C703.1,677.6,703.1,674.8,704.8,673.1z M705,729.2v-39.5h6v39.5H705z"/>
	<path fill="#9AD2E6" d="M742.4,672.8v5.4h-2.1c-5.9,0-8,2.7-8,8.5v3h9.2v5.5h-9.2v34h-6v-34h-6.4v-5.5h6.4v-3c0-9.8,4.8-14,13.9-14
		L742.4,672.8z"/>
	<path fill="#9AD2E6" d="M788.8,744.9h-6.5l6-15.2l-16.4-40h6.7l13,32.8l12.7-32.8h6.6L788.8,744.9z"/>
	<path fill="#9AD2E6" d="M821.1,724.1c-3.8-4-5.6-8.9-5.6-14.7c0-5.7,1.9-10.6,5.6-14.7c3.8-4,8.5-6,14.2-6s10.4,2,14.2,6
		c3.9,4,5.8,8.9,5.8,14.7c0,5.7-1.9,10.6-5.7,14.7c-3.8,3.9-8.5,6-14.3,6C829.6,730.1,824.9,728.1,821.1,724.1z M845.2,720.3
		c2.6-2.9,3.9-6.5,3.9-10.8c0-4.3-1.3-7.9-3.9-10.7c-2.6-2.9-5.9-4.4-9.9-4.4c-4,0-7.3,1.5-9.8,4.4c-2.6,2.8-3.9,6.4-3.9,10.7
		c0,4.3,1.3,7.9,3.9,10.8c2.6,2.8,5.9,4.3,9.8,4.3C839.3,724.6,842.6,723.1,845.2,720.3z"/>
	<path fill="#9AD2E6" d="M892.4,729.2v-5c-3.1,4-7.3,5.9-12.5,5.9c-9.9,0-14.8-5.8-14.8-17.4v-23h6v23.2c0,7.5,3.3,11.5,9.7,11.5
		c7.7,0,11.4-5.6,11.4-15.2v-19.6h6v39.5H892.4z"/>
	<path fill="#9AD2E6" d="M939.8,732.8c2.8,5,6.8,7.5,12,7.5c8.5,0,13.1-5.5,13.1-13.8v-4.1c-3,3.9-7.3,6-12.9,6
		c-5.1,0-9.3-1.9-12.7-5.6c-3.5-3.8-5.2-8.5-5.2-14.1c0-5.7,1.7-10.4,5.2-14.2c3.5-3.8,7.7-5.6,12.7-5.6c5.6,0,9.9,2,13.1,6v-5.1
		h5.8V726c0,12-7.3,19.8-19,19.8c-7.1,0-12.6-2.9-16.4-8.8L939.8,732.8z M943.6,718.7c2.3,2.7,5.2,3.9,8.9,3.9
		c3.6,0,6.6-1.3,8.9-3.9s3.5-6,3.5-10.2c0-4.2-1.2-7.6-3.5-10.2c-2.3-2.7-5.3-4-8.9-4c-3.6,0-6.5,1.3-8.9,4c-2.3,2.7-3.5,6-3.5,10.2
		C940.2,712.7,941.3,716.1,943.6,718.7z"/>
	<path fill="#9AD2E6" d="M1017.4,711.3H988c0.6,8.3,5.6,13.2,13.3,13.2c4.4,0,8.1-1.9,11.3-5.8l4.1,3.8c-4.2,5.1-9.4,7.6-15.4,7.6
		c-5.9,0-10.6-1.9-14.2-5.6c-3.5-3.8-5.2-8.7-5.2-14.8c0-6,1.6-11,4.8-14.9c3.3-4,7.7-6,13.1-6c4,0,7.4,1,10.2,3.1
		c5.6,4.2,7.5,10.2,7.5,16.7L1017.4,711.3z M988.2,706h23.2c-0.6-7-4.9-11.6-11.4-11.6C993.3,694.4,989.3,699.2,988.2,706z"/>
	<path fill="#9AD2E6" d="M1029.5,717.6v-22.4h-6.4v-5.5h6.4v-11h6v11h9.2v5.5h-9.2v21.5c0,5.2,1.3,7.2,6,7.2l3.1-0.1v5.4
		c-1,0.1-2.3,0.2-3.7,0.2C1033.2,729.4,1029.5,726.1,1029.5,717.6z"/>
	<path fill="#9AD2E6" d="M1090,711.5c-7.5-1.8-11.2-5.6-11.2-11.4c0-3.5,1.4-6.3,4-8.3c2.7-2,5.9-3.1,9.6-3.1c5.2,0,9.9,2.1,14,6.4
		l-4,4.3c-3.2-3.4-6.7-5.1-10.4-5.1c-4.3,0-7.3,2.3-7.3,5.6c0,3,1.9,4.9,5.9,5.8l6.2,1.5c7.5,1.8,11.2,5.5,11.2,11.1
		c0,7-5.8,11.8-14.8,11.8c-6.8,0-12.7-3.2-16-7.4l4-4.1c3.2,4,7.2,6,11.9,6c5.6,0,8.9-2.3,8.9-6c0-2.8-2.1-4.8-6.2-5.7L1090,711.5z"
		/>
	<path fill="#9AD2E6" d="M1120.4,717.6v-22.4h-6.4v-5.5h6.4v-11h6v11h9.2v5.5h-9.2v21.5c0,5.2,1.3,7.2,6,7.2l3.1-0.1v5.4
		c-1,0.1-2.3,0.2-3.7,0.2C1124.1,729.4,1120.4,726.1,1120.4,717.6z"/>
	<path fill="#9AD2E6" d="M1172.3,729.2v-5c-3.1,4-7.3,5.9-12.5,5.9c-9.9,0-14.8-5.8-14.8-17.4v-23h6v23.2c0,7.5,3.3,11.5,9.7,11.5
		c7.7,0,11.4-5.6,11.4-15.2v-19.6h6v39.5H1172.3z"/>
	<path fill="#9AD2E6" d="M1224.7,722.5c-4.2,5.1-9.4,7.6-15.8,7.6c-5.6,0-10.4-2-14.2-6c-3.8-4-5.6-8.9-5.6-14.7
		c0-5.7,1.9-10.6,5.8-14.6c3.9-4.1,8.7-6.1,14.3-6.1c6,0,10.9,2.3,14.8,7l-4,3.9c-3-3.5-6.5-5.3-10.7-5.3c-4,0-7.3,1.5-10,4.4
		c-2.7,2.8-4,6.4-4,10.7c0,8.8,5.4,15.1,14.2,15.1c4.4,0,8.2-1.9,11.2-5.8L1224.7,722.5z"/>
	<path fill="#9AD2E6" d="M1234.8,729.2v-56.5h6V710l18.3-20.2h7.8l-15.4,16.7l16.3,22.8h-7.7l-12.9-18.1l-6.4,7v11.1H1234.8z"/>
	<path fill="#9AD2E6" d="M1287.2,725.4c0,2.7-2.1,4.8-4.9,4.8c-2.7,0-4.8-2.1-4.8-4.8s2.1-4.8,4.8-4.8
		C1285.1,720.5,1287.2,722.5,1287.2,725.4z"/>
	<path fill="#9AD2E6" d="M739.4,812.1c-5.4,0-9.8-2-13.2-6s-5.2-8.9-5.2-14.7c0-5.8,1.7-10.7,5.2-14.7c3.5-4,7.8-6,13.2-6
		c5.3,0,9.8,2.1,13.3,6.2v-5.2h6v29.1c0,3.9,1.4,5.8,4.1,5.8c2.8,0,5-1.7,6.7-5.2c1.7-3.5,2.5-7.3,2.5-11.5c0-8.8-2.7-16.1-7.9-21.9
		c-5.2-5.8-12.7-8.7-22.2-8.7c-9.4,0-17,3-22.9,9c-5.9,6-8.8,13.5-8.8,22.5s3.1,16.4,9.1,22.4c6.1,6,14.1,9,23.9,9
		c5.4,0,10.6-1,15.5-2.9v5.6c-4.7,1.9-9.8,2.7-15.5,2.7c-11.4,0-20.7-3.5-28-10.6c-7.2-7.1-10.8-15.9-10.8-26.3
		c-0.5-20.1,15.6-37.3,37.4-37c7.5,0,13.9,1.7,19.5,5c11,6.7,16.5,17.9,16.5,31.1c0,6.4-1.5,11.8-4.6,16c-3,4.1-6.7,6.2-11,6.2
		c-4.4,0-7.3-2.7-8.5-6.9C750.2,809.7,744.9,812.1,739.4,812.1z M749.3,802.4c2.3-2.9,3.5-6.5,3.5-10.9s-1.2-8-3.5-10.8
		c-2.3-2.8-5.5-4.3-9.4-4.3c-3.9,0-7,1.5-9.4,4.3c-2.3,2.8-3.5,6.4-3.5,10.8s1.1,8,3.5,10.9c2.3,2.8,5.5,4.3,9.4,4.3
		C743.9,806.6,747,805.2,749.3,802.4z"/>
	<path fill="#9AD2E6" d="M811.7,777c-0.4-0.1-0.9-0.1-1.4-0.1c-9.4,0-13.1,4.7-13.1,17.5v16.8h-6v-39.5h5.8v5.2
		c3.5-4.3,7.1-5.8,12.9-5.8c0.6,0,1.2,0,1.8,0.1V777z"/>
	<path fill="#9AD2E6" d="M823.4,806.1c-3.8-4-5.6-8.9-5.6-14.7c0-5.7,1.9-10.6,5.6-14.7c3.8-4,8.5-6,14.2-6s10.4,2,14.2,6
		c3.9,4,5.8,8.9,5.8,14.7c0,5.7-1.9,10.6-5.7,14.7c-3.8,3.9-8.5,6-14.3,6C831.9,812.1,827.2,810.1,823.4,806.1z M847.5,802.3
		c2.6-2.9,3.9-6.5,3.9-10.8c0-4.3-1.3-7.9-3.9-10.7c-2.6-2.9-5.9-4.4-9.9-4.4c-3.9,0-7.3,1.5-9.8,4.4c-2.6,2.8-3.9,6.4-3.9,10.7
		c0,4.3,1.3,7.9,3.9,10.8c2.6,2.8,5.9,4.3,9.8,4.3C841.6,806.6,844.9,805.1,847.5,802.3z"/>
	<path fill="#9AD2E6" d="M874.4,811.2h-5.8v-56.5h6V777c3.5-4.1,8-6.2,13.3-6.2c5.4,0,9.8,2,13.2,6c3.5,4,5.2,8.9,5.2,14.7
		c0,5.8-1.7,10.7-5.2,14.7c-3.5,3.9-7.8,6-13.2,6c-5.4,0-9.8-2.1-13.5-6.3V811.2z M900.1,791.5c0-4.4-1.1-8-3.5-10.8
		c-2.3-2.8-5.4-4.3-9.4-4.3c-4,0-7.1,1.5-9.4,4.3c-2.3,2.8-3.5,6.4-3.5,10.8s1.1,8,3.5,10.8c2.3,2.8,5.5,4.3,9.4,4.3
		c3.9,0,7-1.5,9.4-4.3C899,799.5,900.1,795.8,900.1,791.5z"/>
	<path fill="#9AD2E6" d="M921.6,806.1c-3.8-4-5.6-8.9-5.6-14.7c0-5.7,1.9-10.6,5.6-14.7c3.8-4,8.5-6,14.2-6c5.6,0,10.4,2,14.2,6
		c3.9,4,5.8,8.9,5.8,14.7c0,5.7-1.9,10.6-5.7,14.7c-3.8,3.9-8.5,6-14.3,6C930.1,812.1,925.3,810.1,921.6,806.1z M945.7,802.3
		c2.6-2.9,3.9-6.5,3.9-10.8c0-4.3-1.3-7.9-3.9-10.7c-2.6-2.9-5.9-4.4-9.9-4.4c-4,0-7.3,1.5-9.8,4.4c-2.6,2.8-3.9,6.4-3.9,10.7
		c0,4.3,1.3,7.9,3.9,10.8c2.6,2.8,5.9,4.3,9.8,4.3C939.8,806.6,943.1,805.1,945.7,802.3z"/>
	<path fill="#9AD2E6" d="M967.7,799.6v-22.4h-6.4v-5.5h6.4v-11h6v11h9.2v5.5h-9.2v21.5c0,5.2,1.3,7.2,6,7.2l3.1-0.1v5.4
		c-1,0.1-2.3,0.2-3.7,0.2C971.5,811.4,967.7,808.1,967.7,799.6z"/>
	<path fill="#9AD2E6" d="M1026.8,804.5c-4.2,5.1-9.4,7.6-15.8,7.6c-5.6,0-10.4-2-14.2-6c-3.8-4-5.6-8.9-5.6-14.7
		c0-5.7,1.9-10.6,5.8-14.6c3.9-4.1,8.7-6.1,14.3-6.1c6,0,10.9,2.3,14.8,7l-4,3.9c-3-3.5-6.5-5.3-10.7-5.3c-4,0-7.3,1.5-10,4.4
		c-2.7,2.8-4,6.4-4,10.7c0,8.8,5.4,15.1,14.2,15.1c4.4,0,8.2-1.9,11.2-5.8L1026.8,804.5z"/>
	<path fill="#9AD2E6" d="M1039.3,806.1c-3.8-4-5.6-8.9-5.6-14.7c0-5.7,1.9-10.6,5.6-14.7c3.8-4,8.5-6,14.2-6c5.6,0,10.4,2,14.2,6
		c3.9,4,5.8,8.9,5.8,14.7c0,5.7-1.9,10.6-5.7,14.7c-3.8,3.9-8.5,6-14.3,6C1047.9,812.1,1043.1,810.1,1039.3,806.1z M1063.4,802.3
		c2.6-2.9,3.9-6.5,3.9-10.8c0-4.3-1.3-7.9-3.9-10.7c-2.6-2.9-5.9-4.4-9.9-4.4c-4,0-7.3,1.5-9.8,4.4c-2.6,2.8-3.9,6.4-3.9,10.7
		c0,4.3,1.3,7.9,3.9,10.8c2.6,2.8,5.9,4.3,9.8,4.3C1057.6,806.6,1060.9,805.1,1063.4,802.3z"/>
	<path fill="#9AD2E6" d="M1090.4,771.7v4.8c2.7-3.5,7.6-5.8,12.5-5.8c10.1,0,15.7,6.3,15.7,17.5v23h-6v-23.5
		c0-7.3-3.7-11.4-10.1-11.4c-7.7,0-11.9,5.9-11.9,15.3v19.6h-6v-39.5H1090.4z"/>
	<path fill="#9AD2E6" d="M1140.9,793.5c-7.5-1.8-11.2-5.6-11.2-11.4c0-3.5,1.4-6.3,4-8.3c2.7-2,5.9-3.1,9.6-3.1
		c5.2,0,9.9,2.1,14,6.4l-4,4.3c-3.2-3.4-6.7-5.1-10.4-5.1c-4.3,0-7.3,2.3-7.3,5.6c0,3,1.9,4.9,5.9,5.8l6.2,1.5
		c7.5,1.8,11.2,5.5,11.2,11.1c0,7-5.8,11.8-14.8,11.8c-6.8,0-12.7-3.2-16-7.4l4-4.1c3.2,4,7.2,6,11.9,6c5.6,0,8.9-2.3,8.9-6
		c0-2.8-2.1-4.8-6.2-5.7L1140.9,793.5z"/>
	<path fill="#9AD2E6" d="M1203.3,804.5c-4.2,5.1-9.4,7.6-15.8,7.6c-5.6,0-10.4-2-14.2-6c-3.8-4-5.6-8.9-5.6-14.7
		c0-5.7,1.9-10.6,5.8-14.6c3.9-4.1,8.7-6.1,14.3-6.1c6,0,10.9,2.3,14.8,7l-4,3.9c-3-3.5-6.5-5.3-10.7-5.3c-4,0-7.3,1.5-10,4.4
		c-2.7,2.8-4,6.4-4,10.7c0,8.8,5.4,15.1,14.2,15.1c4.4,0,8.2-1.9,11.2-5.8L1203.3,804.5z"/>
	<path fill="#9AD2E6" d="M1213.8,755.1c1.9-1.7,4.7-1.7,6.4,0c1.9,1.7,1.9,4.5,0,6.4c-1.7,1.7-4.5,1.7-6.4,0
		C1212.1,759.6,1212.1,756.8,1213.8,755.1z M1214,811.2v-39.5h6v39.5H1214z"/>
	<path fill="#9AD2E6" d="M1267.2,793.3h-29.4c0.6,8.3,5.6,13.2,13.3,13.2c4.4,0,8.1-1.9,11.3-5.8l4.1,3.8c-4.2,5.1-9.4,7.6-15.4,7.6
		c-5.9,0-10.6-1.9-14.2-5.6c-3.5-3.8-5.2-8.7-5.2-14.8c0-6,1.6-11,4.8-14.9c3.3-4,7.7-6,13.1-6c4,0,7.4,1,10.2,3.1
		c5.6,4.2,7.5,10.2,7.5,16.7L1267.2,793.3z M1238.1,788h23.2c-0.6-7-4.9-11.6-11.4-11.6C1243.1,776.4,1239.1,781.2,1238.1,788z"/>
	<path fill="#9AD2E6" d="M1284.2,771.7v4.8c2.7-3.5,7.6-5.8,12.5-5.8c10.1,0,15.7,6.3,15.7,17.5v23h-6v-23.5
		c0-7.3-3.7-11.4-10.1-11.4c-7.7,0-11.9,5.9-11.9,15.3v19.6h-6v-39.5H1284.2z"/>
	<path fill="#9AD2E6" d="M1358.6,804.5c-4.2,5.1-9.4,7.6-15.8,7.6c-5.6,0-10.4-2-14.2-6c-3.8-4-5.6-8.9-5.6-14.7
		c0-5.7,1.9-10.6,5.8-14.6c3.9-4.1,8.7-6.1,14.3-6.1c6,0,10.9,2.3,14.8,7l-4,3.9c-3-3.5-6.5-5.3-10.7-5.3c-4,0-7.3,1.5-10,4.4
		c-2.7,2.8-4,6.4-4,10.7c0,8.8,5.4,15.1,14.2,15.1c4.4,0,8.2-1.9,11.2-5.8L1358.6,804.5z"/>
	<path fill="#9AD2E6" d="M1401.1,793.3h-29.4c0.6,8.3,5.6,13.2,13.3,13.2c4.4,0,8.1-1.9,11.3-5.8l4.1,3.8c-4.2,5.1-9.4,7.6-15.4,7.6
		c-5.9,0-10.6-1.9-14.2-5.6c-3.5-3.8-5.2-8.7-5.2-14.8c0-6,1.6-11,4.8-14.9c3.3-4,7.7-6,13.1-6c4,0,7.4,1,10.2,3.1
		c5.6,4.2,7.5,10.2,7.5,16.7L1401.1,793.3z M1371.9,788h23.2c-0.6-7-4.9-11.6-11.4-11.6C1377,776.4,1372.9,781.2,1371.9,788z"/>
</g>
</svg>
