<?xml version="1.0" encoding="utf-8"?>
<!-- Generator: Adobe Illustrator 19.1.0, SVG Export Plug-In . SVG Version: 6.00 Build 0)  -->
<svg version="1.1" baseProfile="tiny" xmlns="http://www.w3.org/2000/svg" xmlns:xlink="http://www.w3.org/1999/xlink"  xml:space="preserve">
<g id="Layer_4">
	<rect x="11.9" fill="#FFFFFF" width="1920" height="1080"/>
</g>
<g id="Layer_6">
	<g>
		<g>
			<path fill="#64ABCC" d="M779.3,426.3l-11.8-22.7v35.3h-13.2v-62.2h13.2l17.6,34.8l17.7-34.8H816v62.2h-13.1v-35.3L791,426.3
				H779.3z"/>
			<path fill="#64ABCC" d="M825,426.1c0-4.5,1.7-8,5-10.4c3.3-2.4,7.4-3.6,12.2-3.6c2.9,0,5.9,0.4,8.7,1.2v-0.7
				c0-4.2-2.7-7.1-7.3-7.1c-4,0-7.1,1.7-9.3,5.1l-8-7.6c4.8-5.8,10.8-8.6,18.2-8.6c5.5,0,10,1.6,13.7,4.7c3.6,3.1,5.4,7.3,5.4,12.7
				v27.1h-12.5v-2.8c-2.9,2.6-6.6,3.8-11,3.8C830.9,439.9,825,434.2,825,426.1z M843.1,429.2c2.8,0,5.4-0.9,7.8-2.7v-5
				c-2.2-0.5-4.2-0.8-5.9-0.8c-4.7,0-7.4,1.8-7.4,4.5C837.7,427.5,839.9,429.2,843.1,429.2z"/>
			<path fill="#64ABCC" d="M887,422.3c-9.5-2.4-14.2-7.1-14.2-14.2c0-4.2,1.6-7.4,4.9-9.9c3.3-2.6,7.3-3.8,12-3.8
				c6.6,0,12.4,2.3,17.5,6.8l-7.7,8.2c-3.5-2.8-6.8-4.3-10.3-4.3c-2.5,0-4.1,1.2-4.1,2.6c0,1.1,1.1,1.9,3.1,2.3l6.5,1.5
				c9.5,2.2,14.3,7,14.3,14.4c0,8.2-7.1,14-18.2,14c-8.1,0-15.4-3.8-19.1-8.4l7.7-7.9c3.9,3.8,8.1,5.8,12.4,5.8
				c2.6,0,4.9-1.2,4.9-2.8c0-1.2-1.3-2.1-3.9-2.7L887,422.3z"/>
			<path fill="#64ABCC" d="M917.5,438.9v-62.2h12.6v32.5l12.1-13.7h15.9l-16,17.9l16.8,25.5h-15.3L933,422.4l-2.9,3.2v13.3H917.5z"
				/>
			<path fill="#7ED2F2" d="M991.3,426.3l-11.8-22.7v35.3h-13.2v-62.2h13.2l17.6,34.8l17.7-34.8h13.1v62.2h-13.1v-35.3l-11.9,22.7
				H991.3z"/>
			<path fill="#7ED2F2" d="M1037.1,426.1c0-4.5,1.7-8,5-10.4c3.3-2.4,7.4-3.6,12.2-3.6c2.9,0,5.9,0.4,8.7,1.2v-0.7
				c0-4.2-2.7-7.1-7.3-7.1c-4,0-7.1,1.7-9.3,5.1l-8-7.6c4.8-5.8,10.8-8.6,18.2-8.6c5.5,0,10,1.6,13.7,4.7c3.6,3.1,5.4,7.3,5.4,12.7
				v27.1h-12.5v-2.8c-2.9,2.6-6.6,3.8-11,3.8C1042.9,439.9,1037.1,434.2,1037.1,426.1z M1055.2,429.2c2.8,0,5.4-0.9,7.8-2.7v-5
				c-2.2-0.5-4.2-0.8-5.9-0.8c-4.7,0-7.4,1.8-7.4,4.5C1049.8,427.5,1052,429.2,1055.2,429.2z"/>
			<path fill="#7ED2F2" d="M1099.1,422.3c-9.5-2.4-14.2-7.1-14.2-14.2c0-4.2,1.6-7.4,4.9-9.9c3.3-2.6,7.3-3.8,12-3.8
				c6.6,0,12.4,2.3,17.5,6.8l-7.7,8.2c-3.5-2.8-6.8-4.3-10.3-4.3c-2.5,0-4.1,1.2-4.1,2.6c0,1.1,1.1,1.9,3.1,2.3l6.5,1.5
				c9.5,2.2,14.3,7,14.3,14.4c0,8.2-7.1,14-18.2,14c-8.1,0-15.4-3.8-19.1-8.4l7.7-7.9c3.9,3.8,8.1,5.8,12.4,5.8
				c2.6,0,4.9-1.2,4.9-2.8c0-1.2-1.3-2.1-3.9-2.7L1099.1,422.3z"/>
			<path fill="#7ED2F2" d="M1129.6,438.9v-62.2h12.6v32.5l12.1-13.7h15.9l-16,17.9l16.8,25.5h-15.3l-10.4-16.5l-2.9,3.2v13.3H1129.6
				z"/>
		</g>
		<g>
			<g>
				<path fill="#B8B9BA" d="M755.8,471.9c1.8-1.6,4.5-1.6,6.2,0c1.8,1.6,1.8,4.4,0,6.2c-1.6,1.6-4.4,1.6-6.2,0
					C754.1,476.3,754.1,473.5,755.8,471.9z M756,526.2V488h5.8v38.2H756z"/>
				<path fill="#B8B9BA" d="M782.1,509c-7.3-1.7-10.8-5.4-10.8-11c0-3.4,1.3-6.1,3.9-8c2.6-2,5.7-3,9.3-3c5.1,0,9.6,2,13.6,6.2
					l-3.9,4.1c-3.1-3.3-6.5-4.9-10.1-4.9c-4.1,0-7,2.2-7,5.4c0,2.9,1.9,4.8,5.7,5.6l6,1.4c7.3,1.7,10.8,5.3,10.8,10.8
					c0,6.8-5.6,11.5-14.3,11.5c-6.6,0-12.3-3.1-15.4-7.2l3.8-4c3.1,3.9,6.9,5.9,11.5,5.9c5.4,0,8.6-2.2,8.6-5.9c0-2.7-2-4.6-6-5.5
					L782.1,509z"/>
				<path fill="#B8B9BA" d="M827.8,515.4c0-7.6,5.7-12,14.1-12c2.8,0,6.3,0.6,10.5,1.9v-3.9c0-5.7-3.8-9-9.4-9
					c-4.7,0-8.4,2.8-10,6.3l-4-3.7c3-5.3,7.7-8,14-8c9.3,0,15.1,5.4,15.1,15v24.2h-5.6v-4c-2.9,3.2-6.8,4.8-11.9,4.8
					C833.4,527,827.8,522.7,827.8,515.4z M841,521.9c4.7,0,9-2.7,11.4-6.1v-5.1c-3.7-1.2-7.1-1.9-10.1-1.9c-5.9,0-8.7,2.7-8.7,6.8
					C833.6,519.4,836.6,521.9,841,521.9z"/>
				<path fill="#B8B9BA" d="M891.3,515v-21.7h-6.2V488h6.2v-10.7h5.8V488h8.9v5.3h-8.9v20.8c0,5,1.2,6.9,5.9,6.9l3-0.1v5.2
					c-1,0.1-2.3,0.2-3.6,0.2C894.9,526.3,891.3,523.1,891.3,515z"/>
				<path fill="#B8B9BA" d="M917.1,521.3c-3.7-3.9-5.5-8.7-5.5-14.2c0-5.5,1.8-10.3,5.5-14.2c3.7-3.9,8.3-5.9,13.7-5.9
					c5.5,0,10.1,1.9,13.7,5.9c3.7,3.9,5.6,8.7,5.6,14.2c0,5.5-1.9,10.3-5.5,14.2c-3.7,3.8-8.3,5.8-13.8,5.8
					C925.3,527,920.7,525.1,917.1,521.3z M940.4,517.5c2.5-2.8,3.7-6.3,3.7-10.5s-1.2-7.6-3.7-10.4c-2.5-2.8-5.7-4.2-9.6-4.2
					c-3.8,0-7,1.4-9.5,4.2c-2.5,2.7-3.7,6.2-3.7,10.4s1.2,7.6,3.7,10.5c2.5,2.7,5.7,4.1,9.5,4.1
					C934.7,521.7,937.9,520.3,940.4,517.5z"/>
				<path fill="#B8B9BA" d="M962.6,521.3c-3.7-3.9-5.5-8.7-5.5-14.2c0-5.5,1.8-10.3,5.5-14.2c3.7-3.9,8.3-5.9,13.7-5.9
					c5.5,0,10.1,1.9,13.7,5.9c3.7,3.9,5.6,8.7,5.6,14.2c0,5.5-1.9,10.3-5.5,14.2c-3.7,3.8-8.3,5.8-13.8,5.8
					C970.9,527,966.3,525.1,962.6,521.3z M985.9,517.5c2.5-2.8,3.7-6.3,3.7-10.5s-1.2-7.6-3.7-10.4c-2.5-2.8-5.7-4.2-9.6-4.2
					c-3.8,0-7,1.4-9.5,4.2c-2.5,2.7-3.7,6.2-3.7,10.4s1.2,7.6,3.7,10.5c2.5,2.7,5.7,4.1,9.5,4.1
					C980.2,521.7,983.4,520.3,985.9,517.5z"/>
				<path fill="#B8B9BA" d="M1004,526.2v-54.7h5.8v54.7H1004z"/>
				<path fill="#B8B9BA" d="M1058.9,471.6v5.2h-2c-5.7,0-7.7,2.6-7.7,8.3v2.9h8.9v5.3h-8.9v32.9h-5.8v-32.9h-6.2V488h6.2v-2.9
					c0-9.4,4.6-13.6,13.4-13.6L1058.9,471.6z"/>
				<path fill="#B8B9BA" d="M1067.9,521.3c-3.7-3.9-5.5-8.7-5.5-14.2c0-5.5,1.8-10.3,5.5-14.2c3.7-3.9,8.3-5.9,13.7-5.9
					c5.5,0,10.1,1.9,13.7,5.9c3.7,3.9,5.6,8.7,5.6,14.2c0,5.5-1.9,10.3-5.5,14.2c-3.7,3.8-8.3,5.8-13.8,5.8
					C1076.2,527,1071.6,525.1,1067.9,521.3z M1091.2,517.5c2.5-2.8,3.7-6.3,3.7-10.5s-1.2-7.6-3.7-10.4c-2.5-2.8-5.7-4.2-9.6-4.2
					c-3.8,0-7,1.4-9.5,4.2c-2.5,2.7-3.7,6.2-3.7,10.4s1.2,7.6,3.7,10.5c2.5,2.7,5.7,4.1,9.5,4.1
					C1085.5,521.7,1088.7,520.3,1091.2,517.5z"/>
				<path fill="#B8B9BA" d="M1129.1,493c-0.4-0.1-0.9-0.1-1.3-0.1c-9,0-12.7,4.5-12.7,16.9v16.3h-5.8V488h5.6v5.1
					c3.4-4.1,6.9-5.6,12.5-5.6c0.5,0,1.2,0,1.7,0.1V493z"/>
				<path fill="#B8B9BA" d="M761.2,621.3h-5.8V568h5.6v5.2c3.5-4.1,7.9-6.2,13-6.2c5.2,0,9.4,1.9,12.8,5.8c3.4,3.8,5,8.6,5,14.2
					s-1.6,10.4-5,14.2s-7.6,5.8-12.8,5.8c-5.2,0-9.5-1.9-12.9-5.9V621.3z M785.9,587.1c0-4.2-1.1-7.7-3.4-10.5
					c-2.3-2.7-5.2-4.1-9-4.1s-6.9,1.4-9.1,4.1c-2.3,2.7-3.4,6.2-3.4,10.5c0,4.2,1.1,7.7,3.4,10.5c2.3,2.7,5.3,4.1,9.1,4.1
					s6.8-1.4,9-4.1C784.9,594.8,785.9,591.3,785.9,587.1z"/>
				<path fill="#B8B9BA" d="M820,573c-0.4-0.1-0.9-0.1-1.3-0.1c-9,0-12.7,4.5-12.7,16.9v16.3h-5.8V568h5.6v5.1
					c3.4-4.1,6.9-5.6,12.5-5.6c0.5,0,1.2,0,1.7,0.1V573z"/>
				<path fill="#B8B9BA" d="M829,601.3c-3.7-3.9-5.5-8.7-5.5-14.2c0-5.5,1.8-10.3,5.5-14.2s8.3-5.8,13.7-5.8
					c5.5,0,10.1,1.9,13.7,5.8c3.7,3.9,5.6,8.7,5.6,14.2c0,5.5-1.9,10.3-5.5,14.2c-3.7,3.8-8.3,5.8-13.8,5.8
					C837.3,607,832.7,605.1,829,601.3z M852.3,597.5c2.5-2.8,3.7-6.3,3.7-10.5c0-4.1-1.2-7.6-3.7-10.4c-2.5-2.8-5.7-4.2-9.6-4.2
					c-3.8,0-7,1.4-9.5,4.2c-2.5,2.7-3.7,6.2-3.7,10.4c0,4.1,1.2,7.6,3.7,10.5c2.5,2.7,5.7,4.1,9.5,4.1
					C846.6,601.7,849.8,600.3,852.3,597.5z"/>
				<path fill="#B8B9BA" d="M872.4,568h5.8v42.4c0,8.1-3.6,11.3-11.2,11.3l-4-0.2v-5.2c1.7,0.1,2.9,0.1,3.4,0.1
					c4.7,0,5.9-1.9,5.9-6.9V568z M875.3,550.6c2.4,0,4.4,1.9,4.4,4.3s-2,4.4-4.4,4.4c-2.4,0-4.4-2-4.4-4.4
					C870.9,552.7,872.8,550.6,875.3,550.6z"/>
				<path fill="#B8B9BA" d="M922.4,588.9h-28.5c0.5,8,5.4,12.8,12.9,12.8c4.3,0,7.9-1.9,10.9-5.6l4,3.7c-4.1,4.9-9,7.3-14.9,7.3
					c-5.7,0-10.3-1.8-13.7-5.5c-3.4-3.7-5.1-8.4-5.1-14.3c0-5.8,1.6-10.6,4.7-14.4c3.2-3.9,7.4-5.8,12.7-5.8c3.9,0,7.2,1,9.8,3
					c5.4,4.1,7.3,9.8,7.3,16.1L922.4,588.9z M894.1,583.7h22.5c-0.5-6.8-4.8-11.2-11.1-11.2C899,572.5,895.1,577.1,894.1,583.7z"/>
				<path fill="#B8B9BA" d="M963.9,599.7c-4.1,4.9-9.1,7.3-15.3,7.3c-5.5,0-10.1-1.9-13.7-5.8c-3.7-3.9-5.5-8.7-5.5-14.2
					c0-5.5,1.9-10.2,5.6-14.1c3.8-4,8.4-5.9,13.8-5.9c5.8,0,10.5,2.3,14.3,6.8l-3.9,3.8c-2.9-3.4-6.3-5.1-10.4-5.1
					c-3.9,0-7.1,1.4-9.7,4.2c-2.6,2.7-3.8,6.2-3.8,10.4c0,8.5,5.2,14.6,13.7,14.6c4.3,0,8-1.9,10.8-5.6L963.9,599.7z"/>
				<path fill="#B8B9BA" d="M973.7,595v-21.7h-6.2V568h6.2v-10.7h5.8V568h8.9v5.3h-8.9v20.8c0,5,1.2,6.9,5.9,6.9l3-0.1v5.2
					c-1,0.1-2.3,0.2-3.6,0.2C977.3,606.3,973.7,603.1,973.7,595z"/>
				<path fill="#B8B9BA" d="M996.5,551.9c1.8-1.6,4.5-1.6,6.2,0c1.8,1.6,1.8,4.4,0,6.2c-1.6,1.6-4.4,1.6-6.2,0
					C994.9,556.3,994.9,553.5,996.5,551.9z M996.8,606.2V568h5.8v38.2H996.8z"/>
				<path fill="#B8B9BA" d="M1017,601.3c-3.7-3.9-5.5-8.7-5.5-14.2c0-5.5,1.8-10.3,5.5-14.2c3.7-3.9,8.3-5.8,13.7-5.8
					c5.5,0,10.1,1.9,13.7,5.8c3.7,3.9,5.6,8.7,5.6,14.2c0,5.5-1.9,10.3-5.5,14.2c-3.7,3.8-8.3,5.8-13.8,5.8
					C1025.2,607,1020.6,605.1,1017,601.3z M1040.3,597.5c2.5-2.8,3.7-6.3,3.7-10.5c0-4.1-1.2-7.6-3.7-10.4c-2.5-2.8-5.7-4.2-9.6-4.2
					c-3.8,0-7,1.4-9.5,4.2c-2.5,2.7-3.7,6.2-3.7,10.4c0,4.1,1.2,7.6,3.7,10.5c2.5,2.7,5.7,4.1,9.5,4.1
					C1034.6,601.7,1037.8,600.3,1040.3,597.5z"/>
				<path fill="#B8B9BA" d="M1064,568v4.7c2.6-3.4,7.3-5.6,12.1-5.6c9.8,0,15.2,6.1,15.2,16.9v22.2h-5.9v-22.7
					c0-7.1-3.6-11.1-9.8-11.1c-7.5,0-11.5,5.7-11.5,14.8v19h-5.8V568H1064z"/>
				<path fill="#B8B9BA" d="M761.1,648v4.6c2.2-3.1,6.4-5.5,11-5.5c5.2,0,9,2.1,11.4,6.3c2.9-4.2,6.9-6.3,11.9-6.3
					c9.8,0,14.7,5.6,14.7,16.9v22.2h-5.8v-22.7c0-7.4-3-11.1-8.9-11.1c-6.3,0-9.8,4.6-9.8,12.7v21.1h-5.8v-22.3
					c0-7.6-2.9-11.5-8.6-11.5c-6.6,0-10.1,4.6-10.1,12.7v21.1h-5.8V648H761.1z"/>
				<path fill="#B8B9BA" d="M818,675.4c0-7.6,5.7-12,14.1-12c2.8,0,6.3,0.6,10.5,1.9v-3.9c0-5.7-3.8-9-9.4-9c-4.7,0-8.4,2.8-10,6.3
					l-4-3.7c3-5.3,7.7-8,14-8c9.3,0,15.1,5.4,15.1,15v24.2h-5.6v-4c-2.9,3.2-6.8,4.8-11.9,4.8C823.6,687,818,682.7,818,675.4z
					 M831.2,681.9c4.7,0,9-2.7,11.4-6.1v-5.1c-3.7-1.2-7.1-1.9-10.1-1.9c-5.9,0-8.7,2.7-8.7,6.8
					C823.8,679.4,826.8,681.9,831.2,681.9z"/>
				<path fill="#B8B9BA" d="M867.6,669c-7.3-1.7-10.8-5.4-10.8-11c0-3.4,1.3-6.1,3.9-8c2.6-2,5.7-3,9.3-3c5.1,0,9.6,2,13.6,6.2
					l-3.9,4.1c-3.1-3.3-6.5-4.9-10.1-4.9c-4.1,0-7,2.2-7,5.4c0,2.9,1.9,4.8,5.7,5.6l6,1.4c7.3,1.7,10.8,5.3,10.8,10.8
					c0,6.8-5.6,11.5-14.3,11.5c-6.6,0-12.3-3.1-15.4-7.2l3.8-4c3.1,3.9,6.9,5.9,11.5,5.9c5.4,0,8.6-2.2,8.6-5.9c0-2.7-2-4.6-6-5.5
					L867.6,669z"/>
				<path fill="#B8B9BA" d="M893.4,686.2v-54.7h5.8v36l17.7-19.6h7.6l-14.9,16.1l15.8,22.1h-7.4l-12.5-17.6l-6.2,6.8v10.8H893.4z"/>
				<path fill="#B8B9BA" d="M933.1,631.9c1.8-1.6,4.5-1.6,6.2,0c1.8,1.6,1.8,4.4,0,6.2c-1.6,1.6-4.4,1.6-6.2,0
					C931.5,636.3,931.5,633.5,933.1,631.9z M933.4,686.2V648h5.8v38.2H933.4z"/>
				<path fill="#B8B9BA" d="M956.4,648v4.7c2.6-3.4,7.3-5.6,12.1-5.6c9.8,0,15.2,6.1,15.2,16.9v22.2h-5.9v-22.7
					c0-7.1-3.6-11.1-9.8-11.1c-7.5,0-11.5,5.7-11.5,14.8v19h-5.8V648H956.4z"/>
				<path fill="#B8B9BA" d="M997.1,689.6c2.7,4.8,6.6,7.3,11.6,7.3c8.2,0,12.6-5.3,12.6-13.3v-4c-2.9,3.8-7,5.8-12.5,5.8
					c-4.9,0-9-1.8-12.3-5.5s-5-8.2-5-13.7c0-5.5,1.6-10.1,5-13.7s7.4-5.5,12.3-5.5c5.4,0,9.6,2,12.6,5.8V648h5.6v35.1
					c0,11.6-7.1,19.1-18.4,19.1c-6.9,0-12.2-2.8-15.8-8.5L997.1,689.6z M1000.8,676c2.3,2.6,5.1,3.8,8.6,3.8c3.5,0,6.4-1.2,8.7-3.8
					c2.3-2.6,3.4-5.8,3.4-9.8c0-4.1-1.2-7.3-3.4-9.9c-2.3-2.6-5.1-3.8-8.7-3.8c-3.5,0-6.3,1.2-8.6,3.8s-3.4,5.8-3.4,9.9
					C997.5,670.2,998.6,673.5,1000.8,676z"/>
			</g>
			<g>
				<path fill="#B8B9BA" d="M755.8,471.9c1.8-1.6,4.5-1.6,6.2,0c1.8,1.6,1.8,4.4,0,6.2c-1.6,1.6-4.4,1.6-6.2,0
					C754.1,476.3,754.1,473.5,755.8,471.9z M756,526.2V488h5.8v38.2H756z"/>
				<path fill="#B8B9BA" d="M782.1,509c-7.3-1.7-10.8-5.4-10.8-11c0-3.4,1.3-6.1,3.9-8c2.6-2,5.7-3,9.3-3c5.1,0,9.6,2,13.6,6.2
					l-3.9,4.1c-3.1-3.3-6.5-4.9-10.1-4.9c-4.1,0-7,2.2-7,5.4c0,2.9,1.9,4.8,5.7,5.6l6,1.4c7.3,1.7,10.8,5.3,10.8,10.8
					c0,6.8-5.6,11.5-14.3,11.5c-6.6,0-12.3-3.1-15.4-7.2l3.8-4c3.1,3.9,6.9,5.9,11.5,5.9c5.4,0,8.6-2.2,8.6-5.9c0-2.7-2-4.6-6-5.5
					L782.1,509z"/>
				<path fill="#B8B9BA" d="M827.8,515.4c0-7.6,5.7-12,14.1-12c2.8,0,6.3,0.6,10.5,1.9v-3.9c0-5.7-3.8-9-9.4-9
					c-4.7,0-8.4,2.8-10,6.3l-4-3.7c3-5.3,7.7-8,14-8c9.3,0,15.1,5.4,15.1,15v24.2h-5.6v-4c-2.9,3.2-6.8,4.8-11.9,4.8
					C833.4,527,827.8,522.7,827.8,515.4z M841,521.9c4.7,0,9-2.7,11.4-6.1v-5.1c-3.7-1.2-7.1-1.9-10.1-1.9c-5.9,0-8.7,2.7-8.7,6.8
					C833.6,519.4,836.6,521.9,841,521.9z"/>
				<path fill="#B8B9BA" d="M891.3,515v-21.7h-6.2V488h6.2v-10.7h5.8V488h8.9v5.3h-8.9v20.8c0,5,1.2,6.9,5.9,6.9l3-0.1v5.2
					c-1,0.1-2.3,0.2-3.6,0.2C894.9,526.3,891.3,523.1,891.3,515z"/>
				<path fill="#B8B9BA" d="M917.1,521.3c-3.7-3.9-5.5-8.7-5.5-14.2c0-5.5,1.8-10.3,5.5-14.2c3.7-3.9,8.3-5.9,13.7-5.9
					c5.5,0,10.1,1.9,13.7,5.9c3.7,3.9,5.6,8.7,5.6,14.2c0,5.5-1.9,10.3-5.5,14.2c-3.7,3.8-8.3,5.8-13.8,5.8
					C925.3,527,920.7,525.1,917.1,521.3z M940.4,517.5c2.5-2.8,3.7-6.3,3.7-10.5s-1.2-7.6-3.7-10.4c-2.5-2.8-5.7-4.2-9.6-4.2
					c-3.8,0-7,1.4-9.5,4.2c-2.5,2.7-3.7,6.2-3.7,10.4s1.2,7.6,3.7,10.5c2.5,2.7,5.7,4.1,9.5,4.1
					C934.7,521.7,937.9,520.3,940.4,517.5z"/>
				<path fill="#B8B9BA" d="M962.6,521.3c-3.7-3.9-5.5-8.7-5.5-14.2c0-5.5,1.8-10.3,5.5-14.2c3.7-3.9,8.3-5.9,13.7-5.9
					c5.5,0,10.1,1.9,13.7,5.9c3.7,3.9,5.6,8.7,5.6,14.2c0,5.5-1.9,10.3-5.5,14.2c-3.7,3.8-8.3,5.8-13.8,5.8
					C970.9,527,966.3,525.1,962.6,521.3z M985.9,517.5c2.5-2.8,3.7-6.3,3.7-10.5s-1.2-7.6-3.7-10.4c-2.5-2.8-5.7-4.2-9.6-4.2
					c-3.8,0-7,1.4-9.5,4.2c-2.5,2.7-3.7,6.2-3.7,10.4s1.2,7.6,3.7,10.5c2.5,2.7,5.7,4.1,9.5,4.1
					C980.2,521.7,983.4,520.3,985.9,517.5z"/>
				<path fill="#B8B9BA" d="M1004,526.2v-54.7h5.8v54.7H1004z"/>
				<path fill="#B8B9BA" d="M1058.9,471.6v5.2h-2c-5.7,0-7.7,2.6-7.7,8.3v2.9h8.9v5.3h-8.9v32.9h-5.8v-32.9h-6.2V488h6.2v-2.9
					c0-9.4,4.6-13.6,13.4-13.6L1058.9,471.6z"/>
				<path fill="#B8B9BA" d="M1067.9,521.3c-3.7-3.9-5.5-8.7-5.5-14.2c0-5.5,1.8-10.3,5.5-14.2c3.7-3.9,8.3-5.9,13.7-5.9
					c5.5,0,10.1,1.9,13.7,5.9c3.7,3.9,5.6,8.7,5.6,14.2c0,5.5-1.9,10.3-5.5,14.2c-3.7,3.8-8.3,5.8-13.8,5.8
					C1076.2,527,1071.6,525.1,1067.9,521.3z M1091.2,517.5c2.5-2.8,3.7-6.3,3.7-10.5s-1.2-7.6-3.7-10.4c-2.5-2.8-5.7-4.2-9.6-4.2
					c-3.8,0-7,1.4-9.5,4.2c-2.5,2.7-3.7,6.2-3.7,10.4s1.2,7.6,3.7,10.5c2.5,2.7,5.7,4.1,9.5,4.1
					C1085.5,521.7,1088.7,520.3,1091.2,517.5z"/>
				<path fill="#B8B9BA" d="M1129.1,493c-0.4-0.1-0.9-0.1-1.3-0.1c-9,0-12.7,4.5-12.7,16.9v16.3h-5.8V488h5.6v5.1
					c3.4-4.1,6.9-5.6,12.5-5.6c0.5,0,1.2,0,1.7,0.1V493z"/>
				<path fill="#B8B9BA" d="M761.2,621.3h-5.8V568h5.6v5.2c3.5-4.1,7.9-6.2,13-6.2c5.2,0,9.4,1.9,12.8,5.8c3.4,3.8,5,8.6,5,14.2
					s-1.6,10.4-5,14.2s-7.6,5.8-12.8,5.8c-5.2,0-9.5-1.9-12.9-5.9V621.3z M785.9,587.1c0-4.2-1.1-7.7-3.4-10.5
					c-2.3-2.7-5.2-4.1-9-4.1s-6.9,1.4-9.1,4.1c-2.3,2.7-3.4,6.2-3.4,10.5c0,4.2,1.1,7.7,3.4,10.5c2.3,2.7,5.3,4.1,9.1,4.1
					s6.8-1.4,9-4.1C784.9,594.8,785.9,591.3,785.9,587.1z"/>
				<path fill="#B8B9BA" d="M820,573c-0.4-0.1-0.9-0.1-1.3-0.1c-9,0-12.7,4.5-12.7,16.9v16.3h-5.8V568h5.6v5.1
					c3.4-4.1,6.9-5.6,12.5-5.6c0.5,0,1.2,0,1.7,0.1V573z"/>
				<path fill="#B8B9BA" d="M829,601.3c-3.7-3.9-5.5-8.7-5.5-14.2c0-5.5,1.8-10.3,5.5-14.2s8.3-5.8,13.7-5.8
					c5.5,0,10.1,1.9,13.7,5.8c3.7,3.9,5.6,8.7,5.6,14.2c0,5.5-1.9,10.3-5.5,14.2c-3.7,3.8-8.3,5.8-13.8,5.8
					C837.3,607,832.7,605.1,829,601.3z M852.3,597.5c2.5-2.8,3.7-6.3,3.7-10.5c0-4.1-1.2-7.6-3.7-10.4c-2.5-2.8-5.7-4.2-9.6-4.2
					c-3.8,0-7,1.4-9.5,4.2c-2.5,2.7-3.7,6.2-3.7,10.4c0,4.1,1.2,7.6,3.7,10.5c2.5,2.7,5.7,4.1,9.5,4.1
					C846.6,601.7,849.8,600.3,852.3,597.5z"/>
				<path fill="#B8B9BA" d="M872.4,568h5.8v42.4c0,8.1-3.6,11.3-11.2,11.3l-4-0.2v-5.2c1.7,0.1,2.9,0.1,3.4,0.1
					c4.7,0,5.9-1.9,5.9-6.9V568z M875.3,550.6c2.4,0,4.4,1.9,4.4,4.3s-2,4.4-4.4,4.4c-2.4,0-4.4-2-4.4-4.4
					C870.9,552.7,872.8,550.6,875.3,550.6z"/>
				<path fill="#B8B9BA" d="M922.4,588.9h-28.5c0.5,8,5.4,12.8,12.9,12.8c4.3,0,7.9-1.9,10.9-5.6l4,3.7c-4.1,4.9-9,7.3-14.9,7.3
					c-5.7,0-10.3-1.8-13.7-5.5c-3.4-3.7-5.1-8.4-5.1-14.3c0-5.8,1.6-10.6,4.7-14.4c3.2-3.9,7.4-5.8,12.7-5.8c3.9,0,7.2,1,9.8,3
					c5.4,4.1,7.3,9.8,7.3,16.1L922.4,588.9z M894.1,583.7h22.5c-0.5-6.8-4.8-11.2-11.1-11.2C899,572.5,895.1,577.1,894.1,583.7z"/>
				<path fill="#B8B9BA" d="M963.9,599.7c-4.1,4.9-9.1,7.3-15.3,7.3c-5.5,0-10.1-1.9-13.7-5.8c-3.7-3.9-5.5-8.7-5.5-14.2
					c0-5.5,1.9-10.2,5.6-14.1c3.8-4,8.4-5.9,13.8-5.9c5.8,0,10.5,2.3,14.3,6.8l-3.9,3.8c-2.9-3.4-6.3-5.1-10.4-5.1
					c-3.9,0-7.1,1.4-9.7,4.2c-2.6,2.7-3.8,6.2-3.8,10.4c0,8.5,5.2,14.6,13.7,14.6c4.3,0,8-1.9,10.8-5.6L963.9,599.7z"/>
				<path fill="#B8B9BA" d="M973.7,595v-21.7h-6.2V568h6.2v-10.7h5.8V568h8.9v5.3h-8.9v20.8c0,5,1.2,6.9,5.9,6.9l3-0.1v5.2
					c-1,0.1-2.3,0.2-3.6,0.2C977.3,606.3,973.7,603.1,973.7,595z"/>
				<path fill="#B8B9BA" d="M996.5,551.9c1.8-1.6,4.5-1.6,6.2,0c1.8,1.6,1.8,4.4,0,6.2c-1.6,1.6-4.4,1.6-6.2,0
					C994.9,556.3,994.9,553.5,996.5,551.9z M996.8,606.2V568h5.8v38.2H996.8z"/>
				<path fill="#B8B9BA" d="M1017,601.3c-3.7-3.9-5.5-8.7-5.5-14.2c0-5.5,1.8-10.3,5.5-14.2c3.7-3.9,8.3-5.8,13.7-5.8
					c5.5,0,10.1,1.9,13.7,5.8c3.7,3.9,5.6,8.7,5.6,14.2c0,5.5-1.9,10.3-5.5,14.2c-3.7,3.8-8.3,5.8-13.8,5.8
					C1025.2,607,1020.6,605.1,1017,601.3z M1040.3,597.5c2.5-2.8,3.7-6.3,3.7-10.5c0-4.1-1.2-7.6-3.7-10.4c-2.5-2.8-5.7-4.2-9.6-4.2
					c-3.8,0-7,1.4-9.5,4.2c-2.5,2.7-3.7,6.2-3.7,10.4c0,4.1,1.2,7.6,3.7,10.5c2.5,2.7,5.7,4.1,9.5,4.1
					C1034.6,601.7,1037.8,600.3,1040.3,597.5z"/>
				<path fill="#B8B9BA" d="M1064,568v4.7c2.6-3.4,7.3-5.6,12.1-5.6c9.8,0,15.2,6.1,15.2,16.9v22.2h-5.9v-22.7
					c0-7.1-3.6-11.1-9.8-11.1c-7.5,0-11.5,5.7-11.5,14.8v19h-5.8V568H1064z"/>
				<path fill="#B8B9BA" d="M761.1,648v4.6c2.2-3.1,6.4-5.5,11-5.5c5.2,0,9,2.1,11.4,6.3c2.9-4.2,6.9-6.3,11.9-6.3
					c9.8,0,14.7,5.6,14.7,16.9v22.2h-5.8v-22.7c0-7.4-3-11.1-8.9-11.1c-6.3,0-9.8,4.6-9.8,12.7v21.1h-5.8v-22.3
					c0-7.6-2.9-11.5-8.6-11.5c-6.6,0-10.1,4.6-10.1,12.7v21.1h-5.8V648H761.1z"/>
				<path fill="#B8B9BA" d="M818,675.4c0-7.6,5.7-12,14.1-12c2.8,0,6.3,0.6,10.5,1.9v-3.9c0-5.7-3.8-9-9.4-9c-4.7,0-8.4,2.8-10,6.3
					l-4-3.7c3-5.3,7.7-8,14-8c9.3,0,15.1,5.4,15.1,15v24.2h-5.6v-4c-2.9,3.2-6.8,4.8-11.9,4.8C823.6,687,818,682.7,818,675.4z
					 M831.2,681.9c4.7,0,9-2.7,11.4-6.1v-5.1c-3.7-1.2-7.1-1.9-10.1-1.9c-5.9,0-8.7,2.7-8.7,6.8
					C823.8,679.4,826.8,681.9,831.2,681.9z"/>
				<path fill="#B8B9BA" d="M867.6,669c-7.3-1.7-10.8-5.4-10.8-11c0-3.4,1.3-6.1,3.9-8c2.6-2,5.7-3,9.3-3c5.1,0,9.6,2,13.6,6.2
					l-3.9,4.1c-3.1-3.3-6.5-4.9-10.1-4.9c-4.1,0-7,2.2-7,5.4c0,2.9,1.9,4.8,5.7,5.6l6,1.4c7.3,1.7,10.8,5.3,10.8,10.8
					c0,6.8-5.6,11.5-14.3,11.5c-6.6,0-12.3-3.1-15.4-7.2l3.8-4c3.1,3.9,6.9,5.9,11.5,5.9c5.4,0,8.6-2.2,8.6-5.9c0-2.7-2-4.6-6-5.5
					L867.6,669z"/>
				<path fill="#B8B9BA" d="M893.4,686.2v-54.7h5.8v36l17.7-19.6h7.6l-14.9,16.1l15.8,22.1h-7.4l-12.5-17.6l-6.2,6.8v10.8H893.4z"/>
				<path fill="#B8B9BA" d="M933.1,631.9c1.8-1.6,4.5-1.6,6.2,0c1.8,1.6,1.8,4.4,0,6.2c-1.6,1.6-4.4,1.6-6.2,0
					C931.5,636.3,931.5,633.5,933.1,631.9z M933.4,686.2V648h5.8v38.2H933.4z"/>
				<path fill="#B8B9BA" d="M956.4,648v4.7c2.6-3.4,7.3-5.6,12.1-5.6c9.8,0,15.2,6.1,15.2,16.9v22.2h-5.9v-22.7
					c0-7.1-3.6-11.1-9.8-11.1c-7.5,0-11.5,5.7-11.5,14.8v19h-5.8V648H956.4z"/>
				<path fill="#B8B9BA" d="M997.1,689.6c2.7,4.8,6.6,7.3,11.6,7.3c8.2,0,12.6-5.3,12.6-13.3v-4c-2.9,3.8-7,5.8-12.5,5.8
					c-4.9,0-9-1.8-12.3-5.5s-5-8.2-5-13.7c0-5.5,1.6-10.1,5-13.7s7.4-5.5,12.3-5.5c5.4,0,9.6,2,12.6,5.8V648h5.6v35.1
					c0,11.6-7.1,19.1-18.4,19.1c-6.9,0-12.2-2.8-15.8-8.5L997.1,689.6z M1000.8,676c2.3,2.6,5.1,3.8,8.6,3.8c3.5,0,6.4-1.2,8.7-3.8
					c2.3-2.6,3.4-5.8,3.4-9.8c0-4.1-1.2-7.3-3.4-9.9c-2.3-2.6-5.1-3.8-8.7-3.8c-3.5,0-6.3,1.2-8.6,3.8s-3.4,5.8-3.4,9.9
					C997.5,670.2,998.6,673.5,1000.8,676z"/>
			</g>
		</g>
	</g>
	<g>
		<g>
			<path fill="#B8B9BA" d="M843.8,1018.2l-1.6,1.5c-4.1-4-6.1-8.6-6.1-13.9c0-5.3,2-10,6.1-13.9l1.6,1.5c-3.7,3.8-5.4,7.7-5.4,12.5
				C838.4,1010.6,840,1014.5,843.8,1018.2z"/>
			<path fill="#B8B9BA" d="M857.3,1011.1c-1.6,1.9-3.5,2.8-5.9,2.8c-2.1,0-3.9-0.8-5.3-2.2c-1.4-1.5-2.1-3.3-2.1-5.5
				s0.7-3.9,2.2-5.4c1.5-1.5,3.2-2.3,5.3-2.3c2.2,0,4,0.9,5.5,2.6l-1.5,1.5c-1.1-1.3-2.4-2-4-2c-1.5,0-2.7,0.5-3.7,1.6
				c-1,1-1.5,2.4-1.5,4c0,3.3,2,5.6,5.3,5.6c1.6,0,3.1-0.7,4.2-2.2L857.3,1011.1z"/>
			<path fill="#B8B9BA" d="M860.2,1013.5v-21h2.2v21H860.2z"/>
			<path fill="#B8B9BA" d="M866.8,992.7c0.7-0.6,1.7-0.6,2.4,0c0.7,0.6,0.7,1.7,0,2.4c-0.6,0.6-1.7,0.6-2.4,0
				C866.1,994.3,866.1,993.3,866.8,992.7z M866.9,1013.5v-14.7h2.2v14.7H866.9z"/>
			<path fill="#B8B9BA" d="M885.8,1011.1c-1.6,1.9-3.5,2.8-5.9,2.8c-2.1,0-3.9-0.8-5.3-2.2c-1.4-1.5-2.1-3.3-2.1-5.5
				s0.7-3.9,2.2-5.4c1.5-1.5,3.2-2.3,5.3-2.3c2.2,0,4,0.9,5.5,2.6l-1.5,1.5c-1.1-1.3-2.4-2-4-2c-1.5,0-2.7,0.5-3.7,1.6
				c-1,1-1.5,2.4-1.5,4c0,3.3,2,5.6,5.3,5.6c1.7,0,3.1-0.7,4.2-2.2L885.8,1011.1z"/>
			<path fill="#B8B9BA" d="M888.7,1013.5v-21h2.2v13.9l6.8-7.5h2.9l-5.7,6.2l6.1,8.5h-2.8l-4.8-6.8l-2.4,2.6v4.1H888.7z"/>
			<path fill="#B8B9BA" d="M912.9,1009.2v-8.3h-2.4v-2h2.4v-4.1h2.2v4.1h3.4v2h-3.4v8c0,1.9,0.5,2.7,2.2,2.7l1.2,0v2
				c-0.4,0-0.9,0.1-1.4,0.1C914.2,1013.6,912.9,1012.4,912.9,1009.2z"/>
			<path fill="#B8B9BA" d="M922.8,1011.7c-1.4-1.5-2.1-3.3-2.1-5.5s0.7-4,2.1-5.5s3.2-2.2,5.3-2.2c2.1,0,3.9,0.8,5.3,2.2
				c1.4,1.5,2.2,3.3,2.2,5.5s-0.7,4-2.1,5.5c-1.4,1.5-3.2,2.2-5.3,2.2C925.9,1013.9,924.2,1013.1,922.8,1011.7z M931.7,1010.2
				c1-1.1,1.4-2.4,1.4-4s-0.5-2.9-1.4-4c-1-1.1-2.2-1.6-3.7-1.6c-1.5,0-2.7,0.5-3.7,1.6c-1,1-1.4,2.4-1.4,4s0.5,2.9,1.4,4
				c1,1,2.2,1.6,3.7,1.6C929.5,1011.8,930.8,1011.3,931.7,1010.2z"/>
			<path fill="#B8B9BA" d="M946.3,1009.4c0-2.9,2.2-4.6,5.4-4.6c1.1,0,2.4,0.2,4,0.7v-1.5c0-2.2-1.5-3.4-3.6-3.4
				c-1.8,0-3.2,1.1-3.8,2.4l-1.5-1.4c1.2-2,3-3.1,5.4-3.1c3.6,0,5.8,2.1,5.8,5.8v9.3h-2.2v-1.5c-1.1,1.2-2.6,1.9-4.6,1.9
				C948.5,1013.9,946.3,1012.2,946.3,1009.4z M951.4,1011.9c1.8,0,3.4-1,4.4-2.3v-2c-1.4-0.5-2.7-0.7-3.9-0.7
				c-2.2,0-3.3,1.1-3.3,2.6C948.6,1010.9,949.7,1011.9,951.4,1011.9z"/>
			<path fill="#B8B9BA" d="M972.8,1000.8v-8.3h2.2v21h-2.1v-2c-1.3,1.6-3,2.3-5,2.3c-2,0-3.6-0.8-4.9-2.2c-1.3-1.5-1.9-3.3-1.9-5.5
				c0-2.2,0.6-4,1.9-5.5c1.3-1.5,2.9-2.2,4.9-2.2C969.9,998.5,971.5,999.3,972.8,1000.8z M963.3,1006.2c0,1.6,0.4,3,1.3,4
				s2,1.6,3.5,1.6c1.5,0,2.6-0.5,3.5-1.6s1.3-2.4,1.3-4c0-1.6-0.4-3-1.3-4c-0.9-1-2-1.6-3.5-1.6c-1.5,0-2.6,0.5-3.5,1.6
				C963.7,1003.2,963.3,1004.6,963.3,1006.2z"/>
			<path fill="#B8B9BA" d="M990.9,998.8l-5.6,14.7H983l-5.6-14.7h2.4l4.3,12l4.3-12H990.9z"/>
			<path fill="#B8B9BA" d="M992.2,1009.4c0-2.9,2.2-4.6,5.4-4.6c1.1,0,2.4,0.2,4,0.7v-1.5c0-2.2-1.5-3.4-3.6-3.4
				c-1.8,0-3.2,1.1-3.8,2.4l-1.5-1.4c1.2-2,3-3.1,5.4-3.1c3.6,0,5.8,2.1,5.8,5.8v9.3h-2.2v-1.5c-1.1,1.2-2.6,1.9-4.6,1.9
				C994.4,1013.9,992.2,1012.2,992.2,1009.4z M997.3,1011.9c1.8,0,3.5-1,4.4-2.3v-2c-1.4-0.5-2.7-0.7-3.9-0.7
				c-2.2,0-3.3,1.1-3.3,2.6C994.4,1010.9,995.6,1011.9,997.3,1011.9z"/>
			<path fill="#B8B9BA" d="M1010.1,998.8v1.8c1-1.3,2.8-2.2,4.7-2.2c3.7,0,5.8,2.3,5.8,6.5v8.5h-2.2v-8.7c0-2.7-1.4-4.3-3.8-4.3
				c-2.9,0-4.4,2.2-4.4,5.7v7.3h-2.2v-14.7H1010.1z"/>
			<path fill="#B8B9BA" d="M1036.9,1011.1c-1.6,1.9-3.5,2.8-5.9,2.8c-2.1,0-3.9-0.8-5.3-2.2c-1.4-1.5-2.1-3.3-2.1-5.5
				s0.7-3.9,2.2-5.4c1.5-1.5,3.2-2.3,5.3-2.3c2.2,0,4,0.9,5.5,2.6l-1.5,1.5c-1.1-1.3-2.4-2-4-2c-1.5,0-2.7,0.5-3.7,1.6
				c-1,1-1.5,2.4-1.5,4c0,3.3,2,5.6,5.3,5.6c1.7,0,3.1-0.7,4.2-2.2L1036.9,1011.1z"/>
			<path fill="#B8B9BA" d="M1051.8,1006.9h-10.9c0.2,3.1,2.1,4.9,4.9,4.9c1.7,0,3-0.7,4.2-2.2l1.5,1.4c-1.6,1.9-3.5,2.8-5.7,2.8
				c-2.2,0-4-0.7-5.3-2.1c-1.3-1.4-2-3.2-2-5.5c0-2.2,0.6-4.1,1.8-5.5c1.2-1.5,2.8-2.2,4.9-2.2c1.5,0,2.8,0.4,3.8,1.2
				c2.1,1.6,2.8,3.8,2.8,6.2L1051.8,1006.9z M1040.9,1004.9h8.6c-0.2-2.6-1.8-4.3-4.3-4.3
				C1042.8,1000.6,1041.3,1002.4,1040.9,1004.9z"/>
			<path fill="#B8B9BA" d="M1052.8,993.3l1.6-1.5c4.1,4,6.1,8.6,6.1,13.9c0,5.3-2,10-6.1,13.9l-1.6-1.5c3.7-3.8,5.4-7.7,5.4-12.5
				C1058.2,1000.9,1056.5,997,1052.8,993.3z"/>
		</g>
		<g>
			<path fill="#B8B9BA" d="M843.8,1018.2l-1.6,1.5c-4.1-4-6.1-8.6-6.1-13.9c0-5.3,2-10,6.1-13.9l1.6,1.5c-3.7,3.8-5.4,7.7-5.4,12.5
				C838.4,1010.6,840,1014.5,843.8,1018.2z"/>
			<path fill="#B8B9BA" d="M857.3,1011.1c-1.6,1.9-3.5,2.8-5.9,2.8c-2.1,0-3.9-0.8-5.3-2.2c-1.4-1.5-2.1-3.3-2.1-5.5
				s0.7-3.9,2.2-5.4c1.5-1.5,3.2-2.3,5.3-2.3c2.2,0,4,0.9,5.5,2.6l-1.5,1.5c-1.1-1.3-2.4-2-4-2c-1.5,0-2.7,0.5-3.7,1.6
				c-1,1-1.5,2.4-1.5,4c0,3.3,2,5.6,5.3,5.6c1.6,0,3.1-0.7,4.2-2.2L857.3,1011.1z"/>
			<path fill="#B8B9BA" d="M860.2,1013.5v-21h2.2v21H860.2z"/>
			<path fill="#B8B9BA" d="M866.8,992.7c0.7-0.6,1.7-0.6,2.4,0c0.7,0.6,0.7,1.7,0,2.4c-0.6,0.6-1.7,0.6-2.4,0
				C866.1,994.3,866.1,993.3,866.8,992.7z M866.9,1013.5v-14.7h2.2v14.7H866.9z"/>
			<path fill="#B8B9BA" d="M885.8,1011.1c-1.6,1.9-3.5,2.8-5.9,2.8c-2.1,0-3.9-0.8-5.3-2.2c-1.4-1.5-2.1-3.3-2.1-5.5
				s0.7-3.9,2.2-5.4c1.5-1.5,3.2-2.3,5.3-2.3c2.2,0,4,0.9,5.5,2.6l-1.5,1.5c-1.1-1.3-2.4-2-4-2c-1.5,0-2.7,0.5-3.7,1.6
				c-1,1-1.5,2.4-1.5,4c0,3.3,2,5.6,5.3,5.6c1.7,0,3.1-0.7,4.2-2.2L885.8,1011.1z"/>
			<path fill="#B8B9BA" d="M888.7,1013.5v-21h2.2v13.9l6.8-7.5h2.9l-5.7,6.2l6.1,8.5h-2.8l-4.8-6.8l-2.4,2.6v4.1H888.7z"/>
			<path fill="#B8B9BA" d="M912.9,1009.2v-8.3h-2.4v-2h2.4v-4.1h2.2v4.1h3.4v2h-3.4v8c0,1.9,0.5,2.7,2.2,2.7l1.2,0v2
				c-0.4,0-0.9,0.1-1.4,0.1C914.2,1013.6,912.9,1012.4,912.9,1009.2z"/>
			<path fill="#B8B9BA" d="M922.8,1011.7c-1.4-1.5-2.1-3.3-2.1-5.5s0.7-4,2.1-5.5s3.2-2.2,5.3-2.2c2.1,0,3.9,0.8,5.3,2.2
				c1.4,1.5,2.2,3.3,2.2,5.5s-0.7,4-2.1,5.5c-1.4,1.5-3.2,2.2-5.3,2.2C925.9,1013.9,924.2,1013.1,922.8,1011.7z M931.7,1010.2
				c1-1.1,1.4-2.4,1.4-4s-0.5-2.9-1.4-4c-1-1.1-2.2-1.6-3.7-1.6c-1.5,0-2.7,0.5-3.7,1.6c-1,1-1.4,2.4-1.4,4s0.5,2.9,1.4,4
				c1,1,2.2,1.6,3.7,1.6C929.5,1011.8,930.8,1011.3,931.7,1010.2z"/>
			<path fill="#B8B9BA" d="M946.3,1009.4c0-2.9,2.2-4.6,5.4-4.6c1.1,0,2.4,0.2,4,0.7v-1.5c0-2.2-1.5-3.4-3.6-3.4
				c-1.8,0-3.2,1.1-3.8,2.4l-1.5-1.4c1.2-2,3-3.1,5.4-3.1c3.6,0,5.8,2.1,5.8,5.8v9.3h-2.2v-1.5c-1.1,1.2-2.6,1.9-4.6,1.9
				C948.5,1013.9,946.3,1012.2,946.3,1009.4z M951.4,1011.9c1.8,0,3.4-1,4.4-2.3v-2c-1.4-0.5-2.7-0.7-3.9-0.7
				c-2.2,0-3.3,1.1-3.3,2.6C948.6,1010.9,949.7,1011.9,951.4,1011.9z"/>
			<path fill="#B8B9BA" d="M972.8,1000.8v-8.3h2.2v21h-2.1v-2c-1.3,1.6-3,2.3-5,2.3c-2,0-3.6-0.8-4.9-2.2c-1.3-1.5-1.9-3.3-1.9-5.5
				c0-2.2,0.6-4,1.9-5.5c1.3-1.5,2.9-2.2,4.9-2.2C969.9,998.5,971.5,999.3,972.8,1000.8z M963.3,1006.2c0,1.6,0.4,3,1.3,4
				s2,1.6,3.5,1.6c1.5,0,2.6-0.5,3.5-1.6s1.3-2.4,1.3-4c0-1.6-0.4-3-1.3-4c-0.9-1-2-1.6-3.5-1.6c-1.5,0-2.6,0.5-3.5,1.6
				C963.7,1003.2,963.3,1004.6,963.3,1006.2z"/>
			<path fill="#B8B9BA" d="M990.9,998.8l-5.6,14.7H983l-5.6-14.7h2.4l4.3,12l4.3-12H990.9z"/>
			<path fill="#B8B9BA" d="M992.2,1009.4c0-2.9,2.2-4.6,5.4-4.6c1.1,0,2.4,0.2,4,0.7v-1.5c0-2.2-1.5-3.4-3.6-3.4
				c-1.8,0-3.2,1.1-3.8,2.4l-1.5-1.4c1.2-2,3-3.1,5.4-3.1c3.6,0,5.8,2.1,5.8,5.8v9.3h-2.2v-1.5c-1.1,1.2-2.6,1.9-4.6,1.9
				C994.4,1013.9,992.2,1012.2,992.2,1009.4z M997.3,1011.9c1.8,0,3.5-1,4.4-2.3v-2c-1.4-0.5-2.7-0.7-3.9-0.7
				c-2.2,0-3.3,1.1-3.3,2.6C994.4,1010.9,995.6,1011.9,997.3,1011.9z"/>
			<path fill="#B8B9BA" d="M1010.1,998.8v1.8c1-1.3,2.8-2.2,4.7-2.2c3.7,0,5.8,2.3,5.8,6.5v8.5h-2.2v-8.7c0-2.7-1.4-4.3-3.8-4.3
				c-2.9,0-4.4,2.2-4.4,5.7v7.3h-2.2v-14.7H1010.1z"/>
			<path fill="#B8B9BA" d="M1036.9,1011.1c-1.6,1.9-3.5,2.8-5.9,2.8c-2.1,0-3.9-0.8-5.3-2.2c-1.4-1.5-2.1-3.3-2.1-5.5
				s0.7-3.9,2.2-5.4c1.5-1.5,3.2-2.3,5.3-2.3c2.2,0,4,0.9,5.5,2.6l-1.5,1.5c-1.1-1.3-2.4-2-4-2c-1.5,0-2.7,0.5-3.7,1.6
				c-1,1-1.5,2.4-1.5,4c0,3.3,2,5.6,5.3,5.6c1.7,0,3.1-0.7,4.2-2.2L1036.9,1011.1z"/>
			<path fill="#B8B9BA" d="M1051.8,1006.9h-10.9c0.2,3.1,2.1,4.9,4.9,4.9c1.7,0,3-0.7,4.2-2.2l1.5,1.4c-1.6,1.9-3.5,2.8-5.7,2.8
				c-2.2,0-4-0.7-5.3-2.1c-1.3-1.4-2-3.2-2-5.5c0-2.2,0.6-4.1,1.8-5.5c1.2-1.5,2.8-2.2,4.9-2.2c1.5,0,2.8,0.4,3.8,1.2
				c2.1,1.6,2.8,3.8,2.8,6.2L1051.8,1006.9z M1040.9,1004.9h8.6c-0.2-2.6-1.8-4.3-4.3-4.3
				C1042.8,1000.6,1041.3,1002.4,1040.9,1004.9z"/>
			<path fill="#B8B9BA" d="M1052.8,993.3l1.6-1.5c4.1,4,6.1,8.6,6.1,13.9c0,5.3-2,10-6.1,13.9l-1.6-1.5c3.7-3.8,5.4-7.7,5.4-12.5
				C1058.2,1000.9,1056.5,997,1052.8,993.3z"/>
		</g>
	</g>
</g>
</svg>
