<?xml version="1.0" encoding="utf-8"?>
<!-- Generator: Adobe Illustrator 19.1.0, SVG Export Plug-In . SVG Version: 6.00 Build 0)  -->
<svg version="1.1" baseProfile="tiny" xmlns="http://www.w3.org/2000/svg" xmlns:xlink="http://www.w3.org/1999/xlink" xml:space="preserve">
<g id="Layer_4">
	<rect x="11.9" fill="#FFFFFF" width="1920" height="1080"/>
</g>
<g id="Layer_6">
	<g>
		<g>
			<path fill="#B8B9BA" d="M560.8,499.2c-4.4-0.8-8.2-2.4-11.1-4.9c-2.9-2.5-4.4-5.9-4.4-10.1c0-4.6,1.9-8.3,5.6-11
				c3.7-2.7,8.2-4.1,13.3-4.1c7.4,0,13.7,2.8,18.8,8.3l-4,4.4c-4-4.8-9-7.2-15.3-7.2c-7.2,0-12.5,3.8-12.5,9.4
				c0,5.1,3.9,8.3,11.6,9.6l5.4,0.9c10.5,1.6,16.6,6.9,16.6,15.6c0,4.4-1.8,8.1-5.5,11c-3.7,2.9-8.5,4.4-14.5,4.4
				c-9,0-16.6-4.1-20.9-10l4.1-4.2c4.2,5.8,10.1,8.7,17.6,8.7c7.7,0,13.3-3.6,13.3-9.8c0-5.2-3.8-8.5-11.5-9.8L560.8,499.2z"/>
			<path fill="#B8B9BA" d="M591.5,513.9c0-7.6,5.7-12,14.1-12c2.8,0,6.3,0.6,10.5,1.9v-3.9c0-5.7-3.8-9-9.4-9c-4.7,0-8.4,2.8-10,6.3
				l-4-3.7c3-5.3,7.7-8,14-8c9.3,0,15.1,5.4,15.1,15v24.2h-5.6v-4c-2.9,3.2-6.8,4.8-11.9,4.8C597.1,525.5,591.5,521.1,591.5,513.9z
				 M604.6,520.3c4.7,0,9-2.7,11.4-6.1v-5.1c-3.7-1.2-7.1-1.9-10.1-1.9c-5.9,0-8.7,2.7-8.7,6.8C597.2,517.8,600.3,520.3,604.6,520.3
				z"/>
			<path fill="#B8B9BA" d="M661.2,486.4l-14.5,38.2h-6.1l-14.5-38.2h6.3l11.2,31.2l11.2-31.2H661.2z"/>
			<path fill="#B8B9BA" d="M698.5,507.3h-28.5c0.5,8,5.4,12.8,12.9,12.8c4.3,0,7.9-1.9,10.9-5.6l4,3.7c-4.1,4.9-9,7.3-14.9,7.3
				c-5.7,0-10.3-1.8-13.7-5.5c-3.4-3.7-5.1-8.4-5.1-14.3c0-5.8,1.6-10.6,4.7-14.4c3.2-3.9,7.4-5.9,12.7-5.9c3.9,0,7.2,1,9.8,3
				c5.4,4.1,7.3,9.8,7.3,16.1L698.5,507.3z M670.3,502.2h22.5c-0.5-6.8-4.8-11.2-11.1-11.2C675.2,490.9,671.3,495.5,670.3,502.2z"/>
			<path fill="#B8B9BA" d="M741,539.8h-6.3l5.8-14.7l-15.8-38.7h6.5l12.6,31.7l12.3-31.7h6.4L741,539.8z"/>
			<path fill="#B8B9BA" d="M769.9,519.7c-3.7-3.9-5.5-8.7-5.5-14.2s1.8-10.3,5.5-14.2c3.7-3.9,8.3-5.9,13.7-5.9
				c5.5,0,10.1,2,13.7,5.9c3.7,3.9,5.6,8.7,5.6,14.2s-1.9,10.3-5.5,14.2c-3.7,3.8-8.3,5.8-13.8,5.8
				C778.2,525.5,773.6,523.5,769.9,519.7z M793.2,516c2.5-2.8,3.7-6.3,3.7-10.5c0-4.1-1.2-7.6-3.7-10.4c-2.5-2.8-5.7-4.2-9.6-4.2
				c-3.8,0-7,1.4-9.5,4.2c-2.5,2.7-3.7,6.2-3.7,10.4c0,4.1,1.2,7.6,3.7,10.5c2.5,2.7,5.7,4.1,9.5,4.1
				C787.5,520.1,790.7,518.7,793.2,516z"/>
			<path fill="#B8B9BA" d="M836.6,524.6v-4.8c-3,3.8-7,5.7-12.1,5.7c-9.6,0-14.4-5.6-14.4-16.8v-22.2h5.8v22.5
				c0,7.3,3.2,11.2,9.4,11.2c7.4,0,11.1-5.4,11.1-14.7v-19h5.8v38.2H836.6z"/>
			<path fill="#B8B9BA" d="M873,491.5c-0.4-0.1-0.9-0.1-1.3-0.1c-9,0-12.7,4.5-12.7,16.9v16.3h-5.8v-38.2h5.6v5.1
				c3.4-4.1,6.9-5.6,12.5-5.6c0.5,0,1.2,0,1.7,0.1V491.5z"/>
			<path fill="#B8B9BA" d="M906.4,486.4v4.6c2.2-3.1,6.4-5.5,11-5.5c5.2,0,9,2.1,11.4,6.3c2.9-4.2,6.9-6.3,11.9-6.3
				c9.8,0,14.7,5.6,14.7,16.9v22.2h-5.8v-22.7c0-7.4-3-11.1-8.9-11.1c-6.3,0-9.8,4.6-9.8,12.7v21.1h-5.8v-22.3
				c0-7.6-2.9-11.5-8.6-11.5c-6.6,0-10.1,4.6-10.1,12.7v21.1h-5.8v-38.2H906.4z"/>
			<path fill="#B8B9BA" d="M963.4,513.9c0-7.6,5.7-12,14.1-12c2.8,0,6.3,0.6,10.5,1.9v-3.9c0-5.7-3.8-9-9.4-9c-4.7,0-8.4,2.8-10,6.3
				l-4-3.7c3-5.3,7.7-8,14-8c9.3,0,15.1,5.4,15.1,15v24.2h-5.6v-4c-2.9,3.2-6.8,4.8-11.9,4.8C969,525.5,963.4,521.1,963.4,513.9z
				 M976.5,520.3c4.7,0,9-2.7,11.4-6.1v-5.1c-3.7-1.2-7.1-1.9-10.1-1.9c-5.9,0-8.7,2.7-8.7,6.8C969.1,517.8,972.2,520.3,976.5,520.3
				z"/>
			<path fill="#B8B9BA" d="M1013,507.5c-7.3-1.7-10.8-5.4-10.8-11c0-3.4,1.3-6.1,3.9-8c2.6-2,5.7-3,9.3-3c5.1,0,9.6,2,13.6,6.2
				l-3.9,4.1c-3.1-3.3-6.5-4.9-10.1-4.9c-4.1,0-7,2.2-7,5.4c0,2.9,1.9,4.8,5.7,5.6l6,1.4c7.3,1.7,10.8,5.3,10.8,10.8
				c0,6.8-5.6,11.5-14.3,11.5c-6.6,0-12.3-3.1-15.4-7.2l3.8-4c3.1,3.9,6.9,5.8,11.5,5.8c5.4,0,8.6-2.2,8.6-5.8c0-2.7-2-4.6-6-5.5
				L1013,507.5z"/>
			<path fill="#B8B9BA" d="M1038.8,524.6v-54.7h5.8v36l17.7-19.6h7.6l-14.9,16.1l15.8,22.1h-7.4l-12.5-17.6l-6.2,6.8v10.8H1038.8z"
				/>
			<path fill="#B8B9BA" d="M1117.2,470v5.2h-2c-5.7,0-7.7,2.6-7.7,8.3v2.9h8.9v5.3h-8.9v32.9h-5.8v-32.9h-6.2v-5.3h6.2v-2.9
				c0-9.4,4.6-13.6,13.4-13.6L1117.2,470z"/>
			<path fill="#B8B9BA" d="M1143.6,491.5c-0.4-0.1-0.9-0.1-1.3-0.1c-9,0-12.7,4.5-12.7,16.9v16.3h-5.8v-38.2h5.6v5.1
				c3.4-4.1,6.9-5.6,12.5-5.6c0.5,0,1.2,0,1.7,0.1V491.5z"/>
			<path fill="#B8B9BA" d="M1152.6,519.7c-3.7-3.9-5.5-8.7-5.5-14.2s1.8-10.3,5.5-14.2c3.7-3.9,8.3-5.9,13.7-5.9s10.1,2,13.7,5.9
				c3.7,3.9,5.6,8.7,5.6,14.2s-1.9,10.3-5.5,14.2c-3.7,3.8-8.3,5.8-13.8,5.8C1160.8,525.5,1156.2,523.5,1152.6,519.7z M1175.9,516
				c2.5-2.8,3.7-6.3,3.7-10.5c0-4.1-1.2-7.6-3.7-10.4c-2.5-2.8-5.7-4.2-9.6-4.2c-3.8,0-7,1.4-9.5,4.2c-2.5,2.7-3.7,6.2-3.7,10.4
				c0,4.1,1.2,7.6,3.7,10.5c2.5,2.7,5.7,4.1,9.5,4.1C1170.2,520.1,1173.4,518.7,1175.9,516z"/>
			<path fill="#B8B9BA" d="M1199.6,486.4v4.6c2.2-3.1,6.4-5.5,11-5.5c5.2,0,9,2.1,11.4,6.3c2.9-4.2,6.9-6.3,11.9-6.3
				c9.8,0,14.7,5.6,14.7,16.9v22.2h-5.8v-22.7c0-7.4-3-11.1-8.9-11.1c-6.3,0-9.8,4.6-9.8,12.7v21.1h-5.8v-22.3
				c0-7.6-2.9-11.5-8.6-11.5c-6.6,0-10.1,4.6-10.1,12.7v21.1h-5.8v-38.2H1199.6z"/>
			<path fill="#B8B9BA" d="M1281.8,513.4v-21.7h-6.2v-5.3h6.2v-10.7h5.8v10.7h8.9v5.3h-8.9v20.8c0,5,1.2,6.9,5.9,6.9l3-0.1v5.2
				c-1,0.1-2.3,0.2-3.6,0.2C1285.4,524.8,1281.8,521.6,1281.8,513.4z"/>
			<path fill="#B8B9BA" d="M1310.1,469.9V491c2.6-3.4,7.2-5.5,11.9-5.5c9.8,0,15.2,6.1,15.2,16.9v22.2h-5.9v-22.7
				c0-7.1-3.6-11.1-9.8-11.1c-7.5,0-11.5,5.7-11.5,14.8v19h-5.8v-54.7H1310.1z"/>
			<path fill="#B8B9BA" d="M1378.2,507.3h-28.5c0.5,8,5.4,12.8,12.9,12.8c4.3,0,7.9-1.9,10.9-5.6l4,3.7c-4.1,4.9-9,7.3-14.9,7.3
				c-5.7,0-10.3-1.8-13.7-5.5c-3.4-3.7-5.1-8.4-5.1-14.3c0-5.8,1.6-10.6,4.7-14.4c3.2-3.9,7.4-5.9,12.7-5.9c3.9,0,7.2,1,9.8,3
				c5.4,4.1,7.3,9.8,7.3,16.1L1378.2,507.3z M1350,502.2h22.5c-0.5-6.8-4.8-11.2-11.1-11.2C1354.9,490.9,1351,495.5,1350,502.2z"/>
			<path fill="#B8B9BA" d="M551.8,604.6h-5.9v-54.7h34v5.6h-28.1V574h26.4v5.6h-26.4V604.6z"/>
			<path fill="#B8B9BA" d="M587.2,550.3c1.8-1.6,4.5-1.6,6.2,0c1.8,1.6,1.8,4.4,0,6.2c-1.6,1.6-4.4,1.6-6.2,0
				C585.5,554.7,585.5,552,587.2,550.3z M587.4,604.6v-38.2h5.8v38.2H587.4z"/>
			<path fill="#B8B9BA" d="M604.8,604.6v-54.7h5.8v54.7H604.8z"/>
			<path fill="#B8B9BA" d="M653.3,587.3h-28.5c0.5,8,5.4,12.8,12.9,12.8c4.3,0,7.9-1.9,10.9-5.6l4,3.7c-4.1,4.9-9,7.3-14.9,7.3
				c-5.7,0-10.3-1.8-13.7-5.5c-3.4-3.7-5.1-8.4-5.1-14.3c0-5.8,1.6-10.6,4.7-14.4c3.2-3.9,7.4-5.9,12.7-5.9c3.9,0,7.2,1,9.8,3
				c5.4,4.1,7.3,9.8,7.3,16.1L653.3,587.3z M625.1,582.2h22.5c-0.5-6.8-4.8-11.2-11.1-11.2C630,570.9,626.1,575.5,625.1,582.2z"/>
			<path fill="#B8B9BA" d="M689,566.4v4.6c2.2-3.1,6.4-5.5,11-5.5c5.2,0,9,2.1,11.4,6.3c2.9-4.2,6.9-6.3,11.9-6.3
				c9.8,0,14.7,5.6,14.7,16.9v22.2h-5.8v-22.7c0-7.4-3-11.1-8.9-11.1c-6.3,0-9.8,4.6-9.8,12.7v21.1h-5.8v-22.3
				c0-7.6-2.9-11.5-8.6-11.5c-6.6,0-10.1,4.6-10.1,12.7v21.1h-5.8v-38.2H689z"/>
			<path fill="#B8B9BA" d="M780.4,587.3h-28.5c0.5,8,5.4,12.8,12.9,12.8c4.3,0,7.9-1.9,10.9-5.6l4,3.7c-4.1,4.9-9,7.3-14.9,7.3
				c-5.7,0-10.3-1.8-13.7-5.5c-3.4-3.7-5.1-8.4-5.1-14.3c0-5.8,1.6-10.6,4.7-14.4c3.2-3.9,7.4-5.9,12.7-5.9c3.9,0,7.2,1,9.8,3
				c5.4,4.1,7.3,9.8,7.3,16.1L780.4,587.3z M752.1,582.2h22.5c-0.5-6.8-4.8-11.2-11.1-11.2C757,570.9,753.1,575.5,752.1,582.2z"/>
			<path fill="#B8B9BA" d="M794.4,566.4v4.7c2.6-3.4,7.3-5.6,12.1-5.6c9.8,0,15.2,6.1,15.2,16.9v22.2h-5.9v-22.7
				c0-7.1-3.6-11.1-9.8-11.1c-7.5,0-11.5,5.7-11.5,14.8v19h-5.8v-38.2H794.4z"/>
			<path fill="#B8B9BA" d="M857.5,604.6v-4.8c-3,3.8-7,5.7-12.1,5.7c-9.6,0-14.4-5.6-14.4-16.8v-22.2h5.8v22.5
				c0,7.3,3.2,11.2,9.4,11.2c7.4,0,11.1-5.4,11.1-14.7v-19h5.8v38.2H857.5z"/>
			<path fill="#B8B9BA" d="M874,614.4h-6.2l7.4-18.6h7.3L874,614.4z"/>
			<path fill="#B8B9BA" d="M917.1,599.7c-3.7-3.9-5.5-8.7-5.5-14.2s1.8-10.3,5.5-14.2c3.7-3.9,8.3-5.9,13.7-5.9
				c5.5,0,10.1,2,13.7,5.9c3.7,3.9,5.6,8.7,5.6,14.2s-1.9,10.3-5.5,14.2c-3.7,3.8-8.3,5.8-13.8,5.8
				C925.4,605.5,920.8,603.5,917.1,599.7z M940.4,596c2.5-2.8,3.7-6.3,3.7-10.5c0-4.1-1.2-7.6-3.7-10.4c-2.5-2.8-5.7-4.2-9.6-4.2
				c-3.8,0-7,1.4-9.5,4.2c-2.5,2.7-3.7,6.2-3.7,10.4c0,4.1,1.2,7.6,3.7,10.5c2.5,2.7,5.7,4.1,9.5,4.1
				C934.7,600.1,937.9,598.7,940.4,596z"/>
			<path fill="#B8B9BA" d="M978.3,571.5c-0.4-0.1-0.9-0.1-1.3-0.1c-9,0-12.7,4.5-12.7,16.9v16.3h-5.8v-38.2h5.6v5.1
				c3.4-4.1,6.9-5.6,12.5-5.6c0.5,0,1.2,0,1.7,0.1V571.5z"/>
			<path fill="#B8B9BA" d="M1011.9,619.8h-5.8v-53.4h5.6v5.2c3.5-4.1,7.9-6.2,13-6.2c5.2,0,9.4,2,12.8,5.9c3.4,3.8,5,8.6,5,14.2
				s-1.6,10.4-5,14.2c-3.4,3.8-7.6,5.8-12.8,5.8c-5.2,0-9.5-2-12.9-5.9V619.8z M1036.7,585.5c0-4.2-1.1-7.7-3.4-10.5
				c-2.3-2.7-5.2-4.1-9-4.1s-6.9,1.4-9.1,4.1c-2.3,2.7-3.4,6.2-3.4,10.5s1.1,7.7,3.4,10.5s5.3,4.1,9.1,4.1s6.8-1.4,9-4.1
				S1036.7,589.7,1036.7,585.5z"/>
			<path fill="#B8B9BA" d="M1070.8,571.5c-0.4-0.1-0.9-0.1-1.3-0.1c-9,0-12.7,4.5-12.7,16.9v16.3h-5.8v-38.2h5.6v5.1
				c3.4-4.1,6.9-5.6,12.5-5.6c0.5,0,1.2,0,1.7,0.1V571.5z"/>
			<path fill="#B8B9BA" d="M1108.7,587.3h-28.5c0.5,8,5.4,12.8,12.9,12.8c4.3,0,7.9-1.9,10.9-5.6l4,3.7c-4.1,4.9-9,7.3-14.9,7.3
				c-5.7,0-10.3-1.8-13.7-5.5c-3.4-3.7-5.1-8.4-5.1-14.3c0-5.8,1.6-10.6,4.7-14.4c3.2-3.9,7.4-5.9,12.7-5.9c3.9,0,7.2,1,9.8,3
				c5.4,4.1,7.3,9.8,7.3,16.1L1108.7,587.3z M1080.4,582.2h22.5c-0.5-6.8-4.8-11.2-11.1-11.2
				C1085.3,570.9,1081.4,575.5,1080.4,582.2z"/>
			<path fill="#B8B9BA" d="M1126.7,587.5c-7.3-1.7-10.8-5.4-10.8-11c0-3.4,1.3-6.1,3.9-8s5.7-3,9.3-3c5.1,0,9.6,2,13.6,6.2l-3.9,4.1
				c-3.1-3.3-6.5-4.9-10.1-4.9c-4.1,0-7,2.2-7,5.4c0,2.9,1.9,4.8,5.7,5.6l6,1.4c7.3,1.7,10.8,5.3,10.8,10.8
				c0,6.8-5.6,11.5-14.3,11.5c-6.6,0-12.3-3.1-15.4-7.2l3.8-4c3.1,3.9,6.9,5.8,11.5,5.8c5.4,0,8.6-2.2,8.6-5.8c0-2.7-2-4.6-6-5.5
				L1126.7,587.5z"/>
			<path fill="#B8B9BA" d="M1161.2,587.5c-7.3-1.7-10.8-5.4-10.8-11c0-3.4,1.3-6.1,3.9-8s5.7-3,9.3-3c5.1,0,9.6,2,13.6,6.2l-3.9,4.1
				c-3.1-3.3-6.5-4.9-10.1-4.9c-4.1,0-7,2.2-7,5.4c0,2.9,1.9,4.8,5.7,5.6l6,1.4c7.3,1.7,10.8,5.3,10.8,10.8
				c0,6.8-5.6,11.5-14.3,11.5c-6.6,0-12.3-3.1-15.4-7.2l3.8-4c3.1,3.9,6.9,5.8,11.5,5.8c5.4,0,8.6-2.2,8.6-5.8c0-2.7-2-4.6-6-5.5
				L1161.2,587.5z"/>
			<path fill="#B8B9BA" d="M1244,593.5c0,1.1-0.2,2.2-0.7,3.2c-0.4,1-1,1.9-1.8,2.7s-1.7,1.4-2.7,1.8c-1,0.4-2,0.6-3.2,0.6
				c-1.1,0-2.2-0.2-3.2-0.6c-1-0.4-1.9-1-2.6-1.8c-0.8-0.8-1.3-1.7-1.8-2.7c-0.4-1-0.7-2.1-0.7-3.2v-2.9h-5.5v2.9
				c0,1.1-0.2,2.2-0.6,3.2c-0.4,1-1,1.9-1.8,2.7s-1.7,1.4-2.7,1.8c-1,0.4-2.1,0.6-3.2,0.6s-2.2-0.2-3.2-0.6c-1-0.4-1.9-1-2.7-1.8
				s-1.4-1.7-1.8-2.7c-0.4-1-0.6-2.1-0.6-3.2s0.2-2.2,0.6-3.2c0.4-1,1-1.9,1.8-2.6c0.8-0.8,1.7-1.4,2.7-1.8s2.1-0.6,3.2-0.6h3v-5.5
				h-2.9c-1.1,0-2.2-0.2-3.2-0.7c-1-0.4-1.9-1-2.7-1.8c-0.8-0.8-1.4-1.6-1.8-2.6s-0.6-2.1-0.6-3.2c0-1.1,0.2-2.2,0.6-3.2
				c0.4-1,1-1.9,1.8-2.7s1.7-1.4,2.7-1.8c1-0.4,2.1-0.7,3.2-0.7c1.1,0,2.2,0.2,3.2,0.7c1,0.4,1.9,1,2.6,1.8c0.8,0.8,1.4,1.7,1.8,2.7
				c0.4,1,0.6,2.1,0.6,3.2v2.9h5.5v-2.9c0-1.1,0.2-2.2,0.7-3.2c0.4-1,1-1.9,1.8-2.7c0.8-0.8,1.6-1.4,2.6-1.8c1-0.4,2.1-0.7,3.2-0.7
				c1.1,0,2.2,0.2,3.2,0.7c1,0.4,1.9,1,2.7,1.8s1.4,1.7,1.8,2.7c0.4,1,0.7,2.1,0.7,3.2c0,1.1-0.2,2.2-0.7,3.2s-1,1.9-1.8,2.6
				c-0.8,0.8-1.7,1.3-2.7,1.8c-1,0.4-2,0.7-3.2,0.7h-2.9v5.5h2.9c1.1,0,2.2,0.2,3.2,0.6c1,0.4,1.9,1,2.7,1.8
				c0.8,0.8,1.4,1.6,1.8,2.6C1243.8,591.3,1244,592.4,1244,593.5z M1216.5,571.5c0-0.8-0.3-1.5-0.8-2.1c-0.5-0.6-1.2-0.8-2.1-0.8
				c-0.9,0-1.6,0.3-2.2,0.8c-0.6,0.6-0.9,1.3-0.9,2.1c0,0.9,0.3,1.6,0.9,2.1c0.6,0.5,1.3,0.8,2.2,0.8h2.9V571.5z M1216.5,590.6h-3
				c-0.9,0-1.6,0.3-2.2,0.8c-0.6,0.5-0.9,1.2-0.9,2.1c0,0.9,0.3,1.6,0.9,2.2c0.6,0.6,1.3,0.9,2.2,0.9c0.8,0,1.5-0.3,2.1-0.9
				c0.6-0.6,0.8-1.3,0.8-2.2V590.6z M1227.4,585.3v-5.5h-5.5v5.5H1227.4z M1238.6,571.5c0-0.8-0.3-1.5-0.8-2.1
				c-0.6-0.6-1.3-0.8-2.1-0.8c-0.9,0-1.6,0.3-2.1,0.8c-0.5,0.6-0.8,1.3-0.8,2.1v2.9h2.9c0.8,0,1.5-0.3,2.1-0.8
				C1238.3,573.1,1238.6,572.4,1238.6,571.5z M1238.6,593.5c0-0.8-0.3-1.5-0.8-2.1c-0.6-0.5-1.3-0.8-2.1-0.8h-2.8v2.9
				c0,0.9,0.3,1.6,0.8,2.2c0.5,0.6,1.2,0.9,2.1,0.9c0.8,0,1.5-0.3,2.1-0.9C1238.3,595.1,1238.6,594.4,1238.6,593.5z"/>
			<path fill="#B8B9BA" d="M1265,587.5c-7.3-1.7-10.8-5.4-10.8-11c0-3.4,1.3-6.1,3.9-8c2.6-2,5.7-3,9.3-3c5.1,0,9.6,2,13.6,6.2
				l-3.9,4.1c-3.1-3.3-6.5-4.9-10.1-4.9c-4.1,0-7,2.2-7,5.4c0,2.9,1.9,4.8,5.7,5.6l6,1.4c7.3,1.7,10.8,5.3,10.8,10.8
				c0,6.8-5.6,11.5-14.3,11.5c-6.6,0-12.3-3.1-15.4-7.2l3.8-4c3.1,3.9,6.9,5.8,11.5,5.8c5.4,0,8.6-2.2,8.6-5.8c0-2.7-2-4.6-6-5.5
				L1265,587.5z"/>
			<path fill="#B8B9BA" d="M1304.4,600.9c0,2.6-2,4.6-4.8,4.6c-2.6,0-4.6-2-4.6-4.6s2-4.7,4.6-4.7
				C1302.3,596.2,1304.4,598.2,1304.4,600.9z"/>
		</g>
		<g>
			<path fill="#B8B9BA" d="M560.8,499.2c-4.4-0.8-8.2-2.4-11.1-4.9c-2.9-2.5-4.4-5.9-4.4-10.1c0-4.6,1.9-8.3,5.6-11
				c3.7-2.7,8.2-4.1,13.3-4.1c7.4,0,13.7,2.8,18.8,8.3l-4,4.4c-4-4.8-9-7.2-15.3-7.2c-7.2,0-12.5,3.8-12.5,9.4
				c0,5.1,3.9,8.3,11.6,9.6l5.4,0.9c10.5,1.6,16.6,6.9,16.6,15.6c0,4.4-1.8,8.1-5.5,11c-3.7,2.9-8.5,4.4-14.5,4.4
				c-9,0-16.6-4.1-20.9-10l4.1-4.2c4.2,5.8,10.1,8.7,17.6,8.7c7.7,0,13.3-3.6,13.3-9.8c0-5.2-3.8-8.5-11.5-9.8L560.8,499.2z"/>
			<path fill="#B8B9BA" d="M591.5,513.9c0-7.6,5.7-12,14.1-12c2.8,0,6.3,0.6,10.5,1.9v-3.9c0-5.7-3.8-9-9.4-9c-4.7,0-8.4,2.8-10,6.3
				l-4-3.7c3-5.3,7.7-8,14-8c9.3,0,15.1,5.4,15.1,15v24.2h-5.6v-4c-2.9,3.2-6.8,4.8-11.9,4.8C597.1,525.5,591.5,521.1,591.5,513.9z
				 M604.6,520.3c4.7,0,9-2.7,11.4-6.1v-5.1c-3.7-1.2-7.1-1.9-10.1-1.9c-5.9,0-8.7,2.7-8.7,6.8C597.2,517.8,600.3,520.3,604.6,520.3
				z"/>
			<path fill="#B8B9BA" d="M661.2,486.4l-14.5,38.2h-6.1l-14.5-38.2h6.3l11.2,31.2l11.2-31.2H661.2z"/>
			<path fill="#B8B9BA" d="M698.5,507.3h-28.5c0.5,8,5.4,12.8,12.9,12.8c4.3,0,7.9-1.9,10.9-5.6l4,3.7c-4.1,4.9-9,7.3-14.9,7.3
				c-5.7,0-10.3-1.8-13.7-5.5c-3.4-3.7-5.1-8.4-5.1-14.3c0-5.8,1.6-10.6,4.7-14.4c3.2-3.9,7.4-5.9,12.7-5.9c3.9,0,7.2,1,9.8,3
				c5.4,4.1,7.3,9.8,7.3,16.1L698.5,507.3z M670.3,502.2h22.5c-0.5-6.8-4.8-11.2-11.1-11.2C675.2,490.9,671.3,495.5,670.3,502.2z"/>
			<path fill="#B8B9BA" d="M741,539.8h-6.3l5.8-14.7l-15.8-38.7h6.5l12.6,31.7l12.3-31.7h6.4L741,539.8z"/>
			<path fill="#B8B9BA" d="M769.9,519.7c-3.7-3.9-5.5-8.7-5.5-14.2s1.8-10.3,5.5-14.2c3.7-3.9,8.3-5.9,13.7-5.9
				c5.5,0,10.1,2,13.7,5.9c3.7,3.9,5.6,8.7,5.6,14.2s-1.9,10.3-5.5,14.2c-3.7,3.8-8.3,5.8-13.8,5.8
				C778.2,525.5,773.6,523.5,769.9,519.7z M793.2,516c2.5-2.8,3.7-6.3,3.7-10.5c0-4.1-1.2-7.6-3.7-10.4c-2.5-2.8-5.7-4.2-9.6-4.2
				c-3.8,0-7,1.4-9.5,4.2c-2.5,2.7-3.7,6.2-3.7,10.4c0,4.1,1.2,7.6,3.7,10.5c2.5,2.7,5.7,4.1,9.5,4.1
				C787.5,520.1,790.7,518.7,793.2,516z"/>
			<path fill="#B8B9BA" d="M836.6,524.6v-4.8c-3,3.8-7,5.7-12.1,5.7c-9.6,0-14.4-5.6-14.4-16.8v-22.2h5.8v22.5
				c0,7.3,3.2,11.2,9.4,11.2c7.4,0,11.1-5.4,11.1-14.7v-19h5.8v38.2H836.6z"/>
			<path fill="#B8B9BA" d="M873,491.5c-0.4-0.1-0.9-0.1-1.3-0.1c-9,0-12.7,4.5-12.7,16.9v16.3h-5.8v-38.2h5.6v5.1
				c3.4-4.1,6.9-5.6,12.5-5.6c0.5,0,1.2,0,1.7,0.1V491.5z"/>
			<path fill="#B8B9BA" d="M906.4,486.4v4.6c2.2-3.1,6.4-5.5,11-5.5c5.2,0,9,2.1,11.4,6.3c2.9-4.2,6.9-6.3,11.9-6.3
				c9.8,0,14.7,5.6,14.7,16.9v22.2h-5.8v-22.7c0-7.4-3-11.1-8.9-11.1c-6.3,0-9.8,4.6-9.8,12.7v21.1h-5.8v-22.3
				c0-7.6-2.9-11.5-8.6-11.5c-6.6,0-10.1,4.6-10.1,12.7v21.1h-5.8v-38.2H906.4z"/>
			<path fill="#B8B9BA" d="M963.4,513.9c0-7.6,5.7-12,14.1-12c2.8,0,6.3,0.6,10.5,1.9v-3.9c0-5.7-3.8-9-9.4-9c-4.7,0-8.4,2.8-10,6.3
				l-4-3.7c3-5.3,7.7-8,14-8c9.3,0,15.1,5.4,15.1,15v24.2h-5.6v-4c-2.9,3.2-6.8,4.8-11.9,4.8C969,525.5,963.4,521.1,963.4,513.9z
				 M976.5,520.3c4.7,0,9-2.7,11.4-6.1v-5.1c-3.7-1.2-7.1-1.9-10.1-1.9c-5.9,0-8.7,2.7-8.7,6.8C969.1,517.8,972.2,520.3,976.5,520.3
				z"/>
			<path fill="#B8B9BA" d="M1013,507.5c-7.3-1.7-10.8-5.4-10.8-11c0-3.4,1.3-6.1,3.9-8c2.6-2,5.7-3,9.3-3c5.1,0,9.6,2,13.6,6.2
				l-3.9,4.1c-3.1-3.3-6.5-4.9-10.1-4.9c-4.1,0-7,2.2-7,5.4c0,2.9,1.9,4.8,5.7,5.6l6,1.4c7.3,1.7,10.8,5.3,10.8,10.8
				c0,6.8-5.6,11.5-14.3,11.5c-6.6,0-12.3-3.1-15.4-7.2l3.8-4c3.1,3.9,6.9,5.8,11.5,5.8c5.4,0,8.6-2.2,8.6-5.8c0-2.7-2-4.6-6-5.5
				L1013,507.5z"/>
			<path fill="#B8B9BA" d="M1038.8,524.6v-54.7h5.8v36l17.7-19.6h7.6l-14.9,16.1l15.8,22.1h-7.4l-12.5-17.6l-6.2,6.8v10.8H1038.8z"
				/>
			<path fill="#B8B9BA" d="M1117.2,470v5.2h-2c-5.7,0-7.7,2.6-7.7,8.3v2.9h8.9v5.3h-8.9v32.9h-5.8v-32.9h-6.2v-5.3h6.2v-2.9
				c0-9.4,4.6-13.6,13.4-13.6L1117.2,470z"/>
			<path fill="#B8B9BA" d="M1143.6,491.5c-0.4-0.1-0.9-0.1-1.3-0.1c-9,0-12.7,4.5-12.7,16.9v16.3h-5.8v-38.2h5.6v5.1
				c3.4-4.1,6.9-5.6,12.5-5.6c0.5,0,1.2,0,1.7,0.1V491.5z"/>
			<path fill="#B8B9BA" d="M1152.6,519.7c-3.7-3.9-5.5-8.7-5.5-14.2s1.8-10.3,5.5-14.2c3.7-3.9,8.3-5.9,13.7-5.9s10.1,2,13.7,5.9
				c3.7,3.9,5.6,8.7,5.6,14.2s-1.9,10.3-5.5,14.2c-3.7,3.8-8.3,5.8-13.8,5.8C1160.8,525.5,1156.2,523.5,1152.6,519.7z M1175.9,516
				c2.5-2.8,3.7-6.3,3.7-10.5c0-4.1-1.2-7.6-3.7-10.4c-2.5-2.8-5.7-4.2-9.6-4.2c-3.8,0-7,1.4-9.5,4.2c-2.5,2.7-3.7,6.2-3.7,10.4
				c0,4.1,1.2,7.6,3.7,10.5c2.5,2.7,5.7,4.1,9.5,4.1C1170.2,520.1,1173.4,518.7,1175.9,516z"/>
			<path fill="#B8B9BA" d="M1199.6,486.4v4.6c2.2-3.1,6.4-5.5,11-5.5c5.2,0,9,2.1,11.4,6.3c2.9-4.2,6.9-6.3,11.9-6.3
				c9.8,0,14.7,5.6,14.7,16.9v22.2h-5.8v-22.7c0-7.4-3-11.1-8.9-11.1c-6.3,0-9.8,4.6-9.8,12.7v21.1h-5.8v-22.3
				c0-7.6-2.9-11.5-8.6-11.5c-6.6,0-10.1,4.6-10.1,12.7v21.1h-5.8v-38.2H1199.6z"/>
			<path fill="#B8B9BA" d="M1281.8,513.4v-21.7h-6.2v-5.3h6.2v-10.7h5.8v10.7h8.9v5.3h-8.9v20.8c0,5,1.2,6.9,5.9,6.9l3-0.1v5.2
				c-1,0.1-2.3,0.2-3.6,0.2C1285.4,524.8,1281.8,521.6,1281.8,513.4z"/>
			<path fill="#B8B9BA" d="M1310.1,469.9V491c2.6-3.4,7.2-5.5,11.9-5.5c9.8,0,15.2,6.1,15.2,16.9v22.2h-5.9v-22.7
				c0-7.1-3.6-11.1-9.8-11.1c-7.5,0-11.5,5.7-11.5,14.8v19h-5.8v-54.7H1310.1z"/>
			<path fill="#B8B9BA" d="M1378.2,507.3h-28.5c0.5,8,5.4,12.8,12.9,12.8c4.3,0,7.9-1.9,10.9-5.6l4,3.7c-4.1,4.9-9,7.3-14.9,7.3
				c-5.7,0-10.3-1.8-13.7-5.5c-3.4-3.7-5.1-8.4-5.1-14.3c0-5.8,1.6-10.6,4.7-14.4c3.2-3.9,7.4-5.9,12.7-5.9c3.9,0,7.2,1,9.8,3
				c5.4,4.1,7.3,9.8,7.3,16.1L1378.2,507.3z M1350,502.2h22.5c-0.5-6.8-4.8-11.2-11.1-11.2C1354.9,490.9,1351,495.5,1350,502.2z"/>
			<path fill="#B8B9BA" d="M551.8,604.6h-5.9v-54.7h34v5.6h-28.1V574h26.4v5.6h-26.4V604.6z"/>
			<path fill="#B8B9BA" d="M587.2,550.3c1.8-1.6,4.5-1.6,6.2,0c1.8,1.6,1.8,4.4,0,6.2c-1.6,1.6-4.4,1.6-6.2,0
				C585.5,554.7,585.5,552,587.2,550.3z M587.4,604.6v-38.2h5.8v38.2H587.4z"/>
			<path fill="#B8B9BA" d="M604.8,604.6v-54.7h5.8v54.7H604.8z"/>
			<path fill="#B8B9BA" d="M653.3,587.3h-28.5c0.5,8,5.4,12.8,12.9,12.8c4.3,0,7.9-1.9,10.9-5.6l4,3.7c-4.1,4.9-9,7.3-14.9,7.3
				c-5.7,0-10.3-1.8-13.7-5.5c-3.4-3.7-5.1-8.4-5.1-14.3c0-5.8,1.6-10.6,4.7-14.4c3.2-3.9,7.4-5.9,12.7-5.9c3.9,0,7.2,1,9.8,3
				c5.4,4.1,7.3,9.8,7.3,16.1L653.3,587.3z M625.1,582.2h22.5c-0.5-6.8-4.8-11.2-11.1-11.2C630,570.9,626.1,575.5,625.1,582.2z"/>
			<path fill="#B8B9BA" d="M689,566.4v4.6c2.2-3.1,6.4-5.5,11-5.5c5.2,0,9,2.1,11.4,6.3c2.9-4.2,6.9-6.3,11.9-6.3
				c9.8,0,14.7,5.6,14.7,16.9v22.2h-5.8v-22.7c0-7.4-3-11.1-8.9-11.1c-6.3,0-9.8,4.6-9.8,12.7v21.1h-5.8v-22.3
				c0-7.6-2.9-11.5-8.6-11.5c-6.6,0-10.1,4.6-10.1,12.7v21.1h-5.8v-38.2H689z"/>
			<path fill="#B8B9BA" d="M780.4,587.3h-28.5c0.5,8,5.4,12.8,12.9,12.8c4.3,0,7.9-1.9,10.9-5.6l4,3.7c-4.1,4.9-9,7.3-14.9,7.3
				c-5.7,0-10.3-1.8-13.7-5.5c-3.4-3.7-5.1-8.4-5.1-14.3c0-5.8,1.6-10.6,4.7-14.4c3.2-3.9,7.4-5.9,12.7-5.9c3.9,0,7.2,1,9.8,3
				c5.4,4.1,7.3,9.8,7.3,16.1L780.4,587.3z M752.1,582.2h22.5c-0.5-6.8-4.8-11.2-11.1-11.2C757,570.9,753.1,575.5,752.1,582.2z"/>
			<path fill="#B8B9BA" d="M794.4,566.4v4.7c2.6-3.4,7.3-5.6,12.1-5.6c9.8,0,15.2,6.1,15.2,16.9v22.2h-5.9v-22.7
				c0-7.1-3.6-11.1-9.8-11.1c-7.5,0-11.5,5.7-11.5,14.8v19h-5.8v-38.2H794.4z"/>
			<path fill="#B8B9BA" d="M857.5,604.6v-4.8c-3,3.8-7,5.7-12.1,5.7c-9.6,0-14.4-5.6-14.4-16.8v-22.2h5.8v22.5
				c0,7.3,3.2,11.2,9.4,11.2c7.4,0,11.1-5.4,11.1-14.7v-19h5.8v38.2H857.5z"/>
			<path fill="#B8B9BA" d="M874,614.4h-6.2l7.4-18.6h7.3L874,614.4z"/>
			<path fill="#B8B9BA" d="M917.1,599.7c-3.7-3.9-5.5-8.7-5.5-14.2s1.8-10.3,5.5-14.2c3.7-3.9,8.3-5.9,13.7-5.9
				c5.5,0,10.1,2,13.7,5.9c3.7,3.9,5.6,8.7,5.6,14.2s-1.9,10.3-5.5,14.2c-3.7,3.8-8.3,5.8-13.8,5.8
				C925.4,605.5,920.8,603.5,917.1,599.7z M940.4,596c2.5-2.8,3.7-6.3,3.7-10.5c0-4.1-1.2-7.6-3.7-10.4c-2.5-2.8-5.7-4.2-9.6-4.2
				c-3.8,0-7,1.4-9.5,4.2c-2.5,2.7-3.7,6.2-3.7,10.4c0,4.1,1.2,7.6,3.7,10.5c2.5,2.7,5.7,4.1,9.5,4.1
				C934.7,600.1,937.9,598.7,940.4,596z"/>
			<path fill="#B8B9BA" d="M978.3,571.5c-0.4-0.1-0.9-0.1-1.3-0.1c-9,0-12.7,4.5-12.7,16.9v16.3h-5.8v-38.2h5.6v5.1
				c3.4-4.1,6.9-5.6,12.5-5.6c0.5,0,1.2,0,1.7,0.1V571.5z"/>
			<path fill="#B8B9BA" d="M1011.9,619.8h-5.8v-53.4h5.6v5.2c3.5-4.1,7.9-6.2,13-6.2c5.2,0,9.4,2,12.8,5.9c3.4,3.8,5,8.6,5,14.2
				s-1.6,10.4-5,14.2c-3.4,3.8-7.6,5.8-12.8,5.8c-5.2,0-9.5-2-12.9-5.9V619.8z M1036.7,585.5c0-4.2-1.1-7.7-3.4-10.5
				c-2.3-2.7-5.2-4.1-9-4.1s-6.9,1.4-9.1,4.1c-2.3,2.7-3.4,6.2-3.4,10.5s1.1,7.7,3.4,10.5s5.3,4.1,9.1,4.1s6.8-1.4,9-4.1
				S1036.7,589.7,1036.7,585.5z"/>
			<path fill="#B8B9BA" d="M1070.8,571.5c-0.4-0.1-0.9-0.1-1.3-0.1c-9,0-12.7,4.5-12.7,16.9v16.3h-5.8v-38.2h5.6v5.1
				c3.4-4.1,6.9-5.6,12.5-5.6c0.5,0,1.2,0,1.7,0.1V571.5z"/>
			<path fill="#B8B9BA" d="M1108.7,587.3h-28.5c0.5,8,5.4,12.8,12.9,12.8c4.3,0,7.9-1.9,10.9-5.6l4,3.7c-4.1,4.9-9,7.3-14.9,7.3
				c-5.7,0-10.3-1.8-13.7-5.5c-3.4-3.7-5.1-8.4-5.1-14.3c0-5.8,1.6-10.6,4.7-14.4c3.2-3.9,7.4-5.9,12.7-5.9c3.9,0,7.2,1,9.8,3
				c5.4,4.1,7.3,9.8,7.3,16.1L1108.7,587.3z M1080.4,582.2h22.5c-0.5-6.8-4.8-11.2-11.1-11.2
				C1085.3,570.9,1081.4,575.5,1080.4,582.2z"/>
			<path fill="#B8B9BA" d="M1126.7,587.5c-7.3-1.7-10.8-5.4-10.8-11c0-3.4,1.3-6.1,3.9-8s5.7-3,9.3-3c5.1,0,9.6,2,13.6,6.2l-3.9,4.1
				c-3.1-3.3-6.5-4.9-10.1-4.9c-4.1,0-7,2.2-7,5.4c0,2.9,1.9,4.8,5.7,5.6l6,1.4c7.3,1.7,10.8,5.3,10.8,10.8
				c0,6.8-5.6,11.5-14.3,11.5c-6.6,0-12.3-3.1-15.4-7.2l3.8-4c3.1,3.9,6.9,5.8,11.5,5.8c5.4,0,8.6-2.2,8.6-5.8c0-2.7-2-4.6-6-5.5
				L1126.7,587.5z"/>
			<path fill="#B8B9BA" d="M1161.2,587.5c-7.3-1.7-10.8-5.4-10.8-11c0-3.4,1.3-6.1,3.9-8s5.7-3,9.3-3c5.1,0,9.6,2,13.6,6.2l-3.9,4.1
				c-3.1-3.3-6.5-4.9-10.1-4.9c-4.1,0-7,2.2-7,5.4c0,2.9,1.9,4.8,5.7,5.6l6,1.4c7.3,1.7,10.8,5.3,10.8,10.8
				c0,6.8-5.6,11.5-14.3,11.5c-6.6,0-12.3-3.1-15.4-7.2l3.8-4c3.1,3.9,6.9,5.8,11.5,5.8c5.4,0,8.6-2.2,8.6-5.8c0-2.7-2-4.6-6-5.5
				L1161.2,587.5z"/>
			<path fill="#B8B9BA" d="M1244,593.5c0,1.1-0.2,2.2-0.7,3.2c-0.4,1-1,1.9-1.8,2.7s-1.7,1.4-2.7,1.8c-1,0.4-2,0.6-3.2,0.6
				c-1.1,0-2.2-0.2-3.2-0.6c-1-0.4-1.9-1-2.6-1.8c-0.8-0.8-1.3-1.7-1.8-2.7c-0.4-1-0.7-2.1-0.7-3.2v-2.9h-5.5v2.9
				c0,1.1-0.2,2.2-0.6,3.2c-0.4,1-1,1.9-1.8,2.7s-1.7,1.4-2.7,1.8c-1,0.4-2.1,0.6-3.2,0.6s-2.2-0.2-3.2-0.6c-1-0.4-1.9-1-2.7-1.8
				s-1.4-1.7-1.8-2.7c-0.4-1-0.6-2.1-0.6-3.2s0.2-2.2,0.6-3.2c0.4-1,1-1.9,1.8-2.6c0.8-0.8,1.7-1.4,2.7-1.8s2.1-0.6,3.2-0.6h3v-5.5
				h-2.9c-1.1,0-2.2-0.2-3.2-0.7c-1-0.4-1.9-1-2.7-1.8c-0.8-0.8-1.4-1.6-1.8-2.6s-0.6-2.1-0.6-3.2c0-1.1,0.2-2.2,0.6-3.2
				c0.4-1,1-1.9,1.8-2.7s1.7-1.4,2.7-1.8c1-0.4,2.1-0.7,3.2-0.7c1.1,0,2.2,0.2,3.2,0.7c1,0.4,1.9,1,2.6,1.8c0.8,0.8,1.4,1.7,1.8,2.7
				c0.4,1,0.6,2.1,0.6,3.2v2.9h5.5v-2.9c0-1.1,0.2-2.2,0.7-3.2c0.4-1,1-1.9,1.8-2.7c0.8-0.8,1.6-1.4,2.6-1.8c1-0.4,2.1-0.7,3.2-0.7
				c1.1,0,2.2,0.2,3.2,0.7c1,0.4,1.9,1,2.7,1.8s1.4,1.7,1.8,2.7c0.4,1,0.7,2.1,0.7,3.2c0,1.1-0.2,2.2-0.7,3.2s-1,1.9-1.8,2.6
				c-0.8,0.8-1.7,1.3-2.7,1.8c-1,0.4-2,0.7-3.2,0.7h-2.9v5.5h2.9c1.1,0,2.2,0.2,3.2,0.6c1,0.4,1.9,1,2.7,1.8
				c0.8,0.8,1.4,1.6,1.8,2.6C1243.8,591.3,1244,592.4,1244,593.5z M1216.5,571.5c0-0.8-0.3-1.5-0.8-2.1c-0.5-0.6-1.2-0.8-2.1-0.8
				c-0.9,0-1.6,0.3-2.2,0.8c-0.6,0.6-0.9,1.3-0.9,2.1c0,0.9,0.3,1.6,0.9,2.1c0.6,0.5,1.3,0.8,2.2,0.8h2.9V571.5z M1216.5,590.6h-3
				c-0.9,0-1.6,0.3-2.2,0.8c-0.6,0.5-0.9,1.2-0.9,2.1c0,0.9,0.3,1.6,0.9,2.2c0.6,0.6,1.3,0.9,2.2,0.9c0.8,0,1.5-0.3,2.1-0.9
				c0.6-0.6,0.8-1.3,0.8-2.2V590.6z M1227.4,585.3v-5.5h-5.5v5.5H1227.4z M1238.6,571.5c0-0.8-0.3-1.5-0.8-2.1
				c-0.6-0.6-1.3-0.8-2.1-0.8c-0.9,0-1.6,0.3-2.1,0.8c-0.5,0.6-0.8,1.3-0.8,2.1v2.9h2.9c0.8,0,1.5-0.3,2.1-0.8
				C1238.3,573.1,1238.6,572.4,1238.6,571.5z M1238.6,593.5c0-0.8-0.3-1.5-0.8-2.1c-0.6-0.5-1.3-0.8-2.1-0.8h-2.8v2.9
				c0,0.9,0.3,1.6,0.8,2.2c0.5,0.6,1.2,0.9,2.1,0.9c0.8,0,1.5-0.3,2.1-0.9C1238.3,595.1,1238.6,594.4,1238.6,593.5z"/>
			<path fill="#B8B9BA" d="M1265,587.5c-7.3-1.7-10.8-5.4-10.8-11c0-3.4,1.3-6.1,3.9-8c2.6-2,5.7-3,9.3-3c5.1,0,9.6,2,13.6,6.2
				l-3.9,4.1c-3.1-3.3-6.5-4.9-10.1-4.9c-4.1,0-7,2.2-7,5.4c0,2.9,1.9,4.8,5.7,5.6l6,1.4c7.3,1.7,10.8,5.3,10.8,10.8
				c0,6.8-5.6,11.5-14.3,11.5c-6.6,0-12.3-3.1-15.4-7.2l3.8-4c3.1,3.9,6.9,5.8,11.5,5.8c5.4,0,8.6-2.2,8.6-5.8c0-2.7-2-4.6-6-5.5
				L1265,587.5z"/>
			<path fill="#B8B9BA" d="M1304.4,600.9c0,2.6-2,4.6-4.8,4.6c-2.6,0-4.6-2-4.6-4.6s2-4.7,4.6-4.7
				C1302.3,596.2,1304.4,598.2,1304.4,600.9z"/>
		</g>
	</g>
	<g>
		<g>
			<path fill="#B8B9BA" d="M843.8,1018.2l-1.6,1.5c-4.1-4-6.1-8.6-6.1-13.9c0-5.3,2-10,6.1-13.9l1.6,1.5c-3.7,3.8-5.4,7.7-5.4,12.5
				C838.4,1010.6,840,1014.5,843.8,1018.2z"/>
			<path fill="#B8B9BA" d="M857.3,1011.1c-1.6,1.9-3.5,2.8-5.9,2.8c-2.1,0-3.9-0.8-5.3-2.2c-1.4-1.5-2.1-3.3-2.1-5.5
				s0.7-3.9,2.2-5.4c1.5-1.5,3.2-2.3,5.3-2.3c2.2,0,4,0.9,5.5,2.6l-1.5,1.5c-1.1-1.3-2.4-2-4-2c-1.5,0-2.7,0.5-3.7,1.6
				c-1,1-1.5,2.4-1.5,4c0,3.3,2,5.6,5.3,5.6c1.6,0,3.1-0.7,4.2-2.2L857.3,1011.1z"/>
			<path fill="#B8B9BA" d="M860.2,1013.5v-21h2.2v21H860.2z"/>
			<path fill="#B8B9BA" d="M866.8,992.7c0.7-0.6,1.7-0.6,2.4,0c0.7,0.6,0.7,1.7,0,2.4c-0.6,0.6-1.7,0.6-2.4,0
				C866.1,994.3,866.1,993.3,866.8,992.7z M866.9,1013.5v-14.7h2.2v14.7H866.9z"/>
			<path fill="#B8B9BA" d="M885.8,1011.1c-1.6,1.9-3.5,2.8-5.9,2.8c-2.1,0-3.9-0.8-5.3-2.2c-1.4-1.5-2.1-3.3-2.1-5.5
				s0.7-3.9,2.2-5.4c1.5-1.5,3.2-2.3,5.3-2.3c2.2,0,4,0.9,5.5,2.6l-1.5,1.5c-1.1-1.3-2.4-2-4-2c-1.5,0-2.7,0.5-3.7,1.6
				c-1,1-1.5,2.4-1.5,4c0,3.3,2,5.6,5.3,5.6c1.7,0,3.1-0.7,4.2-2.2L885.8,1011.1z"/>
			<path fill="#B8B9BA" d="M888.7,1013.5v-21h2.2v13.9l6.8-7.5h2.9l-5.7,6.2l6.1,8.5h-2.8l-4.8-6.7l-2.4,2.6v4.1H888.7z"/>
			<path fill="#B8B9BA" d="M912.9,1009.2v-8.3h-2.4v-2h2.4v-4.1h2.2v4.1h3.4v2h-3.4v8c0,1.9,0.5,2.7,2.2,2.7l1.2,0v2
				c-0.4,0-0.9,0.1-1.4,0.1C914.2,1013.6,912.9,1012.4,912.9,1009.2z"/>
			<path fill="#B8B9BA" d="M922.8,1011.7c-1.4-1.5-2.1-3.3-2.1-5.5s0.7-4,2.1-5.5s3.2-2.2,5.3-2.2c2.1,0,3.9,0.8,5.3,2.2
				c1.4,1.5,2.2,3.3,2.2,5.5s-0.7,4-2.1,5.5c-1.4,1.5-3.2,2.2-5.3,2.2C925.9,1013.9,924.2,1013.1,922.8,1011.7z M931.7,1010.2
				c1-1.1,1.4-2.4,1.4-4s-0.5-2.9-1.4-4c-1-1.1-2.2-1.6-3.7-1.6c-1.5,0-2.7,0.5-3.7,1.6c-1,1-1.4,2.4-1.4,4s0.5,2.9,1.4,4
				c1,1.1,2.2,1.6,3.7,1.6C929.5,1011.8,930.8,1011.3,931.7,1010.2z"/>
			<path fill="#B8B9BA" d="M946.3,1009.4c0-2.9,2.2-4.6,5.4-4.6c1.1,0,2.4,0.2,4,0.7v-1.5c0-2.2-1.5-3.4-3.6-3.4
				c-1.8,0-3.2,1.1-3.8,2.4l-1.5-1.4c1.2-2,3-3.1,5.4-3.1c3.6,0,5.8,2.1,5.8,5.8v9.3h-2.2v-1.5c-1.1,1.2-2.6,1.9-4.6,1.9
				C948.5,1013.9,946.3,1012.2,946.3,1009.4z M951.4,1011.9c1.8,0,3.4-1,4.4-2.3v-2c-1.4-0.5-2.7-0.7-3.9-0.7
				c-2.2,0-3.3,1.1-3.3,2.6C948.6,1010.9,949.7,1011.9,951.4,1011.9z"/>
			<path fill="#B8B9BA" d="M972.8,1000.8v-8.3h2.2v21h-2.1v-2c-1.3,1.6-3,2.3-5,2.3c-2,0-3.6-0.8-4.9-2.2c-1.3-1.5-1.9-3.3-1.9-5.5
				c0-2.2,0.6-4,1.9-5.5c1.3-1.5,2.9-2.2,4.9-2.2C969.9,998.5,971.5,999.3,972.8,1000.8z M963.3,1006.2c0,1.6,0.4,3,1.3,4
				c0.9,1.1,2,1.6,3.5,1.6c1.5,0,2.6-0.5,3.5-1.6c0.9-1,1.3-2.4,1.3-4c0-1.6-0.4-3-1.3-4c-0.9-1-2-1.6-3.5-1.6
				c-1.5,0-2.6,0.5-3.5,1.6C963.7,1003.2,963.3,1004.6,963.3,1006.2z"/>
			<path fill="#B8B9BA" d="M990.9,998.8l-5.6,14.7H983l-5.6-14.7h2.4l4.3,12l4.3-12H990.9z"/>
			<path fill="#B8B9BA" d="M992.2,1009.4c0-2.9,2.2-4.6,5.4-4.6c1.1,0,2.4,0.2,4,0.7v-1.5c0-2.2-1.5-3.4-3.6-3.4
				c-1.8,0-3.2,1.1-3.8,2.4l-1.5-1.4c1.2-2,3-3.1,5.4-3.1c3.6,0,5.8,2.1,5.8,5.8v9.3h-2.2v-1.5c-1.1,1.2-2.6,1.9-4.6,1.9
				C994.4,1013.9,992.2,1012.2,992.2,1009.4z M997.3,1011.9c1.8,0,3.5-1,4.4-2.3v-2c-1.4-0.5-2.7-0.7-3.9-0.7
				c-2.2,0-3.3,1.1-3.3,2.6C994.4,1010.9,995.6,1011.9,997.3,1011.9z"/>
			<path fill="#B8B9BA" d="M1010.1,998.8v1.8c1-1.3,2.8-2.2,4.7-2.2c3.7,0,5.8,2.3,5.8,6.5v8.5h-2.2v-8.7c0-2.7-1.4-4.3-3.8-4.3
				c-2.9,0-4.4,2.2-4.4,5.7v7.3h-2.2v-14.7H1010.1z"/>
			<path fill="#B8B9BA" d="M1036.9,1011.1c-1.6,1.9-3.5,2.8-5.9,2.8c-2.1,0-3.9-0.8-5.3-2.2c-1.4-1.5-2.1-3.3-2.1-5.5
				s0.7-3.9,2.2-5.4c1.5-1.5,3.2-2.3,5.3-2.3c2.2,0,4,0.9,5.5,2.6l-1.5,1.5c-1.1-1.3-2.4-2-4-2c-1.5,0-2.7,0.5-3.7,1.6
				c-1,1-1.5,2.4-1.5,4c0,3.3,2,5.6,5.3,5.6c1.7,0,3.1-0.7,4.2-2.2L1036.9,1011.1z"/>
			<path fill="#B8B9BA" d="M1051.8,1006.9h-10.9c0.2,3.1,2.1,4.9,4.9,4.9c1.7,0,3-0.7,4.2-2.2l1.5,1.4c-1.6,1.9-3.5,2.8-5.7,2.8
				c-2.2,0-4-0.7-5.3-2.1c-1.3-1.4-2-3.2-2-5.5c0-2.2,0.6-4.1,1.8-5.5c1.2-1.5,2.8-2.2,4.9-2.2c1.5,0,2.8,0.4,3.8,1.2
				c2.1,1.6,2.8,3.8,2.8,6.2L1051.8,1006.9z M1040.9,1004.9h8.6c-0.2-2.6-1.8-4.3-4.3-4.3
				C1042.8,1000.6,1041.3,1002.4,1040.9,1004.9z"/>
			<path fill="#B8B9BA" d="M1052.8,993.3l1.6-1.5c4.1,4,6.1,8.6,6.1,13.9c0,5.3-2,10-6.1,13.9l-1.6-1.5c3.7-3.8,5.4-7.7,5.4-12.5
				C1058.2,1000.9,1056.5,997,1052.8,993.3z"/>
		</g>
		<g>
			<path fill="#B8B9BA" d="M843.8,1018.2l-1.6,1.5c-4.1-4-6.1-8.6-6.1-13.9c0-5.3,2-10,6.1-13.9l1.6,1.5c-3.7,3.8-5.4,7.7-5.4,12.5
				C838.4,1010.6,840,1014.5,843.8,1018.2z"/>
			<path fill="#B8B9BA" d="M857.3,1011.1c-1.6,1.9-3.5,2.8-5.9,2.8c-2.1,0-3.9-0.8-5.3-2.2c-1.4-1.5-2.1-3.3-2.1-5.5
				s0.7-3.9,2.2-5.4c1.5-1.5,3.2-2.3,5.3-2.3c2.2,0,4,0.9,5.5,2.6l-1.5,1.5c-1.1-1.3-2.4-2-4-2c-1.5,0-2.7,0.5-3.7,1.6
				c-1,1-1.5,2.4-1.5,4c0,3.3,2,5.6,5.3,5.6c1.6,0,3.1-0.7,4.2-2.2L857.3,1011.1z"/>
			<path fill="#B8B9BA" d="M860.2,1013.5v-21h2.2v21H860.2z"/>
			<path fill="#B8B9BA" d="M866.8,992.7c0.7-0.6,1.7-0.6,2.4,0c0.7,0.6,0.7,1.7,0,2.4c-0.6,0.6-1.7,0.6-2.4,0
				C866.1,994.3,866.1,993.3,866.8,992.7z M866.9,1013.5v-14.7h2.2v14.7H866.9z"/>
			<path fill="#B8B9BA" d="M885.8,1011.1c-1.6,1.9-3.5,2.8-5.9,2.8c-2.1,0-3.9-0.8-5.3-2.2c-1.4-1.5-2.1-3.3-2.1-5.5
				s0.7-3.9,2.2-5.4c1.5-1.5,3.2-2.3,5.3-2.3c2.2,0,4,0.9,5.5,2.6l-1.5,1.5c-1.1-1.3-2.4-2-4-2c-1.5,0-2.7,0.5-3.7,1.6
				c-1,1-1.5,2.4-1.5,4c0,3.3,2,5.6,5.3,5.6c1.7,0,3.1-0.7,4.2-2.2L885.8,1011.1z"/>
			<path fill="#B8B9BA" d="M888.7,1013.5v-21h2.2v13.9l6.8-7.5h2.9l-5.7,6.2l6.1,8.5h-2.8l-4.8-6.7l-2.4,2.6v4.1H888.7z"/>
			<path fill="#B8B9BA" d="M912.9,1009.2v-8.3h-2.4v-2h2.4v-4.1h2.2v4.1h3.4v2h-3.4v8c0,1.9,0.5,2.7,2.2,2.7l1.2,0v2
				c-0.4,0-0.9,0.1-1.4,0.1C914.2,1013.6,912.9,1012.4,912.9,1009.2z"/>
			<path fill="#B8B9BA" d="M922.8,1011.7c-1.4-1.5-2.1-3.3-2.1-5.5s0.7-4,2.1-5.5s3.2-2.2,5.3-2.2c2.1,0,3.9,0.8,5.3,2.2
				c1.4,1.5,2.2,3.3,2.2,5.5s-0.7,4-2.1,5.5c-1.4,1.5-3.2,2.2-5.3,2.2C925.9,1013.9,924.2,1013.1,922.8,1011.7z M931.7,1010.2
				c1-1.1,1.4-2.4,1.4-4s-0.5-2.9-1.4-4c-1-1.1-2.2-1.6-3.7-1.6c-1.5,0-2.7,0.5-3.7,1.6c-1,1-1.4,2.4-1.4,4s0.5,2.9,1.4,4
				c1,1.1,2.2,1.6,3.7,1.6C929.5,1011.8,930.8,1011.3,931.7,1010.2z"/>
			<path fill="#B8B9BA" d="M946.3,1009.4c0-2.9,2.2-4.6,5.4-4.6c1.1,0,2.4,0.2,4,0.7v-1.5c0-2.2-1.5-3.4-3.6-3.4
				c-1.8,0-3.2,1.1-3.8,2.4l-1.5-1.4c1.2-2,3-3.1,5.4-3.1c3.6,0,5.8,2.1,5.8,5.8v9.3h-2.2v-1.5c-1.1,1.2-2.6,1.9-4.6,1.9
				C948.5,1013.9,946.3,1012.2,946.3,1009.4z M951.4,1011.9c1.8,0,3.4-1,4.4-2.3v-2c-1.4-0.5-2.7-0.7-3.9-0.7
				c-2.2,0-3.3,1.1-3.3,2.6C948.6,1010.9,949.7,1011.9,951.4,1011.9z"/>
			<path fill="#B8B9BA" d="M972.8,1000.8v-8.3h2.2v21h-2.1v-2c-1.3,1.6-3,2.3-5,2.3c-2,0-3.6-0.8-4.9-2.2c-1.3-1.5-1.9-3.3-1.9-5.5
				c0-2.2,0.6-4,1.9-5.5c1.3-1.5,2.9-2.2,4.9-2.2C969.9,998.5,971.5,999.3,972.8,1000.8z M963.3,1006.2c0,1.6,0.4,3,1.3,4
				c0.9,1.1,2,1.6,3.5,1.6c1.5,0,2.6-0.5,3.5-1.6c0.9-1,1.3-2.4,1.3-4c0-1.6-0.4-3-1.3-4c-0.9-1-2-1.6-3.5-1.6
				c-1.5,0-2.6,0.5-3.5,1.6C963.7,1003.2,963.3,1004.6,963.3,1006.2z"/>
			<path fill="#B8B9BA" d="M990.9,998.8l-5.6,14.7H983l-5.6-14.7h2.4l4.3,12l4.3-12H990.9z"/>
			<path fill="#B8B9BA" d="M992.2,1009.4c0-2.9,2.2-4.6,5.4-4.6c1.1,0,2.4,0.2,4,0.7v-1.5c0-2.2-1.5-3.4-3.6-3.4
				c-1.8,0-3.2,1.1-3.8,2.4l-1.5-1.4c1.2-2,3-3.1,5.4-3.1c3.6,0,5.8,2.1,5.8,5.8v9.3h-2.2v-1.5c-1.1,1.2-2.6,1.9-4.6,1.9
				C994.4,1013.9,992.2,1012.2,992.2,1009.4z M997.3,1011.9c1.8,0,3.5-1,4.4-2.3v-2c-1.4-0.5-2.7-0.7-3.9-0.7
				c-2.2,0-3.3,1.1-3.3,2.6C994.4,1010.9,995.6,1011.9,997.3,1011.9z"/>
			<path fill="#B8B9BA" d="M1010.1,998.8v1.8c1-1.3,2.8-2.2,4.7-2.2c3.7,0,5.8,2.3,5.8,6.5v8.5h-2.2v-8.7c0-2.7-1.4-4.3-3.8-4.3
				c-2.9,0-4.4,2.2-4.4,5.7v7.3h-2.2v-14.7H1010.1z"/>
			<path fill="#B8B9BA" d="M1036.9,1011.1c-1.6,1.9-3.5,2.8-5.9,2.8c-2.1,0-3.9-0.8-5.3-2.2c-1.4-1.5-2.1-3.3-2.1-5.5
				s0.7-3.9,2.2-5.4c1.5-1.5,3.2-2.3,5.3-2.3c2.2,0,4,0.9,5.5,2.6l-1.5,1.5c-1.1-1.3-2.4-2-4-2c-1.5,0-2.7,0.5-3.7,1.6
				c-1,1-1.5,2.4-1.5,4c0,3.3,2,5.6,5.3,5.6c1.7,0,3.1-0.7,4.2-2.2L1036.9,1011.1z"/>
			<path fill="#B8B9BA" d="M1051.8,1006.9h-10.9c0.2,3.1,2.1,4.9,4.9,4.9c1.7,0,3-0.7,4.2-2.2l1.5,1.4c-1.6,1.9-3.5,2.8-5.7,2.8
				c-2.2,0-4-0.7-5.3-2.1c-1.3-1.4-2-3.2-2-5.5c0-2.2,0.6-4.1,1.8-5.5c1.2-1.5,2.8-2.2,4.9-2.2c1.5,0,2.8,0.4,3.8,1.2
				c2.1,1.6,2.8,3.8,2.8,6.2L1051.8,1006.9z M1040.9,1004.9h8.6c-0.2-2.6-1.8-4.3-4.3-4.3
				C1042.8,1000.6,1041.3,1002.4,1040.9,1004.9z"/>
			<path fill="#B8B9BA" d="M1052.8,993.3l1.6-1.5c4.1,4,6.1,8.6,6.1,13.9c0,5.3-2,10-6.1,13.9l-1.6-1.5c3.7-3.8,5.4-7.7,5.4-12.5
				C1058.2,1000.9,1056.5,997,1052.8,993.3z"/>
		</g>
	</g>
</g>
</svg>
