<?xml version="1.0" encoding="utf-8"?>
<!-- Generator: Adobe Illustrator 19.1.0, SVG Export Plug-In . SVG Version: 6.00 Build 0)  -->
<svg version="1.1" baseProfile="tiny" xmlns="http://www.w3.org/2000/svg" xmlns:xlink="http://www.w3.org/1999/xlink"  xml:space="preserve">
<g id="Layer_4">
	<rect x="11.9" fill="#FFFFFF" width="1920" height="1080"/>
</g>
<g id="Layer_6">
	<g>
		<g>
			<path fill="#B8B9BA" d="M644.5,476.1c-5.1,5.8-12.7,9.4-20.9,9.4c-7.9,0-14.4-2.7-19.7-8.2c-5.2-5.5-7.8-12.1-7.8-19.9
				c0-7.9,2.6-14.5,7.7-20c5.2-5.5,11.6-8.3,19.3-8.3c8.6,0,15.4,3.1,20.4,9.4l-4,4.2c-4.1-5.4-9.7-8-16.5-8c-6,0-11.1,2.2-15.1,6.6
				c-4,4.4-6,9.8-6,16.2c0,6.3,2,11.7,6.1,16.1c4.1,4.3,9.3,6.5,15.4,6.5c7.2,0,12.9-2.7,17.1-8.2L644.5,476.1z"/>
			<path fill="#B8B9BA" d="M651,484.6v-54.7h5.8v54.7H651z"/>
			<path fill="#B8B9BA" d="M668.1,430.3c1.8-1.6,4.5-1.6,6.2,0c1.8,1.6,1.8,4.4,0,6.2c-1.6,1.6-4.4,1.6-6.2,0
				C666.5,434.7,666.5,432,668.1,430.3z M668.3,484.6v-38.2h5.8v38.2H668.3z"/>
			<path fill="#B8B9BA" d="M717.5,478.2c-4.1,4.9-9.1,7.3-15.3,7.3c-5.5,0-10.1-2-13.7-5.8c-3.7-3.9-5.5-8.7-5.5-14.2
				s1.9-10.2,5.6-14.1c3.8-4,8.4-5.9,13.8-5.9c5.8,0,10.5,2.3,14.3,6.8l-3.9,3.8c-2.9-3.4-6.3-5.1-10.4-5.1c-3.9,0-7.1,1.4-9.7,4.2
				c-2.6,2.7-3.8,6.2-3.8,10.4c0,8.5,5.2,14.6,13.7,14.6c4.3,0,8-1.9,10.8-5.6L717.5,478.2z"/>
			<path fill="#B8B9BA" d="M725,484.6v-54.7h5.8v36l17.7-19.6h7.6l-14.9,16.1l15.8,22.1h-7.4L737,467.1l-6.2,6.8v10.8H725z"/>
			<path fill="#B8B9BA" d="M784.3,473.9c0-7.6,5.7-12,14.1-12c2.8,0,6.3,0.6,10.5,1.9v-3.9c0-5.7-3.8-9-9.4-9c-4.7,0-8.4,2.8-10,6.3
				l-4-3.7c3-5.3,7.7-8,14-8c9.3,0,15.1,5.4,15.1,15v24.2H809v-4c-2.9,3.2-6.8,4.8-11.9,4.8C789.9,485.5,784.3,481.1,784.3,473.9z
				 M797.5,480.3c4.7,0,9-2.7,11.4-6.1v-5.1c-3.7-1.2-7.1-1.9-10.1-1.9c-5.9,0-8.7,2.7-8.7,6.8C790.1,477.8,793.1,480.3,797.5,480.3
				z"/>
			<path fill="#B8B9BA" d="M830.8,446.4v4.7c2.6-3.4,7.3-5.6,12.1-5.6c9.8,0,15.2,6.1,15.2,16.9v22.2h-5.9v-22.7
				c0-7.1-3.6-11.1-9.8-11.1c-7.5,0-11.5,5.7-11.5,14.8v19h-5.8v-38.2H830.8z"/>
			<path fill="#B8B9BA" d="M878.8,499.8h-6.3l5.8-14.7l-15.8-38.7h6.5l12.6,31.7l12.3-31.7h6.4L878.8,499.8z"/>
			<path fill="#B8B9BA" d="M918.6,478.3l8.8-31.9h7.8l8.8,31.9l8.8-31.9h6.3l-11.4,38.2h-7.2l-9.3-31.6l-9.2,31.6h-7.3l-11.4-38.2
				h6.3L918.6,478.3z"/>
			<path fill="#B8B9BA" d="M971.1,429.9V451c2.6-3.4,7.2-5.5,11.9-5.5c9.8,0,15.2,6.1,15.2,16.9v22.2h-5.9v-22.7
				c0-7.1-3.6-11.1-9.8-11.1c-7.5,0-11.5,5.7-11.5,14.8v19h-5.8v-54.7H971.1z"/>
			<path fill="#B8B9BA" d="M1039.2,467.3h-28.5c0.5,8,5.4,12.8,12.9,12.8c4.3,0,7.9-1.9,10.9-5.6l4,3.7c-4.1,4.9-9,7.3-14.9,7.3
				c-5.7,0-10.3-1.8-13.7-5.5c-3.4-3.7-5.1-8.4-5.1-14.3c0-5.8,1.6-10.6,4.7-14.4c3.2-3.9,7.4-5.9,12.7-5.9c3.9,0,7.2,1,9.8,3
				c5.4,4.1,7.3,9.8,7.3,16.1L1039.2,467.3z M1011,462.2h22.5c-0.5-6.8-4.8-11.2-11.1-11.2C1015.9,450.9,1012,455.5,1011,462.2z"/>
			<path fill="#B8B9BA" d="M1067.4,451.5c-0.4-0.1-0.9-0.1-1.3-0.1c-9,0-12.7,4.5-12.7,16.9v16.3h-5.8v-38.2h5.6v5.1
				c3.4-4.1,6.9-5.6,12.5-5.6c0.5,0,1.2,0,1.7,0.1V451.5z"/>
			<path fill="#B8B9BA" d="M1105.4,467.3h-28.5c0.5,8,5.4,12.8,12.9,12.8c4.3,0,7.9-1.9,10.9-5.6l4,3.7c-4.1,4.9-9,7.3-14.9,7.3
				c-5.7,0-10.3-1.8-13.7-5.5c-3.4-3.7-5.1-8.4-5.1-14.3c0-5.8,1.6-10.6,4.7-14.4c3.2-3.9,7.4-5.9,12.7-5.9c3.9,0,7.2,1,9.8,3
				c5.4,4.1,7.3,9.8,7.3,16.1L1105.4,467.3z M1077.1,462.2h22.5c-0.5-6.8-4.8-11.2-11.1-11.2C1082,450.9,1078.1,455.5,1077.1,462.2z
				"/>
			<path fill="#B8B9BA" d="M1135.8,430.3c1.8-1.6,4.5-1.6,6.2,0c1.8,1.6,1.8,4.4,0,6.2c-1.6,1.6-4.4,1.6-6.2,0
				C1134.1,434.7,1134.1,432,1135.8,430.3z M1136,484.6v-38.2h5.8v38.2H1136z"/>
			<path fill="#B8B9BA" d="M1159,446.4v4.7c2.6-3.4,7.3-5.6,12.1-5.6c9.8,0,15.2,6.1,15.2,16.9v22.2h-5.9v-22.7
				c0-7.1-3.6-11.1-9.8-11.1c-7.5,0-11.5,5.7-11.5,14.8v19h-5.8v-38.2H1159z"/>
			<path fill="#B8B9BA" d="M1219.5,473.4v-21.7h-6.2v-5.3h6.2v-10.7h5.8v10.7h8.9v5.3h-8.9v20.8c0,5,1.2,6.9,5.8,6.9l3-0.1v5.2
				c-1,0.1-2.3,0.2-3.6,0.2C1223.1,484.8,1219.5,481.6,1219.5,473.4z"/>
			<path fill="#B8B9BA" d="M1247.8,429.9V451c2.6-3.4,7.2-5.5,11.9-5.5c9.8,0,15.2,6.1,15.2,16.9v22.2h-5.9v-22.7
				c0-7.1-3.6-11.1-9.8-11.1c-7.5,0-11.5,5.7-11.5,14.8v19h-5.8v-54.7H1247.8z"/>
			<path fill="#B8B9BA" d="M1315.9,467.3h-28.5c0.5,8,5.4,12.8,12.9,12.8c4.3,0,7.9-1.9,10.9-5.6l4,3.7c-4.1,4.9-9,7.3-14.9,7.3
				c-5.7,0-10.3-1.8-13.7-5.5c-3.4-3.7-5.1-8.4-5.1-14.3c0-5.8,1.6-10.6,4.7-14.4c3.2-3.9,7.4-5.9,12.7-5.9c3.9,0,7.2,1,9.8,3
				c5.4,4.1,7.3,9.8,7.3,16.1L1315.9,467.3z M1287.6,462.2h22.5c-0.5-6.8-4.8-11.2-11.1-11.2
				C1292.5,450.9,1288.6,455.5,1287.6,462.2z"/>
			<path fill="#B8B9BA" d="M604.4,564.6h-5.6v-54.7h5.8v21.5c3.4-4,7.7-6,12.9-6c5.2,0,9.4,2,12.8,5.9c3.4,3.8,5,8.6,5,14.2
				s-1.6,10.4-5,14.2s-7.6,5.8-12.8,5.8c-5.2,0-9.5-2-13-6.1V564.6z M629.2,545.5c0-4.2-1.1-7.7-3.4-10.5c-2.3-2.7-5.2-4.1-9-4.1
				s-6.9,1.4-9.1,4.1c-2.3,2.7-3.4,6.2-3.4,10.5s1.1,7.7,3.4,10.5s5.3,4.1,9.1,4.1s6.8-1.4,9-4.1S629.2,549.7,629.2,545.5z"/>
			<path fill="#B8B9BA" d="M643.5,564.6v-54.7h5.8v54.7H643.5z"/>
			<path fill="#B8B9BA" d="M657.6,553.9c0-7.6,5.7-12,14.1-12c2.8,0,6.3,0.6,10.5,1.9v-3.9c0-5.7-3.8-9-9.4-9c-4.7,0-8.4,2.8-10,6.3
				l-4-3.7c3-5.3,7.7-8,14-8c9.3,0,15.1,5.4,15.1,15v24.2h-5.6v-4c-2.9,3.2-6.8,4.8-11.9,4.8C663.3,565.5,657.6,561.1,657.6,553.9z
				 M670.8,560.3c4.7,0,9-2.7,11.4-6.1v-5.1c-3.7-1.2-7.1-1.9-10.1-1.9c-5.9,0-8.7,2.7-8.7,6.8C663.4,557.8,666.5,560.3,670.8,560.3
				z"/>
			<path fill="#B8B9BA" d="M730.3,558.2c-4.1,4.9-9.1,7.3-15.3,7.3c-5.5,0-10.1-2-13.7-5.8c-3.7-3.9-5.5-8.7-5.5-14.2
				s1.9-10.2,5.6-14.1c3.8-4,8.4-5.9,13.8-5.9c5.8,0,10.5,2.3,14.3,6.8l-3.9,3.8c-2.9-3.4-6.3-5.1-10.4-5.1c-3.9,0-7.1,1.4-9.7,4.2
				c-2.6,2.7-3.8,6.2-3.8,10.4c0,8.5,5.2,14.6,13.7,14.6c4.3,0,8-1.9,10.8-5.6L730.3,558.2z"/>
			<path fill="#B8B9BA" d="M737.8,564.6v-54.7h5.8v36l17.7-19.6h7.6L754,542.6l15.8,22.1h-7.4l-12.5-17.6l-6.2,6.8v10.8H737.8z"/>
			<path fill="#B8B9BA" d="M797.1,553.9c0-7.6,5.7-12,14.1-12c2.8,0,6.3,0.6,10.5,1.9v-3.9c0-5.7-3.8-9-9.4-9c-4.7,0-8.4,2.8-10,6.3
				l-4-3.7c3-5.3,7.7-8,14-8c9.3,0,15.1,5.4,15.1,15v24.2h-5.6v-4c-2.9,3.2-6.8,4.8-11.9,4.8C802.7,565.5,797.1,561.1,797.1,553.9z
				 M810.3,560.3c4.7,0,9-2.7,11.4-6.1v-5.1c-3.7-1.2-7.1-1.9-10.1-1.9c-5.9,0-8.7,2.7-8.7,6.8C802.9,557.8,805.9,560.3,810.3,560.3
				z"/>
			<path fill="#B8B9BA" d="M857.8,531.5c-0.4-0.1-0.9-0.1-1.3-0.1c-9,0-12.7,4.5-12.7,16.9v16.3H838v-38.2h5.6v5.1
				c3.4-4.1,6.9-5.6,12.5-5.6c0.5,0,1.2,0,1.7,0.1V531.5z"/>
			<path fill="#B8B9BA" d="M895.7,547.3h-28.5c0.5,8,5.4,12.8,12.9,12.8c4.3,0,7.9-1.9,10.9-5.6l4,3.7c-4.1,4.9-9,7.3-14.9,7.3
				c-5.7,0-10.3-1.8-13.7-5.5c-3.4-3.7-5.1-8.4-5.1-14.3c0-5.8,1.6-10.6,4.7-14.4c3.2-3.9,7.4-5.9,12.7-5.9c3.9,0,7.2,1,9.8,3
				c5.4,4.1,7.3,9.8,7.3,16.1L895.7,547.3z M867.5,542.2h22.5c-0.5-6.8-4.8-11.2-11.1-11.2C872.4,530.9,868.5,535.5,867.5,542.2z"/>
			<path fill="#B8B9BA" d="M902.3,553.9c0-7.6,5.7-12,14.1-12c2.8,0,6.3,0.6,10.5,1.9v-3.9c0-5.7-3.8-9-9.4-9c-4.7,0-8.4,2.8-10,6.3
				l-4-3.7c3-5.3,7.7-8,14-8c9.3,0,15.1,5.4,15.1,15v24.2H927v-4c-2.9,3.2-6.8,4.8-11.9,4.8C907.9,565.5,902.3,561.1,902.3,553.9z
				 M915.5,560.3c4.7,0,9-2.7,11.4-6.1v-5.1c-3.7-1.2-7.1-1.9-10.1-1.9c-5.9,0-8.7,2.7-8.7,6.8C908.1,557.8,911.1,560.3,915.5,560.3
				z"/>
			<path fill="#B8B9BA" d="M965.8,553.4v-21.7h-6.2v-5.3h6.2v-10.7h5.8v10.7h8.9v5.3h-8.9v20.8c0,5,1.2,6.9,5.9,6.9l3-0.1v5.2
				c-1,0.1-2.3,0.2-3.6,0.2C969.4,564.8,965.8,561.6,965.8,553.4z"/>
			<path fill="#B8B9BA" d="M991.6,559.7c-3.7-3.9-5.5-8.7-5.5-14.2s1.8-10.3,5.5-14.2c3.7-3.9,8.3-5.9,13.7-5.9s10.1,2,13.7,5.9
				c3.7,3.9,5.6,8.7,5.6,14.2s-1.9,10.3-5.5,14.2c-3.7,3.8-8.3,5.8-13.8,5.8C999.8,565.5,995.2,563.5,991.6,559.7z M1014.9,556
				c2.5-2.8,3.7-6.3,3.7-10.5c0-4.1-1.2-7.6-3.7-10.4c-2.5-2.8-5.7-4.2-9.6-4.2c-3.8,0-7,1.4-9.5,4.2c-2.5,2.7-3.7,6.2-3.7,10.4
				c0,4.1,1.2,7.6,3.7,10.5c2.5,2.7,5.7,4.1,9.5,4.1C1009.2,560.1,1012.4,558.7,1014.9,556z"/>
			<path fill="#B8B9BA" d="M1072,510v5.2h-2c-5.7,0-7.7,2.6-7.7,8.3v2.9h8.9v5.3h-8.9v32.9h-5.8v-32.9h-6.2v-5.3h6.2v-2.9
				c0-9.4,4.6-13.6,13.4-13.6L1072,510z"/>
			<path fill="#B8B9BA" d="M1075.9,553.9c0-7.6,5.7-12,14.1-12c2.8,0,6.3,0.6,10.5,1.9v-3.9c0-5.7-3.8-9-9.4-9
				c-4.7,0-8.4,2.8-10,6.3l-4-3.7c3-5.3,7.7-8,14-8c9.3,0,15.1,5.4,15.1,15v24.2h-5.6v-4c-2.9,3.2-6.8,4.8-11.9,4.8
				C1081.5,565.5,1075.9,561.1,1075.9,553.9z M1089,560.3c4.7,0,9-2.7,11.4-6.1v-5.1c-3.7-1.2-7.1-1.9-10.1-1.9
				c-5.9,0-8.7,2.7-8.7,6.8C1081.6,557.8,1084.7,560.3,1089,560.3z"/>
			<path fill="#B8B9BA" d="M1144.7,531.5v-21.5h5.8v54.7h-5.5v-5.2c-3.5,4.1-7.9,6.1-13.1,6.1c-5.2,0-9.4-2-12.8-5.8
				c-3.4-3.8-5-8.6-5-14.2s1.6-10.4,5-14.2c3.4-3.9,7.6-5.9,12.8-5.9C1137,525.5,1141.3,527.5,1144.7,531.5z M1120,545.5
				c0,4.2,1.1,7.7,3.4,10.5c2.3,2.7,5.2,4.1,9,4.1s6.9-1.4,9.1-4.1c2.3-2.7,3.4-6.2,3.4-10.5s-1.2-7.7-3.4-10.5
				c-2.3-2.7-5.3-4.1-9.1-4.1s-6.8,1.4-9,4.1C1121.1,537.8,1120,541.3,1120,545.5z"/>
			<path fill="#B8B9BA" d="M1193.3,547.3h-28.5c0.5,8,5.4,12.8,12.9,12.8c4.3,0,7.9-1.9,10.9-5.6l4,3.7c-4.1,4.9-9,7.3-14.9,7.3
				c-5.7,0-10.3-1.8-13.7-5.5c-3.4-3.7-5.1-8.4-5.1-14.3c0-5.8,1.6-10.6,4.7-14.4c3.2-3.9,7.4-5.9,12.7-5.9c3.9,0,7.2,1,9.8,3
				c5.4,4.1,7.3,9.8,7.3,16.1L1193.3,547.3z M1165,542.2h22.5c-0.5-6.8-4.8-11.2-11.1-11.2C1169.9,530.9,1166,535.5,1165,542.2z"/>
			<path fill="#B8B9BA" d="M1227,559.7c-3.7-3.9-5.5-8.7-5.5-14.2s1.8-10.3,5.5-14.2c3.7-3.9,8.3-5.9,13.7-5.9
				c5.5,0,10.1,2,13.7,5.9c3.7,3.9,5.6,8.7,5.6,14.2s-1.9,10.3-5.5,14.2c-3.7,3.8-8.3,5.8-13.8,5.8
				C1235.3,565.5,1230.7,563.5,1227,559.7z M1250.4,556c2.5-2.8,3.7-6.3,3.7-10.5c0-4.1-1.2-7.6-3.7-10.4c-2.5-2.8-5.7-4.2-9.6-4.2
				c-3.8,0-7,1.4-9.5,4.2c-2.5,2.7-3.7,6.2-3.7,10.4c0,4.1,1.2,7.6,3.7,10.5c2.5,2.7,5.7,4.1,9.5,4.1
				C1244.7,560.1,1247.9,558.7,1250.4,556z"/>
			<path fill="#B8B9BA" d="M1293.7,564.6v-4.8c-3,3.8-7,5.7-12.1,5.7c-9.6,0-14.4-5.6-14.4-16.8v-22.2h5.8v22.5
				c0,7.3,3.2,11.2,9.4,11.2c7.4,0,11.1-5.4,11.1-14.7v-19h5.8v38.2H1293.7z"/>
			<path fill="#B8B9BA" d="M1311.2,553.4v-21.7h-6.2v-5.3h6.2v-10.7h5.8v10.7h8.9v5.3h-8.9v20.8c0,5,1.2,6.9,5.9,6.9l3-0.1v5.2
				c-1,0.1-2.3,0.2-3.6,0.2C1314.8,564.8,1311.2,561.6,1311.2,553.4z"/>
			<path fill="#B8B9BA" d="M611.1,659.8h-6.3l5.8-14.7l-15.8-38.7h6.5l12.6,31.7l12.3-31.7h6.4L611.1,659.8z"/>
			<path fill="#B8B9BA" d="M640,639.7c-3.7-3.9-5.5-8.7-5.5-14.2s1.8-10.3,5.5-14.2c3.7-3.9,8.3-5.8,13.7-5.8c5.5,0,10.1,2,13.7,5.8
				c3.7,3.9,5.6,8.7,5.6,14.2s-1.9,10.3-5.5,14.2c-3.7,3.8-8.3,5.8-13.8,5.8C648.3,645.5,643.7,643.5,640,639.7z M663.3,636
				c2.5-2.8,3.7-6.3,3.7-10.5c0-4.1-1.2-7.6-3.7-10.4c-2.5-2.8-5.7-4.2-9.6-4.2c-3.8,0-7,1.4-9.5,4.2c-2.5,2.7-3.7,6.2-3.7,10.4
				c0,4.1,1.2,7.6,3.7,10.5c2.5,2.7,5.7,4.1,9.5,4.1C657.6,640.1,660.8,638.7,663.3,636z"/>
			<path fill="#B8B9BA" d="M706.7,644.6v-4.8c-3,3.8-7,5.7-12.1,5.7c-9.6,0-14.4-5.6-14.4-16.8v-22.2h5.8v22.5
				c0,7.3,3.2,11.2,9.4,11.2c7.4,0,11.1-5.4,11.1-14.7v-19h5.8v38.2H706.7z"/>
			<path fill="#B8B9BA" d="M743,611.5c-0.4-0.1-0.9-0.1-1.3-0.1c-9,0-12.7,4.5-12.7,16.9v16.3h-5.8v-38.2h5.6v5.1
				c3.4-4.1,6.9-5.6,12.5-5.6c0.5,0,1.2,0,1.7,0.1V611.5z"/>
			<path fill="#B8B9BA" d="M776.5,606.4v4.6c2.2-3.1,6.4-5.5,11-5.5c5.2,0,9,2.1,11.4,6.3c2.9-4.2,6.9-6.3,11.9-6.3
				c9.8,0,14.7,5.6,14.7,16.9v22.2h-5.8v-22.7c0-7.4-3-11.1-8.9-11.1c-6.3,0-9.8,4.6-9.8,12.7v21.1h-5.8v-22.3
				c0-7.6-2.9-11.5-8.6-11.5c-6.6,0-10.1,4.6-10.1,12.7v21.1h-5.8v-38.2H776.5z"/>
			<path fill="#B8B9BA" d="M833.4,633.9c0-7.6,5.7-12,14.1-12c2.8,0,6.3,0.6,10.5,1.9v-3.9c0-5.7-3.8-9-9.4-9c-4.7,0-8.4,2.8-10,6.3
				l-4-3.7c3-5.3,7.7-8,14-8c9.3,0,15.1,5.4,15.1,15v24.2h-5.6v-4c-2.9,3.2-6.8,4.8-11.9,4.8C839.1,645.5,833.4,641.1,833.4,633.9z
				 M846.6,640.3c4.7,0,9-2.7,11.4-6.1v-5.1c-3.7-1.2-7.1-1.9-10.1-1.9c-5.9,0-8.7,2.7-8.7,6.8C839.2,637.8,842.3,640.3,846.6,640.3
				z"/>
			<path fill="#B8B9BA" d="M883.1,627.5c-7.3-1.7-10.8-5.4-10.8-11c0-3.4,1.3-6.1,3.9-8c2.6-2,5.7-3,9.3-3c5.1,0,9.6,2,13.6,6.2
				l-3.9,4.1c-3.1-3.3-6.5-4.9-10.1-4.9c-4.1,0-7,2.2-7,5.4c0,2.9,1.9,4.8,5.7,5.6l6,1.4c7.3,1.7,10.8,5.3,10.8,10.8
				c0,6.8-5.6,11.5-14.3,11.5c-6.6,0-12.3-3.1-15.4-7.2l3.8-4c3.1,3.9,6.9,5.9,11.5,5.9c5.4,0,8.6-2.2,8.6-5.9c0-2.7-2-4.6-6-5.5
				L883.1,627.5z"/>
			<path fill="#B8B9BA" d="M908.9,644.6v-54.7h5.8v36l17.7-19.6h7.6L925,622.6l15.8,22.1h-7.4l-12.5-17.6l-6.2,6.8v10.8H908.9z"/>
			<path fill="#B8B9BA" d="M957.2,640.9c0,2.6-2,4.6-4.8,4.6c-2.6,0-4.6-2-4.6-4.6s2-4.7,4.6-4.7
				C955.1,636.2,957.2,638.2,957.2,640.9z"/>
		</g>
		<g>
			<path fill="#B8B9BA" d="M644.5,476.1c-5.1,5.8-12.7,9.4-20.9,9.4c-7.9,0-14.4-2.7-19.7-8.2c-5.2-5.5-7.8-12.1-7.8-19.9
				c0-7.9,2.6-14.5,7.7-20c5.2-5.5,11.6-8.3,19.3-8.3c8.6,0,15.4,3.1,20.4,9.4l-4,4.2c-4.1-5.4-9.7-8-16.5-8c-6,0-11.1,2.2-15.1,6.6
				c-4,4.4-6,9.8-6,16.2c0,6.3,2,11.7,6.1,16.1c4.1,4.3,9.3,6.5,15.4,6.5c7.2,0,12.9-2.7,17.1-8.2L644.5,476.1z"/>
			<path fill="#B8B9BA" d="M651,484.6v-54.7h5.8v54.7H651z"/>
			<path fill="#B8B9BA" d="M668.1,430.3c1.8-1.6,4.5-1.6,6.2,0c1.8,1.6,1.8,4.4,0,6.2c-1.6,1.6-4.4,1.6-6.2,0
				C666.5,434.7,666.5,432,668.1,430.3z M668.3,484.6v-38.2h5.8v38.2H668.3z"/>
			<path fill="#B8B9BA" d="M717.5,478.2c-4.1,4.9-9.1,7.3-15.3,7.3c-5.5,0-10.1-2-13.7-5.8c-3.7-3.9-5.5-8.7-5.5-14.2
				s1.9-10.2,5.6-14.1c3.8-4,8.4-5.9,13.8-5.9c5.8,0,10.5,2.3,14.3,6.8l-3.9,3.8c-2.9-3.4-6.3-5.1-10.4-5.1c-3.9,0-7.1,1.4-9.7,4.2
				c-2.6,2.7-3.8,6.2-3.8,10.4c0,8.5,5.2,14.6,13.7,14.6c4.3,0,8-1.9,10.8-5.6L717.5,478.2z"/>
			<path fill="#B8B9BA" d="M725,484.6v-54.7h5.8v36l17.7-19.6h7.6l-14.9,16.1l15.8,22.1h-7.4L737,467.1l-6.2,6.8v10.8H725z"/>
			<path fill="#B8B9BA" d="M784.3,473.9c0-7.6,5.7-12,14.1-12c2.8,0,6.3,0.6,10.5,1.9v-3.9c0-5.7-3.8-9-9.4-9c-4.7,0-8.4,2.8-10,6.3
				l-4-3.7c3-5.3,7.7-8,14-8c9.3,0,15.1,5.4,15.1,15v24.2H809v-4c-2.9,3.2-6.8,4.8-11.9,4.8C789.9,485.5,784.3,481.1,784.3,473.9z
				 M797.5,480.3c4.7,0,9-2.7,11.4-6.1v-5.1c-3.7-1.2-7.1-1.9-10.1-1.9c-5.9,0-8.7,2.7-8.7,6.8C790.1,477.8,793.1,480.3,797.5,480.3
				z"/>
			<path fill="#B8B9BA" d="M830.8,446.4v4.7c2.6-3.4,7.3-5.6,12.1-5.6c9.8,0,15.2,6.1,15.2,16.9v22.2h-5.9v-22.7
				c0-7.1-3.6-11.1-9.8-11.1c-7.5,0-11.5,5.7-11.5,14.8v19h-5.8v-38.2H830.8z"/>
			<path fill="#B8B9BA" d="M878.8,499.8h-6.3l5.8-14.7l-15.8-38.7h6.5l12.6,31.7l12.3-31.7h6.4L878.8,499.8z"/>
			<path fill="#B8B9BA" d="M918.6,478.3l8.8-31.9h7.8l8.8,31.9l8.8-31.9h6.3l-11.4,38.2h-7.2l-9.3-31.6l-9.2,31.6h-7.3l-11.4-38.2
				h6.3L918.6,478.3z"/>
			<path fill="#B8B9BA" d="M971.1,429.9V451c2.6-3.4,7.2-5.5,11.9-5.5c9.8,0,15.2,6.1,15.2,16.9v22.2h-5.9v-22.7
				c0-7.1-3.6-11.1-9.8-11.1c-7.5,0-11.5,5.7-11.5,14.8v19h-5.8v-54.7H971.1z"/>
			<path fill="#B8B9BA" d="M1039.2,467.3h-28.5c0.5,8,5.4,12.8,12.9,12.8c4.3,0,7.9-1.9,10.9-5.6l4,3.7c-4.1,4.9-9,7.3-14.9,7.3
				c-5.7,0-10.3-1.8-13.7-5.5c-3.4-3.7-5.1-8.4-5.1-14.3c0-5.8,1.6-10.6,4.7-14.4c3.2-3.9,7.4-5.9,12.7-5.9c3.9,0,7.2,1,9.8,3
				c5.4,4.1,7.3,9.8,7.3,16.1L1039.2,467.3z M1011,462.2h22.5c-0.5-6.8-4.8-11.2-11.1-11.2C1015.9,450.9,1012,455.5,1011,462.2z"/>
			<path fill="#B8B9BA" d="M1067.4,451.5c-0.4-0.1-0.9-0.1-1.3-0.1c-9,0-12.7,4.5-12.7,16.9v16.3h-5.8v-38.2h5.6v5.1
				c3.4-4.1,6.9-5.6,12.5-5.6c0.5,0,1.2,0,1.7,0.1V451.5z"/>
			<path fill="#B8B9BA" d="M1105.4,467.3h-28.5c0.5,8,5.4,12.8,12.9,12.8c4.3,0,7.9-1.9,10.9-5.6l4,3.7c-4.1,4.9-9,7.3-14.9,7.3
				c-5.7,0-10.3-1.8-13.7-5.5c-3.4-3.7-5.1-8.4-5.1-14.3c0-5.8,1.6-10.6,4.7-14.4c3.2-3.9,7.4-5.9,12.7-5.9c3.9,0,7.2,1,9.8,3
				c5.4,4.1,7.3,9.8,7.3,16.1L1105.4,467.3z M1077.1,462.2h22.5c-0.5-6.8-4.8-11.2-11.1-11.2C1082,450.9,1078.1,455.5,1077.1,462.2z
				"/>
			<path fill="#B8B9BA" d="M1135.8,430.3c1.8-1.6,4.5-1.6,6.2,0c1.8,1.6,1.8,4.4,0,6.2c-1.6,1.6-4.4,1.6-6.2,0
				C1134.1,434.7,1134.1,432,1135.8,430.3z M1136,484.6v-38.2h5.8v38.2H1136z"/>
			<path fill="#B8B9BA" d="M1159,446.4v4.7c2.6-3.4,7.3-5.6,12.1-5.6c9.8,0,15.2,6.1,15.2,16.9v22.2h-5.9v-22.7
				c0-7.1-3.6-11.1-9.8-11.1c-7.5,0-11.5,5.7-11.5,14.8v19h-5.8v-38.2H1159z"/>
			<path fill="#B8B9BA" d="M1219.5,473.4v-21.7h-6.2v-5.3h6.2v-10.7h5.8v10.7h8.9v5.3h-8.9v20.8c0,5,1.2,6.9,5.8,6.9l3-0.1v5.2
				c-1,0.1-2.3,0.2-3.6,0.2C1223.1,484.8,1219.5,481.6,1219.5,473.4z"/>
			<path fill="#B8B9BA" d="M1247.8,429.9V451c2.6-3.4,7.2-5.5,11.9-5.5c9.8,0,15.2,6.1,15.2,16.9v22.2h-5.9v-22.7
				c0-7.1-3.6-11.1-9.8-11.1c-7.5,0-11.5,5.7-11.5,14.8v19h-5.8v-54.7H1247.8z"/>
			<path fill="#B8B9BA" d="M1315.9,467.3h-28.5c0.5,8,5.4,12.8,12.9,12.8c4.3,0,7.9-1.9,10.9-5.6l4,3.7c-4.1,4.9-9,7.3-14.9,7.3
				c-5.7,0-10.3-1.8-13.7-5.5c-3.4-3.7-5.1-8.4-5.1-14.3c0-5.8,1.6-10.6,4.7-14.4c3.2-3.9,7.4-5.9,12.7-5.9c3.9,0,7.2,1,9.8,3
				c5.4,4.1,7.3,9.8,7.3,16.1L1315.9,467.3z M1287.6,462.2h22.5c-0.5-6.8-4.8-11.2-11.1-11.2
				C1292.5,450.9,1288.6,455.5,1287.6,462.2z"/>
			<path fill="#B8B9BA" d="M604.4,564.6h-5.6v-54.7h5.8v21.5c3.4-4,7.7-6,12.9-6c5.2,0,9.4,2,12.8,5.9c3.4,3.8,5,8.6,5,14.2
				s-1.6,10.4-5,14.2s-7.6,5.8-12.8,5.8c-5.2,0-9.5-2-13-6.1V564.6z M629.2,545.5c0-4.2-1.1-7.7-3.4-10.5c-2.3-2.7-5.2-4.1-9-4.1
				s-6.9,1.4-9.1,4.1c-2.3,2.7-3.4,6.2-3.4,10.5s1.1,7.7,3.4,10.5s5.3,4.1,9.1,4.1s6.8-1.4,9-4.1S629.2,549.7,629.2,545.5z"/>
			<path fill="#B8B9BA" d="M643.5,564.6v-54.7h5.8v54.7H643.5z"/>
			<path fill="#B8B9BA" d="M657.6,553.9c0-7.6,5.7-12,14.1-12c2.8,0,6.3,0.6,10.5,1.9v-3.9c0-5.7-3.8-9-9.4-9c-4.7,0-8.4,2.8-10,6.3
				l-4-3.7c3-5.3,7.7-8,14-8c9.3,0,15.1,5.4,15.1,15v24.2h-5.6v-4c-2.9,3.2-6.8,4.8-11.9,4.8C663.3,565.5,657.6,561.1,657.6,553.9z
				 M670.8,560.3c4.7,0,9-2.7,11.4-6.1v-5.1c-3.7-1.2-7.1-1.9-10.1-1.9c-5.9,0-8.7,2.7-8.7,6.8C663.4,557.8,666.5,560.3,670.8,560.3
				z"/>
			<path fill="#B8B9BA" d="M730.3,558.2c-4.1,4.9-9.1,7.3-15.3,7.3c-5.5,0-10.1-2-13.7-5.8c-3.7-3.9-5.5-8.7-5.5-14.2
				s1.9-10.2,5.6-14.1c3.8-4,8.4-5.9,13.8-5.9c5.8,0,10.5,2.3,14.3,6.8l-3.9,3.8c-2.9-3.4-6.3-5.1-10.4-5.1c-3.9,0-7.1,1.4-9.7,4.2
				c-2.6,2.7-3.8,6.2-3.8,10.4c0,8.5,5.2,14.6,13.7,14.6c4.3,0,8-1.9,10.8-5.6L730.3,558.2z"/>
			<path fill="#B8B9BA" d="M737.8,564.6v-54.7h5.8v36l17.7-19.6h7.6L754,542.6l15.8,22.1h-7.4l-12.5-17.6l-6.2,6.8v10.8H737.8z"/>
			<path fill="#B8B9BA" d="M797.1,553.9c0-7.6,5.7-12,14.1-12c2.8,0,6.3,0.6,10.5,1.9v-3.9c0-5.7-3.8-9-9.4-9c-4.7,0-8.4,2.8-10,6.3
				l-4-3.7c3-5.3,7.7-8,14-8c9.3,0,15.1,5.4,15.1,15v24.2h-5.6v-4c-2.9,3.2-6.8,4.8-11.9,4.8C802.7,565.5,797.1,561.1,797.1,553.9z
				 M810.3,560.3c4.7,0,9-2.7,11.4-6.1v-5.1c-3.7-1.2-7.1-1.9-10.1-1.9c-5.9,0-8.7,2.7-8.7,6.8C802.9,557.8,805.9,560.3,810.3,560.3
				z"/>
			<path fill="#B8B9BA" d="M857.8,531.5c-0.4-0.1-0.9-0.1-1.3-0.1c-9,0-12.7,4.5-12.7,16.9v16.3H838v-38.2h5.6v5.1
				c3.4-4.1,6.9-5.6,12.5-5.6c0.5,0,1.2,0,1.7,0.1V531.5z"/>
			<path fill="#B8B9BA" d="M895.7,547.3h-28.5c0.5,8,5.4,12.8,12.9,12.8c4.3,0,7.9-1.9,10.9-5.6l4,3.7c-4.1,4.9-9,7.3-14.9,7.3
				c-5.7,0-10.3-1.8-13.7-5.5c-3.4-3.7-5.1-8.4-5.1-14.3c0-5.8,1.6-10.6,4.7-14.4c3.2-3.9,7.4-5.9,12.7-5.9c3.9,0,7.2,1,9.8,3
				c5.4,4.1,7.3,9.8,7.3,16.1L895.7,547.3z M867.5,542.2h22.5c-0.5-6.8-4.8-11.2-11.1-11.2C872.4,530.9,868.5,535.5,867.5,542.2z"/>
			<path fill="#B8B9BA" d="M902.3,553.9c0-7.6,5.7-12,14.1-12c2.8,0,6.3,0.6,10.5,1.9v-3.9c0-5.7-3.8-9-9.4-9c-4.7,0-8.4,2.8-10,6.3
				l-4-3.7c3-5.3,7.7-8,14-8c9.3,0,15.1,5.4,15.1,15v24.2H927v-4c-2.9,3.2-6.8,4.8-11.9,4.8C907.9,565.5,902.3,561.1,902.3,553.9z
				 M915.5,560.3c4.7,0,9-2.7,11.4-6.1v-5.1c-3.7-1.2-7.1-1.9-10.1-1.9c-5.9,0-8.7,2.7-8.7,6.8C908.1,557.8,911.1,560.3,915.5,560.3
				z"/>
			<path fill="#B8B9BA" d="M965.8,553.4v-21.7h-6.2v-5.3h6.2v-10.7h5.8v10.7h8.9v5.3h-8.9v20.8c0,5,1.2,6.9,5.9,6.9l3-0.1v5.2
				c-1,0.1-2.3,0.2-3.6,0.2C969.4,564.8,965.8,561.6,965.8,553.4z"/>
			<path fill="#B8B9BA" d="M991.6,559.7c-3.7-3.9-5.5-8.7-5.5-14.2s1.8-10.3,5.5-14.2c3.7-3.9,8.3-5.9,13.7-5.9s10.1,2,13.7,5.9
				c3.7,3.9,5.6,8.7,5.6,14.2s-1.9,10.3-5.5,14.2c-3.7,3.8-8.3,5.8-13.8,5.8C999.8,565.5,995.2,563.5,991.6,559.7z M1014.9,556
				c2.5-2.8,3.7-6.3,3.7-10.5c0-4.1-1.2-7.6-3.7-10.4c-2.5-2.8-5.7-4.2-9.6-4.2c-3.8,0-7,1.4-9.5,4.2c-2.5,2.7-3.7,6.2-3.7,10.4
				c0,4.1,1.2,7.6,3.7,10.5c2.5,2.7,5.7,4.1,9.5,4.1C1009.2,560.1,1012.4,558.7,1014.9,556z"/>
			<path fill="#B8B9BA" d="M1072,510v5.2h-2c-5.7,0-7.7,2.6-7.7,8.3v2.9h8.9v5.3h-8.9v32.9h-5.8v-32.9h-6.2v-5.3h6.2v-2.9
				c0-9.4,4.6-13.6,13.4-13.6L1072,510z"/>
			<path fill="#B8B9BA" d="M1075.9,553.9c0-7.6,5.7-12,14.1-12c2.8,0,6.3,0.6,10.5,1.9v-3.9c0-5.7-3.8-9-9.4-9
				c-4.7,0-8.4,2.8-10,6.3l-4-3.7c3-5.3,7.7-8,14-8c9.3,0,15.1,5.4,15.1,15v24.2h-5.6v-4c-2.9,3.2-6.8,4.8-11.9,4.8
				C1081.5,565.5,1075.9,561.1,1075.9,553.9z M1089,560.3c4.7,0,9-2.7,11.4-6.1v-5.1c-3.7-1.2-7.1-1.9-10.1-1.9
				c-5.9,0-8.7,2.7-8.7,6.8C1081.6,557.8,1084.7,560.3,1089,560.3z"/>
			<path fill="#B8B9BA" d="M1144.7,531.5v-21.5h5.8v54.7h-5.5v-5.2c-3.5,4.1-7.9,6.1-13.1,6.1c-5.2,0-9.4-2-12.8-5.8
				c-3.4-3.8-5-8.6-5-14.2s1.6-10.4,5-14.2c3.4-3.9,7.6-5.9,12.8-5.9C1137,525.5,1141.3,527.5,1144.7,531.5z M1120,545.5
				c0,4.2,1.1,7.7,3.4,10.5c2.3,2.7,5.2,4.1,9,4.1s6.9-1.4,9.1-4.1c2.3-2.7,3.4-6.2,3.4-10.5s-1.2-7.7-3.4-10.5
				c-2.3-2.7-5.3-4.1-9.1-4.1s-6.8,1.4-9,4.1C1121.1,537.8,1120,541.3,1120,545.5z"/>
			<path fill="#B8B9BA" d="M1193.3,547.3h-28.5c0.5,8,5.4,12.8,12.9,12.8c4.3,0,7.9-1.9,10.9-5.6l4,3.7c-4.1,4.9-9,7.3-14.9,7.3
				c-5.7,0-10.3-1.8-13.7-5.5c-3.4-3.7-5.1-8.4-5.1-14.3c0-5.8,1.6-10.6,4.7-14.4c3.2-3.9,7.4-5.9,12.7-5.9c3.9,0,7.2,1,9.8,3
				c5.4,4.1,7.3,9.8,7.3,16.1L1193.3,547.3z M1165,542.2h22.5c-0.5-6.8-4.8-11.2-11.1-11.2C1169.9,530.9,1166,535.5,1165,542.2z"/>
			<path fill="#B8B9BA" d="M1227,559.7c-3.7-3.9-5.5-8.7-5.5-14.2s1.8-10.3,5.5-14.2c3.7-3.9,8.3-5.9,13.7-5.9
				c5.5,0,10.1,2,13.7,5.9c3.7,3.9,5.6,8.7,5.6,14.2s-1.9,10.3-5.5,14.2c-3.7,3.8-8.3,5.8-13.8,5.8
				C1235.3,565.5,1230.7,563.5,1227,559.7z M1250.4,556c2.5-2.8,3.7-6.3,3.7-10.5c0-4.1-1.2-7.6-3.7-10.4c-2.5-2.8-5.7-4.2-9.6-4.2
				c-3.8,0-7,1.4-9.5,4.2c-2.5,2.7-3.7,6.2-3.7,10.4c0,4.1,1.2,7.6,3.7,10.5c2.5,2.7,5.7,4.1,9.5,4.1
				C1244.7,560.1,1247.9,558.7,1250.4,556z"/>
			<path fill="#B8B9BA" d="M1293.7,564.6v-4.8c-3,3.8-7,5.7-12.1,5.7c-9.6,0-14.4-5.6-14.4-16.8v-22.2h5.8v22.5
				c0,7.3,3.2,11.2,9.4,11.2c7.4,0,11.1-5.4,11.1-14.7v-19h5.8v38.2H1293.7z"/>
			<path fill="#B8B9BA" d="M1311.2,553.4v-21.7h-6.2v-5.3h6.2v-10.7h5.8v10.7h8.9v5.3h-8.9v20.8c0,5,1.2,6.9,5.9,6.9l3-0.1v5.2
				c-1,0.1-2.3,0.2-3.6,0.2C1314.8,564.8,1311.2,561.6,1311.2,553.4z"/>
			<path fill="#B8B9BA" d="M611.1,659.8h-6.3l5.8-14.7l-15.8-38.7h6.5l12.6,31.7l12.3-31.7h6.4L611.1,659.8z"/>
			<path fill="#B8B9BA" d="M640,639.7c-3.7-3.9-5.5-8.7-5.5-14.2s1.8-10.3,5.5-14.2c3.7-3.9,8.3-5.8,13.7-5.8c5.5,0,10.1,2,13.7,5.8
				c3.7,3.9,5.6,8.7,5.6,14.2s-1.9,10.3-5.5,14.2c-3.7,3.8-8.3,5.8-13.8,5.8C648.3,645.5,643.7,643.5,640,639.7z M663.3,636
				c2.5-2.8,3.7-6.3,3.7-10.5c0-4.1-1.2-7.6-3.7-10.4c-2.5-2.8-5.7-4.2-9.6-4.2c-3.8,0-7,1.4-9.5,4.2c-2.5,2.7-3.7,6.2-3.7,10.4
				c0,4.1,1.2,7.6,3.7,10.5c2.5,2.7,5.7,4.1,9.5,4.1C657.6,640.1,660.8,638.7,663.3,636z"/>
			<path fill="#B8B9BA" d="M706.7,644.6v-4.8c-3,3.8-7,5.7-12.1,5.7c-9.6,0-14.4-5.6-14.4-16.8v-22.2h5.8v22.5
				c0,7.3,3.2,11.2,9.4,11.2c7.4,0,11.1-5.4,11.1-14.7v-19h5.8v38.2H706.7z"/>
			<path fill="#B8B9BA" d="M743,611.5c-0.4-0.1-0.9-0.1-1.3-0.1c-9,0-12.7,4.5-12.7,16.9v16.3h-5.8v-38.2h5.6v5.1
				c3.4-4.1,6.9-5.6,12.5-5.6c0.5,0,1.2,0,1.7,0.1V611.5z"/>
			<path fill="#B8B9BA" d="M776.5,606.4v4.6c2.2-3.1,6.4-5.5,11-5.5c5.2,0,9,2.1,11.4,6.3c2.9-4.2,6.9-6.3,11.9-6.3
				c9.8,0,14.7,5.6,14.7,16.9v22.2h-5.8v-22.7c0-7.4-3-11.1-8.9-11.1c-6.3,0-9.8,4.6-9.8,12.7v21.1h-5.8v-22.3
				c0-7.6-2.9-11.5-8.6-11.5c-6.6,0-10.1,4.6-10.1,12.7v21.1h-5.8v-38.2H776.5z"/>
			<path fill="#B8B9BA" d="M833.4,633.9c0-7.6,5.7-12,14.1-12c2.8,0,6.3,0.6,10.5,1.9v-3.9c0-5.7-3.8-9-9.4-9c-4.7,0-8.4,2.8-10,6.3
				l-4-3.7c3-5.3,7.7-8,14-8c9.3,0,15.1,5.4,15.1,15v24.2h-5.6v-4c-2.9,3.2-6.8,4.8-11.9,4.8C839.1,645.5,833.4,641.1,833.4,633.9z
				 M846.6,640.3c4.7,0,9-2.7,11.4-6.1v-5.1c-3.7-1.2-7.1-1.9-10.1-1.9c-5.9,0-8.7,2.7-8.7,6.8C839.2,637.8,842.3,640.3,846.6,640.3
				z"/>
			<path fill="#B8B9BA" d="M883.1,627.5c-7.3-1.7-10.8-5.4-10.8-11c0-3.4,1.3-6.1,3.9-8c2.6-2,5.7-3,9.3-3c5.1,0,9.6,2,13.6,6.2
				l-3.9,4.1c-3.1-3.3-6.5-4.9-10.1-4.9c-4.1,0-7,2.2-7,5.4c0,2.9,1.9,4.8,5.7,5.6l6,1.4c7.3,1.7,10.8,5.3,10.8,10.8
				c0,6.8-5.6,11.5-14.3,11.5c-6.6,0-12.3-3.1-15.4-7.2l3.8-4c3.1,3.9,6.9,5.9,11.5,5.9c5.4,0,8.6-2.2,8.6-5.9c0-2.7-2-4.6-6-5.5
				L883.1,627.5z"/>
			<path fill="#B8B9BA" d="M908.9,644.6v-54.7h5.8v36l17.7-19.6h7.6L925,622.6l15.8,22.1h-7.4l-12.5-17.6l-6.2,6.8v10.8H908.9z"/>
			<path fill="#B8B9BA" d="M957.2,640.9c0,2.6-2,4.6-4.8,4.6c-2.6,0-4.6-2-4.6-4.6s2-4.7,4.6-4.7
				C955.1,636.2,957.2,638.2,957.2,640.9z"/>
		</g>
	</g>
	<g>
		<g>
			<path fill="#B8B9BA" d="M843.8,1018.2l-1.6,1.5c-4.1-4-6.1-8.6-6.1-13.9c0-5.3,2-10,6.1-13.9l1.6,1.5c-3.7,3.8-5.4,7.7-5.4,12.5
				C838.4,1010.6,840,1014.5,843.8,1018.2z"/>
			<path fill="#B8B9BA" d="M857.3,1011.1c-1.6,1.9-3.5,2.8-5.9,2.8c-2.1,0-3.9-0.8-5.3-2.2c-1.4-1.5-2.1-3.3-2.1-5.5
				s0.7-3.9,2.2-5.4c1.5-1.5,3.2-2.3,5.3-2.3c2.2,0,4,0.9,5.5,2.6l-1.5,1.5c-1.1-1.3-2.4-2-4-2c-1.5,0-2.7,0.5-3.7,1.6
				c-1,1-1.5,2.4-1.5,4c0,3.3,2,5.6,5.3,5.6c1.6,0,3.1-0.7,4.2-2.2L857.3,1011.1z"/>
			<path fill="#B8B9BA" d="M860.2,1013.5v-21h2.2v21H860.2z"/>
			<path fill="#B8B9BA" d="M866.8,992.7c0.7-0.6,1.7-0.6,2.4,0c0.7,0.6,0.7,1.7,0,2.4c-0.6,0.6-1.7,0.6-2.4,0
				C866.1,994.3,866.1,993.3,866.8,992.7z M866.9,1013.5v-14.7h2.2v14.7H866.9z"/>
			<path fill="#B8B9BA" d="M885.8,1011.1c-1.6,1.9-3.5,2.8-5.9,2.8c-2.1,0-3.9-0.8-5.3-2.2c-1.4-1.5-2.1-3.3-2.1-5.5
				s0.7-3.9,2.2-5.4c1.5-1.5,3.2-2.3,5.3-2.3c2.2,0,4,0.9,5.5,2.6l-1.5,1.5c-1.1-1.3-2.4-2-4-2c-1.5,0-2.7,0.5-3.7,1.6
				c-1,1-1.5,2.4-1.5,4c0,3.3,2,5.6,5.3,5.6c1.7,0,3.1-0.7,4.2-2.2L885.8,1011.1z"/>
			<path fill="#B8B9BA" d="M888.7,1013.5v-21h2.2v13.9l6.8-7.5h2.9l-5.7,6.2l6.1,8.5h-2.8l-4.8-6.8l-2.4,2.6v4.1H888.7z"/>
			<path fill="#B8B9BA" d="M912.9,1009.2v-8.3h-2.4v-2h2.4v-4.1h2.2v4.1h3.4v2h-3.4v8c0,1.9,0.5,2.7,2.2,2.7l1.2,0v2
				c-0.4,0-0.9,0.1-1.4,0.1C914.2,1013.6,912.9,1012.4,912.9,1009.2z"/>
			<path fill="#B8B9BA" d="M922.8,1011.7c-1.4-1.5-2.1-3.3-2.1-5.5s0.7-4,2.1-5.5s3.2-2.2,5.3-2.2c2.1,0,3.9,0.8,5.3,2.2
				c1.4,1.5,2.2,3.3,2.2,5.5s-0.7,4-2.1,5.5c-1.4,1.5-3.2,2.2-5.3,2.2C925.9,1013.9,924.2,1013.1,922.8,1011.7z M931.7,1010.2
				c1-1.1,1.4-2.4,1.4-4s-0.5-2.9-1.4-4c-1-1.1-2.2-1.6-3.7-1.6c-1.5,0-2.7,0.5-3.7,1.6c-1,1-1.4,2.4-1.4,4s0.5,2.9,1.4,4
				c1,1,2.2,1.6,3.7,1.6C929.5,1011.8,930.8,1011.3,931.7,1010.2z"/>
			<path fill="#B8B9BA" d="M946.3,1009.4c0-2.9,2.2-4.6,5.4-4.6c1.1,0,2.4,0.2,4,0.7v-1.5c0-2.2-1.5-3.4-3.6-3.4
				c-1.8,0-3.2,1.1-3.8,2.4l-1.5-1.4c1.2-2,3-3.1,5.4-3.1c3.6,0,5.8,2.1,5.8,5.8v9.3h-2.2v-1.5c-1.1,1.2-2.6,1.9-4.6,1.9
				C948.5,1013.9,946.3,1012.2,946.3,1009.4z M951.4,1011.9c1.8,0,3.4-1,4.4-2.3v-2c-1.4-0.5-2.7-0.7-3.9-0.7
				c-2.2,0-3.3,1.1-3.3,2.6C948.6,1010.9,949.7,1011.9,951.4,1011.9z"/>
			<path fill="#B8B9BA" d="M972.8,1000.8v-8.3h2.2v21h-2.1v-2c-1.3,1.6-3,2.3-5,2.3c-2,0-3.6-0.8-4.9-2.2c-1.3-1.5-1.9-3.3-1.9-5.5
				c0-2.2,0.6-4,1.9-5.5c1.3-1.5,2.9-2.2,4.9-2.2C969.9,998.5,971.5,999.3,972.8,1000.8z M963.3,1006.2c0,1.6,0.4,3,1.3,4
				s2,1.6,3.5,1.6c1.5,0,2.6-0.5,3.5-1.6s1.3-2.4,1.3-4c0-1.6-0.4-3-1.3-4c-0.9-1-2-1.6-3.5-1.6c-1.5,0-2.6,0.5-3.5,1.6
				C963.7,1003.2,963.3,1004.6,963.3,1006.2z"/>
			<path fill="#B8B9BA" d="M990.9,998.8l-5.6,14.7H983l-5.6-14.7h2.4l4.3,12l4.3-12H990.9z"/>
			<path fill="#B8B9BA" d="M992.2,1009.4c0-2.9,2.2-4.6,5.4-4.6c1.1,0,2.4,0.2,4,0.7v-1.5c0-2.2-1.5-3.4-3.6-3.4
				c-1.8,0-3.2,1.1-3.8,2.4l-1.5-1.4c1.2-2,3-3.1,5.4-3.1c3.6,0,5.8,2.1,5.8,5.8v9.3h-2.2v-1.5c-1.1,1.2-2.6,1.9-4.6,1.9
				C994.4,1013.9,992.2,1012.2,992.2,1009.4z M997.3,1011.9c1.8,0,3.5-1,4.4-2.3v-2c-1.4-0.5-2.7-0.7-3.9-0.7
				c-2.2,0-3.3,1.1-3.3,2.6C994.4,1010.9,995.6,1011.9,997.3,1011.9z"/>
			<path fill="#B8B9BA" d="M1010.1,998.8v1.8c1-1.3,2.8-2.2,4.7-2.2c3.7,0,5.8,2.3,5.8,6.5v8.5h-2.2v-8.7c0-2.7-1.4-4.3-3.8-4.3
				c-2.9,0-4.4,2.2-4.4,5.7v7.3h-2.2v-14.7H1010.1z"/>
			<path fill="#B8B9BA" d="M1036.9,1011.1c-1.6,1.9-3.5,2.8-5.9,2.8c-2.1,0-3.9-0.8-5.3-2.2c-1.4-1.5-2.1-3.3-2.1-5.5
				s0.7-3.9,2.2-5.4c1.5-1.5,3.2-2.3,5.3-2.3c2.2,0,4,0.9,5.5,2.6l-1.5,1.5c-1.1-1.3-2.4-2-4-2c-1.5,0-2.7,0.5-3.7,1.6
				c-1,1-1.5,2.4-1.5,4c0,3.3,2,5.6,5.3,5.6c1.7,0,3.1-0.7,4.2-2.2L1036.9,1011.1z"/>
			<path fill="#B8B9BA" d="M1051.8,1006.9h-10.9c0.2,3.1,2.1,4.9,4.9,4.9c1.7,0,3-0.7,4.2-2.2l1.5,1.4c-1.6,1.9-3.5,2.8-5.7,2.8
				c-2.2,0-4-0.7-5.3-2.1c-1.3-1.4-2-3.2-2-5.5c0-2.2,0.6-4.1,1.8-5.5c1.2-1.5,2.8-2.2,4.9-2.2c1.5,0,2.8,0.4,3.8,1.2
				c2.1,1.6,2.8,3.8,2.8,6.2L1051.8,1006.9z M1040.9,1004.9h8.6c-0.2-2.6-1.8-4.3-4.3-4.3
				C1042.8,1000.6,1041.3,1002.4,1040.9,1004.9z"/>
			<path fill="#B8B9BA" d="M1052.8,993.3l1.6-1.5c4.1,4,6.1,8.6,6.1,13.9c0,5.3-2,10-6.1,13.9l-1.6-1.5c3.7-3.8,5.4-7.7,5.4-12.5
				C1058.2,1000.9,1056.5,997,1052.8,993.3z"/>
		</g>
		<g>
			<path fill="#B8B9BA" d="M843.8,1018.2l-1.6,1.5c-4.1-4-6.1-8.6-6.1-13.9c0-5.3,2-10,6.1-13.9l1.6,1.5c-3.7,3.8-5.4,7.7-5.4,12.5
				C838.4,1010.6,840,1014.5,843.8,1018.2z"/>
			<path fill="#B8B9BA" d="M857.3,1011.1c-1.6,1.9-3.5,2.8-5.9,2.8c-2.1,0-3.9-0.8-5.3-2.2c-1.4-1.5-2.1-3.3-2.1-5.5
				s0.7-3.9,2.2-5.4c1.5-1.5,3.2-2.3,5.3-2.3c2.2,0,4,0.9,5.5,2.6l-1.5,1.5c-1.1-1.3-2.4-2-4-2c-1.5,0-2.7,0.5-3.7,1.6
				c-1,1-1.5,2.4-1.5,4c0,3.3,2,5.6,5.3,5.6c1.6,0,3.1-0.7,4.2-2.2L857.3,1011.1z"/>
			<path fill="#B8B9BA" d="M860.2,1013.5v-21h2.2v21H860.2z"/>
			<path fill="#B8B9BA" d="M866.8,992.7c0.7-0.6,1.7-0.6,2.4,0c0.7,0.6,0.7,1.7,0,2.4c-0.6,0.6-1.7,0.6-2.4,0
				C866.1,994.3,866.1,993.3,866.8,992.7z M866.9,1013.5v-14.7h2.2v14.7H866.9z"/>
			<path fill="#B8B9BA" d="M885.8,1011.1c-1.6,1.9-3.5,2.8-5.9,2.8c-2.1,0-3.9-0.8-5.3-2.2c-1.4-1.5-2.1-3.3-2.1-5.5
				s0.7-3.9,2.2-5.4c1.5-1.5,3.2-2.3,5.3-2.3c2.2,0,4,0.9,5.5,2.6l-1.5,1.5c-1.1-1.3-2.4-2-4-2c-1.5,0-2.7,0.5-3.7,1.6
				c-1,1-1.5,2.4-1.5,4c0,3.3,2,5.6,5.3,5.6c1.7,0,3.1-0.7,4.2-2.2L885.8,1011.1z"/>
			<path fill="#B8B9BA" d="M888.7,1013.5v-21h2.2v13.9l6.8-7.5h2.9l-5.7,6.2l6.1,8.5h-2.8l-4.8-6.8l-2.4,2.6v4.1H888.7z"/>
			<path fill="#B8B9BA" d="M912.9,1009.2v-8.3h-2.4v-2h2.4v-4.1h2.2v4.1h3.4v2h-3.4v8c0,1.9,0.5,2.7,2.2,2.7l1.2,0v2
				c-0.4,0-0.9,0.1-1.4,0.1C914.2,1013.6,912.9,1012.4,912.9,1009.2z"/>
			<path fill="#B8B9BA" d="M922.8,1011.7c-1.4-1.5-2.1-3.3-2.1-5.5s0.7-4,2.1-5.5s3.2-2.2,5.3-2.2c2.1,0,3.9,0.8,5.3,2.2
				c1.4,1.5,2.2,3.3,2.2,5.5s-0.7,4-2.1,5.5c-1.4,1.5-3.2,2.2-5.3,2.2C925.9,1013.9,924.2,1013.1,922.8,1011.7z M931.7,1010.2
				c1-1.1,1.4-2.4,1.4-4s-0.5-2.9-1.4-4c-1-1.1-2.2-1.6-3.7-1.6c-1.5,0-2.7,0.5-3.7,1.6c-1,1-1.4,2.4-1.4,4s0.5,2.9,1.4,4
				c1,1,2.2,1.6,3.7,1.6C929.5,1011.8,930.8,1011.3,931.7,1010.2z"/>
			<path fill="#B8B9BA" d="M946.3,1009.4c0-2.9,2.2-4.6,5.4-4.6c1.1,0,2.4,0.2,4,0.7v-1.5c0-2.2-1.5-3.4-3.6-3.4
				c-1.8,0-3.2,1.1-3.8,2.4l-1.5-1.4c1.2-2,3-3.1,5.4-3.1c3.6,0,5.8,2.1,5.8,5.8v9.3h-2.2v-1.5c-1.1,1.2-2.6,1.9-4.6,1.9
				C948.5,1013.9,946.3,1012.2,946.3,1009.4z M951.4,1011.9c1.8,0,3.4-1,4.4-2.3v-2c-1.4-0.5-2.7-0.7-3.9-0.7
				c-2.2,0-3.3,1.1-3.3,2.6C948.6,1010.9,949.7,1011.9,951.4,1011.9z"/>
			<path fill="#B8B9BA" d="M972.8,1000.8v-8.3h2.2v21h-2.1v-2c-1.3,1.6-3,2.3-5,2.3c-2,0-3.6-0.8-4.9-2.2c-1.3-1.5-1.9-3.3-1.9-5.5
				c0-2.2,0.6-4,1.9-5.5c1.3-1.5,2.9-2.2,4.9-2.2C969.9,998.5,971.5,999.3,972.8,1000.8z M963.3,1006.2c0,1.6,0.4,3,1.3,4
				s2,1.6,3.5,1.6c1.5,0,2.6-0.5,3.5-1.6s1.3-2.4,1.3-4c0-1.6-0.4-3-1.3-4c-0.9-1-2-1.6-3.5-1.6c-1.5,0-2.6,0.5-3.5,1.6
				C963.7,1003.2,963.3,1004.6,963.3,1006.2z"/>
			<path fill="#B8B9BA" d="M990.9,998.8l-5.6,14.7H983l-5.6-14.7h2.4l4.3,12l4.3-12H990.9z"/>
			<path fill="#B8B9BA" d="M992.2,1009.4c0-2.9,2.2-4.6,5.4-4.6c1.1,0,2.4,0.2,4,0.7v-1.5c0-2.2-1.5-3.4-3.6-3.4
				c-1.8,0-3.2,1.1-3.8,2.4l-1.5-1.4c1.2-2,3-3.1,5.4-3.1c3.6,0,5.8,2.1,5.8,5.8v9.3h-2.2v-1.5c-1.1,1.2-2.6,1.9-4.6,1.9
				C994.4,1013.9,992.2,1012.2,992.2,1009.4z M997.3,1011.9c1.8,0,3.5-1,4.4-2.3v-2c-1.4-0.5-2.7-0.7-3.9-0.7
				c-2.2,0-3.3,1.1-3.3,2.6C994.4,1010.9,995.6,1011.9,997.3,1011.9z"/>
			<path fill="#B8B9BA" d="M1010.1,998.8v1.8c1-1.3,2.8-2.2,4.7-2.2c3.7,0,5.8,2.3,5.8,6.5v8.5h-2.2v-8.7c0-2.7-1.4-4.3-3.8-4.3
				c-2.9,0-4.4,2.2-4.4,5.7v7.3h-2.2v-14.7H1010.1z"/>
			<path fill="#B8B9BA" d="M1036.9,1011.1c-1.6,1.9-3.5,2.8-5.9,2.8c-2.1,0-3.9-0.8-5.3-2.2c-1.4-1.5-2.1-3.3-2.1-5.5
				s0.7-3.9,2.2-5.4c1.5-1.5,3.2-2.3,5.3-2.3c2.2,0,4,0.9,5.5,2.6l-1.5,1.5c-1.1-1.3-2.4-2-4-2c-1.5,0-2.7,0.5-3.7,1.6
				c-1,1-1.5,2.4-1.5,4c0,3.3,2,5.6,5.3,5.6c1.7,0,3.1-0.7,4.2-2.2L1036.9,1011.1z"/>
			<path fill="#B8B9BA" d="M1051.8,1006.9h-10.9c0.2,3.1,2.1,4.9,4.9,4.9c1.7,0,3-0.7,4.2-2.2l1.5,1.4c-1.6,1.9-3.5,2.8-5.7,2.8
				c-2.2,0-4-0.7-5.3-2.1c-1.3-1.4-2-3.2-2-5.5c0-2.2,0.6-4.1,1.8-5.5c1.2-1.5,2.8-2.2,4.9-2.2c1.5,0,2.8,0.4,3.8,1.2
				c2.1,1.6,2.8,3.8,2.8,6.2L1051.8,1006.9z M1040.9,1004.9h8.6c-0.2-2.6-1.8-4.3-4.3-4.3
				C1042.8,1000.6,1041.3,1002.4,1040.9,1004.9z"/>
			<path fill="#B8B9BA" d="M1052.8,993.3l1.6-1.5c4.1,4,6.1,8.6,6.1,13.9c0,5.3-2,10-6.1,13.9l-1.6-1.5c3.7-3.8,5.4-7.7,5.4-12.5
				C1058.2,1000.9,1056.5,997,1052.8,993.3z"/>
		</g>
	</g>
</g>
</svg>
