<?xml version="1.0" encoding="utf-8"?>
<!-- Generator: Adobe Illustrator 19.1.0, SVG Export Plug-In . SVG Version: 6.00 Build 0)  -->
<svg version="1.1" baseProfile="tiny" id="Layer_1" xmlns="http://www.w3.org/2000/svg" xmlns:xlink="http://www.w3.org/1999/xlink"
	 x="0px" y="0px" width="1920px" height="1080px" viewBox="0 0 1920 1080" xml:space="preserve">
<g id="Layer_4">
	<rect x="11.9" fill="#FFFFFF" width="1920" height="1080"/>
</g>
<g id="Layer_6">
	<g>
		<g>
			<path fill="#B8B9BA" d="M180.4,144.2h40.4v5.6h-17.5v49.1h-5.9v-49.1h-17V144.2z"/>
			<path fill="#B8B9BA" d="M233.1,144.2v21.1c2.6-3.4,7.2-5.5,11.9-5.5c9.8,0,15.2,6.1,15.2,16.9v22.2h-5.9v-22.7
				c0-7.1-3.6-11.1-9.8-11.1c-7.5,0-11.5,5.7-11.5,14.8v19h-5.8v-54.7H233.1z"/>
			<path fill="#B8B9BA" d="M301.2,181.6h-28.5c0.5,8,5.4,12.8,12.9,12.8c4.3,0,7.9-1.9,10.9-5.6l4,3.7c-4.1,4.9-9,7.3-14.9,7.3
				c-5.7,0-10.3-1.8-13.7-5.5c-3.4-3.7-5.1-8.4-5.1-14.3c0-5.8,1.6-10.6,4.7-14.4c3.2-3.9,7.4-5.8,12.7-5.8c3.9,0,7.2,1,9.8,3
				c5.4,4.1,7.3,9.8,7.3,16.1L301.2,181.6z M273,176.4h22.5c-0.5-6.8-4.8-11.2-11.1-11.2C277.9,165.2,274,169.8,273,176.4z"/>
			<path fill="#B8B9BA" d="M319.2,181.7c-7.3-1.7-10.8-5.4-10.8-11c0-3.4,1.3-6.1,3.9-8c2.6-2,5.7-3,9.3-3c5.1,0,9.6,2,13.6,6.2
				l-3.9,4.1c-3.1-3.3-6.5-4.9-10.1-4.9c-4.1,0-7,2.2-7,5.4c0,2.9,1.9,4.8,5.7,5.6l6,1.4c7.3,1.7,10.8,5.3,10.8,10.8
				c0,6.8-5.6,11.5-14.3,11.5c-6.6,0-12.3-3.1-15.4-7.2l3.8-4c3.1,3.9,6.9,5.9,11.5,5.9c5.4,0,8.6-2.2,8.6-5.9c0-2.7-2-4.6-6-5.5
				L319.2,181.7z"/>
			<path fill="#B8B9BA" d="M364.9,188.1c0-7.6,5.7-12,14.1-12c2.8,0,6.3,0.6,10.5,1.9v-3.9c0-5.7-3.8-9-9.4-9c-4.7,0-8.4,2.8-10,6.3
				l-4-3.7c3-5.3,7.7-8,14-8c9.3,0,15.1,5.4,15.1,15v24.2h-5.6v-4c-2.9,3.2-6.8,4.8-11.9,4.8C370.6,199.8,364.9,195.4,364.9,188.1z
				 M378.1,194.6c4.7,0,9-2.7,11.4-6.1v-5.1c-3.7-1.2-7.1-1.9-10.1-1.9c-5.9,0-8.7,2.7-8.7,6.8C370.7,192.1,373.8,194.6,378.1,194.6
				z"/>
			<path fill="#B8B9BA" d="M425.6,165.8c-0.4-0.1-0.9-0.1-1.3-0.1c-9,0-12.7,4.5-12.7,16.9v16.3h-5.8v-38.2h5.6v5.1
				c3.4-4.1,6.9-5.6,12.5-5.6c0.5,0,1.2,0,1.7,0.1L425.6,165.8L425.6,165.8z"/>
			<path fill="#B8B9BA" d="M463.5,181.6H435c0.5,8,5.4,12.8,12.9,12.8c4.3,0,7.9-1.9,10.9-5.6l4,3.7c-4.1,4.9-9,7.3-14.9,7.3
				c-5.7,0-10.3-1.8-13.7-5.5c-3.4-3.7-5.1-8.4-5.1-14.3c0-5.8,1.6-10.6,4.7-14.4c3.2-3.9,7.4-5.8,12.7-5.8c3.9,0,7.2,1,9.8,3
				c5.4,4.1,7.3,9.8,7.3,16.1L463.5,181.6z M435.3,176.4h22.5c-0.5-6.8-4.8-11.2-11.1-11.2C440.2,165.2,436.3,169.8,435.3,176.4z"/>
			<path fill="#B8B9BA" d="M196.3,294H190l5.8-14.7L180,240.6h6.5l12.6,31.7l12.3-31.7h6.4L196.3,294z"/>
			<path fill="#B8B9BA" d="M225.2,274c-3.7-3.9-5.5-8.7-5.5-14.2s1.8-10.3,5.5-14.2s8.3-5.8,13.7-5.8c5.5,0,10.1,1.9,13.7,5.8
				c3.7,3.9,5.6,8.7,5.6,14.2s-1.9,10.3-5.5,14.2c-3.7,3.8-8.3,5.8-13.8,5.8C233.5,279.8,228.9,277.8,225.2,274z M248.6,270.3
				c2.5-2.8,3.7-6.3,3.7-10.5c0-4.1-1.2-7.6-3.7-10.4c-2.5-2.8-5.7-4.2-9.6-4.2c-3.8,0-7,1.4-9.5,4.2c-2.5,2.7-3.7,6.2-3.7,10.4
				c0,4.1,1.2,7.6,3.7,10.5c2.5,2.7,5.7,4.1,9.5,4.1C242.9,274.4,246.1,273,248.6,270.3z"/>
			<path fill="#B8B9BA" d="M291.9,278.9v-4.8c-3,3.8-7,5.7-12.1,5.7c-9.6,0-14.4-5.6-14.4-16.8v-22.2h5.8v22.5
				c0,7.3,3.2,11.2,9.4,11.2c7.4,0,11.1-5.4,11.1-14.7v-19h5.8V279h-5.6V278.9z"/>
			<path fill="#B8B9BA" d="M328.3,245.8c-0.4-0.1-0.9-0.1-1.3-0.1c-9,0-12.7,4.5-12.7,16.9v16.3h-5.8v-38.2h5.6v5.1
				c3.4-4.1,6.9-5.6,12.5-5.6c0.5,0,1.2,0,1.7,0.1L328.3,245.8L328.3,245.8z"/>
			<path fill="#B8B9BA" d="M352.1,224.2H395v10.7h-15.7v44h-11.5v-44h-15.7L352.1,224.2L352.1,224.2z"/>
			<path fill="#B8B9BA" d="M394.4,259.8c0-5.7,2-10.5,5.8-14.3c3.9-3.8,8.7-5.8,14.4-5.8c5.7,0,10.5,1.9,14.4,5.8
				c3.9,3.8,5.9,8.6,5.9,14.3c0,5.7-2,10.5-5.8,14.3s-8.7,5.7-14.4,5.7c-5.8,0-10.6-1.9-14.4-5.7
				C396.4,270.3,394.4,265.5,394.4,259.8z M405.7,259.8c0,2.8,0.9,5.1,2.5,6.9s3.8,2.7,6.4,2.7s4.8-0.9,6.4-2.7s2.5-4.1,2.5-6.9
				s-0.9-5.1-2.5-6.9c-1.6-1.8-3.8-2.7-6.4-2.7s-4.8,0.9-6.4,2.7S405.7,257,405.7,259.8z"/>
			<path fill="#B8B9BA" d="M441.5,259.8c0-5.7,2-10.5,5.8-14.3c3.9-3.8,8.7-5.8,14.4-5.8c5.7,0,10.5,1.9,14.4,5.8
				c3.9,3.8,5.9,8.6,5.9,14.3c0,5.7-2,10.5-5.8,14.3s-8.7,5.7-14.4,5.7c-5.8,0-10.6-1.9-14.4-5.7
				C443.5,270.3,441.5,265.5,441.5,259.8z M452.8,259.8c0,2.8,0.9,5.1,2.5,6.9s3.8,2.7,6.4,2.7s4.8-0.9,6.4-2.7s2.5-4.1,2.5-6.9
				s-0.9-5.1-2.5-6.9c-1.6-1.8-3.8-2.7-6.4-2.7s-4.8,0.9-6.4,2.7C453.7,254.7,452.8,257,452.8,259.8z"/>
			<path fill="#B8B9BA" d="M490.4,278.9v-54.7h11.1v54.7H490.4z"/>
			<path fill="#B8B9BA" d="M523.3,264.3c-8.3-2.1-12.5-6.2-12.5-12.5c0-3.7,1.4-6.6,4.3-8.7c2.9-2.3,6.4-3.4,10.5-3.4
				c5.8,0,10.9,2,15.4,6l-6.8,7.2c-3-2.5-6-3.7-9-3.7c-2.2,0-3.6,1-3.6,2.3c0,0.9,0.9,1.6,2.7,2l5.7,1.3c8.3,2,12.6,6.2,12.6,12.6
				c0,7.3-6.2,12.3-16,12.3c-7.1,0-13.6-3.4-16.8-7.4l6.8-6.9c3.4,3.4,7.1,5.1,10.9,5.1c2.3,0,4.3-1,4.3-2.5c0-1-1.2-1.9-3.4-2.4
				L523.3,264.3z"/>
		</g>
		<g>
			<path fill="#B8B9BA" d="M180.4,144.2h40.4v5.6h-17.5v49.1h-5.9v-49.1h-17V144.2z"/>
			<path fill="#B8B9BA" d="M233.1,144.2v21.1c2.6-3.4,7.2-5.5,11.9-5.5c9.8,0,15.2,6.1,15.2,16.9v22.2h-5.9v-22.7
				c0-7.1-3.6-11.1-9.8-11.1c-7.5,0-11.5,5.7-11.5,14.8v19h-5.8v-54.7H233.1z"/>
			<path fill="#B8B9BA" d="M301.2,181.6h-28.5c0.5,8,5.4,12.8,12.9,12.8c4.3,0,7.9-1.9,10.9-5.6l4,3.7c-4.1,4.9-9,7.3-14.9,7.3
				c-5.7,0-10.3-1.8-13.7-5.5c-3.4-3.7-5.1-8.4-5.1-14.3c0-5.8,1.6-10.6,4.7-14.4c3.2-3.9,7.4-5.8,12.7-5.8c3.9,0,7.2,1,9.8,3
				c5.4,4.1,7.3,9.8,7.3,16.1L301.2,181.6z M273,176.4h22.5c-0.5-6.8-4.8-11.2-11.1-11.2C277.9,165.2,274,169.8,273,176.4z"/>
			<path fill="#B8B9BA" d="M319.2,181.7c-7.3-1.7-10.8-5.4-10.8-11c0-3.4,1.3-6.1,3.9-8c2.6-2,5.7-3,9.3-3c5.1,0,9.6,2,13.6,6.2
				l-3.9,4.1c-3.1-3.3-6.5-4.9-10.1-4.9c-4.1,0-7,2.2-7,5.4c0,2.9,1.9,4.8,5.7,5.6l6,1.4c7.3,1.7,10.8,5.3,10.8,10.8
				c0,6.8-5.6,11.5-14.3,11.5c-6.6,0-12.3-3.1-15.4-7.2l3.8-4c3.1,3.9,6.9,5.9,11.5,5.9c5.4,0,8.6-2.2,8.6-5.9c0-2.7-2-4.6-6-5.5
				L319.2,181.7z"/>
			<path fill="#B8B9BA" d="M364.9,188.1c0-7.6,5.7-12,14.1-12c2.8,0,6.3,0.6,10.5,1.9v-3.9c0-5.7-3.8-9-9.4-9c-4.7,0-8.4,2.8-10,6.3
				l-4-3.7c3-5.3,7.7-8,14-8c9.3,0,15.1,5.4,15.1,15v24.2h-5.6v-4c-2.9,3.2-6.8,4.8-11.9,4.8C370.6,199.8,364.9,195.4,364.9,188.1z
				 M378.1,194.6c4.7,0,9-2.7,11.4-6.1v-5.1c-3.7-1.2-7.1-1.9-10.1-1.9c-5.9,0-8.7,2.7-8.7,6.8C370.7,192.1,373.8,194.6,378.1,194.6
				z"/>
			<path fill="#B8B9BA" d="M425.6,165.8c-0.4-0.1-0.9-0.1-1.3-0.1c-9,0-12.7,4.5-12.7,16.9v16.3h-5.8v-38.2h5.6v5.1
				c3.4-4.1,6.9-5.6,12.5-5.6c0.5,0,1.2,0,1.7,0.1L425.6,165.8L425.6,165.8z"/>
			<path fill="#B8B9BA" d="M463.5,181.6H435c0.5,8,5.4,12.8,12.9,12.8c4.3,0,7.9-1.9,10.9-5.6l4,3.7c-4.1,4.9-9,7.3-14.9,7.3
				c-5.7,0-10.3-1.8-13.7-5.5c-3.4-3.7-5.1-8.4-5.1-14.3c0-5.8,1.6-10.6,4.7-14.4c3.2-3.9,7.4-5.8,12.7-5.8c3.9,0,7.2,1,9.8,3
				c5.4,4.1,7.3,9.8,7.3,16.1L463.5,181.6z M435.3,176.4h22.5c-0.5-6.8-4.8-11.2-11.1-11.2C440.2,165.2,436.3,169.8,435.3,176.4z"/>
			<path fill="#B8B9BA" d="M196.3,294H190l5.8-14.7L180,240.6h6.5l12.6,31.7l12.3-31.7h6.4L196.3,294z"/>
			<path fill="#B8B9BA" d="M225.2,274c-3.7-3.9-5.5-8.7-5.5-14.2s1.8-10.3,5.5-14.2s8.3-5.8,13.7-5.8c5.5,0,10.1,1.9,13.7,5.8
				c3.7,3.9,5.6,8.7,5.6,14.2s-1.9,10.3-5.5,14.2c-3.7,3.8-8.3,5.8-13.8,5.8C233.5,279.8,228.9,277.8,225.2,274z M248.6,270.3
				c2.5-2.8,3.7-6.3,3.7-10.5c0-4.1-1.2-7.6-3.7-10.4c-2.5-2.8-5.7-4.2-9.6-4.2c-3.8,0-7,1.4-9.5,4.2c-2.5,2.7-3.7,6.2-3.7,10.4
				c0,4.1,1.2,7.6,3.7,10.5c2.5,2.7,5.7,4.1,9.5,4.1C242.9,274.4,246.1,273,248.6,270.3z"/>
			<path fill="#B8B9BA" d="M291.9,278.9v-4.8c-3,3.8-7,5.7-12.1,5.7c-9.6,0-14.4-5.6-14.4-16.8v-22.2h5.8v22.5
				c0,7.3,3.2,11.2,9.4,11.2c7.4,0,11.1-5.4,11.1-14.7v-19h5.8V279h-5.6V278.9z"/>
			<path fill="#B8B9BA" d="M328.3,245.8c-0.4-0.1-0.9-0.1-1.3-0.1c-9,0-12.7,4.5-12.7,16.9v16.3h-5.8v-38.2h5.6v5.1
				c3.4-4.1,6.9-5.6,12.5-5.6c0.5,0,1.2,0,1.7,0.1L328.3,245.8L328.3,245.8z"/>
			<path fill="#64ABCC" d="M352.1,224.2H395v10.7h-15.7v44h-11.5v-44h-15.7L352.1,224.2L352.1,224.2z"/>
			<path fill="#64ABCC" d="M394.4,259.8c0-5.7,2-10.5,5.8-14.3c3.9-3.8,8.7-5.8,14.4-5.8c5.7,0,10.5,1.9,14.4,5.8
				c3.9,3.8,5.9,8.6,5.9,14.3c0,5.7-2,10.5-5.8,14.3s-8.7,5.7-14.4,5.7c-5.8,0-10.6-1.9-14.4-5.7
				C396.4,270.3,394.4,265.5,394.4,259.8z M405.7,259.8c0,2.8,0.9,5.1,2.5,6.9s3.8,2.7,6.4,2.7s4.8-0.9,6.4-2.7s2.5-4.1,2.5-6.9
				s-0.9-5.1-2.5-6.9c-1.6-1.8-3.8-2.7-6.4-2.7s-4.8,0.9-6.4,2.7S405.7,257,405.7,259.8z"/>
			<path fill="#64ABCC" d="M441.5,259.8c0-5.7,2-10.5,5.8-14.3c3.9-3.8,8.7-5.8,14.4-5.8c5.7,0,10.5,1.9,14.4,5.8
				c3.9,3.8,5.9,8.6,5.9,14.3c0,5.7-2,10.5-5.8,14.3s-8.7,5.7-14.4,5.7c-5.8,0-10.6-1.9-14.4-5.7
				C443.5,270.3,441.5,265.5,441.5,259.8z M452.8,259.8c0,2.8,0.9,5.1,2.5,6.9s3.8,2.7,6.4,2.7s4.8-0.9,6.4-2.7s2.5-4.1,2.5-6.9
				s-0.9-5.1-2.5-6.9c-1.6-1.8-3.8-2.7-6.4-2.7s-4.8,0.9-6.4,2.7C453.7,254.7,452.8,257,452.8,259.8z"/>
			<path fill="#64ABCC" d="M490.4,278.9v-54.7h11.1v54.7H490.4z"/>
			<path fill="#64ABCC" d="M523.3,264.3c-8.3-2.1-12.5-6.2-12.5-12.5c0-3.7,1.4-6.6,4.3-8.7c2.9-2.3,6.4-3.4,10.5-3.4
				c5.8,0,10.9,2,15.4,6l-6.8,7.2c-3-2.5-6-3.7-9-3.7c-2.2,0-3.6,1-3.6,2.3c0,0.9,0.9,1.6,2.7,2l5.7,1.3c8.3,2,12.6,6.2,12.6,12.6
				c0,7.3-6.2,12.3-16,12.3c-7.1,0-13.6-3.4-16.8-7.4l6.8-6.9c3.4,3.4,7.1,5.1,10.9,5.1c2.3,0,4.3-1,4.3-2.5c0-1-1.2-1.9-3.4-2.4
				L523.3,264.3z"/>
		</g>
	</g>
	<g>
		<g>
			<path fill="#B8B9BA" d="M740.1,428.6h6v33.2c0,6.6-1.9,11.9-5.5,16.1c-3.7,4.1-8.7,6.2-15.2,6.2s-11.5-2.1-15.2-6.2
				s-5.5-9.5-5.5-16.1v-33.2h6v33.3c0,4.8,1.2,8.8,3.8,12c2.6,3.1,6.2,4.7,10.9,4.7s8.3-1.6,10.8-4.8s3.9-7.2,3.9-12V428.6z"/>
			<path fill="#B8B9BA" d="M764,466.1c-7.3-1.7-10.8-5.4-10.8-11c0-3.4,1.3-6.1,3.9-8c2.6-2,5.7-3,9.3-3c5.1,0,9.6,2,13.6,6.2
				l-3.9,4.1c-3.1-3.3-6.5-4.9-10.1-4.9c-4.1,0-7,2.2-7,5.4c0,2.9,1.9,4.8,5.7,5.6l6,1.4c7.3,1.7,10.8,5.3,10.8,10.8
				c0,6.8-5.6,11.5-14.3,11.5c-6.6,0-12.3-3.1-15.4-7.2l3.8-4c3.1,3.9,6.9,5.9,11.5,5.9c5.4,0,8.6-2.2,8.6-5.9c0-2.7-2-4.6-6-5.5
				L764,466.1z"/>
			<path fill="#B8B9BA" d="M822,465.9h-28.5c0.5,8,5.4,12.8,12.9,12.8c4.3,0,7.9-1.9,10.9-5.6l4,3.7c-4.1,4.9-9,7.3-14.9,7.3
				c-5.7,0-10.3-1.8-13.7-5.5s-5.1-8.4-5.1-14.3c0-5.8,1.6-10.6,4.7-14.4c3.2-3.9,7.4-5.8,12.7-5.8c3.9,0,7.2,1,9.8,3
				c5.4,4.1,7.3,9.8,7.3,16.1L822,465.9z M793.7,460.8h22.5c-0.5-6.8-4.8-11.2-11.1-11.2C798.6,449.5,794.7,454.1,793.7,460.8z"/>
			<path fill="#B8B9BA" d="M853.9,472v-21.7h-6.2V445h6.2v-10.7h5.8V445h8.9v5.3h-8.9v20.8c0,5,1.2,6.9,5.9,6.9l3-0.1v5.2
				c-1,0.1-2.3,0.2-3.6,0.2C857.4,483.4,853.9,480.2,853.9,472z"/>
			<path fill="#B8B9BA" d="M882.2,428.6v21.1c2.6-3.4,7.2-5.5,11.9-5.5c9.8,0,15.2,6.1,15.2,16.9v22.2h-5.9v-22.7
				c0-7.1-3.6-11.1-9.8-11.1c-7.5,0-11.5,5.7-11.5,14.8v19h-5.8v-54.7L882.2,428.6L882.2,428.6z"/>
			<path fill="#B8B9BA" d="M950.3,465.9h-28.5c0.5,8,5.4,12.8,12.9,12.8c4.3,0,7.9-1.9,10.9-5.6l4,3.7c-4.1,4.9-9,7.3-14.9,7.3
				c-5.7,0-10.3-1.8-13.7-5.5s-5.1-8.4-5.1-14.3c0-5.8,1.6-10.6,4.7-14.4c3.2-3.9,7.4-5.8,12.7-5.8c3.9,0,7.2,1,9.8,3
				c5.4,4.1,7.3,9.8,7.3,16.1L950.3,465.9z M922,460.8h22.5c-0.5-6.8-4.8-11.2-11.1-11.2C926.9,449.5,923,454.1,922,460.8z"/>
			<path fill="#B8B9BA" d="M964.3,445v4.6c2.2-3.1,6.4-5.5,11-5.5c5.2,0,9,2.1,11.4,6.3c2.9-4.2,6.9-6.3,11.9-6.3
				c9.8,0,14.7,5.6,14.7,16.9v22.2h-5.8v-22.7c0-7.4-3-11.1-8.9-11.1c-6.3,0-9.8,4.6-9.8,12.7v21.1H983v-22.3
				c0-7.6-2.9-11.5-8.6-11.5c-6.6,0-10.1,4.6-10.1,12.7v21.1h-5.8V445H964.3z"/>
			<path fill="#B8B9BA" d="M1046.5,472v-21.7h-6.2V445h6.2v-10.7h5.8V445h8.9v5.3h-8.9v20.8c0,5,1.2,6.9,5.9,6.9l3-0.1v5.2
				c-1,0.1-2.3,0.2-3.6,0.2C1050.1,483.4,1046.5,480.2,1046.5,472z"/>
			<path fill="#B8B9BA" d="M1072.3,478.3c-3.7-3.9-5.5-8.7-5.5-14.2s1.8-10.3,5.5-14.2s8.3-5.8,13.7-5.8c5.5,0,10.1,1.9,13.7,5.8
				c3.7,3.9,5.6,8.7,5.6,14.2s-1.9,10.3-5.5,14.2c-3.7,3.8-8.3,5.8-13.8,5.8C1080.5,484.1,1075.9,482.1,1072.3,478.3z M1095.6,474.6
				c2.5-2.8,3.7-6.3,3.7-10.5c0-4.1-1.2-7.6-3.7-10.4s-5.7-4.2-9.6-4.2c-3.8,0-7,1.4-9.5,4.2c-2.5,2.7-3.7,6.2-3.7,10.4
				c0,4.1,1.2,7.6,3.7,10.5c2.5,2.7,5.7,4.1,9.5,4.1C1089.9,478.7,1093.1,477.3,1095.6,474.6z"/>
			<path fill="#B8B9BA" d="M1133.6,472.5c0-7.6,5.7-12,14.1-12c2.8,0,6.3,0.6,10.5,1.9v-3.9c0-5.7-3.8-9-9.4-9
				c-4.7,0-8.4,2.8-10,6.3l-4-3.7c3-5.3,7.7-8,14-8c9.3,0,15.1,5.4,15.1,15v24.2h-5.6v-4c-2.9,3.2-6.8,4.8-11.9,4.8
				C1139.2,484.1,1133.6,479.7,1133.6,472.5z M1146.7,479c4.7,0,9-2.7,11.4-6.1v-5.1c-3.7-1.2-7.1-1.9-10.1-1.9
				c-5.9,0-8.7,2.7-8.7,6.8C1139.3,476.5,1142.4,479,1146.7,479z"/>
			<path fill="#B8B9BA" d="M1202.4,450.1v-21.5h5.8v54.7h-5.5V478c-3.5,4.1-7.9,6.1-13.1,6.1s-9.4-1.9-12.8-5.8
				c-3.4-3.8-5-8.6-5-14.2s1.6-10.4,5-14.2c3.4-3.9,7.6-5.8,12.8-5.8C1194.7,444.1,1199,446.1,1202.4,450.1z M1177.7,464.1
				c0,4.2,1.1,7.7,3.4,10.5c2.3,2.7,5.2,4.1,9,4.1s6.9-1.4,9.1-4.1c2.3-2.7,3.4-6.2,3.4-10.5c0-4.2-1.2-7.7-3.4-10.5
				c-2.3-2.7-5.3-4.1-9.1-4.1s-6.8,1.4-9,4.1C1178.8,456.4,1177.7,459.9,1177.7,464.1z"/>
			<path fill="#B8B9BA" d="M1247.2,450.1v-21.5h5.8v54.7h-5.5V478c-3.5,4.1-7.9,6.1-13.1,6.1s-9.4-1.9-12.8-5.8s-5-8.6-5-14.2
				s1.6-10.4,5-14.2c3.4-3.9,7.6-5.8,12.8-5.8C1239.5,444.1,1243.8,446.1,1247.2,450.1z M1222.5,464.1c0,4.2,1.1,7.7,3.4,10.5
				c2.3,2.7,5.2,4.1,9,4.1s6.9-1.4,9.1-4.1c2.3-2.7,3.4-6.2,3.4-10.5c0-4.2-1.2-7.7-3.4-10.5c-2.3-2.7-5.3-4.1-9.1-4.1
				s-6.8,1.4-9,4.1C1223.6,456.4,1222.5,459.9,1222.5,464.1z"/>
			<path fill="#B8B9BA" d="M1283,472.5c0-7.6,5.7-12,14.1-12c2.8,0,6.3,0.6,10.5,1.9v-3.9c0-5.7-3.8-9-9.4-9c-4.7,0-8.4,2.8-10,6.3
				l-4-3.7c3-5.3,7.7-8,14-8c9.3,0,15.1,5.4,15.1,15v24.2h-5.6v-4c-2.9,3.2-6.8,4.8-11.9,4.8C1288.6,484.1,1283,479.7,1283,472.5z
				 M1296.2,479c4.7,0,9-2.7,11.4-6.1v-5.1c-3.7-1.2-7.1-1.9-10.1-1.9c-5.9,0-8.7,2.7-8.7,6.8C1288.8,476.5,1291.8,479,1296.2,479z"
				/>
			<path fill="#B8B9BA" d="M1329.5,445v4.7c2.6-3.4,7.3-5.6,12.1-5.6c9.8,0,15.2,6.1,15.2,16.9v22.2h-5.9v-22.7
				c0-7.1-3.6-11.1-9.8-11.1c-7.5,0-11.5,5.7-11.5,14.8v19h-5.8V445H1329.5z"/>
			<path fill="#B8B9BA" d="M1395.3,450.1v-21.5h5.8v54.7h-5.5V478c-3.5,4.1-7.9,6.1-13.1,6.1s-9.4-1.9-12.8-5.8s-5-8.6-5-14.2
				s1.6-10.4,5-14.2c3.4-3.9,7.6-5.8,12.8-5.8C1387.6,444.1,1391.9,446.1,1395.3,450.1z M1370.6,464.1c0,4.2,1.1,7.7,3.4,10.5
				c2.3,2.7,5.2,4.1,9,4.1s6.9-1.4,9.1-4.1c2.3-2.7,3.4-6.2,3.4-10.5c0-4.2-1.2-7.7-3.4-10.5c-2.3-2.7-5.3-4.1-9.1-4.1
				s-6.8,1.4-9,4.1C1371.7,456.4,1370.6,459.9,1370.6,464.1z"/>
			<path fill="#B8B9BA" d="M1465.5,465.9H1437c0.5,8,5.4,12.8,12.9,12.8c4.3,0,7.9-1.9,10.9-5.6l4,3.7c-4.1,4.9-9,7.3-14.9,7.3
				c-5.7,0-10.3-1.8-13.7-5.5c-3.4-3.7-5.1-8.4-5.1-14.3c0-5.8,1.6-10.6,4.7-14.4c3.2-3.9,7.4-5.8,12.7-5.8c3.9,0,7.2,1,9.8,3
				c5.4,4.1,7.3,9.8,7.3,16.1L1465.5,465.9z M1437.3,460.8h22.5c-0.5-6.8-4.8-11.2-11.1-11.2
				C1442.2,449.5,1438.3,454.1,1437.3,460.8z"/>
			<path fill="#B8B9BA" d="M1503.3,450.1v-21.5h5.8v54.7h-5.5V478c-3.5,4.1-7.9,6.1-13.1,6.1s-9.4-1.9-12.8-5.8
				c-3.4-3.8-5-8.6-5-14.2s1.6-10.4,5-14.2c3.4-3.9,7.6-5.8,12.8-5.8C1495.6,444.1,1499.8,446.1,1503.3,450.1z M1478.5,464.1
				c0,4.2,1.1,7.7,3.4,10.5c2.3,2.7,5.2,4.1,9,4.1s6.9-1.4,9.1-4.1c2.3-2.7,3.4-6.2,3.4-10.5c0-4.2-1.2-7.7-3.4-10.5
				c-2.3-2.7-5.3-4.1-9.1-4.1s-6.8,1.4-9,4.1C1479.6,456.4,1478.5,459.9,1478.5,464.1z"/>
			<path fill="#B8B9BA" d="M1520.4,429c1.8-1.6,4.5-1.6,6.2,0c1.8,1.6,1.8,4.4,0,6.2c-1.6,1.6-4.4,1.6-6.2,0
				C1518.7,433.3,1518.7,430.6,1520.4,429z M1520.6,483.2V445h5.8v38.2H1520.6z"/>
			<path fill="#B8B9BA" d="M1538.9,472v-21.7h-6.2V445h6.2v-10.7h5.8V445h8.9v5.3h-8.9v20.8c0,5,1.2,6.9,5.9,6.9l3-0.1v5.2
				c-1,0.1-2.3,0.2-3.6,0.2C1542.5,483.4,1538.9,480.2,1538.9,472z"/>
			<path fill="#B8B9BA" d="M715.2,563.2h-11.1V525H715v2.7c2.5-2.4,5.5-3.6,9.2-3.6c4.4,0,8,1.6,10.6,4.6c3-3,6.9-4.6,11.5-4.6
				c10.2,0,16,6.1,16,16.9v22.2h-11.1v-21.8c0-4.3-2-7.1-5.9-7.1c-4.1,0-6.6,3.2-6.6,8.5v20.4h-11.1v-21.8c0-4.3-2-7.1-5.9-7.1
				c-4.4,0-6.6,3.4-6.6,9.3L715.2,563.2L715.2,563.2z"/>
			<path fill="#B8B9BA" d="M769.8,552c0-4,1.5-7,4.4-9.1s6.5-3.2,10.8-3.2c2.6,0,5.1,0.4,7.6,1.1v-0.6c0-3.7-2.4-6.2-6.4-6.2
				c-3.5,0-6.2,1.5-8.2,4.4l-7-6.7c4.2-5.1,9.5-7.6,16-7.6c4.8,0,8.8,1.4,12,4.1s4.8,6.4,4.8,11.2v23.9h-11v-2.5
				c-2.6,2.3-5.8,3.4-9.7,3.4C775,564.1,769.8,559.1,769.8,552z M785.8,554.7c2.5,0,4.8-0.8,6.9-2.3V548c-1.9-0.5-3.7-0.7-5.1-0.7
				c-4.1,0-6.5,1.6-6.5,4C781,553.3,783,554.7,785.8,554.7z"/>
			<path fill="#B8B9BA" d="M825.1,548.7c-8.3-2.1-12.5-6.2-12.5-12.5c0-3.7,1.4-6.6,4.3-8.7c2.9-2.3,6.4-3.4,10.5-3.4
				c5.8,0,10.9,2,15.4,6l-6.8,7.2c-3-2.5-6-3.7-9-3.7c-2.2,0-3.6,1-3.6,2.3c0,0.9,0.9,1.6,2.7,2l5.7,1.3c8.3,2,12.6,6.2,12.6,12.6
				c0,7.3-6.2,12.3-16,12.3c-7.1,0-13.6-3.4-16.8-7.4l6.8-6.9c3.4,3.4,7.1,5.1,10.9,5.1c2.3,0,4.3-1,4.3-2.5c0-1-1.2-1.9-3.4-2.4
				L825.1,548.7z"/>
			<path fill="#B8B9BA" d="M852.8,563.2v-54.7h11.1V537l10.6-12.1h14l-14.1,15.8l14.7,22.5h-13.5l-9.1-14.5l-2.6,2.8v11.7H852.8z"/>
			<path fill="#B8B9BA" d="M929.8,548.7c-8.3-2.1-12.5-6.2-12.5-12.5c0-3.7,1.4-6.6,4.3-8.7c2.9-2.3,6.4-3.4,10.5-3.4
				c5.8,0,10.9,2,15.4,6l-6.8,7.2c-3-2.5-6-3.7-9-3.7c-2.2,0-3.6,1-3.6,2.3c0,0.9,0.9,1.6,2.7,2l5.7,1.3c8.3,2,12.6,6.2,12.6,12.6
				c0,7.3-6.2,12.3-16,12.3c-7.1,0-13.6-3.4-16.8-7.4l6.8-6.9c3.4,3.4,7.1,5.1,10.9,5.1c2.3,0,4.3-1,4.3-2.5c0-1-1.2-1.9-3.4-2.4
				L929.8,548.7z"/>
			<path fill="#B8B9BA" d="M968.5,563.2h-11.1v-54.7h11.1v18.6c2.3-2.1,5.2-3.1,8.9-3.1c9.4,0,15.6,6.2,15.6,16.9v22.2h-11.2v-21.4
				c0-4.4-2-7.5-6.3-7.5c-4.7,0-7,3.3-7,9.8V563.2z"/>
			<path fill="#B8B9BA" d="M1000.4,552c0-4,1.5-7,4.4-9.1s6.5-3.2,10.8-3.2c2.6,0,5.1,0.4,7.6,1.1v-0.6c0-3.7-2.4-6.2-6.4-6.2
				c-3.5,0-6.2,1.5-8.2,4.4l-7-6.7c4.2-5.1,9.5-7.6,16-7.6c4.8,0,8.8,1.4,12,4.1s4.8,6.4,4.8,11.2v23.9h-11v-2.5
				c-2.6,2.3-5.8,3.4-9.7,3.4C1005.6,564.1,1000.4,559.1,1000.4,552z M1016.3,554.7c2.5,0,4.8-0.8,6.9-2.3V548
				c-2-0.5-3.7-0.7-5.1-0.7c-4.1,0-6.5,1.6-6.5,4C1011.6,553.3,1013.5,554.7,1016.3,554.7z"/>
			<path fill="#B8B9BA" d="M1079.8,558.6c-3.7,3.7-8.2,5.5-13.6,5.5c-4.1,0-7.3-1.1-9.8-3.3v17.6h-11.1V525h10.9v2.7
				c2.6-2.4,5.9-3.7,10-3.7c5.4,0,9.9,1.9,13.6,5.5c3.7,3.7,5.5,8.5,5.5,14.5C1085.4,550.1,1083.5,554.9,1079.8,558.6z
				 M1056.3,544.1c0,2.9,0.9,5.3,2.5,7.2c1.7,1.9,3.8,2.8,6.4,2.8s4.7-0.9,6.3-2.8c1.7-1.9,2.6-4.3,2.6-7.2s-0.9-5.3-2.6-7.2
				c-1.6-1.9-3.7-2.8-6.3-2.8s-4.7,0.9-6.4,2.8C1057.1,538.8,1056.3,541.2,1056.3,544.1z"/>
			<path fill="#B8B9BA" d="M1129.1,546.9h-25.9c0.6,4.1,3.8,7,8.6,7c3.9,0,7-1.5,9.4-4.4l7.3,6.9c-4.1,5.1-9.6,7.7-16.4,7.7
				c-5.9,0-10.6-1.8-14.4-5.4c-3.8-3.7-5.7-8.4-5.7-14.4c0-5.9,1.7-10.7,5.2-14.5s8-5.8,13.6-5.8c5.9,0,10.4,1.9,13.6,5.8
				c3.2,3.9,4.8,8.5,4.8,13.7L1129.1,546.9z M1103.8,539.5h13.7c-0.2-3.2-2.8-5.7-6.5-5.7C1107,533.8,1104.5,536.2,1103.8,539.5z"/>
			<path fill="#B8B9BA" d="M1148.8,548.7c-8.3-2.1-12.5-6.2-12.5-12.5c0-3.7,1.4-6.6,4.3-8.7c2.9-2.3,6.4-3.4,10.5-3.4
				c5.8,0,10.9,2,15.4,6l-6.8,7.2c-3-2.5-6-3.7-9-3.7c-2.2,0-3.6,1-3.6,2.3c0,0.9,0.9,1.6,2.7,2l5.7,1.3c8.3,2,12.6,6.2,12.6,12.6
				c0,7.3-6.2,12.3-16,12.3c-7.1,0-13.6-3.4-16.8-7.4l6.8-6.9c3.4,3.4,7.1,5.1,10.9,5.1c2.3,0,4.3-1,4.3-2.5c0-1-1.2-1.9-3.4-2.4
				L1148.8,548.7z"/>
			<path fill="#B8B9BA" d="M1198.5,552.5c0-7.6,5.7-12,14.1-12c2.8,0,6.3,0.6,10.5,1.9v-3.9c0-5.7-3.8-9-9.4-9
				c-4.7,0-8.4,2.8-10,6.3l-4-3.7c3-5.3,7.7-8,14-8c9.3,0,15.1,5.4,15.1,15v24.2h-5.6v-4c-2.9,3.2-6.8,4.8-11.9,4.8
				C1204.1,564.1,1198.5,559.7,1198.5,552.5z M1211.7,559c4.7,0,9-2.7,11.4-6.1v-5.1c-3.7-1.2-7.1-1.9-10.1-1.9
				c-5.9,0-8.7,2.7-8.7,6.8C1204.3,556.5,1207.3,559,1211.7,559z"/>
			<path fill="#B8B9BA" d="M1245,525v4.7c2.6-3.4,7.3-5.6,12.1-5.6c9.8,0,15.2,6.1,15.2,16.9v22.2h-5.9v-22.7
				c0-7.1-3.6-11.1-9.8-11.1c-7.5,0-11.5,5.7-11.5,14.8v19h-5.8V525H1245z"/>
			<path fill="#B8B9BA" d="M1310.8,530.1v-21.5h5.8v54.7h-5.5V558c-3.5,4.1-7.9,6.1-13.1,6.1s-9.4-1.9-12.8-5.8
				c-3.4-3.8-5-8.6-5-14.2s1.6-10.4,5-14.2c3.4-3.9,7.6-5.8,12.8-5.8C1303.1,524.1,1307.4,526.1,1310.8,530.1z M1286.1,544.1
				c0,4.2,1.1,7.7,3.4,10.5c2.3,2.7,5.2,4.1,9,4.1s6.9-1.4,9.1-4.1c2.3-2.7,3.4-6.2,3.4-10.5c0-4.2-1.2-7.7-3.4-10.5
				c-2.3-2.7-5.3-4.1-9.1-4.1s-6.8,1.4-9,4.1C1287.2,536.4,1286.1,539.9,1286.1,544.1z"/>
			<path fill="#B8B9BA" d="M1350.2,552v-21.7h-6.2V525h6.2v-10.7h5.8V525h8.9v5.3h-8.9v20.8c0,5,1.2,6.9,5.9,6.9l3-0.1v5.2
				c-1,0.1-2.3,0.2-3.6,0.2C1353.8,563.4,1350.2,560.2,1350.2,552z"/>
			<path fill="#B8B9BA" d="M1376,558.3c-3.7-3.9-5.5-8.7-5.5-14.2s1.8-10.3,5.5-14.2s8.3-5.8,13.7-5.8c5.5,0,10.1,1.9,13.7,5.8
				c3.7,3.9,5.6,8.7,5.6,14.2s-1.9,10.3-5.5,14.2c-3.7,3.8-8.3,5.8-13.8,5.8C1384.2,564.1,1379.6,562.1,1376,558.3z M1399.3,554.6
				c2.5-2.8,3.7-6.3,3.7-10.5c0-4.1-1.2-7.6-3.7-10.4c-2.5-2.8-5.7-4.2-9.6-4.2c-3.8,0-7,1.4-9.5,4.2c-2.5,2.7-3.7,6.2-3.7,10.4
				c0,4.1,1.2,7.6,3.7,10.5c2.5,2.7,5.7,4.1,9.5,4.1C1393.6,558.7,1396.8,557.3,1399.3,554.6z"/>
			<path fill="#B8B9BA" d="M715.4,628.7c-8.3-2.1-12.5-6.2-12.5-12.5c0-3.7,1.4-6.6,4.3-8.7c2.9-2.3,6.4-3.4,10.5-3.4
				c5.8,0,10.9,2,15.4,6l-6.8,7.2c-3-2.5-6-3.7-9-3.7c-2.2,0-3.6,1-3.6,2.3c0,0.9,0.9,1.6,2.7,2l5.7,1.3c8.3,2,12.6,6.2,12.6,12.6
				c0,7.3-6.2,12.3-16,12.3c-7.1,0-13.6-3.4-16.8-7.4l6.8-6.9c3.4,3.4,7.1,5.1,10.9,5.1c2.3,0,4.3-1,4.3-2.5c0-1-1.2-1.9-3.4-2.4
				L715.4,628.7z"/>
			<path fill="#B8B9BA" d="M774,605l6.3,22.9l5.4-22.9h11.9l-10.8,38.2h-12.1l-6.9-23.6l-6.9,23.6h-12.1L738.1,605H750l5.5,22.9
				l6.2-22.9H774z"/>
			<path fill="#B8B9BA" d="M810,587.7c3.7,0,6.5,2.8,6.5,6.5c0,3.5-3,6.4-6.5,6.4s-6.4-2.9-6.4-6.4
				C803.6,590.5,806.5,587.7,810,587.7z M804.5,643.2V605h11.2v38.2H804.5z"/>
			<path fill="#B8B9BA" d="M828,629.7v-14.5h-5V605h5v-10.7h11V605h8.5v10.2H839v13.2c0,3.7,1.6,4.7,5.1,4.7h3.3v10.1
				c-2,0.1-4,0.2-6,0.2C832.5,643.4,828,638.9,828,629.7z"/>
			<path fill="#B8B9BA" d="M891,636c-4.1,5.4-9.7,8.1-16.8,8.1c-5.8,0-10.6-1.9-14.4-5.7s-5.8-8.6-5.8-14.3s2-10.5,5.8-14.3
				c3.9-3.8,8.7-5.8,14.4-5.8c6.1,0,11.4,2.6,16,7.6l-7.5,7.3c-2.4-3-5.1-4.4-8.1-4.4c-5.3,0-9.3,4-9.3,9.6s4,9.6,9.3,9.6
				c3.4,0,6.3-1.6,8.9-5L891,636z"/>
			<path fill="#B8B9BA" d="M910,643.2h-11.1v-54.7H910v18.6c2.3-2.1,5.2-3.1,8.9-3.1c9.4,0,15.6,6.2,15.6,16.9v22.2h-11.2v-21.4
				c0-4.4-2-7.5-6.3-7.5c-4.7,0-7,3.3-7,9.8V643.2z"/>
			<path fill="#B8B9BA" d="M977.8,643.2h-11.1V605h10.9v2.7c2.5-2.4,5.5-3.6,9.2-3.6c4.4,0,8,1.6,10.6,4.6c3-3,6.9-4.6,11.5-4.6
				c10.2,0,16,6.1,16,16.9v22.2h-11.1v-21.8c0-4.3-2-7.1-5.9-7.1c-4.1,0-6.6,3.2-6.6,8.5v20.4h-11.1v-21.8c0-4.3-2-7.1-5.9-7.1
				c-4.4,0-6.6,3.4-6.6,9.3L977.8,643.2L977.8,643.2z"/>
			<path fill="#B8B9BA" d="M1032.5,624.1c0-5.7,2-10.5,5.8-14.3c3.9-3.8,8.7-5.8,14.4-5.8c5.7,0,10.5,2,14.4,5.8s5.9,8.6,5.9,14.3
				s-2,10.5-5.8,14.3s-8.7,5.7-14.4,5.7c-5.8,0-10.6-1.9-14.4-5.7C1034.4,634.6,1032.5,629.8,1032.5,624.1z M1043.8,624.1
				c0,2.8,0.9,5.1,2.5,6.9c1.6,1.8,3.8,2.7,6.4,2.7s4.8-0.9,6.4-2.7s2.5-4.1,2.5-6.9c0-2.8-0.9-5.1-2.5-6.9s-3.8-2.7-6.4-2.7
				s-4.8,0.9-6.4,2.7S1043.8,621.3,1043.8,624.1z"/>
			<path fill="#B8B9BA" d="M1085,609.7c3.7-3.7,8.3-5.6,13.7-5.6c4,0,7.3,1.1,9.8,3.4v-18.9h11.1v54.7h-10.9v-2.7
				c-2.5,2.4-5.9,3.6-10,3.6c-5.4,0-10-1.8-13.7-5.5s-5.5-8.5-5.5-14.5S1081.3,613.4,1085,609.7z M1108.6,624.1
				c0-2.9-0.9-5.3-2.6-7.2c-1.6-1.9-3.7-2.8-6.3-2.8c-2.6,0-4.7,0.9-6.4,2.8c-1.6,1.9-2.5,4.3-2.5,7.2s0.9,5.3,2.5,7.2
				c1.7,1.9,3.8,2.8,6.4,2.8s4.7-0.9,6.3-2.8C1107.7,629.4,1108.6,627,1108.6,624.1z"/>
			<path fill="#B8B9BA" d="M1165.1,626.9h-25.9c0.6,4.1,3.8,7,8.6,7c3.9,0,7-1.5,9.4-4.4l7.3,6.9c-4.1,5.1-9.6,7.7-16.4,7.7
				c-5.9,0-10.6-1.8-14.4-5.4c-3.8-3.7-5.7-8.4-5.7-14.4c0-5.8,1.7-10.7,5.2-14.5s8-5.8,13.6-5.8c5.9,0,10.4,2,13.6,5.8
				c3.2,3.9,4.8,8.5,4.8,13.7L1165.1,626.9z M1139.7,619.5h13.7c-0.2-3.2-2.8-5.7-6.5-5.7C1143,613.8,1140.4,616.2,1139.7,619.5z"/>
			<path fill="#B8B9BA" d="M1184.8,628.7c-8.3-2.1-12.5-6.2-12.5-12.5c0-3.7,1.4-6.6,4.3-8.7c2.9-2.3,6.4-3.4,10.5-3.4
				c5.8,0,10.9,2,15.4,6l-6.8,7.2c-3-2.5-6-3.7-9-3.7c-2.2,0-3.6,1-3.6,2.3c0,0.9,0.9,1.6,2.7,2l5.7,1.3c8.3,2,12.6,6.2,12.6,12.6
				c0,7.3-6.2,12.3-16,12.3c-7.1,0-13.6-3.4-16.8-7.4l6.8-6.9c3.4,3.4,7.1,5.1,10.9,5.1c2.3,0,4.3-1,4.3-2.5c0-1-1.2-1.9-3.4-2.4
				L1184.8,628.7z"/>
			<path fill="#B8B9BA" d="M1224,639.5c0,2.6-2,4.6-4.8,4.6c-2.6,0-4.6-2-4.6-4.6s2-4.7,4.6-4.7C1221.9,634.8,1224,636.8,1224,639.5
				z"/>
		</g>
		<g>
			<path fill="#B8B9BA" d="M740.1,428.6h6v33.2c0,6.6-1.9,11.9-5.5,16.1c-3.7,4.1-8.7,6.2-15.2,6.2s-11.5-2.1-15.2-6.2
				s-5.5-9.5-5.5-16.1v-33.2h6v33.3c0,4.8,1.2,8.8,3.8,12c2.6,3.1,6.2,4.7,10.9,4.7s8.3-1.6,10.8-4.8s3.9-7.2,3.9-12V428.6z"/>
			<path fill="#B8B9BA" d="M764,466.1c-7.3-1.7-10.8-5.4-10.8-11c0-3.4,1.3-6.1,3.9-8c2.6-2,5.7-3,9.3-3c5.1,0,9.6,2,13.6,6.2
				l-3.9,4.1c-3.1-3.3-6.5-4.9-10.1-4.9c-4.1,0-7,2.2-7,5.4c0,2.9,1.9,4.8,5.7,5.6l6,1.4c7.3,1.7,10.8,5.3,10.8,10.8
				c0,6.8-5.6,11.5-14.3,11.5c-6.6,0-12.3-3.1-15.4-7.2l3.8-4c3.1,3.9,6.9,5.9,11.5,5.9c5.4,0,8.6-2.2,8.6-5.9c0-2.7-2-4.6-6-5.5
				L764,466.1z"/>
			<path fill="#B8B9BA" d="M822,465.9h-28.5c0.5,8,5.4,12.8,12.9,12.8c4.3,0,7.9-1.9,10.9-5.6l4,3.7c-4.1,4.9-9,7.3-14.9,7.3
				c-5.7,0-10.3-1.8-13.7-5.5s-5.1-8.4-5.1-14.3c0-5.8,1.6-10.6,4.7-14.4c3.2-3.9,7.4-5.8,12.7-5.8c3.9,0,7.2,1,9.8,3
				c5.4,4.1,7.3,9.8,7.3,16.1L822,465.9z M793.7,460.8h22.5c-0.5-6.8-4.8-11.2-11.1-11.2C798.6,449.5,794.7,454.1,793.7,460.8z"/>
			<path fill="#B8B9BA" d="M853.9,472v-21.7h-6.2V445h6.2v-10.7h5.8V445h8.9v5.3h-8.9v20.8c0,5,1.2,6.9,5.9,6.9l3-0.1v5.2
				c-1,0.1-2.3,0.2-3.6,0.2C857.4,483.4,853.9,480.2,853.9,472z"/>
			<path fill="#B8B9BA" d="M882.2,428.6v21.1c2.6-3.4,7.2-5.5,11.9-5.5c9.8,0,15.2,6.1,15.2,16.9v22.2h-5.9v-22.7
				c0-7.1-3.6-11.1-9.8-11.1c-7.5,0-11.5,5.7-11.5,14.8v19h-5.8v-54.7L882.2,428.6L882.2,428.6z"/>
			<path fill="#B8B9BA" d="M950.3,465.9h-28.5c0.5,8,5.4,12.8,12.9,12.8c4.3,0,7.9-1.9,10.9-5.6l4,3.7c-4.1,4.9-9,7.3-14.9,7.3
				c-5.7,0-10.3-1.8-13.7-5.5s-5.1-8.4-5.1-14.3c0-5.8,1.6-10.6,4.7-14.4c3.2-3.9,7.4-5.8,12.7-5.8c3.9,0,7.2,1,9.8,3
				c5.4,4.1,7.3,9.8,7.3,16.1L950.3,465.9z M922,460.8h22.5c-0.5-6.8-4.8-11.2-11.1-11.2C926.9,449.5,923,454.1,922,460.8z"/>
			<path fill="#B8B9BA" d="M964.3,445v4.6c2.2-3.1,6.4-5.5,11-5.5c5.2,0,9,2.1,11.4,6.3c2.9-4.2,6.9-6.3,11.9-6.3
				c9.8,0,14.7,5.6,14.7,16.9v22.2h-5.8v-22.7c0-7.4-3-11.1-8.9-11.1c-6.3,0-9.8,4.6-9.8,12.7v21.1H983v-22.3
				c0-7.6-2.9-11.5-8.6-11.5c-6.6,0-10.1,4.6-10.1,12.7v21.1h-5.8V445H964.3z"/>
			<path fill="#B8B9BA" d="M1046.5,472v-21.7h-6.2V445h6.2v-10.7h5.8V445h8.9v5.3h-8.9v20.8c0,5,1.2,6.9,5.9,6.9l3-0.1v5.2
				c-1,0.1-2.3,0.2-3.6,0.2C1050.1,483.4,1046.5,480.2,1046.5,472z"/>
			<path fill="#B8B9BA" d="M1072.3,478.3c-3.7-3.9-5.5-8.7-5.5-14.2s1.8-10.3,5.5-14.2s8.3-5.8,13.7-5.8c5.5,0,10.1,1.9,13.7,5.8
				c3.7,3.9,5.6,8.7,5.6,14.2s-1.9,10.3-5.5,14.2c-3.7,3.8-8.3,5.8-13.8,5.8C1080.5,484.1,1075.9,482.1,1072.3,478.3z M1095.6,474.6
				c2.5-2.8,3.7-6.3,3.7-10.5c0-4.1-1.2-7.6-3.7-10.4s-5.7-4.2-9.6-4.2c-3.8,0-7,1.4-9.5,4.2c-2.5,2.7-3.7,6.2-3.7,10.4
				c0,4.1,1.2,7.6,3.7,10.5c2.5,2.7,5.7,4.1,9.5,4.1C1089.9,478.7,1093.1,477.3,1095.6,474.6z"/>
			<path fill="#B8B9BA" d="M1133.6,472.5c0-7.6,5.7-12,14.1-12c2.8,0,6.3,0.6,10.5,1.9v-3.9c0-5.7-3.8-9-9.4-9
				c-4.7,0-8.4,2.8-10,6.3l-4-3.7c3-5.3,7.7-8,14-8c9.3,0,15.1,5.4,15.1,15v24.2h-5.6v-4c-2.9,3.2-6.8,4.8-11.9,4.8
				C1139.2,484.1,1133.6,479.7,1133.6,472.5z M1146.7,479c4.7,0,9-2.7,11.4-6.1v-5.1c-3.7-1.2-7.1-1.9-10.1-1.9
				c-5.9,0-8.7,2.7-8.7,6.8C1139.3,476.5,1142.4,479,1146.7,479z"/>
			<path fill="#B8B9BA" d="M1202.4,450.1v-21.5h5.8v54.7h-5.5V478c-3.5,4.1-7.9,6.1-13.1,6.1s-9.4-1.9-12.8-5.8
				c-3.4-3.8-5-8.6-5-14.2s1.6-10.4,5-14.2c3.4-3.9,7.6-5.8,12.8-5.8C1194.7,444.1,1199,446.1,1202.4,450.1z M1177.7,464.1
				c0,4.2,1.1,7.7,3.4,10.5c2.3,2.7,5.2,4.1,9,4.1s6.9-1.4,9.1-4.1c2.3-2.7,3.4-6.2,3.4-10.5c0-4.2-1.2-7.7-3.4-10.5
				c-2.3-2.7-5.3-4.1-9.1-4.1s-6.8,1.4-9,4.1C1178.8,456.4,1177.7,459.9,1177.7,464.1z"/>
			<path fill="#B8B9BA" d="M1247.2,450.1v-21.5h5.8v54.7h-5.5V478c-3.5,4.1-7.9,6.1-13.1,6.1s-9.4-1.9-12.8-5.8s-5-8.6-5-14.2
				s1.6-10.4,5-14.2c3.4-3.9,7.6-5.8,12.8-5.8C1239.5,444.1,1243.8,446.1,1247.2,450.1z M1222.5,464.1c0,4.2,1.1,7.7,3.4,10.5
				c2.3,2.7,5.2,4.1,9,4.1s6.9-1.4,9.1-4.1c2.3-2.7,3.4-6.2,3.4-10.5c0-4.2-1.2-7.7-3.4-10.5c-2.3-2.7-5.3-4.1-9.1-4.1
				s-6.8,1.4-9,4.1C1223.6,456.4,1222.5,459.9,1222.5,464.1z"/>
			<path fill="#B8B9BA" d="M1283,472.5c0-7.6,5.7-12,14.1-12c2.8,0,6.3,0.6,10.5,1.9v-3.9c0-5.7-3.8-9-9.4-9c-4.7,0-8.4,2.8-10,6.3
				l-4-3.7c3-5.3,7.7-8,14-8c9.3,0,15.1,5.4,15.1,15v24.2h-5.6v-4c-2.9,3.2-6.8,4.8-11.9,4.8C1288.6,484.1,1283,479.7,1283,472.5z
				 M1296.2,479c4.7,0,9-2.7,11.4-6.1v-5.1c-3.7-1.2-7.1-1.9-10.1-1.9c-5.9,0-8.7,2.7-8.7,6.8C1288.8,476.5,1291.8,479,1296.2,479z"
				/>
			<path fill="#B8B9BA" d="M1329.5,445v4.7c2.6-3.4,7.3-5.6,12.1-5.6c9.8,0,15.2,6.1,15.2,16.9v22.2h-5.9v-22.7
				c0-7.1-3.6-11.1-9.8-11.1c-7.5,0-11.5,5.7-11.5,14.8v19h-5.8V445H1329.5z"/>
			<path fill="#B8B9BA" d="M1395.3,450.1v-21.5h5.8v54.7h-5.5V478c-3.5,4.1-7.9,6.1-13.1,6.1s-9.4-1.9-12.8-5.8s-5-8.6-5-14.2
				s1.6-10.4,5-14.2c3.4-3.9,7.6-5.8,12.8-5.8C1387.6,444.1,1391.9,446.1,1395.3,450.1z M1370.6,464.1c0,4.2,1.1,7.7,3.4,10.5
				c2.3,2.7,5.2,4.1,9,4.1s6.9-1.4,9.1-4.1c2.3-2.7,3.4-6.2,3.4-10.5c0-4.2-1.2-7.7-3.4-10.5c-2.3-2.7-5.3-4.1-9.1-4.1
				s-6.8,1.4-9,4.1C1371.7,456.4,1370.6,459.9,1370.6,464.1z"/>
			<path fill="#B8B9BA" d="M1465.5,465.9H1437c0.5,8,5.4,12.8,12.9,12.8c4.3,0,7.9-1.9,10.9-5.6l4,3.7c-4.1,4.9-9,7.3-14.9,7.3
				c-5.7,0-10.3-1.8-13.7-5.5c-3.4-3.7-5.1-8.4-5.1-14.3c0-5.8,1.6-10.6,4.7-14.4c3.2-3.9,7.4-5.8,12.7-5.8c3.9,0,7.2,1,9.8,3
				c5.4,4.1,7.3,9.8,7.3,16.1L1465.5,465.9z M1437.3,460.8h22.5c-0.5-6.8-4.8-11.2-11.1-11.2
				C1442.2,449.5,1438.3,454.1,1437.3,460.8z"/>
			<path fill="#B8B9BA" d="M1503.3,450.1v-21.5h5.8v54.7h-5.5V478c-3.5,4.1-7.9,6.1-13.1,6.1s-9.4-1.9-12.8-5.8
				c-3.4-3.8-5-8.6-5-14.2s1.6-10.4,5-14.2c3.4-3.9,7.6-5.8,12.8-5.8C1495.6,444.1,1499.8,446.1,1503.3,450.1z M1478.5,464.1
				c0,4.2,1.1,7.7,3.4,10.5c2.3,2.7,5.2,4.1,9,4.1s6.9-1.4,9.1-4.1c2.3-2.7,3.4-6.2,3.4-10.5c0-4.2-1.2-7.7-3.4-10.5
				c-2.3-2.7-5.3-4.1-9.1-4.1s-6.8,1.4-9,4.1C1479.6,456.4,1478.5,459.9,1478.5,464.1z"/>
			<path fill="#B8B9BA" d="M1520.4,429c1.8-1.6,4.5-1.6,6.2,0c1.8,1.6,1.8,4.4,0,6.2c-1.6,1.6-4.4,1.6-6.2,0
				C1518.7,433.3,1518.7,430.6,1520.4,429z M1520.6,483.2V445h5.8v38.2H1520.6z"/>
			<path fill="#B8B9BA" d="M1538.9,472v-21.7h-6.2V445h6.2v-10.7h5.8V445h8.9v5.3h-8.9v20.8c0,5,1.2,6.9,5.9,6.9l3-0.1v5.2
				c-1,0.1-2.3,0.2-3.6,0.2C1542.5,483.4,1538.9,480.2,1538.9,472z"/>
			<path fill="#64ABCC" d="M715.2,563.2h-11.1V525H715v2.7c2.5-2.4,5.5-3.6,9.2-3.6c4.4,0,8,1.6,10.6,4.6c3-3,6.9-4.6,11.5-4.6
				c10.2,0,16,6.1,16,16.9v22.2h-11.1v-21.8c0-4.3-2-7.1-5.9-7.1c-4.1,0-6.6,3.2-6.6,8.5v20.4h-11.1v-21.8c0-4.3-2-7.1-5.9-7.1
				c-4.4,0-6.6,3.4-6.6,9.3L715.2,563.2L715.2,563.2z"/>
			<path fill="#64ABCC" d="M769.8,552c0-4,1.5-7,4.4-9.1s6.5-3.2,10.8-3.2c2.6,0,5.1,0.4,7.6,1.1v-0.6c0-3.7-2.4-6.2-6.4-6.2
				c-3.5,0-6.2,1.5-8.2,4.4l-7-6.7c4.2-5.1,9.5-7.6,16-7.6c4.8,0,8.8,1.4,12,4.1s4.8,6.4,4.8,11.2v23.9h-11v-2.5
				c-2.6,2.3-5.8,3.4-9.7,3.4C775,564.1,769.8,559.1,769.8,552z M785.8,554.7c2.5,0,4.8-0.8,6.9-2.3V548c-1.9-0.5-3.7-0.7-5.1-0.7
				c-4.1,0-6.5,1.6-6.5,4C781,553.3,783,554.7,785.8,554.7z"/>
			<path fill="#64ABCC" d="M825.1,548.7c-8.3-2.1-12.5-6.2-12.5-12.5c0-3.7,1.4-6.6,4.3-8.7c2.9-2.3,6.4-3.4,10.5-3.4
				c5.8,0,10.9,2,15.4,6l-6.8,7.2c-3-2.5-6-3.7-9-3.7c-2.2,0-3.6,1-3.6,2.3c0,0.9,0.9,1.6,2.7,2l5.7,1.3c8.3,2,12.6,6.2,12.6,12.6
				c0,7.3-6.2,12.3-16,12.3c-7.1,0-13.6-3.4-16.8-7.4l6.8-6.9c3.4,3.4,7.1,5.1,10.9,5.1c2.3,0,4.3-1,4.3-2.5c0-1-1.2-1.9-3.4-2.4
				L825.1,548.7z"/>
			<path fill="#64ABCC" d="M852.8,563.2v-54.7h11.1V537l10.6-12.1h14l-14.1,15.8l14.7,22.5h-13.5l-9.1-14.5l-2.6,2.8v11.7H852.8z"/>
			<path fill="#64ABCC" d="M929.8,548.7c-8.3-2.1-12.5-6.2-12.5-12.5c0-3.7,1.4-6.6,4.3-8.7c2.9-2.3,6.4-3.4,10.5-3.4
				c5.8,0,10.9,2,15.4,6l-6.8,7.2c-3-2.5-6-3.7-9-3.7c-2.2,0-3.6,1-3.6,2.3c0,0.9,0.9,1.6,2.7,2l5.7,1.3c8.3,2,12.6,6.2,12.6,12.6
				c0,7.3-6.2,12.3-16,12.3c-7.1,0-13.6-3.4-16.8-7.4l6.8-6.9c3.4,3.4,7.1,5.1,10.9,5.1c2.3,0,4.3-1,4.3-2.5c0-1-1.2-1.9-3.4-2.4
				L929.8,548.7z"/>
			<path fill="#64ABCC" d="M968.5,563.2h-11.1v-54.7h11.1v18.6c2.3-2.1,5.2-3.1,8.9-3.1c9.4,0,15.6,6.2,15.6,16.9v22.2h-11.2v-21.4
				c0-4.4-2-7.5-6.3-7.5c-4.7,0-7,3.3-7,9.8V563.2z"/>
			<path fill="#64ABCC" d="M1000.4,552c0-4,1.5-7,4.4-9.1s6.5-3.2,10.8-3.2c2.6,0,5.1,0.4,7.6,1.1v-0.6c0-3.7-2.4-6.2-6.4-6.2
				c-3.5,0-6.2,1.5-8.2,4.4l-7-6.7c4.2-5.1,9.5-7.6,16-7.6c4.8,0,8.8,1.4,12,4.1s4.8,6.4,4.8,11.2v23.9h-11v-2.5
				c-2.6,2.3-5.8,3.4-9.7,3.4C1005.6,564.1,1000.4,559.1,1000.4,552z M1016.3,554.7c2.5,0,4.8-0.8,6.9-2.3V548
				c-2-0.5-3.7-0.7-5.1-0.7c-4.1,0-6.5,1.6-6.5,4C1011.6,553.3,1013.5,554.7,1016.3,554.7z"/>
			<path fill="#64ABCC" d="M1079.8,558.6c-3.7,3.7-8.2,5.5-13.6,5.5c-4.1,0-7.3-1.1-9.8-3.3v17.6h-11.1V525h10.9v2.7
				c2.6-2.4,5.9-3.7,10-3.7c5.4,0,9.9,1.9,13.6,5.5c3.7,3.7,5.5,8.5,5.5,14.5C1085.4,550.1,1083.5,554.9,1079.8,558.6z
				 M1056.3,544.1c0,2.9,0.9,5.3,2.5,7.2c1.7,1.9,3.8,2.8,6.4,2.8s4.7-0.9,6.3-2.8c1.7-1.9,2.6-4.3,2.6-7.2s-0.9-5.3-2.6-7.2
				c-1.6-1.9-3.7-2.8-6.3-2.8s-4.7,0.9-6.4,2.8C1057.1,538.8,1056.3,541.2,1056.3,544.1z"/>
			<path fill="#64ABCC" d="M1129.1,546.9h-25.9c0.6,4.1,3.8,7,8.6,7c3.9,0,7-1.5,9.4-4.4l7.3,6.9c-4.1,5.1-9.6,7.7-16.4,7.7
				c-5.9,0-10.6-1.8-14.4-5.4c-3.8-3.7-5.7-8.4-5.7-14.4c0-5.9,1.7-10.7,5.2-14.5s8-5.8,13.6-5.8c5.9,0,10.4,1.9,13.6,5.8
				c3.2,3.9,4.8,8.5,4.8,13.7L1129.1,546.9z M1103.8,539.5h13.7c-0.2-3.2-2.8-5.7-6.5-5.7C1107,533.8,1104.5,536.2,1103.8,539.5z"/>
			<path fill="#64ABCC" d="M1148.8,548.7c-8.3-2.1-12.5-6.2-12.5-12.5c0-3.7,1.4-6.6,4.3-8.7c2.9-2.3,6.4-3.4,10.5-3.4
				c5.8,0,10.9,2,15.4,6l-6.8,7.2c-3-2.5-6-3.7-9-3.7c-2.2,0-3.6,1-3.6,2.3c0,0.9,0.9,1.6,2.7,2l5.7,1.3c8.3,2,12.6,6.2,12.6,12.6
				c0,7.3-6.2,12.3-16,12.3c-7.1,0-13.6-3.4-16.8-7.4l6.8-6.9c3.4,3.4,7.1,5.1,10.9,5.1c2.3,0,4.3-1,4.3-2.5c0-1-1.2-1.9-3.4-2.4
				L1148.8,548.7z"/>
			<path fill="#B8B9BA" d="M1198.5,552.5c0-7.6,5.7-12,14.1-12c2.8,0,6.3,0.6,10.5,1.9v-3.9c0-5.7-3.8-9-9.4-9
				c-4.7,0-8.4,2.8-10,6.3l-4-3.7c3-5.3,7.7-8,14-8c9.3,0,15.1,5.4,15.1,15v24.2h-5.6v-4c-2.9,3.2-6.8,4.8-11.9,4.8
				C1204.1,564.1,1198.5,559.7,1198.5,552.5z M1211.7,559c4.7,0,9-2.7,11.4-6.1v-5.1c-3.7-1.2-7.1-1.9-10.1-1.9
				c-5.9,0-8.7,2.7-8.7,6.8C1204.3,556.5,1207.3,559,1211.7,559z"/>
			<path fill="#B8B9BA" d="M1245,525v4.7c2.6-3.4,7.3-5.6,12.1-5.6c9.8,0,15.2,6.1,15.2,16.9v22.2h-5.9v-22.7
				c0-7.1-3.6-11.1-9.8-11.1c-7.5,0-11.5,5.7-11.5,14.8v19h-5.8V525H1245z"/>
			<path fill="#B8B9BA" d="M1310.8,530.1v-21.5h5.8v54.7h-5.5V558c-3.5,4.1-7.9,6.1-13.1,6.1s-9.4-1.9-12.8-5.8
				c-3.4-3.8-5-8.6-5-14.2s1.6-10.4,5-14.2c3.4-3.9,7.6-5.8,12.8-5.8C1303.1,524.1,1307.4,526.1,1310.8,530.1z M1286.1,544.1
				c0,4.2,1.1,7.7,3.4,10.5c2.3,2.7,5.2,4.1,9,4.1s6.9-1.4,9.1-4.1c2.3-2.7,3.4-6.2,3.4-10.5c0-4.2-1.2-7.7-3.4-10.5
				c-2.3-2.7-5.3-4.1-9.1-4.1s-6.8,1.4-9,4.1C1287.2,536.4,1286.1,539.9,1286.1,544.1z"/>
			<path fill="#B8B9BA" d="M1350.2,552v-21.7h-6.2V525h6.2v-10.7h5.8V525h8.9v5.3h-8.9v20.8c0,5,1.2,6.9,5.9,6.9l3-0.1v5.2
				c-1,0.1-2.3,0.2-3.6,0.2C1353.8,563.4,1350.2,560.2,1350.2,552z"/>
			<path fill="#B8B9BA" d="M1376,558.3c-3.7-3.9-5.5-8.7-5.5-14.2s1.8-10.3,5.5-14.2s8.3-5.8,13.7-5.8c5.5,0,10.1,1.9,13.7,5.8
				c3.7,3.9,5.6,8.7,5.6,14.2s-1.9,10.3-5.5,14.2c-3.7,3.8-8.3,5.8-13.8,5.8C1384.2,564.1,1379.6,562.1,1376,558.3z M1399.3,554.6
				c2.5-2.8,3.7-6.3,3.7-10.5c0-4.1-1.2-7.6-3.7-10.4c-2.5-2.8-5.7-4.2-9.6-4.2c-3.8,0-7,1.4-9.5,4.2c-2.5,2.7-3.7,6.2-3.7,10.4
				c0,4.1,1.2,7.6,3.7,10.5c2.5,2.7,5.7,4.1,9.5,4.1C1393.6,558.7,1396.8,557.3,1399.3,554.6z"/>
			<path fill="#64ABCC" d="M715.4,628.7c-8.3-2.1-12.5-6.2-12.5-12.5c0-3.7,1.4-6.6,4.3-8.7c2.9-2.3,6.4-3.4,10.5-3.4
				c5.8,0,10.9,2,15.4,6l-6.8,7.2c-3-2.5-6-3.7-9-3.7c-2.2,0-3.6,1-3.6,2.3c0,0.9,0.9,1.6,2.7,2l5.7,1.3c8.3,2,12.6,6.2,12.6,12.6
				c0,7.3-6.2,12.3-16,12.3c-7.1,0-13.6-3.4-16.8-7.4l6.8-6.9c3.4,3.4,7.1,5.1,10.9,5.1c2.3,0,4.3-1,4.3-2.5c0-1-1.2-1.9-3.4-2.4
				L715.4,628.7z"/>
			<path fill="#64ABCC" d="M774,605l6.3,22.9l5.4-22.9h11.9l-10.8,38.2h-12.1l-6.9-23.6l-6.9,23.6h-12.1L738.1,605H750l5.5,22.9
				l6.2-22.9H774z"/>
			<path fill="#64ABCC" d="M810,587.7c3.7,0,6.5,2.8,6.5,6.5c0,3.5-3,6.4-6.5,6.4s-6.4-2.9-6.4-6.4
				C803.6,590.5,806.5,587.7,810,587.7z M804.5,643.2V605h11.2v38.2H804.5z"/>
			<path fill="#64ABCC" d="M828,629.7v-14.5h-5V605h5v-10.7h11V605h8.5v10.2H839v13.2c0,3.7,1.6,4.7,5.1,4.7h3.3v10.1
				c-2,0.1-4,0.2-6,0.2C832.5,643.4,828,638.9,828,629.7z"/>
			<path fill="#64ABCC" d="M891,636c-4.1,5.4-9.7,8.1-16.8,8.1c-5.8,0-10.6-1.9-14.4-5.7s-5.8-8.6-5.8-14.3s2-10.5,5.8-14.3
				c3.9-3.8,8.7-5.8,14.4-5.8c6.1,0,11.4,2.6,16,7.6l-7.5,7.3c-2.4-3-5.1-4.4-8.1-4.4c-5.3,0-9.3,4-9.3,9.6s4,9.6,9.3,9.6
				c3.4,0,6.3-1.6,8.9-5L891,636z"/>
			<path fill="#64ABCC" d="M910,643.2h-11.1v-54.7H910v18.6c2.3-2.1,5.2-3.1,8.9-3.1c9.4,0,15.6,6.2,15.6,16.9v22.2h-11.2v-21.4
				c0-4.4-2-7.5-6.3-7.5c-4.7,0-7,3.3-7,9.8V643.2z"/>
			<path fill="#64ABCC" d="M977.8,643.2h-11.1V605h10.9v2.7c2.5-2.4,5.5-3.6,9.2-3.6c4.4,0,8,1.6,10.6,4.6c3-3,6.9-4.6,11.5-4.6
				c10.2,0,16,6.1,16,16.9v22.2h-11.1v-21.8c0-4.3-2-7.1-5.9-7.1c-4.1,0-6.6,3.2-6.6,8.5v20.4h-11.1v-21.8c0-4.3-2-7.1-5.9-7.1
				c-4.4,0-6.6,3.4-6.6,9.3L977.8,643.2L977.8,643.2z"/>
			<path fill="#64ABCC" d="M1032.5,624.1c0-5.7,2-10.5,5.8-14.3c3.9-3.8,8.7-5.8,14.4-5.8c5.7,0,10.5,2,14.4,5.8s5.9,8.6,5.9,14.3
				s-2,10.5-5.8,14.3s-8.7,5.7-14.4,5.7c-5.8,0-10.6-1.9-14.4-5.7C1034.4,634.6,1032.5,629.8,1032.5,624.1z M1043.8,624.1
				c0,2.8,0.9,5.1,2.5,6.9c1.6,1.8,3.8,2.7,6.4,2.7s4.8-0.9,6.4-2.7s2.5-4.1,2.5-6.9c0-2.8-0.9-5.1-2.5-6.9s-3.8-2.7-6.4-2.7
				s-4.8,0.9-6.4,2.7S1043.8,621.3,1043.8,624.1z"/>
			<path fill="#64ABCC" d="M1085,609.7c3.7-3.7,8.3-5.6,13.7-5.6c4,0,7.3,1.1,9.8,3.4v-18.9h11.1v54.7h-10.9v-2.7
				c-2.5,2.4-5.9,3.6-10,3.6c-5.4,0-10-1.8-13.7-5.5s-5.5-8.5-5.5-14.5S1081.3,613.4,1085,609.7z M1108.6,624.1
				c0-2.9-0.9-5.3-2.6-7.2c-1.6-1.9-3.7-2.8-6.3-2.8c-2.6,0-4.7,0.9-6.4,2.8c-1.6,1.9-2.5,4.3-2.5,7.2s0.9,5.3,2.5,7.2
				c1.7,1.9,3.8,2.8,6.4,2.8s4.7-0.9,6.3-2.8C1107.7,629.4,1108.6,627,1108.6,624.1z"/>
			<path fill="#64ABCC" d="M1165.1,626.9h-25.9c0.6,4.1,3.8,7,8.6,7c3.9,0,7-1.5,9.4-4.4l7.3,6.9c-4.1,5.1-9.6,7.7-16.4,7.7
				c-5.9,0-10.6-1.8-14.4-5.4c-3.8-3.7-5.7-8.4-5.7-14.4c0-5.8,1.7-10.7,5.2-14.5s8-5.8,13.6-5.8c5.9,0,10.4,2,13.6,5.8
				c3.2,3.9,4.8,8.5,4.8,13.7L1165.1,626.9z M1139.7,619.5h13.7c-0.2-3.2-2.8-5.7-6.5-5.7C1143,613.8,1140.4,616.2,1139.7,619.5z"/>
			<path fill="#64ABCC" d="M1184.8,628.7c-8.3-2.1-12.5-6.2-12.5-12.5c0-3.7,1.4-6.6,4.3-8.7c2.9-2.3,6.4-3.4,10.5-3.4
				c5.8,0,10.9,2,15.4,6l-6.8,7.2c-3-2.5-6-3.7-9-3.7c-2.2,0-3.6,1-3.6,2.3c0,0.9,0.9,1.6,2.7,2l5.7,1.3c8.3,2,12.6,6.2,12.6,12.6
				c0,7.3-6.2,12.3-16,12.3c-7.1,0-13.6-3.4-16.8-7.4l6.8-6.9c3.4,3.4,7.1,5.1,10.9,5.1c2.3,0,4.3-1,4.3-2.5c0-1-1.2-1.9-3.4-2.4
				L1184.8,628.7z"/>
			<path fill="#B8B9BA" d="M1224,639.5c0,2.6-2,4.6-4.8,4.6c-2.6,0-4.6-2-4.6-4.6s2-4.7,4.6-4.7C1221.9,634.8,1224,636.8,1224,639.5
				z"/>
		</g>
	</g>
	<g>
		<g>
			<path fill="#B8B9BA" d="M843.8,1018.2l-1.6,1.5c-4.1-4-6.1-8.6-6.1-13.9c0-5.3,2-10,6.1-13.9l1.6,1.5c-3.7,3.8-5.4,7.7-5.4,12.5
				C838.4,1010.6,840,1014.5,843.8,1018.2z"/>
			<path fill="#B8B9BA" d="M857.3,1011.1c-1.6,1.9-3.5,2.8-5.9,2.8c-2.1,0-3.9-0.8-5.3-2.2c-1.4-1.5-2.1-3.3-2.1-5.5
				s0.7-3.9,2.2-5.4s3.2-2.3,5.3-2.3c2.2,0,4,0.9,5.5,2.6l-1.5,1.5c-1.1-1.3-2.4-2-4-2c-1.5,0-2.7,0.5-3.7,1.6c-1,1-1.5,2.4-1.5,4
				c0,3.3,2,5.6,5.3,5.6c1.6,0,3.1-0.7,4.2-2.2L857.3,1011.1z"/>
			<path fill="#B8B9BA" d="M860.2,1013.5v-21h2.2v21H860.2z"/>
			<path fill="#B8B9BA" d="M866.8,992.7c0.7-0.6,1.7-0.6,2.4,0s0.7,1.7,0,2.4c-0.6,0.6-1.7,0.6-2.4,0
				C866.1,994.3,866.1,993.3,866.8,992.7z M866.9,1013.5v-14.7h2.2v14.7H866.9z"/>
			<path fill="#B8B9BA" d="M885.8,1011.1c-1.6,1.9-3.5,2.8-5.9,2.8c-2.1,0-3.9-0.8-5.3-2.2c-1.4-1.5-2.1-3.3-2.1-5.5
				s0.7-3.9,2.2-5.4s3.2-2.3,5.3-2.3c2.2,0,4,0.9,5.5,2.6l-1.5,1.5c-1.1-1.3-2.4-2-4-2c-1.5,0-2.7,0.5-3.7,1.6c-1,1-1.5,2.4-1.5,4
				c0,3.3,2,5.6,5.3,5.6c1.7,0,3.1-0.7,4.2-2.2L885.8,1011.1z"/>
			<path fill="#B8B9BA" d="M888.7,1013.5v-21h2.2v13.9l6.8-7.5h2.9l-5.7,6.2l6.1,8.5h-2.8l-4.8-6.8l-2.4,2.6v4.1H888.7z"/>
			<path fill="#B8B9BA" d="M912.9,1009.2v-8.3h-2.4v-2h2.4v-4.1h2.2v4.1h3.4v2h-3.4v8c0,1.9,0.5,2.7,2.2,2.7h1.2v2
				c-0.4,0-0.9,0.1-1.4,0.1C914.2,1013.6,912.9,1012.4,912.9,1009.2z"/>
			<path fill="#B8B9BA" d="M922.8,1011.7c-1.4-1.5-2.1-3.3-2.1-5.5s0.7-4,2.1-5.5s3.2-2.2,5.3-2.2s3.9,0.8,5.3,2.2
				c1.4,1.5,2.2,3.3,2.2,5.5s-0.7,4-2.1,5.5c-1.4,1.5-3.2,2.2-5.3,2.2C925.9,1013.9,924.2,1013.1,922.8,1011.7z M931.7,1010.2
				c1-1.1,1.4-2.4,1.4-4s-0.5-2.9-1.4-4c-1-1.1-2.2-1.6-3.7-1.6s-2.7,0.5-3.7,1.6c-1,1-1.4,2.4-1.4,4s0.5,2.9,1.4,4
				c1,1,2.2,1.6,3.7,1.6S930.8,1011.3,931.7,1010.2z"/>
			<path fill="#B8B9BA" d="M946.3,1009.4c0-2.9,2.2-4.6,5.4-4.6c1.1,0,2.4,0.2,4,0.7v-1.5c0-2.2-1.5-3.4-3.6-3.4
				c-1.8,0-3.2,1.1-3.8,2.4l-1.5-1.4c1.2-2,3-3.1,5.4-3.1c3.6,0,5.8,2.1,5.8,5.8v9.3h-2.2v-1.5c-1.1,1.2-2.6,1.9-4.6,1.9
				C948.5,1013.9,946.3,1012.2,946.3,1009.4z M951.4,1011.9c1.8,0,3.4-1,4.4-2.3v-2c-1.4-0.5-2.7-0.7-3.9-0.7
				c-2.2,0-3.3,1.1-3.3,2.6C948.6,1010.9,949.7,1011.9,951.4,1011.9z"/>
			<path fill="#B8B9BA" d="M972.8,1000.8v-8.3h2.2v21h-2.1v-2c-1.3,1.6-3,2.3-5,2.3s-3.6-0.8-4.9-2.2c-1.3-1.5-1.9-3.3-1.9-5.5
				s0.6-4,1.9-5.5c1.3-1.5,2.9-2.2,4.9-2.2C969.9,998.5,971.5,999.3,972.8,1000.8z M963.3,1006.2c0,1.6,0.4,3,1.3,4s2,1.6,3.5,1.6
				s2.6-0.5,3.5-1.6s1.3-2.4,1.3-4s-0.4-3-1.3-4c-0.9-1-2-1.6-3.5-1.6s-2.6,0.5-3.5,1.6C963.7,1003.2,963.3,1004.6,963.3,1006.2z"/>
			<path fill="#B8B9BA" d="M990.9,998.8l-5.6,14.7H983l-5.6-14.7h2.4l4.3,12l4.3-12H990.9z"/>
			<path fill="#B8B9BA" d="M992.2,1009.4c0-2.9,2.2-4.6,5.4-4.6c1.1,0,2.4,0.2,4,0.7v-1.5c0-2.2-1.5-3.4-3.6-3.4
				c-1.8,0-3.2,1.1-3.8,2.4l-1.5-1.4c1.2-2,3-3.1,5.4-3.1c3.6,0,5.8,2.1,5.8,5.8v9.3h-2.2v-1.5c-1.1,1.2-2.6,1.9-4.6,1.9
				C994.4,1013.9,992.2,1012.2,992.2,1009.4z M997.3,1011.9c1.8,0,3.5-1,4.4-2.3v-2c-1.4-0.5-2.7-0.7-3.9-0.7
				c-2.2,0-3.3,1.1-3.3,2.6C994.4,1010.9,995.6,1011.9,997.3,1011.9z"/>
			<path fill="#B8B9BA" d="M1010.1,998.8v1.8c1-1.3,2.8-2.2,4.7-2.2c3.7,0,5.8,2.3,5.8,6.5v8.5h-2.2v-8.7c0-2.7-1.4-4.3-3.8-4.3
				c-2.9,0-4.4,2.2-4.4,5.7v7.3h-2.2v-14.7h2.1V998.8z"/>
			<path fill="#B8B9BA" d="M1036.9,1011.1c-1.6,1.9-3.5,2.8-5.9,2.8c-2.1,0-3.9-0.8-5.3-2.2c-1.4-1.5-2.1-3.3-2.1-5.5
				s0.7-3.9,2.2-5.4s3.2-2.3,5.3-2.3c2.2,0,4,0.9,5.5,2.6l-1.5,1.5c-1.1-1.3-2.4-2-4-2c-1.5,0-2.7,0.5-3.7,1.6c-1,1-1.5,2.4-1.5,4
				c0,3.3,2,5.6,5.3,5.6c1.7,0,3.1-0.7,4.2-2.2L1036.9,1011.1z"/>
			<path fill="#B8B9BA" d="M1051.8,1006.9h-10.9c0.2,3.1,2.1,4.9,4.9,4.9c1.7,0,3-0.7,4.2-2.2l1.5,1.4c-1.6,1.9-3.5,2.8-5.7,2.8
				s-4-0.7-5.3-2.1c-1.3-1.4-2-3.2-2-5.5c0-2.2,0.6-4.1,1.8-5.5c1.2-1.5,2.8-2.2,4.9-2.2c1.5,0,2.8,0.4,3.8,1.2
				c2.1,1.6,2.8,3.8,2.8,6.2L1051.8,1006.9z M1040.9,1004.9h8.6c-0.2-2.6-1.8-4.3-4.3-4.3
				C1042.8,1000.6,1041.3,1002.4,1040.9,1004.9z"/>
			<path fill="#B8B9BA" d="M1052.8,993.3l1.6-1.5c4.1,4,6.1,8.6,6.1,13.9c0,5.3-2,10-6.1,13.9l-1.6-1.5c3.7-3.8,5.4-7.7,5.4-12.5
				C1058.2,1000.9,1056.5,997,1052.8,993.3z"/>
		</g>
		<g>
			<path fill="#B8B9BA" d="M843.8,1018.2l-1.6,1.5c-4.1-4-6.1-8.6-6.1-13.9c0-5.3,2-10,6.1-13.9l1.6,1.5c-3.7,3.8-5.4,7.7-5.4,12.5
				C838.4,1010.6,840,1014.5,843.8,1018.2z"/>
			<path fill="#B8B9BA" d="M857.3,1011.1c-1.6,1.9-3.5,2.8-5.9,2.8c-2.1,0-3.9-0.8-5.3-2.2c-1.4-1.5-2.1-3.3-2.1-5.5
				s0.7-3.9,2.2-5.4s3.2-2.3,5.3-2.3c2.2,0,4,0.9,5.5,2.6l-1.5,1.5c-1.1-1.3-2.4-2-4-2c-1.5,0-2.7,0.5-3.7,1.6c-1,1-1.5,2.4-1.5,4
				c0,3.3,2,5.6,5.3,5.6c1.6,0,3.1-0.7,4.2-2.2L857.3,1011.1z"/>
			<path fill="#B8B9BA" d="M860.2,1013.5v-21h2.2v21H860.2z"/>
			<path fill="#B8B9BA" d="M866.8,992.7c0.7-0.6,1.7-0.6,2.4,0s0.7,1.7,0,2.4c-0.6,0.6-1.7,0.6-2.4,0
				C866.1,994.3,866.1,993.3,866.8,992.7z M866.9,1013.5v-14.7h2.2v14.7H866.9z"/>
			<path fill="#B8B9BA" d="M885.8,1011.1c-1.6,1.9-3.5,2.8-5.9,2.8c-2.1,0-3.9-0.8-5.3-2.2c-1.4-1.5-2.1-3.3-2.1-5.5
				s0.7-3.9,2.2-5.4s3.2-2.3,5.3-2.3c2.2,0,4,0.9,5.5,2.6l-1.5,1.5c-1.1-1.3-2.4-2-4-2c-1.5,0-2.7,0.5-3.7,1.6c-1,1-1.5,2.4-1.5,4
				c0,3.3,2,5.6,5.3,5.6c1.7,0,3.1-0.7,4.2-2.2L885.8,1011.1z"/>
			<path fill="#B8B9BA" d="M888.7,1013.5v-21h2.2v13.9l6.8-7.5h2.9l-5.7,6.2l6.1,8.5h-2.8l-4.8-6.8l-2.4,2.6v4.1H888.7z"/>
			<path fill="#B8B9BA" d="M912.9,1009.2v-8.3h-2.4v-2h2.4v-4.1h2.2v4.1h3.4v2h-3.4v8c0,1.9,0.5,2.7,2.2,2.7h1.2v2
				c-0.4,0-0.9,0.1-1.4,0.1C914.2,1013.6,912.9,1012.4,912.9,1009.2z"/>
			<path fill="#B8B9BA" d="M922.8,1011.7c-1.4-1.5-2.1-3.3-2.1-5.5s0.7-4,2.1-5.5s3.2-2.2,5.3-2.2s3.9,0.8,5.3,2.2
				c1.4,1.5,2.2,3.3,2.2,5.5s-0.7,4-2.1,5.5c-1.4,1.5-3.2,2.2-5.3,2.2C925.9,1013.9,924.2,1013.1,922.8,1011.7z M931.7,1010.2
				c1-1.1,1.4-2.4,1.4-4s-0.5-2.9-1.4-4c-1-1.1-2.2-1.6-3.7-1.6s-2.7,0.5-3.7,1.6c-1,1-1.4,2.4-1.4,4s0.5,2.9,1.4,4
				c1,1,2.2,1.6,3.7,1.6S930.8,1011.3,931.7,1010.2z"/>
			<path fill="#B8B9BA" d="M946.3,1009.4c0-2.9,2.2-4.6,5.4-4.6c1.1,0,2.4,0.2,4,0.7v-1.5c0-2.2-1.5-3.4-3.6-3.4
				c-1.8,0-3.2,1.1-3.8,2.4l-1.5-1.4c1.2-2,3-3.1,5.4-3.1c3.6,0,5.8,2.1,5.8,5.8v9.3h-2.2v-1.5c-1.1,1.2-2.6,1.9-4.6,1.9
				C948.5,1013.9,946.3,1012.2,946.3,1009.4z M951.4,1011.9c1.8,0,3.4-1,4.4-2.3v-2c-1.4-0.5-2.7-0.7-3.9-0.7
				c-2.2,0-3.3,1.1-3.3,2.6C948.6,1010.9,949.7,1011.9,951.4,1011.9z"/>
			<path fill="#B8B9BA" d="M972.8,1000.8v-8.3h2.2v21h-2.1v-2c-1.3,1.6-3,2.3-5,2.3s-3.6-0.8-4.9-2.2c-1.3-1.5-1.9-3.3-1.9-5.5
				s0.6-4,1.9-5.5c1.3-1.5,2.9-2.2,4.9-2.2C969.9,998.5,971.5,999.3,972.8,1000.8z M963.3,1006.2c0,1.6,0.4,3,1.3,4s2,1.6,3.5,1.6
				s2.6-0.5,3.5-1.6s1.3-2.4,1.3-4s-0.4-3-1.3-4c-0.9-1-2-1.6-3.5-1.6s-2.6,0.5-3.5,1.6C963.7,1003.2,963.3,1004.6,963.3,1006.2z"/>
			<path fill="#B8B9BA" d="M990.9,998.8l-5.6,14.7H983l-5.6-14.7h2.4l4.3,12l4.3-12H990.9z"/>
			<path fill="#B8B9BA" d="M992.2,1009.4c0-2.9,2.2-4.6,5.4-4.6c1.1,0,2.4,0.2,4,0.7v-1.5c0-2.2-1.5-3.4-3.6-3.4
				c-1.8,0-3.2,1.1-3.8,2.4l-1.5-1.4c1.2-2,3-3.1,5.4-3.1c3.6,0,5.8,2.1,5.8,5.8v9.3h-2.2v-1.5c-1.1,1.2-2.6,1.9-4.6,1.9
				C994.4,1013.9,992.2,1012.2,992.2,1009.4z M997.3,1011.9c1.8,0,3.5-1,4.4-2.3v-2c-1.4-0.5-2.7-0.7-3.9-0.7
				c-2.2,0-3.3,1.1-3.3,2.6C994.4,1010.9,995.6,1011.9,997.3,1011.9z"/>
			<path fill="#B8B9BA" d="M1010.1,998.8v1.8c1-1.3,2.8-2.2,4.7-2.2c3.7,0,5.8,2.3,5.8,6.5v8.5h-2.2v-8.7c0-2.7-1.4-4.3-3.8-4.3
				c-2.9,0-4.4,2.2-4.4,5.7v7.3h-2.2v-14.7h2.1V998.8z"/>
			<path fill="#B8B9BA" d="M1036.9,1011.1c-1.6,1.9-3.5,2.8-5.9,2.8c-2.1,0-3.9-0.8-5.3-2.2c-1.4-1.5-2.1-3.3-2.1-5.5
				s0.7-3.9,2.2-5.4s3.2-2.3,5.3-2.3c2.2,0,4,0.9,5.5,2.6l-1.5,1.5c-1.1-1.3-2.4-2-4-2c-1.5,0-2.7,0.5-3.7,1.6c-1,1-1.5,2.4-1.5,4
				c0,3.3,2,5.6,5.3,5.6c1.7,0,3.1-0.7,4.2-2.2L1036.9,1011.1z"/>
			<path fill="#B8B9BA" d="M1051.8,1006.9h-10.9c0.2,3.1,2.1,4.9,4.9,4.9c1.7,0,3-0.7,4.2-2.2l1.5,1.4c-1.6,1.9-3.5,2.8-5.7,2.8
				s-4-0.7-5.3-2.1c-1.3-1.4-2-3.2-2-5.5c0-2.2,0.6-4.1,1.8-5.5c1.2-1.5,2.8-2.2,4.9-2.2c1.5,0,2.8,0.4,3.8,1.2
				c2.1,1.6,2.8,3.8,2.8,6.2L1051.8,1006.9z M1040.9,1004.9h8.6c-0.2-2.6-1.8-4.3-4.3-4.3
				C1042.8,1000.6,1041.3,1002.4,1040.9,1004.9z"/>
			<path fill="#B8B9BA" d="M1052.8,993.3l1.6-1.5c4.1,4,6.1,8.6,6.1,13.9c0,5.3-2,10-6.1,13.9l-1.6-1.5c3.7-3.8,5.4-7.7,5.4-12.5
				C1058.2,1000.9,1056.5,997,1052.8,993.3z"/>
		</g>
	</g>
</g>
</svg>
