<?xml version="1.0" encoding="utf-8"?>
<!-- Generator: Adobe Illustrator 19.1.0, SVG Export Plug-In . SVG Version: 6.00 Build 0)  -->
<svg version="1.1" baseProfile="tiny" id="Layer_1" xmlns="http://www.w3.org/2000/svg" xmlns:xlink="http://www.w3.org/1999/xlink"
	 x="0px" y="0px" width="1920px" height="1080px" viewBox="0 0 1920 1080" xml:space="preserve">
<g id="Layer_4">
	<rect x="11.9" fill="#FFFFFF" width="1920" height="1080"/>
</g>
<g id="Layer_6">
	<g>
		<g>
			<path fill="#B8B9BA" d="M595.2,429.9h40.4v5.6h-17.5v49.1h-5.9v-49.1h-17V429.9z"/>
			<path fill="#B8B9BA" d="M639.5,479.7c-3.7-3.9-5.5-8.7-5.5-14.2s1.8-10.3,5.5-14.2c3.7-3.9,8.3-5.9,13.7-5.9
				c5.5,0,10.1,2,13.7,5.9c3.7,3.9,5.6,8.7,5.6,14.2s-1.9,10.3-5.5,14.2c-3.7,3.8-8.3,5.8-13.8,5.8
				C647.8,485.5,643.2,483.5,639.5,479.7z M662.9,476c2.5-2.8,3.7-6.3,3.7-10.5c0-4.1-1.2-7.6-3.7-10.4s-5.7-4.2-9.6-4.2
				c-3.8,0-7,1.4-9.5,4.2c-2.5,2.7-3.7,6.2-3.7,10.4c0,4.1,1.2,7.6,3.7,10.5c2.5,2.7,5.7,4.1,9.5,4.1
				C657.2,480.1,660.4,478.7,662.9,476z"/>
			<path fill="#B8B9BA" d="M706.4,488.1c2.7,4.8,6.6,7.3,11.6,7.3c8.2,0,12.6-5.3,12.6-13.3v-4c-2.9,3.8-7,5.8-12.5,5.8
				c-4.9,0-9-1.8-12.3-5.5s-5-8.2-5-13.7s1.6-10.1,5-13.7s7.4-5.5,12.3-5.5c5.4,0,9.6,2,12.6,5.9v-4.9h5.6v35.1
				c0,11.6-7.1,19.1-18.4,19.1c-6.9,0-12.2-2.8-15.8-8.5L706.4,488.1z M710.1,474.5c2.3,2.6,5.1,3.8,8.6,3.8s6.4-1.2,8.7-3.8
				c2.3-2.6,3.4-5.8,3.4-9.8c0-4.1-1.2-7.3-3.4-9.9c-2.3-2.6-5.1-3.8-8.7-3.8c-3.5,0-6.3,1.2-8.6,3.8s-3.4,5.9-3.4,9.9
				C706.8,468.6,707.9,471.9,710.1,474.5z"/>
			<path fill="#B8B9BA" d="M750.2,479.7c-3.7-3.9-5.5-8.7-5.5-14.2s1.8-10.3,5.5-14.2c3.7-3.9,8.3-5.9,13.7-5.9
				c5.5,0,10.1,2,13.7,5.9c3.7,3.9,5.6,8.7,5.6,14.2s-1.9,10.3-5.5,14.2c-3.7,3.8-8.3,5.8-13.8,5.8
				C758.5,485.5,753.9,483.5,750.2,479.7z M773.5,476c2.5-2.8,3.7-6.3,3.7-10.5c0-4.1-1.2-7.6-3.7-10.4s-5.7-4.2-9.6-4.2
				c-3.8,0-7,1.4-9.5,4.2c-2.5,2.7-3.7,6.2-3.7,10.4c0,4.1,1.2,7.6,3.7,10.5c2.5,2.7,5.7,4.1,9.5,4.1
				C767.9,480.1,771.1,478.7,773.5,476z"/>
			<path fill="#B8B9BA" d="M818.9,484.6h-5.6v-54.7h5.8v21.5c3.4-4,7.7-6,12.9-6s9.4,2,12.8,5.9c3.4,3.8,5,8.6,5,14.2
				s-1.6,10.4-5,14.2c-3.4,3.8-7.6,5.8-12.8,5.8s-9.5-2-13-6.1v5.2H818.9z M843.8,465.5c0-4.2-1.1-7.7-3.4-10.5
				c-2.3-2.7-5.2-4.1-9-4.1s-6.9,1.4-9.1,4.1c-2.3,2.7-3.4,6.2-3.4,10.5s1.1,7.7,3.4,10.5c2.3,2.7,5.3,4.1,9.1,4.1s6.8-1.4,9-4.1
				S843.8,469.7,843.8,465.5z"/>
			<path fill="#B8B9BA" d="M856.3,473.9c0-7.6,5.7-12,14.1-12c2.8,0,6.3,0.6,10.5,1.9v-3.9c0-5.7-3.8-9-9.4-9c-4.7,0-8.4,2.8-10,6.3
				l-4-3.7c3-5.3,7.7-8,14-8c9.3,0,15.1,5.4,15.1,15v24.2H881v-4c-2.9,3.2-6.8,4.8-11.9,4.8C861.9,485.5,856.3,481.1,856.3,473.9z
				 M869.5,480.3c4.7,0,9-2.7,11.4-6.1v-5.1c-3.7-1.2-7.1-1.9-10.1-1.9c-5.9,0-8.7,2.7-8.7,6.8C862.1,477.8,865.1,480.3,869.5,480.3
				z"/>
			<path fill="#B8B9BA" d="M929,478.2c-4.1,4.9-9.1,7.3-15.3,7.3c-5.5,0-10.1-2-13.7-5.8c-3.7-3.9-5.5-8.7-5.5-14.2
				s1.9-10.2,5.6-14.1c3.8-4,8.4-5.9,13.8-5.9c5.8,0,10.5,2.3,14.3,6.8l-3.9,3.8c-2.9-3.4-6.3-5.1-10.4-5.1c-3.9,0-7.1,1.4-9.7,4.2
				c-2.6,2.7-3.8,6.2-3.8,10.4c0,8.5,5.2,14.6,13.7,14.6c4.3,0,8-1.9,10.8-5.6L929,478.2z"/>
			<path fill="#B8B9BA" d="M936.5,484.6v-54.7h5.8v36l17.7-19.6h7.6l-14.9,16.1l15.8,22.1H961l-12.5-17.6l-6.2,6.8v10.8h-5.8V484.6z
				"/>
			<path fill="#B8B9BA" d="M999.4,473.4v-21.7h-6.2v-5.3h6.2v-10.7h5.8v10.7h8.9v5.3h-8.9v20.8c0,5,1.2,6.9,5.8,6.9l3-0.1v5.2
				c-1,0.1-2.3,0.2-3.6,0.2C1002.9,484.8,999.4,481.6,999.4,473.4z"/>
			<path fill="#B8B9BA" d="M1025.1,479.7c-3.7-3.9-5.5-8.7-5.5-14.2s1.8-10.3,5.5-14.2c3.7-3.9,8.3-5.9,13.7-5.9s10.1,2,13.7,5.9
				c3.7,3.9,5.6,8.7,5.6,14.2s-1.9,10.3-5.5,14.2c-3.7,3.8-8.3,5.8-13.8,5.8C1033.4,485.5,1028.8,483.5,1025.1,479.7z M1048.4,476
				c2.5-2.8,3.7-6.3,3.7-10.5c0-4.1-1.2-7.6-3.7-10.4s-5.7-4.2-9.6-4.2c-3.8,0-7,1.4-9.5,4.2c-2.5,2.7-3.7,6.2-3.7,10.4
				c0,4.1,1.2,7.6,3.7,10.5c2.5,2.7,5.7,4.1,9.5,4.1C1042.7,480.1,1045.9,478.7,1048.4,476z"/>
			<path fill="#B8B9BA" d="M1120.8,467.3h-28.5c0.5,8,5.4,12.8,12.9,12.8c4.3,0,7.9-1.9,10.9-5.6l4,3.7c-4.1,4.9-9,7.3-14.9,7.3
				c-5.7,0-10.3-1.8-13.7-5.5c-3.4-3.7-5.1-8.4-5.1-14.3c0-5.8,1.6-10.6,4.7-14.4c3.2-3.9,7.4-5.9,12.7-5.9c3.9,0,7.2,1,9.8,3
				c5.4,4.1,7.3,9.8,7.3,16.1L1120.8,467.3z M1092.6,462.2h22.5c-0.5-6.8-4.8-11.2-11.1-11.2
				C1097.5,450.9,1093.6,455.5,1092.6,462.2z"/>
			<path fill="#B8B9BA" d="M1158.5,451.5V430h5.8v54.7h-5.5v-5.2c-3.5,4.1-7.9,6.1-13.1,6.1s-9.4-2-12.8-5.8s-5-8.6-5-14.2
				s1.6-10.4,5-14.2c3.4-3.9,7.6-5.9,12.8-5.9C1150.8,445.5,1155.1,447.5,1158.5,451.5z M1133.8,465.5c0,4.2,1.1,7.7,3.4,10.5
				c2.3,2.7,5.2,4.1,9,4.1s6.9-1.4,9.1-4.1c2.3-2.7,3.4-6.2,3.4-10.5s-1.2-7.7-3.4-10.5c-2.3-2.7-5.3-4.1-9.1-4.1s-6.8,1.4-9,4.1
				C1134.9,457.8,1133.8,461.3,1133.8,465.5z"/>
			<path fill="#B8B9BA" d="M1175.6,430.3c1.8-1.6,4.5-1.6,6.2,0c1.8,1.6,1.8,4.4,0,6.2c-1.6,1.6-4.4,1.6-6.2,0
				C1174,434.7,1174,432,1175.6,430.3z M1175.9,484.6v-38.2h5.8v38.2H1175.9z"/>
			<path fill="#B8B9BA" d="M1194.2,473.4v-21.7h-6.2v-5.3h6.2v-10.7h5.8v10.7h8.9v5.3h-8.9v20.8c0,5,1.2,6.9,5.8,6.9l3-0.1v5.2
				c-1,0.1-2.3,0.2-3.6,0.2C1197.8,484.8,1194.2,481.6,1194.2,473.4z"/>
			<path fill="#B8B9BA" d="M1244,446.4v4.6c2.2-3.1,6.4-5.5,11-5.5c5.2,0,9,2.1,11.4,6.3c2.9-4.2,6.9-6.3,11.9-6.3
				c9.8,0,14.7,5.6,14.7,16.9v22.2h-5.8v-22.7c0-7.4-3-11.1-8.9-11.1c-6.3,0-9.8,4.6-9.8,12.7v21.1h-5.8v-22.3
				c0-7.6-2.9-11.5-8.6-11.5c-6.6,0-10.1,4.6-10.1,12.7v21.1h-5.8v-38.2L1244,446.4L1244,446.4z"/>
			<path fill="#B8B9BA" d="M1306.4,479.7c-3.7-3.9-5.5-8.7-5.5-14.2s1.8-10.3,5.5-14.2c3.7-3.9,8.3-5.9,13.7-5.9
				c5.5,0,10.1,2,13.7,5.9c3.7,3.9,5.6,8.7,5.6,14.2s-1.9,10.3-5.5,14.2c-3.7,3.8-8.3,5.8-13.8,5.8
				C1314.7,485.5,1310.1,483.5,1306.4,479.7z M1329.8,476c2.5-2.8,3.7-6.3,3.7-10.5c0-4.1-1.2-7.6-3.7-10.4s-5.7-4.2-9.6-4.2
				c-3.8,0-7,1.4-9.5,4.2c-2.5,2.7-3.7,6.2-3.7,10.4c0,4.1,1.2,7.6,3.7,10.5c2.5,2.7,5.7,4.1,9.5,4.1
				C1324.1,480.1,1327.3,478.7,1329.8,476z"/>
			<path fill="#B8B9BA" d="M1377.2,451.5V430h5.8v54.7h-5.5v-5.2c-3.5,4.1-7.9,6.1-13.1,6.1s-9.4-2-12.8-5.8s-5-8.6-5-14.2
				s1.6-10.4,5-14.2c3.4-3.9,7.6-5.9,12.8-5.9C1369.5,445.5,1373.7,447.5,1377.2,451.5z M1352.5,465.5c0,4.2,1.1,7.7,3.4,10.5
				c2.3,2.7,5.2,4.1,9,4.1s6.9-1.4,9.1-4.1c2.3-2.7,3.4-6.2,3.4-10.5s-1.2-7.7-3.4-10.5c-2.3-2.7-5.3-4.1-9.1-4.1s-6.8,1.4-9,4.1
				C1353.5,457.8,1352.5,461.3,1352.5,465.5z"/>
			<path fill="#B8B9BA" d="M1425.7,467.3h-28.5c0.5,8,5.4,12.8,12.9,12.8c4.3,0,7.9-1.9,10.9-5.6l4,3.7c-4.1,4.9-9,7.3-14.9,7.3
				c-5.7,0-10.3-1.8-13.7-5.5c-3.4-3.7-5.1-8.4-5.1-14.3c0-5.8,1.6-10.6,4.7-14.4c3.2-3.9,7.4-5.9,12.7-5.9c3.9,0,7.2,1,9.8,3
				c5.4,4.1,7.3,9.8,7.3,16.1L1425.7,467.3z M1397.5,462.2h22.5c-0.5-6.8-4.8-11.2-11.1-11.2
				C1402.4,450.9,1398.5,455.5,1397.5,462.2z"/>
			<path fill="#B8B9BA" d="M1433.2,494.4h-6.2l7.4-18.6h7.3L1433.2,494.4z"/>
			<path fill="#B8B9BA" d="M631.4,558.2c-4.1,4.9-9.1,7.3-15.3,7.3c-5.5,0-10.1-2-13.7-5.8c-3.7-3.9-5.5-8.7-5.5-14.2
				s1.9-10.2,5.6-14.1c3.8-4,8.4-5.9,13.8-5.9c5.8,0,10.5,2.3,14.3,6.8l-3.9,3.8c-2.9-3.4-6.3-5.1-10.4-5.1c-3.9,0-7.1,1.4-9.7,4.2
				c-2.6,2.7-3.8,6.2-3.8,10.4c0,8.5,5.2,14.6,13.7,14.6c4.3,0,8-1.9,10.8-5.6L631.4,558.2z"/>
			<path fill="#B8B9BA" d="M638.9,564.6v-54.7h5.8v54.7H638.9z"/>
			<path fill="#B8B9BA" d="M656,510.3c1.8-1.6,4.5-1.6,6.2,0c1.8,1.6,1.8,4.4,0,6.2c-1.6,1.6-4.4,1.6-6.2,0
				C654.4,514.7,654.4,512,656,510.3z M656.2,564.6v-38.2h5.8v38.2H656.2z"/>
			<path fill="#B8B9BA" d="M705.5,558.2c-4.1,4.9-9.1,7.3-15.3,7.3c-5.5,0-10.1-2-13.7-5.8c-3.7-3.9-5.5-8.7-5.5-14.2
				s1.9-10.2,5.6-14.1c3.8-4,8.4-5.9,13.8-5.9c5.8,0,10.5,2.3,14.3,6.8l-3.9,3.8c-2.9-3.4-6.3-5.1-10.4-5.1c-3.9,0-7.1,1.4-9.7,4.2
				c-2.6,2.7-3.8,6.2-3.8,10.4c0,8.5,5.2,14.6,13.7,14.6c4.3,0,8-1.9,10.8-5.6L705.5,558.2z"/>
			<path fill="#B8B9BA" d="M712.9,564.6v-54.7h5.8v36l17.7-19.6h7.6l-14.9,16.1l15.8,22.1h-7.4L725,547.1l-6.2,6.8v10.8L712.9,564.6
				L712.9,564.6z"/>
			<path fill="#B8B9BA" d="M775.8,553.4v-21.7h-6.2v-5.3h6.2v-10.7h5.8v10.7h8.9v5.3h-8.9v20.8c0,5,1.2,6.9,5.9,6.9l3-0.1v5.2
				c-1,0.1-2.3,0.2-3.6,0.2C779.4,564.8,775.8,561.6,775.8,553.4z"/>
			<path fill="#B8B9BA" d="M804.1,509.9V531c2.6-3.4,7.2-5.5,11.9-5.5c9.8,0,15.2,6.1,15.2,16.9v22.2h-5.9v-22.7
				c0-7.1-3.6-11.1-9.8-11.1c-7.5,0-11.5,5.7-11.5,14.8v19h-5.8v-54.7L804.1,509.9L804.1,509.9z"/>
			<path fill="#B8B9BA" d="M872.2,547.3h-28.5c0.5,8,5.4,12.8,12.9,12.8c4.3,0,7.9-1.9,10.9-5.6l4,3.7c-4.1,4.9-9,7.3-14.9,7.3
				c-5.7,0-10.3-1.8-13.7-5.5s-5.1-8.4-5.1-14.3c0-5.8,1.6-10.6,4.7-14.4c3.2-3.9,7.4-5.9,12.7-5.9c3.9,0,7.2,1,9.8,3
				c5.4,4.1,7.3,9.8,7.3,16.1L872.2,547.3z M844,542.2h22.5c-0.5-6.8-4.8-11.2-11.1-11.2C848.9,530.9,845,535.5,844,542.2z"/>
			<path fill="#B8B9BA" d="M907.9,526.4v4.6c2.2-3.1,6.4-5.5,11-5.5c5.2,0,9,2.1,11.4,6.3c2.9-4.2,6.9-6.3,11.9-6.3
				c9.8,0,14.7,5.6,14.7,16.9v22.2h-5.8v-22.7c0-7.4-3-11.1-8.9-11.1c-6.3,0-9.8,4.6-9.8,12.7v21.1h-5.8v-22.3
				c0-7.6-2.9-11.5-8.6-11.5c-6.6,0-10.1,4.6-10.1,12.7v21.1h-5.8v-38.2H907.9z"/>
			<path fill="#B8B9BA" d="M964.9,553.9c0-7.6,5.7-12,14.1-12c2.8,0,6.3,0.6,10.5,1.9v-3.9c0-5.7-3.8-9-9.4-9c-4.7,0-8.4,2.8-10,6.3
				l-4-3.7c3-5.3,7.7-8,14-8c9.3,0,15.1,5.4,15.1,15v24.2h-5.6v-4c-2.9,3.2-6.8,4.8-11.9,4.8C970.5,565.5,964.9,561.1,964.9,553.9z
				 M978.1,560.3c4.7,0,9-2.7,11.4-6.1v-5.1c-3.7-1.2-7.1-1.9-10.1-1.9c-5.9,0-8.7,2.7-8.7,6.8C970.6,557.8,973.7,560.3,978.1,560.3
				z"/>
			<path fill="#B8B9BA" d="M1014.5,547.5c-7.3-1.7-10.8-5.4-10.8-11c0-3.4,1.3-6.1,3.9-8s5.7-3,9.3-3c5.1,0,9.6,2,13.6,6.2l-3.9,4.1
				c-3.1-3.3-6.5-4.9-10.1-4.9c-4.1,0-7,2.2-7,5.4c0,2.9,1.9,4.8,5.7,5.6l6,1.4c7.3,1.7,10.8,5.3,10.8,10.8
				c0,6.8-5.6,11.5-14.3,11.5c-6.6,0-12.3-3.1-15.4-7.2l3.8-4c3.1,3.9,6.9,5.8,11.5,5.8c5.4,0,8.6-2.2,8.6-5.8c0-2.7-2-4.6-6-5.5
				L1014.5,547.5z"/>
			<path fill="#B8B9BA" d="M1040.3,564.6v-54.7h5.8v36l17.7-19.6h7.6l-14.9,16.1l15.8,22.1h-7.4l-12.5-17.6l-6.2,6.8v10.8h-5.9
				V564.6z"/>
			<path fill="#B8B9BA" d="M1101.7,510.3c1.8-1.6,4.5-1.6,6.2,0c1.8,1.6,1.8,4.4,0,6.2c-1.6,1.6-4.4,1.6-6.2,0
				C1100,514.7,1100,512,1101.7,510.3z M1101.9,564.6v-38.2h5.8v38.2H1101.9z"/>
			<path fill="#B8B9BA" d="M1151.1,558.2c-4.1,4.9-9.1,7.3-15.3,7.3c-5.5,0-10.1-2-13.7-5.8c-3.7-3.9-5.5-8.7-5.5-14.2
				s1.9-10.2,5.6-14.1c3.8-4,8.4-5.9,13.8-5.9c5.8,0,10.5,2.3,14.3,6.8l-3.9,3.8c-2.9-3.4-6.3-5.1-10.4-5.1c-3.9,0-7.1,1.4-9.7,4.2
				c-2.6,2.7-3.8,6.2-3.8,10.4c0,8.5,5.2,14.6,13.7,14.6c4.3,0,8-1.9,10.8-5.6L1151.1,558.2z"/>
			<path fill="#B8B9BA" d="M1161,559.7c-3.7-3.9-5.5-8.7-5.5-14.2s1.8-10.3,5.5-14.2s8.3-5.9,13.7-5.9s10.1,2,13.7,5.9
				c3.7,3.9,5.6,8.7,5.6,14.2s-1.9,10.3-5.5,14.2c-3.7,3.8-8.3,5.8-13.8,5.8C1169.2,565.5,1164.6,563.5,1161,559.7z M1184.3,556
				c2.5-2.8,3.7-6.3,3.7-10.5c0-4.1-1.2-7.6-3.7-10.4c-2.5-2.8-5.7-4.2-9.6-4.2c-3.8,0-7,1.4-9.5,4.2c-2.5,2.7-3.7,6.2-3.7,10.4
				c0,4.1,1.2,7.6,3.7,10.5c2.5,2.7,5.7,4.1,9.5,4.1C1178.6,560.1,1181.8,558.7,1184.3,556z"/>
			<path fill="#B8B9BA" d="M1208,526.4v4.7c2.6-3.4,7.3-5.6,12.1-5.6c9.8,0,15.2,6.1,15.2,16.9v22.2h-5.9v-22.7
				c0-7.1-3.6-11.1-9.8-11.1c-7.5,0-11.5,5.7-11.5,14.8v19h-5.8v-38.2L1208,526.4L1208,526.4z"/>
			<path fill="#B8B9BA" d="M1291.9,564.6v-4.8c-3,3.8-7,5.7-12.1,5.7c-9.6,0-14.4-5.6-14.4-16.8v-22.2h5.8V549
				c0,7.3,3.2,11.2,9.4,11.2c7.4,0,11.1-5.4,11.1-14.7v-19h5.8v38.2h-5.6V564.6z"/>
			<path fill="#B8B9BA" d="M1314.2,579.8h-5.8v-53.4h5.6v5.2c3.5-4.1,7.9-6.2,13-6.2c5.2,0,9.4,2,12.8,5.9c3.4,3.8,5,8.6,5,14.2
				s-1.6,10.4-5,14.2s-7.6,5.8-12.8,5.8c-5.2,0-9.5-2-12.9-5.9v20.2H1314.2z M1339,545.5c0-4.2-1.1-7.7-3.4-10.5
				c-2.3-2.7-5.2-4.1-9-4.1s-6.9,1.4-9.1,4.1c-2.3,2.7-3.4,6.2-3.4,10.5s1.1,7.7,3.4,10.5s5.3,4.1,9.1,4.1s6.8-1.4,9-4.1
				C1337.9,553.2,1339,549.7,1339,545.5z"/>
			<path fill="#B8B9BA" d="M599.1,590.3c1.8-1.6,4.5-1.6,6.2,0c1.8,1.6,1.8,4.4,0,6.2c-1.6,1.6-4.4,1.6-6.2,0
				C597.4,594.7,597.4,592,599.1,590.3z M599.3,644.6v-38.2h5.8v38.2H599.3z"/>
			<path fill="#B8B9BA" d="M622.3,606.4v4.7c2.6-3.4,7.3-5.6,12.1-5.6c9.8,0,15.2,6.1,15.2,16.9v22.2h-5.9v-22.7
				c0-7.1-3.6-11.1-9.8-11.1c-7.5,0-11.5,5.7-11.5,14.8v19h-5.8v-38.2L622.3,606.4L622.3,606.4z"/>
			<path fill="#B8B9BA" d="M682.8,633.4v-21.7h-6.2v-5.3h6.2v-10.7h5.8v10.7h8.9v5.3h-8.9v20.8c0,5,1.2,6.9,5.9,6.9l3-0.1v5.2
				c-1,0.1-2.3,0.2-3.6,0.2C686.3,644.8,682.8,641.6,682.8,633.4z"/>
			<path fill="#B8B9BA" d="M711.1,589.9V611c2.6-3.4,7.2-5.5,11.9-5.5c9.8,0,15.2,6.1,15.2,16.9v22.2h-5.9v-22.7
				c0-7.1-3.6-11.1-9.8-11.1c-7.5,0-11.5,5.7-11.5,14.8v19h-5.8v-54.7H711.1z"/>
			<path fill="#B8B9BA" d="M779.2,627.3h-28.5c0.5,8,5.4,12.8,12.9,12.8c4.3,0,7.9-1.9,10.9-5.6l4,3.7c-4.1,4.9-9,7.3-14.9,7.3
				c-5.7,0-10.3-1.8-13.7-5.5s-5.1-8.4-5.1-14.3c0-5.8,1.6-10.6,4.7-14.4c3.2-3.9,7.4-5.8,12.7-5.8c3.9,0,7.2,1,9.8,3
				c5.4,4.1,7.3,9.8,7.3,16.1L779.2,627.3z M750.9,622.2h22.5c-0.5-6.8-4.8-11.2-11.1-11.2C755.8,610.9,751.9,615.5,750.9,622.2z"/>
			<path fill="#B8B9BA" d="M811.1,633.4v-21.7h-6.2v-5.3h6.2v-10.7h5.8v10.7h8.9v5.3h-8.9v20.8c0,5,1.2,6.9,5.9,6.9l3-0.1v5.2
				c-1,0.1-2.3,0.2-3.6,0.2C814.6,644.8,811.1,641.6,811.1,633.4z"/>
			<path fill="#B8B9BA" d="M836.8,639.7c-3.7-3.9-5.5-8.7-5.5-14.2s1.8-10.3,5.5-14.2s8.3-5.8,13.7-5.8c5.5,0,10.1,2,13.7,5.8
				c3.7,3.9,5.6,8.7,5.6,14.2s-1.9,10.3-5.5,14.2c-3.7,3.8-8.3,5.8-13.8,5.8C845.1,645.5,840.5,643.5,836.8,639.7z M860.1,636
				c2.5-2.8,3.7-6.3,3.7-10.5c0-4.1-1.2-7.6-3.7-10.4c-2.5-2.8-5.7-4.2-9.6-4.2c-3.8,0-7,1.4-9.5,4.2c-2.5,2.7-3.7,6.2-3.7,10.4
				c0,4.1,1.2,7.6,3.7,10.5c2.5,2.7,5.7,4.1,9.5,4.1C854.4,640.1,857.6,638.7,860.1,636z"/>
			<path fill="#B8B9BA" d="M882.4,639.7c-3.7-3.9-5.5-8.7-5.5-14.2s1.8-10.3,5.5-14.2s8.3-5.8,13.7-5.8c5.5,0,10.1,2,13.7,5.8
				c3.7,3.9,5.6,8.7,5.6,14.2s-1.9,10.3-5.5,14.2c-3.7,3.8-8.3,5.8-13.8,5.8C890.6,645.5,886,643.5,882.4,639.7z M905.7,636
				c2.5-2.8,3.7-6.3,3.7-10.5c0-4.1-1.2-7.6-3.7-10.4c-2.5-2.8-5.7-4.2-9.6-4.2c-3.8,0-7,1.4-9.5,4.2c-2.5,2.7-3.7,6.2-3.7,10.4
				c0,4.1,1.2,7.6,3.7,10.5c2.5,2.7,5.7,4.1,9.5,4.1C900,640.1,903.2,638.7,905.7,636z"/>
			<path fill="#B8B9BA" d="M923.8,644.6v-54.7h5.8v54.7H923.8z"/>
			<path fill="#B8B9BA" d="M967,644.6h-5.6v-54.7h5.8v21.5c3.4-4,7.7-6,12.9-6s9.4,2,12.8,5.8c3.4,3.8,5,8.6,5,14.2
				s-1.6,10.4-5,14.2s-7.6,5.8-12.8,5.8s-9.5-2-13-6.1v5.3H967z M991.9,625.5c0-4.2-1.1-7.7-3.4-10.5c-2.3-2.7-5.2-4.1-9-4.1
				s-6.9,1.4-9.1,4.1c-2.3,2.7-3.4,6.2-3.4,10.5c0,4.2,1.1,7.7,3.4,10.5c2.3,2.7,5.3,4.1,9.1,4.1s6.8-1.4,9-4.1
				C990.8,633.2,991.9,629.7,991.9,625.5z"/>
			<path fill="#B8B9BA" d="M1004.3,633.9c0-7.6,5.7-12,14.1-12c2.8,0,6.3,0.6,10.5,1.9v-3.9c0-5.7-3.8-9-9.4-9
				c-4.7,0-8.4,2.8-10,6.3l-4-3.7c3-5.3,7.7-8,14-8c9.3,0,15.1,5.4,15.1,15v24.2h-5.6v-4c-2.9,3.2-6.8,4.8-11.9,4.8
				C1010,645.5,1004.3,641.1,1004.3,633.9z M1017.5,640.3c4.7,0,9-2.7,11.4-6.1v-5.1c-3.7-1.2-7.1-1.9-10.1-1.9
				c-5.9,0-8.7,2.7-8.7,6.8C1010.1,637.8,1013.2,640.3,1017.5,640.3z"/>
			<path fill="#B8B9BA" d="M1065,611.5c-0.4-0.1-0.9-0.1-1.3-0.1c-9,0-12.7,4.5-12.7,16.9v16.3h-5.8v-38.2h5.6v5.1
				c3.4-4.1,6.9-5.6,12.5-5.6c0.5,0,1.2,0,1.7,0.1L1065,611.5L1065,611.5z"/>
			<path fill="#B8B9BA" d="M1075.2,640.9c0,2.6-2,4.6-4.8,4.6c-2.6,0-4.6-2-4.6-4.6s2-4.7,4.6-4.7
				C1073.1,636.2,1075.2,638.2,1075.2,640.9z"/>
		</g>
		<g>
			<path fill="#B8B9BA" d="M595.2,429.9h40.4v5.6h-17.5v49.1h-5.9v-49.1h-17V429.9z"/>
			<path fill="#B8B9BA" d="M639.5,479.7c-3.7-3.9-5.5-8.7-5.5-14.2s1.8-10.3,5.5-14.2c3.7-3.9,8.3-5.9,13.7-5.9
				c5.5,0,10.1,2,13.7,5.9c3.7,3.9,5.6,8.7,5.6,14.2s-1.9,10.3-5.5,14.2c-3.7,3.8-8.3,5.8-13.8,5.8
				C647.8,485.5,643.2,483.5,639.5,479.7z M662.9,476c2.5-2.8,3.7-6.3,3.7-10.5c0-4.1-1.2-7.6-3.7-10.4s-5.7-4.2-9.6-4.2
				c-3.8,0-7,1.4-9.5,4.2c-2.5,2.7-3.7,6.2-3.7,10.4c0,4.1,1.2,7.6,3.7,10.5c2.5,2.7,5.7,4.1,9.5,4.1
				C657.2,480.1,660.4,478.7,662.9,476z"/>
			<path fill="#B8B9BA" d="M706.4,488.1c2.7,4.8,6.6,7.3,11.6,7.3c8.2,0,12.6-5.3,12.6-13.3v-4c-2.9,3.8-7,5.8-12.5,5.8
				c-4.9,0-9-1.8-12.3-5.5s-5-8.2-5-13.7s1.6-10.1,5-13.7s7.4-5.5,12.3-5.5c5.4,0,9.6,2,12.6,5.9v-4.9h5.6v35.1
				c0,11.6-7.1,19.1-18.4,19.1c-6.9,0-12.2-2.8-15.8-8.5L706.4,488.1z M710.1,474.5c2.3,2.6,5.1,3.8,8.6,3.8s6.4-1.2,8.7-3.8
				c2.3-2.6,3.4-5.8,3.4-9.8c0-4.1-1.2-7.3-3.4-9.9c-2.3-2.6-5.1-3.8-8.7-3.8c-3.5,0-6.3,1.2-8.6,3.8s-3.4,5.9-3.4,9.9
				C706.8,468.6,707.9,471.9,710.1,474.5z"/>
			<path fill="#B8B9BA" d="M750.2,479.7c-3.7-3.9-5.5-8.7-5.5-14.2s1.8-10.3,5.5-14.2c3.7-3.9,8.3-5.9,13.7-5.9
				c5.5,0,10.1,2,13.7,5.9c3.7,3.9,5.6,8.7,5.6,14.2s-1.9,10.3-5.5,14.2c-3.7,3.8-8.3,5.8-13.8,5.8
				C758.5,485.5,753.9,483.5,750.2,479.7z M773.5,476c2.5-2.8,3.7-6.3,3.7-10.5c0-4.1-1.2-7.6-3.7-10.4s-5.7-4.2-9.6-4.2
				c-3.8,0-7,1.4-9.5,4.2c-2.5,2.7-3.7,6.2-3.7,10.4c0,4.1,1.2,7.6,3.7,10.5c2.5,2.7,5.7,4.1,9.5,4.1
				C767.9,480.1,771.1,478.7,773.5,476z"/>
			<path fill="#B8B9BA" d="M818.9,484.6h-5.6v-54.7h5.8v21.5c3.4-4,7.7-6,12.9-6s9.4,2,12.8,5.9c3.4,3.8,5,8.6,5,14.2
				s-1.6,10.4-5,14.2c-3.4,3.8-7.6,5.8-12.8,5.8s-9.5-2-13-6.1v5.2H818.9z M843.8,465.5c0-4.2-1.1-7.7-3.4-10.5
				c-2.3-2.7-5.2-4.1-9-4.1s-6.9,1.4-9.1,4.1c-2.3,2.7-3.4,6.2-3.4,10.5s1.1,7.7,3.4,10.5c2.3,2.7,5.3,4.1,9.1,4.1s6.8-1.4,9-4.1
				S843.8,469.7,843.8,465.5z"/>
			<path fill="#B8B9BA" d="M856.3,473.9c0-7.6,5.7-12,14.1-12c2.8,0,6.3,0.6,10.5,1.9v-3.9c0-5.7-3.8-9-9.4-9c-4.7,0-8.4,2.8-10,6.3
				l-4-3.7c3-5.3,7.7-8,14-8c9.3,0,15.1,5.4,15.1,15v24.2H881v-4c-2.9,3.2-6.8,4.8-11.9,4.8C861.9,485.5,856.3,481.1,856.3,473.9z
				 M869.5,480.3c4.7,0,9-2.7,11.4-6.1v-5.1c-3.7-1.2-7.1-1.9-10.1-1.9c-5.9,0-8.7,2.7-8.7,6.8C862.1,477.8,865.1,480.3,869.5,480.3
				z"/>
			<path fill="#B8B9BA" d="M929,478.2c-4.1,4.9-9.1,7.3-15.3,7.3c-5.5,0-10.1-2-13.7-5.8c-3.7-3.9-5.5-8.7-5.5-14.2
				s1.9-10.2,5.6-14.1c3.8-4,8.4-5.9,13.8-5.9c5.8,0,10.5,2.3,14.3,6.8l-3.9,3.8c-2.9-3.4-6.3-5.1-10.4-5.1c-3.9,0-7.1,1.4-9.7,4.2
				c-2.6,2.7-3.8,6.2-3.8,10.4c0,8.5,5.2,14.6,13.7,14.6c4.3,0,8-1.9,10.8-5.6L929,478.2z"/>
			<path fill="#B8B9BA" d="M936.5,484.6v-54.7h5.8v36l17.7-19.6h7.6l-14.9,16.1l15.8,22.1H961l-12.5-17.6l-6.2,6.8v10.8h-5.8V484.6z
				"/>
			<path fill="#B8B9BA" d="M999.4,473.4v-21.7h-6.2v-5.3h6.2v-10.7h5.8v10.7h8.9v5.3h-8.9v20.8c0,5,1.2,6.9,5.8,6.9l3-0.1v5.2
				c-1,0.1-2.3,0.2-3.6,0.2C1002.9,484.8,999.4,481.6,999.4,473.4z"/>
			<path fill="#B8B9BA" d="M1025.1,479.7c-3.7-3.9-5.5-8.7-5.5-14.2s1.8-10.3,5.5-14.2c3.7-3.9,8.3-5.9,13.7-5.9s10.1,2,13.7,5.9
				c3.7,3.9,5.6,8.7,5.6,14.2s-1.9,10.3-5.5,14.2c-3.7,3.8-8.3,5.8-13.8,5.8C1033.4,485.5,1028.8,483.5,1025.1,479.7z M1048.4,476
				c2.5-2.8,3.7-6.3,3.7-10.5c0-4.1-1.2-7.6-3.7-10.4s-5.7-4.2-9.6-4.2c-3.8,0-7,1.4-9.5,4.2c-2.5,2.7-3.7,6.2-3.7,10.4
				c0,4.1,1.2,7.6,3.7,10.5c2.5,2.7,5.7,4.1,9.5,4.1C1042.7,480.1,1045.9,478.7,1048.4,476z"/>
			<path fill="#B8B9BA" d="M1120.8,467.3h-28.5c0.5,8,5.4,12.8,12.9,12.8c4.3,0,7.9-1.9,10.9-5.6l4,3.7c-4.1,4.9-9,7.3-14.9,7.3
				c-5.7,0-10.3-1.8-13.7-5.5c-3.4-3.7-5.1-8.4-5.1-14.3c0-5.8,1.6-10.6,4.7-14.4c3.2-3.9,7.4-5.9,12.7-5.9c3.9,0,7.2,1,9.8,3
				c5.4,4.1,7.3,9.8,7.3,16.1L1120.8,467.3z M1092.6,462.2h22.5c-0.5-6.8-4.8-11.2-11.1-11.2
				C1097.5,450.9,1093.6,455.5,1092.6,462.2z"/>
			<path fill="#B8B9BA" d="M1158.5,451.5V430h5.8v54.7h-5.5v-5.2c-3.5,4.1-7.9,6.1-13.1,6.1s-9.4-2-12.8-5.8s-5-8.6-5-14.2
				s1.6-10.4,5-14.2c3.4-3.9,7.6-5.9,12.8-5.9C1150.8,445.5,1155.1,447.5,1158.5,451.5z M1133.8,465.5c0,4.2,1.1,7.7,3.4,10.5
				c2.3,2.7,5.2,4.1,9,4.1s6.9-1.4,9.1-4.1c2.3-2.7,3.4-6.2,3.4-10.5s-1.2-7.7-3.4-10.5c-2.3-2.7-5.3-4.1-9.1-4.1s-6.8,1.4-9,4.1
				C1134.9,457.8,1133.8,461.3,1133.8,465.5z"/>
			<path fill="#B8B9BA" d="M1175.6,430.3c1.8-1.6,4.5-1.6,6.2,0c1.8,1.6,1.8,4.4,0,6.2c-1.6,1.6-4.4,1.6-6.2,0
				C1174,434.7,1174,432,1175.6,430.3z M1175.9,484.6v-38.2h5.8v38.2H1175.9z"/>
			<path fill="#B8B9BA" d="M1194.2,473.4v-21.7h-6.2v-5.3h6.2v-10.7h5.8v10.7h8.9v5.3h-8.9v20.8c0,5,1.2,6.9,5.8,6.9l3-0.1v5.2
				c-1,0.1-2.3,0.2-3.6,0.2C1197.8,484.8,1194.2,481.6,1194.2,473.4z"/>
			<path fill="#B8B9BA" d="M1244,446.4v4.6c2.2-3.1,6.4-5.5,11-5.5c5.2,0,9,2.1,11.4,6.3c2.9-4.2,6.9-6.3,11.9-6.3
				c9.8,0,14.7,5.6,14.7,16.9v22.2h-5.8v-22.7c0-7.4-3-11.1-8.9-11.1c-6.3,0-9.8,4.6-9.8,12.7v21.1h-5.8v-22.3
				c0-7.6-2.9-11.5-8.6-11.5c-6.6,0-10.1,4.6-10.1,12.7v21.1h-5.8v-38.2L1244,446.4L1244,446.4z"/>
			<path fill="#B8B9BA" d="M1306.4,479.7c-3.7-3.9-5.5-8.7-5.5-14.2s1.8-10.3,5.5-14.2c3.7-3.9,8.3-5.9,13.7-5.9
				c5.5,0,10.1,2,13.7,5.9c3.7,3.9,5.6,8.7,5.6,14.2s-1.9,10.3-5.5,14.2c-3.7,3.8-8.3,5.8-13.8,5.8
				C1314.7,485.5,1310.1,483.5,1306.4,479.7z M1329.8,476c2.5-2.8,3.7-6.3,3.7-10.5c0-4.1-1.2-7.6-3.7-10.4s-5.7-4.2-9.6-4.2
				c-3.8,0-7,1.4-9.5,4.2c-2.5,2.7-3.7,6.2-3.7,10.4c0,4.1,1.2,7.6,3.7,10.5c2.5,2.7,5.7,4.1,9.5,4.1
				C1324.1,480.1,1327.3,478.7,1329.8,476z"/>
			<path fill="#B8B9BA" d="M1377.2,451.5V430h5.8v54.7h-5.5v-5.2c-3.5,4.1-7.9,6.1-13.1,6.1s-9.4-2-12.8-5.8s-5-8.6-5-14.2
				s1.6-10.4,5-14.2c3.4-3.9,7.6-5.9,12.8-5.9C1369.5,445.5,1373.7,447.5,1377.2,451.5z M1352.5,465.5c0,4.2,1.1,7.7,3.4,10.5
				c2.3,2.7,5.2,4.1,9,4.1s6.9-1.4,9.1-4.1c2.3-2.7,3.4-6.2,3.4-10.5s-1.2-7.7-3.4-10.5c-2.3-2.7-5.3-4.1-9.1-4.1s-6.8,1.4-9,4.1
				C1353.5,457.8,1352.5,461.3,1352.5,465.5z"/>
			<path fill="#B8B9BA" d="M1425.7,467.3h-28.5c0.5,8,5.4,12.8,12.9,12.8c4.3,0,7.9-1.9,10.9-5.6l4,3.7c-4.1,4.9-9,7.3-14.9,7.3
				c-5.7,0-10.3-1.8-13.7-5.5c-3.4-3.7-5.1-8.4-5.1-14.3c0-5.8,1.6-10.6,4.7-14.4c3.2-3.9,7.4-5.9,12.7-5.9c3.9,0,7.2,1,9.8,3
				c5.4,4.1,7.3,9.8,7.3,16.1L1425.7,467.3z M1397.5,462.2h22.5c-0.5-6.8-4.8-11.2-11.1-11.2
				C1402.4,450.9,1398.5,455.5,1397.5,462.2z"/>
			<path fill="#B8B9BA" d="M1433.2,494.4h-6.2l7.4-18.6h7.3L1433.2,494.4z"/>
			<path fill="#B8B9BA" d="M631.4,558.2c-4.1,4.9-9.1,7.3-15.3,7.3c-5.5,0-10.1-2-13.7-5.8c-3.7-3.9-5.5-8.7-5.5-14.2
				s1.9-10.2,5.6-14.1c3.8-4,8.4-5.9,13.8-5.9c5.8,0,10.5,2.3,14.3,6.8l-3.9,3.8c-2.9-3.4-6.3-5.1-10.4-5.1c-3.9,0-7.1,1.4-9.7,4.2
				c-2.6,2.7-3.8,6.2-3.8,10.4c0,8.5,5.2,14.6,13.7,14.6c4.3,0,8-1.9,10.8-5.6L631.4,558.2z"/>
			<path fill="#B8B9BA" d="M638.9,564.6v-54.7h5.8v54.7H638.9z"/>
			<path fill="#B8B9BA" d="M656,510.3c1.8-1.6,4.5-1.6,6.2,0c1.8,1.6,1.8,4.4,0,6.2c-1.6,1.6-4.4,1.6-6.2,0
				C654.4,514.7,654.4,512,656,510.3z M656.2,564.6v-38.2h5.8v38.2H656.2z"/>
			<path fill="#B8B9BA" d="M705.5,558.2c-4.1,4.9-9.1,7.3-15.3,7.3c-5.5,0-10.1-2-13.7-5.8c-3.7-3.9-5.5-8.7-5.5-14.2
				s1.9-10.2,5.6-14.1c3.8-4,8.4-5.9,13.8-5.9c5.8,0,10.5,2.3,14.3,6.8l-3.9,3.8c-2.9-3.4-6.3-5.1-10.4-5.1c-3.9,0-7.1,1.4-9.7,4.2
				c-2.6,2.7-3.8,6.2-3.8,10.4c0,8.5,5.2,14.6,13.7,14.6c4.3,0,8-1.9,10.8-5.6L705.5,558.2z"/>
			<path fill="#B8B9BA" d="M712.9,564.6v-54.7h5.8v36l17.7-19.6h7.6l-14.9,16.1l15.8,22.1h-7.4L725,547.1l-6.2,6.8v10.8L712.9,564.6
				L712.9,564.6z"/>
			<path fill="#B8B9BA" d="M775.8,553.4v-21.7h-6.2v-5.3h6.2v-10.7h5.8v10.7h8.9v5.3h-8.9v20.8c0,5,1.2,6.9,5.9,6.9l3-0.1v5.2
				c-1,0.1-2.3,0.2-3.6,0.2C779.4,564.8,775.8,561.6,775.8,553.4z"/>
			<path fill="#B8B9BA" d="M804.1,509.9V531c2.6-3.4,7.2-5.5,11.9-5.5c9.8,0,15.2,6.1,15.2,16.9v22.2h-5.9v-22.7
				c0-7.1-3.6-11.1-9.8-11.1c-7.5,0-11.5,5.7-11.5,14.8v19h-5.8v-54.7L804.1,509.9L804.1,509.9z"/>
			<path fill="#B8B9BA" d="M872.2,547.3h-28.5c0.5,8,5.4,12.8,12.9,12.8c4.3,0,7.9-1.9,10.9-5.6l4,3.7c-4.1,4.9-9,7.3-14.9,7.3
				c-5.7,0-10.3-1.8-13.7-5.5s-5.1-8.4-5.1-14.3c0-5.8,1.6-10.6,4.7-14.4c3.2-3.9,7.4-5.9,12.7-5.9c3.9,0,7.2,1,9.8,3
				c5.4,4.1,7.3,9.8,7.3,16.1L872.2,547.3z M844,542.2h22.5c-0.5-6.8-4.8-11.2-11.1-11.2C848.9,530.9,845,535.5,844,542.2z"/>
			<path fill="#B8B9BA" d="M907.9,526.4v4.6c2.2-3.1,6.4-5.5,11-5.5c5.2,0,9,2.1,11.4,6.3c2.9-4.2,6.9-6.3,11.9-6.3
				c9.8,0,14.7,5.6,14.7,16.9v22.2h-5.8v-22.7c0-7.4-3-11.1-8.9-11.1c-6.3,0-9.8,4.6-9.8,12.7v21.1h-5.8v-22.3
				c0-7.6-2.9-11.5-8.6-11.5c-6.6,0-10.1,4.6-10.1,12.7v21.1h-5.8v-38.2H907.9z"/>
			<path fill="#B8B9BA" d="M964.9,553.9c0-7.6,5.7-12,14.1-12c2.8,0,6.3,0.6,10.5,1.9v-3.9c0-5.7-3.8-9-9.4-9c-4.7,0-8.4,2.8-10,6.3
				l-4-3.7c3-5.3,7.7-8,14-8c9.3,0,15.1,5.4,15.1,15v24.2h-5.6v-4c-2.9,3.2-6.8,4.8-11.9,4.8C970.5,565.5,964.9,561.1,964.9,553.9z
				 M978.1,560.3c4.7,0,9-2.7,11.4-6.1v-5.1c-3.7-1.2-7.1-1.9-10.1-1.9c-5.9,0-8.7,2.7-8.7,6.8C970.6,557.8,973.7,560.3,978.1,560.3
				z"/>
			<path fill="#B8B9BA" d="M1014.5,547.5c-7.3-1.7-10.8-5.4-10.8-11c0-3.4,1.3-6.1,3.9-8s5.7-3,9.3-3c5.1,0,9.6,2,13.6,6.2l-3.9,4.1
				c-3.1-3.3-6.5-4.9-10.1-4.9c-4.1,0-7,2.2-7,5.4c0,2.9,1.9,4.8,5.7,5.6l6,1.4c7.3,1.7,10.8,5.3,10.8,10.8
				c0,6.8-5.6,11.5-14.3,11.5c-6.6,0-12.3-3.1-15.4-7.2l3.8-4c3.1,3.9,6.9,5.8,11.5,5.8c5.4,0,8.6-2.2,8.6-5.8c0-2.7-2-4.6-6-5.5
				L1014.5,547.5z"/>
			<path fill="#B8B9BA" d="M1040.3,564.6v-54.7h5.8v36l17.7-19.6h7.6l-14.9,16.1l15.8,22.1h-7.4l-12.5-17.6l-6.2,6.8v10.8h-5.9
				V564.6z"/>
			<path fill="#B8B9BA" d="M1101.7,510.3c1.8-1.6,4.5-1.6,6.2,0c1.8,1.6,1.8,4.4,0,6.2c-1.6,1.6-4.4,1.6-6.2,0
				C1100,514.7,1100,512,1101.7,510.3z M1101.9,564.6v-38.2h5.8v38.2H1101.9z"/>
			<path fill="#B8B9BA" d="M1151.1,558.2c-4.1,4.9-9.1,7.3-15.3,7.3c-5.5,0-10.1-2-13.7-5.8c-3.7-3.9-5.5-8.7-5.5-14.2
				s1.9-10.2,5.6-14.1c3.8-4,8.4-5.9,13.8-5.9c5.8,0,10.5,2.3,14.3,6.8l-3.9,3.8c-2.9-3.4-6.3-5.1-10.4-5.1c-3.9,0-7.1,1.4-9.7,4.2
				c-2.6,2.7-3.8,6.2-3.8,10.4c0,8.5,5.2,14.6,13.7,14.6c4.3,0,8-1.9,10.8-5.6L1151.1,558.2z"/>
			<path fill="#B8B9BA" d="M1161,559.7c-3.7-3.9-5.5-8.7-5.5-14.2s1.8-10.3,5.5-14.2s8.3-5.9,13.7-5.9s10.1,2,13.7,5.9
				c3.7,3.9,5.6,8.7,5.6,14.2s-1.9,10.3-5.5,14.2c-3.7,3.8-8.3,5.8-13.8,5.8C1169.2,565.5,1164.6,563.5,1161,559.7z M1184.3,556
				c2.5-2.8,3.7-6.3,3.7-10.5c0-4.1-1.2-7.6-3.7-10.4c-2.5-2.8-5.7-4.2-9.6-4.2c-3.8,0-7,1.4-9.5,4.2c-2.5,2.7-3.7,6.2-3.7,10.4
				c0,4.1,1.2,7.6,3.7,10.5c2.5,2.7,5.7,4.1,9.5,4.1C1178.6,560.1,1181.8,558.7,1184.3,556z"/>
			<path fill="#B8B9BA" d="M1208,526.4v4.7c2.6-3.4,7.3-5.6,12.1-5.6c9.8,0,15.2,6.1,15.2,16.9v22.2h-5.9v-22.7
				c0-7.1-3.6-11.1-9.8-11.1c-7.5,0-11.5,5.7-11.5,14.8v19h-5.8v-38.2L1208,526.4L1208,526.4z"/>
			<path fill="#B8B9BA" d="M1291.9,564.6v-4.8c-3,3.8-7,5.7-12.1,5.7c-9.6,0-14.4-5.6-14.4-16.8v-22.2h5.8V549
				c0,7.3,3.2,11.2,9.4,11.2c7.4,0,11.1-5.4,11.1-14.7v-19h5.8v38.2h-5.6V564.6z"/>
			<path fill="#B8B9BA" d="M1314.2,579.8h-5.8v-53.4h5.6v5.2c3.5-4.1,7.9-6.2,13-6.2c5.2,0,9.4,2,12.8,5.9c3.4,3.8,5,8.6,5,14.2
				s-1.6,10.4-5,14.2s-7.6,5.8-12.8,5.8c-5.2,0-9.5-2-12.9-5.9v20.2H1314.2z M1339,545.5c0-4.2-1.1-7.7-3.4-10.5
				c-2.3-2.7-5.2-4.1-9-4.1s-6.9,1.4-9.1,4.1c-2.3,2.7-3.4,6.2-3.4,10.5s1.1,7.7,3.4,10.5s5.3,4.1,9.1,4.1s6.8-1.4,9-4.1
				C1337.9,553.2,1339,549.7,1339,545.5z"/>
			<path fill="#B8B9BA" d="M599.1,590.3c1.8-1.6,4.5-1.6,6.2,0c1.8,1.6,1.8,4.4,0,6.2c-1.6,1.6-4.4,1.6-6.2,0
				C597.4,594.7,597.4,592,599.1,590.3z M599.3,644.6v-38.2h5.8v38.2H599.3z"/>
			<path fill="#B8B9BA" d="M622.3,606.4v4.7c2.6-3.4,7.3-5.6,12.1-5.6c9.8,0,15.2,6.1,15.2,16.9v22.2h-5.9v-22.7
				c0-7.1-3.6-11.1-9.8-11.1c-7.5,0-11.5,5.7-11.5,14.8v19h-5.8v-38.2L622.3,606.4L622.3,606.4z"/>
			<path fill="#B8B9BA" d="M682.8,633.4v-21.7h-6.2v-5.3h6.2v-10.7h5.8v10.7h8.9v5.3h-8.9v20.8c0,5,1.2,6.9,5.9,6.9l3-0.1v5.2
				c-1,0.1-2.3,0.2-3.6,0.2C686.3,644.8,682.8,641.6,682.8,633.4z"/>
			<path fill="#B8B9BA" d="M711.1,589.9V611c2.6-3.4,7.2-5.5,11.9-5.5c9.8,0,15.2,6.1,15.2,16.9v22.2h-5.9v-22.7
				c0-7.1-3.6-11.1-9.8-11.1c-7.5,0-11.5,5.7-11.5,14.8v19h-5.8v-54.7H711.1z"/>
			<path fill="#B8B9BA" d="M779.2,627.3h-28.5c0.5,8,5.4,12.8,12.9,12.8c4.3,0,7.9-1.9,10.9-5.6l4,3.7c-4.1,4.9-9,7.3-14.9,7.3
				c-5.7,0-10.3-1.8-13.7-5.5s-5.1-8.4-5.1-14.3c0-5.8,1.6-10.6,4.7-14.4c3.2-3.9,7.4-5.8,12.7-5.8c3.9,0,7.2,1,9.8,3
				c5.4,4.1,7.3,9.8,7.3,16.1L779.2,627.3z M750.9,622.2h22.5c-0.5-6.8-4.8-11.2-11.1-11.2C755.8,610.9,751.9,615.5,750.9,622.2z"/>
			<path fill="#B8B9BA" d="M811.1,633.4v-21.7h-6.2v-5.3h6.2v-10.7h5.8v10.7h8.9v5.3h-8.9v20.8c0,5,1.2,6.9,5.9,6.9l3-0.1v5.2
				c-1,0.1-2.3,0.2-3.6,0.2C814.6,644.8,811.1,641.6,811.1,633.4z"/>
			<path fill="#B8B9BA" d="M836.8,639.7c-3.7-3.9-5.5-8.7-5.5-14.2s1.8-10.3,5.5-14.2s8.3-5.8,13.7-5.8c5.5,0,10.1,2,13.7,5.8
				c3.7,3.9,5.6,8.7,5.6,14.2s-1.9,10.3-5.5,14.2c-3.7,3.8-8.3,5.8-13.8,5.8C845.1,645.5,840.5,643.5,836.8,639.7z M860.1,636
				c2.5-2.8,3.7-6.3,3.7-10.5c0-4.1-1.2-7.6-3.7-10.4c-2.5-2.8-5.7-4.2-9.6-4.2c-3.8,0-7,1.4-9.5,4.2c-2.5,2.7-3.7,6.2-3.7,10.4
				c0,4.1,1.2,7.6,3.7,10.5c2.5,2.7,5.7,4.1,9.5,4.1C854.4,640.1,857.6,638.7,860.1,636z"/>
			<path fill="#B8B9BA" d="M882.4,639.7c-3.7-3.9-5.5-8.7-5.5-14.2s1.8-10.3,5.5-14.2s8.3-5.8,13.7-5.8c5.5,0,10.1,2,13.7,5.8
				c3.7,3.9,5.6,8.7,5.6,14.2s-1.9,10.3-5.5,14.2c-3.7,3.8-8.3,5.8-13.8,5.8C890.6,645.5,886,643.5,882.4,639.7z M905.7,636
				c2.5-2.8,3.7-6.3,3.7-10.5c0-4.1-1.2-7.6-3.7-10.4c-2.5-2.8-5.7-4.2-9.6-4.2c-3.8,0-7,1.4-9.5,4.2c-2.5,2.7-3.7,6.2-3.7,10.4
				c0,4.1,1.2,7.6,3.7,10.5c2.5,2.7,5.7,4.1,9.5,4.1C900,640.1,903.2,638.7,905.7,636z"/>
			<path fill="#B8B9BA" d="M923.8,644.6v-54.7h5.8v54.7H923.8z"/>
			<path fill="#B8B9BA" d="M967,644.6h-5.6v-54.7h5.8v21.5c3.4-4,7.7-6,12.9-6s9.4,2,12.8,5.8c3.4,3.8,5,8.6,5,14.2
				s-1.6,10.4-5,14.2s-7.6,5.8-12.8,5.8s-9.5-2-13-6.1v5.3H967z M991.9,625.5c0-4.2-1.1-7.7-3.4-10.5c-2.3-2.7-5.2-4.1-9-4.1
				s-6.9,1.4-9.1,4.1c-2.3,2.7-3.4,6.2-3.4,10.5c0,4.2,1.1,7.7,3.4,10.5c2.3,2.7,5.3,4.1,9.1,4.1s6.8-1.4,9-4.1
				C990.8,633.2,991.9,629.7,991.9,625.5z"/>
			<path fill="#B8B9BA" d="M1004.3,633.9c0-7.6,5.7-12,14.1-12c2.8,0,6.3,0.6,10.5,1.9v-3.9c0-5.7-3.8-9-9.4-9
				c-4.7,0-8.4,2.8-10,6.3l-4-3.7c3-5.3,7.7-8,14-8c9.3,0,15.1,5.4,15.1,15v24.2h-5.6v-4c-2.9,3.2-6.8,4.8-11.9,4.8
				C1010,645.5,1004.3,641.1,1004.3,633.9z M1017.5,640.3c4.7,0,9-2.7,11.4-6.1v-5.1c-3.7-1.2-7.1-1.9-10.1-1.9
				c-5.9,0-8.7,2.7-8.7,6.8C1010.1,637.8,1013.2,640.3,1017.5,640.3z"/>
			<path fill="#B8B9BA" d="M1065,611.5c-0.4-0.1-0.9-0.1-1.3-0.1c-9,0-12.7,4.5-12.7,16.9v16.3h-5.8v-38.2h5.6v5.1
				c3.4-4.1,6.9-5.6,12.5-5.6c0.5,0,1.2,0,1.7,0.1L1065,611.5L1065,611.5z"/>
			<path fill="#B8B9BA" d="M1075.2,640.9c0,2.6-2,4.6-4.8,4.6c-2.6,0-4.6-2-4.6-4.6s2-4.7,4.6-4.7
				C1073.1,636.2,1075.2,638.2,1075.2,640.9z"/>
		</g>
	</g>
	<g>
		<g>
			<path fill="#B8B9BA" d="M843.8,1018.2l-1.6,1.5c-4.1-4-6.1-8.6-6.1-13.9c0-5.3,2-10,6.1-13.9l1.6,1.5c-3.7,3.8-5.4,7.7-5.4,12.5
				C838.4,1010.6,840,1014.5,843.8,1018.2z"/>
			<path fill="#B8B9BA" d="M857.3,1011.1c-1.6,1.9-3.5,2.8-5.9,2.8c-2.1,0-3.9-0.8-5.3-2.2c-1.4-1.5-2.1-3.3-2.1-5.5
				c0-2.1,0.7-3.9,2.2-5.4s3.2-2.3,5.3-2.3c2.2,0,4,0.9,5.5,2.6l-1.5,1.5c-1.1-1.3-2.4-2-4-2c-1.5,0-2.7,0.5-3.7,1.6
				c-1,1-1.5,2.4-1.5,4c0,3.3,2,5.6,5.3,5.6c1.6,0,3.1-0.7,4.2-2.2L857.3,1011.1z"/>
			<path fill="#B8B9BA" d="M860.2,1013.5v-21h2.2v21H860.2z"/>
			<path fill="#B8B9BA" d="M866.8,992.7c0.7-0.6,1.7-0.6,2.4,0s0.7,1.7,0,2.4c-0.6,0.6-1.7,0.6-2.4,0
				C866.1,994.3,866.1,993.3,866.8,992.7z M866.9,1013.5v-14.7h2.2v14.7H866.9z"/>
			<path fill="#B8B9BA" d="M885.8,1011.1c-1.6,1.9-3.5,2.8-5.9,2.8c-2.1,0-3.9-0.8-5.3-2.2c-1.4-1.5-2.1-3.3-2.1-5.5
				c0-2.1,0.7-3.9,2.2-5.4s3.2-2.3,5.3-2.3c2.2,0,4,0.9,5.5,2.6l-1.5,1.5c-1.1-1.3-2.4-2-4-2c-1.5,0-2.7,0.5-3.7,1.6
				c-1,1-1.5,2.4-1.5,4c0,3.3,2,5.6,5.3,5.6c1.7,0,3.1-0.7,4.2-2.2L885.8,1011.1z"/>
			<path fill="#B8B9BA" d="M888.7,1013.5v-21h2.2v13.9l6.8-7.5h2.9l-5.7,6.2l6.1,8.5h-2.8l-4.8-6.7l-2.4,2.6v4.1L888.7,1013.5
				L888.7,1013.5z"/>
			<path fill="#B8B9BA" d="M912.9,1009.2v-8.3h-2.4v-2h2.4v-4.1h2.2v4.1h3.4v2h-3.4v8c0,1.9,0.5,2.7,2.2,2.7h1.2v2
				c-0.4,0-0.9,0.1-1.4,0.1C914.2,1013.6,912.9,1012.4,912.9,1009.2z"/>
			<path fill="#B8B9BA" d="M922.8,1011.7c-1.4-1.5-2.1-3.3-2.1-5.5c0-2.1,0.7-4,2.1-5.5s3.2-2.2,5.3-2.2s3.9,0.8,5.3,2.2
				c1.4,1.5,2.2,3.3,2.2,5.5c0,2.1-0.7,4-2.1,5.5c-1.4,1.5-3.2,2.2-5.3,2.2C925.9,1013.9,924.2,1013.1,922.8,1011.7z M931.7,1010.2
				c1-1.1,1.4-2.4,1.4-4s-0.5-2.9-1.4-4c-1-1.1-2.2-1.6-3.7-1.6s-2.7,0.5-3.7,1.6c-1,1-1.4,2.4-1.4,4s0.5,2.9,1.4,4
				c1,1.1,2.2,1.6,3.7,1.6S930.8,1011.3,931.7,1010.2z"/>
			<path fill="#B8B9BA" d="M946.3,1009.4c0-2.9,2.2-4.6,5.4-4.6c1.1,0,2.4,0.2,4,0.7v-1.5c0-2.2-1.5-3.4-3.6-3.4
				c-1.8,0-3.2,1.1-3.8,2.4l-1.5-1.4c1.2-2,3-3.1,5.4-3.1c3.6,0,5.8,2.1,5.8,5.8v9.3h-2.2v-1.5c-1.1,1.2-2.6,1.9-4.6,1.9
				C948.5,1013.9,946.3,1012.2,946.3,1009.4z M951.4,1011.9c1.8,0,3.4-1,4.4-2.3v-2c-1.4-0.5-2.7-0.7-3.9-0.7
				c-2.2,0-3.3,1.1-3.3,2.6C948.6,1010.9,949.7,1011.9,951.4,1011.9z"/>
			<path fill="#B8B9BA" d="M972.8,1000.8v-8.3h2.2v21h-2.1v-2c-1.3,1.6-3,2.3-5,2.3s-3.6-0.8-4.9-2.2s-1.9-3.3-1.9-5.5
				s0.6-4,1.9-5.5c1.3-1.5,2.9-2.2,4.9-2.2C969.9,998.5,971.5,999.3,972.8,1000.8z M963.3,1006.2c0,1.6,0.4,3,1.3,4
				c0.9,1.1,2,1.6,3.5,1.6s2.6-0.5,3.5-1.6c0.9-1,1.3-2.4,1.3-4s-0.4-3-1.3-4c-0.9-1-2-1.6-3.5-1.6s-2.6,0.5-3.5,1.6
				C963.7,1003.2,963.3,1004.6,963.3,1006.2z"/>
			<path fill="#B8B9BA" d="M990.9,998.8l-5.6,14.7H983l-5.6-14.7h2.4l4.3,12l4.3-12H990.9z"/>
			<path fill="#B8B9BA" d="M992.2,1009.4c0-2.9,2.2-4.6,5.4-4.6c1.1,0,2.4,0.2,4,0.7v-1.5c0-2.2-1.5-3.4-3.6-3.4
				c-1.8,0-3.2,1.1-3.8,2.4l-1.5-1.4c1.2-2,3-3.1,5.4-3.1c3.6,0,5.8,2.1,5.8,5.8v9.3h-2.2v-1.5c-1.1,1.2-2.6,1.9-4.6,1.9
				C994.4,1013.9,992.2,1012.2,992.2,1009.4z M997.3,1011.9c1.8,0,3.5-1,4.4-2.3v-2c-1.4-0.5-2.7-0.7-3.9-0.7
				c-2.2,0-3.3,1.1-3.3,2.6C994.4,1010.9,995.6,1011.9,997.3,1011.9z"/>
			<path fill="#B8B9BA" d="M1010.1,998.8v1.8c1-1.3,2.8-2.2,4.7-2.2c3.7,0,5.8,2.3,5.8,6.5v8.5h-2.2v-8.7c0-2.7-1.4-4.3-3.8-4.3
				c-2.9,0-4.4,2.2-4.4,5.7v7.3h-2.2v-14.7h2.1V998.8z"/>
			<path fill="#B8B9BA" d="M1036.9,1011.1c-1.6,1.9-3.5,2.8-5.9,2.8c-2.1,0-3.9-0.8-5.3-2.2c-1.4-1.5-2.1-3.3-2.1-5.5
				c0-2.1,0.7-3.9,2.2-5.4s3.2-2.3,5.3-2.3c2.2,0,4,0.9,5.5,2.6l-1.5,1.5c-1.1-1.3-2.4-2-4-2c-1.5,0-2.7,0.5-3.7,1.6
				c-1,1-1.5,2.4-1.5,4c0,3.3,2,5.6,5.3,5.6c1.7,0,3.1-0.7,4.2-2.2L1036.9,1011.1z"/>
			<path fill="#B8B9BA" d="M1051.8,1006.9h-10.9c0.2,3.1,2.1,4.9,4.9,4.9c1.7,0,3-0.7,4.2-2.2l1.5,1.4c-1.6,1.9-3.5,2.8-5.7,2.8
				s-4-0.7-5.3-2.1c-1.3-1.4-2-3.2-2-5.5c0-2.2,0.6-4.1,1.8-5.5c1.2-1.5,2.8-2.2,4.9-2.2c1.5,0,2.8,0.4,3.8,1.2
				c2.1,1.6,2.8,3.8,2.8,6.2L1051.8,1006.9z M1040.9,1004.9h8.6c-0.2-2.6-1.8-4.3-4.3-4.3
				C1042.8,1000.6,1041.3,1002.4,1040.9,1004.9z"/>
			<path fill="#B8B9BA" d="M1052.8,993.3l1.6-1.5c4.1,4,6.1,8.6,6.1,13.9c0,5.3-2,10-6.1,13.9l-1.6-1.5c3.7-3.8,5.4-7.7,5.4-12.5
				C1058.2,1000.9,1056.5,997,1052.8,993.3z"/>
		</g>
		<g>
			<path fill="#B8B9BA" d="M843.8,1018.2l-1.6,1.5c-4.1-4-6.1-8.6-6.1-13.9c0-5.3,2-10,6.1-13.9l1.6,1.5c-3.7,3.8-5.4,7.7-5.4,12.5
				C838.4,1010.6,840,1014.5,843.8,1018.2z"/>
			<path fill="#B8B9BA" d="M857.3,1011.1c-1.6,1.9-3.5,2.8-5.9,2.8c-2.1,0-3.9-0.8-5.3-2.2c-1.4-1.5-2.1-3.3-2.1-5.5
				c0-2.1,0.7-3.9,2.2-5.4s3.2-2.3,5.3-2.3c2.2,0,4,0.9,5.5,2.6l-1.5,1.5c-1.1-1.3-2.4-2-4-2c-1.5,0-2.7,0.5-3.7,1.6
				c-1,1-1.5,2.4-1.5,4c0,3.3,2,5.6,5.3,5.6c1.6,0,3.1-0.7,4.2-2.2L857.3,1011.1z"/>
			<path fill="#B8B9BA" d="M860.2,1013.5v-21h2.2v21H860.2z"/>
			<path fill="#B8B9BA" d="M866.8,992.7c0.7-0.6,1.7-0.6,2.4,0s0.7,1.7,0,2.4c-0.6,0.6-1.7,0.6-2.4,0
				C866.1,994.3,866.1,993.3,866.8,992.7z M866.9,1013.5v-14.7h2.2v14.7H866.9z"/>
			<path fill="#B8B9BA" d="M885.8,1011.1c-1.6,1.9-3.5,2.8-5.9,2.8c-2.1,0-3.9-0.8-5.3-2.2c-1.4-1.5-2.1-3.3-2.1-5.5
				c0-2.1,0.7-3.9,2.2-5.4s3.2-2.3,5.3-2.3c2.2,0,4,0.9,5.5,2.6l-1.5,1.5c-1.1-1.3-2.4-2-4-2c-1.5,0-2.7,0.5-3.7,1.6
				c-1,1-1.5,2.4-1.5,4c0,3.3,2,5.6,5.3,5.6c1.7,0,3.1-0.7,4.2-2.2L885.8,1011.1z"/>
			<path fill="#B8B9BA" d="M888.7,1013.5v-21h2.2v13.9l6.8-7.5h2.9l-5.7,6.2l6.1,8.5h-2.8l-4.8-6.7l-2.4,2.6v4.1L888.7,1013.5
				L888.7,1013.5z"/>
			<path fill="#B8B9BA" d="M912.9,1009.2v-8.3h-2.4v-2h2.4v-4.1h2.2v4.1h3.4v2h-3.4v8c0,1.9,0.5,2.7,2.2,2.7h1.2v2
				c-0.4,0-0.9,0.1-1.4,0.1C914.2,1013.6,912.9,1012.4,912.9,1009.2z"/>
			<path fill="#B8B9BA" d="M922.8,1011.7c-1.4-1.5-2.1-3.3-2.1-5.5c0-2.1,0.7-4,2.1-5.5s3.2-2.2,5.3-2.2s3.9,0.8,5.3,2.2
				c1.4,1.5,2.2,3.3,2.2,5.5c0,2.1-0.7,4-2.1,5.5c-1.4,1.5-3.2,2.2-5.3,2.2C925.9,1013.9,924.2,1013.1,922.8,1011.7z M931.7,1010.2
				c1-1.1,1.4-2.4,1.4-4s-0.5-2.9-1.4-4c-1-1.1-2.2-1.6-3.7-1.6s-2.7,0.5-3.7,1.6c-1,1-1.4,2.4-1.4,4s0.5,2.9,1.4,4
				c1,1.1,2.2,1.6,3.7,1.6S930.8,1011.3,931.7,1010.2z"/>
			<path fill="#B8B9BA" d="M946.3,1009.4c0-2.9,2.2-4.6,5.4-4.6c1.1,0,2.4,0.2,4,0.7v-1.5c0-2.2-1.5-3.4-3.6-3.4
				c-1.8,0-3.2,1.1-3.8,2.4l-1.5-1.4c1.2-2,3-3.1,5.4-3.1c3.6,0,5.8,2.1,5.8,5.8v9.3h-2.2v-1.5c-1.1,1.2-2.6,1.9-4.6,1.9
				C948.5,1013.9,946.3,1012.2,946.3,1009.4z M951.4,1011.9c1.8,0,3.4-1,4.4-2.3v-2c-1.4-0.5-2.7-0.7-3.9-0.7
				c-2.2,0-3.3,1.1-3.3,2.6C948.6,1010.9,949.7,1011.9,951.4,1011.9z"/>
			<path fill="#B8B9BA" d="M972.8,1000.8v-8.3h2.2v21h-2.1v-2c-1.3,1.6-3,2.3-5,2.3s-3.6-0.8-4.9-2.2s-1.9-3.3-1.9-5.5
				s0.6-4,1.9-5.5c1.3-1.5,2.9-2.2,4.9-2.2C969.9,998.5,971.5,999.3,972.8,1000.8z M963.3,1006.2c0,1.6,0.4,3,1.3,4
				c0.9,1.1,2,1.6,3.5,1.6s2.6-0.5,3.5-1.6c0.9-1,1.3-2.4,1.3-4s-0.4-3-1.3-4c-0.9-1-2-1.6-3.5-1.6s-2.6,0.5-3.5,1.6
				C963.7,1003.2,963.3,1004.6,963.3,1006.2z"/>
			<path fill="#B8B9BA" d="M990.9,998.8l-5.6,14.7H983l-5.6-14.7h2.4l4.3,12l4.3-12H990.9z"/>
			<path fill="#B8B9BA" d="M992.2,1009.4c0-2.9,2.2-4.6,5.4-4.6c1.1,0,2.4,0.2,4,0.7v-1.5c0-2.2-1.5-3.4-3.6-3.4
				c-1.8,0-3.2,1.1-3.8,2.4l-1.5-1.4c1.2-2,3-3.1,5.4-3.1c3.6,0,5.8,2.1,5.8,5.8v9.3h-2.2v-1.5c-1.1,1.2-2.6,1.9-4.6,1.9
				C994.4,1013.9,992.2,1012.2,992.2,1009.4z M997.3,1011.9c1.8,0,3.5-1,4.4-2.3v-2c-1.4-0.5-2.7-0.7-3.9-0.7
				c-2.2,0-3.3,1.1-3.3,2.6C994.4,1010.9,995.6,1011.9,997.3,1011.9z"/>
			<path fill="#B8B9BA" d="M1010.1,998.8v1.8c1-1.3,2.8-2.2,4.7-2.2c3.7,0,5.8,2.3,5.8,6.5v8.5h-2.2v-8.7c0-2.7-1.4-4.3-3.8-4.3
				c-2.9,0-4.4,2.2-4.4,5.7v7.3h-2.2v-14.7h2.1V998.8z"/>
			<path fill="#B8B9BA" d="M1036.9,1011.1c-1.6,1.9-3.5,2.8-5.9,2.8c-2.1,0-3.9-0.8-5.3-2.2c-1.4-1.5-2.1-3.3-2.1-5.5
				c0-2.1,0.7-3.9,2.2-5.4s3.2-2.3,5.3-2.3c2.2,0,4,0.9,5.5,2.6l-1.5,1.5c-1.1-1.3-2.4-2-4-2c-1.5,0-2.7,0.5-3.7,1.6
				c-1,1-1.5,2.4-1.5,4c0,3.3,2,5.6,5.3,5.6c1.7,0,3.1-0.7,4.2-2.2L1036.9,1011.1z"/>
			<path fill="#B8B9BA" d="M1051.8,1006.9h-10.9c0.2,3.1,2.1,4.9,4.9,4.9c1.7,0,3-0.7,4.2-2.2l1.5,1.4c-1.6,1.9-3.5,2.8-5.7,2.8
				s-4-0.7-5.3-2.1c-1.3-1.4-2-3.2-2-5.5c0-2.2,0.6-4.1,1.8-5.5c1.2-1.5,2.8-2.2,4.9-2.2c1.5,0,2.8,0.4,3.8,1.2
				c2.1,1.6,2.8,3.8,2.8,6.2L1051.8,1006.9z M1040.9,1004.9h8.6c-0.2-2.6-1.8-4.3-4.3-4.3
				C1042.8,1000.6,1041.3,1002.4,1040.9,1004.9z"/>
			<path fill="#B8B9BA" d="M1052.8,993.3l1.6-1.5c4.1,4,6.1,8.6,6.1,13.9c0,5.3-2,10-6.1,13.9l-1.6-1.5c3.7-3.8,5.4-7.7,5.4-12.5
				C1058.2,1000.9,1056.5,997,1052.8,993.3z"/>
		</g>
	</g>
	<g>
		<g>
			<path fill="#B8B9BA" d="M1493.4,87.5v-1.9c-1.1,1.5-2.7,2.2-4.6,2.2c-3.7,0-5.5-2.2-5.5-6.5v-8.5h2.2v8.6c0,2.8,1.2,4.3,3.6,4.3
				c2.8,0,4.3-2.1,4.3-5.6v-7.3h2.2v14.7C1495.6,87.5,1493.4,87.5,1493.4,87.5z"/>
			<path fill="#B8B9BA" d="M1502,93.4h-2.2V72.8h2.2v2c1.3-1.6,3-2.4,5-2.4s3.6,0.8,4.9,2.2c1.3,1.5,1.9,3.3,1.9,5.5s-0.6,4-1.9,5.5
				s-2.9,2.2-4.9,2.2s-3.7-0.8-5-2.3V93.4z M1511.5,80.2c0-1.6-0.4-3-1.3-4s-2-1.6-3.5-1.6s-2.6,0.5-3.5,1.6s-1.3,2.4-1.3,4
				s0.4,3,1.3,4s2,1.6,3.5,1.6s2.6-0.5,3.5-1.6S1511.5,81.8,1511.5,80.2z"/>
			<path fill="#B8B9BA" d="M1527.6,66.5v8.1c1-1.3,2.8-2.1,4.6-2.1c3.8,0,5.8,2.3,5.8,6.5v8.5h-2.2v-8.7c0-2.7-1.4-4.3-3.8-4.3
				c-2.9,0-4.4,2.2-4.4,5.7v7.3h-2.2v-21H1527.6z"/>
			<path fill="#B8B9BA" d="M1553.8,80.9h-11c0.2,3.1,2.1,4.9,5,4.9c1.6,0,3-0.7,4.2-2.2l1.5,1.4c-1.6,1.9-3.5,2.8-5.7,2.8
				s-4-0.7-5.3-2.1s-1.9-3.2-1.9-5.5c0-2.2,0.6-4.1,1.8-5.5c1.2-1.5,2.8-2.2,4.9-2.2c1.5,0,2.8,0.4,3.8,1.2c2.1,1.6,2.8,3.8,2.8,6.2
				L1553.8,80.9z M1542.9,78.9h8.6c-0.2-2.6-1.8-4.3-4.3-4.3C1544.8,74.6,1543.3,76.4,1542.9,78.9z"/>
			<path fill="#B8B9BA" d="M1564.6,74.8c-0.1,0-0.3,0-0.5,0c-3.5,0-4.9,1.7-4.9,6.5v6.3h-2.2V72.8h2.2v1.9c1.3-1.6,2.6-2.2,4.8-2.2
				c0.2,0,0.4,0,0.7,0L1564.6,74.8L1564.6,74.8z"/>
			<path fill="#B8B9BA" d="M1579.2,80.9h-10.9c0.2,3.1,2.1,4.9,4.9,4.9c1.7,0,3-0.7,4.2-2.2l1.5,1.4c-1.6,1.9-3.5,2.8-5.7,2.8
				s-4-0.7-5.3-2.1s-2-3.2-2-5.5c0-2.2,0.6-4.1,1.8-5.5c1.2-1.5,2.9-2.2,4.9-2.2c1.5,0,2.8,0.4,3.8,1.2c2.1,1.6,2.8,3.8,2.8,6.2
				L1579.2,80.9z M1568.4,78.9h8.6c-0.2-2.6-1.8-4.3-4.3-4.3S1568.7,76.4,1568.4,78.9z"/>
			<path fill="#B8B9BA" d="M1584.4,84.6c0.9,0,1.6,0.7,1.6,1.7c0,0.9-0.7,1.6-1.6,1.6s-1.6-0.7-1.6-1.6
				C1582.8,85.4,1583.5,84.6,1584.4,84.6z M1583.2,81.2V66.5h2.3v14.7H1583.2z"/>
		</g>
		<g>
			<path fill="#B8B9BA" d="M1493.4,87.5v-1.9c-1.1,1.5-2.7,2.2-4.6,2.2c-3.7,0-5.5-2.2-5.5-6.5v-8.5h2.2v8.6c0,2.8,1.2,4.3,3.6,4.3
				c2.8,0,4.3-2.1,4.3-5.6v-7.3h2.2v14.7C1495.6,87.5,1493.4,87.5,1493.4,87.5z"/>
			<path fill="#B8B9BA" d="M1502,93.4h-2.2V72.8h2.2v2c1.3-1.6,3-2.4,5-2.4s3.6,0.8,4.9,2.2c1.3,1.5,1.9,3.3,1.9,5.5s-0.6,4-1.9,5.5
				s-2.9,2.2-4.9,2.2s-3.7-0.8-5-2.3V93.4z M1511.5,80.2c0-1.6-0.4-3-1.3-4s-2-1.6-3.5-1.6s-2.6,0.5-3.5,1.6s-1.3,2.4-1.3,4
				s0.4,3,1.3,4s2,1.6,3.5,1.6s2.6-0.5,3.5-1.6S1511.5,81.8,1511.5,80.2z"/>
			<path fill="#B8B9BA" d="M1527.6,66.5v8.1c1-1.3,2.8-2.1,4.6-2.1c3.8,0,5.8,2.3,5.8,6.5v8.5h-2.2v-8.7c0-2.7-1.4-4.3-3.8-4.3
				c-2.9,0-4.4,2.2-4.4,5.7v7.3h-2.2v-21H1527.6z"/>
			<path fill="#B8B9BA" d="M1553.8,80.9h-11c0.2,3.1,2.1,4.9,5,4.9c1.6,0,3-0.7,4.2-2.2l1.5,1.4c-1.6,1.9-3.5,2.8-5.7,2.8
				s-4-0.7-5.3-2.1s-1.9-3.2-1.9-5.5c0-2.2,0.6-4.1,1.8-5.5c1.2-1.5,2.8-2.2,4.9-2.2c1.5,0,2.8,0.4,3.8,1.2c2.1,1.6,2.8,3.8,2.8,6.2
				L1553.8,80.9z M1542.9,78.9h8.6c-0.2-2.6-1.8-4.3-4.3-4.3C1544.8,74.6,1543.3,76.4,1542.9,78.9z"/>
			<path fill="#B8B9BA" d="M1564.6,74.8c-0.1,0-0.3,0-0.5,0c-3.5,0-4.9,1.7-4.9,6.5v6.3h-2.2V72.8h2.2v1.9c1.3-1.6,2.6-2.2,4.8-2.2
				c0.2,0,0.4,0,0.7,0L1564.6,74.8L1564.6,74.8z"/>
			<path fill="#B8B9BA" d="M1579.2,80.9h-10.9c0.2,3.1,2.1,4.9,4.9,4.9c1.7,0,3-0.7,4.2-2.2l1.5,1.4c-1.6,1.9-3.5,2.8-5.7,2.8
				s-4-0.7-5.3-2.1s-2-3.2-2-5.5c0-2.2,0.6-4.1,1.8-5.5c1.2-1.5,2.9-2.2,4.9-2.2c1.5,0,2.8,0.4,3.8,1.2c2.1,1.6,2.8,3.8,2.8,6.2
				L1579.2,80.9z M1568.4,78.9h8.6c-0.2-2.6-1.8-4.3-4.3-4.3S1568.7,76.4,1568.4,78.9z"/>
			<path fill="#B8B9BA" d="M1584.4,84.6c0.9,0,1.6,0.7,1.6,1.7c0,0.9-0.7,1.6-1.6,1.6s-1.6-0.7-1.6-1.6
				C1582.8,85.4,1583.5,84.6,1584.4,84.6z M1583.2,81.2V66.5h2.3v14.7H1583.2z"/>
		</g>
	</g>
	<polyline fill="none" stroke="#B8B9BA" stroke-miterlimit="10" points="1163.5,9 1163.5,26.5 1909.5,26.5 1909.5,9 	"/>
	<line fill="none" stroke="#B8B9BA" stroke-miterlimit="10" x1="1536.5" y1="25" x2="1536.5" y2="46"/>
	<polyline fill="none" stroke="#B8B9BA" stroke-miterlimit="10" points="1535.5,115 1535.5,639.5 1152,639.5 	"/>
</g>
</svg>
