<?xml version="1.0" encoding="utf-8"?>
<!-- Generator: Adobe Illustrator 19.1.0, SVG Export Plug-In . SVG Version: 6.00 Build 0)  -->
<svg version="1.1" baseProfile="tiny" id="Layer_1" xmlns="http://www.w3.org/2000/svg" xmlns:xlink="http://www.w3.org/1999/xlink"
	 x="0px" y="0px" width="1920px" height="1080px" viewBox="0 0 1920 1080" xml:space="preserve">
<g id="Layer_4">
	<rect x="459.2" y="251.6" fill="#FFFFFF" width="1025.3" height="828.4"/>
</g>
<g id="Layer_6">
	<g>
		<g>
			<path fill="#B8B9BA" d="M626.7,484.6v-54.7h5.9v54.7H626.7z"/>
			<path fill="#B8B9BA" d="M648.4,446.4v4.7c2.6-3.4,7.3-5.6,12.1-5.6c9.8,0,15.2,6.1,15.2,16.9v22.2h-5.9v-22.7
				c0-7.1-3.6-11.1-9.8-11.1c-7.5,0-11.5,5.7-11.5,14.8v19h-5.8v-38.2L648.4,446.4L648.4,446.4z"/>
			<path fill="#B8B9BA" d="M737.7,484.6L727,467.1h-9.3v17.6h-11.6V430h22.6c6.1,0,11.1,1.6,15,4.8c4,3.2,5.9,7.6,5.9,13.1
				c0,7.7-4.2,14-10.8,17.1l12.1,19.7h-13.2V484.6z M717.7,440.6v15.8h9c7.6,0,11.4-2.7,11.4-8s-3.6-7.8-11.4-7.8H717.7z"/>
			<path fill="#B8B9BA" d="M792.4,468.3h-25.9c0.6,4.1,3.8,7,8.6,7c3.9,0,7-1.5,9.4-4.4l7.3,6.9c-4.1,5.1-9.6,7.7-16.4,7.7
				c-5.9,0-10.6-1.8-14.4-5.4c-3.8-3.7-5.7-8.4-5.7-14.4c0-5.8,1.7-10.7,5.2-14.5s8-5.8,13.6-5.8c5.9,0,10.4,2,13.6,5.9
				c3.2,3.9,4.8,8.5,4.8,13.7L792.4,468.3z M767.1,460.9h13.7c-0.2-3.2-2.8-5.7-6.5-5.7C770.3,455.2,767.8,457.6,767.1,460.9z"/>
			<path fill="#B8B9BA" d="M812,484.6h-11.1v-38.2h10.9v2.7c2.5-2.4,5.5-3.6,9-3.6c9.4,0,15.6,6.2,15.6,16.9v22.2h-11.2v-21.4
				c0-4.4-2-7.5-6.3-7.5c-4.7,0-7,3.3-7,9.8L812,484.6L812,484.6z"/>
			<path fill="#B8B9BA" d="M849.4,451.1c3.7-3.7,8.3-5.6,13.7-5.6c4,0,7.3,1.1,9.8,3.4V430H884v54.7h-11V482
				c-2.5,2.4-5.9,3.6-10,3.6c-5.4,0-10-1.8-13.7-5.5s-5.5-8.5-5.5-14.5C843.9,459.6,845.7,454.8,849.4,451.1z M873,465.5
				c0-2.9-0.9-5.3-2.6-7.2c-1.6-1.9-3.7-2.8-6.3-2.8s-4.7,0.9-6.4,2.8c-1.6,1.9-2.5,4.3-2.5,7.2c0,2.9,0.9,5.3,2.5,7.2
				c1.7,1.9,3.8,2.8,6.4,2.8s4.7-0.9,6.3-2.8C872.1,470.8,873,468.4,873,465.5z"/>
			<path fill="#B8B9BA" d="M929.5,468.3h-25.9c0.6,4.1,3.8,7,8.6,7c3.9,0,7-1.5,9.4-4.4l7.3,6.9c-4.1,5.1-9.6,7.7-16.4,7.7
				c-5.9,0-10.6-1.8-14.4-5.4c-3.8-3.7-5.7-8.4-5.7-14.4c0-5.8,1.7-10.7,5.2-14.5s8-5.8,13.6-5.8c5.9,0,10.4,2,13.6,5.9
				c3.2,3.9,4.8,8.5,4.8,13.7L929.5,468.3z M904.1,460.9h13.7c-0.2-3.2-2.8-5.7-6.5-5.7C907.4,455.2,904.8,457.6,904.1,460.9z"/>
			<path fill="#B8B9BA" d="M961.4,456.6h-1.7c-6.5,0-10.6,4.2-10.6,12v16H938v-38.2h10.9v3.4c2.3-2.7,5.4-4,9.5-4c1.2,0,2.3,0,3,0.1
				V456.6z"/>
			<path fill="#B8B9BA" d="M1013.7,473.6l-10.4-20v31h-11.6v-54.7h11.6l15.5,30.7l15.6-30.7h11.5v54.7h-11.5v-31l-10.5,20H1013.7z"
				/>
			<path fill="#B8B9BA" d="M1054.8,465.5c0-5.7,2-10.5,5.8-14.3c3.9-3.8,8.7-5.8,14.4-5.8s10.5,2,14.4,5.8s5.9,8.6,5.9,14.3
				s-2,10.5-5.8,14.3s-8.7,5.7-14.4,5.7s-10.6-1.9-14.4-5.7S1054.8,471.2,1054.8,465.5z M1066.1,465.5c0,2.8,0.9,5.1,2.5,6.9
				s3.8,2.7,6.4,2.7s4.8-0.9,6.4-2.7c1.6-1.8,2.5-4.1,2.5-6.9s-0.9-5.1-2.5-6.9s-3.8-2.7-6.4-2.7s-4.8,0.9-6.4,2.7
				C1067,460.4,1066.1,462.7,1066.1,465.5z"/>
			<path fill="#B8B9BA" d="M1107.3,451.1c3.7-3.7,8.3-5.6,13.7-5.6c4,0,7.3,1.1,9.8,3.4V430h11.1v54.7H1131V482
				c-2.5,2.4-5.9,3.6-10,3.6c-5.4,0-10-1.8-13.7-5.5s-5.5-8.5-5.5-14.5S1103.6,454.8,1107.3,451.1z M1130.9,465.5
				c0-2.9-0.9-5.3-2.6-7.2c-1.6-1.9-3.7-2.8-6.3-2.8s-4.7,0.9-6.4,2.8c-1.6,1.9-2.5,4.3-2.5,7.2c0,2.9,0.9,5.3,2.5,7.2
				c1.7,1.9,3.8,2.8,6.4,2.8s4.7-0.9,6.3-2.8C1130.1,470.8,1130.9,468.4,1130.9,465.5z"/>
			<path fill="#B8B9BA" d="M1187.4,468.3h-25.9c0.6,4.1,3.8,7,8.6,7c3.9,0,7-1.5,9.4-4.4l7.3,6.9c-4.1,5.1-9.6,7.7-16.4,7.7
				c-5.9,0-10.6-1.8-14.4-5.4c-3.8-3.7-5.7-8.4-5.7-14.4c0-5.8,1.7-10.7,5.2-14.5s8-5.8,13.6-5.8c5.8,0,10.4,2,13.6,5.9
				s4.8,8.5,4.8,13.7L1187.4,468.3z M1162.1,460.9h13.7c-0.2-3.2-2.8-5.7-6.5-5.7C1165.3,455.2,1162.8,457.6,1162.1,460.9z"/>
			<path fill="#B8B9BA" d="M1198.1,494.4h-6.2l7.4-18.6h7.3L1198.1,494.4z"/>
			<path fill="#B8B9BA" d="M632.3,526.4v4.6c2.2-3.1,6.4-5.5,11-5.5c5.2,0,9,2.1,11.4,6.3c2.9-4.2,6.9-6.3,11.9-6.3
				c9.8,0,14.7,5.6,14.7,16.9v22.2h-5.8v-22.7c0-7.4-3-11.1-8.9-11.1c-6.3,0-9.8,4.6-9.8,12.7v21.1H651v-22.3
				c0-7.6-2.9-11.5-8.6-11.5c-6.6,0-10.1,4.6-10.1,12.7v21.1h-5.8v-38.2H632.3z"/>
			<path fill="#B8B9BA" d="M689.2,553.9c0-7.6,5.7-12,14.1-12c2.8,0,6.3,0.6,10.5,1.9v-3.9c0-5.7-3.8-9-9.4-9c-4.7,0-8.4,2.8-10,6.3
				l-4-3.7c3-5.3,7.7-8,14-8c9.3,0,15.1,5.4,15.1,15v24.2H714v-4c-2.9,3.2-6.8,4.8-11.9,4.8C694.8,565.5,689.2,561.1,689.2,553.9z
				 M702.4,560.3c4.7,0,9-2.7,11.4-6.1v-5.1c-3.7-1.2-7.1-1.9-10.1-1.9c-5.9,0-8.7,2.7-8.7,6.8C695,557.8,698,560.3,702.4,560.3z"/>
			<path fill="#B8B9BA" d="M738.8,547.5c-7.3-1.7-10.8-5.4-10.8-11c0-3.4,1.3-6.1,3.9-8c2.6-2,5.7-3,9.3-3c5.1,0,9.6,2,13.6,6.2
				l-3.9,4.1c-3.1-3.3-6.5-4.9-10.1-4.9c-4.1,0-7,2.2-7,5.4c0,2.9,1.9,4.8,5.7,5.6l6,1.4c7.3,1.7,10.8,5.3,10.8,10.8
				c0,6.8-5.6,11.5-14.3,11.5c-6.6,0-12.3-3.1-15.4-7.2l3.8-4c3.1,3.9,6.9,5.8,11.5,5.8c5.4,0,8.6-2.2,8.6-5.8c0-2.7-2-4.6-6-5.5
				L738.8,547.5z"/>
			<path fill="#B8B9BA" d="M764.7,564.6v-54.7h5.8v36l17.7-19.6h7.6l-14.9,16.1l15.8,22.1h-7.4l-12.5-17.6l-6.2,6.8v10.8h-5.9V564.6
				z"/>
			<path fill="#B8B9BA" d="M835.3,547.5c-7.3-1.7-10.8-5.4-10.8-11c0-3.4,1.3-6.1,3.9-8c2.6-2,5.7-3,9.3-3c5.1,0,9.6,2,13.6,6.2
				l-3.9,4.1c-3.1-3.3-6.5-4.9-10.1-4.9c-4.1,0-7,2.2-7,5.4c0,2.9,1.9,4.8,5.7,5.6l6,1.4c7.3,1.7,10.8,5.3,10.8,10.8
				c0,6.8-5.6,11.5-14.3,11.5c-6.6,0-12.3-3.1-15.4-7.2l3.8-4c3.1,3.9,6.9,5.8,11.5,5.8c5.4,0,8.6-2.2,8.6-5.8c0-2.7-2-4.6-6-5.5
				L835.3,547.5z"/>
			<path fill="#B8B9BA" d="M866.9,509.9V531c2.6-3.4,7.2-5.5,11.9-5.5c9.8,0,15.2,6.1,15.2,16.9v22.2h-5.9v-22.7
				c0-7.1-3.6-11.1-9.8-11.1c-7.5,0-11.5,5.7-11.5,14.8v19H861v-54.7L866.9,509.9L866.9,509.9z"/>
			<path fill="#B8B9BA" d="M900.6,553.9c0-7.6,5.7-12,14.1-12c2.8,0,6.3,0.6,10.5,1.9v-3.9c0-5.7-3.8-9-9.4-9c-4.7,0-8.4,2.8-10,6.3
				l-4-3.7c3-5.3,7.7-8,14-8c9.3,0,15.1,5.4,15.1,15v24.2h-5.6v-4c-2.9,3.2-6.8,4.8-11.9,4.8C906.2,565.5,900.6,561.1,900.6,553.9z
				 M913.8,560.3c4.7,0,9-2.7,11.4-6.1v-5.1c-3.7-1.2-7.1-1.9-10.1-1.9c-5.9,0-8.7,2.7-8.7,6.8C906.4,557.8,909.4,560.3,913.8,560.3
				z"/>
			<path fill="#B8B9BA" d="M947.2,579.8h-5.8v-53.4h5.6v5.2c3.5-4.1,7.9-6.2,13-6.2c5.2,0,9.4,2,12.8,5.9c3.4,3.8,5,8.6,5,14.2
				s-1.6,10.4-5,14.2s-7.6,5.8-12.8,5.8s-9.5-2-12.9-5.9v20.2H947.2z M972,545.5c0-4.2-1.1-7.7-3.4-10.5c-2.3-2.7-5.2-4.1-9-4.1
				s-6.9,1.4-9.1,4.1c-2.3,2.7-3.4,6.2-3.4,10.5s1.1,7.7,3.4,10.5c2.3,2.7,5.3,4.1,9.1,4.1s6.8-1.4,9-4.1
				C970.9,553.2,972,549.7,972,545.5z"/>
			<path fill="#B8B9BA" d="M1019.3,547.3h-28.5c0.5,8,5.4,12.8,12.9,12.8c4.3,0,7.9-1.9,10.9-5.6l4,3.7c-4.1,4.9-9,7.3-14.9,7.3
				c-5.7,0-10.3-1.8-13.7-5.5s-5.1-8.4-5.1-14.3c0-5.8,1.6-10.6,4.7-14.4c3.2-3.9,7.4-5.9,12.7-5.9c3.9,0,7.2,1,9.8,3
				c5.4,4.1,7.3,9.8,7.3,16.1L1019.3,547.3z M991.1,542.2h22.5c-0.5-6.8-4.8-11.2-11.1-11.2C996,530.9,992.1,535.5,991.1,542.2z"/>
			<path fill="#B8B9BA" d="M1037.3,547.5c-7.3-1.7-10.8-5.4-10.8-11c0-3.4,1.3-6.1,3.9-8s5.7-3,9.3-3c5.1,0,9.6,2,13.6,6.2l-3.9,4.1
				c-3.1-3.3-6.5-4.9-10.1-4.9c-4.1,0-7,2.2-7,5.4c0,2.9,1.9,4.8,5.7,5.6l6,1.4c7.3,1.7,10.8,5.3,10.8,10.8
				c0,6.8-5.6,11.5-14.3,11.5c-6.6,0-12.3-3.1-15.4-7.2l3.8-4c3.1,3.9,6.9,5.8,11.5,5.8c5.4,0,8.6-2.2,8.6-5.8c0-2.7-2-4.6-6-5.5
				L1037.3,547.5z"/>
			<path fill="#B8B9BA" d="M1117.5,558.2c-4.1,4.9-9.1,7.3-15.3,7.3c-5.5,0-10.1-2-13.7-5.8c-3.7-3.9-5.5-8.7-5.5-14.2
				s1.9-10.2,5.6-14.1c3.8-4,8.4-5.9,13.8-5.9c5.8,0,10.5,2.3,14.3,6.8l-3.9,3.8c-2.9-3.4-6.3-5.1-10.4-5.1c-3.9,0-7.1,1.4-9.7,4.2
				c-2.6,2.7-3.8,6.2-3.8,10.4c0,8.5,5.2,14.6,13.7,14.6c4.3,0,8-1.9,10.8-5.6L1117.5,558.2z"/>
			<path fill="#B8B9BA" d="M1127.3,559.7c-3.7-3.9-5.5-8.7-5.5-14.2s1.8-10.3,5.5-14.2s8.3-5.9,13.7-5.9c5.5,0,10.1,2,13.7,5.9
				c3.7,3.9,5.6,8.7,5.6,14.2s-1.9,10.3-5.5,14.2c-3.7,3.8-8.3,5.8-13.8,5.8C1135.6,565.5,1131,563.5,1127.3,559.7z M1150.7,556
				c2.5-2.8,3.7-6.3,3.7-10.5c0-4.1-1.2-7.6-3.7-10.4c-2.5-2.8-5.7-4.2-9.6-4.2c-3.8,0-7,1.4-9.5,4.2c-2.5,2.7-3.7,6.2-3.7,10.4
				c0,4.1,1.2,7.6,3.7,10.5c2.5,2.7,5.7,4.1,9.5,4.1C1145,560.1,1148.2,558.7,1150.7,556z"/>
			<path fill="#B8B9BA" d="M1198.5,526.4l-14.5,38.2h-6.1l-14.5-38.2h6.3l11.2,31.2l11.2-31.2H1198.5z"/>
			<path fill="#B8B9BA" d="M1235.8,547.3h-28.5c0.5,8,5.4,12.8,12.9,12.8c4.3,0,7.9-1.9,10.9-5.6l4,3.7c-4.1,4.9-9,7.3-14.9,7.3
				c-5.7,0-10.3-1.8-13.7-5.5c-3.4-3.7-5.1-8.4-5.1-14.3c0-5.8,1.6-10.6,4.7-14.4c3.2-3.9,7.4-5.9,12.7-5.9c3.9,0,7.2,1,9.8,3
				c5.4,4.1,7.3,9.8,7.3,16.1L1235.8,547.3z M1207.6,542.2h22.5c-0.5-6.8-4.8-11.2-11.1-11.2
				C1212.5,530.9,1208.6,535.5,1207.6,542.2z"/>
			<path fill="#B8B9BA" d="M1264.1,531.5c-0.4-0.1-0.9-0.1-1.3-0.1c-9,0-12.7,4.5-12.7,16.9v16.3h-5.8v-38.2h5.6v5.1
				c3.4-4.1,6.9-5.6,12.5-5.6c0.5,0,1.2,0,1.7,0.1L1264.1,531.5L1264.1,531.5z"/>
			<path fill="#B8B9BA" d="M639,659.8h-6.3l5.8-14.7l-15.8-38.7h6.5l12.6,31.7l12.3-31.7h6.4L639,659.8z"/>
			<path fill="#B8B9BA" d="M667.9,639.7c-3.7-3.9-5.5-8.7-5.5-14.2s1.8-10.3,5.5-14.2s8.3-5.8,13.7-5.8c5.5,0,10.1,2,13.7,5.8
				c3.7,3.9,5.6,8.7,5.6,14.2s-1.9,10.3-5.5,14.2c-3.7,3.8-8.3,5.8-13.8,5.8C676.2,645.5,671.6,643.5,667.9,639.7z M691.3,636
				c2.5-2.8,3.7-6.3,3.7-10.5c0-4.1-1.2-7.6-3.7-10.4c-2.5-2.8-5.7-4.2-9.6-4.2c-3.8,0-7,1.4-9.5,4.2c-2.5,2.7-3.7,6.2-3.7,10.4
				c0,4.1,1.2,7.6,3.7,10.5c2.5,2.7,5.7,4.1,9.5,4.1C685.6,640.1,688.8,638.7,691.3,636z"/>
			<path fill="#B8B9BA" d="M734.6,644.6v-4.8c-3,3.8-7,5.7-12.1,5.7c-9.6,0-14.4-5.6-14.4-16.8v-22.2h5.8V629
				c0,7.3,3.2,11.2,9.4,11.2c7.4,0,11.1-5.4,11.1-14.7v-19h5.8v38.2h-5.6V644.6z"/>
			<path fill="#B8B9BA" d="M771,611.5c-0.4-0.1-0.9-0.1-1.3-0.1c-9,0-12.7,4.5-12.7,16.9v16.3h-5.8v-38.2h5.6v5.1
				c3.4-4.1,6.9-5.6,12.5-5.6c0.5,0,1.2,0,1.7,0.1V611.5z"/>
			<path fill="#B8B9BA" d="M831.4,627.3h-28.5c0.5,8,5.4,12.8,12.9,12.8c4.3,0,7.9-1.9,10.9-5.6l4,3.7c-4.1,4.9-9,7.3-14.9,7.3
				c-5.7,0-10.3-1.8-13.7-5.5s-5.1-8.4-5.1-14.3c0-5.8,1.6-10.6,4.7-14.4c3.2-3.9,7.4-5.8,12.7-5.8c3.9,0,7.2,1,9.8,3
				c5.4,4.1,7.3,9.8,7.3,16.1L831.4,627.3z M803.2,622.2h22.5c-0.5-6.8-4.8-11.2-11.1-11.2C808.1,610.9,804.2,615.5,803.2,622.2z"/>
			<path fill="#B8B9BA" d="M845.5,606.4v4.7c2.6-3.4,7.3-5.6,12.1-5.6c9.8,0,15.2,6.1,15.2,16.9v22.2h-5.9v-22.7
				c0-7.1-3.6-11.1-9.8-11.1c-7.5,0-11.5,5.7-11.5,14.8v19h-5.8v-38.2L845.5,606.4L845.5,606.4z"/>
			<path fill="#B8B9BA" d="M883.8,633.4v-21.7h-6.2v-5.3h6.2v-10.7h5.8v10.7h8.9v5.3h-8.9v20.8c0,5,1.2,6.9,5.9,6.9l3-0.1v5.2
				c-1,0.1-2.3,0.2-3.6,0.2C887.3,644.8,883.8,641.6,883.8,633.4z"/>
			<path fill="#B8B9BA" d="M906.6,590.3c1.8-1.6,4.5-1.6,6.2,0c1.8,1.6,1.8,4.4,0,6.2c-1.6,1.6-4.4,1.6-6.2,0
				C905,594.7,905,592,906.6,590.3z M906.8,644.6v-38.2h5.8v38.2H906.8z"/>
			<path fill="#B8B9BA" d="M944,611.5c-0.4-0.1-0.9-0.1-1.3-0.1c-9,0-12.7,4.5-12.7,16.9v16.3h-5.8v-38.2h5.6v5.1
				c3.4-4.1,6.9-5.6,12.5-5.6c0.5,0,1.2,0,1.7,0.1V611.5z"/>
			<path fill="#B8B9BA" d="M982,627.3h-28.5c0.5,8,5.4,12.8,12.9,12.8c4.3,0,7.9-1.9,10.9-5.6l4,3.7c-4.1,4.9-9,7.3-14.9,7.3
				c-5.7,0-10.3-1.8-13.7-5.5s-5.1-8.4-5.1-14.3c0-5.8,1.6-10.6,4.7-14.4c3.2-3.9,7.4-5.8,12.7-5.8c3.9,0,7.2,1,9.8,3
				c5.4,4.1,7.3,9.8,7.3,16.1L982,627.3z M953.7,622.2h22.5c-0.5-6.8-4.8-11.2-11.1-11.2C958.6,610.9,954.7,615.5,953.7,622.2z"/>
			<path fill="#B8B9BA" d="M1040.9,611.5V590h5.8v54.7h-5.5v-5.2c-3.5,4.1-7.9,6.1-13.1,6.1c-5.2,0-9.4-2-12.8-5.8
				c-3.4-3.8-5-8.6-5-14.2s1.6-10.4,5-14.2c3.4-3.9,7.6-5.8,12.8-5.8C1033.2,605.5,1037.5,607.5,1040.9,611.5z M1016.2,625.5
				c0,4.2,1.1,7.7,3.4,10.5c2.3,2.7,5.2,4.1,9,4.1s6.9-1.4,9.1-4.1c2.3-2.7,3.4-6.2,3.4-10.5c0-4.2-1.2-7.7-3.4-10.5
				c-2.3-2.7-5.3-4.1-9.1-4.1s-6.8,1.4-9,4.1C1017.3,617.8,1016.2,621.3,1016.2,625.5z"/>
			<path fill="#B8B9BA" d="M1089.4,627.3H1061c0.5,8,5.4,12.8,12.9,12.8c4.3,0,7.9-1.9,10.9-5.6l4,3.7c-4.1,4.9-9,7.3-14.9,7.3
				c-5.7,0-10.3-1.8-13.7-5.5c-3.4-3.7-5.1-8.4-5.1-14.3c0-5.8,1.6-10.6,4.7-14.4c3.2-3.9,7.4-5.8,12.7-5.8c3.9,0,7.2,1,9.8,3
				c5.4,4.1,7.3,9.8,7.3,16.1L1089.4,627.3z M1061.2,622.2h22.5c-0.5-6.8-4.8-11.2-11.1-11.2
				C1066.1,610.9,1062.2,615.5,1061.2,622.2z"/>
			<path fill="#B8B9BA" d="M1107.5,627.5c-7.3-1.7-10.8-5.4-10.8-11c0-3.4,1.3-6.1,3.9-8s5.7-3,9.3-3c5.1,0,9.6,2,13.6,6.2l-3.9,4.1
				c-3.1-3.3-6.5-4.9-10.1-4.9c-4.1,0-7,2.2-7,5.4c0,2.9,1.9,4.8,5.7,5.6l6,1.4c7.3,1.7,10.8,5.3,10.8,10.8
				c0,6.8-5.6,11.5-14.3,11.5c-6.6,0-12.3-3.1-15.4-7.2l3.8-4c3.1,3.9,6.9,5.9,11.5,5.9c5.4,0,8.6-2.2,8.6-5.9c0-2.7-2-4.6-6-5.5
				L1107.5,627.5z"/>
			<path fill="#B8B9BA" d="M1133.3,644.6v-54.7h5.8v36l17.7-19.6h7.6l-14.9,16.1l15.8,22.1h-7.4l-12.5-17.6l-6.2,6.8v10.8h-5.9
				V644.6z"/>
			<path fill="#B8B9BA" d="M1174.5,633.4v-21.7h-6.2v-5.3h6.2v-10.7h5.8v10.7h8.9v5.3h-8.9v20.8c0,5,1.2,6.9,5.8,6.9l3-0.1v5.2
				c-1,0.1-2.3,0.2-3.6,0.2C1178,644.8,1174.5,641.6,1174.5,633.4z"/>
			<path fill="#B8B9BA" d="M1200.2,639.7c-3.7-3.9-5.5-8.7-5.5-14.2s1.8-10.3,5.5-14.2s8.3-5.8,13.7-5.8s10.1,2,13.7,5.8
				c3.7,3.9,5.6,8.7,5.6,14.2s-1.9,10.3-5.5,14.2c-3.7,3.8-8.3,5.8-13.8,5.8C1208.5,645.5,1203.9,643.5,1200.2,639.7z M1223.5,636
				c2.5-2.8,3.7-6.3,3.7-10.5c0-4.1-1.2-7.6-3.7-10.4c-2.5-2.8-5.7-4.2-9.6-4.2c-3.8,0-7,1.4-9.5,4.2c-2.5,2.7-3.7,6.2-3.7,10.4
				c0,4.1,1.2,7.6,3.7,10.5c2.5,2.7,5.7,4.1,9.5,4.1C1217.8,640.1,1221,638.7,1223.5,636z"/>
			<path fill="#B8B9BA" d="M1247.4,659.8h-5.8v-53.4h5.6v5.2c3.5-4.1,7.9-6.2,13-6.2c5.2,0,9.4,2,12.8,5.8s5,8.6,5,14.2
				s-1.6,10.4-5,14.2s-7.6,5.8-12.8,5.8s-9.5-2-12.9-5.9v20.3H1247.4z M1272.1,625.5c0-4.2-1.1-7.7-3.4-10.5c-2.3-2.7-5.2-4.1-9-4.1
				s-6.9,1.4-9.1,4.1c-2.3,2.7-3.4,6.2-3.4,10.5c0,4.2,1.1,7.7,3.4,10.5c2.3,2.7,5.3,4.1,9.1,4.1s6.8-1.4,9-4.1
				C1271,633.2,1272.1,629.7,1272.1,625.5z"/>
			<path fill="#B8B9BA" d="M1294.8,640.9c0,2.6-2,4.6-4.8,4.6c-2.6,0-4.6-2-4.6-4.6s2-4.7,4.6-4.7
				C1292.8,636.2,1294.8,638.2,1294.8,640.9z"/>
		</g>
		<g>
			<path fill="#B8B9BA" d="M626.7,484.6v-54.7h5.9v54.7H626.7z"/>
			<path fill="#B8B9BA" d="M648.4,446.4v4.7c2.6-3.4,7.3-5.6,12.1-5.6c9.8,0,15.2,6.1,15.2,16.9v22.2h-5.9v-22.7
				c0-7.1-3.6-11.1-9.8-11.1c-7.5,0-11.5,5.7-11.5,14.8v19h-5.8v-38.2L648.4,446.4L648.4,446.4z"/>
			<path fill="#64ABCC" d="M737.7,484.6L727,467.1h-9.3v17.6h-11.6V430h22.6c6.1,0,11.1,1.6,15,4.8c4,3.2,5.9,7.6,5.9,13.1
				c0,7.7-4.2,14-10.8,17.1l12.1,19.7h-13.2V484.6z M717.7,440.6v15.8h9c7.6,0,11.4-2.7,11.4-8s-3.6-7.8-11.4-7.8H717.7z"/>
			<path fill="#64ABCC" d="M792.4,468.3h-25.9c0.6,4.1,3.8,7,8.6,7c3.9,0,7-1.5,9.4-4.4l7.3,6.9c-4.1,5.1-9.6,7.7-16.4,7.7
				c-5.9,0-10.6-1.8-14.4-5.4c-3.8-3.7-5.7-8.4-5.7-14.4c0-5.8,1.7-10.7,5.2-14.5s8-5.8,13.6-5.8c5.9,0,10.4,2,13.6,5.9
				c3.2,3.9,4.8,8.5,4.8,13.7L792.4,468.3z M767.1,460.9h13.7c-0.2-3.2-2.8-5.7-6.5-5.7C770.3,455.2,767.8,457.6,767.1,460.9z"/>
			<path fill="#64ABCC" d="M812,484.6h-11.1v-38.2h10.9v2.7c2.5-2.4,5.5-3.6,9-3.6c9.4,0,15.6,6.2,15.6,16.9v22.2h-11.2v-21.4
				c0-4.4-2-7.5-6.3-7.5c-4.7,0-7,3.3-7,9.8L812,484.6L812,484.6z"/>
			<path fill="#64ABCC" d="M849.4,451.1c3.7-3.7,8.3-5.6,13.7-5.6c4,0,7.3,1.1,9.8,3.4V430H884v54.7h-11V482
				c-2.5,2.4-5.9,3.6-10,3.6c-5.4,0-10-1.8-13.7-5.5s-5.5-8.5-5.5-14.5C843.9,459.6,845.7,454.8,849.4,451.1z M873,465.5
				c0-2.9-0.9-5.3-2.6-7.2c-1.6-1.9-3.7-2.8-6.3-2.8s-4.7,0.9-6.4,2.8c-1.6,1.9-2.5,4.3-2.5,7.2c0,2.9,0.9,5.3,2.5,7.2
				c1.7,1.9,3.8,2.8,6.4,2.8s4.7-0.9,6.3-2.8C872.1,470.8,873,468.4,873,465.5z"/>
			<path fill="#64ABCC" d="M929.5,468.3h-25.9c0.6,4.1,3.8,7,8.6,7c3.9,0,7-1.5,9.4-4.4l7.3,6.9c-4.1,5.1-9.6,7.7-16.4,7.7
				c-5.9,0-10.6-1.8-14.4-5.4c-3.8-3.7-5.7-8.4-5.7-14.4c0-5.8,1.7-10.7,5.2-14.5s8-5.8,13.6-5.8c5.9,0,10.4,2,13.6,5.9
				c3.2,3.9,4.8,8.5,4.8,13.7L929.5,468.3z M904.1,460.9h13.7c-0.2-3.2-2.8-5.7-6.5-5.7C907.4,455.2,904.8,457.6,904.1,460.9z"/>
			<path fill="#64ABCC" d="M961.4,456.6h-1.7c-6.5,0-10.6,4.2-10.6,12v16H938v-38.2h10.9v3.4c2.3-2.7,5.4-4,9.5-4c1.2,0,2.3,0,3,0.1
				V456.6z"/>
			<path fill="#64ABCC" d="M1013.7,473.6l-10.4-20v31h-11.6v-54.7h11.6l15.5,30.7l15.6-30.7h11.5v54.7h-11.5v-31l-10.5,20H1013.7z"
				/>
			<path fill="#64ABCC" d="M1054.8,465.5c0-5.7,2-10.5,5.8-14.3c3.9-3.8,8.7-5.8,14.4-5.8s10.5,2,14.4,5.8s5.9,8.6,5.9,14.3
				s-2,10.5-5.8,14.3s-8.7,5.7-14.4,5.7s-10.6-1.9-14.4-5.7S1054.8,471.2,1054.8,465.5z M1066.1,465.5c0,2.8,0.9,5.1,2.5,6.9
				s3.8,2.7,6.4,2.7s4.8-0.9,6.4-2.7c1.6-1.8,2.5-4.1,2.5-6.9s-0.9-5.1-2.5-6.9s-3.8-2.7-6.4-2.7s-4.8,0.9-6.4,2.7
				C1067,460.4,1066.1,462.7,1066.1,465.5z"/>
			<path fill="#64ABCC" d="M1107.3,451.1c3.7-3.7,8.3-5.6,13.7-5.6c4,0,7.3,1.1,9.8,3.4V430h11.1v54.7H1131V482
				c-2.5,2.4-5.9,3.6-10,3.6c-5.4,0-10-1.8-13.7-5.5s-5.5-8.5-5.5-14.5S1103.6,454.8,1107.3,451.1z M1130.9,465.5
				c0-2.9-0.9-5.3-2.6-7.2c-1.6-1.9-3.7-2.8-6.3-2.8s-4.7,0.9-6.4,2.8c-1.6,1.9-2.5,4.3-2.5,7.2c0,2.9,0.9,5.3,2.5,7.2
				c1.7,1.9,3.8,2.8,6.4,2.8s4.7-0.9,6.3-2.8C1130.1,470.8,1130.9,468.4,1130.9,465.5z"/>
			<path fill="#64ABCC" d="M1187.4,468.3h-25.9c0.6,4.1,3.8,7,8.6,7c3.9,0,7-1.5,9.4-4.4l7.3,6.9c-4.1,5.1-9.6,7.7-16.4,7.7
				c-5.9,0-10.6-1.8-14.4-5.4c-3.8-3.7-5.7-8.4-5.7-14.4c0-5.8,1.7-10.7,5.2-14.5s8-5.8,13.6-5.8c5.8,0,10.4,2,13.6,5.9
				s4.8,8.5,4.8,13.7L1187.4,468.3z M1162.1,460.9h13.7c-0.2-3.2-2.8-5.7-6.5-5.7C1165.3,455.2,1162.8,457.6,1162.1,460.9z"/>
			<path fill="#B8B9BA" d="M1198.1,494.4h-6.2l7.4-18.6h7.3L1198.1,494.4z"/>
			<path fill="#B8B9BA" d="M632.3,526.4v4.6c2.2-3.1,6.4-5.5,11-5.5c5.2,0,9,2.1,11.4,6.3c2.9-4.2,6.9-6.3,11.9-6.3
				c9.8,0,14.7,5.6,14.7,16.9v22.2h-5.8v-22.7c0-7.4-3-11.1-8.9-11.1c-6.3,0-9.8,4.6-9.8,12.7v21.1H651v-22.3
				c0-7.6-2.9-11.5-8.6-11.5c-6.6,0-10.1,4.6-10.1,12.7v21.1h-5.8v-38.2H632.3z"/>
			<path fill="#B8B9BA" d="M689.2,553.9c0-7.6,5.7-12,14.1-12c2.8,0,6.3,0.6,10.5,1.9v-3.9c0-5.7-3.8-9-9.4-9c-4.7,0-8.4,2.8-10,6.3
				l-4-3.7c3-5.3,7.7-8,14-8c9.3,0,15.1,5.4,15.1,15v24.2H714v-4c-2.9,3.2-6.8,4.8-11.9,4.8C694.8,565.5,689.2,561.1,689.2,553.9z
				 M702.4,560.3c4.7,0,9-2.7,11.4-6.1v-5.1c-3.7-1.2-7.1-1.9-10.1-1.9c-5.9,0-8.7,2.7-8.7,6.8C695,557.8,698,560.3,702.4,560.3z"/>
			<path fill="#B8B9BA" d="M738.8,547.5c-7.3-1.7-10.8-5.4-10.8-11c0-3.4,1.3-6.1,3.9-8c2.6-2,5.7-3,9.3-3c5.1,0,9.6,2,13.6,6.2
				l-3.9,4.1c-3.1-3.3-6.5-4.9-10.1-4.9c-4.1,0-7,2.2-7,5.4c0,2.9,1.9,4.8,5.7,5.6l6,1.4c7.3,1.7,10.8,5.3,10.8,10.8
				c0,6.8-5.6,11.5-14.3,11.5c-6.6,0-12.3-3.1-15.4-7.2l3.8-4c3.1,3.9,6.9,5.8,11.5,5.8c5.4,0,8.6-2.2,8.6-5.8c0-2.7-2-4.6-6-5.5
				L738.8,547.5z"/>
			<path fill="#B8B9BA" d="M764.7,564.6v-54.7h5.8v36l17.7-19.6h7.6l-14.9,16.1l15.8,22.1h-7.4l-12.5-17.6l-6.2,6.8v10.8h-5.9V564.6
				z"/>
			<path fill="#B8B9BA" d="M835.3,547.5c-7.3-1.7-10.8-5.4-10.8-11c0-3.4,1.3-6.1,3.9-8c2.6-2,5.7-3,9.3-3c5.1,0,9.6,2,13.6,6.2
				l-3.9,4.1c-3.1-3.3-6.5-4.9-10.1-4.9c-4.1,0-7,2.2-7,5.4c0,2.9,1.9,4.8,5.7,5.6l6,1.4c7.3,1.7,10.8,5.3,10.8,10.8
				c0,6.8-5.6,11.5-14.3,11.5c-6.6,0-12.3-3.1-15.4-7.2l3.8-4c3.1,3.9,6.9,5.8,11.5,5.8c5.4,0,8.6-2.2,8.6-5.8c0-2.7-2-4.6-6-5.5
				L835.3,547.5z"/>
			<path fill="#B8B9BA" d="M866.9,509.9V531c2.6-3.4,7.2-5.5,11.9-5.5c9.8,0,15.2,6.1,15.2,16.9v22.2h-5.9v-22.7
				c0-7.1-3.6-11.1-9.8-11.1c-7.5,0-11.5,5.7-11.5,14.8v19H861v-54.7L866.9,509.9L866.9,509.9z"/>
			<path fill="#B8B9BA" d="M900.6,553.9c0-7.6,5.7-12,14.1-12c2.8,0,6.3,0.6,10.5,1.9v-3.9c0-5.7-3.8-9-9.4-9c-4.7,0-8.4,2.8-10,6.3
				l-4-3.7c3-5.3,7.7-8,14-8c9.3,0,15.1,5.4,15.1,15v24.2h-5.6v-4c-2.9,3.2-6.8,4.8-11.9,4.8C906.2,565.5,900.6,561.1,900.6,553.9z
				 M913.8,560.3c4.7,0,9-2.7,11.4-6.1v-5.1c-3.7-1.2-7.1-1.9-10.1-1.9c-5.9,0-8.7,2.7-8.7,6.8C906.4,557.8,909.4,560.3,913.8,560.3
				z"/>
			<path fill="#B8B9BA" d="M947.2,579.8h-5.8v-53.4h5.6v5.2c3.5-4.1,7.9-6.2,13-6.2c5.2,0,9.4,2,12.8,5.9c3.4,3.8,5,8.6,5,14.2
				s-1.6,10.4-5,14.2s-7.6,5.8-12.8,5.8s-9.5-2-12.9-5.9v20.2H947.2z M972,545.5c0-4.2-1.1-7.7-3.4-10.5c-2.3-2.7-5.2-4.1-9-4.1
				s-6.9,1.4-9.1,4.1c-2.3,2.7-3.4,6.2-3.4,10.5s1.1,7.7,3.4,10.5c2.3,2.7,5.3,4.1,9.1,4.1s6.8-1.4,9-4.1
				C970.9,553.2,972,549.7,972,545.5z"/>
			<path fill="#B8B9BA" d="M1019.3,547.3h-28.5c0.5,8,5.4,12.8,12.9,12.8c4.3,0,7.9-1.9,10.9-5.6l4,3.7c-4.1,4.9-9,7.3-14.9,7.3
				c-5.7,0-10.3-1.8-13.7-5.5s-5.1-8.4-5.1-14.3c0-5.8,1.6-10.6,4.7-14.4c3.2-3.9,7.4-5.9,12.7-5.9c3.9,0,7.2,1,9.8,3
				c5.4,4.1,7.3,9.8,7.3,16.1L1019.3,547.3z M991.1,542.2h22.5c-0.5-6.8-4.8-11.2-11.1-11.2C996,530.9,992.1,535.5,991.1,542.2z"/>
			<path fill="#B8B9BA" d="M1037.3,547.5c-7.3-1.7-10.8-5.4-10.8-11c0-3.4,1.3-6.1,3.9-8s5.7-3,9.3-3c5.1,0,9.6,2,13.6,6.2l-3.9,4.1
				c-3.1-3.3-6.5-4.9-10.1-4.9c-4.1,0-7,2.2-7,5.4c0,2.9,1.9,4.8,5.7,5.6l6,1.4c7.3,1.7,10.8,5.3,10.8,10.8
				c0,6.8-5.6,11.5-14.3,11.5c-6.6,0-12.3-3.1-15.4-7.2l3.8-4c3.1,3.9,6.9,5.8,11.5,5.8c5.4,0,8.6-2.2,8.6-5.8c0-2.7-2-4.6-6-5.5
				L1037.3,547.5z"/>
			<path fill="#B8B9BA" d="M1117.5,558.2c-4.1,4.9-9.1,7.3-15.3,7.3c-5.5,0-10.1-2-13.7-5.8c-3.7-3.9-5.5-8.7-5.5-14.2
				s1.9-10.2,5.6-14.1c3.8-4,8.4-5.9,13.8-5.9c5.8,0,10.5,2.3,14.3,6.8l-3.9,3.8c-2.9-3.4-6.3-5.1-10.4-5.1c-3.9,0-7.1,1.4-9.7,4.2
				c-2.6,2.7-3.8,6.2-3.8,10.4c0,8.5,5.2,14.6,13.7,14.6c4.3,0,8-1.9,10.8-5.6L1117.5,558.2z"/>
			<path fill="#B8B9BA" d="M1127.3,559.7c-3.7-3.9-5.5-8.7-5.5-14.2s1.8-10.3,5.5-14.2s8.3-5.9,13.7-5.9c5.5,0,10.1,2,13.7,5.9
				c3.7,3.9,5.6,8.7,5.6,14.2s-1.9,10.3-5.5,14.2c-3.7,3.8-8.3,5.8-13.8,5.8C1135.6,565.5,1131,563.5,1127.3,559.7z M1150.7,556
				c2.5-2.8,3.7-6.3,3.7-10.5c0-4.1-1.2-7.6-3.7-10.4c-2.5-2.8-5.7-4.2-9.6-4.2c-3.8,0-7,1.4-9.5,4.2c-2.5,2.7-3.7,6.2-3.7,10.4
				c0,4.1,1.2,7.6,3.7,10.5c2.5,2.7,5.7,4.1,9.5,4.1C1145,560.1,1148.2,558.7,1150.7,556z"/>
			<path fill="#B8B9BA" d="M1198.5,526.4l-14.5,38.2h-6.1l-14.5-38.2h6.3l11.2,31.2l11.2-31.2H1198.5z"/>
			<path fill="#B8B9BA" d="M1235.8,547.3h-28.5c0.5,8,5.4,12.8,12.9,12.8c4.3,0,7.9-1.9,10.9-5.6l4,3.7c-4.1,4.9-9,7.3-14.9,7.3
				c-5.7,0-10.3-1.8-13.7-5.5c-3.4-3.7-5.1-8.4-5.1-14.3c0-5.8,1.6-10.6,4.7-14.4c3.2-3.9,7.4-5.9,12.7-5.9c3.9,0,7.2,1,9.8,3
				c5.4,4.1,7.3,9.8,7.3,16.1L1235.8,547.3z M1207.6,542.2h22.5c-0.5-6.8-4.8-11.2-11.1-11.2
				C1212.5,530.9,1208.6,535.5,1207.6,542.2z"/>
			<path fill="#B8B9BA" d="M1264.1,531.5c-0.4-0.1-0.9-0.1-1.3-0.1c-9,0-12.7,4.5-12.7,16.9v16.3h-5.8v-38.2h5.6v5.1
				c3.4-4.1,6.9-5.6,12.5-5.6c0.5,0,1.2,0,1.7,0.1L1264.1,531.5L1264.1,531.5z"/>
			<path fill="#B8B9BA" d="M639,659.8h-6.3l5.8-14.7l-15.8-38.7h6.5l12.6,31.7l12.3-31.7h6.4L639,659.8z"/>
			<path fill="#B8B9BA" d="M667.9,639.7c-3.7-3.9-5.5-8.7-5.5-14.2s1.8-10.3,5.5-14.2s8.3-5.8,13.7-5.8c5.5,0,10.1,2,13.7,5.8
				c3.7,3.9,5.6,8.7,5.6,14.2s-1.9,10.3-5.5,14.2c-3.7,3.8-8.3,5.8-13.8,5.8C676.2,645.5,671.6,643.5,667.9,639.7z M691.3,636
				c2.5-2.8,3.7-6.3,3.7-10.5c0-4.1-1.2-7.6-3.7-10.4c-2.5-2.8-5.7-4.2-9.6-4.2c-3.8,0-7,1.4-9.5,4.2c-2.5,2.7-3.7,6.2-3.7,10.4
				c0,4.1,1.2,7.6,3.7,10.5c2.5,2.7,5.7,4.1,9.5,4.1C685.6,640.1,688.8,638.7,691.3,636z"/>
			<path fill="#B8B9BA" d="M734.6,644.6v-4.8c-3,3.8-7,5.7-12.1,5.7c-9.6,0-14.4-5.6-14.4-16.8v-22.2h5.8V629
				c0,7.3,3.2,11.2,9.4,11.2c7.4,0,11.1-5.4,11.1-14.7v-19h5.8v38.2h-5.6V644.6z"/>
			<path fill="#B8B9BA" d="M771,611.5c-0.4-0.1-0.9-0.1-1.3-0.1c-9,0-12.7,4.5-12.7,16.9v16.3h-5.8v-38.2h5.6v5.1
				c3.4-4.1,6.9-5.6,12.5-5.6c0.5,0,1.2,0,1.7,0.1V611.5z"/>
			<path fill="#B8B9BA" d="M831.4,627.3h-28.5c0.5,8,5.4,12.8,12.9,12.8c4.3,0,7.9-1.9,10.9-5.6l4,3.7c-4.1,4.9-9,7.3-14.9,7.3
				c-5.7,0-10.3-1.8-13.7-5.5s-5.1-8.4-5.1-14.3c0-5.8,1.6-10.6,4.7-14.4c3.2-3.9,7.4-5.8,12.7-5.8c3.9,0,7.2,1,9.8,3
				c5.4,4.1,7.3,9.8,7.3,16.1L831.4,627.3z M803.2,622.2h22.5c-0.5-6.8-4.8-11.2-11.1-11.2C808.1,610.9,804.2,615.5,803.2,622.2z"/>
			<path fill="#B8B9BA" d="M845.5,606.4v4.7c2.6-3.4,7.3-5.6,12.1-5.6c9.8,0,15.2,6.1,15.2,16.9v22.2h-5.9v-22.7
				c0-7.1-3.6-11.1-9.8-11.1c-7.5,0-11.5,5.7-11.5,14.8v19h-5.8v-38.2L845.5,606.4L845.5,606.4z"/>
			<path fill="#B8B9BA" d="M883.8,633.4v-21.7h-6.2v-5.3h6.2v-10.7h5.8v10.7h8.9v5.3h-8.9v20.8c0,5,1.2,6.9,5.9,6.9l3-0.1v5.2
				c-1,0.1-2.3,0.2-3.6,0.2C887.3,644.8,883.8,641.6,883.8,633.4z"/>
			<path fill="#B8B9BA" d="M906.6,590.3c1.8-1.6,4.5-1.6,6.2,0c1.8,1.6,1.8,4.4,0,6.2c-1.6,1.6-4.4,1.6-6.2,0
				C905,594.7,905,592,906.6,590.3z M906.8,644.6v-38.2h5.8v38.2H906.8z"/>
			<path fill="#B8B9BA" d="M944,611.5c-0.4-0.1-0.9-0.1-1.3-0.1c-9,0-12.7,4.5-12.7,16.9v16.3h-5.8v-38.2h5.6v5.1
				c3.4-4.1,6.9-5.6,12.5-5.6c0.5,0,1.2,0,1.7,0.1V611.5z"/>
			<path fill="#B8B9BA" d="M982,627.3h-28.5c0.5,8,5.4,12.8,12.9,12.8c4.3,0,7.9-1.9,10.9-5.6l4,3.7c-4.1,4.9-9,7.3-14.9,7.3
				c-5.7,0-10.3-1.8-13.7-5.5s-5.1-8.4-5.1-14.3c0-5.8,1.6-10.6,4.7-14.4c3.2-3.9,7.4-5.8,12.7-5.8c3.9,0,7.2,1,9.8,3
				c5.4,4.1,7.3,9.8,7.3,16.1L982,627.3z M953.7,622.2h22.5c-0.5-6.8-4.8-11.2-11.1-11.2C958.6,610.9,954.7,615.5,953.7,622.2z"/>
			<path fill="#B8B9BA" d="M1040.9,611.5V590h5.8v54.7h-5.5v-5.2c-3.5,4.1-7.9,6.1-13.1,6.1c-5.2,0-9.4-2-12.8-5.8
				c-3.4-3.8-5-8.6-5-14.2s1.6-10.4,5-14.2c3.4-3.9,7.6-5.8,12.8-5.8C1033.2,605.5,1037.5,607.5,1040.9,611.5z M1016.2,625.5
				c0,4.2,1.1,7.7,3.4,10.5c2.3,2.7,5.2,4.1,9,4.1s6.9-1.4,9.1-4.1c2.3-2.7,3.4-6.2,3.4-10.5c0-4.2-1.2-7.7-3.4-10.5
				c-2.3-2.7-5.3-4.1-9.1-4.1s-6.8,1.4-9,4.1C1017.3,617.8,1016.2,621.3,1016.2,625.5z"/>
			<path fill="#B8B9BA" d="M1089.4,627.3H1061c0.5,8,5.4,12.8,12.9,12.8c4.3,0,7.9-1.9,10.9-5.6l4,3.7c-4.1,4.9-9,7.3-14.9,7.3
				c-5.7,0-10.3-1.8-13.7-5.5c-3.4-3.7-5.1-8.4-5.1-14.3c0-5.8,1.6-10.6,4.7-14.4c3.2-3.9,7.4-5.8,12.7-5.8c3.9,0,7.2,1,9.8,3
				c5.4,4.1,7.3,9.8,7.3,16.1L1089.4,627.3z M1061.2,622.2h22.5c-0.5-6.8-4.8-11.2-11.1-11.2
				C1066.1,610.9,1062.2,615.5,1061.2,622.2z"/>
			<path fill="#B8B9BA" d="M1107.5,627.5c-7.3-1.7-10.8-5.4-10.8-11c0-3.4,1.3-6.1,3.9-8s5.7-3,9.3-3c5.1,0,9.6,2,13.6,6.2l-3.9,4.1
				c-3.1-3.3-6.5-4.9-10.1-4.9c-4.1,0-7,2.2-7,5.4c0,2.9,1.9,4.8,5.7,5.6l6,1.4c7.3,1.7,10.8,5.3,10.8,10.8
				c0,6.8-5.6,11.5-14.3,11.5c-6.6,0-12.3-3.1-15.4-7.2l3.8-4c3.1,3.9,6.9,5.9,11.5,5.9c5.4,0,8.6-2.2,8.6-5.9c0-2.7-2-4.6-6-5.5
				L1107.5,627.5z"/>
			<path fill="#B8B9BA" d="M1133.3,644.6v-54.7h5.8v36l17.7-19.6h7.6l-14.9,16.1l15.8,22.1h-7.4l-12.5-17.6l-6.2,6.8v10.8h-5.9
				V644.6z"/>
			<path fill="#B8B9BA" d="M1174.5,633.4v-21.7h-6.2v-5.3h6.2v-10.7h5.8v10.7h8.9v5.3h-8.9v20.8c0,5,1.2,6.9,5.8,6.9l3-0.1v5.2
				c-1,0.1-2.3,0.2-3.6,0.2C1178,644.8,1174.5,641.6,1174.5,633.4z"/>
			<path fill="#B8B9BA" d="M1200.2,639.7c-3.7-3.9-5.5-8.7-5.5-14.2s1.8-10.3,5.5-14.2s8.3-5.8,13.7-5.8s10.1,2,13.7,5.8
				c3.7,3.9,5.6,8.7,5.6,14.2s-1.9,10.3-5.5,14.2c-3.7,3.8-8.3,5.8-13.8,5.8C1208.5,645.5,1203.9,643.5,1200.2,639.7z M1223.5,636
				c2.5-2.8,3.7-6.3,3.7-10.5c0-4.1-1.2-7.6-3.7-10.4c-2.5-2.8-5.7-4.2-9.6-4.2c-3.8,0-7,1.4-9.5,4.2c-2.5,2.7-3.7,6.2-3.7,10.4
				c0,4.1,1.2,7.6,3.7,10.5c2.5,2.7,5.7,4.1,9.5,4.1C1217.8,640.1,1221,638.7,1223.5,636z"/>
			<path fill="#B8B9BA" d="M1247.4,659.8h-5.8v-53.4h5.6v5.2c3.5-4.1,7.9-6.2,13-6.2c5.2,0,9.4,2,12.8,5.8s5,8.6,5,14.2
				s-1.6,10.4-5,14.2s-7.6,5.8-12.8,5.8s-9.5-2-12.9-5.9v20.3H1247.4z M1272.1,625.5c0-4.2-1.1-7.7-3.4-10.5c-2.3-2.7-5.2-4.1-9-4.1
				s-6.9,1.4-9.1,4.1c-2.3,2.7-3.4,6.2-3.4,10.5c0,4.2,1.1,7.7,3.4,10.5c2.3,2.7,5.3,4.1,9.1,4.1s6.8-1.4,9-4.1
				C1271,633.2,1272.1,629.7,1272.1,625.5z"/>
			<path fill="#B8B9BA" d="M1294.8,640.9c0,2.6-2,4.6-4.8,4.6c-2.6,0-4.6-2-4.6-4.6s2-4.7,4.6-4.7
				C1292.8,636.2,1294.8,638.2,1294.8,640.9z"/>
		</g>
	</g>
	<g>
		<g>
			<path fill="#B8B9BA" d="M843.8,1018.2l-1.6,1.5c-4.1-4-6.1-8.6-6.1-13.9c0-5.3,2-10,6.1-13.9l1.6,1.5c-3.7,3.8-5.4,7.7-5.4,12.5
				C838.4,1010.6,840,1014.5,843.8,1018.2z"/>
			<path fill="#B8B9BA" d="M857.3,1011.1c-1.6,1.9-3.5,2.8-5.9,2.8c-2.1,0-3.9-0.8-5.3-2.2c-1.4-1.5-2.1-3.3-2.1-5.5
				s0.7-3.9,2.2-5.4s3.2-2.3,5.3-2.3c2.2,0,4,0.9,5.5,2.6l-1.5,1.5c-1.1-1.3-2.4-2-4-2c-1.5,0-2.7,0.5-3.7,1.6c-1,1-1.5,2.4-1.5,4
				c0,3.3,2,5.6,5.3,5.6c1.6,0,3.1-0.7,4.2-2.2L857.3,1011.1z"/>
			<path fill="#B8B9BA" d="M860.2,1013.5v-21h2.2v21H860.2z"/>
			<path fill="#B8B9BA" d="M866.8,992.7c0.7-0.6,1.7-0.6,2.4,0s0.7,1.7,0,2.4c-0.6,0.6-1.7,0.6-2.4,0
				C866.1,994.3,866.1,993.3,866.8,992.7z M866.9,1013.5v-14.7h2.2v14.7H866.9z"/>
			<path fill="#B8B9BA" d="M885.8,1011.1c-1.6,1.9-3.5,2.8-5.9,2.8c-2.1,0-3.9-0.8-5.3-2.2c-1.4-1.5-2.1-3.3-2.1-5.5
				s0.7-3.9,2.2-5.4s3.2-2.3,5.3-2.3c2.2,0,4,0.9,5.5,2.6l-1.5,1.5c-1.1-1.3-2.4-2-4-2c-1.5,0-2.7,0.5-3.7,1.6c-1,1-1.5,2.4-1.5,4
				c0,3.3,2,5.6,5.3,5.6c1.7,0,3.1-0.7,4.2-2.2L885.8,1011.1z"/>
			<path fill="#B8B9BA" d="M888.7,1013.5v-21h2.2v13.9l6.8-7.5h2.9l-5.7,6.2l6.1,8.5h-2.8l-4.8-6.7l-2.4,2.6v4.1L888.7,1013.5
				L888.7,1013.5z"/>
			<path fill="#B8B9BA" d="M912.9,1009.2v-8.3h-2.4v-2h2.4v-4.1h2.2v4.1h3.4v2h-3.4v8c0,1.9,0.5,2.7,2.2,2.7h1.2v2
				c-0.4,0-0.9,0.1-1.4,0.1C914.2,1013.6,912.9,1012.4,912.9,1009.2z"/>
			<path fill="#B8B9BA" d="M922.8,1011.7c-1.4-1.5-2.1-3.3-2.1-5.5s0.7-4,2.1-5.5s3.2-2.2,5.3-2.2s3.9,0.8,5.3,2.2
				c1.4,1.5,2.2,3.3,2.2,5.5s-0.7,4-2.1,5.5c-1.4,1.5-3.2,2.2-5.3,2.2C925.9,1013.9,924.2,1013.1,922.8,1011.7z M931.7,1010.2
				c1-1.1,1.4-2.4,1.4-4s-0.5-2.9-1.4-4c-1-1.1-2.2-1.6-3.7-1.6s-2.7,0.5-3.7,1.6c-1,1-1.4,2.4-1.4,4s0.5,2.9,1.4,4
				c1,1.1,2.2,1.6,3.7,1.6S930.8,1011.3,931.7,1010.2z"/>
			<path fill="#B8B9BA" d="M946.3,1009.4c0-2.9,2.2-4.6,5.4-4.6c1.1,0,2.4,0.2,4,0.7v-1.5c0-2.2-1.5-3.4-3.6-3.4
				c-1.8,0-3.2,1.1-3.8,2.4l-1.5-1.4c1.2-2,3-3.1,5.4-3.1c3.6,0,5.8,2.1,5.8,5.8v9.3h-2.2v-1.5c-1.1,1.2-2.6,1.9-4.6,1.9
				C948.5,1013.9,946.3,1012.2,946.3,1009.4z M951.4,1011.9c1.8,0,3.4-1,4.4-2.3v-2c-1.4-0.5-2.7-0.7-3.9-0.7
				c-2.2,0-3.3,1.1-3.3,2.6C948.6,1010.9,949.7,1011.9,951.4,1011.9z"/>
			<path fill="#B8B9BA" d="M972.8,1000.8v-8.3h2.2v21h-2.1v-2c-1.3,1.6-3,2.3-5,2.3s-3.6-0.8-4.9-2.2c-1.3-1.5-1.9-3.3-1.9-5.5
				s0.6-4,1.9-5.5c1.3-1.5,2.9-2.2,4.9-2.2C969.9,998.5,971.5,999.3,972.8,1000.8z M963.3,1006.2c0,1.6,0.4,3,1.3,4
				c0.9,1.1,2,1.6,3.5,1.6s2.6-0.5,3.5-1.6c0.9-1,1.3-2.4,1.3-4s-0.4-3-1.3-4c-0.9-1-2-1.6-3.5-1.6s-2.6,0.5-3.5,1.6
				C963.7,1003.2,963.3,1004.6,963.3,1006.2z"/>
			<path fill="#B8B9BA" d="M990.9,998.8l-5.6,14.7H983l-5.6-14.7h2.4l4.3,12l4.3-12H990.9z"/>
			<path fill="#B8B9BA" d="M992.2,1009.4c0-2.9,2.2-4.6,5.4-4.6c1.1,0,2.4,0.2,4,0.7v-1.5c0-2.2-1.5-3.4-3.6-3.4
				c-1.8,0-3.2,1.1-3.8,2.4l-1.5-1.4c1.2-2,3-3.1,5.4-3.1c3.6,0,5.8,2.1,5.8,5.8v9.3h-2.2v-1.5c-1.1,1.2-2.6,1.9-4.6,1.9
				C994.4,1013.9,992.2,1012.2,992.2,1009.4z M997.3,1011.9c1.8,0,3.5-1,4.4-2.3v-2c-1.4-0.5-2.7-0.7-3.9-0.7
				c-2.2,0-3.3,1.1-3.3,2.6C994.4,1010.9,995.6,1011.9,997.3,1011.9z"/>
			<path fill="#B8B9BA" d="M1010.1,998.8v1.8c1-1.3,2.8-2.2,4.7-2.2c3.7,0,5.8,2.3,5.8,6.5v8.5h-2.2v-8.7c0-2.7-1.4-4.3-3.8-4.3
				c-2.9,0-4.4,2.2-4.4,5.7v7.3h-2.2v-14.7h2.1V998.8z"/>
			<path fill="#B8B9BA" d="M1036.9,1011.1c-1.6,1.9-3.5,2.8-5.9,2.8c-2.1,0-3.9-0.8-5.3-2.2c-1.4-1.5-2.1-3.3-2.1-5.5
				s0.7-3.9,2.2-5.4s3.2-2.3,5.3-2.3c2.2,0,4,0.9,5.5,2.6l-1.5,1.5c-1.1-1.3-2.4-2-4-2c-1.5,0-2.7,0.5-3.7,1.6c-1,1-1.5,2.4-1.5,4
				c0,3.3,2,5.6,5.3,5.6c1.7,0,3.1-0.7,4.2-2.2L1036.9,1011.1z"/>
			<path fill="#B8B9BA" d="M1051.8,1006.9h-10.9c0.2,3.1,2.1,4.9,4.9,4.9c1.7,0,3-0.7,4.2-2.2l1.5,1.4c-1.6,1.9-3.5,2.8-5.7,2.8
				s-4-0.7-5.3-2.1c-1.3-1.4-2-3.2-2-5.5c0-2.2,0.6-4.1,1.8-5.5c1.2-1.5,2.8-2.2,4.9-2.2c1.5,0,2.8,0.4,3.8,1.2
				c2.1,1.6,2.8,3.8,2.8,6.2L1051.8,1006.9z M1040.9,1004.9h8.6c-0.2-2.6-1.8-4.3-4.3-4.3
				C1042.8,1000.6,1041.3,1002.4,1040.9,1004.9z"/>
			<path fill="#B8B9BA" d="M1052.8,993.3l1.6-1.5c4.1,4,6.1,8.6,6.1,13.9c0,5.3-2,10-6.1,13.9l-1.6-1.5c3.7-3.8,5.4-7.7,5.4-12.5
				C1058.2,1000.9,1056.5,997,1052.8,993.3z"/>
		</g>
		<g>
			<path fill="#B8B9BA" d="M843.8,1018.2l-1.6,1.5c-4.1-4-6.1-8.6-6.1-13.9c0-5.3,2-10,6.1-13.9l1.6,1.5c-3.7,3.8-5.4,7.7-5.4,12.5
				C838.4,1010.6,840,1014.5,843.8,1018.2z"/>
			<path fill="#B8B9BA" d="M857.3,1011.1c-1.6,1.9-3.5,2.8-5.9,2.8c-2.1,0-3.9-0.8-5.3-2.2c-1.4-1.5-2.1-3.3-2.1-5.5
				s0.7-3.9,2.2-5.4s3.2-2.3,5.3-2.3c2.2,0,4,0.9,5.5,2.6l-1.5,1.5c-1.1-1.3-2.4-2-4-2c-1.5,0-2.7,0.5-3.7,1.6c-1,1-1.5,2.4-1.5,4
				c0,3.3,2,5.6,5.3,5.6c1.6,0,3.1-0.7,4.2-2.2L857.3,1011.1z"/>
			<path fill="#B8B9BA" d="M860.2,1013.5v-21h2.2v21H860.2z"/>
			<path fill="#B8B9BA" d="M866.8,992.7c0.7-0.6,1.7-0.6,2.4,0s0.7,1.7,0,2.4c-0.6,0.6-1.7,0.6-2.4,0
				C866.1,994.3,866.1,993.3,866.8,992.7z M866.9,1013.5v-14.7h2.2v14.7H866.9z"/>
			<path fill="#B8B9BA" d="M885.8,1011.1c-1.6,1.9-3.5,2.8-5.9,2.8c-2.1,0-3.9-0.8-5.3-2.2c-1.4-1.5-2.1-3.3-2.1-5.5
				s0.7-3.9,2.2-5.4s3.2-2.3,5.3-2.3c2.2,0,4,0.9,5.5,2.6l-1.5,1.5c-1.1-1.3-2.4-2-4-2c-1.5,0-2.7,0.5-3.7,1.6c-1,1-1.5,2.4-1.5,4
				c0,3.3,2,5.6,5.3,5.6c1.7,0,3.1-0.7,4.2-2.2L885.8,1011.1z"/>
			<path fill="#B8B9BA" d="M888.7,1013.5v-21h2.2v13.9l6.8-7.5h2.9l-5.7,6.2l6.1,8.5h-2.8l-4.8-6.7l-2.4,2.6v4.1L888.7,1013.5
				L888.7,1013.5z"/>
			<path fill="#B8B9BA" d="M912.9,1009.2v-8.3h-2.4v-2h2.4v-4.1h2.2v4.1h3.4v2h-3.4v8c0,1.9,0.5,2.7,2.2,2.7h1.2v2
				c-0.4,0-0.9,0.1-1.4,0.1C914.2,1013.6,912.9,1012.4,912.9,1009.2z"/>
			<path fill="#B8B9BA" d="M922.8,1011.7c-1.4-1.5-2.1-3.3-2.1-5.5s0.7-4,2.1-5.5s3.2-2.2,5.3-2.2s3.9,0.8,5.3,2.2
				c1.4,1.5,2.2,3.3,2.2,5.5s-0.7,4-2.1,5.5c-1.4,1.5-3.2,2.2-5.3,2.2C925.9,1013.9,924.2,1013.1,922.8,1011.7z M931.7,1010.2
				c1-1.1,1.4-2.4,1.4-4s-0.5-2.9-1.4-4c-1-1.1-2.2-1.6-3.7-1.6s-2.7,0.5-3.7,1.6c-1,1-1.4,2.4-1.4,4s0.5,2.9,1.4,4
				c1,1.1,2.2,1.6,3.7,1.6S930.8,1011.3,931.7,1010.2z"/>
			<path fill="#B8B9BA" d="M946.3,1009.4c0-2.9,2.2-4.6,5.4-4.6c1.1,0,2.4,0.2,4,0.7v-1.5c0-2.2-1.5-3.4-3.6-3.4
				c-1.8,0-3.2,1.1-3.8,2.4l-1.5-1.4c1.2-2,3-3.1,5.4-3.1c3.6,0,5.8,2.1,5.8,5.8v9.3h-2.2v-1.5c-1.1,1.2-2.6,1.9-4.6,1.9
				C948.5,1013.9,946.3,1012.2,946.3,1009.4z M951.4,1011.9c1.8,0,3.4-1,4.4-2.3v-2c-1.4-0.5-2.7-0.7-3.9-0.7
				c-2.2,0-3.3,1.1-3.3,2.6C948.6,1010.9,949.7,1011.9,951.4,1011.9z"/>
			<path fill="#B8B9BA" d="M972.8,1000.8v-8.3h2.2v21h-2.1v-2c-1.3,1.6-3,2.3-5,2.3s-3.6-0.8-4.9-2.2c-1.3-1.5-1.9-3.3-1.9-5.5
				s0.6-4,1.9-5.5c1.3-1.5,2.9-2.2,4.9-2.2C969.9,998.5,971.5,999.3,972.8,1000.8z M963.3,1006.2c0,1.6,0.4,3,1.3,4
				c0.9,1.1,2,1.6,3.5,1.6s2.6-0.5,3.5-1.6c0.9-1,1.3-2.4,1.3-4s-0.4-3-1.3-4c-0.9-1-2-1.6-3.5-1.6s-2.6,0.5-3.5,1.6
				C963.7,1003.2,963.3,1004.6,963.3,1006.2z"/>
			<path fill="#B8B9BA" d="M990.9,998.8l-5.6,14.7H983l-5.6-14.7h2.4l4.3,12l4.3-12H990.9z"/>
			<path fill="#B8B9BA" d="M992.2,1009.4c0-2.9,2.2-4.6,5.4-4.6c1.1,0,2.4,0.2,4,0.7v-1.5c0-2.2-1.5-3.4-3.6-3.4
				c-1.8,0-3.2,1.1-3.8,2.4l-1.5-1.4c1.2-2,3-3.1,5.4-3.1c3.6,0,5.8,2.1,5.8,5.8v9.3h-2.2v-1.5c-1.1,1.2-2.6,1.9-4.6,1.9
				C994.4,1013.9,992.2,1012.2,992.2,1009.4z M997.3,1011.9c1.8,0,3.5-1,4.4-2.3v-2c-1.4-0.5-2.7-0.7-3.9-0.7
				c-2.2,0-3.3,1.1-3.3,2.6C994.4,1010.9,995.6,1011.9,997.3,1011.9z"/>
			<path fill="#B8B9BA" d="M1010.1,998.8v1.8c1-1.3,2.8-2.2,4.7-2.2c3.7,0,5.8,2.3,5.8,6.5v8.5h-2.2v-8.7c0-2.7-1.4-4.3-3.8-4.3
				c-2.9,0-4.4,2.2-4.4,5.7v7.3h-2.2v-14.7h2.1V998.8z"/>
			<path fill="#B8B9BA" d="M1036.9,1011.1c-1.6,1.9-3.5,2.8-5.9,2.8c-2.1,0-3.9-0.8-5.3-2.2c-1.4-1.5-2.1-3.3-2.1-5.5
				s0.7-3.9,2.2-5.4s3.2-2.3,5.3-2.3c2.2,0,4,0.9,5.5,2.6l-1.5,1.5c-1.1-1.3-2.4-2-4-2c-1.5,0-2.7,0.5-3.7,1.6c-1,1-1.5,2.4-1.5,4
				c0,3.3,2,5.6,5.3,5.6c1.7,0,3.1-0.7,4.2-2.2L1036.9,1011.1z"/>
			<path fill="#B8B9BA" d="M1051.8,1006.9h-10.9c0.2,3.1,2.1,4.9,4.9,4.9c1.7,0,3-0.7,4.2-2.2l1.5,1.4c-1.6,1.9-3.5,2.8-5.7,2.8
				s-4-0.7-5.3-2.1c-1.3-1.4-2-3.2-2-5.5c0-2.2,0.6-4.1,1.8-5.5c1.2-1.5,2.8-2.2,4.9-2.2c1.5,0,2.8,0.4,3.8,1.2
				c2.1,1.6,2.8,3.8,2.8,6.2L1051.8,1006.9z M1040.9,1004.9h8.6c-0.2-2.6-1.8-4.3-4.3-4.3
				C1042.8,1000.6,1041.3,1002.4,1040.9,1004.9z"/>
			<path fill="#B8B9BA" d="M1052.8,993.3l1.6-1.5c4.1,4,6.1,8.6,6.1,13.9c0,5.3-2,10-6.1,13.9l-1.6-1.5c3.7-3.8,5.4-7.7,5.4-12.5
				C1058.2,1000.9,1056.5,997,1052.8,993.3z"/>
		</g>
	</g>
</g>
</svg>
