<?xml version="1.0" encoding="utf-8"?>
<!-- Generator: Adobe Illustrator 19.1.0, SVG Export Plug-In . SVG Version: 6.00 Build 0)  -->
<svg version="1.1" baseProfile="tiny" id="Layer_1_copy"
	 xmlns="http://www.w3.org/2000/svg" xmlns:xlink="http://www.w3.org/1999/xlink" x="0px" y="0px" >
<rect fill="#FFFFFF" width="1920" height="1080"/>
<g>
	<path fill="#9AD2E6" d="M700.7,426.7h41.8v5.8h-18.1v50.7h-6.1v-50.7h-17.6V426.7z"/>
	<path fill="#9AD2E6" d="M749,478.1c-3.8-4-5.6-8.9-5.6-14.7c0-5.7,1.9-10.6,5.6-14.7c3.8-4,8.5-6,14.2-6c5.6,0,10.4,2,14.2,6
		c3.9,4,5.8,8.9,5.8,14.7c0,5.7-1.9,10.6-5.7,14.7c-3.8,4-8.5,6-14.3,6C757.6,484.1,752.8,482.1,749,478.1z M773.1,474.3
		c2.6-2.9,3.9-6.5,3.9-10.8c0-4.3-1.3-7.9-3.9-10.7c-2.6-2.9-5.9-4.4-9.9-4.4c-3.9,0-7.3,1.5-9.8,4.4c-2.6,2.8-3.9,6.4-3.9,10.7
		c0,4.3,1.3,7.9,3.9,10.8c2.6,2.8,5.9,4.3,9.8,4.3C767.3,478.6,770.6,477.1,773.1,474.3z"/>
	<path fill="#9AD2E6" d="M824.9,483.2h-5.8v-56.5h6V449c3.5-4.1,8-6.2,13.3-6.2c5.4,0,9.8,2,13.2,6c3.5,4,5.2,8.9,5.2,14.7
		c0,5.8-1.7,10.7-5.2,14.7c-3.5,4-7.8,6-13.2,6c-5.4,0-9.8-2.1-13.5-6.3V483.2z M850.6,463.5c0-4.4-1.1-8-3.5-10.8
		c-2.3-2.8-5.4-4.3-9.4-4.3c-3.9,0-7.1,1.5-9.4,4.3c-2.3,2.8-3.5,6.4-3.5,10.8c0,4.4,1.1,8,3.5,10.8c2.3,2.8,5.5,4.3,9.4,4.3
		c4,0,7-1.5,9.4-4.3C849.5,471.5,850.6,467.8,850.6,463.5z"/>
	<path fill="#9AD2E6" d="M888.3,449c-0.4-0.1-0.9-0.1-1.4-0.1c-9.4,0-13.1,4.7-13.1,17.5v16.8h-6v-39.5h5.8v5.2
		c3.5-4.3,7.1-5.8,12.9-5.8c0.6,0,1.2,0,1.8,0.1V449z"/>
	<path fill="#9AD2E6" d="M897.4,427.1c1.9-1.7,4.7-1.7,6.4,0c1.9,1.7,1.9,4.5,0,6.4c-1.7,1.7-4.5,1.7-6.4,0
		C895.7,431.6,895.7,428.8,897.4,427.1z M897.6,483.2v-39.5h6v39.5H897.6z"/>
	<path fill="#9AD2E6" d="M923.8,443.7v4.8c2.7-3.5,7.6-5.8,12.5-5.8c10.1,0,15.7,6.3,15.7,17.5v23h-6v-23.5
		c0-7.3-3.7-11.4-10.1-11.4c-7.7,0-11.9,5.9-11.9,15.3v19.6h-6v-39.5H923.8z"/>
	<path fill="#9AD2E6" d="M968.3,486.8c2.8,5,6.8,7.5,12,7.5c8.5,0,13.1-5.5,13.1-13.8v-4.1c-3,4-7.3,6-12.9,6
		c-5.1,0-9.3-1.9-12.7-5.6c-3.5-3.8-5.2-8.5-5.2-14.1c0-5.7,1.7-10.4,5.2-14.2c3.5-3.8,7.7-5.6,12.7-5.6c5.6,0,9.9,2,13.1,6v-5.1
		h5.8V480c0,12-7.3,19.8-19,19.8c-7.1,0-12.6-2.9-16.4-8.8L968.3,486.8z M972.2,472.7c2.3,2.7,5.2,3.9,8.9,3.9
		c3.6,0,6.6-1.3,8.9-3.9s3.5-6,3.5-10.2c0-4.2-1.2-7.6-3.5-10.2s-5.3-4-8.9-4c-3.6,0-6.5,1.3-8.9,4s-3.5,6-3.5,10.2
		C968.7,466.7,969.8,470.1,972.2,472.7z"/>
	<path fill="#9AD2E6" d="M1049.8,498.9h-6.5l6-15.2l-16.4-40h6.7l13,32.8l12.7-32.8h6.6L1049.8,498.9z"/>
	<path fill="#9AD2E6" d="M1082.1,478.1c-3.8-4-5.6-8.9-5.6-14.7c0-5.7,1.9-10.6,5.6-14.7c3.8-4,8.5-6,14.2-6c5.6,0,10.4,2,14.2,6
		c3.9,4,5.8,8.9,5.8,14.7c0,5.7-1.9,10.6-5.7,14.7c-3.8,4-8.5,6-14.3,6C1090.7,484.1,1085.9,482.1,1082.1,478.1z M1106.2,474.3
		c2.6-2.9,3.9-6.5,3.9-10.8c0-4.3-1.3-7.9-3.9-10.7c-2.6-2.9-5.9-4.4-9.9-4.4c-4,0-7.3,1.5-9.8,4.4c-2.6,2.8-3.9,6.4-3.9,10.7
		c0,4.3,1.3,7.9,3.9,10.8c2.6,2.8,5.9,4.3,9.8,4.3C1100.4,478.6,1103.7,477.1,1106.2,474.3z"/>
	<path fill="#9AD2E6" d="M1153.5,483.2v-5c-3.1,4-7.3,5.9-12.5,5.9c-9.9,0-14.8-5.8-14.8-17.4v-23h6v23.2c0,7.5,3.3,11.5,9.7,11.5
		c7.7,0,11.4-5.6,11.4-15.2v-19.6h6v39.5H1153.5z"/>
	<path fill="#9AD2E6" d="M1193.5,449c-0.4-0.1-0.9-0.1-1.4-0.1c-9.4,0-13.1,4.7-13.1,17.5v16.8h-6v-39.5h5.8v5.2
		c3.5-4.3,7.1-5.8,12.9-5.8c0.6,0,1.2,0,1.8,0.1V449z"/>
	<path fill="#9AD2E6" d="M1222.9,426.7h44.3v11H1251v45.5h-11.9v-45.5h-16.2V426.7z"/>
	<path fill="#9AD2E6" d="M1265.9,463.5c0-5.9,2-10.8,6-14.8c4-3.9,9-6,14.9-6s10.9,2,14.8,6c4,4,6,8.9,6,14.8s-2,10.8-6,14.8
		c-4,4-8.9,5.9-14.9,5.9c-6,0-11-1.9-14.9-5.9C1267.9,474.3,1265.9,469.4,1265.9,463.5z M1277.6,463.5c0,2.9,0.9,5.3,2.6,7.2
		c1.7,1.9,4,2.8,6.6,2.8s4.9-1,6.6-2.8c1.7-1.9,2.6-4.3,2.6-7.2c0-2.9-0.9-5.3-2.6-7.2c-1.7-1.9-4-2.8-6.6-2.8s-4.9,1-6.6,2.8
		C1278.4,458.2,1277.6,460.6,1277.6,463.5z"/>
	<path fill="#9AD2E6" d="M1313.8,463.5c0-5.9,2-10.8,6-14.8c4-3.9,9-6,14.9-6s10.9,2,14.8,6c4,4,6,8.9,6,14.8s-2,10.8-6,14.8
		c-4,4-8.9,5.9-14.9,5.9c-6,0-11-1.9-14.9-5.9C1315.8,474.3,1313.8,469.4,1313.8,463.5z M1325.4,463.5c0,2.9,0.9,5.3,2.6,7.2
		c1.7,1.9,4,2.8,6.6,2.8s4.9-1,6.6-2.8c1.7-1.9,2.6-4.3,2.6-7.2c0-2.9-0.9-5.3-2.6-7.2c-1.7-1.9-4-2.8-6.6-2.8s-4.9,1-6.6,2.8
		C1326.3,458.2,1325.4,460.6,1325.4,463.5z"/>
	<path fill="#9AD2E6" d="M1363.4,483.2v-56.5h11.4v56.5H1363.4z"/>
	<path fill="#9AD2E6" d="M1396.6,468.2c-8.6-2.2-12.9-6.4-12.9-12.9c0-3.8,1.5-6.8,4.4-9c3-2.3,6.6-3.5,10.9-3.5
		c6,0,11.3,2.1,15.9,6.2l-7,7.4c-3.1-2.6-6.2-3.9-9.4-3.9c-2.3,0-3.7,1-3.7,2.3c0,1,1,1.7,2.8,2.1l5.9,1.4c8.6,2,13,6.4,13,13.1
		c0,7.5-6.4,12.7-16.5,12.7c-7.3,0-14-3.5-17.3-7.7l7-7.2c3.5,3.5,7.3,5.2,11.3,5.2c2.3,0,4.4-1,4.4-2.6c0-1-1.2-1.9-3.5-2.5
		L1396.6,468.2z"/>
	<path fill="#9AD2E6" d="M710.3,565.2h-5.8v-56.5h6V531c3.5-4.1,8-6.2,13.3-6.2c5.4,0,9.8,2,13.2,6c3.5,4,5.2,8.9,5.2,14.7
		c0,5.8-1.7,10.7-5.2,14.7s-7.8,6-13.2,6s-9.8-2.1-13.5-6.3V565.2z M736,545.5c0-4.4-1.1-8-3.5-10.8c-2.3-2.8-5.4-4.3-9.4-4.3
		c-3.9,0-7.1,1.5-9.4,4.3c-2.3,2.8-3.5,6.4-3.5,10.8s1.1,8,3.5,10.8c2.3,2.8,5.5,4.3,9.4,4.3c4,0,7-1.5,9.4-4.3
		C734.8,553.5,736,549.8,736,545.5z"/>
	<path fill="#9AD2E6" d="M751.3,554.1c0-7.8,5.9-12.4,14.6-12.4c2.9,0,6.5,0.6,10.8,1.9v-4c0-5.9-4-9.3-9.8-9.3
		c-4.8,0-8.7,2.9-10.3,6.5l-4.1-3.9c3.1-5.5,8-8.2,14.5-8.2c9.6,0,15.6,5.6,15.6,15.5v25h-5.8v-4.1c-3,3.3-7,5-12.3,5
		C757.1,566.1,751.3,561.6,751.3,554.1z M764.9,560.8c4.8,0,9.3-2.7,11.8-6.3v-5.3c-3.9-1.3-7.3-1.9-10.5-1.9c-6,0-8.9,2.8-8.9,7
		C757.3,558.2,760.4,560.8,764.9,560.8z"/>
	<path fill="#9AD2E6" d="M828.8,558.5c-4.2,5.1-9.4,7.6-15.8,7.6c-5.6,0-10.4-2-14.2-6c-3.8-4-5.6-8.9-5.6-14.7
		c0-5.7,1.9-10.6,5.8-14.6c4-4.1,8.7-6.1,14.3-6.1c6,0,10.9,2.3,14.8,7l-4,3.9c-3-3.5-6.5-5.3-10.7-5.3c-4,0-7.3,1.5-10,4.4
		c-2.7,2.8-4,6.4-4,10.7c0,8.8,5.4,15.1,14.2,15.1c4.4,0,8.2-1.9,11.2-5.8L828.8,558.5z"/>
	<path fill="#9AD2E6" d="M839,565.2v-56.5h6V546l18.3-20.2h7.8l-15.4,16.7l16.3,22.8h-7.7l-12.9-18.1l-6.4,7v11.1H839z"/>
	<path fill="#9AD2E6" d="M881.6,575.3h-6.4l7.7-19.3h7.5L881.6,575.3z"/>
	<path fill="#9AD2E6" d="M961,558.5c-4.2,5.1-9.4,7.6-15.8,7.6c-5.6,0-10.4-2-14.2-6c-3.8-4-5.6-8.9-5.6-14.7
		c0-5.7,1.9-10.6,5.8-14.6c3.9-4.1,8.7-6.1,14.3-6.1c6,0,10.9,2.3,14.8,7l-4,3.9c-3-3.5-6.5-5.3-10.7-5.3c-4,0-7.3,1.5-10,4.4
		c-2.7,2.8-4,6.4-4,10.7c0,8.8,5.4,15.1,14.2,15.1c4.4,0,8.2-1.9,11.2-5.8L961,558.5z"/>
	<path fill="#9AD2E6" d="M971.1,565.2v-56.5h6v56.5H971.1z"/>
	<path fill="#9AD2E6" d="M991.2,509.1c1.9-1.7,4.7-1.7,6.4,0c1.9,1.7,1.9,4.5,0,6.4c-1.7,1.7-4.5,1.7-6.4,0
		C989.5,513.6,989.5,510.8,991.2,509.1z M991.4,565.2v-39.5h6v39.5H991.4z"/>
	<path fill="#9AD2E6" d="M1044.7,558.5c-4.2,5.1-9.4,7.6-15.8,7.6c-5.6,0-10.4-2-14.2-6c-3.8-4-5.6-8.9-5.6-14.7
		c0-5.7,1.9-10.6,5.8-14.6c3.9-4.1,8.7-6.1,14.3-6.1c6,0,10.9,2.3,14.8,7l-4,3.9c-3-3.5-6.5-5.3-10.7-5.3c-4,0-7.3,1.5-10,4.4
		c-2.7,2.8-4,6.4-4,10.7c0,8.8,5.4,15.1,14.2,15.1c4.4,0,8.2-1.9,11.2-5.8L1044.7,558.5z"/>
	<path fill="#9AD2E6" d="M1054.9,565.2v-56.5h6V546l18.3-20.2h7.8l-15.4,16.7l16.3,22.8h-7.7l-12.9-18.1l-6.4,7v11.1H1054.9z"/>
	<path fill="#9AD2E6" d="M1121,554.1c0-7.8,5.9-12.4,14.6-12.4c2.9,0,6.5,0.6,10.8,1.9v-4c0-5.9-3.9-9.3-9.8-9.3
		c-4.8,0-8.7,2.9-10.3,6.5l-4.1-3.9c3.1-5.5,8-8.2,14.5-8.2c9.6,0,15.6,5.6,15.6,15.5v25h-5.8v-4.1c-3,3.3-7,5-12.3,5
		C1126.8,566.1,1121,561.6,1121,554.1z M1134.6,560.8c4.8,0,9.3-2.7,11.8-6.3v-5.3c-3.9-1.3-7.3-1.9-10.5-1.9c-6,0-8.9,2.8-8.9,7
		C1127,558.2,1130.1,560.8,1134.6,560.8z"/>
	<path fill="#9AD2E6" d="M1171.5,525.7v4.8c2.7-3.5,7.6-5.8,12.5-5.8c10.1,0,15.7,6.3,15.7,17.5v23h-6v-23.5
		c0-7.3-3.7-11.4-10.1-11.4c-7.7,0-11.9,5.9-11.9,15.3v19.6h-6v-39.5H1171.5z"/>
	<path fill="#9AD2E6" d="M1223.5,580.9h-6.5l6-15.2l-16.4-40h6.7l13,32.8l12.7-32.8h6.6L1223.5,580.9z"/>
	<path fill="#9AD2E6" d="M1267.1,558.7l9.1-33h8.1l9.1,33l9.1-33h6.5l-11.8,39.5h-7.4l-9.6-32.6l-9.5,32.6h-7.5l-11.8-39.5h6.5
		L1267.1,558.7z"/>
	<path fill="#9AD2E6" d="M1323.8,508.7v21.8c2.7-3.5,7.4-5.7,12.3-5.7c10.1,0,15.7,6.3,15.7,17.5v23h-6v-23.5
		c0-7.3-3.7-11.4-10.1-11.4c-7.7,0-11.9,5.9-11.9,15.3v19.6h-6v-56.5H1323.8z"/>
	<path fill="#9AD2E6" d="M1396.5,547.3h-29.4c0.6,8.3,5.6,13.2,13.3,13.2c4.4,0,8.1-1.9,11.3-5.8l4.1,3.8c-4.2,5.1-9.4,7.6-15.4,7.6
		c-5.9,0-10.6-1.9-14.2-5.6c-3.5-3.8-5.2-8.7-5.2-14.8c0-6,1.6-11,4.8-14.9c3.3-4,7.7-6,13.1-6c4,0,7.4,1,10.2,3.1
		c5.6,4.2,7.5,10.2,7.5,16.7L1396.5,547.3z M1367.4,542h23.2c-0.6-7-4.9-11.6-11.4-11.6C1372.4,530.4,1368.4,535.2,1367.4,542z"/>
	<path fill="#9AD2E6" d="M1428.2,531c-0.4-0.1-0.9-0.1-1.4-0.1c-9.4,0-13.1,4.7-13.1,17.5v16.8h-6v-39.5h5.8v5.2
		c3.5-4.3,7.1-5.8,12.9-5.8c0.6,0,1.2,0,1.8,0.1V531z"/>
	<path fill="#9AD2E6" d="M1469.8,547.3h-29.4c0.6,8.3,5.6,13.2,13.3,13.2c4.4,0,8.1-1.9,11.3-5.8l4.1,3.8c-4.2,5.1-9.4,7.6-15.4,7.6
		c-5.9,0-10.6-1.9-14.2-5.6c-3.5-3.8-5.2-8.7-5.2-14.8c0-6,1.6-11,4.8-14.9c3.3-4,7.7-6,13.1-6c4,0,7.4,1,10.2,3.1
		c5.6,4.2,7.5,10.2,7.5,16.7L1469.8,547.3z M1440.6,542h23.2c-0.6-7-4.9-11.6-11.4-11.6C1445.6,530.4,1441.6,535.2,1440.6,542z"/>
	<path fill="#9AD2E6" d="M704.8,591.1c1.9-1.7,4.7-1.7,6.4,0c1.9,1.7,1.9,4.5,0,6.4c-1.7,1.7-4.5,1.7-6.4,0
		C703.1,595.6,703.1,592.8,704.8,591.1z M705,647.2v-39.5h6v39.5H705z"/>
	<path fill="#9AD2E6" d="M731.2,607.7v4.8c2.7-3.5,7.6-5.8,12.5-5.8c10.1,0,15.7,6.3,15.7,17.5v23h-6v-23.5
		c0-7.3-3.7-11.4-10.1-11.4c-7.7,0-11.9,5.9-11.9,15.3v19.6h-6v-39.5H731.2z"/>
	<path fill="#9AD2E6" d="M798.5,635.6v-22.4h-6.4v-5.5h6.4v-11h6v11h9.2v5.5h-9.2v21.5c0,5.2,1.3,7.2,6,7.2l3.1-0.1v5.4
		c-1,0.1-2.3,0.2-3.7,0.2C802.2,647.4,798.5,644.1,798.5,635.6z"/>
	<path fill="#9AD2E6" d="M830.2,590.7v21.8c2.7-3.5,7.4-5.7,12.3-5.7c10.1,0,15.7,6.3,15.7,17.5v23h-6v-23.5
		c0-7.3-3.7-11.4-10.1-11.4c-7.7,0-11.9,5.9-11.9,15.3v19.6h-6v-56.5H830.2z"/>
	<path fill="#9AD2E6" d="M903,629.3h-29.4c0.6,8.3,5.6,13.2,13.3,13.2c4.4,0,8.1-1.9,11.3-5.8l4.1,3.8c-4.2,5.1-9.4,7.6-15.4,7.6
		c-5.9,0-10.6-1.9-14.2-5.6c-3.5-3.8-5.2-8.7-5.2-14.8c0-6,1.6-11,4.8-14.9c3.3-4,7.7-6,13.1-6c4,0,7.4,1,10.2,3.1
		c5.6,4.2,7.5,10.2,7.5,16.7L903,629.3z M873.8,624H897c-0.6-7-4.9-11.6-11.4-11.6C878.9,612.4,874.9,617.2,873.8,624z"/>
	<path fill="#9AD2E6" d="M944.8,647.2H939v-56.5h6V613c3.5-4.1,8-6.2,13.3-6.2c5.4,0,9.8,2,13.2,6c3.5,4,5.2,8.9,5.2,14.7
		c0,5.8-1.7,10.7-5.2,14.7c-3.5,3.9-7.8,6-13.2,6c-5.4,0-9.8-2.1-13.5-6.3V647.2z M970.5,627.5c0-4.4-1.1-8-3.5-10.8
		c-2.3-2.8-5.4-4.3-9.4-4.3c-4,0-7.1,1.5-9.4,4.3c-2.3,2.8-3.5,6.4-3.5,10.8s1.1,8,3.5,10.8c2.3,2.8,5.5,4.3,9.4,4.3
		c3.9,0,7-1.5,9.4-4.3C969.4,635.5,970.5,631.8,970.5,627.5z"/>
	<path fill="#9AD2E6" d="M987.7,647.2v-56.5h6v56.5H987.7z"/>
	<path fill="#9AD2E6" d="M1004.7,636.1c0-7.8,5.9-12.4,14.6-12.4c2.9,0,6.5,0.6,10.8,1.9v-4c0-5.9-3.9-9.3-9.8-9.3
		c-4.8,0-8.7,2.9-10.3,6.5l-4.1-3.9c3.1-5.5,8-8.2,14.5-8.2c9.6,0,15.6,5.6,15.6,15.5v25h-5.8v-4.1c-3,3.3-7,5-12.3,5
		C1010.5,648.1,1004.7,643.6,1004.7,636.1z M1018.3,642.8c4.8,0,9.3-2.7,11.8-6.3v-5.3c-3.9-1.3-7.3-1.9-10.5-1.9
		c-6,0-8.9,2.8-8.9,7C1010.6,640.2,1013.8,642.8,1018.3,642.8z"/>
	<path fill="#9AD2E6" d="M1082.2,640.5c-4.2,5.1-9.4,7.6-15.8,7.6c-5.6,0-10.4-2-14.2-6c-3.8-4-5.6-8.9-5.6-14.7
		c0-5.7,1.9-10.6,5.8-14.6c3.9-4.1,8.7-6.1,14.3-6.1c6,0,10.9,2.3,14.8,7l-4,3.9c-3-3.5-6.5-5.3-10.7-5.3c-4,0-7.3,1.5-10,4.4
		c-2.7,2.8-4,6.4-4,10.7c0,8.8,5.4,15.1,14.2,15.1c4.4,0,8.2-1.9,11.2-5.8L1082.2,640.5z"/>
	<path fill="#9AD2E6" d="M1092.4,647.2v-56.5h6V628l18.3-20.2h7.8l-15.4,16.7l16.3,22.8h-7.7l-12.9-18.1l-6.4,7v11.1H1092.4z"/>
	<path fill="#9AD2E6" d="M1158.5,636.1c0-7.8,5.9-12.4,14.6-12.4c2.9,0,6.5,0.6,10.8,1.9v-4c0-5.9-3.9-9.3-9.8-9.3
		c-4.8,0-8.7,2.9-10.3,6.5l-4.1-3.9c3.1-5.5,8-8.2,14.5-8.2c9.6,0,15.6,5.6,15.6,15.5v25h-5.8v-4.1c-3,3.3-7,5-12.3,5
		C1164.3,648.1,1158.5,643.6,1158.5,636.1z M1172.1,642.8c4.8,0,9.3-2.7,11.8-6.3v-5.3c-3.9-1.3-7.3-1.9-10.5-1.9
		c-6,0-8.9,2.8-8.9,7C1164.5,640.2,1167.6,642.8,1172.1,642.8z"/>
	<path fill="#9AD2E6" d="M1223.6,613c-0.4-0.1-0.9-0.1-1.4-0.1c-9.4,0-13.1,4.7-13.1,17.5v16.8h-6v-39.5h5.8v5.2
		c3.5-4.3,7.1-5.8,12.9-5.8c0.6,0,1.2,0,1.8,0.1V613z"/>
	<path fill="#9AD2E6" d="M1265.2,629.3h-29.4c0.6,8.3,5.6,13.2,13.3,13.2c4.4,0,8.1-1.9,11.3-5.8l4.1,3.8c-4.2,5.1-9.4,7.6-15.4,7.6
		c-5.9,0-10.6-1.9-14.2-5.6c-3.5-3.8-5.2-8.7-5.2-14.8c0-6,1.6-11,4.8-14.9c3.3-4,7.7-6,13.1-6c4,0,7.4,1,10.2,3.1
		c5.6,4.2,7.5,10.2,7.5,16.7L1265.2,629.3z M1236,624h23.2c-0.6-7-4.9-11.6-11.4-11.6C1241.1,612.4,1237.1,617.2,1236,624z"/>
	<path fill="#9AD2E6" d="M1274.5,636.1c0-7.8,5.9-12.4,14.6-12.4c2.9,0,6.5,0.6,10.8,1.9v-4c0-5.9-3.9-9.3-9.8-9.3
		c-4.8,0-8.7,2.9-10.3,6.5l-4.1-3.9c3.1-5.5,8-8.2,14.5-8.2c9.6,0,15.6,5.6,15.6,15.5v25h-5.8v-4.1c-3,3.3-7,5-12.3,5
		C1280.3,648.1,1274.5,643.6,1274.5,636.1z M1288.1,642.8c4.8,0,9.3-2.7,11.8-6.3v-5.3c-3.9-1.3-7.3-1.9-10.5-1.9
		c-6,0-8.9,2.8-8.9,7C1280.5,640.2,1283.6,642.8,1288.1,642.8z"/>
	<path fill="#9AD2E6" d="M1328.8,643.4c0,2.7-2.1,4.8-4.9,4.8c-2.7,0-4.8-2.1-4.8-4.8s2.1-4.8,4.8-4.8
		C1326.7,638.5,1328.8,640.5,1328.8,643.4z"/>
</g>
</svg>
