<?xml version="1.0" encoding="utf-8"?>
<!-- Generator: Adobe Illustrator 19.1.0, SVG Export Plug-In . SVG Version: 6.00 Build 0)  -->
<svg version="1.1" baseProfile="tiny" id="Layer_1_copy"
	 xmlns="http://www.w3.org/2000/svg" xmlns:xlink="http://www.w3.org/1999/xlink" x="0px" y="0px">
<g>
	<path fill="#9AD2E6" d="M709.8,434.4c5.4-5.7,12-8.5,20-8.5s14.8,2.8,20.2,8.5c5.5,5.6,8.2,12.5,8.2,20.6s-2.7,15.1-8.1,20.7
		c-5.4,5.6-12.2,8.5-20.2,8.5s-14.7-2.8-20.1-8.5c-5.3-5.6-8-12.6-8-20.7C701.7,446.9,704.4,440,709.8,434.4z M714,471.7
		c4.1,4.4,9.5,6.7,16,6.7c6.4,0,11.7-2.3,15.8-6.7c4.1-4.4,6.2-10.1,6.2-16.8c0-6.6-2.1-12.2-6.2-16.6c-4.1-4.5-9.4-6.8-15.8-6.8
		c-6.5,0-11.8,2.3-16,6.8c-4.1,4.4-6.2,10-6.2,16.6C707.8,461.6,709.9,467.3,714,471.7z"/>
	<path fill="#9AD2E6" d="M774.2,498.9h-6v-55.1h5.8v5.4c3.6-4.3,8.1-6.4,13.5-6.4s9.8,2,13.2,6c3.5,4,5.2,8.9,5.2,14.7
		s-1.7,10.7-5.2,14.7s-7.8,6-13.2,6s-9.8-2-13.3-6.1V498.9z M799.7,463.5c0-4.4-1.1-8-3.5-10.8c-2.3-2.8-5.4-4.3-9.4-4.3
		c-3.9,0-7.1,1.5-9.4,4.3c-2.3,2.8-3.5,6.4-3.5,10.8s1.1,8,3.5,10.8c2.3,2.8,5.5,4.3,9.4,4.3c4,0,7-1.5,9.4-4.3
		C798.6,471.5,799.7,467.8,799.7,463.5z"/>
	<path fill="#9AD2E6" d="M851.1,465.3h-29.4c0.6,8.3,5.6,13.2,13.3,13.2c4.4,0,8.1-1.9,11.3-5.8l4.1,3.8c-4.2,5.1-9.4,7.6-15.4,7.6
		c-5.9,0-10.6-1.9-14.2-5.6c-3.5-3.8-5.2-8.7-5.2-14.8c0-6,1.6-11,4.8-14.9c3.3-4,7.7-6,13.1-6c4,0,7.4,1,10.2,3.1
		c5.6,4.2,7.5,10.2,7.5,16.7L851.1,465.3z M821.9,460h23.2c-0.6-7-4.9-11.6-11.4-11.6C827,448.4,823,453.2,821.9,460z"/>
	<path fill="#9AD2E6" d="M868,443.7v4.8c2.7-3.5,7.6-5.8,12.5-5.8c10.1,0,15.7,6.3,15.7,17.5v23h-6v-23.5c0-7.3-3.7-11.4-10.1-11.4
		c-7.7,0-11.9,5.9-11.9,15.3v19.6h-6v-39.5H868z"/>
	<path fill="#9AD2E6" d="M959.6,483.2v-5c-3.1,4-7.3,5.9-12.5,5.9c-9.9,0-14.8-5.8-14.8-17.4v-23h6v23.2c0,7.5,3.3,11.5,9.7,11.5
		c7.7,0,11.4-5.6,11.4-15.2v-19.6h6v39.5h-5.8L959.6,483.2L959.6,483.2z"/>
	<path fill="#9AD2E6" d="M985.1,498.9h-6v-55.1h5.8v5.4c3.6-4.3,8.1-6.4,13.5-6.4s9.8,2,13.2,6c3.5,4,5.2,8.9,5.2,14.7
		s-1.7,10.7-5.2,14.7s-7.8,6-13.2,6s-9.8-2-13.3-6.1V498.9z M1010.6,463.5c0-4.4-1.1-8-3.5-10.8c-2.3-2.8-5.4-4.3-9.4-4.3
		s-7.1,1.5-9.4,4.3c-2.3,2.8-3.5,6.4-3.5,10.8s1.1,8,3.5,10.8c2.3,2.8,5.5,4.3,9.4,4.3s7-1.5,9.4-4.3S1010.6,467.8,1010.6,463.5z"/>
	<path fill="#9AD2E6" d="M1050.8,472.1c0-7.8,5.9-12.4,14.6-12.4c2.9,0,6.5,0.6,10.8,1.9v-4c0-5.9-3.9-9.3-9.8-9.3
		c-4.8,0-8.7,2.9-10.3,6.5l-4.1-3.9c3.1-5.5,8-8.2,14.5-8.2c9.6,0,15.6,5.6,15.6,15.5v25h-5.8v-4.1c-3,3.3-7,5-12.3,5
		C1056.6,484.1,1050.8,479.6,1050.8,472.1z M1064.4,478.8c4.8,0,9.3-2.7,11.8-6.3v-5.3c-3.9-1.3-7.3-1.9-10.5-1.9
		c-6,0-8.9,2.8-8.9,7C1056.7,476.2,1059.9,478.8,1064.4,478.8z"/>
	<path fill="#9AD2E6" d="M1101.2,443.7v4.8c2.7-3.5,7.6-5.8,12.5-5.8c10.1,0,15.7,6.3,15.7,17.5v23h-6v-23.5
		c0-7.3-3.7-11.4-10.1-11.4c-7.7,0-11.9,5.9-11.9,15.3v19.6h-6v-39.5H1101.2z"/>
	<path fill="#9AD2E6" d="M1153.2,498.9h-6.5l6-15.2l-16.4-40h6.7l13,32.8l12.7-32.8h6.6L1153.2,498.9z"/>
	<path fill="#9AD2E6" d="M1207,472.1c0-7.8,5.9-12.4,14.6-12.4c2.9,0,6.5,0.6,10.8,1.9v-4c0-5.9-3.9-9.3-9.8-9.3
		c-4.8,0-8.7,2.9-10.3,6.5l-4.1-3.9c3.1-5.5,8-8.2,14.5-8.2c9.6,0,15.6,5.6,15.6,15.5v25h-5.8v-4.1c-3,3.3-7,5-12.3,5
		C1212.8,484.1,1207,479.6,1207,472.1z M1220.6,478.8c4.8,0,9.3-2.7,11.8-6.3v-5.3c-3.9-1.3-7.3-1.9-10.5-1.9c-6,0-8.9,2.8-8.9,7
		C1213,476.2,1216.1,478.8,1220.6,478.8z"/>
	<path fill="#9AD2E6" d="M1257.6,498.9h-6v-55.1h5.8v5.4c3.6-4.3,8.1-6.4,13.5-6.4s9.8,2,13.2,6c3.5,4,5.2,8.9,5.2,14.7
		s-1.7,10.7-5.2,14.7s-7.8,6-13.2,6c-5.4,0-9.8-2-13.3-6.1V498.9z M1283.2,463.5c0-4.4-1.1-8-3.5-10.8c-2.3-2.8-5.4-4.3-9.4-4.3
		s-7.1,1.5-9.4,4.3s-3.5,6.4-3.5,10.8s1.1,8,3.5,10.8c2.3,2.8,5.5,4.3,9.4,4.3s7-1.5,9.4-4.3S1283.2,467.8,1283.2,463.5z"/>
	<path fill="#9AD2E6" d="M1306.3,498.9h-6v-55.1h5.8v5.4c3.6-4.3,8.1-6.4,13.5-6.4s9.8,2,13.2,6c3.5,4,5.2,8.9,5.2,14.7
		s-1.7,10.7-5.2,14.7s-7.8,6-13.2,6c-5.4,0-9.8-2-13.3-6.1V498.9z M1331.9,463.5c0-4.4-1.1-8-3.5-10.8c-2.3-2.8-5.4-4.3-9.4-4.3
		s-7.1,1.5-9.4,4.3s-3.5,6.4-3.5,10.8s1.1,8,3.5,10.8c2.3,2.8,5.5,4.3,9.4,4.3s7-1.5,9.4-4.3S1331.9,467.8,1331.9,463.5z"/>
	<path fill="#9AD2E6" d="M717.2,580.9h-6.5l6-15.2l-16.4-40h6.7l13,32.8l12.7-32.8h6.6L717.2,580.9z"/>
	<path fill="#9AD2E6" d="M749.5,560.1c-3.8-4-5.6-8.9-5.6-14.7c0-5.7,1.9-10.6,5.6-14.7c3.8-4,8.5-6,14.2-6c5.6,0,10.4,2,14.2,6
		c3.9,4,5.8,8.9,5.8,14.7c0,5.7-1.9,10.6-5.7,14.7c-3.8,3.9-8.5,6-14.3,6C758.1,566.1,753.3,564.1,749.5,560.1z M773.6,556.3
		c2.6-2.9,3.9-6.5,3.9-10.8s-1.3-7.9-3.9-10.7c-2.6-2.9-5.9-4.4-9.9-4.4c-3.9,0-7.3,1.5-9.8,4.4c-2.6,2.8-3.9,6.4-3.9,10.7
		s1.3,7.9,3.9,10.8c2.6,2.8,5.9,4.3,9.8,4.3C767.7,560.6,771,559.1,773.6,556.3z"/>
	<path fill="#9AD2E6" d="M820.9,565.2v-5c-3.1,4-7.3,5.9-12.5,5.9c-9.9,0-14.8-5.8-14.8-17.4v-23h6v23.2c0,7.5,3.3,11.5,9.7,11.5
		c7.7,0,11.4-5.6,11.4-15.2v-19.6h6v39.5L820.9,565.2L820.9,565.2z"/>
	<path fill="#9AD2E6" d="M864.3,565.2v-56.5h6v56.5H864.3z"/>
	<path fill="#9AD2E6" d="M884.4,509.1c1.9-1.7,4.7-1.7,6.4,0c1.9,1.7,1.9,4.5,0,6.4c-1.7,1.7-4.5,1.7-6.4,0
		C882.7,513.6,882.7,510.8,884.4,509.1z M884.6,565.2v-39.5h6v39.5H884.6z"/>
	<path fill="#9AD2E6" d="M905,565.2v-56.5h6V546l18.3-20.2h7.8l-15.4,16.7l16.3,22.8h-7.7l-12.9-18.1l-6.4,7v11.1L905,565.2
		L905,565.2z"/>
	<path fill="#9AD2E6" d="M979.1,547.3h-29.4c0.6,8.3,5.6,13.2,13.3,13.2c4.4,0,8.1-1.9,11.3-5.8l4.1,3.8c-4.2,5.1-9.4,7.6-15.4,7.6
		c-5.9,0-10.6-1.9-14.2-5.6c-3.5-3.8-5.2-8.7-5.2-14.8c0-6,1.6-11,4.8-14.9c3.3-4,7.7-6,13.1-6c4,0,7.4,1,10.2,3.1
		c5.6,4.2,7.5,10.2,7.5,16.7L979.1,547.3z M949.9,542h23.2c-0.6-7-4.9-11.6-11.4-11.6C955,530.4,951,535.2,949.9,542z"/>
	<path fill="#9AD2E6" d="M989.3,575.3h-6.4l7.7-19.3h7.5L989.3,575.3z"/>
	<path fill="#9AD2E6" d="M1033,554.1c0-7.8,5.9-12.4,14.6-12.4c2.9,0,6.5,0.6,10.8,1.9v-4c0-5.9-3.9-9.3-9.8-9.3
		c-4.8,0-8.7,2.9-10.3,6.5l-4.1-3.9c3.1-5.5,8-8.2,14.5-8.2c9.6,0,15.6,5.6,15.6,15.5v25h-5.8v-4.1c-3,3.3-7,5-12.3,5
		C1038.8,566.1,1033,561.6,1033,554.1z M1046.6,560.8c4.8,0,9.3-2.7,11.8-6.3v-5.3c-3.9-1.3-7.3-1.9-10.5-1.9c-6,0-8.9,2.8-8.9,7
		C1038.9,558.2,1042.1,560.8,1046.6,560.8z"/>
	<path fill="#9AD2E6" d="M1083.4,525.7v4.8c2.7-3.5,7.6-5.8,12.5-5.8c10.1,0,15.7,6.3,15.7,17.5v23h-6v-23.5
		c0-7.3-3.7-11.4-10.1-11.4c-7.7,0-11.9,5.9-11.9,15.3v19.6h-6v-39.5L1083.4,525.7L1083.4,525.7z"/>
	<path fill="#9AD2E6" d="M1153.9,531v-22.2h6v56.5h-5.7v-5.4c-3.6,4.2-8.1,6.3-13.5,6.3s-9.8-2-13.2-6c-3.5-4-5.2-8.9-5.2-14.7
		s1.7-10.7,5.2-14.7s7.8-6,13.2-6C1145.9,524.8,1150.3,526.9,1153.9,531z M1128.3,545.5c0,4.4,1.1,8,3.5,10.8s5.4,4.3,9.4,4.3
		c3.9,0,7.1-1.5,9.4-4.3s3.5-6.4,3.5-10.8s-1.2-8-3.5-10.8s-5.5-4.3-9.4-4.3c-4,0-7,1.5-9.4,4.3S1128.3,541.1,1128.3,545.5z"/>
	<path fill="#9AD2E6" d="M1199.4,553.6v-22.4h-6.4v-5.5h6.4v-11h6v11h9.2v5.5h-9.2v21.5c0,5.2,1.3,7.2,6,7.2l3.1-0.1v5.4
		c-1,0.1-2.3,0.2-3.7,0.2C1203.1,565.4,1199.4,562.1,1199.4,553.6z"/>
	<path fill="#9AD2E6" d="M1245.6,531c-0.4-0.1-0.9-0.1-1.4-0.1c-9.4,0-13.1,4.7-13.1,17.5v16.8h-6v-39.5h5.8v5.2
		c3.5-4.3,7.1-5.8,12.9-5.8c0.6,0,1.2,0,1.8,0.1L1245.6,531L1245.6,531z"/>
	<path fill="#9AD2E6" d="M1268,580.9h-6.5l6-15.2l-16.4-40h6.7l13,32.8l12.7-32.8h6.6L1268,580.9z"/>
	<path fill="#9AD2E6" d="M704.8,591.1c1.9-1.7,4.7-1.7,6.4,0c1.9,1.7,1.9,4.5,0,6.4c-1.7,1.7-4.5,1.7-6.4,0
		C703.1,595.6,703.1,592.8,704.8,591.1z M705,647.2v-39.5h6v39.5H705z"/>
	<path fill="#9AD2E6" d="M726.4,635.6v-22.4H720v-5.5h6.4v-11h6v11h9.2v5.5h-9.2v21.5c0,5.2,1.3,7.2,6,7.2l3.1-0.1v5.4
		c-1,0.1-2.3,0.2-3.7,0.2C730.1,647.4,726.4,644.1,726.4,635.6z"/>
	<path fill="#9AD2E6" d="M803,647.2v-5c-3.1,4-7.3,5.9-12.5,5.9c-9.9,0-14.8-5.8-14.8-17.4v-23h6v23.2c0,7.5,3.3,11.5,9.7,11.5
		c7.7,0,11.4-5.6,11.4-15.2v-19.6h6v39.5L803,647.2L803,647.2z"/>
	<path fill="#9AD2E6" d="M828.4,607.7v4.8c2.7-3.5,7.6-5.8,12.5-5.8c10.1,0,15.7,6.3,15.7,17.5v23h-6v-23.5
		c0-7.3-3.7-11.4-10.1-11.4c-7.7,0-11.9,5.9-11.9,15.3v19.6h-6v-39.5L828.4,607.7L828.4,607.7z"/>
	<path fill="#9AD2E6" d="M898.8,613v-22.2h6v56.5h-5.7v-5.4c-3.6,4.2-8.1,6.3-13.5,6.3s-9.8-2-13.2-6c-3.5-4-5.2-8.9-5.2-14.7
		s1.7-10.7,5.2-14.7s7.8-6,13.2-6C890.8,606.8,895.3,608.9,898.8,613z M873.3,627.5c0,4.4,1.1,8,3.5,10.8s5.4,4.3,9.4,4.3
		c3.9,0,7.1-1.5,9.4-4.3s3.5-6.4,3.5-10.8s-1.2-8-3.5-10.8s-5.5-4.3-9.4-4.3c-4,0-7,1.5-9.4,4.3S873.3,623.1,873.3,627.5z"/>
	<path fill="#9AD2E6" d="M951.4,629.3H922c0.6,8.3,5.6,13.2,13.3,13.2c4.4,0,8.1-1.9,11.3-5.8l4.1,3.8c-4.2,5.1-9.4,7.6-15.4,7.6
		c-5.9,0-10.6-1.9-14.2-5.6c-3.5-3.8-5.2-8.7-5.2-14.8c0-6,1.6-11,4.8-14.9c3.3-4,7.7-6,13.1-6c4,0,7.4,1,10.2,3.1
		c5.6,4.2,7.5,10.2,7.5,16.7L951.4,629.3z M922.2,624h23.2c-0.6-7-4.9-11.6-11.4-11.6C927.3,612.4,923.2,617.2,922.2,624z"/>
	<path fill="#9AD2E6" d="M983,613c-0.4-0.1-0.9-0.1-1.4-0.1c-9.4,0-13.1,4.7-13.1,17.5v16.8h-6v-39.5h5.8v5.2
		c3.5-4.3,7.1-5.8,12.9-5.8c0.6,0,1.2,0,1.8,0.1V613z"/>
	<path fill="#9AD2E6" d="M1029.3,662.9h-6.5l6-15.2l-16.4-40h6.7l13,32.8l12.7-32.8h6.6L1029.3,662.9z"/>
	<path fill="#9AD2E6" d="M1061.7,642.1c-3.8-4-5.6-8.9-5.6-14.7s1.9-10.6,5.6-14.7c3.8-4,8.5-6,14.2-6c5.6,0,10.4,2,14.2,6
		c3.9,4,5.8,8.9,5.8,14.7s-1.9,10.6-5.7,14.7c-3.8,3.9-8.5,6-14.3,6C1070.2,648.1,1065.5,646.1,1061.7,642.1z M1085.8,638.3
		c2.6-2.9,3.9-6.5,3.9-10.8s-1.3-7.9-3.9-10.7c-2.6-2.9-5.9-4.4-9.9-4.4s-7.3,1.5-9.8,4.4c-2.6,2.8-3.9,6.4-3.9,10.7
		s1.3,7.9,3.9,10.8c2.6,2.8,5.9,4.3,9.8,4.3C1079.9,642.6,1083.2,641.1,1085.8,638.3z"/>
	<path fill="#9AD2E6" d="M1133,647.2v-5c-3.1,4-7.3,5.9-12.5,5.9c-9.9,0-14.8-5.8-14.8-17.4v-23h6v23.2c0,7.5,3.3,11.5,9.7,11.5
		c7.7,0,11.4-5.6,11.4-15.2v-19.6h6v39.5L1133,647.2L1133,647.2z"/>
	<path fill="#9AD2E6" d="M1173,613c-0.4-0.1-0.9-0.1-1.4-0.1c-9.4,0-13.1,4.7-13.1,17.5v16.8h-6v-39.5h5.8v5.2
		c3.5-4.3,7.1-5.8,12.9-5.8c0.6,0,1.2,0,1.8,0.1L1173,613L1173,613z"/>
	<path fill="#9AD2E6" d="M1212.4,607.7v4.8c2.3-3.2,6.6-5.7,11.4-5.7c5.4,0,9.3,2.2,11.8,6.5c3-4.4,7.1-6.5,12.3-6.5
		c10.2,0,15.2,5.8,15.2,17.5v23h-6v-23.5c0-7.7-3.1-11.4-9.2-11.4c-6.5,0-10.2,4.8-10.2,13.1v21.8h-6v-23.1c0-7.9-3-11.9-8.9-11.9
		c-6.8,0-10.4,4.8-10.4,13.1v21.8h-6v-39.5L1212.4,607.7L1212.4,607.7z"/>
	<path fill="#9AD2E6" d="M1273.7,636.1c0-7.8,5.9-12.4,14.6-12.4c2.9,0,6.5,0.6,10.8,1.9v-4c0-5.9-3.9-9.3-9.8-9.3
		c-4.8,0-8.7,2.9-10.3,6.5l-4.1-3.9c3.1-5.5,8-8.2,14.5-8.2c9.6,0,15.6,5.6,15.6,15.5v25h-5.8v-4.1c-3,3.3-7,5-12.3,5
		C1279.5,648.1,1273.7,643.6,1273.7,636.1z M1287.3,642.8c4.8,0,9.3-2.7,11.8-6.3v-5.3c-3.9-1.3-7.3-1.9-10.5-1.9
		c-6,0-8.9,2.8-8.9,7C1279.7,640.2,1282.8,642.8,1287.3,642.8z"/>
	<path fill="#9AD2E6" d="M1327.4,629.5c-7.5-1.8-11.2-5.6-11.2-11.4c0-3.5,1.4-6.3,4-8.3c2.7-2,5.9-3.1,9.6-3.1
		c5.2,0,9.9,2.1,14,6.4l-4,4.3c-3.2-3.4-6.7-5.1-10.4-5.1c-4.3,0-7.3,2.3-7.3,5.6c0,3,1.9,4.9,5.9,5.8l6.2,1.5
		c7.5,1.8,11.2,5.5,11.2,11.1c0,7-5.8,11.8-14.8,11.8c-6.8,0-12.7-3.2-16-7.4l4-4.1c3.2,4,7.2,6,11.9,6c5.6,0,8.9-2.3,8.9-6
		c0-2.8-2.1-4.8-6.2-5.7L1327.4,629.5z"/>
	<path fill="#9AD2E6" d="M1356.5,647.2v-56.5h6V628l18.3-20.2h7.8l-15.4,16.7l16.3,22.8h-7.7l-12.9-18.1l-6.4,7v11.1L1356.5,647.2
		L1356.5,647.2z"/>
	<path fill="#9AD2E6" d="M1408.8,643.4c0,2.7-2.1,4.8-4.9,4.8c-2.7,0-4.8-2.1-4.8-4.8s2.1-4.8,4.8-4.8
		C1406.7,638.5,1408.8,640.5,1408.8,643.4z"/>
</g>
<path fill="#FFFFFF" d="M0,0v1080h1920V0H0z M1688.1,881.4H391.9V198.6h1296v682.8H1688.1z"/>
</svg>
