<?xml version="1.0" encoding="utf-8"?>
<!-- Generator: Adobe Illustrator 19.1.0, SVG Export Plug-In . SVG Version: 6.00 Build 0)  -->
<svg version="1.1" baseProfile="tiny" id="Layer_1_copy"
	 xmlns="http://www.w3.org/2000/svg" xmlns:xlink="http://www.w3.org/1999/xlink" x="0px" y="0px" >
<rect fill="#FFFFFF" width="1920" height="1080"/>
<g>
	<path fill="#9AD2E6" d="M726.2,471.8l-10.7-20.6v32.1h-12v-56.5h12l16,31.7l16.1-31.7h11.9v56.5h-11.9v-32.1l-10.8,20.6H726.2z"/>
	<path fill="#9AD2E6" d="M767.8,471.6c0-4.1,1.5-7.3,4.5-9.4c3-2.2,6.7-3.3,11.1-3.3c2.7,0,5.3,0.4,7.9,1.1v-0.6
		c0-3.8-2.5-6.4-6.6-6.4c-3.6,0-6.4,1.5-8.5,4.6l-7.3-6.9c4.4-5.2,9.8-7.8,16.5-7.8c5,0,9.1,1.5,12.4,4.3s4.9,6.6,4.9,11.5v24.7
		h-11.4v-2.6c-2.7,2.3-6,3.5-10,3.5C773.1,484.1,767.8,479,767.8,471.6z M784.3,474.4c2.6,0,4.9-0.8,7.1-2.4v-4.5
		c-2-0.5-3.8-0.7-5.3-0.7c-4.3,0-6.7,1.6-6.7,4.1C779.3,472.9,781.4,474.4,784.3,474.4z"/>
	<path fill="#9AD2E6" d="M824.2,468.2c-8.6-2.2-12.9-6.4-12.9-12.9c0-3.8,1.5-6.8,4.4-9c3-2.3,6.6-3.5,10.9-3.5
		c6,0,11.3,2.1,15.9,6.2l-7,7.4c-3.1-2.6-6.2-3.9-9.4-3.9c-2.3,0-3.7,1-3.7,2.3c0,1,1,1.7,2.8,2.1l5.9,1.4c8.6,2,13,6.4,13,13.1
		c0,7.5-6.4,12.7-16.5,12.7c-7.3,0-14-3.5-17.3-7.7l7-7.2c3.5,3.5,7.3,5.2,11.3,5.2c2.3,0,4.4-1,4.4-2.6c0-1-1.2-1.9-3.5-2.5
		L824.2,468.2z"/>
	<path fill="#9AD2E6" d="M851.9,483.2v-56.5h11.4v29.5l11-12.5h14.4L874.1,460l15.2,23.2h-13.9l-9.4-15l-2.7,2.9v12.1H851.9z"/>
	<path fill="#6DB4D6" d="M919,471.8l-10.7-20.6v32.1h-12v-56.5h12l16,31.7l16.1-31.7h11.9v56.5h-11.9v-32.1l-10.8,20.6H919z"/>
	<path fill="#6DB4D6" d="M960.6,471.6c0-4.1,1.5-7.3,4.5-9.4c3-2.2,6.7-3.3,11.1-3.3c2.7,0,5.3,0.4,7.9,1.1v-0.6
		c0-3.8-2.5-6.4-6.6-6.4c-3.6,0-6.4,1.5-8.5,4.6l-7.3-6.9c4.4-5.2,9.8-7.8,16.5-7.8c5,0,9.1,1.5,12.4,4.3c3.3,2.8,4.9,6.6,4.9,11.5
		v24.7h-11.4v-2.6c-2.7,2.3-6,3.5-10,3.5C965.9,484.1,960.6,479,960.6,471.6z M977,474.4c2.6,0,4.9-0.8,7.1-2.4v-4.5
		c-2-0.5-3.8-0.7-5.3-0.7c-4.3,0-6.7,1.6-6.7,4.1C972.1,472.9,974.1,474.4,977,474.4z"/>
	<path fill="#6DB4D6" d="M1016.9,468.2c-8.6-2.2-12.9-6.4-12.9-12.9c0-3.8,1.5-6.8,4.4-9c3-2.3,6.6-3.5,10.9-3.5
		c6,0,11.3,2.1,15.9,6.2l-7,7.4c-3.1-2.6-6.2-3.9-9.4-3.9c-2.3,0-3.7,1-3.7,2.3c0,1,1,1.7,2.8,2.1l5.9,1.4c8.6,2,13,6.4,13,13.1
		c0,7.5-6.4,12.7-16.5,12.7c-7.3,0-14-3.5-17.3-7.7l7-7.2c3.5,3.5,7.3,5.2,11.3,5.2c2.3,0,4.4-1,4.4-2.6c0-1-1.2-1.9-3.5-2.5
		L1016.9,468.2z"/>
	<path fill="#6DB4D6" d="M1044.7,483.2v-56.5h11.4v29.5l11-12.5h14.4l-14.6,16.3l15.2,23.2h-13.9l-9.4-15l-2.7,2.9v12.1H1044.7z"/>
	<path fill="#9AD2E6" d="M704.8,507.1c1.9-1.7,4.7-1.7,6.4,0c1.9,1.7,1.9,4.5,0,6.4c-1.7,1.7-4.5,1.7-6.4,0
		C703.1,511.6,703.1,508.8,704.8,507.1z M705,563.2v-39.5h6v39.5H705z"/>
	<path fill="#9AD2E6" d="M734.4,545.5c-7.5-1.8-11.2-5.6-11.2-11.4c0-3.5,1.4-6.3,4-8.3c2.7-2,5.9-3.1,9.6-3.1c5.2,0,9.9,2.1,14,6.4
		l-4,4.3c-3.2-3.4-6.7-5.1-10.4-5.1c-4.3,0-7.3,2.3-7.3,5.6c0,3,1.9,4.9,5.9,5.8l6.2,1.5c7.5,1.8,11.2,5.5,11.2,11.1
		c0,7-5.8,11.8-14.8,11.8c-6.8,0-12.7-3.2-16-7.4l4-4.1c3.2,4,7.2,6,11.9,6c5.6,0,8.9-2.3,8.9-6c0-2.8-2.1-4.8-6.2-5.7L734.4,545.5z
		"/>
	<path fill="#9AD2E6" d="M786.5,552.1c0-7.8,5.9-12.4,14.6-12.4c2.9,0,6.5,0.6,10.8,1.9v-4c0-5.9-4-9.3-9.8-9.3
		c-4.8,0-8.7,2.9-10.3,6.5l-4.1-3.9c3.1-5.5,8-8.2,14.5-8.2c9.6,0,15.6,5.6,15.6,15.5v25h-5.8v-4.1c-3,3.3-7,5-12.3,5
		C792.3,564.1,786.5,559.6,786.5,552.1z M800.1,558.8c4.8,0,9.3-2.7,11.8-6.3v-5.3c-3.9-1.3-7.3-1.9-10.5-1.9c-6,0-8.9,2.8-8.9,7
		C792.5,556.2,795.6,558.8,800.1,558.8z"/>
	<path fill="#9AD2E6" d="M857,551.6v-22.4h-6.4v-5.5h6.4v-11h6v11h9.2v5.5h-9.2v21.5c0,5.2,1.3,7.2,6,7.2l3.1-0.1v5.4
		c-1,0.1-2.3,0.2-3.7,0.2C860.7,563.4,857,560.1,857,551.6z"/>
	<path fill="#9AD2E6" d="M886,558.1c-3.8-4-5.6-8.9-5.6-14.7c0-5.7,1.9-10.6,5.6-14.7c3.8-4,8.5-6,14.2-6c5.6,0,10.4,2,14.2,6
		c3.9,4,5.8,8.9,5.8,14.7c0,5.7-1.9,10.6-5.7,14.7c-3.8,3.9-8.5,6-14.3,6C894.5,564.1,889.8,562.1,886,558.1z M910.1,554.3
		c2.6-2.9,3.9-6.5,3.9-10.8c0-4.3-1.3-7.9-3.9-10.7c-2.6-2.9-5.9-4.4-9.9-4.4c-4,0-7.3,1.5-9.8,4.4c-2.6,2.8-3.9,6.4-3.9,10.7
		c0,4.3,1.3,7.9,3.9,10.8c2.6,2.8,5.9,4.3,9.8,4.3C904.2,558.6,907.5,557.1,910.1,554.3z"/>
	<path fill="#9AD2E6" d="M935.5,558.1c-3.8-4-5.6-8.9-5.6-14.7c0-5.7,1.9-10.6,5.6-14.7c3.8-4,8.5-6,14.2-6c5.6,0,10.4,2,14.2,6
		c3.9,4,5.8,8.9,5.8,14.7c0,5.7-1.9,10.6-5.7,14.7c-3.8,3.9-8.5,6-14.3,6C944,564.1,939.3,562.1,935.5,558.1z M959.6,554.3
		c2.6-2.9,3.9-6.5,3.9-10.8c0-4.3-1.3-7.9-3.9-10.7c-2.6-2.9-5.9-4.4-9.9-4.4c-4,0-7.3,1.5-9.8,4.4c-2.6,2.8-3.9,6.4-3.9,10.7
		c0,4.3,1.3,7.9,3.9,10.8c2.6,2.8,5.9,4.3,9.8,4.3C953.7,558.6,957,557.1,959.6,554.3z"/>
	<path fill="#9AD2E6" d="M980.7,563.2v-56.5h6v56.5H980.7z"/>
	<path fill="#9AD2E6" d="M1042.3,506.8v5.4h-2.1c-5.9,0-8,2.7-8,8.5v3h9.2v5.5h-9.2v34h-6v-34h-6.4v-5.5h6.4v-3
		c0-9.8,4.8-14,13.9-14L1042.3,506.8z"/>
	<path fill="#9AD2E6" d="M1054,558.1c-3.8-4-5.6-8.9-5.6-14.7c0-5.7,1.9-10.6,5.6-14.7c3.8-4,8.5-6,14.2-6c5.6,0,10.4,2,14.2,6
		c3.9,4,5.8,8.9,5.8,14.7c0,5.7-1.9,10.6-5.7,14.7c-3.8,3.9-8.5,6-14.3,6C1062.6,564.1,1057.8,562.1,1054,558.1z M1078.1,554.3
		c2.6-2.9,3.9-6.5,3.9-10.8c0-4.3-1.3-7.9-3.9-10.7c-2.6-2.9-5.9-4.4-9.9-4.4c-4,0-7.3,1.5-9.8,4.4c-2.6,2.8-3.9,6.4-3.9,10.7
		c0,4.3,1.3,7.9,3.9,10.8c2.6,2.8,5.9,4.3,9.8,4.3C1072.2,558.6,1075.5,557.1,1078.1,554.3z"/>
	<path fill="#9AD2E6" d="M1119.7,529c-0.4-0.1-0.9-0.1-1.4-0.1c-9.4,0-13.1,4.7-13.1,17.5v16.8h-6v-39.5h5.8v5.2
		c3.5-4.3,7.1-5.8,12.9-5.8c0.6,0,1.2,0,1.8,0.1V529z"/>
	<path fill="#9AD2E6" d="M710.4,658.9h-6v-55.1h5.8v5.4c3.6-4.3,8.1-6.4,13.5-6.4c5.4,0,9.8,2,13.2,6c3.5,4,5.2,8.9,5.2,14.7
		c0,5.8-1.7,10.7-5.2,14.7s-7.8,6-13.2,6s-9.8-2-13.3-6.1V658.9z M736,623.5c0-4.4-1.1-8-3.5-10.8c-2.3-2.8-5.4-4.3-9.4-4.3
		c-3.9,0-7.1,1.5-9.4,4.3c-2.3,2.8-3.5,6.4-3.5,10.8s1.1,8,3.5,10.8c2.3,2.8,5.5,4.3,9.4,4.3c4,0,7-1.5,9.4-4.3
		C734.8,631.5,736,627.8,736,623.5z"/>
	<path fill="#9AD2E6" d="M773.6,609c-0.4-0.1-0.9-0.1-1.4-0.1c-9.4,0-13.1,4.7-13.1,17.5v16.8h-6v-39.5h5.8v5.2
		c3.5-4.3,7.1-5.8,12.9-5.8c0.6,0,1.2,0,1.8,0.1V609z"/>
	<path fill="#9AD2E6" d="M785.3,638.1c-3.8-4-5.6-8.9-5.6-14.7c0-5.7,1.9-10.6,5.6-14.7c3.8-4,8.5-6,14.2-6c5.6,0,10.4,2,14.2,6
		c3.9,4,5.8,8.9,5.8,14.7c0,5.7-1.9,10.6-5.7,14.7c-3.8,3.9-8.5,6-14.3,6C793.9,644.1,789.1,642.1,785.3,638.1z M809.4,634.3
		c2.6-2.9,3.9-6.5,3.9-10.8c0-4.3-1.3-7.9-3.9-10.7c-2.6-2.9-5.9-4.4-9.9-4.4c-3.9,0-7.3,1.5-9.8,4.4c-2.6,2.8-3.9,6.4-3.9,10.7
		c0,4.3,1.3,7.9,3.9,10.8c2.6,2.8,5.9,4.3,9.8,4.3C803.5,638.6,806.8,637.1,809.4,634.3z"/>
	<path fill="#9AD2E6" d="M832.6,603.7h6v43.9c0,8.4-3.7,11.7-11.5,11.7l-4.1-0.2v-5.4c1.8,0.1,3,0.1,3.5,0.1c4.8,0,6.1-2,6.1-7.2
		V603.7z M835.5,585.8c2.5,0,4.5,1.9,4.5,4.4c0,2.5-2,4.5-4.5,4.5s-4.5-2-4.5-4.5C831,587.9,833,585.8,835.5,585.8z"/>
	<path fill="#9AD2E6" d="M886.6,625.3h-29.4c0.6,8.3,5.6,13.2,13.3,13.2c4.4,0,8.1-1.9,11.3-5.8l4.1,3.8c-4.2,5.1-9.4,7.6-15.4,7.6
		c-5.9,0-10.6-1.9-14.2-5.6c-3.5-3.8-5.2-8.7-5.2-14.8c0-6,1.6-11,4.8-14.9c3.3-4,7.7-6,13.1-6c4,0,7.4,1,10.2,3.1
		c5.6,4.2,7.5,10.2,7.5,16.7L886.6,625.3z M857.5,620h23.2c-0.6-7-4.9-11.6-11.4-11.6C862.5,608.4,858.5,613.2,857.5,620z"/>
	<path fill="#9AD2E6" d="M932,636.5c-4.2,5.1-9.4,7.6-15.8,7.6c-5.6,0-10.4-2-14.2-6c-3.8-4-5.6-8.9-5.6-14.7
		c0-5.7,1.9-10.6,5.8-14.6c3.9-4.1,8.7-6.1,14.3-6.1c6,0,10.9,2.3,14.8,7l-4,3.9c-3-3.5-6.5-5.3-10.7-5.3c-4,0-7.3,1.5-10,4.4
		c-2.7,2.8-4,6.4-4,10.7c0,8.8,5.4,15.1,14.2,15.1c4.4,0,8.2-1.9,11.2-5.8L932,636.5z"/>
	<path fill="#9AD2E6" d="M944.5,631.6v-22.4h-6.4v-5.5h6.4v-11h6v11h9.2v5.5h-9.2v21.5c0,5.2,1.3,7.2,6,7.2l3.1-0.1v5.4
		c-1,0.1-2.3,0.2-3.7,0.2C948.2,643.4,944.5,640.1,944.5,631.6z"/>
	<path fill="#9AD2E6" d="M970.6,587.1c1.9-1.7,4.7-1.7,6.4,0c1.9,1.7,1.9,4.5,0,6.4c-1.7,1.7-4.5,1.7-6.4,0
		C968.9,591.6,968.9,588.8,970.6,587.1z M970.8,643.2v-39.5h6v39.5H970.8z"/>
	<path fill="#9AD2E6" d="M994.1,638.1c-3.8-4-5.6-8.9-5.6-14.7c0-5.7,1.9-10.6,5.6-14.7c3.8-4,8.5-6,14.2-6c5.6,0,10.4,2,14.2,6
		c3.9,4,5.8,8.9,5.8,14.7c0,5.7-1.9,10.6-5.7,14.7c-3.8,3.9-8.5,6-14.3,6C1002.7,644.1,997.9,642.1,994.1,638.1z M1018.2,634.3
		c2.6-2.9,3.9-6.5,3.9-10.8c0-4.3-1.3-7.9-3.9-10.7c-2.6-2.9-5.9-4.4-9.9-4.4c-4,0-7.3,1.5-9.8,4.4c-2.6,2.8-3.9,6.4-3.9,10.7
		c0,4.3,1.3,7.9,3.9,10.8c2.6,2.8,5.9,4.3,9.8,4.3C1012.3,638.6,1015.6,637.1,1018.2,634.3z"/>
	<path fill="#9AD2E6" d="M1045.1,603.7v4.8c2.7-3.5,7.6-5.8,12.5-5.8c10.1,0,15.7,6.3,15.7,17.5v23h-6v-23.5
		c0-7.3-3.7-11.4-10.1-11.4c-7.7,0-11.9,5.9-11.9,15.3v19.6h-6v-39.5H1045.1z"/>
	<path fill="#9AD2E6" d="M710.3,683.7v4.8c2.3-3.2,6.6-5.7,11.4-5.7c5.4,0,9.3,2.2,11.8,6.5c3-4.4,7.1-6.5,12.3-6.5
		c10.2,0,15.2,5.8,15.2,17.5v23h-6v-23.5c0-7.7-3.1-11.4-9.2-11.4c-6.5,0-10.2,4.8-10.2,13.1v21.8h-6v-23.1c0-7.9-3-11.8-8.9-11.8
		c-6.8,0-10.4,4.8-10.4,13.1v21.8h-6v-39.5H710.3z"/>
	<path fill="#9AD2E6" d="M771.5,712.1c0-7.8,5.9-12.4,14.6-12.4c2.9,0,6.5,0.6,10.8,1.9v-4c0-5.9-4-9.3-9.8-9.3
		c-4.8,0-8.7,2.9-10.3,6.5l-4.1-3.9c3.1-5.5,8-8.2,14.5-8.2c9.6,0,15.6,5.6,15.6,15.5v25h-5.8v-4.1c-3,3.3-7,5-12.3,5
		C777.3,724.1,771.5,719.6,771.5,712.1z M785.1,718.8c4.8,0,9.3-2.7,11.8-6.3v-5.3c-3.9-1.3-7.3-1.9-10.5-1.9c-6,0-8.9,2.8-8.9,7
		C777.5,716.2,780.6,718.8,785.1,718.8z"/>
	<path fill="#9AD2E6" d="M825.2,705.5c-7.5-1.8-11.2-5.6-11.2-11.4c0-3.5,1.4-6.3,4-8.3c2.7-2,5.9-3.1,9.6-3.1c5.2,0,9.9,2.1,14,6.4
		l-4,4.3c-3.2-3.4-6.7-5.1-10.4-5.1c-4.3,0-7.3,2.3-7.3,5.6c0,3,1.9,4.9,5.9,5.8l6.2,1.5c7.5,1.8,11.2,5.5,11.2,11.1
		c0,7-5.8,11.8-14.8,11.8c-6.8,0-12.7-3.2-16-7.4l4-4.1c3.2,4,7.2,6,11.9,6c5.6,0,8.9-2.3,8.9-6c0-2.8-2.1-4.8-6.2-5.7L825.2,705.5z
		"/>
	<path fill="#9AD2E6" d="M854.3,723.2v-56.5h6V704l18.3-20.2h7.8L871,700.4l16.3,22.8h-7.7l-12.9-18.1l-6.4,7v11.1H854.3z"/>
	<path fill="#9AD2E6" d="M897.8,667.1c1.9-1.7,4.7-1.7,6.4,0c1.9,1.7,1.9,4.5,0,6.4c-1.7,1.7-4.5,1.7-6.4,0
		C896.1,671.6,896.1,668.8,897.8,667.1z M898,723.2v-39.5h6v39.5H898z"/>
	<path fill="#9AD2E6" d="M924.2,683.7v4.8c2.7-3.5,7.6-5.8,12.5-5.8c10.1,0,15.7,6.3,15.7,17.5v23h-6v-23.5
		c0-7.3-3.7-11.4-10.1-11.4c-7.7,0-11.9,5.9-11.9,15.3v19.6h-6v-39.5H924.2z"/>
	<path fill="#9AD2E6" d="M968.7,726.8c2.8,5,6.8,7.5,12,7.5c8.5,0,13.1-5.5,13.1-13.8v-4.1c-3,3.9-7.3,6-12.9,6
		c-5.1,0-9.3-1.9-12.7-5.6c-3.5-3.8-5.2-8.5-5.2-14.1c0-5.7,1.7-10.4,5.2-14.2c3.5-3.8,7.7-5.6,12.7-5.6c5.6,0,9.9,2,13.1,6v-5.1
		h5.8V720c0,12-7.3,19.8-19,19.8c-7.1,0-12.6-2.9-16.4-8.8L968.7,726.8z M972.6,712.7c2.3,2.7,5.2,3.9,8.9,3.9
		c3.6,0,6.6-1.3,8.9-3.9s3.5-6,3.5-10.2c0-4.2-1.2-7.6-3.5-10.2c-2.3-2.7-5.3-4-8.9-4c-3.6,0-6.5,1.3-8.9,4c-2.3,2.7-3.5,6-3.5,10.2
		C969.1,706.7,970.2,710.1,972.6,712.7z"/>
</g>
</svg>
