<?xml version="1.0" encoding="utf-8"?>
<!-- Generator: Adobe Illustrator 19.1.0, SVG Export Plug-In . SVG Version: 6.00 Build 0)  -->
<svg version="1.1" baseProfile="tiny" id="Layer_1_copy"
	 xmlns="http://www.w3.org/2000/svg" xmlns:xlink="http://www.w3.org/1999/xlink" x="0px" y="0px">
<polygon fill="#FFFFFF" points="1608.1,877.4 311.9,877.4 311.9,194.6 1607.9,194.6 1607.9,877.4 "/>
<g>
	<path fill="#9AD2E6" d="M631.9,483.2v-56.5h6.1v56.5H631.9z"/>
	<path fill="#9AD2E6" d="M656.8,443.7v4.8c2.7-3.5,7.6-5.8,12.5-5.8c10.1,0,15.7,6.3,15.7,17.5v23h-6v-23.5
		c0-7.3-3.7-11.4-10.1-11.4c-7.7,0-11.9,5.9-11.9,15.3v19.6h-6v-39.5H656.8z"/>
	<path fill="#9AD2E6" d="M754,483.2l-11.1-18.1h-9.6v18.1h-12v-56.5h23.4c6.3,0,11.4,1.6,15.5,4.9s6.1,7.8,6.1,13.5
		c0,8-4.4,14.4-11.1,17.7l12.5,20.4H754z M733.3,437.8v16.4h9.3c7.8,0,11.8-2.7,11.8-8.3c0-5.5-3.7-8.1-11.8-8.1H733.3z"/>
	<path fill="#9AD2E6" d="M809.7,466.4h-26.8c0.6,4.3,4,7.3,8.9,7.3c4,0,7.3-1.5,9.7-4.6l7.6,7.1c-4.3,5.3-9.9,8-16.9,8
		c-6,0-11-1.9-14.9-5.6c-4-3.8-5.9-8.7-5.9-14.8c0-6,1.8-11,5.4-15c3.6-4,8.3-6,14-6c6,0,10.7,2,14,6c3.3,4,5,8.8,5,14.2
		L809.7,466.4z M783.5,458.7h14.2c-0.2-3.3-2.9-5.9-6.7-5.9C786.9,452.8,784.2,455.3,783.5,458.7z"/>
	<path fill="#9AD2E6" d="M829.1,483.2h-11.4v-39.5H829v2.7c2.6-2.5,5.7-3.7,9.4-3.7c9.8,0,16.1,6.4,16.1,17.5v23H843v-22.1
		c0-4.5-2.1-7.7-6.5-7.7c-4.8,0-7.3,3.4-7.3,10.1L829.1,483.2L829.1,483.2z"/>
	<path fill="#9AD2E6" d="M867,448.6c3.8-3.9,8.5-5.8,14.1-5.8c4.1,0,7.5,1.1,10.2,3.5v-19.5h11.4v56.5h-11.3v-2.8
		c-2.6,2.5-6,3.7-10.3,3.7c-5.6,0-10.3-1.9-14.1-5.6c-3.8-3.8-5.6-8.8-5.6-15C861.3,457.4,863.2,452.4,867,448.6z M891.4,463.5
		c0-3-0.9-5.5-2.7-7.4c-1.7-1.9-3.9-2.9-6.5-2.9s-4.8,1-6.6,2.9c-1.7,1.9-2.6,4.4-2.6,7.4s0.9,5.5,2.6,7.4c1.8,1.9,4,2.9,6.6,2.9
		s4.8-1,6.5-2.9C890.5,469,891.4,466.5,891.4,463.5z"/>
	<path fill="#9AD2E6" d="M948.9,466.4h-26.8c0.6,4.3,4,7.3,8.9,7.3c4,0,7.3-1.5,9.7-4.6l7.6,7.1c-4.3,5.3-9.9,8-16.9,8
		c-6,0-11-1.9-14.9-5.6c-4-3.8-5.9-8.7-5.9-14.8c0-6,1.8-11,5.4-15s8.3-6,14-6c6,0,10.7,2,14,6c3.3,4,5,8.8,5,14.2L948.9,466.4z
		 M922.7,458.7h14.2c-0.2-3.3-2.9-5.9-6.7-5.9C926.1,452.8,923.5,455.3,922.7,458.7z"/>
	<path fill="#9AD2E6" d="M981.1,454.3h-1.8c-6.7,0-11,4.4-11,12.4v16.5h-11.4v-39.5h11.3v3.5c2.3-2.7,5.6-4.1,9.8-4.1
		c1.3,0,2.3,0,3.1,0.1V454.3z"/>
	<path fill="#9AD2E6" d="M1033.6,471.8l-10.7-20.6v32.1h-12v-56.5h12l16,31.7l16.1-31.7h11.9v56.5H1055v-32.1l-10.8,20.6H1033.6z"/>
	<path fill="#9AD2E6" d="M1075.3,463.5c0-5.9,2-10.8,6-14.8s9-6,14.9-6s10.9,2,14.8,6c4,3.9,6,8.9,6,14.8s-2,10.8-6,14.8
		s-8.9,5.9-14.9,5.9s-11-1.9-14.9-5.9S1075.3,469.4,1075.3,463.5z M1087,463.5c0,2.9,0.9,5.3,2.6,7.2c1.7,1.9,4,2.8,6.6,2.8
		s4.9-1,6.6-2.8c1.7-1.9,2.6-4.3,2.6-7.2s-0.9-5.3-2.6-7.2c-1.7-1.9-4-2.8-6.6-2.8s-4.9,1-6.6,2.8
		C1087.8,458.2,1087,460.6,1087,463.5z"/>
	<path fill="#9AD2E6" d="M1128.7,448.6c3.8-3.9,8.5-5.8,14.1-5.8c4.1,0,7.5,1.1,10.2,3.5v-19.5h11.4v56.5h-11.3v-2.8
		c-2.6,2.5-6,3.7-10.3,3.7c-5.6,0-10.3-1.9-14.1-5.6c-3.8-3.8-5.6-8.8-5.6-15C1123.1,457.4,1124.9,452.4,1128.7,448.6z
		 M1153.1,463.5c0-3-0.9-5.5-2.7-7.4c-1.7-1.9-3.9-2.9-6.5-2.9s-4.8,1-6.6,2.9c-1.7,1.9-2.6,4.4-2.6,7.4s0.9,5.5,2.6,7.4
		c1.8,1.9,4,2.9,6.6,2.9s4.8-1,6.5-2.9C1152.3,469,1153.1,466.5,1153.1,463.5z"/>
	<path fill="#9AD2E6" d="M1210.7,466.4h-26.8c0.6,4.3,4,7.3,8.9,7.3c4,0,7.3-1.5,9.7-4.6l7.6,7.1c-4.3,5.3-9.9,8-16.9,8
		c-6,0-11-1.9-14.9-5.6c-4-3.8-5.9-8.7-5.9-14.8c0-6,1.8-11,5.4-15s8.3-6,14-6c6,0,10.7,2,14,6s5,8.8,5,14.2L1210.7,466.4z
		 M1184.5,458.7h14.2c-0.2-3.3-2.9-5.9-6.7-5.9C1187.9,452.8,1185.2,455.3,1184.5,458.7z"/>
	<path fill="#9AD2E6" d="M1220.9,493.3h-6.4l7.7-19.3h7.5L1220.9,493.3z"/>
	<path fill="#9AD2E6" d="M641.9,547.5c-7.5-1.8-11.2-5.6-11.2-11.4c0-3.5,1.4-6.3,4-8.3c2.7-2,5.9-3.1,9.6-3.1c5.2,0,9.9,2.1,14,6.4
		l-4,4.3c-3.2-3.4-6.7-5.1-10.4-5.1c-4.3,0-7.3,2.3-7.3,5.6c0,3,1.9,4.9,5.9,5.8l6.2,1.5c7.5,1.8,11.2,5.5,11.2,11.1
		c0,7-5.8,11.8-14.8,11.8c-6.8,0-12.7-3.2-16-7.4l4-4.1c3.2,4,7.2,6,11.9,6c5.6,0,8.9-2.3,8.9-6c0-2.8-2.1-4.8-6.2-5.7L641.9,547.5z
		"/>
	<path fill="#9AD2E6" d="M676.9,508.7v21.8c2.7-3.5,7.4-5.7,12.3-5.7c10.1,0,15.7,6.3,15.7,17.5v23h-6v-23.5
		c0-7.3-3.7-11.4-10.1-11.4c-7.7,0-11.9,5.9-11.9,15.3v19.6h-6v-56.5L676.9,508.7L676.9,508.7z"/>
	<path fill="#9AD2E6" d="M714.2,554.1c0-7.8,5.9-12.4,14.6-12.4c2.9,0,6.5,0.6,10.8,1.9v-4c0-5.9-4-9.3-9.8-9.3
		c-4.8,0-8.7,2.9-10.3,6.5l-4.1-3.9c3.1-5.5,8-8.2,14.5-8.2c9.6,0,15.6,5.6,15.6,15.5v25h-5.8v-4.1c-3,3.3-7,5-12.3,5
		C720,566.1,714.2,561.6,714.2,554.1z M727.8,560.8c4.8,0,9.3-2.7,11.8-6.3v-5.3c-3.9-1.3-7.3-1.9-10.5-1.9c-6,0-8.9,2.8-8.9,7
		C720.1,558.2,723.3,560.8,727.8,560.8z"/>
	<path fill="#9AD2E6" d="M764.8,580.9h-6v-55.1h5.8v5.4c3.6-4.3,8.1-6.4,13.5-6.4s9.8,2,13.2,6c3.5,4,5.2,8.9,5.2,14.7
		s-1.7,10.7-5.2,14.7c-3.5,3.9-7.8,6-13.2,6s-9.8-2-13.3-6.1V580.9z M790.4,545.5c0-4.4-1.1-8-3.5-10.8c-2.3-2.8-5.4-4.3-9.4-4.3
		s-7.1,1.5-9.4,4.3c-2.3,2.8-3.5,6.4-3.5,10.8s1.1,8,3.5,10.8c2.3,2.8,5.5,4.3,9.4,4.3s7-1.5,9.4-4.3
		C789.2,553.5,790.4,549.8,790.4,545.5z"/>
	<path fill="#9AD2E6" d="M841.7,547.3h-29.4c0.6,8.3,5.6,13.2,13.3,13.2c4.4,0,8.1-1.9,11.3-5.8l4.1,3.8c-4.2,5.1-9.4,7.6-15.4,7.6
		c-5.9,0-10.6-1.9-14.2-5.6c-3.5-3.8-5.2-8.7-5.2-14.8c0-6,1.6-11,4.8-14.9c3.3-4,7.7-6,13.1-6c4,0,7.4,1,10.2,3.1
		c5.6,4.2,7.5,10.2,7.5,16.7L841.7,547.3z M812.5,542h23.2c-0.6-7-4.9-11.6-11.4-11.6C817.6,530.4,813.6,535.2,812.5,542z"/>
	<path fill="#9AD2E6" d="M862.8,547.5c-7.5-1.8-11.2-5.6-11.2-11.4c0-3.5,1.4-6.3,4-8.3c2.7-2,5.9-3.1,9.6-3.1c5.2,0,9.9,2.1,14,6.4
		l-4,4.3c-3.2-3.4-6.7-5.1-10.4-5.1c-4.3,0-7.3,2.3-7.3,5.6c0,3,1.9,4.9,5.9,5.8l6.2,1.5c7.5,1.8,11.2,5.5,11.2,11.1
		c0,7-5.8,11.8-14.8,11.8c-6.8,0-12.7-3.2-16-7.4l4-4.1c3.2,4,7.2,6,11.9,6c5.6,0,8.9-2.3,8.9-6c0-2.8-2.1-4.8-6.2-5.7L862.8,547.5z
		"/>
	<path fill="#9AD2E6" d="M922.5,525.7v4.8c2.3-3.2,6.6-5.7,11.4-5.7c5.4,0,9.3,2.2,11.8,6.5c3-4.4,7.1-6.5,12.3-6.5
		c10.2,0,15.2,5.8,15.2,17.5v23h-6v-23.5c0-7.7-3.1-11.4-9.2-11.4c-6.5,0-10.2,4.8-10.2,13.1v21.8h-6v-23.1c0-7.9-3-11.9-8.9-11.9
		c-6.8,0-10.4,4.8-10.4,13.1v21.8h-6v-39.5L922.5,525.7L922.5,525.7z"/>
	<path fill="#9AD2E6" d="M983.8,554.1c0-7.8,5.9-12.4,14.6-12.4c2.9,0,6.5,0.6,10.8,1.9v-4c0-5.9-3.9-9.3-9.8-9.3
		c-4.8,0-8.7,2.9-10.3,6.5l-4.1-3.9c3.1-5.5,8-8.2,14.5-8.2c9.6,0,15.6,5.6,15.6,15.5v25h-5.8v-4.1c-3,3.3-7,5-12.3,5
		C989.6,566.1,983.8,561.6,983.8,554.1z M997.4,560.8c4.8,0,9.3-2.7,11.8-6.3v-5.3c-3.9-1.3-7.3-1.9-10.5-1.9c-6,0-8.9,2.8-8.9,7
		C989.7,558.2,992.9,560.8,997.4,560.8z"/>
	<path fill="#9AD2E6" d="M1037.5,547.5c-7.5-1.8-11.2-5.6-11.2-11.4c0-3.5,1.4-6.3,4-8.3c2.7-2,5.9-3.1,9.6-3.1
		c5.2,0,9.9,2.1,14,6.4l-4,4.3c-3.2-3.4-6.7-5.1-10.4-5.1c-4.3,0-7.3,2.3-7.3,5.6c0,3,1.9,4.9,5.9,5.8l6.2,1.5
		c7.5,1.8,11.2,5.5,11.2,11.1c0,7-5.8,11.8-14.8,11.8c-6.8,0-12.7-3.2-16-7.4l4-4.1c3.2,4,7.2,6,11.9,6c5.6,0,8.9-2.3,8.9-6
		c0-2.8-2.1-4.8-6.2-5.7L1037.5,547.5z"/>
	<path fill="#9AD2E6" d="M1066.6,565.2v-56.5h6V546l18.3-20.2h7.8l-15.4,16.7l16.3,22.8h-7.7l-12.9-18.1l-6.4,7v11.1L1066.6,565.2
		L1066.6,565.2z"/>
	<path fill="#9AD2E6" d="M1147.3,580.9h-6.5l6-15.2l-16.4-40h6.7l13,32.8l12.7-32.8h6.6L1147.3,580.9z"/>
	<path fill="#9AD2E6" d="M1179.6,560.1c-3.8-4-5.6-8.9-5.6-14.7s1.9-10.6,5.6-14.7c3.8-4,8.5-6,14.2-6c5.6,0,10.4,2,14.2,6
		c3.9,4,5.8,8.9,5.8,14.7s-1.9,10.6-5.7,14.7c-3.8,3.9-8.5,6-14.3,6C1188.1,566.1,1183.4,564.1,1179.6,560.1z M1203.7,556.3
		c2.6-2.9,3.9-6.5,3.9-10.8s-1.3-7.9-3.9-10.7c-2.6-2.9-5.9-4.4-9.9-4.4s-7.3,1.5-9.8,4.4c-2.6,2.8-3.9,6.4-3.9,10.7
		s1.3,7.9,3.9,10.8c2.6,2.8,5.9,4.3,9.8,4.3C1197.8,560.6,1201.1,559.1,1203.7,556.3z"/>
	<path fill="#9AD2E6" d="M1250.9,565.2v-5c-3.1,4-7.3,5.9-12.5,5.9c-9.9,0-14.8-5.8-14.8-17.4v-23h6v23.2c0,7.5,3.3,11.5,9.7,11.5
		c7.7,0,11.4-5.6,11.4-15.2v-19.6h6v39.5L1250.9,565.2L1250.9,565.2z"/>
	<path fill="#9AD2E6" d="M1290.9,531c-0.4-0.1-0.9-0.1-1.4-0.1c-9.4,0-13.1,4.7-13.1,17.5v16.8h-6v-39.5h5.8v5.2
		c3.5-4.3,7.1-5.8,12.9-5.8c0.6,0,1.2,0,1.8,0.1L1290.9,531L1290.9,531z"/>
	<path fill="#9AD2E6" d="M665.6,629.3h-29.4c0.6,8.3,5.6,13.2,13.3,13.2c4.4,0,8.1-1.9,11.3-5.8l4.1,3.8c-4.2,5.1-9.4,7.6-15.4,7.6
		c-5.9,0-10.6-1.9-14.2-5.6c-3.5-3.8-5.2-8.7-5.2-14.8c0-6,1.6-11,4.8-14.9c3.3-4,7.7-6,13.1-6c4,0,7.4,1,10.2,3.1
		c5.6,4.2,7.5,10.2,7.5,16.7L665.6,629.3z M636.5,624h23.2c-0.6-7-4.9-11.6-11.4-11.6C641.5,612.4,637.5,617.2,636.5,624z"/>
	<path fill="#9AD2E6" d="M682.6,607.7v4.8c2.7-3.5,7.6-5.8,12.5-5.8c10.1,0,15.7,6.3,15.7,17.5v23h-6v-23.5
		c0-7.3-3.7-11.4-10.1-11.4c-7.7,0-11.9,5.9-11.9,15.3v19.6h-6v-39.5L682.6,607.7L682.6,607.7z"/>
	<path fill="#9AD2E6" d="M724.6,635.6v-22.4h-6.4v-5.5h6.4v-11h6v11h9.2v5.5h-9.3v21.5c0,5.2,1.3,7.2,6,7.2l3.1-0.1v5.4
		c-1,0.1-2.3,0.2-3.7,0.2C728.3,647.4,724.6,644.1,724.6,635.6z"/>
	<path fill="#9AD2E6" d="M750.6,591.1c1.9-1.7,4.7-1.7,6.4,0c1.9,1.7,1.9,4.5,0,6.4c-1.7,1.7-4.5,1.7-6.4,0
		C748.9,595.6,748.9,592.8,750.6,591.1z M750.9,647.2v-39.5h6v39.5H750.9z"/>
	<path fill="#9AD2E6" d="M791.7,613c-0.4-0.1-0.9-0.1-1.4-0.1c-9.4,0-13.1,4.7-13.1,17.5v16.8h-6v-39.5h5.8v5.2
		c3.5-4.3,7.1-5.8,12.9-5.8c0.6,0,1.2,0,1.8,0.1V613z"/>
	<path fill="#9AD2E6" d="M833.3,629.3h-29.4c0.6,8.3,5.6,13.2,13.3,13.2c4.4,0,8.1-1.9,11.3-5.8l4.1,3.8c-4.2,5.1-9.4,7.6-15.4,7.6
		c-5.9,0-10.6-1.9-14.2-5.6c-3.5-3.8-5.2-8.7-5.2-14.8c0-6,1.6-11,4.8-14.9c3.3-4,7.7-6,13.1-6c4,0,7.4,1,10.2,3.1
		c5.6,4.2,7.5,10.2,7.5,16.7L833.3,629.3z M804.1,624h23.2c-0.6-7-4.9-11.6-11.4-11.6C809.2,612.4,805.2,617.2,804.1,624z"/>
	<path fill="#9AD2E6" d="M899.1,613v-22.2h6v56.5h-5.7v-5.4c-3.6,4.2-8.1,6.3-13.5,6.3s-9.8-2-13.2-6c-3.5-4-5.2-8.9-5.2-14.7
		s1.7-10.7,5.2-14.7s7.8-6,13.2-6C891.1,606.8,895.6,608.9,899.1,613z M873.6,627.5c0,4.4,1.1,8,3.5,10.8s5.4,4.3,9.4,4.3
		c3.9,0,7.1-1.5,9.4-4.3s3.5-6.4,3.5-10.8s-1.2-8-3.5-10.8c-2.3-2.8-5.5-4.3-9.4-4.3c-4,0-7,1.5-9.4,4.3S873.6,623.1,873.6,627.5z"
		/>
	<path fill="#9AD2E6" d="M951.7,629.3h-29.4c0.6,8.3,5.6,13.2,13.3,13.2c4.4,0,8.1-1.9,11.3-5.8l4.1,3.8c-4.2,5.1-9.4,7.6-15.4,7.6
		c-5.9,0-10.6-1.9-14.2-5.6c-3.5-3.8-5.2-8.7-5.2-14.8c0-6,1.6-11,4.8-14.9c3.3-4,7.7-6,13.1-6c4,0,7.4,1,10.2,3.1
		c5.6,4.2,7.5,10.2,7.5,16.7L951.7,629.3z M922.5,624h23.2c-0.6-7-4.9-11.6-11.4-11.6C927.6,612.4,923.5,617.2,922.5,624z"/>
	<path fill="#9AD2E6" d="M972.7,629.5c-7.5-1.8-11.2-5.6-11.2-11.4c0-3.5,1.4-6.3,4-8.3c2.7-2,5.9-3.1,9.6-3.1c5.2,0,9.9,2.1,14,6.4
		l-4,4.3c-3.2-3.4-6.7-5.1-10.4-5.1c-4.3,0-7.3,2.3-7.3,5.6c0,3,1.9,4.9,5.9,5.8l6.2,1.5c7.5,1.8,11.2,5.5,11.2,11.1
		c0,7-5.8,11.8-14.8,11.8c-6.8,0-12.7-3.2-16-7.4l4-4.1c3.2,4,7.2,6,11.9,6c5.6,0,8.9-2.3,8.9-6c0-2.8-2.1-4.8-6.2-5.7L972.7,629.5z
		"/>
	<path fill="#9AD2E6" d="M1001.8,647.2v-56.5h6V628l18.3-20.2h7.8l-15.4,16.7l16.3,22.8h-7.7l-12.9-18.1l-6.4,7v11.1L1001.8,647.2
		L1001.8,647.2z"/>
	<path fill="#9AD2E6" d="M1046.8,635.6v-22.4h-6.4v-5.5h6.4v-11h6v11h9.2v5.5h-9.2v21.5c0,5.2,1.3,7.2,6,7.2l3.1-0.1v5.4
		c-1,0.1-2.3,0.2-3.7,0.2C1050.5,647.4,1046.8,644.1,1046.8,635.6z"/>
	<path fill="#9AD2E6" d="M1075.8,642.1c-3.8-4-5.6-8.9-5.6-14.7s1.9-10.6,5.6-14.7c3.8-4,8.5-6,14.2-6c5.6,0,10.4,2,14.2,6
		c3.9,4,5.8,8.9,5.8,14.7s-1.9,10.6-5.7,14.7c-3.8,3.9-8.5,6-14.3,6C1084.4,648.1,1079.6,646.1,1075.8,642.1z M1099.9,638.3
		c2.6-2.9,3.9-6.5,3.9-10.8s-1.3-7.9-3.9-10.7c-2.6-2.9-5.9-4.4-9.9-4.4s-7.3,1.5-9.8,4.4c-2.6,2.8-3.9,6.4-3.9,10.7
		s1.3,7.9,3.9,10.8c2.6,2.8,5.9,4.3,9.8,4.3C1094.1,642.6,1097.4,641.1,1099.9,638.3z"/>
	<path fill="#9AD2E6" d="M1127,662.9h-6v-55.1h5.8v5.4c3.6-4.3,8.1-6.4,13.5-6.4s9.8,2,13.2,6c3.5,4,5.2,8.9,5.2,14.7
		s-1.7,10.7-5.2,14.7c-3.5,3.9-7.8,6-13.2,6c-5.4,0-9.8-2-13.3-6.1V662.9z M1152.6,627.5c0-4.4-1.1-8-3.5-10.8s-5.4-4.3-9.4-4.3
		s-7.1,1.5-9.4,4.3s-3.5,6.4-3.5,10.8s1.1,8,3.5,10.8s5.5,4.3,9.4,4.3s7-1.5,9.4-4.3S1152.6,631.8,1152.6,627.5z"/>
	<path fill="#9AD2E6" d="M1178.5,643.4c0,2.7-2.1,4.8-4.9,4.8c-2.7,0-4.8-2.1-4.8-4.8s2.1-4.8,4.8-4.8
		C1176.4,638.5,1178.5,640.5,1178.5,643.4z"/>
</g>
</svg>
