<?xml version="1.0" encoding="utf-8"?>
<!-- Generator: Adobe Illustrator 19.1.0, SVG Export Plug-In . SVG Version: 6.00 Build 0)  -->
<svg version="1.1" baseProfile="tiny" id="Layer_1" xmlns="http://www.w3.org/2000/svg" xmlns:xlink="http://www.w3.org/1999/xlink"
	 x="0px" y="0px" width="1920px" height="1080px" viewBox="0 0 1920 1080" xml:space="preserve">
<g id="Layer_4">
	<rect x="11.9" fill="#FFFFFF" width="1920" height="1080"/>
</g>
<g id="Layer_6">
	<g>
		<g>
			<path fill="#B8B9BA" d="M595.2,309.9h42.9v10.7h-15.7v44h-11.5v-44h-15.7V309.9z"/>
			<path fill="#B8B9BA" d="M657.1,364.6H646v-54.7h11.1v18.6c2.3-2.1,5.2-3.1,8.9-3.1c9.4,0,15.6,6.2,15.6,16.9v22.2h-11.2v-21.4
				c0-4.4-2-7.5-6.3-7.5c-4.7,0-7,3.3-7,9.8V364.6z"/>
			<path fill="#B8B9BA" d="M689,353.4c0-4,1.5-7,4.4-9.1s6.5-3.2,10.8-3.2c2.6,0,5.1,0.4,7.6,1.1v-0.6c0-3.7-2.4-6.2-6.4-6.2
				c-3.5,0-6.2,1.5-8.2,4.4l-7-6.7c4.2-5.1,9.5-7.6,16-7.6c4.8,0,8.8,1.4,12,4.1s4.8,6.4,4.8,11.2v23.9h-11v-2.5
				c-2.6,2.3-5.8,3.4-9.7,3.4C694.1,365.5,689,360.5,689,353.4z M704.9,356.1c2.5,0,4.8-0.8,6.9-2.3v-4.4c-2-0.5-3.7-0.7-5.1-0.7
				c-4.1,0-6.5,1.6-6.5,4C700.2,354.6,702.1,356.1,704.9,356.1z"/>
			<path fill="#B8B9BA" d="M734,351.1v-14.5h-5v-10.2h5v-10.7h11v10.7h8.5v10.2H745v13.2c0,3.7,1.6,4.7,5.1,4.7h3.3v10.1
				c-2,0.1-4,0.2-6,0.2C738.4,364.8,734,360.3,734,351.1z"/>
			<path fill="#B8B9BA" d="M766.5,309.9h11.9l-8.5,18.3h-10.8L766.5,309.9z"/>
			<path fill="#B8B9BA" d="M793,350c-8.3-2.1-12.5-6.2-12.5-12.5c0-3.7,1.4-6.6,4.3-8.7c2.9-2.3,6.4-3.4,10.5-3.4
				c5.8,0,10.9,2,15.4,6l-6.8,7.2c-3-2.5-6-3.7-9-3.7c-2.2,0-3.6,1-3.6,2.3c0,0.9,0.9,1.6,2.7,2l5.7,1.3c8.3,2,12.6,6.2,12.6,12.6
				c0,7.3-6.2,12.3-16,12.3c-7.1,0-13.6-3.4-16.8-7.4l6.8-6.9c3.4,3.4,7.1,5.1,10.9,5.1c2.3,0,4.3-1,4.3-2.5c0-1-1.2-1.9-3.4-2.4
				L793,350z"/>
			<path fill="#B8B9BA" d="M849.1,309.1c3.7,0,6.5,2.8,6.5,6.5c0,3.5-3,6.4-6.5,6.4s-6.4-2.9-6.4-6.4
				C842.7,311.9,845.6,309.1,849.1,309.1z M843.6,364.6v-38.2h11.2v38.2H843.6z"/>
			<path fill="#B8B9BA" d="M867.1,351.1v-14.5h-5v-10.2h5v-10.7h11v10.7h8.5v10.2h-8.5v13.2c0,3.7,1.6,4.7,5.1,4.7h3.3v10.1
				c-1.9,0.1-4,0.2-6,0.2C871.6,364.8,867.1,360.3,867.1,351.1z"/>
			<path fill="#B8B9BA" d="M899,353.9c2.6-2.6,6.9-2.6,9.5,0c2.7,2.6,2.7,6.9,0,9.5c-2.6,2.6-6.9,2.6-9.5,0
				C896.5,360.9,896.5,356.5,899,353.9z"/>
			<path fill="#B8B9BA" d="M634.9,444.6v-25h-29.7v25h-5.9v-54.7h5.9v24h29.7v-24h5.9v54.7H634.9z"/>
			<path fill="#B8B9BA" d="M649.2,433.9c0-7.6,5.7-12,14.1-12c2.8,0,6.3,0.6,10.5,1.9v-3.9c0-5.7-3.8-9-9.4-9c-4.7,0-8.4,2.8-10,6.3
				l-4-3.7c3-5.3,7.7-8,14-8c9.3,0,15.1,5.4,15.1,15v24.2h-5.6v-4c-2.9,3.2-6.8,4.8-11.9,4.8C654.8,445.5,649.2,441.1,649.2,433.9z
				 M662.4,440.3c4.7,0,9-2.7,11.4-6.1v-5.1c-3.7-1.2-7.1-1.9-10.1-1.9c-5.8,0-8.7,2.7-8.7,6.8C655,437.8,658,440.3,662.4,440.3z"/>
			<path fill="#B8B9BA" d="M718.9,406.4l-14.5,38.2h-6.1l-14.5-38.2h6.3l11.2,31.2l11.2-31.2H718.9z"/>
			<path fill="#B8B9BA" d="M756.3,427.3h-28.5c0.5,8,5.4,12.8,12.9,12.8c4.3,0,7.9-1.9,10.9-5.6l4,3.7c-4.1,4.9-9,7.3-14.9,7.3
				c-5.7,0-10.3-1.8-13.7-5.5s-5.1-8.4-5.1-14.3c0-5.8,1.6-10.6,4.7-14.4c3.2-3.9,7.4-5.9,12.7-5.9c3.9,0,7.2,1,9.8,3
				c5.4,4.1,7.3,9.8,7.3,16.1L756.3,427.3z M728.1,422.2h22.5c-0.5-6.8-4.8-11.2-11.1-11.2C733,410.9,729.1,415.5,728.1,422.2z"/>
			<path fill="#B8B9BA" d="M803.7,390v5.2h-2c-5.7,0-7.7,2.6-7.7,8.3v2.9h8.9v5.3H794v32.9h-5.8v-32.9H782v-5.3h6.2v-2.9
				c0-9.4,4.6-13.6,13.4-13.6L803.7,390z"/>
			<path fill="#B8B9BA" d="M835.6,444.6v-4.8c-3,3.8-7,5.7-12.1,5.7c-9.6,0-14.4-5.6-14.4-16.8v-22.2h5.8V429
				c0,7.3,3.2,11.2,9.4,11.2c7.4,0,11.1-5.4,11.1-14.7v-19h5.8v38.2h-5.6V444.6z"/>
			<path fill="#B8B9BA" d="M857.8,406.4v4.7c2.6-3.4,7.3-5.6,12.1-5.6c9.8,0,15.2,6.1,15.2,16.9v22.2h-5.8v-22.7
				c0-7.1-3.6-11.1-9.8-11.1c-7.5,0-11.5,5.7-11.5,14.8v19h-5.8v-38.2L857.8,406.4L857.8,406.4z"/>
			<path fill="#B8B9BA" d="M895.6,454.4h-6.2l7.4-18.6h7.3L895.6,454.4z"/>
			<path fill="#B8B9BA" d="M936.8,433.4v-21.7h-6.2v-5.3h6.2v-10.7h5.8v10.7h8.9v5.3h-8.9v20.8c0,5,1.2,6.9,5.8,6.9l3-0.1v5.2
				c-1,0.1-2.3,0.2-3.6,0.2C940.4,444.8,936.8,441.6,936.8,433.4z"/>
			<path fill="#B8B9BA" d="M979.2,411.5c-0.4-0.1-0.9-0.1-1.3-0.1c-9,0-12.7,4.5-12.7,16.9v16.3h-5.8v-38.2h5.6v5.1
				c3.4-4.1,6.9-5.6,12.5-5.6c0.5,0,1.2,0,1.7,0.1V411.5z"/>
			<path fill="#B8B9BA" d="M998.5,459.8h-6.3l5.8-14.7l-15.8-38.7h6.5l12.6,31.7l12.3-31.7h6.4L998.5,459.8z"/>
			<path fill="#B8B9BA" d="M1049.4,433.4v-21.7h-6.2v-5.3h6.2v-10.7h5.8v10.7h8.9v5.3h-8.9v20.8c0,5,1.2,6.9,5.8,6.9l3-0.1v5.2
				c-1,0.1-2.3,0.2-3.6,0.2C1053,444.8,1049.4,441.6,1049.4,433.4z"/>
			<path fill="#B8B9BA" d="M1077.7,389.9V411c2.6-3.4,7.2-5.5,11.9-5.5c9.8,0,15.2,6.1,15.2,16.9v22.2h-5.9v-22.7
				c0-7.1-3.6-11.1-9.8-11.1c-7.5,0-11.5,5.7-11.5,14.8v19h-5.8v-54.7L1077.7,389.9L1077.7,389.9z"/>
			<path fill="#B8B9BA" d="M1114.4,390.3c1.8-1.6,4.5-1.6,6.2,0c1.8,1.6,1.8,4.4,0,6.2c-1.6,1.6-4.4,1.6-6.2,0
				C1112.8,394.7,1112.8,392,1114.4,390.3z M1114.6,444.6v-38.2h5.8v38.2H1114.6z"/>
			<path fill="#B8B9BA" d="M1137.6,406.4v4.7c2.6-3.4,7.3-5.6,12.1-5.6c9.8,0,15.2,6.1,15.2,16.9v22.2h-5.8v-22.7
				c0-7.1-3.6-11.1-9.8-11.1c-7.5,0-11.5,5.7-11.5,14.8v19h-5.8v-38.2L1137.6,406.4L1137.6,406.4z"/>
			<path fill="#B8B9BA" d="M1178.4,448.1c2.7,4.8,6.6,7.3,11.6,7.3c8.2,0,12.6-5.3,12.6-13.3v-4c-2.9,3.8-7,5.8-12.5,5.8
				c-4.9,0-9-1.8-12.3-5.5c-3.4-3.7-5-8.2-5-13.7s1.6-10.1,5-13.7c3.4-3.7,7.4-5.5,12.3-5.5c5.4,0,9.6,2,12.6,5.9v-4.9h5.6v35.1
				c0,11.6-7.1,19.1-18.4,19.1c-6.9,0-12.2-2.8-15.8-8.5L1178.4,448.1z M1182.1,434.5c2.3,2.6,5.1,3.8,8.6,3.8s6.4-1.2,8.7-3.8
				c2.3-2.6,3.4-5.8,3.4-9.8c0-4.1-1.2-7.3-3.4-9.9c-2.3-2.6-5.1-3.8-8.7-3.8c-3.5,0-6.3,1.2-8.6,3.8c-2.3,2.6-3.4,5.9-3.4,9.9
				C1178.7,428.6,1179.8,431.9,1182.1,434.5z"/>
			<path fill="#B8B9BA" d="M1228.1,427.5c-7.3-1.7-10.8-5.4-10.8-11c0-3.4,1.3-6.1,3.9-8c2.6-2,5.7-3,9.3-3c5.1,0,9.6,2,13.6,6.2
				l-3.9,4.1c-3.1-3.3-6.5-4.9-10.1-4.9c-4.1,0-7,2.2-7,5.4c0,2.9,1.9,4.8,5.7,5.6l6,1.4c7.3,1.7,10.8,5.3,10.8,10.8
				c0,6.8-5.6,11.5-14.3,11.5c-6.6,0-12.3-3.1-15.4-7.2l3.8-4c3.1,3.9,6.9,5.8,11.5,5.8c5.4,0,8.6-2.2,8.6-5.8c0-2.7-2-4.6-6-5.5
				L1228.1,427.5z"/>
			<path fill="#B8B9BA" d="M1253.5,454.4h-6.2l7.4-18.6h7.3L1253.5,454.4z"/>
			<path fill="#B8B9BA" d="M597.5,513.9c0-7.6,5.7-12,14.1-12c2.8,0,6.3,0.6,10.5,1.9v-3.9c0-5.7-3.8-9-9.4-9c-4.7,0-8.4,2.8-10,6.3
				l-4-3.7c3-5.3,7.7-8,14-8c9.3,0,15.1,5.4,15.1,15v24.2h-5.6v-4c-2.9,3.2-6.8,4.8-11.9,4.8C603.1,525.5,597.5,521.1,597.5,513.9z
				 M610.7,520.3c4.7,0,9-2.7,11.4-6.1v-5.1c-3.7-1.2-7.1-1.9-10.1-1.9c-5.9,0-8.7,2.7-8.7,6.8C603.3,517.8,606.3,520.3,610.7,520.3
				z"/>
			<path fill="#B8B9BA" d="M644,486.4v4.7c2.6-3.4,7.3-5.6,12.1-5.6c9.8,0,15.2,6.1,15.2,16.9v22.2h-5.9v-22.7
				c0-7.1-3.6-11.1-9.8-11.1c-7.5,0-11.5,5.7-11.5,14.8v19h-5.8v-38.2L644,486.4L644,486.4z"/>
			<path fill="#B8B9BA" d="M709.8,491.5V470h5.8v54.7h-5.5v-5.2c-3.5,4.1-7.9,6.1-13.1,6.1c-5.2,0-9.4-2-12.8-5.8
				c-3.4-3.8-5-8.6-5-14.2s1.6-10.4,5-14.2c3.4-3.9,7.6-5.8,12.8-5.8C702.1,485.5,706.4,487.5,709.8,491.5z M685.1,505.5
				c0,4.2,1.1,7.7,3.4,10.5s5.2,4.1,9,4.1s6.9-1.4,9.1-4.1s3.4-6.2,3.4-10.5c0-4.2-1.2-7.7-3.4-10.5c-2.3-2.7-5.3-4.1-9.1-4.1
				s-6.8,1.4-9,4.1C686.2,497.8,685.1,501.3,685.1,505.5z"/>
			<path fill="#B8B9BA" d="M751.2,528.1c2.7,4.8,6.6,7.3,11.6,7.3c8.2,0,12.6-5.3,12.6-13.3v-4c-2.9,3.8-7,5.8-12.5,5.8
				c-4.9,0-9-1.8-12.3-5.5c-3.4-3.7-5-8.2-5-13.7s1.6-10.1,5-13.7c3.4-3.7,7.4-5.5,12.3-5.5c5.4,0,9.6,2,12.6,5.8v-4.9h5.6v35.1
				c0,11.6-7.1,19.1-18.4,19.1c-6.9,0-12.2-2.8-15.8-8.5L751.2,528.1z M754.9,514.5c2.3,2.6,5.1,3.8,8.6,3.8s6.4-1.2,8.7-3.8
				c2.3-2.6,3.4-5.8,3.4-9.8c0-4.1-1.2-7.3-3.4-9.9c-2.3-2.6-5.1-3.8-8.7-3.8c-3.5,0-6.3,1.2-8.6,3.8s-3.4,5.8-3.4,9.9
				C751.5,508.6,752.6,511.9,754.9,514.5z"/>
			<path fill="#B8B9BA" d="M792.5,470.3c1.8-1.6,4.5-1.6,6.2,0c1.8,1.6,1.8,4.4,0,6.2c-1.6,1.6-4.4,1.6-6.2,0
				C790.9,474.7,790.9,472,792.5,470.3z M792.7,524.6v-38.2h5.8v38.2H792.7z"/>
			<path fill="#B8B9BA" d="M840.3,486.4l-14.5,38.2h-6.1l-14.5-38.2h6.3l11.2,31.2l11.2-31.2L840.3,486.4L840.3,486.4z"/>
			<path fill="#B8B9BA" d="M877.7,507.3h-28.5c0.5,8,5.4,12.8,12.9,12.8c4.3,0,7.9-1.9,10.9-5.6l4,3.7c-4.1,4.9-9,7.3-14.9,7.3
				c-5.7,0-10.3-1.8-13.7-5.5s-5.1-8.4-5.1-14.3c0-5.8,1.6-10.6,4.7-14.4c3.2-3.9,7.4-5.8,12.7-5.8c3.9,0,7.2,1,9.8,3
				c5.4,4.1,7.3,9.8,7.3,16.1L877.7,507.3z M849.4,502.2h22.5c-0.5-6.8-4.8-11.2-11.1-11.2C854.4,490.9,850.5,495.5,849.4,502.2z"/>
			<path fill="#B8B9BA" d="M913.4,486.4v4.6c2.2-3.1,6.4-5.5,11-5.5c5.2,0,9,2.1,11.4,6.3c2.9-4.2,6.9-6.3,11.9-6.3
				c9.8,0,14.7,5.6,14.7,16.9v22.2h-5.8v-22.7c0-7.4-3-11.1-8.9-11.1c-6.3,0-9.8,4.6-9.8,12.7v21.1h-5.8v-22.3
				c0-7.6-2.9-11.5-8.6-11.5c-6.6,0-10.1,4.6-10.1,12.7v21.1h-5.8v-38.2L913.4,486.4L913.4,486.4z"/>
			<path fill="#B8B9BA" d="M1004.7,507.3h-28.5c0.5,8,5.4,12.8,12.9,12.8c4.3,0,7.9-1.9,10.9-5.6l4,3.7c-4.1,4.9-9,7.3-14.9,7.3
				c-5.7,0-10.3-1.8-13.7-5.5s-5.1-8.4-5.1-14.3c0-5.8,1.6-10.6,4.7-14.4c3.2-3.9,7.4-5.8,12.7-5.8c3.9,0,7.2,1,9.8,3
				c5.4,4.1,7.3,9.8,7.3,16.1L1004.7,507.3z M976.5,502.2H999c-0.5-6.8-4.8-11.2-11.1-11.2C981.4,490.9,977.5,495.5,976.5,502.2z"/>
			<path fill="#B8B9BA" d="M1033,513.9c0-7.6,5.7-12,14.1-12c2.8,0,6.3,0.6,10.5,1.9v-3.9c0-5.7-3.8-9-9.4-9c-4.7,0-8.4,2.8-10,6.3
				l-4-3.7c3-5.3,7.7-8,14-8c9.3,0,15.1,5.4,15.1,15v24.2h-5.6v-4c-2.9,3.2-6.8,4.8-11.9,4.8C1038.7,525.5,1033,521.1,1033,513.9z
				 M1046.2,520.3c4.7,0,9-2.7,11.4-6.1v-5.1c-3.7-1.2-7.1-1.9-10.1-1.9c-5.9,0-8.7,2.7-8.7,6.8
				C1038.8,517.8,1041.9,520.3,1046.2,520.3z"/>
			<path fill="#B8B9BA" d="M1104.3,507.5c-7.3-1.7-10.8-5.4-10.8-11c0-3.4,1.3-6.1,3.9-8s5.7-3,9.3-3c5.1,0,9.6,2,13.6,6.2l-3.9,4.1
				c-3.1-3.3-6.5-4.9-10.1-4.9c-4.1,0-7,2.2-7,5.4c0,2.9,1.9,4.8,5.7,5.6l6,1.4c7.3,1.7,10.8,5.3,10.8,10.8
				c0,6.8-5.6,11.5-14.3,11.5c-6.6,0-12.3-3.1-15.4-7.2l3.8-4c3.1,3.9,6.9,5.9,11.5,5.9c5.4,0,8.6-2.2,8.6-5.9c0-2.7-2-4.6-6-5.5
				L1104.3,507.5z"/>
			<path fill="#B8B9BA" d="M1135.9,469.9V491c2.6-3.4,7.2-5.5,11.9-5.5c9.8,0,15.2,6.1,15.2,16.9v22.2h-5.9v-22.7
				c0-7.1-3.6-11.1-9.8-11.1c-7.5,0-11.5,5.7-11.5,14.8v19h-5.8v-54.7L1135.9,469.9L1135.9,469.9z"/>
			<path fill="#B8B9BA" d="M1175.1,519.7c-3.7-3.9-5.5-8.7-5.5-14.2s1.8-10.3,5.5-14.2c3.7-3.9,8.3-5.8,13.7-5.8
				c5.5,0,10.1,2,13.7,5.8c3.7,3.9,5.6,8.7,5.6,14.2s-1.9,10.3-5.5,14.2c-3.7,3.8-8.3,5.8-13.8,5.8
				C1183.4,525.5,1178.8,523.5,1175.1,519.7z M1198.4,516c2.5-2.8,3.7-6.3,3.7-10.5c0-4.1-1.2-7.6-3.7-10.4s-5.7-4.2-9.6-4.2
				c-3.8,0-7,1.4-9.5,4.2c-2.5,2.7-3.7,6.2-3.7,10.4c0,4.1,1.2,7.6,3.7,10.5c2.5,2.7,5.7,4.1,9.5,4.1
				C1192.7,520.1,1195.9,518.7,1198.4,516z"/>
			<path fill="#B8B9BA" d="M1241.8,524.6v-4.8c-3,3.8-7,5.7-12.1,5.7c-9.6,0-14.4-5.6-14.4-16.8v-22.2h5.8V509
				c0,7.3,3.2,11.2,9.4,11.2c7.4,0,11.1-5.4,11.1-14.7v-19h5.8v38.2h-5.6V524.6z"/>
			<path fill="#B8B9BA" d="M1259.2,513.4v-21.7h-6.2v-5.3h6.2v-10.7h5.8v10.7h8.9v5.3h-8.9v20.8c0,5,1.2,6.9,5.9,6.9l3-0.1v5.2
				c-1,0.1-2.3,0.2-3.6,0.2C1262.8,524.8,1259.2,521.6,1259.2,513.4z"/>
			<path fill="#B8B9BA" d="M599.6,550.3c1.8-1.6,4.5-1.6,6.2,0c1.8,1.6,1.8,4.4,0,6.2c-1.6,1.6-4.4,1.6-6.2,0
				C598,554.7,598,552,599.6,550.3z M599.8,604.6v-38.2h5.8v38.2H599.8z"/>
			<path fill="#B8B9BA" d="M633.7,550v5.2h-2c-5.7,0-7.7,2.6-7.7,8.3v2.9h8.9v5.3H624v32.9h-5.8v-32.9H612v-5.3h6.2v-2.9
				c0-9.4,4.6-13.6,13.4-13.6L633.7,550z"/>
			<path fill="#B8B9BA" d="M673.9,619.8h-6.3l5.8-14.7l-15.8-38.7h6.5l12.6,31.7l12.3-31.7h6.4L673.9,619.8z"/>
			<path fill="#B8B9BA" d="M702.8,599.7c-3.7-3.9-5.5-8.7-5.5-14.2s1.8-10.3,5.5-14.2s8.3-5.8,13.7-5.8c5.5,0,10.1,2,13.7,5.8
				c3.7,3.9,5.6,8.7,5.6,14.2s-1.9,10.3-5.5,14.2c-3.7,3.8-8.3,5.8-13.8,5.8C711.1,605.5,706.5,603.5,702.8,599.7z M726.1,596
				c2.5-2.8,3.7-6.3,3.7-10.5c0-4.1-1.2-7.6-3.7-10.4c-2.5-2.8-5.7-4.2-9.6-4.2c-3.8,0-7,1.4-9.5,4.2c-2.5,2.7-3.7,6.2-3.7,10.4
				c0,4.1,1.2,7.6,3.7,10.5c2.5,2.7,5.7,4.1,9.5,4.1C720.4,600.1,723.6,598.7,726.1,596z"/>
			<path fill="#B8B9BA" d="M769.5,604.6v-4.8c-3,3.8-7,5.7-12.1,5.7c-9.6,0-14.4-5.6-14.4-16.8v-22.2h5.8V589
				c0,7.3,3.2,11.2,9.4,11.2c7.4,0,11.1-5.4,11.1-14.7v-19h5.8v38.2h-5.6V604.6z"/>
			<path fill="#B8B9BA" d="M810.6,608.1c2.7,4.8,6.6,7.3,11.6,7.3c8.2,0,12.6-5.3,12.6-13.3v-4c-2.9,3.8-7,5.8-12.5,5.8
				c-4.9,0-9-1.8-12.3-5.5s-5-8.2-5-13.7s1.6-10.1,5-13.7s7.4-5.5,12.3-5.5c5.4,0,9.6,2,12.6,5.8v-4.9h5.6v35.1
				c0,11.6-7.1,19.1-18.4,19.1c-6.9,0-12.2-2.8-15.8-8.5L810.6,608.1z M814.3,594.5c2.3,2.6,5.1,3.8,8.6,3.8s6.4-1.2,8.7-3.8
				s3.4-5.8,3.4-9.8c0-4.1-1.2-7.3-3.4-9.9c-2.3-2.6-5.1-3.8-8.7-3.8s-6.3,1.2-8.6,3.8s-3.4,5.8-3.4,9.9
				C811,588.6,812.1,591.9,814.3,594.5z"/>
			<path fill="#B8B9BA" d="M883.4,587.3h-28.5c0.5,8,5.4,12.8,12.9,12.8c4.3,0,7.9-1.9,10.9-5.6l4,3.7c-4.1,4.9-9,7.3-14.9,7.3
				c-5.7,0-10.3-1.8-13.7-5.5s-5.1-8.4-5.1-14.3c0-5.8,1.6-10.6,4.7-14.4c3.2-3.9,7.4-5.8,12.7-5.8c3.9,0,7.2,1,9.8,3
				c5.4,4.1,7.3,9.8,7.3,16.1L883.4,587.3z M855.1,582.2h22.5c-0.5-6.8-4.8-11.2-11.1-11.2C860,570.9,856.1,575.5,855.1,582.2z"/>
			<path fill="#B8B9BA" d="M892.7,593.4v-21.7h-6.2v-5.3h6.2v-10.7h5.8v10.7h8.9v5.3h-8.9v20.8c0,5,1.2,6.9,5.8,6.9l3-0.1v5.2
				c-1,0.1-2.3,0.2-3.6,0.2C896.3,604.8,892.7,601.6,892.7,593.4z"/>
			<path fill="#B8B9BA" d="M946.5,587.5c-7.3-1.7-10.8-5.4-10.8-11c0-3.4,1.3-6.1,3.9-8s5.7-3,9.3-3c5.1,0,9.6,2,13.6,6.2l-3.9,4.1
				c-3.1-3.3-6.5-4.9-10.1-4.9c-4.1,0-7,2.2-7,5.4c0,2.9,1.9,4.8,5.7,5.6l6,1.4c7.3,1.7,10.8,5.3,10.8,10.8
				c0,6.8-5.6,11.5-14.3,11.5c-6.6,0-12.3-3.1-15.4-7.2l3.8-4c3.1,3.9,6.9,5.9,11.5,5.9c5.4,0,8.6-2.2,8.6-5.9c0-2.7-2-4.6-6-5.5
				L946.5,587.5z"/>
			<path fill="#B8B9BA" d="M973.7,593.4v-21.7h-6.2v-5.3h6.2v-10.7h5.8v10.7h8.9v5.3h-8.9v20.8c0,5,1.2,6.9,5.9,6.9l3-0.1v5.2
				c-1,0.1-2.3,0.2-3.6,0.2C977.3,604.8,973.7,601.6,973.7,593.4z"/>
			<path fill="#B8B9BA" d="M1021.5,604.6v-4.8c-3,3.8-7,5.7-12.1,5.7c-9.6,0-14.4-5.6-14.4-16.8v-22.2h5.8V589
				c0,7.3,3.2,11.2,9.4,11.2c7.4,0,11.1-5.4,11.1-14.7v-19h5.8v38.2h-5.6V604.6z"/>
			<path fill="#B8B9BA" d="M1069.9,598.2c-4.1,4.9-9.1,7.3-15.3,7.3c-5.5,0-10.1-2-13.7-5.8c-3.7-3.9-5.5-8.7-5.5-14.2
				s1.9-10.2,5.6-14.1c3.8-4,8.4-5.9,13.8-5.9c5.8,0,10.5,2.3,14.3,6.8l-3.9,3.8c-2.9-3.4-6.3-5.1-10.4-5.1c-3.9,0-7.1,1.4-9.7,4.2
				c-2.6,2.7-3.8,6.2-3.8,10.4c0,8.5,5.2,14.6,13.7,14.6c4.3,0,8-1.9,10.8-5.6L1069.9,598.2z"/>
			<path fill="#B8B9BA" d="M1077.4,604.6v-54.7h5.8v36l17.7-19.6h7.6l-14.9,16.1l15.8,22.1h-7.4l-12.5-17.6l-6.2,6.8v10.8h-5.9
				V604.6z"/>
			<path fill="#B8B9BA" d="M1125.6,600.9c0,2.6-2,4.6-4.8,4.6c-2.6,0-4.6-2-4.6-4.6s2-4.7,4.6-4.7
				C1123.6,596.2,1125.6,598.2,1125.6,600.9z"/>
			<path fill="#B8B9BA" d="M633.1,685.5c-5.2,0-9.4-2-12.8-5.8c-3.4-3.8-5-8.6-5-14.2s1.6-10.4,5-14.2c3.4-3.9,7.6-5.8,12.8-5.8
				c5.1,0,9.4,2,12.9,6v-5.1h5.8v28.2c0,3.7,1.3,5.6,4,5.6s4.8-1.6,6.5-5s2.4-7.1,2.4-11.2c0-8.5-2.6-15.6-7.6-21.2
				s-12.2-8.4-21.5-8.4c-9,0-16.5,2.9-22.2,8.7c-5.7,5.9-8.5,13.1-8.5,21.8s3,15.9,8.8,21.7c5.9,5.9,13.7,8.7,23.2,8.7
				c5.2,0,10.2-0.9,15-2.8v5.5c-4.5,1.8-9.5,2.7-15,2.7c-11,0-20-3.4-27.1-10.3c-6.9-6.9-10.5-15.4-10.5-25.4
				c-0.5-19.4,15.1-36.1,36.2-35.8c7.3,0,13.5,1.6,18.9,4.8c10.7,6.5,16,17.3,16,30.1c0,6.2-1.5,11.4-4.4,15.4s-6.5,6-10.6,6
				c-4.3,0-7.1-2.7-8.3-6.6C643.6,683.1,638.5,685.5,633.1,685.5z M642.7,676c2.3-2.8,3.4-6.3,3.4-10.5s-1.2-7.7-3.4-10.5
				c-2.3-2.7-5.3-4.1-9.1-4.1s-6.8,1.4-9,4.1c-2.3,2.7-3.4,6.2-3.4,10.5c0,4.2,1.1,7.7,3.4,10.5c2.3,2.7,5.3,4.1,9,4.1
				C637.4,680.2,640.5,678.8,642.7,676z"/>
			<path fill="#B8B9BA" d="M700.7,651.5c-0.4-0.1-0.9-0.1-1.3-0.1c-9,0-12.7,4.5-12.7,16.9v16.3h-5.8v-38.2h5.6v5.1
				c3.4-4.1,6.9-5.6,12.5-5.6c0.5,0,1.2,0,1.7,0.1V651.5z"/>
			<path fill="#B8B9BA" d="M709.7,679.7c-3.7-3.9-5.5-8.7-5.5-14.2s1.8-10.3,5.5-14.2s8.3-5.8,13.7-5.8c5.5,0,10.1,2,13.7,5.8
				c3.7,3.9,5.6,8.7,5.6,14.2s-1.9,10.3-5.5,14.2c-3.7,3.8-8.3,5.8-13.8,5.8S713.3,683.5,709.7,679.7z M733,676
				c2.5-2.8,3.7-6.3,3.7-10.5c0-4.1-1.2-7.6-3.7-10.4c-2.5-2.8-5.7-4.2-9.6-4.2c-3.8,0-7,1.4-9.5,4.2c-2.5,2.7-3.7,6.2-3.7,10.4
				c0,4.1,1.2,7.6,3.7,10.5c2.5,2.7,5.7,4.1,9.5,4.1C727.3,680.1,730.5,678.7,733,676z"/>
			<path fill="#B8B9BA" d="M756.7,684.6h-5.6v-54.7h5.8v21.5c3.4-4,7.7-6,12.9-6s9.4,2,12.8,5.8c3.4,3.8,5,8.6,5,14.2
				s-1.6,10.4-5,14.2s-7.6,5.8-12.8,5.8s-9.5-2-13-6.1v5.3H756.7z M781.6,665.5c0-4.2-1.1-7.7-3.4-10.5c-2.3-2.7-5.2-4.1-9-4.1
				s-6.9,1.4-9.1,4.1c-2.3,2.7-3.4,6.2-3.4,10.5c0,4.2,1.1,7.7,3.4,10.5c2.3,2.7,5.3,4.1,9.1,4.1s6.8-1.4,9-4.1
				S781.6,669.7,781.6,665.5z"/>
			<path fill="#B8B9BA" d="M800,679.7c-3.7-3.9-5.5-8.7-5.5-14.2s1.8-10.3,5.5-14.2s8.3-5.8,13.7-5.8c5.5,0,10.1,2,13.7,5.8
				c3.7,3.9,5.6,8.7,5.6,14.2s-1.9,10.3-5.5,14.2c-3.7,3.8-8.3,5.8-13.8,5.8C808.3,685.5,803.7,683.5,800,679.7z M823.3,676
				c2.5-2.8,3.7-6.3,3.7-10.5c0-4.1-1.2-7.6-3.7-10.4c-2.5-2.8-5.7-4.2-9.6-4.2c-3.8,0-7,1.4-9.5,4.2c-2.5,2.7-3.7,6.2-3.7,10.4
				c0,4.1,1.2,7.6,3.7,10.5c2.5,2.7,5.7,4.1,9.5,4.1C817.6,680.1,820.8,678.7,823.3,676z"/>
			<path fill="#B8B9BA" d="M842.3,673.4v-21.7h-6.2v-5.3h6.2v-10.7h5.8v10.7h8.9v5.3h-8.9v20.8c0,5,1.2,6.9,5.8,6.9l3-0.1v5.2
				c-1,0.1-2.3,0.2-3.6,0.2C845.9,684.8,842.3,681.6,842.3,673.4z"/>
			<path fill="#B8B9BA" d="M897.1,678.2c-4.1,4.9-9.1,7.3-15.3,7.3c-5.5,0-10.1-2-13.7-5.8c-3.7-3.9-5.5-8.7-5.5-14.2
				s1.9-10.2,5.6-14.1c3.8-4,8.4-5.9,13.8-5.9c5.8,0,10.5,2.3,14.3,6.8l-3.9,3.8c-2.9-3.4-6.3-5.1-10.4-5.1c-3.9,0-7.1,1.4-9.7,4.2
				c-2.6,2.7-3.8,6.2-3.8,10.4c0,8.5,5.2,14.6,13.7,14.6c4.3,0,8-1.9,10.8-5.6L897.1,678.2z"/>
			<path fill="#B8B9BA" d="M906.9,679.7c-3.7-3.9-5.5-8.7-5.5-14.2s1.8-10.3,5.5-14.2s8.3-5.8,13.7-5.8c5.5,0,10.1,2,13.7,5.8
				c3.7,3.9,5.6,8.7,5.6,14.2s-1.9,10.3-5.5,14.2c-3.7,3.8-8.3,5.8-13.8,5.8C915.2,685.5,910.6,683.5,906.9,679.7z M930.2,676
				c2.5-2.8,3.7-6.3,3.7-10.5c0-4.1-1.2-7.6-3.7-10.4c-2.5-2.8-5.7-4.2-9.6-4.2c-3.8,0-7,1.4-9.5,4.2c-2.5,2.7-3.7,6.2-3.7,10.4
				c0,4.1,1.2,7.6,3.7,10.5c2.5,2.7,5.7,4.1,9.5,4.1C924.6,680.1,927.8,678.7,930.2,676z"/>
			<path fill="#B8B9BA" d="M954,646.4v4.7c2.6-3.4,7.3-5.6,12.1-5.6c9.8,0,15.2,6.1,15.2,16.9v22.2h-5.8v-22.7
				c0-7.1-3.6-11.1-9.8-11.1c-7.5,0-11.5,5.7-11.5,14.8v19h-5.8v-38.2L954,646.4L954,646.4z"/>
			<path fill="#B8B9BA" d="M1000.5,667.5c-7.3-1.7-10.8-5.4-10.8-11c0-3.4,1.3-6.1,3.9-8s5.7-3,9.3-3c5.1,0,9.6,2,13.6,6.2l-3.9,4.1
				c-3.1-3.3-6.5-4.9-10.1-4.9c-4.1,0-7,2.2-7,5.4c0,2.9,1.9,4.8,5.7,5.6l6,1.4c7.3,1.7,10.8,5.3,10.8,10.8
				c0,6.8-5.6,11.5-14.3,11.5c-6.6,0-12.3-3.1-15.4-7.2l3.8-4c3.1,3.9,6.9,5.9,11.5,5.9c5.4,0,8.6-2.2,8.6-5.9c0-2.7-2-4.6-6-5.5
				L1000.5,667.5z"/>
			<path fill="#B8B9BA" d="M1058.6,678.2c-4.1,4.9-9.1,7.3-15.3,7.3c-5.5,0-10.1-2-13.7-5.8c-3.7-3.9-5.5-8.7-5.5-14.2
				s1.9-10.2,5.6-14.1c3.8-4,8.4-5.9,13.8-5.9c5.8,0,10.5,2.3,14.3,6.8l-3.9,3.8c-2.9-3.4-6.3-5.1-10.4-5.1c-3.9,0-7.1,1.4-9.7,4.2
				c-2.6,2.7-3.8,6.2-3.8,10.4c0,8.5,5.2,14.6,13.7,14.6c4.3,0,8-1.9,10.8-5.6L1058.6,678.2z"/>
			<path fill="#B8B9BA" d="M1066.4,630.3c1.8-1.6,4.5-1.6,6.2,0c1.8,1.6,1.8,4.4,0,6.2c-1.6,1.6-4.4,1.6-6.2,0
				C1064.7,634.7,1064.7,632,1066.4,630.3z M1066.6,684.6v-38.2h5.8v38.2H1066.6z"/>
			<path fill="#B8B9BA" d="M1115.7,667.3h-28.5c0.5,8,5.4,12.8,12.9,12.8c4.3,0,7.9-1.9,10.9-5.6l4,3.7c-4.1,4.9-9,7.3-14.9,7.3
				c-5.7,0-10.3-1.8-13.7-5.5c-3.4-3.7-5.1-8.4-5.1-14.3c0-5.8,1.6-10.6,4.7-14.4c3.2-3.9,7.4-5.8,12.7-5.8c3.9,0,7.2,1,9.8,3
				c5.4,4.1,7.3,9.8,7.3,16.1L1115.7,667.3z M1087.5,662.2h22.5c-0.5-6.8-4.8-11.2-11.1-11.2
				C1092.4,650.9,1088.5,655.5,1087.5,662.2z"/>
			<path fill="#B8B9BA" d="M1129.8,646.4v4.7c2.6-3.4,7.3-5.6,12.1-5.6c9.8,0,15.2,6.1,15.2,16.9v22.2h-5.8v-22.7
				c0-7.1-3.6-11.1-9.8-11.1c-7.5,0-11.5,5.7-11.5,14.8v19h-5.8v-38.2L1129.8,646.4L1129.8,646.4z"/>
			<path fill="#B8B9BA" d="M1199.4,678.2c-4.1,4.9-9.1,7.3-15.3,7.3c-5.5,0-10.1-2-13.7-5.8c-3.7-3.9-5.5-8.7-5.5-14.2
				s1.9-10.2,5.6-14.1c3.8-4,8.4-5.9,13.8-5.9c5.8,0,10.5,2.3,14.3,6.8l-3.9,3.8c-2.9-3.4-6.3-5.1-10.4-5.1c-3.9,0-7.1,1.4-9.7,4.2
				c-2.6,2.7-3.8,6.2-3.8,10.4c0,8.5,5.2,14.6,13.7,14.6c4.3,0,8-1.9,10.8-5.6L1199.4,678.2z"/>
			<path fill="#B8B9BA" d="M1238.2,667.3h-28.5c0.5,8,5.4,12.8,12.9,12.8c4.3,0,7.9-1.9,10.9-5.6l4,3.7c-4.1,4.9-9,7.3-14.9,7.3
				c-5.7,0-10.3-1.8-13.7-5.5c-3.4-3.7-5.1-8.4-5.1-14.3c0-5.8,1.6-10.6,4.7-14.4c3.2-3.9,7.4-5.8,12.7-5.8c3.9,0,7.2,1,9.8,3
				c5.4,4.1,7.3,9.8,7.3,16.1L1238.2,667.3z M1210,662.2h22.5c-0.5-6.8-4.8-11.2-11.1-11.2C1214.9,650.9,1211,655.5,1210,662.2z"/>
		</g>
		<g>
			<path fill="#64ABCC" d="M595.2,309.9h42.9v10.7h-15.7v44h-11.5v-44h-15.7V309.9z"/>
			<path fill="#64ABCC" d="M657.1,364.6H646v-54.7h11.1v18.6c2.3-2.1,5.2-3.1,8.9-3.1c9.4,0,15.6,6.2,15.6,16.9v22.2h-11.2v-21.4
				c0-4.4-2-7.5-6.3-7.5c-4.7,0-7,3.3-7,9.8V364.6z"/>
			<path fill="#64ABCC" d="M689,353.4c0-4,1.5-7,4.4-9.1s6.5-3.2,10.8-3.2c2.6,0,5.1,0.4,7.6,1.1v-0.6c0-3.7-2.4-6.2-6.4-6.2
				c-3.5,0-6.2,1.5-8.2,4.4l-7-6.7c4.2-5.1,9.5-7.6,16-7.6c4.8,0,8.8,1.4,12,4.1s4.8,6.4,4.8,11.2v23.9h-11v-2.5
				c-2.6,2.3-5.8,3.4-9.7,3.4C694.1,365.5,689,360.5,689,353.4z M704.9,356.1c2.5,0,4.8-0.8,6.9-2.3v-4.4c-2-0.5-3.7-0.7-5.1-0.7
				c-4.1,0-6.5,1.6-6.5,4C700.2,354.6,702.1,356.1,704.9,356.1z"/>
			<path fill="#64ABCC" d="M734,351.1v-14.5h-5v-10.2h5v-10.7h11v10.7h8.5v10.2H745v13.2c0,3.7,1.6,4.7,5.1,4.7h3.3v10.1
				c-2,0.1-4,0.2-6,0.2C738.4,364.8,734,360.3,734,351.1z"/>
			<path fill="#64ABCC" d="M766.5,309.9h11.9l-8.5,18.3h-10.8L766.5,309.9z"/>
			<path fill="#64ABCC" d="M793,350c-8.3-2.1-12.5-6.2-12.5-12.5c0-3.7,1.4-6.6,4.3-8.7c2.9-2.3,6.4-3.4,10.5-3.4
				c5.8,0,10.9,2,15.4,6l-6.8,7.2c-3-2.5-6-3.7-9-3.7c-2.2,0-3.6,1-3.6,2.3c0,0.9,0.9,1.6,2.7,2l5.7,1.3c8.3,2,12.6,6.2,12.6,12.6
				c0,7.3-6.2,12.3-16,12.3c-7.1,0-13.6-3.4-16.8-7.4l6.8-6.9c3.4,3.4,7.1,5.1,10.9,5.1c2.3,0,4.3-1,4.3-2.5c0-1-1.2-1.9-3.4-2.4
				L793,350z"/>
			<path fill="#64ABCC" d="M849.1,309.1c3.7,0,6.5,2.8,6.5,6.5c0,3.5-3,6.4-6.5,6.4s-6.4-2.9-6.4-6.4
				C842.7,311.9,845.6,309.1,849.1,309.1z M843.6,364.6v-38.2h11.2v38.2H843.6z"/>
			<path fill="#64ABCC" d="M867.1,351.1v-14.5h-5v-10.2h5v-10.7h11v10.7h8.5v10.2h-8.5v13.2c0,3.7,1.6,4.7,5.1,4.7h3.3v10.1
				c-1.9,0.1-4,0.2-6,0.2C871.6,364.8,867.1,360.3,867.1,351.1z"/>
			<path fill="#64ABCC" d="M899,353.9c2.6-2.6,6.9-2.6,9.5,0c2.7,2.6,2.7,6.9,0,9.5c-2.6,2.6-6.9,2.6-9.5,0
				C896.5,360.9,896.5,356.5,899,353.9z"/>
			<path fill="#B8B9BA" d="M634.9,444.6v-25h-29.7v25h-5.9v-54.7h5.9v24h29.7v-24h5.9v54.7H634.9z"/>
			<path fill="#B8B9BA" d="M649.2,433.9c0-7.6,5.7-12,14.1-12c2.8,0,6.3,0.6,10.5,1.9v-3.9c0-5.7-3.8-9-9.4-9c-4.7,0-8.4,2.8-10,6.3
				l-4-3.7c3-5.3,7.7-8,14-8c9.3,0,15.1,5.4,15.1,15v24.2h-5.6v-4c-2.9,3.2-6.8,4.8-11.9,4.8C654.8,445.5,649.2,441.1,649.2,433.9z
				 M662.4,440.3c4.7,0,9-2.7,11.4-6.1v-5.1c-3.7-1.2-7.1-1.9-10.1-1.9c-5.8,0-8.7,2.7-8.7,6.8C655,437.8,658,440.3,662.4,440.3z"/>
			<path fill="#B8B9BA" d="M718.9,406.4l-14.5,38.2h-6.1l-14.5-38.2h6.3l11.2,31.2l11.2-31.2H718.9z"/>
			<path fill="#B8B9BA" d="M756.3,427.3h-28.5c0.5,8,5.4,12.8,12.9,12.8c4.3,0,7.9-1.9,10.9-5.6l4,3.7c-4.1,4.9-9,7.3-14.9,7.3
				c-5.7,0-10.3-1.8-13.7-5.5s-5.1-8.4-5.1-14.3c0-5.8,1.6-10.6,4.7-14.4c3.2-3.9,7.4-5.9,12.7-5.9c3.9,0,7.2,1,9.8,3
				c5.4,4.1,7.3,9.8,7.3,16.1L756.3,427.3z M728.1,422.2h22.5c-0.5-6.8-4.8-11.2-11.1-11.2C733,410.9,729.1,415.5,728.1,422.2z"/>
			<path fill="#B8B9BA" d="M803.7,390v5.2h-2c-5.7,0-7.7,2.6-7.7,8.3v2.9h8.9v5.3H794v32.9h-5.8v-32.9H782v-5.3h6.2v-2.9
				c0-9.4,4.6-13.6,13.4-13.6L803.7,390z"/>
			<path fill="#B8B9BA" d="M835.6,444.6v-4.8c-3,3.8-7,5.7-12.1,5.7c-9.6,0-14.4-5.6-14.4-16.8v-22.2h5.8V429
				c0,7.3,3.2,11.2,9.4,11.2c7.4,0,11.1-5.4,11.1-14.7v-19h5.8v38.2h-5.6V444.6z"/>
			<path fill="#B8B9BA" d="M857.8,406.4v4.7c2.6-3.4,7.3-5.6,12.1-5.6c9.8,0,15.2,6.1,15.2,16.9v22.2h-5.8v-22.7
				c0-7.1-3.6-11.1-9.8-11.1c-7.5,0-11.5,5.7-11.5,14.8v19h-5.8v-38.2L857.8,406.4L857.8,406.4z"/>
			<path fill="#B8B9BA" d="M895.6,454.4h-6.2l7.4-18.6h7.3L895.6,454.4z"/>
			<path fill="#B8B9BA" d="M936.8,433.4v-21.7h-6.2v-5.3h6.2v-10.7h5.8v10.7h8.9v5.3h-8.9v20.8c0,5,1.2,6.9,5.8,6.9l3-0.1v5.2
				c-1,0.1-2.3,0.2-3.6,0.2C940.4,444.8,936.8,441.6,936.8,433.4z"/>
			<path fill="#B8B9BA" d="M979.2,411.5c-0.4-0.1-0.9-0.1-1.3-0.1c-9,0-12.7,4.5-12.7,16.9v16.3h-5.8v-38.2h5.6v5.1
				c3.4-4.1,6.9-5.6,12.5-5.6c0.5,0,1.2,0,1.7,0.1V411.5z"/>
			<path fill="#B8B9BA" d="M998.5,459.8h-6.3l5.8-14.7l-15.8-38.7h6.5l12.6,31.7l12.3-31.7h6.4L998.5,459.8z"/>
			<path fill="#B8B9BA" d="M1049.4,433.4v-21.7h-6.2v-5.3h6.2v-10.7h5.8v10.7h8.9v5.3h-8.9v20.8c0,5,1.2,6.9,5.8,6.9l3-0.1v5.2
				c-1,0.1-2.3,0.2-3.6,0.2C1053,444.8,1049.4,441.6,1049.4,433.4z"/>
			<path fill="#B8B9BA" d="M1077.7,389.9V411c2.6-3.4,7.2-5.5,11.9-5.5c9.8,0,15.2,6.1,15.2,16.9v22.2h-5.9v-22.7
				c0-7.1-3.6-11.1-9.8-11.1c-7.5,0-11.5,5.7-11.5,14.8v19h-5.8v-54.7L1077.7,389.9L1077.7,389.9z"/>
			<path fill="#B8B9BA" d="M1114.4,390.3c1.8-1.6,4.5-1.6,6.2,0c1.8,1.6,1.8,4.4,0,6.2c-1.6,1.6-4.4,1.6-6.2,0
				C1112.8,394.7,1112.8,392,1114.4,390.3z M1114.6,444.6v-38.2h5.8v38.2H1114.6z"/>
			<path fill="#B8B9BA" d="M1137.6,406.4v4.7c2.6-3.4,7.3-5.6,12.1-5.6c9.8,0,15.2,6.1,15.2,16.9v22.2h-5.8v-22.7
				c0-7.1-3.6-11.1-9.8-11.1c-7.5,0-11.5,5.7-11.5,14.8v19h-5.8v-38.2L1137.6,406.4L1137.6,406.4z"/>
			<path fill="#B8B9BA" d="M1178.4,448.1c2.7,4.8,6.6,7.3,11.6,7.3c8.2,0,12.6-5.3,12.6-13.3v-4c-2.9,3.8-7,5.8-12.5,5.8
				c-4.9,0-9-1.8-12.3-5.5c-3.4-3.7-5-8.2-5-13.7s1.6-10.1,5-13.7c3.4-3.7,7.4-5.5,12.3-5.5c5.4,0,9.6,2,12.6,5.9v-4.9h5.6v35.1
				c0,11.6-7.1,19.1-18.4,19.1c-6.9,0-12.2-2.8-15.8-8.5L1178.4,448.1z M1182.1,434.5c2.3,2.6,5.1,3.8,8.6,3.8s6.4-1.2,8.7-3.8
				c2.3-2.6,3.4-5.8,3.4-9.8c0-4.1-1.2-7.3-3.4-9.9c-2.3-2.6-5.1-3.8-8.7-3.8c-3.5,0-6.3,1.2-8.6,3.8c-2.3,2.6-3.4,5.9-3.4,9.9
				C1178.7,428.6,1179.8,431.9,1182.1,434.5z"/>
			<path fill="#B8B9BA" d="M1228.1,427.5c-7.3-1.7-10.8-5.4-10.8-11c0-3.4,1.3-6.1,3.9-8c2.6-2,5.7-3,9.3-3c5.1,0,9.6,2,13.6,6.2
				l-3.9,4.1c-3.1-3.3-6.5-4.9-10.1-4.9c-4.1,0-7,2.2-7,5.4c0,2.9,1.9,4.8,5.7,5.6l6,1.4c7.3,1.7,10.8,5.3,10.8,10.8
				c0,6.8-5.6,11.5-14.3,11.5c-6.6,0-12.3-3.1-15.4-7.2l3.8-4c3.1,3.9,6.9,5.8,11.5,5.8c5.4,0,8.6-2.2,8.6-5.8c0-2.7-2-4.6-6-5.5
				L1228.1,427.5z"/>
			<path fill="#B8B9BA" d="M1253.5,454.4h-6.2l7.4-18.6h7.3L1253.5,454.4z"/>
			<path fill="#B8B9BA" d="M597.5,513.9c0-7.6,5.7-12,14.1-12c2.8,0,6.3,0.6,10.5,1.9v-3.9c0-5.7-3.8-9-9.4-9c-4.7,0-8.4,2.8-10,6.3
				l-4-3.7c3-5.3,7.7-8,14-8c9.3,0,15.1,5.4,15.1,15v24.2h-5.6v-4c-2.9,3.2-6.8,4.8-11.9,4.8C603.1,525.5,597.5,521.1,597.5,513.9z
				 M610.7,520.3c4.7,0,9-2.7,11.4-6.1v-5.1c-3.7-1.2-7.1-1.9-10.1-1.9c-5.9,0-8.7,2.7-8.7,6.8C603.3,517.8,606.3,520.3,610.7,520.3
				z"/>
			<path fill="#B8B9BA" d="M644,486.4v4.7c2.6-3.4,7.3-5.6,12.1-5.6c9.8,0,15.2,6.1,15.2,16.9v22.2h-5.9v-22.7
				c0-7.1-3.6-11.1-9.8-11.1c-7.5,0-11.5,5.7-11.5,14.8v19h-5.8v-38.2L644,486.4L644,486.4z"/>
			<path fill="#B8B9BA" d="M709.8,491.5V470h5.8v54.7h-5.5v-5.2c-3.5,4.1-7.9,6.1-13.1,6.1c-5.2,0-9.4-2-12.8-5.8
				c-3.4-3.8-5-8.6-5-14.2s1.6-10.4,5-14.2c3.4-3.9,7.6-5.8,12.8-5.8C702.1,485.5,706.4,487.5,709.8,491.5z M685.1,505.5
				c0,4.2,1.1,7.7,3.4,10.5s5.2,4.1,9,4.1s6.9-1.4,9.1-4.1s3.4-6.2,3.4-10.5c0-4.2-1.2-7.7-3.4-10.5c-2.3-2.7-5.3-4.1-9.1-4.1
				s-6.8,1.4-9,4.1C686.2,497.8,685.1,501.3,685.1,505.5z"/>
			<path fill="#B8B9BA" d="M751.2,528.1c2.7,4.8,6.6,7.3,11.6,7.3c8.2,0,12.6-5.3,12.6-13.3v-4c-2.9,3.8-7,5.8-12.5,5.8
				c-4.9,0-9-1.8-12.3-5.5c-3.4-3.7-5-8.2-5-13.7s1.6-10.1,5-13.7c3.4-3.7,7.4-5.5,12.3-5.5c5.4,0,9.6,2,12.6,5.8v-4.9h5.6v35.1
				c0,11.6-7.1,19.1-18.4,19.1c-6.9,0-12.2-2.8-15.8-8.5L751.2,528.1z M754.9,514.5c2.3,2.6,5.1,3.8,8.6,3.8s6.4-1.2,8.7-3.8
				c2.3-2.6,3.4-5.8,3.4-9.8c0-4.1-1.2-7.3-3.4-9.9c-2.3-2.6-5.1-3.8-8.7-3.8c-3.5,0-6.3,1.2-8.6,3.8s-3.4,5.8-3.4,9.9
				C751.5,508.6,752.6,511.9,754.9,514.5z"/>
			<path fill="#B8B9BA" d="M792.5,470.3c1.8-1.6,4.5-1.6,6.2,0c1.8,1.6,1.8,4.4,0,6.2c-1.6,1.6-4.4,1.6-6.2,0
				C790.9,474.7,790.9,472,792.5,470.3z M792.7,524.6v-38.2h5.8v38.2H792.7z"/>
			<path fill="#B8B9BA" d="M840.3,486.4l-14.5,38.2h-6.1l-14.5-38.2h6.3l11.2,31.2l11.2-31.2L840.3,486.4L840.3,486.4z"/>
			<path fill="#B8B9BA" d="M877.7,507.3h-28.5c0.5,8,5.4,12.8,12.9,12.8c4.3,0,7.9-1.9,10.9-5.6l4,3.7c-4.1,4.9-9,7.3-14.9,7.3
				c-5.7,0-10.3-1.8-13.7-5.5s-5.1-8.4-5.1-14.3c0-5.8,1.6-10.6,4.7-14.4c3.2-3.9,7.4-5.8,12.7-5.8c3.9,0,7.2,1,9.8,3
				c5.4,4.1,7.3,9.8,7.3,16.1L877.7,507.3z M849.4,502.2h22.5c-0.5-6.8-4.8-11.2-11.1-11.2C854.4,490.9,850.5,495.5,849.4,502.2z"/>
			<path fill="#B8B9BA" d="M913.4,486.4v4.6c2.2-3.1,6.4-5.5,11-5.5c5.2,0,9,2.1,11.4,6.3c2.9-4.2,6.9-6.3,11.9-6.3
				c9.8,0,14.7,5.6,14.7,16.9v22.2h-5.8v-22.7c0-7.4-3-11.1-8.9-11.1c-6.3,0-9.8,4.6-9.8,12.7v21.1h-5.8v-22.3
				c0-7.6-2.9-11.5-8.6-11.5c-6.6,0-10.1,4.6-10.1,12.7v21.1h-5.8v-38.2L913.4,486.4L913.4,486.4z"/>
			<path fill="#B8B9BA" d="M1004.7,507.3h-28.5c0.5,8,5.4,12.8,12.9,12.8c4.3,0,7.9-1.9,10.9-5.6l4,3.7c-4.1,4.9-9,7.3-14.9,7.3
				c-5.7,0-10.3-1.8-13.7-5.5s-5.1-8.4-5.1-14.3c0-5.8,1.6-10.6,4.7-14.4c3.2-3.9,7.4-5.8,12.7-5.8c3.9,0,7.2,1,9.8,3
				c5.4,4.1,7.3,9.8,7.3,16.1L1004.7,507.3z M976.5,502.2H999c-0.5-6.8-4.8-11.2-11.1-11.2C981.4,490.9,977.5,495.5,976.5,502.2z"/>
			<path fill="#B8B9BA" d="M1033,513.9c0-7.6,5.7-12,14.1-12c2.8,0,6.3,0.6,10.5,1.9v-3.9c0-5.7-3.8-9-9.4-9c-4.7,0-8.4,2.8-10,6.3
				l-4-3.7c3-5.3,7.7-8,14-8c9.3,0,15.1,5.4,15.1,15v24.2h-5.6v-4c-2.9,3.2-6.8,4.8-11.9,4.8C1038.7,525.5,1033,521.1,1033,513.9z
				 M1046.2,520.3c4.7,0,9-2.7,11.4-6.1v-5.1c-3.7-1.2-7.1-1.9-10.1-1.9c-5.9,0-8.7,2.7-8.7,6.8
				C1038.8,517.8,1041.9,520.3,1046.2,520.3z"/>
			<path fill="#B8B9BA" d="M1104.3,507.5c-7.3-1.7-10.8-5.4-10.8-11c0-3.4,1.3-6.1,3.9-8s5.7-3,9.3-3c5.1,0,9.6,2,13.6,6.2l-3.9,4.1
				c-3.1-3.3-6.5-4.9-10.1-4.9c-4.1,0-7,2.2-7,5.4c0,2.9,1.9,4.8,5.7,5.6l6,1.4c7.3,1.7,10.8,5.3,10.8,10.8
				c0,6.8-5.6,11.5-14.3,11.5c-6.6,0-12.3-3.1-15.4-7.2l3.8-4c3.1,3.9,6.9,5.9,11.5,5.9c5.4,0,8.6-2.2,8.6-5.9c0-2.7-2-4.6-6-5.5
				L1104.3,507.5z"/>
			<path fill="#B8B9BA" d="M1135.9,469.9V491c2.6-3.4,7.2-5.5,11.9-5.5c9.8,0,15.2,6.1,15.2,16.9v22.2h-5.9v-22.7
				c0-7.1-3.6-11.1-9.8-11.1c-7.5,0-11.5,5.7-11.5,14.8v19h-5.8v-54.7L1135.9,469.9L1135.9,469.9z"/>
			<path fill="#B8B9BA" d="M1175.1,519.7c-3.7-3.9-5.5-8.7-5.5-14.2s1.8-10.3,5.5-14.2c3.7-3.9,8.3-5.8,13.7-5.8
				c5.5,0,10.1,2,13.7,5.8c3.7,3.9,5.6,8.7,5.6,14.2s-1.9,10.3-5.5,14.2c-3.7,3.8-8.3,5.8-13.8,5.8
				C1183.4,525.5,1178.8,523.5,1175.1,519.7z M1198.4,516c2.5-2.8,3.7-6.3,3.7-10.5c0-4.1-1.2-7.6-3.7-10.4s-5.7-4.2-9.6-4.2
				c-3.8,0-7,1.4-9.5,4.2c-2.5,2.7-3.7,6.2-3.7,10.4c0,4.1,1.2,7.6,3.7,10.5c2.5,2.7,5.7,4.1,9.5,4.1
				C1192.7,520.1,1195.9,518.7,1198.4,516z"/>
			<path fill="#B8B9BA" d="M1241.8,524.6v-4.8c-3,3.8-7,5.7-12.1,5.7c-9.6,0-14.4-5.6-14.4-16.8v-22.2h5.8V509
				c0,7.3,3.2,11.2,9.4,11.2c7.4,0,11.1-5.4,11.1-14.7v-19h5.8v38.2h-5.6V524.6z"/>
			<path fill="#B8B9BA" d="M1259.2,513.4v-21.7h-6.2v-5.3h6.2v-10.7h5.8v10.7h8.9v5.3h-8.9v20.8c0,5,1.2,6.9,5.9,6.9l3-0.1v5.2
				c-1,0.1-2.3,0.2-3.6,0.2C1262.8,524.8,1259.2,521.6,1259.2,513.4z"/>
			<path fill="#B8B9BA" d="M599.6,550.3c1.8-1.6,4.5-1.6,6.2,0c1.8,1.6,1.8,4.4,0,6.2c-1.6,1.6-4.4,1.6-6.2,0
				C598,554.7,598,552,599.6,550.3z M599.8,604.6v-38.2h5.8v38.2H599.8z"/>
			<path fill="#B8B9BA" d="M633.7,550v5.2h-2c-5.7,0-7.7,2.6-7.7,8.3v2.9h8.9v5.3H624v32.9h-5.8v-32.9H612v-5.3h6.2v-2.9
				c0-9.4,4.6-13.6,13.4-13.6L633.7,550z"/>
			<path fill="#B8B9BA" d="M673.9,619.8h-6.3l5.8-14.7l-15.8-38.7h6.5l12.6,31.7l12.3-31.7h6.4L673.9,619.8z"/>
			<path fill="#B8B9BA" d="M702.8,599.7c-3.7-3.9-5.5-8.7-5.5-14.2s1.8-10.3,5.5-14.2s8.3-5.8,13.7-5.8c5.5,0,10.1,2,13.7,5.8
				c3.7,3.9,5.6,8.7,5.6,14.2s-1.9,10.3-5.5,14.2c-3.7,3.8-8.3,5.8-13.8,5.8C711.1,605.5,706.5,603.5,702.8,599.7z M726.1,596
				c2.5-2.8,3.7-6.3,3.7-10.5c0-4.1-1.2-7.6-3.7-10.4c-2.5-2.8-5.7-4.2-9.6-4.2c-3.8,0-7,1.4-9.5,4.2c-2.5,2.7-3.7,6.2-3.7,10.4
				c0,4.1,1.2,7.6,3.7,10.5c2.5,2.7,5.7,4.1,9.5,4.1C720.4,600.1,723.6,598.7,726.1,596z"/>
			<path fill="#B8B9BA" d="M769.5,604.6v-4.8c-3,3.8-7,5.7-12.1,5.7c-9.6,0-14.4-5.6-14.4-16.8v-22.2h5.8V589
				c0,7.3,3.2,11.2,9.4,11.2c7.4,0,11.1-5.4,11.1-14.7v-19h5.8v38.2h-5.6V604.6z"/>
			<path fill="#B8B9BA" d="M810.6,608.1c2.7,4.8,6.6,7.3,11.6,7.3c8.2,0,12.6-5.3,12.6-13.3v-4c-2.9,3.8-7,5.8-12.5,5.8
				c-4.9,0-9-1.8-12.3-5.5s-5-8.2-5-13.7s1.6-10.1,5-13.7s7.4-5.5,12.3-5.5c5.4,0,9.6,2,12.6,5.8v-4.9h5.6v35.1
				c0,11.6-7.1,19.1-18.4,19.1c-6.9,0-12.2-2.8-15.8-8.5L810.6,608.1z M814.3,594.5c2.3,2.6,5.1,3.8,8.6,3.8s6.4-1.2,8.7-3.8
				s3.4-5.8,3.4-9.8c0-4.1-1.2-7.3-3.4-9.9c-2.3-2.6-5.1-3.8-8.7-3.8s-6.3,1.2-8.6,3.8s-3.4,5.8-3.4,9.9
				C811,588.6,812.1,591.9,814.3,594.5z"/>
			<path fill="#B8B9BA" d="M883.4,587.3h-28.5c0.5,8,5.4,12.8,12.9,12.8c4.3,0,7.9-1.9,10.9-5.6l4,3.7c-4.1,4.9-9,7.3-14.9,7.3
				c-5.7,0-10.3-1.8-13.7-5.5s-5.1-8.4-5.1-14.3c0-5.8,1.6-10.6,4.7-14.4c3.2-3.9,7.4-5.8,12.7-5.8c3.9,0,7.2,1,9.8,3
				c5.4,4.1,7.3,9.8,7.3,16.1L883.4,587.3z M855.1,582.2h22.5c-0.5-6.8-4.8-11.2-11.1-11.2C860,570.9,856.1,575.5,855.1,582.2z"/>
			<path fill="#B8B9BA" d="M892.7,593.4v-21.7h-6.2v-5.3h6.2v-10.7h5.8v10.7h8.9v5.3h-8.9v20.8c0,5,1.2,6.9,5.8,6.9l3-0.1v5.2
				c-1,0.1-2.3,0.2-3.6,0.2C896.3,604.8,892.7,601.6,892.7,593.4z"/>
			<path fill="#B8B9BA" d="M946.5,587.5c-7.3-1.7-10.8-5.4-10.8-11c0-3.4,1.3-6.1,3.9-8s5.7-3,9.3-3c5.1,0,9.6,2,13.6,6.2l-3.9,4.1
				c-3.1-3.3-6.5-4.9-10.1-4.9c-4.1,0-7,2.2-7,5.4c0,2.9,1.9,4.8,5.7,5.6l6,1.4c7.3,1.7,10.8,5.3,10.8,10.8
				c0,6.8-5.6,11.5-14.3,11.5c-6.6,0-12.3-3.1-15.4-7.2l3.8-4c3.1,3.9,6.9,5.9,11.5,5.9c5.4,0,8.6-2.2,8.6-5.9c0-2.7-2-4.6-6-5.5
				L946.5,587.5z"/>
			<path fill="#B8B9BA" d="M973.7,593.4v-21.7h-6.2v-5.3h6.2v-10.7h5.8v10.7h8.9v5.3h-8.9v20.8c0,5,1.2,6.9,5.9,6.9l3-0.1v5.2
				c-1,0.1-2.3,0.2-3.6,0.2C977.3,604.8,973.7,601.6,973.7,593.4z"/>
			<path fill="#B8B9BA" d="M1021.5,604.6v-4.8c-3,3.8-7,5.7-12.1,5.7c-9.6,0-14.4-5.6-14.4-16.8v-22.2h5.8V589
				c0,7.3,3.2,11.2,9.4,11.2c7.4,0,11.1-5.4,11.1-14.7v-19h5.8v38.2h-5.6V604.6z"/>
			<path fill="#B8B9BA" d="M1069.9,598.2c-4.1,4.9-9.1,7.3-15.3,7.3c-5.5,0-10.1-2-13.7-5.8c-3.7-3.9-5.5-8.7-5.5-14.2
				s1.9-10.2,5.6-14.1c3.8-4,8.4-5.9,13.8-5.9c5.8,0,10.5,2.3,14.3,6.8l-3.9,3.8c-2.9-3.4-6.3-5.1-10.4-5.1c-3.9,0-7.1,1.4-9.7,4.2
				c-2.6,2.7-3.8,6.2-3.8,10.4c0,8.5,5.2,14.6,13.7,14.6c4.3,0,8-1.9,10.8-5.6L1069.9,598.2z"/>
			<path fill="#B8B9BA" d="M1077.4,604.6v-54.7h5.8v36l17.7-19.6h7.6l-14.9,16.1l15.8,22.1h-7.4l-12.5-17.6l-6.2,6.8v10.8h-5.9
				V604.6z"/>
			<path fill="#B8B9BA" d="M1125.6,600.9c0,2.6-2,4.6-4.8,4.6c-2.6,0-4.6-2-4.6-4.6s2-4.7,4.6-4.7
				C1123.6,596.2,1125.6,598.2,1125.6,600.9z"/>
			<path fill="#B8B9BA" d="M633.1,685.5c-5.2,0-9.4-2-12.8-5.8c-3.4-3.8-5-8.6-5-14.2s1.6-10.4,5-14.2c3.4-3.9,7.6-5.8,12.8-5.8
				c5.1,0,9.4,2,12.9,6v-5.1h5.8v28.2c0,3.7,1.3,5.6,4,5.6s4.8-1.6,6.5-5s2.4-7.1,2.4-11.2c0-8.5-2.6-15.6-7.6-21.2
				s-12.2-8.4-21.5-8.4c-9,0-16.5,2.9-22.2,8.7c-5.7,5.9-8.5,13.1-8.5,21.8s3,15.9,8.8,21.7c5.9,5.9,13.7,8.7,23.2,8.7
				c5.2,0,10.2-0.9,15-2.8v5.5c-4.5,1.8-9.5,2.7-15,2.7c-11,0-20-3.4-27.1-10.3c-6.9-6.9-10.5-15.4-10.5-25.4
				c-0.5-19.4,15.1-36.1,36.2-35.8c7.3,0,13.5,1.6,18.9,4.8c10.7,6.5,16,17.3,16,30.1c0,6.2-1.5,11.4-4.4,15.4s-6.5,6-10.6,6
				c-4.3,0-7.1-2.7-8.3-6.6C643.6,683.1,638.5,685.5,633.1,685.5z M642.7,676c2.3-2.8,3.4-6.3,3.4-10.5s-1.2-7.7-3.4-10.5
				c-2.3-2.7-5.3-4.1-9.1-4.1s-6.8,1.4-9,4.1c-2.3,2.7-3.4,6.2-3.4,10.5c0,4.2,1.1,7.7,3.4,10.5c2.3,2.7,5.3,4.1,9,4.1
				C637.4,680.2,640.5,678.8,642.7,676z"/>
			<path fill="#B8B9BA" d="M700.7,651.5c-0.4-0.1-0.9-0.1-1.3-0.1c-9,0-12.7,4.5-12.7,16.9v16.3h-5.8v-38.2h5.6v5.1
				c3.4-4.1,6.9-5.6,12.5-5.6c0.5,0,1.2,0,1.7,0.1V651.5z"/>
			<path fill="#B8B9BA" d="M709.7,679.7c-3.7-3.9-5.5-8.7-5.5-14.2s1.8-10.3,5.5-14.2s8.3-5.8,13.7-5.8c5.5,0,10.1,2,13.7,5.8
				c3.7,3.9,5.6,8.7,5.6,14.2s-1.9,10.3-5.5,14.2c-3.7,3.8-8.3,5.8-13.8,5.8S713.3,683.5,709.7,679.7z M733,676
				c2.5-2.8,3.7-6.3,3.7-10.5c0-4.1-1.2-7.6-3.7-10.4c-2.5-2.8-5.7-4.2-9.6-4.2c-3.8,0-7,1.4-9.5,4.2c-2.5,2.7-3.7,6.2-3.7,10.4
				c0,4.1,1.2,7.6,3.7,10.5c2.5,2.7,5.7,4.1,9.5,4.1C727.3,680.1,730.5,678.7,733,676z"/>
			<path fill="#B8B9BA" d="M756.7,684.6h-5.6v-54.7h5.8v21.5c3.4-4,7.7-6,12.9-6s9.4,2,12.8,5.8c3.4,3.8,5,8.6,5,14.2
				s-1.6,10.4-5,14.2s-7.6,5.8-12.8,5.8s-9.5-2-13-6.1v5.3H756.7z M781.6,665.5c0-4.2-1.1-7.7-3.4-10.5c-2.3-2.7-5.2-4.1-9-4.1
				s-6.9,1.4-9.1,4.1c-2.3,2.7-3.4,6.2-3.4,10.5c0,4.2,1.1,7.7,3.4,10.5c2.3,2.7,5.3,4.1,9.1,4.1s6.8-1.4,9-4.1
				S781.6,669.7,781.6,665.5z"/>
			<path fill="#B8B9BA" d="M800,679.7c-3.7-3.9-5.5-8.7-5.5-14.2s1.8-10.3,5.5-14.2s8.3-5.8,13.7-5.8c5.5,0,10.1,2,13.7,5.8
				c3.7,3.9,5.6,8.7,5.6,14.2s-1.9,10.3-5.5,14.2c-3.7,3.8-8.3,5.8-13.8,5.8C808.3,685.5,803.7,683.5,800,679.7z M823.3,676
				c2.5-2.8,3.7-6.3,3.7-10.5c0-4.1-1.2-7.6-3.7-10.4c-2.5-2.8-5.7-4.2-9.6-4.2c-3.8,0-7,1.4-9.5,4.2c-2.5,2.7-3.7,6.2-3.7,10.4
				c0,4.1,1.2,7.6,3.7,10.5c2.5,2.7,5.7,4.1,9.5,4.1C817.6,680.1,820.8,678.7,823.3,676z"/>
			<path fill="#B8B9BA" d="M842.3,673.4v-21.7h-6.2v-5.3h6.2v-10.7h5.8v10.7h8.9v5.3h-8.9v20.8c0,5,1.2,6.9,5.8,6.9l3-0.1v5.2
				c-1,0.1-2.3,0.2-3.6,0.2C845.9,684.8,842.3,681.6,842.3,673.4z"/>
			<path fill="#B8B9BA" d="M897.1,678.2c-4.1,4.9-9.1,7.3-15.3,7.3c-5.5,0-10.1-2-13.7-5.8c-3.7-3.9-5.5-8.7-5.5-14.2
				s1.9-10.2,5.6-14.1c3.8-4,8.4-5.9,13.8-5.9c5.8,0,10.5,2.3,14.3,6.8l-3.9,3.8c-2.9-3.4-6.3-5.1-10.4-5.1c-3.9,0-7.1,1.4-9.7,4.2
				c-2.6,2.7-3.8,6.2-3.8,10.4c0,8.5,5.2,14.6,13.7,14.6c4.3,0,8-1.9,10.8-5.6L897.1,678.2z"/>
			<path fill="#B8B9BA" d="M906.9,679.7c-3.7-3.9-5.5-8.7-5.5-14.2s1.8-10.3,5.5-14.2s8.3-5.8,13.7-5.8c5.5,0,10.1,2,13.7,5.8
				c3.7,3.9,5.6,8.7,5.6,14.2s-1.9,10.3-5.5,14.2c-3.7,3.8-8.3,5.8-13.8,5.8C915.2,685.5,910.6,683.5,906.9,679.7z M930.2,676
				c2.5-2.8,3.7-6.3,3.7-10.5c0-4.1-1.2-7.6-3.7-10.4c-2.5-2.8-5.7-4.2-9.6-4.2c-3.8,0-7,1.4-9.5,4.2c-2.5,2.7-3.7,6.2-3.7,10.4
				c0,4.1,1.2,7.6,3.7,10.5c2.5,2.7,5.7,4.1,9.5,4.1C924.6,680.1,927.8,678.7,930.2,676z"/>
			<path fill="#B8B9BA" d="M954,646.4v4.7c2.6-3.4,7.3-5.6,12.1-5.6c9.8,0,15.2,6.1,15.2,16.9v22.2h-5.8v-22.7
				c0-7.1-3.6-11.1-9.8-11.1c-7.5,0-11.5,5.7-11.5,14.8v19h-5.8v-38.2L954,646.4L954,646.4z"/>
			<path fill="#B8B9BA" d="M1000.5,667.5c-7.3-1.7-10.8-5.4-10.8-11c0-3.4,1.3-6.1,3.9-8s5.7-3,9.3-3c5.1,0,9.6,2,13.6,6.2l-3.9,4.1
				c-3.1-3.3-6.5-4.9-10.1-4.9c-4.1,0-7,2.2-7,5.4c0,2.9,1.9,4.8,5.7,5.6l6,1.4c7.3,1.7,10.8,5.3,10.8,10.8
				c0,6.8-5.6,11.5-14.3,11.5c-6.6,0-12.3-3.1-15.4-7.2l3.8-4c3.1,3.9,6.9,5.9,11.5,5.9c5.4,0,8.6-2.2,8.6-5.9c0-2.7-2-4.6-6-5.5
				L1000.5,667.5z"/>
			<path fill="#B8B9BA" d="M1058.6,678.2c-4.1,4.9-9.1,7.3-15.3,7.3c-5.5,0-10.1-2-13.7-5.8c-3.7-3.9-5.5-8.7-5.5-14.2
				s1.9-10.2,5.6-14.1c3.8-4,8.4-5.9,13.8-5.9c5.8,0,10.5,2.3,14.3,6.8l-3.9,3.8c-2.9-3.4-6.3-5.1-10.4-5.1c-3.9,0-7.1,1.4-9.7,4.2
				c-2.6,2.7-3.8,6.2-3.8,10.4c0,8.5,5.2,14.6,13.7,14.6c4.3,0,8-1.9,10.8-5.6L1058.6,678.2z"/>
			<path fill="#B8B9BA" d="M1066.4,630.3c1.8-1.6,4.5-1.6,6.2,0c1.8,1.6,1.8,4.4,0,6.2c-1.6,1.6-4.4,1.6-6.2,0
				C1064.7,634.7,1064.7,632,1066.4,630.3z M1066.6,684.6v-38.2h5.8v38.2H1066.6z"/>
			<path fill="#B8B9BA" d="M1115.7,667.3h-28.5c0.5,8,5.4,12.8,12.9,12.8c4.3,0,7.9-1.9,10.9-5.6l4,3.7c-4.1,4.9-9,7.3-14.9,7.3
				c-5.7,0-10.3-1.8-13.7-5.5c-3.4-3.7-5.1-8.4-5.1-14.3c0-5.8,1.6-10.6,4.7-14.4c3.2-3.9,7.4-5.8,12.7-5.8c3.9,0,7.2,1,9.8,3
				c5.4,4.1,7.3,9.8,7.3,16.1L1115.7,667.3z M1087.5,662.2h22.5c-0.5-6.8-4.8-11.2-11.1-11.2
				C1092.4,650.9,1088.5,655.5,1087.5,662.2z"/>
			<path fill="#B8B9BA" d="M1129.8,646.4v4.7c2.6-3.4,7.3-5.6,12.1-5.6c9.8,0,15.2,6.1,15.2,16.9v22.2h-5.8v-22.7
				c0-7.1-3.6-11.1-9.8-11.1c-7.5,0-11.5,5.7-11.5,14.8v19h-5.8v-38.2L1129.8,646.4L1129.8,646.4z"/>
			<path fill="#B8B9BA" d="M1199.4,678.2c-4.1,4.9-9.1,7.3-15.3,7.3c-5.5,0-10.1-2-13.7-5.8c-3.7-3.9-5.5-8.7-5.5-14.2
				s1.9-10.2,5.6-14.1c3.8-4,8.4-5.9,13.8-5.9c5.8,0,10.5,2.3,14.3,6.8l-3.9,3.8c-2.9-3.4-6.3-5.1-10.4-5.1c-3.9,0-7.1,1.4-9.7,4.2
				c-2.6,2.7-3.8,6.2-3.8,10.4c0,8.5,5.2,14.6,13.7,14.6c4.3,0,8-1.9,10.8-5.6L1199.4,678.2z"/>
			<path fill="#B8B9BA" d="M1238.2,667.3h-28.5c0.5,8,5.4,12.8,12.9,12.8c4.3,0,7.9-1.9,10.9-5.6l4,3.7c-4.1,4.9-9,7.3-14.9,7.3
				c-5.7,0-10.3-1.8-13.7-5.5c-3.4-3.7-5.1-8.4-5.1-14.3c0-5.8,1.6-10.6,4.7-14.4c3.2-3.9,7.4-5.8,12.7-5.8c3.9,0,7.2,1,9.8,3
				c5.4,4.1,7.3,9.8,7.3,16.1L1238.2,667.3z M1210,662.2h22.5c-0.5-6.8-4.8-11.2-11.1-11.2C1214.9,650.9,1211,655.5,1210,662.2z"/>
		</g>
	</g>
	<g>
		<g>
			<path fill="#B8B9BA" d="M843.8,1018.2l-1.6,1.5c-4.1-4-6.1-8.6-6.1-13.9c0-5.3,2-10,6.1-13.9l1.6,1.5c-3.7,3.8-5.4,7.7-5.4,12.5
				C838.4,1010.6,840,1014.5,843.8,1018.2z"/>
			<path fill="#B8B9BA" d="M857.3,1011.1c-1.6,1.9-3.5,2.8-5.9,2.8c-2.1,0-3.9-0.8-5.3-2.2c-1.4-1.5-2.1-3.3-2.1-5.5
				s0.7-3.9,2.2-5.4s3.2-2.3,5.3-2.3c2.2,0,4,0.9,5.5,2.6l-1.5,1.5c-1.1-1.3-2.4-2-4-2c-1.5,0-2.7,0.5-3.7,1.6c-1,1-1.5,2.4-1.5,4
				c0,3.3,2,5.6,5.3,5.6c1.6,0,3.1-0.7,4.2-2.2L857.3,1011.1z"/>
			<path fill="#B8B9BA" d="M860.2,1013.5v-21h2.2v21H860.2z"/>
			<path fill="#B8B9BA" d="M866.8,992.7c0.7-0.6,1.7-0.6,2.4,0s0.7,1.7,0,2.4c-0.6,0.6-1.7,0.6-2.4,0
				C866.1,994.3,866.1,993.3,866.8,992.7z M866.9,1013.5v-14.7h2.2v14.7H866.9z"/>
			<path fill="#B8B9BA" d="M885.8,1011.1c-1.6,1.9-3.5,2.8-5.9,2.8c-2.1,0-3.9-0.8-5.3-2.2c-1.4-1.5-2.1-3.3-2.1-5.5
				s0.7-3.9,2.2-5.4s3.2-2.3,5.3-2.3c2.2,0,4,0.9,5.5,2.6l-1.5,1.5c-1.1-1.3-2.4-2-4-2c-1.5,0-2.7,0.5-3.7,1.6c-1,1-1.5,2.4-1.5,4
				c0,3.3,2,5.6,5.3,5.6c1.7,0,3.1-0.7,4.2-2.2L885.8,1011.1z"/>
			<path fill="#B8B9BA" d="M888.7,1013.5v-21h2.2v13.9l6.8-7.5h2.9l-5.7,6.2l6.1,8.5h-2.8l-4.8-6.8l-2.4,2.6v4.1H888.7z"/>
			<path fill="#B8B9BA" d="M912.9,1009.2v-8.3h-2.4v-2h2.4v-4.1h2.2v4.1h3.4v2h-3.4v8c0,1.9,0.5,2.7,2.2,2.7h1.2v2
				c-0.4,0-0.9,0.1-1.4,0.1C914.2,1013.6,912.9,1012.4,912.9,1009.2z"/>
			<path fill="#B8B9BA" d="M922.8,1011.7c-1.4-1.5-2.1-3.3-2.1-5.5s0.7-4,2.1-5.5s3.2-2.2,5.3-2.2s3.9,0.8,5.3,2.2
				c1.4,1.5,2.2,3.3,2.2,5.5s-0.7,4-2.1,5.5c-1.4,1.5-3.2,2.2-5.3,2.2C925.9,1013.9,924.2,1013.1,922.8,1011.7z M931.7,1010.2
				c1-1.1,1.4-2.4,1.4-4s-0.5-2.9-1.4-4c-1-1.1-2.2-1.6-3.7-1.6s-2.7,0.5-3.7,1.6c-1,1-1.4,2.4-1.4,4s0.5,2.9,1.4,4
				c1,1,2.2,1.6,3.7,1.6S930.8,1011.3,931.7,1010.2z"/>
			<path fill="#B8B9BA" d="M946.3,1009.4c0-2.9,2.2-4.6,5.4-4.6c1.1,0,2.4,0.2,4,0.7v-1.5c0-2.2-1.5-3.4-3.6-3.4
				c-1.8,0-3.2,1.1-3.8,2.4l-1.5-1.4c1.2-2,3-3.1,5.4-3.1c3.6,0,5.8,2.1,5.8,5.8v9.3h-2.2v-1.5c-1.1,1.2-2.6,1.9-4.6,1.9
				C948.5,1013.9,946.3,1012.2,946.3,1009.4z M951.4,1011.9c1.8,0,3.4-1,4.4-2.3v-2c-1.4-0.5-2.7-0.7-3.9-0.7
				c-2.2,0-3.3,1.1-3.3,2.6C948.6,1010.9,949.7,1011.9,951.4,1011.9z"/>
			<path fill="#B8B9BA" d="M972.8,1000.8v-8.3h2.2v21h-2.1v-2c-1.3,1.6-3,2.3-5,2.3s-3.6-0.8-4.9-2.2c-1.3-1.5-1.9-3.3-1.9-5.5
				s0.6-4,1.9-5.5c1.3-1.5,2.9-2.2,4.9-2.2C969.9,998.5,971.5,999.3,972.8,1000.8z M963.3,1006.2c0,1.6,0.4,3,1.3,4s2,1.6,3.5,1.6
				s2.6-0.5,3.5-1.6s1.3-2.4,1.3-4s-0.4-3-1.3-4c-0.9-1-2-1.6-3.5-1.6s-2.6,0.5-3.5,1.6C963.7,1003.2,963.3,1004.6,963.3,1006.2z"/>
			<path fill="#B8B9BA" d="M990.9,998.8l-5.6,14.7H983l-5.6-14.7h2.4l4.3,12l4.3-12H990.9z"/>
			<path fill="#B8B9BA" d="M992.2,1009.4c0-2.9,2.2-4.6,5.4-4.6c1.1,0,2.4,0.2,4,0.7v-1.5c0-2.2-1.5-3.4-3.6-3.4
				c-1.8,0-3.2,1.1-3.8,2.4l-1.5-1.4c1.2-2,3-3.1,5.4-3.1c3.6,0,5.8,2.1,5.8,5.8v9.3h-2.2v-1.5c-1.1,1.2-2.6,1.9-4.6,1.9
				C994.4,1013.9,992.2,1012.2,992.2,1009.4z M997.3,1011.9c1.8,0,3.5-1,4.4-2.3v-2c-1.4-0.5-2.7-0.7-3.9-0.7
				c-2.2,0-3.3,1.1-3.3,2.6C994.4,1010.9,995.6,1011.9,997.3,1011.9z"/>
			<path fill="#B8B9BA" d="M1010.1,998.8v1.8c1-1.3,2.8-2.2,4.7-2.2c3.7,0,5.8,2.3,5.8,6.5v8.5h-2.2v-8.7c0-2.7-1.4-4.3-3.8-4.3
				c-2.9,0-4.4,2.2-4.4,5.7v7.3h-2.2v-14.7h2.1V998.8z"/>
			<path fill="#B8B9BA" d="M1036.9,1011.1c-1.6,1.9-3.5,2.8-5.9,2.8c-2.1,0-3.9-0.8-5.3-2.2c-1.4-1.5-2.1-3.3-2.1-5.5
				s0.7-3.9,2.2-5.4s3.2-2.3,5.3-2.3c2.2,0,4,0.9,5.5,2.6l-1.5,1.5c-1.1-1.3-2.4-2-4-2c-1.5,0-2.7,0.5-3.7,1.6c-1,1-1.5,2.4-1.5,4
				c0,3.3,2,5.6,5.3,5.6c1.7,0,3.1-0.7,4.2-2.2L1036.9,1011.1z"/>
			<path fill="#B8B9BA" d="M1051.8,1006.9h-10.9c0.2,3.1,2.1,4.9,4.9,4.9c1.7,0,3-0.7,4.2-2.2l1.5,1.4c-1.6,1.9-3.5,2.8-5.7,2.8
				s-4-0.7-5.3-2.1c-1.3-1.4-2-3.2-2-5.5c0-2.2,0.6-4.1,1.8-5.5c1.2-1.5,2.8-2.2,4.9-2.2c1.5,0,2.8,0.4,3.8,1.2
				c2.1,1.6,2.8,3.8,2.8,6.2L1051.8,1006.9z M1040.9,1004.9h8.6c-0.2-2.6-1.8-4.3-4.3-4.3
				C1042.8,1000.6,1041.3,1002.4,1040.9,1004.9z"/>
			<path fill="#B8B9BA" d="M1052.8,993.3l1.6-1.5c4.1,4,6.1,8.6,6.1,13.9c0,5.3-2,10-6.1,13.9l-1.6-1.5c3.7-3.8,5.4-7.7,5.4-12.5
				C1058.2,1000.9,1056.5,997,1052.8,993.3z"/>
		</g>
		<g>
			<path fill="#B8B9BA" d="M843.8,1018.2l-1.6,1.5c-4.1-4-6.1-8.6-6.1-13.9c0-5.3,2-10,6.1-13.9l1.6,1.5c-3.7,3.8-5.4,7.7-5.4,12.5
				C838.4,1010.6,840,1014.5,843.8,1018.2z"/>
			<path fill="#B8B9BA" d="M857.3,1011.1c-1.6,1.9-3.5,2.8-5.9,2.8c-2.1,0-3.9-0.8-5.3-2.2c-1.4-1.5-2.1-3.3-2.1-5.5
				s0.7-3.9,2.2-5.4s3.2-2.3,5.3-2.3c2.2,0,4,0.9,5.5,2.6l-1.5,1.5c-1.1-1.3-2.4-2-4-2c-1.5,0-2.7,0.5-3.7,1.6c-1,1-1.5,2.4-1.5,4
				c0,3.3,2,5.6,5.3,5.6c1.6,0,3.1-0.7,4.2-2.2L857.3,1011.1z"/>
			<path fill="#B8B9BA" d="M860.2,1013.5v-21h2.2v21H860.2z"/>
			<path fill="#B8B9BA" d="M866.8,992.7c0.7-0.6,1.7-0.6,2.4,0s0.7,1.7,0,2.4c-0.6,0.6-1.7,0.6-2.4,0
				C866.1,994.3,866.1,993.3,866.8,992.7z M866.9,1013.5v-14.7h2.2v14.7H866.9z"/>
			<path fill="#B8B9BA" d="M885.8,1011.1c-1.6,1.9-3.5,2.8-5.9,2.8c-2.1,0-3.9-0.8-5.3-2.2c-1.4-1.5-2.1-3.3-2.1-5.5
				s0.7-3.9,2.2-5.4s3.2-2.3,5.3-2.3c2.2,0,4,0.9,5.5,2.6l-1.5,1.5c-1.1-1.3-2.4-2-4-2c-1.5,0-2.7,0.5-3.7,1.6c-1,1-1.5,2.4-1.5,4
				c0,3.3,2,5.6,5.3,5.6c1.7,0,3.1-0.7,4.2-2.2L885.8,1011.1z"/>
			<path fill="#B8B9BA" d="M888.7,1013.5v-21h2.2v13.9l6.8-7.5h2.9l-5.7,6.2l6.1,8.5h-2.8l-4.8-6.8l-2.4,2.6v4.1H888.7z"/>
			<path fill="#B8B9BA" d="M912.9,1009.2v-8.3h-2.4v-2h2.4v-4.1h2.2v4.1h3.4v2h-3.4v8c0,1.9,0.5,2.7,2.2,2.7h1.2v2
				c-0.4,0-0.9,0.1-1.4,0.1C914.2,1013.6,912.9,1012.4,912.9,1009.2z"/>
			<path fill="#B8B9BA" d="M922.8,1011.7c-1.4-1.5-2.1-3.3-2.1-5.5s0.7-4,2.1-5.5s3.2-2.2,5.3-2.2s3.9,0.8,5.3,2.2
				c1.4,1.5,2.2,3.3,2.2,5.5s-0.7,4-2.1,5.5c-1.4,1.5-3.2,2.2-5.3,2.2C925.9,1013.9,924.2,1013.1,922.8,1011.7z M931.7,1010.2
				c1-1.1,1.4-2.4,1.4-4s-0.5-2.9-1.4-4c-1-1.1-2.2-1.6-3.7-1.6s-2.7,0.5-3.7,1.6c-1,1-1.4,2.4-1.4,4s0.5,2.9,1.4,4
				c1,1,2.2,1.6,3.7,1.6S930.8,1011.3,931.7,1010.2z"/>
			<path fill="#B8B9BA" d="M946.3,1009.4c0-2.9,2.2-4.6,5.4-4.6c1.1,0,2.4,0.2,4,0.7v-1.5c0-2.2-1.5-3.4-3.6-3.4
				c-1.8,0-3.2,1.1-3.8,2.4l-1.5-1.4c1.2-2,3-3.1,5.4-3.1c3.6,0,5.8,2.1,5.8,5.8v9.3h-2.2v-1.5c-1.1,1.2-2.6,1.9-4.6,1.9
				C948.5,1013.9,946.3,1012.2,946.3,1009.4z M951.4,1011.9c1.8,0,3.4-1,4.4-2.3v-2c-1.4-0.5-2.7-0.7-3.9-0.7
				c-2.2,0-3.3,1.1-3.3,2.6C948.6,1010.9,949.7,1011.9,951.4,1011.9z"/>
			<path fill="#B8B9BA" d="M972.8,1000.8v-8.3h2.2v21h-2.1v-2c-1.3,1.6-3,2.3-5,2.3s-3.6-0.8-4.9-2.2c-1.3-1.5-1.9-3.3-1.9-5.5
				s0.6-4,1.9-5.5c1.3-1.5,2.9-2.2,4.9-2.2C969.9,998.5,971.5,999.3,972.8,1000.8z M963.3,1006.2c0,1.6,0.4,3,1.3,4s2,1.6,3.5,1.6
				s2.6-0.5,3.5-1.6s1.3-2.4,1.3-4s-0.4-3-1.3-4c-0.9-1-2-1.6-3.5-1.6s-2.6,0.5-3.5,1.6C963.7,1003.2,963.3,1004.6,963.3,1006.2z"/>
			<path fill="#B8B9BA" d="M990.9,998.8l-5.6,14.7H983l-5.6-14.7h2.4l4.3,12l4.3-12H990.9z"/>
			<path fill="#B8B9BA" d="M992.2,1009.4c0-2.9,2.2-4.6,5.4-4.6c1.1,0,2.4,0.2,4,0.7v-1.5c0-2.2-1.5-3.4-3.6-3.4
				c-1.8,0-3.2,1.1-3.8,2.4l-1.5-1.4c1.2-2,3-3.1,5.4-3.1c3.6,0,5.8,2.1,5.8,5.8v9.3h-2.2v-1.5c-1.1,1.2-2.6,1.9-4.6,1.9
				C994.4,1013.9,992.2,1012.2,992.2,1009.4z M997.3,1011.9c1.8,0,3.5-1,4.4-2.3v-2c-1.4-0.5-2.7-0.7-3.9-0.7
				c-2.2,0-3.3,1.1-3.3,2.6C994.4,1010.9,995.6,1011.9,997.3,1011.9z"/>
			<path fill="#B8B9BA" d="M1010.1,998.8v1.8c1-1.3,2.8-2.2,4.7-2.2c3.7,0,5.8,2.3,5.8,6.5v8.5h-2.2v-8.7c0-2.7-1.4-4.3-3.8-4.3
				c-2.9,0-4.4,2.2-4.4,5.7v7.3h-2.2v-14.7h2.1V998.8z"/>
			<path fill="#B8B9BA" d="M1036.9,1011.1c-1.6,1.9-3.5,2.8-5.9,2.8c-2.1,0-3.9-0.8-5.3-2.2c-1.4-1.5-2.1-3.3-2.1-5.5
				s0.7-3.9,2.2-5.4s3.2-2.3,5.3-2.3c2.2,0,4,0.9,5.5,2.6l-1.5,1.5c-1.1-1.3-2.4-2-4-2c-1.5,0-2.7,0.5-3.7,1.6c-1,1-1.5,2.4-1.5,4
				c0,3.3,2,5.6,5.3,5.6c1.7,0,3.1-0.7,4.2-2.2L1036.9,1011.1z"/>
			<path fill="#B8B9BA" d="M1051.8,1006.9h-10.9c0.2,3.1,2.1,4.9,4.9,4.9c1.7,0,3-0.7,4.2-2.2l1.5,1.4c-1.6,1.9-3.5,2.8-5.7,2.8
				s-4-0.7-5.3-2.1c-1.3-1.4-2-3.2-2-5.5c0-2.2,0.6-4.1,1.8-5.5c1.2-1.5,2.8-2.2,4.9-2.2c1.5,0,2.8,0.4,3.8,1.2
				c2.1,1.6,2.8,3.8,2.8,6.2L1051.8,1006.9z M1040.9,1004.9h8.6c-0.2-2.6-1.8-4.3-4.3-4.3
				C1042.8,1000.6,1041.3,1002.4,1040.9,1004.9z"/>
			<path fill="#B8B9BA" d="M1052.8,993.3l1.6-1.5c4.1,4,6.1,8.6,6.1,13.9c0,5.3-2,10-6.1,13.9l-1.6-1.5c3.7-3.8,5.4-7.7,5.4-12.5
				C1058.2,1000.9,1056.5,997,1052.8,993.3z"/>
		</g>
	</g>
</g>
</svg>
