<?xml version="1.0" encoding="utf-8"?>
<!-- Generator: Adobe Illustrator 19.1.0, SVG Export Plug-In . SVG Version: 6.00 Build 0)  -->
<svg version="1.1" baseProfile="tiny" id="Layer_1_copy"
	 xmlns="http://www.w3.org/2000/svg" xmlns:xlink="http://www.w3.org/1999/xlink" x="0px" y="0px" >
<rect fill="#FFFFFF" width="1920" height="1080"/>
<g>
	<path fill="#9AD2E6" d="M704.4,483.2v-56.5h6.1v56.5H704.4z"/>
	<path fill="#9AD2E6" d="M729.3,443.7v4.8c2.7-3.5,7.6-5.8,12.5-5.8c10.1,0,15.7,6.3,15.7,17.5v23h-6v-23.5
		c0-7.3-3.7-11.4-10.1-11.4c-7.7,0-11.9,5.9-11.9,15.3v19.6h-6v-39.5H729.3z"/>
	<path fill="#9AD2E6" d="M826.5,483.2l-11.1-18.1h-9.6v18.1h-12v-56.5h23.4c6.3,0,11.4,1.6,15.5,4.9c4.1,3.3,6.1,7.8,6.1,13.5
		c0,8-4.4,14.4-11.1,17.7l12.5,20.4H826.5z M805.8,437.8v16.4h9.3c7.8,0,11.8-2.7,11.8-8.3c0-5.5-3.7-8.1-11.8-8.1H805.8z"/>
	<path fill="#9AD2E6" d="M882.2,466.4h-26.8c0.6,4.3,4,7.3,8.9,7.3c4,0,7.3-1.5,9.7-4.6l7.6,7.1c-4.3,5.3-9.9,8-16.9,8
		c-6,0-11-1.9-14.9-5.6c-4-3.8-5.9-8.7-5.9-14.8c0-6,1.8-11,5.4-15c3.6-4,8.3-6,14-6c6,0,10.7,2,14,6c3.3,4,5,8.8,5,14.2
		L882.2,466.4z M856,458.7h14.2c-0.2-3.3-2.9-5.9-6.7-5.9C859.4,452.8,856.7,455.3,856,458.7z"/>
	<path fill="#9AD2E6" d="M901.6,483.2h-11.4v-39.5h11.3v2.7c2.6-2.5,5.7-3.7,9.4-3.7c9.8,0,16.1,6.4,16.1,17.5v23h-11.5v-22.1
		c0-4.5-2.1-7.7-6.5-7.7c-4.8,0-7.3,3.4-7.3,10.1V483.2z"/>
	<path fill="#9AD2E6" d="M939.5,448.6c3.8-3.9,8.5-5.8,14.1-5.8c4.1,0,7.5,1.1,10.2,3.5v-19.5h11.4v56.5h-11.3v-2.8
		c-2.6,2.5-6,3.7-10.3,3.7c-5.6,0-10.3-1.9-14.1-5.6c-3.8-3.8-5.6-8.8-5.6-15C933.8,457.4,935.7,452.4,939.5,448.6z M963.9,463.5
		c0-3-0.9-5.5-2.7-7.4c-1.7-1.9-3.9-2.9-6.5-2.9s-4.8,1-6.6,2.9c-1.7,1.9-2.6,4.4-2.6,7.4s0.9,5.5,2.6,7.4c1.8,1.9,4,2.9,6.6,2.9
		s4.8-1,6.5-2.9C963,469,963.9,466.5,963.9,463.5z"/>
	<path fill="#9AD2E6" d="M1021.4,466.4h-26.8c0.6,4.3,4,7.3,8.9,7.3c4,0,7.3-1.5,9.7-4.6l7.6,7.1c-4.3,5.3-9.9,8-16.9,8
		c-6,0-11-1.9-14.9-5.6c-4-3.8-5.9-8.7-5.9-14.8c0-6,1.8-11,5.4-15c3.6-4,8.3-6,14-6c6,0,10.7,2,14,6c3.3,4,5,8.8,5,14.2
		L1021.4,466.4z M995.2,458.7h14.2c-0.2-3.3-2.9-5.9-6.7-5.9C998.6,452.8,996,455.3,995.2,458.7z"/>
	<path fill="#9AD2E6" d="M1053.6,454.3h-1.8c-6.7,0-11,4.4-11,12.4v16.5h-11.4v-39.5h11.3v3.5c2.3-2.7,5.6-4.1,9.8-4.1
		c1.3,0,2.3,0,3.1,0.1V454.3z"/>
	<path fill="#9AD2E6" d="M1106.1,471.8l-10.7-20.6v32.1h-12v-56.5h12l16,31.7l16.1-31.7h11.9v56.5h-11.9v-32.1l-10.8,20.6H1106.1z"
		/>
	<path fill="#9AD2E6" d="M1147.8,463.5c0-5.9,2-10.8,6-14.8c4-4,9-6,14.9-6s10.9,2,14.8,6c4,3.9,6,8.9,6,14.8s-2,10.8-6,14.8
		c-4,4-8.9,5.9-14.9,5.9c-6,0-11-1.9-14.9-5.9C1149.8,474.3,1147.8,469.4,1147.8,463.5z M1159.5,463.5c0,2.9,0.9,5.3,2.6,7.2
		c1.7,1.9,4,2.8,6.6,2.8s4.9-1,6.6-2.8c1.7-1.9,2.6-4.3,2.6-7.2s-0.9-5.3-2.6-7.2c-1.7-1.9-4-2.8-6.6-2.8s-4.9,1-6.6,2.8
		C1160.3,458.2,1159.5,460.6,1159.5,463.5z"/>
	<path fill="#9AD2E6" d="M1201.2,448.6c3.8-3.9,8.5-5.8,14.1-5.8c4.1,0,7.5,1.1,10.2,3.5v-19.5h11.4v56.5h-11.3v-2.8
		c-2.6,2.5-6,3.7-10.3,3.7c-5.6,0-10.3-1.9-14.1-5.6c-3.8-3.8-5.6-8.8-5.6-15C1195.6,457.4,1197.4,452.4,1201.2,448.6z
		 M1225.6,463.5c0-3-0.9-5.5-2.7-7.4c-1.7-1.9-3.9-2.9-6.5-2.9s-4.8,1-6.6,2.9c-1.7,1.9-2.6,4.4-2.6,7.4s0.9,5.5,2.6,7.4
		c1.8,1.9,4,2.9,6.6,2.9s4.8-1,6.5-2.9C1224.8,469,1225.6,466.5,1225.6,463.5z"/>
	<path fill="#9AD2E6" d="M1283.2,466.4h-26.8c0.6,4.3,4,7.3,8.9,7.3c4,0,7.3-1.5,9.7-4.6l7.6,7.1c-4.3,5.3-9.9,8-16.9,8
		c-6,0-11-1.9-14.9-5.6c-4-3.8-5.9-8.7-5.9-14.8c0-6,1.8-11,5.4-15c3.6-4,8.3-6,14-6c6,0,10.7,2,14,6c3.3,4,5,8.8,5,14.2
		L1283.2,466.4z M1257,458.7h14.2c-0.2-3.3-2.9-5.9-6.7-5.9C1260.4,452.8,1257.7,455.3,1257,458.7z"/>
	<path fill="#9AD2E6" d="M1293.4,493.3h-6.4l7.7-19.3h7.5L1293.4,493.3z"/>
	<path fill="#9AD2E6" d="M714.4,547.5c-7.5-1.8-11.2-5.6-11.2-11.4c0-3.5,1.4-6.3,4-8.3c2.7-2,5.9-3.1,9.6-3.1c5.2,0,9.9,2.1,14,6.4
		l-4,4.3c-3.2-3.4-6.7-5.1-10.4-5.1c-4.3,0-7.3,2.3-7.3,5.6c0,3,1.9,4.9,5.9,5.8l6.2,1.5c7.5,1.8,11.2,5.5,11.2,11.1
		c0,7-5.8,11.8-14.8,11.8c-6.8,0-12.7-3.2-16-7.4l4-4.1c3.2,4,7.2,6,11.9,6c5.6,0,8.9-2.3,8.9-6c0-2.8-2.1-4.8-6.2-5.7L714.4,547.5z
		"/>
	<path fill="#9AD2E6" d="M749.4,508.7v21.8c2.7-3.5,7.4-5.7,12.3-5.7c10.1,0,15.7,6.3,15.7,17.5v23h-6v-23.5
		c0-7.3-3.7-11.4-10.1-11.4c-7.7,0-11.9,5.9-11.9,15.3v19.6h-6v-56.5H749.4z"/>
	<path fill="#9AD2E6" d="M786.7,554.1c0-7.8,5.9-12.4,14.6-12.4c2.9,0,6.5,0.6,10.8,1.9v-4c0-5.9-4-9.3-9.8-9.3
		c-4.8,0-8.7,2.9-10.3,6.5l-4.1-3.9c3.1-5.5,8-8.2,14.5-8.2c9.6,0,15.6,5.6,15.6,15.5v25h-5.8v-4.1c-3,3.3-7,5-12.3,5
		C792.5,566.1,786.7,561.6,786.7,554.1z M800.3,560.8c4.8,0,9.3-2.7,11.8-6.3v-5.3c-3.9-1.3-7.3-1.9-10.5-1.9c-6,0-8.9,2.8-8.9,7
		C792.6,558.2,795.8,560.8,800.3,560.8z"/>
	<path fill="#9AD2E6" d="M837.3,580.9h-6v-55.1h5.8v5.4c3.6-4.3,8.1-6.4,13.5-6.4c5.4,0,9.8,2,13.2,6c3.5,4,5.2,8.9,5.2,14.7
		s-1.7,10.7-5.2,14.7c-3.5,3.9-7.8,6-13.2,6s-9.8-2-13.3-6.1V580.9z M862.9,545.5c0-4.4-1.1-8-3.5-10.8c-2.3-2.8-5.4-4.3-9.4-4.3
		s-7.1,1.5-9.4,4.3c-2.3,2.8-3.5,6.4-3.5,10.8s1.1,8,3.5,10.8c2.3,2.8,5.5,4.3,9.4,4.3s7-1.5,9.4-4.3
		C861.7,553.5,862.9,549.8,862.9,545.5z"/>
	<path fill="#9AD2E6" d="M914.2,547.3h-29.4c0.6,8.3,5.6,13.2,13.3,13.2c4.4,0,8.1-1.9,11.3-5.8l4.1,3.8c-4.2,5.1-9.4,7.6-15.4,7.6
		c-5.9,0-10.6-1.9-14.2-5.6c-3.5-3.8-5.2-8.7-5.2-14.8c0-6,1.6-11,4.8-14.9c3.3-4,7.7-6,13.1-6c4,0,7.4,1,10.2,3.1
		c5.6,4.2,7.5,10.2,7.5,16.7L914.2,547.3z M885,542h23.2c-0.6-7-4.9-11.6-11.4-11.6C890.1,530.4,886.1,535.2,885,542z"/>
	<path fill="#9AD2E6" d="M935.3,547.5c-7.5-1.8-11.2-5.6-11.2-11.4c0-3.5,1.4-6.3,4-8.3c2.7-2,5.9-3.1,9.6-3.1c5.2,0,9.9,2.1,14,6.4
		l-4,4.3c-3.2-3.4-6.7-5.1-10.4-5.1c-4.3,0-7.3,2.3-7.3,5.6c0,3,1.9,4.9,5.9,5.8l6.2,1.5c7.5,1.8,11.2,5.5,11.2,11.1
		c0,7-5.8,11.8-14.8,11.8c-6.8,0-12.7-3.2-16-7.4l4-4.1c3.2,4,7.2,6,11.9,6c5.6,0,8.9-2.3,8.9-6c0-2.8-2.1-4.8-6.2-5.7L935.3,547.5z
		"/>
	<path fill="#9AD2E6" d="M995,525.7v4.8c2.3-3.2,6.6-5.7,11.4-5.7c5.4,0,9.3,2.2,11.8,6.5c3-4.4,7.1-6.5,12.3-6.5
		c10.2,0,15.2,5.8,15.2,17.5v23h-6v-23.5c0-7.7-3.1-11.4-9.2-11.4c-6.5,0-10.2,4.8-10.2,13.1v21.8h-6v-23.1c0-7.9-3-11.9-8.9-11.9
		c-6.8,0-10.4,4.8-10.4,13.1v21.8h-6v-39.5H995z"/>
	<path fill="#9AD2E6" d="M1056.3,554.1c0-7.8,5.9-12.4,14.6-12.4c2.9,0,6.5,0.6,10.8,1.9v-4c0-5.9-3.9-9.3-9.8-9.3
		c-4.8,0-8.7,2.9-10.3,6.5l-4.1-3.9c3.1-5.5,8-8.2,14.5-8.2c9.6,0,15.6,5.6,15.6,15.5v25h-5.8v-4.1c-3,3.3-7,5-12.3,5
		C1062.1,566.1,1056.3,561.6,1056.3,554.1z M1069.9,560.8c4.8,0,9.3-2.7,11.8-6.3v-5.3c-3.9-1.3-7.3-1.9-10.5-1.9
		c-6,0-8.9,2.8-8.9,7C1062.2,558.2,1065.4,560.8,1069.9,560.8z"/>
	<path fill="#9AD2E6" d="M1110,547.5c-7.5-1.8-11.2-5.6-11.2-11.4c0-3.5,1.4-6.3,4-8.3c2.7-2,5.9-3.1,9.6-3.1c5.2,0,9.9,2.1,14,6.4
		l-4,4.3c-3.2-3.4-6.7-5.1-10.4-5.1c-4.3,0-7.3,2.3-7.3,5.6c0,3,1.9,4.9,5.9,5.8l6.2,1.5c7.5,1.8,11.2,5.5,11.2,11.1
		c0,7-5.8,11.8-14.8,11.8c-6.8,0-12.7-3.2-16-7.4l4-4.1c3.2,4,7.2,6,11.9,6c5.6,0,8.9-2.3,8.9-6c0-2.8-2.1-4.8-6.2-5.7L1110,547.5z"
		/>
	<path fill="#9AD2E6" d="M1139.1,565.2v-56.5h6V546l18.3-20.2h7.8l-15.4,16.7l16.3,22.8h-7.7l-12.9-18.1l-6.4,7v11.1H1139.1z"/>
	<path fill="#9AD2E6" d="M1219.8,580.9h-6.5l6-15.2l-16.4-40h6.7l13,32.8l12.7-32.8h6.6L1219.8,580.9z"/>
	<path fill="#9AD2E6" d="M1252.1,560.1c-3.8-4-5.6-8.9-5.6-14.7s1.9-10.6,5.6-14.7c3.8-4,8.5-6,14.2-6c5.6,0,10.4,2,14.2,6
		c3.9,4,5.8,8.9,5.8,14.7s-1.9,10.6-5.7,14.7c-3.8,3.9-8.5,6-14.3,6C1260.6,566.1,1255.9,564.1,1252.1,560.1z M1276.2,556.3
		c2.6-2.9,3.9-6.5,3.9-10.8s-1.3-7.9-3.9-10.7c-2.6-2.9-5.9-4.4-9.9-4.4c-4,0-7.3,1.5-9.8,4.4c-2.6,2.8-3.9,6.4-3.9,10.7
		s1.3,7.9,3.9,10.8c2.6,2.8,5.9,4.3,9.8,4.3C1270.3,560.6,1273.6,559.1,1276.2,556.3z"/>
	<path fill="#9AD2E6" d="M1323.4,565.2v-5c-3.1,4-7.3,5.9-12.5,5.9c-9.9,0-14.8-5.8-14.8-17.4v-23h6v23.2c0,7.5,3.3,11.5,9.7,11.5
		c7.7,0,11.4-5.6,11.4-15.2v-19.6h6v39.5H1323.4z"/>
	<path fill="#9AD2E6" d="M1363.4,531c-0.4-0.1-0.9-0.1-1.4-0.1c-9.4,0-13.1,4.7-13.1,17.5v16.8h-6v-39.5h5.8v5.2
		c3.5-4.3,7.1-5.8,12.9-5.8c0.6,0,1.2,0,1.8,0.1V531z"/>
	<path fill="#9AD2E6" d="M738.1,629.3h-29.4c0.6,8.3,5.6,13.2,13.3,13.2c4.4,0,8.1-1.9,11.3-5.8l4.1,3.8c-4.2,5.1-9.4,7.6-15.4,7.6
		c-5.9,0-10.6-1.9-14.2-5.6c-3.5-3.8-5.2-8.7-5.2-14.8c0-6,1.6-11,4.8-14.9c3.3-4,7.7-6,13.1-6c4,0,7.4,1,10.2,3.1
		c5.6,4.2,7.5,10.2,7.5,16.7L738.1,629.3z M709,624h23.2c-0.6-7-4.9-11.6-11.4-11.6C714,612.4,710,617.2,709,624z"/>
	<path fill="#9AD2E6" d="M755.1,607.7v4.8c2.7-3.5,7.6-5.8,12.5-5.8c10.1,0,15.7,6.3,15.7,17.5v23h-6v-23.5
		c0-7.3-3.7-11.4-10.1-11.4c-7.7,0-11.9,5.9-11.9,15.3v19.6h-6v-39.5H755.1z"/>
	<path fill="#9AD2E6" d="M797.1,635.6v-22.4h-6.4v-5.5h6.4v-11h6v11h9.2v5.5H803v21.5c0,5.2,1.3,7.2,6,7.2l3.1-0.1v5.4
		c-1,0.1-2.3,0.2-3.7,0.2C800.8,647.4,797.1,644.1,797.1,635.6z"/>
	<path fill="#9AD2E6" d="M823.1,591.1c1.9-1.7,4.7-1.7,6.4,0c1.9,1.7,1.9,4.5,0,6.4c-1.7,1.7-4.5,1.7-6.4,0
		C821.4,595.6,821.4,592.8,823.1,591.1z M823.4,647.2v-39.5h6v39.5H823.4z"/>
	<path fill="#9AD2E6" d="M864.2,613c-0.4-0.1-0.9-0.1-1.4-0.1c-9.4,0-13.1,4.7-13.1,17.5v16.8h-6v-39.5h5.8v5.2
		c3.5-4.3,7.1-5.8,12.9-5.8c0.6,0,1.2,0,1.8,0.1V613z"/>
	<path fill="#9AD2E6" d="M905.8,629.3h-29.4c0.6,8.3,5.6,13.2,13.3,13.2c4.4,0,8.1-1.9,11.3-5.8l4.1,3.8c-4.2,5.1-9.4,7.6-15.4,7.6
		c-5.9,0-10.6-1.9-14.2-5.6c-3.5-3.8-5.2-8.7-5.2-14.8c0-6,1.6-11,4.8-14.9c3.3-4,7.7-6,13.1-6c4,0,7.4,1,10.2,3.1
		c5.6,4.2,7.5,10.2,7.5,16.7L905.8,629.3z M876.6,624h23.2c-0.6-7-4.9-11.6-11.4-11.6C881.7,612.4,877.7,617.2,876.6,624z"/>
	<path fill="#9AD2E6" d="M971.6,613v-22.2h6v56.5h-5.7v-5.4c-3.6,4.2-8.1,6.3-13.5,6.3c-5.4,0-9.8-2-13.2-6c-3.5-4-5.2-8.9-5.2-14.7
		s1.7-10.7,5.2-14.7c3.5-4,7.8-6,13.2-6C963.6,606.8,968.1,608.9,971.6,613z M946.1,627.5c0,4.4,1.1,8,3.5,10.8s5.4,4.3,9.4,4.3
		c3.9,0,7.1-1.5,9.4-4.3s3.5-6.4,3.5-10.8s-1.2-8-3.5-10.8s-5.5-4.3-9.4-4.3c-4,0-7,1.5-9.4,4.3S946.1,623.1,946.1,627.5z"/>
	<path fill="#9AD2E6" d="M1024.2,629.3h-29.4c0.6,8.3,5.6,13.2,13.3,13.2c4.4,0,8.1-1.9,11.3-5.8l4.1,3.8c-4.2,5.1-9.4,7.6-15.4,7.6
		c-5.9,0-10.6-1.9-14.2-5.6c-3.5-3.8-5.2-8.7-5.2-14.8c0-6,1.6-11,4.8-14.9c3.3-4,7.7-6,13.1-6c4,0,7.4,1,10.2,3.1
		c5.6,4.2,7.5,10.2,7.5,16.7L1024.2,629.3z M995,624h23.2c-0.6-7-4.9-11.6-11.4-11.6C1000.1,612.4,996,617.2,995,624z"/>
	<path fill="#9AD2E6" d="M1045.2,629.5c-7.5-1.8-11.2-5.6-11.2-11.4c0-3.5,1.4-6.3,4-8.3c2.7-2,5.9-3.1,9.6-3.1
		c5.2,0,9.9,2.1,14,6.4l-4,4.3c-3.2-3.4-6.7-5.1-10.4-5.1c-4.3,0-7.3,2.3-7.3,5.6c0,3,1.9,4.9,5.9,5.8l6.2,1.5
		c7.5,1.8,11.2,5.5,11.2,11.1c0,7-5.8,11.8-14.8,11.8c-6.8,0-12.7-3.2-16-7.4l4-4.1c3.2,4,7.2,6,11.9,6c5.6,0,8.9-2.3,8.9-6
		c0-2.8-2.1-4.8-6.2-5.7L1045.2,629.5z"/>
	<path fill="#9AD2E6" d="M1074.3,647.2v-56.5h6V628l18.3-20.2h7.8l-15.4,16.7l16.3,22.8h-7.7l-12.9-18.1l-6.4,7v11.1H1074.3z"/>
	<path fill="#9AD2E6" d="M1119.3,635.6v-22.4h-6.4v-5.5h6.4v-11h6v11h9.2v5.5h-9.2v21.5c0,5.2,1.3,7.2,6,7.2l3.1-0.1v5.4
		c-1,0.1-2.3,0.2-3.7,0.2C1123,647.4,1119.3,644.1,1119.3,635.6z"/>
	<path fill="#9AD2E6" d="M1148.3,642.1c-3.8-4-5.6-8.9-5.6-14.7s1.9-10.6,5.6-14.7c3.8-4,8.5-6,14.2-6c5.6,0,10.4,2,14.2,6
		c3.9,4,5.8,8.9,5.8,14.7s-1.9,10.6-5.7,14.7c-3.8,3.9-8.5,6-14.3,6C1156.9,648.1,1152.1,646.1,1148.3,642.1z M1172.4,638.3
		c2.6-2.9,3.9-6.5,3.9-10.8s-1.3-7.9-3.9-10.7c-2.6-2.9-5.9-4.4-9.9-4.4c-4,0-7.3,1.5-9.8,4.4c-2.6,2.8-3.9,6.4-3.9,10.7
		s1.3,7.9,3.9,10.8c2.6,2.8,5.9,4.3,9.8,4.3C1166.6,642.6,1169.9,641.1,1172.4,638.3z"/>
	<path fill="#9AD2E6" d="M1199.5,662.9h-6v-55.1h5.8v5.4c3.6-4.3,8.1-6.4,13.5-6.4c5.4,0,9.8,2,13.2,6c3.5,4,5.2,8.9,5.2,14.7
		s-1.7,10.7-5.2,14.7c-3.5,3.9-7.8,6-13.2,6c-5.4,0-9.8-2-13.3-6.1V662.9z M1225.1,627.5c0-4.4-1.1-8-3.5-10.8s-5.4-4.3-9.4-4.3
		c-4,0-7.1,1.5-9.4,4.3s-3.5,6.4-3.5,10.8s1.1,8,3.5,10.8s5.5,4.3,9.4,4.3c3.9,0,7-1.5,9.4-4.3S1225.1,631.8,1225.1,627.5z"/>
	<path fill="#9AD2E6" d="M1251,643.4c0,2.7-2.1,4.8-4.9,4.8c-2.7,0-4.8-2.1-4.8-4.8s2.1-4.8,4.8-4.8
		C1248.9,638.5,1251,640.5,1251,643.4z"/>
</g>
</svg>
