<?xml version="1.0" encoding="utf-8"?>
<!-- Generator: Adobe Illustrator 19.1.0, SVG Export Plug-In . SVG Version: 6.00 Build 0)  -->
<svg version="1.1" baseProfile="tiny" xmlns="http://www.w3.org/2000/svg" xmlns:xlink="http://www.w3.org/1999/xlink"  xml:space="preserve">
<g id="Layer_4">
	<path fill="#FFFFFF" d="M12,0v1080h1920V0H12z M1484,856H459V252h1025V856z"/>
</g>
<g id="Layer_6">
	<g>
		<g>
			<path fill="#B8B9BA" d="M604.4,317.4c5.2-5.5,11.6-8.3,19.3-8.3c7.7,0,14.3,2.7,19.5,8.3c5.3,5.5,8,12.1,8,19.9
				c0,7.9-2.7,14.6-7.9,20s-11.8,8.2-19.6,8.2c-7.7,0-14.2-2.7-19.4-8.2c-5.1-5.5-7.7-12.2-7.7-20
				C596.6,329.4,599.2,322.8,604.4,317.4z M608.6,353.5c4,4.3,9.2,6.5,15.5,6.5c6.2,0,11.3-2.2,15.3-6.5c4-4.3,6-9.8,6-16.2
				c0-6.4-2-11.8-6-16.1c-4-4.4-9-6.6-15.3-6.6c-6.3,0-11.5,2.2-15.5,6.6c-4,4.3-6,9.7-6,16.1C602.6,343.7,604.6,349.2,608.6,353.5z
				"/>
			<path fill="#B8B9BA" d="M664.4,379.8h-5.8v-53.4h5.6v5.2c3.5-4.1,7.9-6.2,13-6.2c5.2,0,9.4,2,12.8,5.9c3.4,3.8,5,8.6,5,14.2
				s-1.6,10.4-5,14.2c-3.4,3.8-7.6,5.8-12.8,5.8s-9.5-2-12.9-5.9V379.8z M689.2,345.5c0-4.2-1.1-7.7-3.4-10.5
				c-2.3-2.7-5.2-4.1-9-4.1s-6.9,1.4-9.1,4.1c-2.3,2.7-3.4,6.2-3.4,10.5s1.1,7.7,3.4,10.5c2.3,2.7,5.3,4.1,9.1,4.1s6.8-1.4,9-4.1
				S689.2,349.7,689.2,345.5z"/>
			<path fill="#B8B9BA" d="M736.5,347.3H708c0.5,8,5.4,12.8,12.9,12.8c4.3,0,7.9-1.9,10.9-5.6l4,3.7c-4.1,4.9-9,7.3-14.9,7.3
				c-5.7,0-10.3-1.8-13.7-5.5c-3.4-3.7-5.1-8.4-5.1-14.3c0-5.8,1.6-10.6,4.7-14.4c3.2-3.9,7.4-5.9,12.7-5.9c3.9,0,7.2,1,9.8,3
				c5.4,4.1,7.3,9.8,7.3,16.1L736.5,347.3z M708.3,342.2h22.5c-0.5-6.8-4.8-11.2-11.1-11.2C713.2,330.9,709.3,335.5,708.3,342.2z"/>
			<path fill="#B8B9BA" d="M750.5,326.4v4.7c2.6-3.4,7.3-5.6,12.1-5.6c9.8,0,15.2,6.1,15.2,16.9v22.2H772v-22.7
				c0-7.1-3.6-11.1-9.8-11.1c-7.5,0-11.5,5.7-11.5,14.8v19h-5.8v-38.2H750.5z"/>
			<path fill="#B8B9BA" d="M834.5,364.6v-4.8c-3,3.8-7,5.7-12.1,5.7c-9.6,0-14.4-5.6-14.4-16.8v-22.2h5.8v22.5
				c0,7.3,3.2,11.2,9.4,11.2c7.4,0,11.1-5.4,11.1-14.7v-19h5.8v38.2H834.5z"/>
			<path fill="#B8B9BA" d="M856.8,379.8H851v-53.4h5.6v5.2c3.5-4.1,7.9-6.2,13-6.2c5.2,0,9.4,2,12.8,5.9c3.4,3.8,5,8.6,5,14.2
				s-1.6,10.4-5,14.2s-7.6,5.8-12.8,5.8c-5.2,0-9.5-2-12.9-5.9V379.8z M881.5,345.5c0-4.2-1.1-7.7-3.4-10.5c-2.3-2.7-5.2-4.1-9-4.1
				s-6.9,1.4-9.1,4.1c-2.3,2.7-3.4,6.2-3.4,10.5s1.1,7.7,3.4,10.5s5.3,4.1,9.1,4.1s6.8-1.4,9-4.1S881.5,349.7,881.5,345.5z"/>
			<path fill="#B8B9BA" d="M915.7,353.9c0-7.6,5.7-12,14.1-12c2.8,0,6.3,0.6,10.5,1.9v-3.9c0-5.7-3.8-9-9.4-9c-4.7,0-8.4,2.8-10,6.3
				l-4-3.7c3-5.3,7.7-8,14-8c9.3,0,15.1,5.4,15.1,15v24.2h-5.6v-4c-2.9,3.2-6.8,4.8-11.9,4.8C921.3,365.5,915.7,361.1,915.7,353.9z
				 M928.8,360.3c4.7,0,9-2.7,11.4-6.1v-5.1c-3.7-1.2-7.1-1.9-10.1-1.9c-5.9,0-8.7,2.7-8.7,6.8C921.4,357.8,924.5,360.3,928.8,360.3
				z"/>
			<path fill="#B8B9BA" d="M962.1,326.4v4.7c2.6-3.4,7.3-5.6,12.1-5.6c9.8,0,15.2,6.1,15.2,16.9v22.2h-5.9v-22.7
				c0-7.1-3.6-11.1-9.8-11.1c-7.5,0-11.5,5.7-11.5,14.8v19h-5.8v-38.2H962.1z"/>
			<path fill="#B8B9BA" d="M1010.1,379.8h-6.3l5.8-14.7l-15.8-38.7h6.5l12.6,31.7l12.3-31.7h6.4L1010.1,379.8z"/>
			<path fill="#B8B9BA" d="M1057.5,353.9c0-7.6,5.7-12,14.1-12c2.8,0,6.3,0.6,10.5,1.9v-3.9c0-5.7-3.8-9-9.4-9
				c-4.7,0-8.4,2.8-10,6.3l-4-3.7c3-5.3,7.7-8,14-8c9.3,0,15.1,5.4,15.1,15v24.2h-5.6v-4c-2.9,3.2-6.8,4.8-11.9,4.8
				C1063.1,365.5,1057.5,361.1,1057.5,353.9z M1070.6,360.3c4.7,0,9-2.7,11.4-6.1v-5.1c-3.7-1.2-7.1-1.9-10.1-1.9
				c-5.9,0-8.7,2.7-8.7,6.8C1063.2,357.8,1066.3,360.3,1070.6,360.3z"/>
			<path fill="#B8B9BA" d="M1104.1,379.8h-5.8v-53.4h5.6v5.2c3.5-4.1,7.9-6.2,13-6.2c5.2,0,9.4,2,12.8,5.9c3.4,3.8,5,8.6,5,14.2
				s-1.6,10.4-5,14.2s-7.6,5.8-12.8,5.8c-5.2,0-9.5-2-12.9-5.9V379.8z M1128.8,345.5c0-4.2-1.1-7.7-3.4-10.5c-2.3-2.7-5.2-4.1-9-4.1
				s-6.9,1.4-9.1,4.1c-2.3,2.7-3.4,6.2-3.4,10.5s1.1,7.7,3.4,10.5s5.3,4.1,9.1,4.1s6.8-1.4,9-4.1
				C1127.7,353.2,1128.8,349.7,1128.8,345.5z"/>
			<path fill="#B8B9BA" d="M1148.9,379.8h-5.8v-53.4h5.6v5.2c3.5-4.1,7.9-6.2,13-6.2c5.2,0,9.4,2,12.8,5.9c3.4,3.8,5,8.6,5,14.2
				s-1.6,10.4-5,14.2c-3.4,3.8-7.6,5.8-12.8,5.8s-9.5-2-12.9-5.9V379.8z M1173.6,345.5c0-4.2-1.1-7.7-3.4-10.5
				c-2.3-2.7-5.2-4.1-9-4.1s-6.9,1.4-9.1,4.1c-2.3,2.7-3.4,6.2-3.4,10.5s1.1,7.7,3.4,10.5c2.3,2.7,5.3,4.1,9.1,4.1s6.8-1.4,9-4.1
				C1172.5,353.2,1173.6,349.7,1173.6,345.5z"/>
			<path fill="#B8B9BA" d="M1221.9,379.8h-6.3l5.8-14.7l-15.8-38.7h6.5l12.6,31.7l12.3-31.7h6.4L1221.9,379.8z"/>
			<path fill="#B8B9BA" d="M1250.8,359.7c-3.7-3.9-5.5-8.7-5.5-14.2s1.8-10.3,5.5-14.2c3.7-3.9,8.3-5.9,13.7-5.9s10.1,2,13.7,5.9
				c3.7,3.9,5.6,8.7,5.6,14.2s-1.9,10.3-5.5,14.2c-3.7,3.8-8.3,5.8-13.8,5.8C1259.1,365.5,1254.5,363.5,1250.8,359.7z M1274.1,356
				c2.5-2.8,3.7-6.3,3.7-10.5c0-4.1-1.2-7.6-3.7-10.4c-2.5-2.8-5.7-4.2-9.6-4.2c-3.8,0-7,1.4-9.5,4.2c-2.5,2.7-3.7,6.2-3.7,10.4
				c0,4.1,1.2,7.6,3.7,10.5c2.5,2.7,5.7,4.1,9.5,4.1C1268.4,360.1,1271.6,358.7,1274.1,356z"/>
			<path fill="#B8B9BA" d="M1317.5,364.6v-4.8c-3,3.8-7,5.7-12.1,5.7c-9.6,0-14.4-5.6-14.4-16.8v-22.2h5.8v22.5
				c0,7.3,3.2,11.2,9.4,11.2c7.4,0,11.1-5.4,11.1-14.7v-19h5.8v38.2H1317.5z"/>
			<path fill="#B8B9BA" d="M599.3,444.6v-54.7h5.8v54.7H599.3z"/>
			<path fill="#B8B9BA" d="M616.4,390.3c1.8-1.6,4.5-1.6,6.2,0c1.8,1.6,1.8,4.4,0,6.2c-1.6,1.6-4.4,1.6-6.2,0
				C614.7,394.7,614.7,392,616.4,390.3z M616.6,444.6v-38.2h5.8v38.2H616.6z"/>
			<path fill="#B8B9BA" d="M634,444.6v-54.7h5.8v36l17.7-19.6h7.6l-14.9,16.1l15.8,22.1h-7.4L646,427.1l-6.2,6.8v10.8H634z"/>
			<path fill="#B8B9BA" d="M703.3,427.3h-28.5c0.5,8,5.4,12.8,12.9,12.8c4.3,0,7.9-1.9,10.9-5.6l4,3.7c-4.1,4.9-9,7.3-14.9,7.3
				c-5.7,0-10.3-1.8-13.7-5.5c-3.4-3.7-5.1-8.4-5.1-14.3c0-5.8,1.6-10.6,4.7-14.4c3.2-3.9,7.4-5.9,12.7-5.9c3.9,0,7.2,1,9.8,3
				c5.4,4.1,7.3,9.8,7.3,16.1L703.3,427.3z M675.1,422.2h22.5c-0.5-6.8-4.8-11.2-11.1-11.2C680,410.9,676.1,415.5,675.1,422.2z"/>
			<path fill="#B8B9BA" d="M710.8,454.4h-6.2l7.4-18.6h7.3L710.8,454.4z"/>
			<path fill="#B8B9BA" d="M748.4,433.9c0-7.6,5.7-12,14.1-12c2.8,0,6.3,0.6,10.5,1.9v-3.9c0-5.7-3.8-9-9.4-9c-4.7,0-8.4,2.8-10,6.3
				l-4-3.7c3-5.3,7.7-8,14-8c9.3,0,15.1,5.4,15.1,15v24.2h-5.6v-4c-2.9,3.2-6.8,4.8-11.9,4.8C754,445.5,748.4,441.1,748.4,433.9z
				 M761.6,440.3c4.7,0,9-2.7,11.4-6.1v-5.1c-3.7-1.2-7.1-1.9-10.1-1.9c-5.9,0-8.7,2.7-8.7,6.8C754.2,437.8,757.2,440.3,761.6,440.3
				z"/>
			<path fill="#B8B9BA" d="M794.9,406.4v4.7c2.6-3.4,7.3-5.6,12.1-5.6c9.8,0,15.2,6.1,15.2,16.9v22.2h-5.9v-22.7
				c0-7.1-3.6-11.1-9.8-11.1c-7.5,0-11.5,5.7-11.5,14.8v19h-5.8v-38.2H794.9z"/>
			<path fill="#B8B9BA" d="M860.7,411.5v-21.5h5.8v54.7H861v-5.2c-3.5,4.1-7.9,6.1-13.1,6.1s-9.4-2-12.8-5.8c-3.4-3.8-5-8.6-5-14.2
				s1.6-10.4,5-14.2c3.4-3.9,7.6-5.9,12.8-5.9C853,405.5,857.3,407.5,860.7,411.5z M836,425.5c0,4.2,1.1,7.7,3.4,10.5s5.2,4.1,9,4.1
				s6.9-1.4,9.1-4.1c2.3-2.7,3.4-6.2,3.4-10.5s-1.2-7.7-3.4-10.5c-2.3-2.7-5.3-4.1-9.1-4.1s-6.8,1.4-9,4.1
				C837.1,417.8,836,421.3,836,425.5z"/>
			<path fill="#B8B9BA" d="M900.1,433.4v-21.7h-6.2v-5.3h6.2v-10.7h5.8v10.7h8.9v5.3h-8.9v20.8c0,5,1.2,6.9,5.9,6.9l3-0.1v5.2
				c-1,0.1-2.3,0.2-3.6,0.2C903.7,444.8,900.1,441.6,900.1,433.4z"/>
			<path fill="#B8B9BA" d="M942.5,411.5c-0.4-0.1-0.9-0.1-1.3-0.1c-9,0-12.7,4.5-12.7,16.9v16.3h-5.8v-38.2h5.6v5.1
				c3.4-4.1,6.9-5.6,12.5-5.6c0.5,0,1.2,0,1.7,0.1V411.5z"/>
			<path fill="#B8B9BA" d="M961.8,459.8h-6.3l5.8-14.7l-15.8-38.7h6.5l12.6,31.7l12.3-31.7h6.4L961.8,459.8z"/>
			<path fill="#B8B9BA" d="M1011.3,390.3c1.8-1.6,4.5-1.6,6.2,0c1.8,1.6,1.8,4.4,0,6.2c-1.6,1.6-4.4,1.6-6.2,0
				C1009.6,394.7,1009.6,392,1011.3,390.3z M1011.5,444.6v-38.2h5.8v38.2H1011.5z"/>
			<path fill="#B8B9BA" d="M1029.8,433.4v-21.7h-6.2v-5.3h6.2v-10.7h5.8v10.7h8.9v5.3h-8.9v20.8c0,5,1.2,6.9,5.9,6.9l3-0.1v5.2
				c-1,0.1-2.3,0.2-3.6,0.2C1033.4,444.8,1029.8,441.6,1029.8,433.4z"/>
			<path fill="#B8B9BA" d="M1099.3,444.6v-4.8c-3,3.8-7,5.7-12.1,5.7c-9.6,0-14.4-5.6-14.4-16.8v-22.2h5.8v22.5
				c0,7.3,3.2,11.2,9.4,11.2c7.4,0,11.1-5.4,11.1-14.7v-19h5.8v38.2H1099.3z"/>
			<path fill="#B8B9BA" d="M1121.5,406.4v4.7c2.6-3.4,7.3-5.6,12.1-5.6c9.8,0,15.2,6.1,15.2,16.9v22.2h-5.9v-22.7
				c0-7.1-3.6-11.1-9.8-11.1c-7.5,0-11.5,5.7-11.5,14.8v19h-5.8v-38.2H1121.5z"/>
			<path fill="#B8B9BA" d="M1187.3,411.5v-21.5h5.8v54.7h-5.5v-5.2c-3.5,4.1-7.9,6.1-13.1,6.1c-5.2,0-9.4-2-12.8-5.8
				c-3.4-3.8-5-8.6-5-14.2s1.6-10.4,5-14.2c3.4-3.9,7.6-5.9,12.8-5.9C1179.6,405.5,1183.9,407.5,1187.3,411.5z M1162.6,425.5
				c0,4.2,1.1,7.7,3.4,10.5c2.3,2.7,5.2,4.1,9,4.1s6.9-1.4,9.1-4.1c2.3-2.7,3.4-6.2,3.4-10.5s-1.2-7.7-3.4-10.5
				c-2.3-2.7-5.3-4.1-9.1-4.1s-6.8,1.4-9,4.1C1163.7,417.8,1162.6,421.3,1162.6,425.5z"/>
			<path fill="#B8B9BA" d="M1235.8,427.3h-28.5c0.5,8,5.4,12.8,12.9,12.8c4.3,0,7.9-1.9,10.9-5.6l4,3.7c-4.1,4.9-9,7.3-14.9,7.3
				c-5.7,0-10.3-1.8-13.7-5.5c-3.4-3.7-5.1-8.4-5.1-14.3c0-5.8,1.6-10.6,4.7-14.4c3.2-3.9,7.4-5.9,12.7-5.9c3.9,0,7.2,1,9.8,3
				c5.4,4.1,7.3,9.8,7.3,16.1L1235.8,427.3z M1207.6,422.2h22.5c-0.5-6.8-4.8-11.2-11.1-11.2
				C1212.5,410.9,1208.6,415.5,1207.6,422.2z"/>
			<path fill="#B8B9BA" d="M1264.1,411.5c-0.4-0.1-0.9-0.1-1.3-0.1c-9,0-12.7,4.5-12.7,16.9v16.3h-5.8v-38.2h5.6v5.1
				c3.4-4.1,6.9-5.6,12.5-5.6c0.5,0,1.2,0,1.7,0.1V411.5z"/>
			<path fill="#B8B9BA" d="M611.6,539.8h-6.3l5.8-14.7l-15.8-38.7h6.5l12.6,31.7l12.3-31.7h6.4L611.6,539.8z"/>
			<path fill="#B8B9BA" d="M640.6,519.7c-3.7-3.9-5.5-8.7-5.5-14.2s1.8-10.3,5.5-14.2c3.7-3.9,8.3-5.8,13.7-5.8
				c5.5,0,10.1,2,13.7,5.8c3.7,3.9,5.6,8.7,5.6,14.2s-1.9,10.3-5.5,14.2c-3.7,3.8-8.3,5.8-13.8,5.8
				C648.8,525.5,644.2,523.5,640.6,519.7z M663.9,516c2.5-2.8,3.7-6.3,3.7-10.5c0-4.1-1.2-7.6-3.7-10.4c-2.5-2.8-5.7-4.2-9.6-4.2
				c-3.8,0-7,1.4-9.5,4.2c-2.5,2.7-3.7,6.2-3.7,10.4c0,4.1,1.2,7.6,3.7,10.5c2.5,2.7,5.7,4.1,9.5,4.1
				C658.2,520.1,661.4,518.7,663.9,516z"/>
			<path fill="#B8B9BA" d="M707.2,524.6v-4.8c-3,3.8-7,5.7-12.1,5.7c-9.6,0-14.4-5.6-14.4-16.8v-22.2h5.8v22.5
				c0,7.3,3.2,11.2,9.4,11.2c7.4,0,11.1-5.4,11.1-14.7v-19h5.8v38.2H707.2z"/>
			<path fill="#B8B9BA" d="M743.6,491.5c-0.4-0.1-0.9-0.1-1.3-0.1c-9,0-12.7,4.5-12.7,16.9v16.3h-5.8v-38.2h5.6v5.1
				c3.4-4.1,6.9-5.6,12.5-5.6c0.5,0,1.2,0,1.7,0.1V491.5z"/>
			<path fill="#B8B9BA" d="M777.1,486.4v4.6c2.2-3.1,6.4-5.5,11-5.5c5.2,0,9,2.1,11.4,6.3c2.9-4.2,6.9-6.3,11.9-6.3
				c9.8,0,14.7,5.6,14.7,16.9v22.2h-5.8v-22.7c0-7.4-3-11.1-8.9-11.1c-6.3,0-9.8,4.6-9.8,12.7v21.1h-5.8v-22.3
				c0-7.6-2.9-11.5-8.6-11.5c-6.6,0-10.1,4.6-10.1,12.7v21.1h-5.8v-38.2H777.1z"/>
			<path fill="#B8B9BA" d="M834,513.9c0-7.6,5.7-12,14.1-12c2.8,0,6.3,0.6,10.5,1.9v-3.9c0-5.7-3.8-9-9.4-9c-4.7,0-8.4,2.8-10,6.3
				l-4-3.7c3-5.3,7.7-8,14-8c9.3,0,15.1,5.4,15.1,15v24.2h-5.6v-4c-2.9,3.2-6.8,4.8-11.9,4.8C839.6,525.5,834,521.1,834,513.9z
				 M847.2,520.3c4.7,0,9-2.7,11.4-6.1v-5.1c-3.7-1.2-7.1-1.9-10.1-1.9c-5.9,0-8.7,2.7-8.7,6.8C839.8,517.8,842.8,520.3,847.2,520.3
				z"/>
			<path fill="#B8B9BA" d="M883.6,507.5c-7.3-1.7-10.8-5.4-10.8-11c0-3.4,1.3-6.1,3.9-8c2.6-2,5.7-3,9.3-3c5.1,0,9.6,2,13.6,6.2
				l-3.9,4.1c-3.1-3.3-6.5-4.9-10.1-4.9c-4.1,0-7,2.2-7,5.4c0,2.9,1.9,4.8,5.7,5.6l6,1.4c7.3,1.7,10.8,5.3,10.8,10.8
				c0,6.8-5.6,11.5-14.3,11.5c-6.6,0-12.3-3.1-15.4-7.2l3.8-4c3.1,3.9,6.9,5.9,11.5,5.9c5.4,0,8.6-2.2,8.6-5.9c0-2.7-2-4.6-6-5.5
				L883.6,507.5z"/>
			<path fill="#B8B9BA" d="M909.4,524.6v-54.7h5.8v36l17.7-19.6h7.6l-14.9,16.1l15.8,22.1h-7.4l-12.5-17.6l-6.2,6.8v10.8H909.4z"/>
			<path fill="#B8B9BA" d="M957.7,520.9c0,2.6-2,4.6-4.8,4.6c-2.6,0-4.6-2-4.6-4.6s2-4.7,4.6-4.7
				C955.7,516.2,957.7,518.2,957.7,520.9z"/>
			<path fill="#B8B9BA" d="M595.7,629.9h40.4v5.6h-17.5v49.1h-5.9v-49.1h-17V629.9z"/>
			<path fill="#B8B9BA" d="M658,651.5c-0.4-0.1-0.9-0.1-1.3-0.1c-9,0-12.7,4.5-12.7,16.9v16.3h-5.8v-38.2h5.6v5.1
				c3.4-4.1,6.9-5.6,12.5-5.6c0.5,0,1.2,0,1.7,0.1V651.5z"/>
			<path fill="#B8B9BA" d="M677.4,699.8h-6.3l5.8-14.7L661,646.4h6.5l12.6,31.7l12.3-31.7h6.4L677.4,699.8z"/>
			<path fill="#B8B9BA" d="M724.7,673.9c0-7.6,5.7-12,14.1-12c2.8,0,6.3,0.6,10.5,1.9v-3.9c0-5.7-3.8-9-9.4-9c-4.7,0-8.4,2.8-10,6.3
				l-4-3.7c3-5.3,7.7-8,14-8c9.3,0,15.1,5.4,15.1,15v24.2h-5.6v-4c-2.9,3.2-6.8,4.8-11.9,4.8C730.3,685.5,724.7,681.1,724.7,673.9z
				 M737.9,680.3c4.7,0,9-2.7,11.4-6.1v-5.1c-3.7-1.2-7.1-1.9-10.1-1.9c-5.9,0-8.7,2.7-8.7,6.8C730.5,677.8,733.5,680.3,737.9,680.3
				z"/>
			<path fill="#B8B9BA" d="M786.4,684.6v-54.7h5.8v54.7H786.4z"/>
			<path fill="#B8B9BA" d="M806,679.7c-3.7-3.9-5.5-8.7-5.5-14.2s1.8-10.3,5.5-14.2c3.7-3.9,8.3-5.8,13.7-5.8c5.5,0,10.1,2,13.7,5.8
				c3.7,3.9,5.6,8.7,5.6,14.2s-1.9,10.3-5.5,14.2c-3.7,3.8-8.3,5.8-13.8,5.8C814.3,685.5,809.7,683.5,806,679.7z M829.3,676
				c2.5-2.8,3.7-6.3,3.7-10.5c0-4.1-1.2-7.6-3.7-10.4c-2.5-2.8-5.7-4.2-9.6-4.2c-3.8,0-7,1.4-9.5,4.2c-2.5,2.7-3.7,6.2-3.7,10.4
				c0,4.1,1.2,7.6,3.7,10.5c2.5,2.7,5.7,4.1,9.5,4.1C823.6,680.1,826.8,678.7,829.3,676z"/>
			<path fill="#B8B9BA" d="M848.3,673.4v-21.7h-6.2v-5.3h6.2v-10.7h5.8v10.7h8.9v5.3h-8.9v20.8c0,5,1.2,6.9,5.9,6.9l3-0.1v5.2
				c-1,0.1-2.3,0.2-3.6,0.2C851.9,684.8,848.3,681.6,848.3,673.4z"/>
			<path fill="#B8B9BA" d="M896.2,679.7c-3.7-3.9-5.5-8.7-5.5-14.2s1.8-10.3,5.5-14.2c3.7-3.9,8.3-5.8,13.7-5.8
				c5.5,0,10.1,2,13.7,5.8c3.7,3.9,5.6,8.7,5.6,14.2s-1.9,10.3-5.5,14.2c-3.7,3.8-8.3,5.8-13.8,5.8
				C904.5,685.5,899.9,683.5,896.2,679.7z M919.6,676c2.5-2.8,3.7-6.3,3.7-10.5c0-4.1-1.2-7.6-3.7-10.4c-2.5-2.8-5.7-4.2-9.6-4.2
				c-3.8,0-7,1.4-9.5,4.2c-2.5,2.7-3.7,6.2-3.7,10.4c0,4.1,1.2,7.6,3.7,10.5c2.5,2.7,5.7,4.1,9.5,4.1
				C913.9,680.1,917.1,678.7,919.6,676z"/>
			<path fill="#B8B9BA" d="M954.1,630v5.2h-2c-5.7,0-7.7,2.6-7.7,8.3v2.9h8.9v5.3h-8.9v32.9h-5.8v-32.9h-6.2v-5.3h6.2v-2.9
				c0-9.4,4.6-13.6,13.4-13.6L954.1,630z"/>
			<path fill="#B8B9BA" d="M983.8,673.4v-21.7h-6.2v-5.3h6.2v-10.7h5.8v10.7h8.9v5.3h-8.9v20.8c0,5,1.2,6.9,5.9,6.9l3-0.1v5.2
				c-1,0.1-2.3,0.2-3.6,0.2C987.3,684.8,983.8,681.6,983.8,673.4z"/>
			<path fill="#B8B9BA" d="M1012.1,629.9V651c2.6-3.4,7.2-5.5,11.9-5.5c9.8,0,15.2,6.1,15.2,16.9v22.2h-5.9v-22.7
				c0-7.1-3.6-11.1-9.8-11.1c-7.5,0-11.5,5.7-11.5,14.8v19h-5.8v-54.7H1012.1z"/>
			<path fill="#B8B9BA" d="M1080.2,667.3h-28.5c0.5,8,5.4,12.8,12.9,12.8c4.3,0,7.9-1.9,10.9-5.6l4,3.7c-4.1,4.9-9,7.3-14.9,7.3
				c-5.7,0-10.3-1.8-13.7-5.5c-3.4-3.7-5.1-8.4-5.1-14.3c0-5.8,1.6-10.6,4.7-14.4c3.2-3.9,7.4-5.8,12.7-5.8c3.9,0,7.2,1,9.8,3
				c5.4,4.1,7.3,9.8,7.3,16.1L1080.2,667.3z M1051.9,662.2h22.5c-0.5-6.8-4.8-11.2-11.1-11.2
				C1056.8,650.9,1052.9,655.5,1051.9,662.2z"/>
			<path fill="#B8B9BA" d="M1094.2,646.4v4.6c2.2-3.1,6.4-5.5,11-5.5c5.2,0,9,2.1,11.4,6.3c2.9-4.2,6.9-6.3,11.9-6.3
				c9.8,0,14.7,5.6,14.7,16.9v22.2h-5.8v-22.7c0-7.4-3-11.1-8.9-11.1c-6.3,0-9.8,4.6-9.8,12.7v21.1h-5.8v-22.3
				c0-7.6-2.9-11.5-8.6-11.5c-6.6,0-10.1,4.6-10.1,12.7v21.1h-5.8v-38.2H1094.2z"/>
			<path fill="#B8B9BA" d="M1163.2,680.9c0,2.6-2,4.6-4.8,4.6c-2.6,0-4.6-2-4.6-4.6s2-4.7,4.6-4.7
				C1161.1,676.2,1163.2,678.2,1163.2,680.9z"/>
			<path fill="#B8B9BA" d="M634.9,764.6v-25h-29.7v25h-5.9v-54.7h5.9v24h29.7v-24h5.9v54.7H634.9z"/>
			<path fill="#B8B9BA" d="M649.2,753.9c0-7.6,5.7-12,14.1-12c2.8,0,6.3,0.6,10.5,1.9v-3.9c0-5.7-3.8-9-9.4-9c-4.7,0-8.4,2.8-10,6.3
				l-4-3.7c3-5.3,7.7-8,14-8c9.3,0,15.1,5.4,15.1,15v24.2h-5.6v-4c-2.9,3.2-6.8,4.8-11.9,4.8C654.8,765.5,649.2,761.1,649.2,753.9z
				 M662.4,760.3c4.7,0,9-2.7,11.4-6.1v-5.1c-3.7-1.2-7.1-1.9-10.1-1.9c-5.9,0-8.7,2.7-8.7,6.8C655,757.8,658,760.3,662.4,760.3z"/>
			<path fill="#B8B9BA" d="M718.9,726.4l-14.5,38.2h-6.1l-14.5-38.2h6.3l11.2,31.2l11.2-31.2H718.9z"/>
			<path fill="#B8B9BA" d="M756.3,747.3h-28.5c0.5,8,5.4,12.8,12.9,12.8c4.3,0,7.9-1.9,10.9-5.6l4,3.7c-4.1,4.9-9,7.3-14.9,7.3
				c-5.7,0-10.3-1.8-13.7-5.5c-3.4-3.7-5.1-8.4-5.1-14.3c0-5.8,1.6-10.6,4.7-14.4c3.2-3.9,7.4-5.8,12.7-5.8c3.9,0,7.2,1,9.8,3
				c5.4,4.1,7.3,9.8,7.3,16.1L756.3,747.3z M728.1,742.2h22.5c-0.5-6.8-4.8-11.2-11.1-11.2C733,730.9,729.1,735.5,728.1,742.2z"/>
			<path fill="#B8B9BA" d="M803.7,710v5.2h-2c-5.7,0-7.7,2.6-7.7,8.3v2.9h8.9v5.3H794v32.9h-5.8v-32.9H782v-5.3h6.2v-2.9
				c0-9.4,4.6-13.6,13.4-13.6L803.7,710z"/>
			<path fill="#B8B9BA" d="M835.6,764.6v-4.8c-3,3.8-7,5.7-12.1,5.7c-9.6,0-14.4-5.6-14.4-16.8v-22.2h5.8v22.5
				c0,7.3,3.2,11.2,9.4,11.2c7.4,0,11.1-5.4,11.1-14.7v-19h5.8v38.2H835.6z"/>
			<path fill="#B8B9BA" d="M857.8,726.4v4.7c2.6-3.4,7.3-5.6,12.1-5.6c9.8,0,15.2,6.1,15.2,16.9v22.2h-5.9v-22.7
				c0-7.1-3.6-11.1-9.8-11.1c-7.5,0-11.5,5.7-11.5,14.8v19h-5.8v-38.2H857.8z"/>
			<path fill="#B8B9BA" d="M895.6,774.4h-6.2l7.4-18.6h7.3L895.6,774.4z"/>
			<path fill="#B8B9BA" d="M940.2,717.4c5.2-5.5,11.6-8.3,19.3-8.3c7.7,0,14.3,2.7,19.5,8.3c5.3,5.5,8,12.1,8,19.9
				c0,7.9-2.7,14.6-7.9,20c-5.2,5.5-11.8,8.2-19.6,8.2c-7.7,0-14.2-2.7-19.4-8.2c-5.1-5.5-7.7-12.2-7.7-20
				C932.4,729.4,934.9,722.8,940.2,717.4z M944.3,753.5c4,4.3,9.2,6.5,15.5,6.5c6.2,0,11.3-2.2,15.3-6.5s6-9.8,6-16.2
				c0-6.4-2-11.8-6-16.1c-4-4.4-9-6.6-15.3-6.6c-6.3,0-11.5,2.2-15.5,6.6c-4,4.3-6,9.7-6,16.1C938.3,743.7,940.3,749.2,944.3,753.5z
				"/>
			<path fill="#B8B9BA" d="M992.6,764.6v-54.7h6v31.6l25.5-31.6h6.9l-18.9,23.6l20.1,31.1h-7.2l-17.1-26.1l-9.4,11.7v14.4H992.6z"/>
			<path fill="#B8B9BA" d="M1052.5,748.2h-6v-12.6l2-0.1c8.8-0.4,13.7-5.1,13.7-11.1c0-5.7-4.6-9.8-10.8-9.8
				c-5.9,0-10.5,2.8-13.8,8.5l-4-4.4c4.1-5.9,10.3-9.7,17.8-9.7c4.8,0,8.8,1.4,12,4.2c3.2,2.7,4.8,6.4,4.8,10.9
				c0,8.2-5.9,14.8-15.6,16.4V748.2z M1054.3,760.9c0,2.6-2,4.6-4.8,4.6c-2.6,0-4.6-2-4.6-4.6s2-4.7,4.6-4.7
				C1052.2,756.2,1054.3,758.2,1054.3,760.9z"/>
		</g>
		<g>
			<path fill="#B8B9BA" d="M604.4,317.4c5.2-5.5,11.6-8.3,19.3-8.3c7.7,0,14.3,2.7,19.5,8.3c5.3,5.5,8,12.1,8,19.9
				c0,7.9-2.7,14.6-7.9,20s-11.8,8.2-19.6,8.2c-7.7,0-14.2-2.7-19.4-8.2c-5.1-5.5-7.7-12.2-7.7-20
				C596.6,329.4,599.2,322.8,604.4,317.4z M608.6,353.5c4,4.3,9.2,6.5,15.5,6.5c6.2,0,11.3-2.2,15.3-6.5c4-4.3,6-9.8,6-16.2
				c0-6.4-2-11.8-6-16.1c-4-4.4-9-6.6-15.3-6.6c-6.3,0-11.5,2.2-15.5,6.6c-4,4.3-6,9.7-6,16.1C602.6,343.7,604.6,349.2,608.6,353.5z
				"/>
			<path fill="#B8B9BA" d="M664.4,379.8h-5.8v-53.4h5.6v5.2c3.5-4.1,7.9-6.2,13-6.2c5.2,0,9.4,2,12.8,5.9c3.4,3.8,5,8.6,5,14.2
				s-1.6,10.4-5,14.2c-3.4,3.8-7.6,5.8-12.8,5.8s-9.5-2-12.9-5.9V379.8z M689.2,345.5c0-4.2-1.1-7.7-3.4-10.5
				c-2.3-2.7-5.2-4.1-9-4.1s-6.9,1.4-9.1,4.1c-2.3,2.7-3.4,6.2-3.4,10.5s1.1,7.7,3.4,10.5c2.3,2.7,5.3,4.1,9.1,4.1s6.8-1.4,9-4.1
				S689.2,349.7,689.2,345.5z"/>
			<path fill="#B8B9BA" d="M736.5,347.3H708c0.5,8,5.4,12.8,12.9,12.8c4.3,0,7.9-1.9,10.9-5.6l4,3.7c-4.1,4.9-9,7.3-14.9,7.3
				c-5.7,0-10.3-1.8-13.7-5.5c-3.4-3.7-5.1-8.4-5.1-14.3c0-5.8,1.6-10.6,4.7-14.4c3.2-3.9,7.4-5.9,12.7-5.9c3.9,0,7.2,1,9.8,3
				c5.4,4.1,7.3,9.8,7.3,16.1L736.5,347.3z M708.3,342.2h22.5c-0.5-6.8-4.8-11.2-11.1-11.2C713.2,330.9,709.3,335.5,708.3,342.2z"/>
			<path fill="#B8B9BA" d="M750.5,326.4v4.7c2.6-3.4,7.3-5.6,12.1-5.6c9.8,0,15.2,6.1,15.2,16.9v22.2H772v-22.7
				c0-7.1-3.6-11.1-9.8-11.1c-7.5,0-11.5,5.7-11.5,14.8v19h-5.8v-38.2H750.5z"/>
			<path fill="#B8B9BA" d="M834.5,364.6v-4.8c-3,3.8-7,5.7-12.1,5.7c-9.6,0-14.4-5.6-14.4-16.8v-22.2h5.8v22.5
				c0,7.3,3.2,11.2,9.4,11.2c7.4,0,11.1-5.4,11.1-14.7v-19h5.8v38.2H834.5z"/>
			<path fill="#B8B9BA" d="M856.8,379.8H851v-53.4h5.6v5.2c3.5-4.1,7.9-6.2,13-6.2c5.2,0,9.4,2,12.8,5.9c3.4,3.8,5,8.6,5,14.2
				s-1.6,10.4-5,14.2s-7.6,5.8-12.8,5.8c-5.2,0-9.5-2-12.9-5.9V379.8z M881.5,345.5c0-4.2-1.1-7.7-3.4-10.5c-2.3-2.7-5.2-4.1-9-4.1
				s-6.9,1.4-9.1,4.1c-2.3,2.7-3.4,6.2-3.4,10.5s1.1,7.7,3.4,10.5s5.3,4.1,9.1,4.1s6.8-1.4,9-4.1S881.5,349.7,881.5,345.5z"/>
			<path fill="#B8B9BA" d="M915.7,353.9c0-7.6,5.7-12,14.1-12c2.8,0,6.3,0.6,10.5,1.9v-3.9c0-5.7-3.8-9-9.4-9c-4.7,0-8.4,2.8-10,6.3
				l-4-3.7c3-5.3,7.7-8,14-8c9.3,0,15.1,5.4,15.1,15v24.2h-5.6v-4c-2.9,3.2-6.8,4.8-11.9,4.8C921.3,365.5,915.7,361.1,915.7,353.9z
				 M928.8,360.3c4.7,0,9-2.7,11.4-6.1v-5.1c-3.7-1.2-7.1-1.9-10.1-1.9c-5.9,0-8.7,2.7-8.7,6.8C921.4,357.8,924.5,360.3,928.8,360.3
				z"/>
			<path fill="#B8B9BA" d="M962.1,326.4v4.7c2.6-3.4,7.3-5.6,12.1-5.6c9.8,0,15.2,6.1,15.2,16.9v22.2h-5.9v-22.7
				c0-7.1-3.6-11.1-9.8-11.1c-7.5,0-11.5,5.7-11.5,14.8v19h-5.8v-38.2H962.1z"/>
			<path fill="#B8B9BA" d="M1010.1,379.8h-6.3l5.8-14.7l-15.8-38.7h6.5l12.6,31.7l12.3-31.7h6.4L1010.1,379.8z"/>
			<path fill="#B8B9BA" d="M1057.5,353.9c0-7.6,5.7-12,14.1-12c2.8,0,6.3,0.6,10.5,1.9v-3.9c0-5.7-3.8-9-9.4-9
				c-4.7,0-8.4,2.8-10,6.3l-4-3.7c3-5.3,7.7-8,14-8c9.3,0,15.1,5.4,15.1,15v24.2h-5.6v-4c-2.9,3.2-6.8,4.8-11.9,4.8
				C1063.1,365.5,1057.5,361.1,1057.5,353.9z M1070.6,360.3c4.7,0,9-2.7,11.4-6.1v-5.1c-3.7-1.2-7.1-1.9-10.1-1.9
				c-5.9,0-8.7,2.7-8.7,6.8C1063.2,357.8,1066.3,360.3,1070.6,360.3z"/>
			<path fill="#B8B9BA" d="M1104.1,379.8h-5.8v-53.4h5.6v5.2c3.5-4.1,7.9-6.2,13-6.2c5.2,0,9.4,2,12.8,5.9c3.4,3.8,5,8.6,5,14.2
				s-1.6,10.4-5,14.2s-7.6,5.8-12.8,5.8c-5.2,0-9.5-2-12.9-5.9V379.8z M1128.8,345.5c0-4.2-1.1-7.7-3.4-10.5c-2.3-2.7-5.2-4.1-9-4.1
				s-6.9,1.4-9.1,4.1c-2.3,2.7-3.4,6.2-3.4,10.5s1.1,7.7,3.4,10.5s5.3,4.1,9.1,4.1s6.8-1.4,9-4.1
				C1127.7,353.2,1128.8,349.7,1128.8,345.5z"/>
			<path fill="#B8B9BA" d="M1148.9,379.8h-5.8v-53.4h5.6v5.2c3.5-4.1,7.9-6.2,13-6.2c5.2,0,9.4,2,12.8,5.9c3.4,3.8,5,8.6,5,14.2
				s-1.6,10.4-5,14.2c-3.4,3.8-7.6,5.8-12.8,5.8s-9.5-2-12.9-5.9V379.8z M1173.6,345.5c0-4.2-1.1-7.7-3.4-10.5
				c-2.3-2.7-5.2-4.1-9-4.1s-6.9,1.4-9.1,4.1c-2.3,2.7-3.4,6.2-3.4,10.5s1.1,7.7,3.4,10.5c2.3,2.7,5.3,4.1,9.1,4.1s6.8-1.4,9-4.1
				C1172.5,353.2,1173.6,349.7,1173.6,345.5z"/>
			<path fill="#B8B9BA" d="M1221.9,379.8h-6.3l5.8-14.7l-15.8-38.7h6.5l12.6,31.7l12.3-31.7h6.4L1221.9,379.8z"/>
			<path fill="#B8B9BA" d="M1250.8,359.7c-3.7-3.9-5.5-8.7-5.5-14.2s1.8-10.3,5.5-14.2c3.7-3.9,8.3-5.9,13.7-5.9s10.1,2,13.7,5.9
				c3.7,3.9,5.6,8.7,5.6,14.2s-1.9,10.3-5.5,14.2c-3.7,3.8-8.3,5.8-13.8,5.8C1259.1,365.5,1254.5,363.5,1250.8,359.7z M1274.1,356
				c2.5-2.8,3.7-6.3,3.7-10.5c0-4.1-1.2-7.6-3.7-10.4c-2.5-2.8-5.7-4.2-9.6-4.2c-3.8,0-7,1.4-9.5,4.2c-2.5,2.7-3.7,6.2-3.7,10.4
				c0,4.1,1.2,7.6,3.7,10.5c2.5,2.7,5.7,4.1,9.5,4.1C1268.4,360.1,1271.6,358.7,1274.1,356z"/>
			<path fill="#B8B9BA" d="M1317.5,364.6v-4.8c-3,3.8-7,5.7-12.1,5.7c-9.6,0-14.4-5.6-14.4-16.8v-22.2h5.8v22.5
				c0,7.3,3.2,11.2,9.4,11.2c7.4,0,11.1-5.4,11.1-14.7v-19h5.8v38.2H1317.5z"/>
			<path fill="#B8B9BA" d="M599.3,444.6v-54.7h5.8v54.7H599.3z"/>
			<path fill="#B8B9BA" d="M616.4,390.3c1.8-1.6,4.5-1.6,6.2,0c1.8,1.6,1.8,4.4,0,6.2c-1.6,1.6-4.4,1.6-6.2,0
				C614.7,394.7,614.7,392,616.4,390.3z M616.6,444.6v-38.2h5.8v38.2H616.6z"/>
			<path fill="#B8B9BA" d="M634,444.6v-54.7h5.8v36l17.7-19.6h7.6l-14.9,16.1l15.8,22.1h-7.4L646,427.1l-6.2,6.8v10.8H634z"/>
			<path fill="#B8B9BA" d="M703.3,427.3h-28.5c0.5,8,5.4,12.8,12.9,12.8c4.3,0,7.9-1.9,10.9-5.6l4,3.7c-4.1,4.9-9,7.3-14.9,7.3
				c-5.7,0-10.3-1.8-13.7-5.5c-3.4-3.7-5.1-8.4-5.1-14.3c0-5.8,1.6-10.6,4.7-14.4c3.2-3.9,7.4-5.9,12.7-5.9c3.9,0,7.2,1,9.8,3
				c5.4,4.1,7.3,9.8,7.3,16.1L703.3,427.3z M675.1,422.2h22.5c-0.5-6.8-4.8-11.2-11.1-11.2C680,410.9,676.1,415.5,675.1,422.2z"/>
			<path fill="#B8B9BA" d="M710.8,454.4h-6.2l7.4-18.6h7.3L710.8,454.4z"/>
			<path fill="#B8B9BA" d="M748.4,433.9c0-7.6,5.7-12,14.1-12c2.8,0,6.3,0.6,10.5,1.9v-3.9c0-5.7-3.8-9-9.4-9c-4.7,0-8.4,2.8-10,6.3
				l-4-3.7c3-5.3,7.7-8,14-8c9.3,0,15.1,5.4,15.1,15v24.2h-5.6v-4c-2.9,3.2-6.8,4.8-11.9,4.8C754,445.5,748.4,441.1,748.4,433.9z
				 M761.6,440.3c4.7,0,9-2.7,11.4-6.1v-5.1c-3.7-1.2-7.1-1.9-10.1-1.9c-5.9,0-8.7,2.7-8.7,6.8C754.2,437.8,757.2,440.3,761.6,440.3
				z"/>
			<path fill="#B8B9BA" d="M794.9,406.4v4.7c2.6-3.4,7.3-5.6,12.1-5.6c9.8,0,15.2,6.1,15.2,16.9v22.2h-5.9v-22.7
				c0-7.1-3.6-11.1-9.8-11.1c-7.5,0-11.5,5.7-11.5,14.8v19h-5.8v-38.2H794.9z"/>
			<path fill="#B8B9BA" d="M860.7,411.5v-21.5h5.8v54.7H861v-5.2c-3.5,4.1-7.9,6.1-13.1,6.1s-9.4-2-12.8-5.8c-3.4-3.8-5-8.6-5-14.2
				s1.6-10.4,5-14.2c3.4-3.9,7.6-5.9,12.8-5.9C853,405.5,857.3,407.5,860.7,411.5z M836,425.5c0,4.2,1.1,7.7,3.4,10.5s5.2,4.1,9,4.1
				s6.9-1.4,9.1-4.1c2.3-2.7,3.4-6.2,3.4-10.5s-1.2-7.7-3.4-10.5c-2.3-2.7-5.3-4.1-9.1-4.1s-6.8,1.4-9,4.1
				C837.1,417.8,836,421.3,836,425.5z"/>
			<path fill="#B8B9BA" d="M900.1,433.4v-21.7h-6.2v-5.3h6.2v-10.7h5.8v10.7h8.9v5.3h-8.9v20.8c0,5,1.2,6.9,5.9,6.9l3-0.1v5.2
				c-1,0.1-2.3,0.2-3.6,0.2C903.7,444.8,900.1,441.6,900.1,433.4z"/>
			<path fill="#B8B9BA" d="M942.5,411.5c-0.4-0.1-0.9-0.1-1.3-0.1c-9,0-12.7,4.5-12.7,16.9v16.3h-5.8v-38.2h5.6v5.1
				c3.4-4.1,6.9-5.6,12.5-5.6c0.5,0,1.2,0,1.7,0.1V411.5z"/>
			<path fill="#B8B9BA" d="M961.8,459.8h-6.3l5.8-14.7l-15.8-38.7h6.5l12.6,31.7l12.3-31.7h6.4L961.8,459.8z"/>
			<path fill="#B8B9BA" d="M1011.3,390.3c1.8-1.6,4.5-1.6,6.2,0c1.8,1.6,1.8,4.4,0,6.2c-1.6,1.6-4.4,1.6-6.2,0
				C1009.6,394.7,1009.6,392,1011.3,390.3z M1011.5,444.6v-38.2h5.8v38.2H1011.5z"/>
			<path fill="#B8B9BA" d="M1029.8,433.4v-21.7h-6.2v-5.3h6.2v-10.7h5.8v10.7h8.9v5.3h-8.9v20.8c0,5,1.2,6.9,5.9,6.9l3-0.1v5.2
				c-1,0.1-2.3,0.2-3.6,0.2C1033.4,444.8,1029.8,441.6,1029.8,433.4z"/>
			<path fill="#B8B9BA" d="M1099.3,444.6v-4.8c-3,3.8-7,5.7-12.1,5.7c-9.6,0-14.4-5.6-14.4-16.8v-22.2h5.8v22.5
				c0,7.3,3.2,11.2,9.4,11.2c7.4,0,11.1-5.4,11.1-14.7v-19h5.8v38.2H1099.3z"/>
			<path fill="#B8B9BA" d="M1121.5,406.4v4.7c2.6-3.4,7.3-5.6,12.1-5.6c9.8,0,15.2,6.1,15.2,16.9v22.2h-5.9v-22.7
				c0-7.1-3.6-11.1-9.8-11.1c-7.5,0-11.5,5.7-11.5,14.8v19h-5.8v-38.2H1121.5z"/>
			<path fill="#B8B9BA" d="M1187.3,411.5v-21.5h5.8v54.7h-5.5v-5.2c-3.5,4.1-7.9,6.1-13.1,6.1c-5.2,0-9.4-2-12.8-5.8
				c-3.4-3.8-5-8.6-5-14.2s1.6-10.4,5-14.2c3.4-3.9,7.6-5.9,12.8-5.9C1179.6,405.5,1183.9,407.5,1187.3,411.5z M1162.6,425.5
				c0,4.2,1.1,7.7,3.4,10.5c2.3,2.7,5.2,4.1,9,4.1s6.9-1.4,9.1-4.1c2.3-2.7,3.4-6.2,3.4-10.5s-1.2-7.7-3.4-10.5
				c-2.3-2.7-5.3-4.1-9.1-4.1s-6.8,1.4-9,4.1C1163.7,417.8,1162.6,421.3,1162.6,425.5z"/>
			<path fill="#B8B9BA" d="M1235.8,427.3h-28.5c0.5,8,5.4,12.8,12.9,12.8c4.3,0,7.9-1.9,10.9-5.6l4,3.7c-4.1,4.9-9,7.3-14.9,7.3
				c-5.7,0-10.3-1.8-13.7-5.5c-3.4-3.7-5.1-8.4-5.1-14.3c0-5.8,1.6-10.6,4.7-14.4c3.2-3.9,7.4-5.9,12.7-5.9c3.9,0,7.2,1,9.8,3
				c5.4,4.1,7.3,9.8,7.3,16.1L1235.8,427.3z M1207.6,422.2h22.5c-0.5-6.8-4.8-11.2-11.1-11.2
				C1212.5,410.9,1208.6,415.5,1207.6,422.2z"/>
			<path fill="#B8B9BA" d="M1264.1,411.5c-0.4-0.1-0.9-0.1-1.3-0.1c-9,0-12.7,4.5-12.7,16.9v16.3h-5.8v-38.2h5.6v5.1
				c3.4-4.1,6.9-5.6,12.5-5.6c0.5,0,1.2,0,1.7,0.1V411.5z"/>
			<path fill="#B8B9BA" d="M611.6,539.8h-6.3l5.8-14.7l-15.8-38.7h6.5l12.6,31.7l12.3-31.7h6.4L611.6,539.8z"/>
			<path fill="#B8B9BA" d="M640.6,519.7c-3.7-3.9-5.5-8.7-5.5-14.2s1.8-10.3,5.5-14.2c3.7-3.9,8.3-5.8,13.7-5.8
				c5.5,0,10.1,2,13.7,5.8c3.7,3.9,5.6,8.7,5.6,14.2s-1.9,10.3-5.5,14.2c-3.7,3.8-8.3,5.8-13.8,5.8
				C648.8,525.5,644.2,523.5,640.6,519.7z M663.9,516c2.5-2.8,3.7-6.3,3.7-10.5c0-4.1-1.2-7.6-3.7-10.4c-2.5-2.8-5.7-4.2-9.6-4.2
				c-3.8,0-7,1.4-9.5,4.2c-2.5,2.7-3.7,6.2-3.7,10.4c0,4.1,1.2,7.6,3.7,10.5c2.5,2.7,5.7,4.1,9.5,4.1
				C658.2,520.1,661.4,518.7,663.9,516z"/>
			<path fill="#B8B9BA" d="M707.2,524.6v-4.8c-3,3.8-7,5.7-12.1,5.7c-9.6,0-14.4-5.6-14.4-16.8v-22.2h5.8v22.5
				c0,7.3,3.2,11.2,9.4,11.2c7.4,0,11.1-5.4,11.1-14.7v-19h5.8v38.2H707.2z"/>
			<path fill="#B8B9BA" d="M743.6,491.5c-0.4-0.1-0.9-0.1-1.3-0.1c-9,0-12.7,4.5-12.7,16.9v16.3h-5.8v-38.2h5.6v5.1
				c3.4-4.1,6.9-5.6,12.5-5.6c0.5,0,1.2,0,1.7,0.1V491.5z"/>
			<path fill="#B8B9BA" d="M777.1,486.4v4.6c2.2-3.1,6.4-5.5,11-5.5c5.2,0,9,2.1,11.4,6.3c2.9-4.2,6.9-6.3,11.9-6.3
				c9.8,0,14.7,5.6,14.7,16.9v22.2h-5.8v-22.7c0-7.4-3-11.1-8.9-11.1c-6.3,0-9.8,4.6-9.8,12.7v21.1h-5.8v-22.3
				c0-7.6-2.9-11.5-8.6-11.5c-6.6,0-10.1,4.6-10.1,12.7v21.1h-5.8v-38.2H777.1z"/>
			<path fill="#B8B9BA" d="M834,513.9c0-7.6,5.7-12,14.1-12c2.8,0,6.3,0.6,10.5,1.9v-3.9c0-5.7-3.8-9-9.4-9c-4.7,0-8.4,2.8-10,6.3
				l-4-3.7c3-5.3,7.7-8,14-8c9.3,0,15.1,5.4,15.1,15v24.2h-5.6v-4c-2.9,3.2-6.8,4.8-11.9,4.8C839.6,525.5,834,521.1,834,513.9z
				 M847.2,520.3c4.7,0,9-2.7,11.4-6.1v-5.1c-3.7-1.2-7.1-1.9-10.1-1.9c-5.9,0-8.7,2.7-8.7,6.8C839.8,517.8,842.8,520.3,847.2,520.3
				z"/>
			<path fill="#B8B9BA" d="M883.6,507.5c-7.3-1.7-10.8-5.4-10.8-11c0-3.4,1.3-6.1,3.9-8c2.6-2,5.7-3,9.3-3c5.1,0,9.6,2,13.6,6.2
				l-3.9,4.1c-3.1-3.3-6.5-4.9-10.1-4.9c-4.1,0-7,2.2-7,5.4c0,2.9,1.9,4.8,5.7,5.6l6,1.4c7.3,1.7,10.8,5.3,10.8,10.8
				c0,6.8-5.6,11.5-14.3,11.5c-6.6,0-12.3-3.1-15.4-7.2l3.8-4c3.1,3.9,6.9,5.9,11.5,5.9c5.4,0,8.6-2.2,8.6-5.9c0-2.7-2-4.6-6-5.5
				L883.6,507.5z"/>
			<path fill="#B8B9BA" d="M909.4,524.6v-54.7h5.8v36l17.7-19.6h7.6l-14.9,16.1l15.8,22.1h-7.4l-12.5-17.6l-6.2,6.8v10.8H909.4z"/>
			<path fill="#B8B9BA" d="M957.7,520.9c0,2.6-2,4.6-4.8,4.6c-2.6,0-4.6-2-4.6-4.6s2-4.7,4.6-4.7
				C955.7,516.2,957.7,518.2,957.7,520.9z"/>
			<path fill="#B8B9BA" d="M595.7,629.9h40.4v5.6h-17.5v49.1h-5.9v-49.1h-17V629.9z"/>
			<path fill="#B8B9BA" d="M658,651.5c-0.4-0.1-0.9-0.1-1.3-0.1c-9,0-12.7,4.5-12.7,16.9v16.3h-5.8v-38.2h5.6v5.1
				c3.4-4.1,6.9-5.6,12.5-5.6c0.5,0,1.2,0,1.7,0.1V651.5z"/>
			<path fill="#B8B9BA" d="M677.4,699.8h-6.3l5.8-14.7L661,646.4h6.5l12.6,31.7l12.3-31.7h6.4L677.4,699.8z"/>
			<path fill="#B8B9BA" d="M724.7,673.9c0-7.6,5.7-12,14.1-12c2.8,0,6.3,0.6,10.5,1.9v-3.9c0-5.7-3.8-9-9.4-9c-4.7,0-8.4,2.8-10,6.3
				l-4-3.7c3-5.3,7.7-8,14-8c9.3,0,15.1,5.4,15.1,15v24.2h-5.6v-4c-2.9,3.2-6.8,4.8-11.9,4.8C730.3,685.5,724.7,681.1,724.7,673.9z
				 M737.9,680.3c4.7,0,9-2.7,11.4-6.1v-5.1c-3.7-1.2-7.1-1.9-10.1-1.9c-5.9,0-8.7,2.7-8.7,6.8C730.5,677.8,733.5,680.3,737.9,680.3
				z"/>
			<path fill="#B8B9BA" d="M786.4,684.6v-54.7h5.8v54.7H786.4z"/>
			<path fill="#B8B9BA" d="M806,679.7c-3.7-3.9-5.5-8.7-5.5-14.2s1.8-10.3,5.5-14.2c3.7-3.9,8.3-5.8,13.7-5.8c5.5,0,10.1,2,13.7,5.8
				c3.7,3.9,5.6,8.7,5.6,14.2s-1.9,10.3-5.5,14.2c-3.7,3.8-8.3,5.8-13.8,5.8C814.3,685.5,809.7,683.5,806,679.7z M829.3,676
				c2.5-2.8,3.7-6.3,3.7-10.5c0-4.1-1.2-7.6-3.7-10.4c-2.5-2.8-5.7-4.2-9.6-4.2c-3.8,0-7,1.4-9.5,4.2c-2.5,2.7-3.7,6.2-3.7,10.4
				c0,4.1,1.2,7.6,3.7,10.5c2.5,2.7,5.7,4.1,9.5,4.1C823.6,680.1,826.8,678.7,829.3,676z"/>
			<path fill="#B8B9BA" d="M848.3,673.4v-21.7h-6.2v-5.3h6.2v-10.7h5.8v10.7h8.9v5.3h-8.9v20.8c0,5,1.2,6.9,5.9,6.9l3-0.1v5.2
				c-1,0.1-2.3,0.2-3.6,0.2C851.9,684.8,848.3,681.6,848.3,673.4z"/>
			<path fill="#B8B9BA" d="M896.2,679.7c-3.7-3.9-5.5-8.7-5.5-14.2s1.8-10.3,5.5-14.2c3.7-3.9,8.3-5.8,13.7-5.8
				c5.5,0,10.1,2,13.7,5.8c3.7,3.9,5.6,8.7,5.6,14.2s-1.9,10.3-5.5,14.2c-3.7,3.8-8.3,5.8-13.8,5.8
				C904.5,685.5,899.9,683.5,896.2,679.7z M919.6,676c2.5-2.8,3.7-6.3,3.7-10.5c0-4.1-1.2-7.6-3.7-10.4c-2.5-2.8-5.7-4.2-9.6-4.2
				c-3.8,0-7,1.4-9.5,4.2c-2.5,2.7-3.7,6.2-3.7,10.4c0,4.1,1.2,7.6,3.7,10.5c2.5,2.7,5.7,4.1,9.5,4.1
				C913.9,680.1,917.1,678.7,919.6,676z"/>
			<path fill="#B8B9BA" d="M954.1,630v5.2h-2c-5.7,0-7.7,2.6-7.7,8.3v2.9h8.9v5.3h-8.9v32.9h-5.8v-32.9h-6.2v-5.3h6.2v-2.9
				c0-9.4,4.6-13.6,13.4-13.6L954.1,630z"/>
			<path fill="#B8B9BA" d="M983.8,673.4v-21.7h-6.2v-5.3h6.2v-10.7h5.8v10.7h8.9v5.3h-8.9v20.8c0,5,1.2,6.9,5.9,6.9l3-0.1v5.2
				c-1,0.1-2.3,0.2-3.6,0.2C987.3,684.8,983.8,681.6,983.8,673.4z"/>
			<path fill="#B8B9BA" d="M1012.1,629.9V651c2.6-3.4,7.2-5.5,11.9-5.5c9.8,0,15.2,6.1,15.2,16.9v22.2h-5.9v-22.7
				c0-7.1-3.6-11.1-9.8-11.1c-7.5,0-11.5,5.7-11.5,14.8v19h-5.8v-54.7H1012.1z"/>
			<path fill="#B8B9BA" d="M1080.2,667.3h-28.5c0.5,8,5.4,12.8,12.9,12.8c4.3,0,7.9-1.9,10.9-5.6l4,3.7c-4.1,4.9-9,7.3-14.9,7.3
				c-5.7,0-10.3-1.8-13.7-5.5c-3.4-3.7-5.1-8.4-5.1-14.3c0-5.8,1.6-10.6,4.7-14.4c3.2-3.9,7.4-5.8,12.7-5.8c3.9,0,7.2,1,9.8,3
				c5.4,4.1,7.3,9.8,7.3,16.1L1080.2,667.3z M1051.9,662.2h22.5c-0.5-6.8-4.8-11.2-11.1-11.2
				C1056.8,650.9,1052.9,655.5,1051.9,662.2z"/>
			<path fill="#B8B9BA" d="M1094.2,646.4v4.6c2.2-3.1,6.4-5.5,11-5.5c5.2,0,9,2.1,11.4,6.3c2.9-4.2,6.9-6.3,11.9-6.3
				c9.8,0,14.7,5.6,14.7,16.9v22.2h-5.8v-22.7c0-7.4-3-11.1-8.9-11.1c-6.3,0-9.8,4.6-9.8,12.7v21.1h-5.8v-22.3
				c0-7.6-2.9-11.5-8.6-11.5c-6.6,0-10.1,4.6-10.1,12.7v21.1h-5.8v-38.2H1094.2z"/>
			<path fill="#B8B9BA" d="M1163.2,680.9c0,2.6-2,4.6-4.8,4.6c-2.6,0-4.6-2-4.6-4.6s2-4.7,4.6-4.7
				C1161.1,676.2,1163.2,678.2,1163.2,680.9z"/>
			<path fill="#B8B9BA" d="M634.9,764.6v-25h-29.7v25h-5.9v-54.7h5.9v24h29.7v-24h5.9v54.7H634.9z"/>
			<path fill="#B8B9BA" d="M649.2,753.9c0-7.6,5.7-12,14.1-12c2.8,0,6.3,0.6,10.5,1.9v-3.9c0-5.7-3.8-9-9.4-9c-4.7,0-8.4,2.8-10,6.3
				l-4-3.7c3-5.3,7.7-8,14-8c9.3,0,15.1,5.4,15.1,15v24.2h-5.6v-4c-2.9,3.2-6.8,4.8-11.9,4.8C654.8,765.5,649.2,761.1,649.2,753.9z
				 M662.4,760.3c4.7,0,9-2.7,11.4-6.1v-5.1c-3.7-1.2-7.1-1.9-10.1-1.9c-5.9,0-8.7,2.7-8.7,6.8C655,757.8,658,760.3,662.4,760.3z"/>
			<path fill="#B8B9BA" d="M718.9,726.4l-14.5,38.2h-6.1l-14.5-38.2h6.3l11.2,31.2l11.2-31.2H718.9z"/>
			<path fill="#B8B9BA" d="M756.3,747.3h-28.5c0.5,8,5.4,12.8,12.9,12.8c4.3,0,7.9-1.9,10.9-5.6l4,3.7c-4.1,4.9-9,7.3-14.9,7.3
				c-5.7,0-10.3-1.8-13.7-5.5c-3.4-3.7-5.1-8.4-5.1-14.3c0-5.8,1.6-10.6,4.7-14.4c3.2-3.9,7.4-5.8,12.7-5.8c3.9,0,7.2,1,9.8,3
				c5.4,4.1,7.3,9.8,7.3,16.1L756.3,747.3z M728.1,742.2h22.5c-0.5-6.8-4.8-11.2-11.1-11.2C733,730.9,729.1,735.5,728.1,742.2z"/>
			<path fill="#B8B9BA" d="M803.7,710v5.2h-2c-5.7,0-7.7,2.6-7.7,8.3v2.9h8.9v5.3H794v32.9h-5.8v-32.9H782v-5.3h6.2v-2.9
				c0-9.4,4.6-13.6,13.4-13.6L803.7,710z"/>
			<path fill="#B8B9BA" d="M835.6,764.6v-4.8c-3,3.8-7,5.7-12.1,5.7c-9.6,0-14.4-5.6-14.4-16.8v-22.2h5.8v22.5
				c0,7.3,3.2,11.2,9.4,11.2c7.4,0,11.1-5.4,11.1-14.7v-19h5.8v38.2H835.6z"/>
			<path fill="#B8B9BA" d="M857.8,726.4v4.7c2.6-3.4,7.3-5.6,12.1-5.6c9.8,0,15.2,6.1,15.2,16.9v22.2h-5.9v-22.7
				c0-7.1-3.6-11.1-9.8-11.1c-7.5,0-11.5,5.7-11.5,14.8v19h-5.8v-38.2H857.8z"/>
			<path fill="#B8B9BA" d="M895.6,774.4h-6.2l7.4-18.6h7.3L895.6,774.4z"/>
			<path fill="#B8B9BA" d="M940.2,717.4c5.2-5.5,11.6-8.3,19.3-8.3c7.7,0,14.3,2.7,19.5,8.3c5.3,5.5,8,12.1,8,19.9
				c0,7.9-2.7,14.6-7.9,20c-5.2,5.5-11.8,8.2-19.6,8.2c-7.7,0-14.2-2.7-19.4-8.2c-5.1-5.5-7.7-12.2-7.7-20
				C932.4,729.4,934.9,722.8,940.2,717.4z M944.3,753.5c4,4.3,9.2,6.5,15.5,6.5c6.2,0,11.3-2.2,15.3-6.5s6-9.8,6-16.2
				c0-6.4-2-11.8-6-16.1c-4-4.4-9-6.6-15.3-6.6c-6.3,0-11.5,2.2-15.5,6.6c-4,4.3-6,9.7-6,16.1C938.3,743.7,940.3,749.2,944.3,753.5z
				"/>
			<path fill="#B8B9BA" d="M992.6,764.6v-54.7h6v31.6l25.5-31.6h6.9l-18.9,23.6l20.1,31.1h-7.2l-17.1-26.1l-9.4,11.7v14.4H992.6z"/>
			<path fill="#B8B9BA" d="M1052.5,748.2h-6v-12.6l2-0.1c8.8-0.4,13.7-5.1,13.7-11.1c0-5.7-4.6-9.8-10.8-9.8
				c-5.9,0-10.5,2.8-13.8,8.5l-4-4.4c4.1-5.9,10.3-9.7,17.8-9.7c4.8,0,8.8,1.4,12,4.2c3.2,2.7,4.8,6.4,4.8,10.9
				c0,8.2-5.9,14.8-15.6,16.4V748.2z M1054.3,760.9c0,2.6-2,4.6-4.8,4.6c-2.6,0-4.6-2-4.6-4.6s2-4.7,4.6-4.7
				C1052.2,756.2,1054.3,758.2,1054.3,760.9z"/>
		</g>
	</g>
	<g>
		<g>
			<path fill="#B8B9BA" d="M843.8,1018.2l-1.6,1.5c-4.1-4-6.1-8.6-6.1-13.9c0-5.3,2-10,6.1-13.9l1.6,1.5c-3.7,3.8-5.4,7.7-5.4,12.5
				C838.4,1010.6,840,1014.5,843.8,1018.2z"/>
			<path fill="#B8B9BA" d="M857.3,1011.1c-1.6,1.9-3.5,2.8-5.9,2.8c-2.1,0-3.9-0.8-5.3-2.2c-1.4-1.5-2.1-3.3-2.1-5.5
				s0.7-3.9,2.2-5.4c1.5-1.5,3.2-2.3,5.3-2.3c2.2,0,4,0.9,5.5,2.6l-1.5,1.5c-1.1-1.3-2.4-2-4-2c-1.5,0-2.7,0.5-3.7,1.6
				c-1,1-1.5,2.4-1.5,4c0,3.3,2,5.6,5.3,5.6c1.6,0,3.1-0.7,4.2-2.2L857.3,1011.1z"/>
			<path fill="#B8B9BA" d="M860.2,1013.5v-21h2.2v21H860.2z"/>
			<path fill="#B8B9BA" d="M866.8,992.7c0.7-0.6,1.7-0.6,2.4,0c0.7,0.6,0.7,1.7,0,2.4c-0.6,0.6-1.7,0.6-2.4,0
				C866.1,994.3,866.1,993.3,866.8,992.7z M866.9,1013.5v-14.7h2.2v14.7H866.9z"/>
			<path fill="#B8B9BA" d="M885.8,1011.1c-1.6,1.9-3.5,2.8-5.9,2.8c-2.1,0-3.9-0.8-5.3-2.2c-1.4-1.5-2.1-3.3-2.1-5.5
				s0.7-3.9,2.2-5.4c1.5-1.5,3.2-2.3,5.3-2.3c2.2,0,4,0.9,5.5,2.6l-1.5,1.5c-1.1-1.3-2.4-2-4-2c-1.5,0-2.7,0.5-3.7,1.6
				c-1,1-1.5,2.4-1.5,4c0,3.3,2,5.6,5.3,5.6c1.7,0,3.1-0.7,4.2-2.2L885.8,1011.1z"/>
			<path fill="#B8B9BA" d="M888.7,1013.5v-21h2.2v13.9l6.8-7.5h2.9l-5.7,6.2l6.1,8.5h-2.8l-4.8-6.8l-2.4,2.6v4.1H888.7z"/>
			<path fill="#B8B9BA" d="M912.9,1009.2v-8.3h-2.4v-2h2.4v-4.1h2.2v4.1h3.4v2h-3.4v8c0,1.9,0.5,2.7,2.2,2.7l1.2,0v2
				c-0.4,0-0.9,0.1-1.4,0.1C914.2,1013.6,912.9,1012.4,912.9,1009.2z"/>
			<path fill="#B8B9BA" d="M922.8,1011.7c-1.4-1.5-2.1-3.3-2.1-5.5s0.7-4,2.1-5.5s3.2-2.2,5.3-2.2c2.1,0,3.9,0.8,5.3,2.2
				c1.4,1.5,2.2,3.3,2.2,5.5s-0.7,4-2.1,5.5c-1.4,1.5-3.2,2.2-5.3,2.2C925.9,1013.9,924.2,1013.1,922.8,1011.7z M931.7,1010.2
				c1-1.1,1.4-2.4,1.4-4s-0.5-2.9-1.4-4c-1-1.1-2.2-1.6-3.7-1.6c-1.5,0-2.7,0.5-3.7,1.6c-1,1-1.4,2.4-1.4,4s0.5,2.9,1.4,4
				c1,1,2.2,1.6,3.7,1.6C929.5,1011.8,930.8,1011.3,931.7,1010.2z"/>
			<path fill="#B8B9BA" d="M946.3,1009.4c0-2.9,2.2-4.6,5.4-4.6c1.1,0,2.4,0.2,4,0.7v-1.5c0-2.2-1.5-3.4-3.6-3.4
				c-1.8,0-3.2,1.1-3.8,2.4l-1.5-1.4c1.2-2,3-3.1,5.4-3.1c3.6,0,5.8,2.1,5.8,5.8v9.3h-2.2v-1.5c-1.1,1.2-2.6,1.9-4.6,1.9
				C948.5,1013.9,946.3,1012.2,946.3,1009.4z M951.4,1011.9c1.8,0,3.4-1,4.4-2.3v-2c-1.4-0.5-2.7-0.7-3.9-0.7
				c-2.2,0-3.3,1.1-3.3,2.6C948.6,1010.9,949.7,1011.9,951.4,1011.9z"/>
			<path fill="#B8B9BA" d="M972.8,1000.8v-8.3h2.2v21h-2.1v-2c-1.3,1.6-3,2.3-5,2.3c-2,0-3.6-0.8-4.9-2.2c-1.3-1.5-1.9-3.3-1.9-5.5
				c0-2.2,0.6-4,1.9-5.5c1.3-1.5,2.9-2.2,4.9-2.2C969.9,998.5,971.5,999.3,972.8,1000.8z M963.3,1006.2c0,1.6,0.4,3,1.3,4
				s2,1.6,3.5,1.6c1.5,0,2.6-0.5,3.5-1.6s1.3-2.4,1.3-4c0-1.6-0.4-3-1.3-4c-0.9-1-2-1.6-3.5-1.6c-1.5,0-2.6,0.5-3.5,1.6
				C963.7,1003.2,963.3,1004.6,963.3,1006.2z"/>
			<path fill="#B8B9BA" d="M990.9,998.8l-5.6,14.7H983l-5.6-14.7h2.4l4.3,12l4.3-12H990.9z"/>
			<path fill="#B8B9BA" d="M992.2,1009.4c0-2.9,2.2-4.6,5.4-4.6c1.1,0,2.4,0.2,4,0.7v-1.5c0-2.2-1.5-3.4-3.6-3.4
				c-1.8,0-3.2,1.1-3.8,2.4l-1.5-1.4c1.2-2,3-3.1,5.4-3.1c3.6,0,5.8,2.1,5.8,5.8v9.3h-2.2v-1.5c-1.1,1.2-2.6,1.9-4.6,1.9
				C994.4,1013.9,992.2,1012.2,992.2,1009.4z M997.3,1011.9c1.8,0,3.5-1,4.4-2.3v-2c-1.4-0.5-2.7-0.7-3.9-0.7
				c-2.2,0-3.3,1.1-3.3,2.6C994.4,1010.9,995.6,1011.9,997.3,1011.9z"/>
			<path fill="#B8B9BA" d="M1010.1,998.8v1.8c1-1.3,2.8-2.2,4.7-2.2c3.7,0,5.8,2.3,5.8,6.5v8.5h-2.2v-8.7c0-2.7-1.4-4.3-3.8-4.3
				c-2.9,0-4.4,2.2-4.4,5.7v7.3h-2.2v-14.7H1010.1z"/>
			<path fill="#B8B9BA" d="M1036.9,1011.1c-1.6,1.9-3.5,2.8-5.9,2.8c-2.1,0-3.9-0.8-5.3-2.2c-1.4-1.5-2.1-3.3-2.1-5.5
				s0.7-3.9,2.2-5.4c1.5-1.5,3.2-2.3,5.3-2.3c2.2,0,4,0.9,5.5,2.6l-1.5,1.5c-1.1-1.3-2.4-2-4-2c-1.5,0-2.7,0.5-3.7,1.6
				c-1,1-1.5,2.4-1.5,4c0,3.3,2,5.6,5.3,5.6c1.7,0,3.1-0.7,4.2-2.2L1036.9,1011.1z"/>
			<path fill="#B8B9BA" d="M1051.8,1006.9h-10.9c0.2,3.1,2.1,4.9,4.9,4.9c1.7,0,3-0.7,4.2-2.2l1.5,1.4c-1.6,1.9-3.5,2.8-5.7,2.8
				c-2.2,0-4-0.7-5.3-2.1c-1.3-1.4-2-3.2-2-5.5c0-2.2,0.6-4.1,1.8-5.5c1.2-1.5,2.8-2.2,4.9-2.2c1.5,0,2.8,0.4,3.8,1.2
				c2.1,1.6,2.8,3.8,2.8,6.2L1051.8,1006.9z M1040.9,1004.9h8.6c-0.2-2.6-1.8-4.3-4.3-4.3
				C1042.8,1000.6,1041.3,1002.4,1040.9,1004.9z"/>
			<path fill="#B8B9BA" d="M1052.8,993.3l1.6-1.5c4.1,4,6.1,8.6,6.1,13.9c0,5.3-2,10-6.1,13.9l-1.6-1.5c3.7-3.8,5.4-7.7,5.4-12.5
				C1058.2,1000.9,1056.5,997,1052.8,993.3z"/>
		</g>
		<g>
			<path fill="#B8B9BA" d="M843.8,1018.2l-1.6,1.5c-4.1-4-6.1-8.6-6.1-13.9c0-5.3,2-10,6.1-13.9l1.6,1.5c-3.7,3.8-5.4,7.7-5.4,12.5
				C838.4,1010.6,840,1014.5,843.8,1018.2z"/>
			<path fill="#B8B9BA" d="M857.3,1011.1c-1.6,1.9-3.5,2.8-5.9,2.8c-2.1,0-3.9-0.8-5.3-2.2c-1.4-1.5-2.1-3.3-2.1-5.5
				s0.7-3.9,2.2-5.4c1.5-1.5,3.2-2.3,5.3-2.3c2.2,0,4,0.9,5.5,2.6l-1.5,1.5c-1.1-1.3-2.4-2-4-2c-1.5,0-2.7,0.5-3.7,1.6
				c-1,1-1.5,2.4-1.5,4c0,3.3,2,5.6,5.3,5.6c1.6,0,3.1-0.7,4.2-2.2L857.3,1011.1z"/>
			<path fill="#B8B9BA" d="M860.2,1013.5v-21h2.2v21H860.2z"/>
			<path fill="#B8B9BA" d="M866.8,992.7c0.7-0.6,1.7-0.6,2.4,0c0.7,0.6,0.7,1.7,0,2.4c-0.6,0.6-1.7,0.6-2.4,0
				C866.1,994.3,866.1,993.3,866.8,992.7z M866.9,1013.5v-14.7h2.2v14.7H866.9z"/>
			<path fill="#B8B9BA" d="M885.8,1011.1c-1.6,1.9-3.5,2.8-5.9,2.8c-2.1,0-3.9-0.8-5.3-2.2c-1.4-1.5-2.1-3.3-2.1-5.5
				s0.7-3.9,2.2-5.4c1.5-1.5,3.2-2.3,5.3-2.3c2.2,0,4,0.9,5.5,2.6l-1.5,1.5c-1.1-1.3-2.4-2-4-2c-1.5,0-2.7,0.5-3.7,1.6
				c-1,1-1.5,2.4-1.5,4c0,3.3,2,5.6,5.3,5.6c1.7,0,3.1-0.7,4.2-2.2L885.8,1011.1z"/>
			<path fill="#B8B9BA" d="M888.7,1013.5v-21h2.2v13.9l6.8-7.5h2.9l-5.7,6.2l6.1,8.5h-2.8l-4.8-6.8l-2.4,2.6v4.1H888.7z"/>
			<path fill="#B8B9BA" d="M912.9,1009.2v-8.3h-2.4v-2h2.4v-4.1h2.2v4.1h3.4v2h-3.4v8c0,1.9,0.5,2.7,2.2,2.7l1.2,0v2
				c-0.4,0-0.9,0.1-1.4,0.1C914.2,1013.6,912.9,1012.4,912.9,1009.2z"/>
			<path fill="#B8B9BA" d="M922.8,1011.7c-1.4-1.5-2.1-3.3-2.1-5.5s0.7-4,2.1-5.5s3.2-2.2,5.3-2.2c2.1,0,3.9,0.8,5.3,2.2
				c1.4,1.5,2.2,3.3,2.2,5.5s-0.7,4-2.1,5.5c-1.4,1.5-3.2,2.2-5.3,2.2C925.9,1013.9,924.2,1013.1,922.8,1011.7z M931.7,1010.2
				c1-1.1,1.4-2.4,1.4-4s-0.5-2.9-1.4-4c-1-1.1-2.2-1.6-3.7-1.6c-1.5,0-2.7,0.5-3.7,1.6c-1,1-1.4,2.4-1.4,4s0.5,2.9,1.4,4
				c1,1,2.2,1.6,3.7,1.6C929.5,1011.8,930.8,1011.3,931.7,1010.2z"/>
			<path fill="#B8B9BA" d="M946.3,1009.4c0-2.9,2.2-4.6,5.4-4.6c1.1,0,2.4,0.2,4,0.7v-1.5c0-2.2-1.5-3.4-3.6-3.4
				c-1.8,0-3.2,1.1-3.8,2.4l-1.5-1.4c1.2-2,3-3.1,5.4-3.1c3.6,0,5.8,2.1,5.8,5.8v9.3h-2.2v-1.5c-1.1,1.2-2.6,1.9-4.6,1.9
				C948.5,1013.9,946.3,1012.2,946.3,1009.4z M951.4,1011.9c1.8,0,3.4-1,4.4-2.3v-2c-1.4-0.5-2.7-0.7-3.9-0.7
				c-2.2,0-3.3,1.1-3.3,2.6C948.6,1010.9,949.7,1011.9,951.4,1011.9z"/>
			<path fill="#B8B9BA" d="M972.8,1000.8v-8.3h2.2v21h-2.1v-2c-1.3,1.6-3,2.3-5,2.3c-2,0-3.6-0.8-4.9-2.2c-1.3-1.5-1.9-3.3-1.9-5.5
				c0-2.2,0.6-4,1.9-5.5c1.3-1.5,2.9-2.2,4.9-2.2C969.9,998.5,971.5,999.3,972.8,1000.8z M963.3,1006.2c0,1.6,0.4,3,1.3,4
				s2,1.6,3.5,1.6c1.5,0,2.6-0.5,3.5-1.6s1.3-2.4,1.3-4c0-1.6-0.4-3-1.3-4c-0.9-1-2-1.6-3.5-1.6c-1.5,0-2.6,0.5-3.5,1.6
				C963.7,1003.2,963.3,1004.6,963.3,1006.2z"/>
			<path fill="#B8B9BA" d="M990.9,998.8l-5.6,14.7H983l-5.6-14.7h2.4l4.3,12l4.3-12H990.9z"/>
			<path fill="#B8B9BA" d="M992.2,1009.4c0-2.9,2.2-4.6,5.4-4.6c1.1,0,2.4,0.2,4,0.7v-1.5c0-2.2-1.5-3.4-3.6-3.4
				c-1.8,0-3.2,1.1-3.8,2.4l-1.5-1.4c1.2-2,3-3.1,5.4-3.1c3.6,0,5.8,2.1,5.8,5.8v9.3h-2.2v-1.5c-1.1,1.2-2.6,1.9-4.6,1.9
				C994.4,1013.9,992.2,1012.2,992.2,1009.4z M997.3,1011.9c1.8,0,3.5-1,4.4-2.3v-2c-1.4-0.5-2.7-0.7-3.9-0.7
				c-2.2,0-3.3,1.1-3.3,2.6C994.4,1010.9,995.6,1011.9,997.3,1011.9z"/>
			<path fill="#B8B9BA" d="M1010.1,998.8v1.8c1-1.3,2.8-2.2,4.7-2.2c3.7,0,5.8,2.3,5.8,6.5v8.5h-2.2v-8.7c0-2.7-1.4-4.3-3.8-4.3
				c-2.9,0-4.4,2.2-4.4,5.7v7.3h-2.2v-14.7H1010.1z"/>
			<path fill="#B8B9BA" d="M1036.9,1011.1c-1.6,1.9-3.5,2.8-5.9,2.8c-2.1,0-3.9-0.8-5.3-2.2c-1.4-1.5-2.1-3.3-2.1-5.5
				s0.7-3.9,2.2-5.4c1.5-1.5,3.2-2.3,5.3-2.3c2.2,0,4,0.9,5.5,2.6l-1.5,1.5c-1.1-1.3-2.4-2-4-2c-1.5,0-2.7,0.5-3.7,1.6
				c-1,1-1.5,2.4-1.5,4c0,3.3,2,5.6,5.3,5.6c1.7,0,3.1-0.7,4.2-2.2L1036.9,1011.1z"/>
			<path fill="#B8B9BA" d="M1051.8,1006.9h-10.9c0.2,3.1,2.1,4.9,4.9,4.9c1.7,0,3-0.7,4.2-2.2l1.5,1.4c-1.6,1.9-3.5,2.8-5.7,2.8
				c-2.2,0-4-0.7-5.3-2.1c-1.3-1.4-2-3.2-2-5.5c0-2.2,0.6-4.1,1.8-5.5c1.2-1.5,2.8-2.2,4.9-2.2c1.5,0,2.8,0.4,3.8,1.2
				c2.1,1.6,2.8,3.8,2.8,6.2L1051.8,1006.9z M1040.9,1004.9h8.6c-0.2-2.6-1.8-4.3-4.3-4.3
				C1042.8,1000.6,1041.3,1002.4,1040.9,1004.9z"/>
			<path fill="#B8B9BA" d="M1052.8,993.3l1.6-1.5c4.1,4,6.1,8.6,6.1,13.9c0,5.3-2,10-6.1,13.9l-1.6-1.5c3.7-3.8,5.4-7.7,5.4-12.5
				C1058.2,1000.9,1056.5,997,1052.8,993.3z"/>
		</g>
	</g>
</g>
</svg>
