<?xml version="1.0" encoding="utf-8"?>
<!-- Generator: Adobe Illustrator 19.1.0, SVG Export Plug-In . SVG Version: 6.00 Build 0)  -->
<svg version="1.1" baseProfile="tiny" id="Layer_1_copy"
	 xmlns="http://www.w3.org/2000/svg" xmlns:xlink="http://www.w3.org/1999/xlink" x="0px" y="0px" >
<rect fill="#FFFFFF" width="1920" height="1080"/>
<path fill="#A2D4EB" d="M1124.3,670.4h-169h-169c-12.3,0-22.4-10.1-22.4-22.4V309.9c0-12.3,10.1-22.4,22.4-22.4h338.1
	c12.3,0,22.4,10.1,22.4,22.4V648C1146.8,660.3,1136.7,670.4,1124.3,670.4z"/>
<path fill="#CDE8F2" d="M1124.3,288H955v382h169.3c12.3,0,22.7-9.7,22.7-22V309.9C1147,297.6,1136.7,288,1124.3,288z"/>
<path d="M1072.7,357.7c-2.4,0-4.9,0.1-7.3,0.3H955H845c-2.4-0.2-5-0.3-7.4-0.3c-57.8,0-104.8,46.8-104.8,104.6
	c0,57.7,47.2,104.6,104.2,104.6v0.1c0,0,0.7,0,0.8,0c0,0,0,0,0,0c0.1,0,0.1-0.1,0.2-0.1c65.7-0.2,80-51.2,117-51.2
	c36.9,0,51.5,51,117.2,51.2c0.1,0,0.2,0.1,0.4,0.1c0,0,0,0,0,0c0,0,0.4,0,0.4,0v-0.1c57,0,104.4-46.9,104.4-104.6
	C1177.4,404.6,1130.4,357.7,1072.7,357.7z M837.8,483.2c-11.6,0-20.9-9.4-20.9-20.9c0-11.6,9.4-20.9,20.9-20.9
	c11.6,0,20.9,9.4,20.9,20.9C858.7,473.9,849.3,483.2,837.8,483.2z M1072.6,483.2c-11.6,0-20.9-9.4-20.9-20.9
	c0-11.6,9.4-20.9,20.9-20.9c11.6,0,20.9,9.4,20.9,20.9C1093.5,473.9,1084.2,483.2,1072.6,483.2z"/>
<g>
	<path fill="#9AD2E6" d="M792.1,762.3l-10.7-20.6v32.1h-12v-56.5h12l16,31.7l16.1-31.7h11.9v56.5h-11.9v-32.1l-10.8,20.6H792.1z"/>
	<path fill="#9AD2E6" d="M833.7,762.1c0-4.1,1.5-7.3,4.5-9.4c3-2.2,6.7-3.3,11.1-3.3c2.7,0,5.3,0.4,7.9,1.1v-0.6
		c0-3.8-2.5-6.4-6.6-6.4c-3.6,0-6.4,1.5-8.5,4.6l-7.3-6.9c4.4-5.2,9.8-7.8,16.5-7.8c5,0,9.1,1.5,12.4,4.3s4.9,6.6,4.9,11.5v24.7
		h-11.4v-2.6c-2.7,2.3-6,3.5-10,3.5C839,774.6,833.7,769.5,833.7,762.1z M850.1,764.9c2.6,0,4.9-0.8,7.1-2.4V758
		c-2-0.5-3.8-0.7-5.3-0.7c-4.3,0-6.7,1.6-6.7,4.1C845.2,763.4,847.2,764.9,850.1,764.9z"/>
	<path fill="#9AD2E6" d="M890,758.7c-8.6-2.2-12.9-6.4-12.9-12.9c0-3.8,1.5-6.8,4.4-9c3-2.3,6.6-3.5,10.9-3.5c6,0,11.3,2.1,15.9,6.2
		l-7,7.4c-3.1-2.6-6.2-3.9-9.4-3.9c-2.3,0-3.7,1-3.7,2.3c0,1,1,1.7,2.8,2.1l5.9,1.4c8.6,2,13,6.4,13,13.1c0,7.5-6.4,12.7-16.5,12.7
		c-7.3,0-14-3.5-17.3-7.7l7-7.2c3.5,3.5,7.3,5.2,11.3,5.2c2.3,0,4.4-1,4.4-2.6c0-1-1.2-1.9-3.5-2.5L890,758.7z"/>
	<path fill="#9AD2E6" d="M917.7,773.7v-56.5h11.4v29.5l11-12.5h14.4L940,750.5l15.2,23.2h-13.9l-9.4-15l-2.7,2.9v12.1H917.7z"/>
	<path fill="#6DB4D6" d="M984.8,762.3l-10.7-20.6v32.1h-12v-56.5h12l16,31.7l16.1-31.7h11.9v56.5h-11.9v-32.1l-10.8,20.6H984.8z"/>
	<path fill="#6DB4D6" d="M1026.4,762.1c0-4.1,1.5-7.3,4.5-9.4c3-2.2,6.7-3.3,11.1-3.3c2.7,0,5.3,0.4,7.9,1.1v-0.6
		c0-3.8-2.5-6.4-6.6-6.4c-3.6,0-6.4,1.5-8.5,4.6l-7.3-6.9c4.4-5.2,9.8-7.8,16.5-7.8c5,0,9.1,1.5,12.4,4.3c3.3,2.8,4.9,6.6,4.9,11.5
		v24.7h-11.4v-2.6c-2.7,2.3-6,3.5-10,3.5C1031.7,774.6,1026.4,769.5,1026.4,762.1z M1042.9,764.9c2.6,0,4.9-0.8,7.1-2.4V758
		c-2-0.5-3.8-0.7-5.3-0.7c-4.3,0-6.7,1.6-6.7,4.1C1037.9,763.4,1040,764.9,1042.9,764.9z"/>
	<path fill="#6DB4D6" d="M1082.8,758.7c-8.6-2.2-12.9-6.4-12.9-12.9c0-3.8,1.5-6.8,4.4-9c3-2.3,6.6-3.5,10.9-3.5
		c6,0,11.3,2.1,15.9,6.2l-7,7.4c-3.1-2.6-6.2-3.9-9.4-3.9c-2.3,0-3.7,1-3.7,2.3c0,1,1,1.7,2.8,2.1l5.9,1.4c8.6,2,13,6.4,13,13.1
		c0,7.5-6.4,12.7-16.5,12.7c-7.3,0-14-3.5-17.3-7.7l7-7.2c3.5,3.5,7.3,5.2,11.3,5.2c2.3,0,4.4-1,4.4-2.6c0-1-1.2-1.9-3.5-2.5
		L1082.8,758.7z"/>
	<path fill="#6DB4D6" d="M1110.5,773.7v-56.5h11.4v29.5l11-12.5h14.4l-14.6,16.3l15.2,23.2H1134l-9.4-15l-2.7,2.9v12.1H1110.5z"/>
	<path fill="#6DB4D6" d="M768.4,823.7h-2.2v-21h2.2v8.3c1.3-1.5,3-2.3,5-2.3c2,0,3.6,0.8,4.9,2.2c1.3,1.5,1.9,3.3,1.9,5.5
		s-0.6,4-1.9,5.5s-2.9,2.2-4.9,2.2c-2,0-3.7-0.8-5-2.3V823.7z M778,816.4c0-1.6-0.4-3-1.3-4c-0.9-1.1-2-1.6-3.5-1.6
		c-1.5,0-2.6,0.5-3.5,1.6c-0.9,1-1.3,2.4-1.3,4s0.4,3,1.3,4c0.9,1,2,1.6,3.5,1.6c1.5,0,2.6-0.5,3.5-1.6
		C777.6,819.4,778,818,778,816.4z"/>
	<path fill="#6DB4D6" d="M788.6,829.6h-2.4l2.2-5.6l-6.1-14.9h2.5l4.8,12.2l4.7-12.2h2.5L788.6,829.6z"/>
	<path fill="#6DB4D6" d="M809.3,823.7v-21h7.7c4.5,0,7.3,1.9,7.3,5.6c0,1.8-1,3.7-2.7,4.5c2,0.9,3.2,2.8,3.2,5c0,1.8-0.7,3.3-2,4.4
		c-1.3,1-3.1,1.6-5.2,1.6H809.3z M811.6,804.9v7.1h5.9c2.6,0,4.5-1.2,4.5-3.6s-1.9-3.5-4.5-3.5H811.6z M811.6,821.6h6.2
		c2.8,0,4.6-1.3,4.6-3.9c0-2.4-1.9-3.6-4.5-3.6h-6.4V821.6z"/>
	<path fill="#6DB4D6" d="M836.7,811c-0.1,0-0.3,0-0.5,0c-3.5,0-4.9,1.7-4.9,6.5v6.3h-2.2V809h2.2v2c1.3-1.6,2.6-2.2,4.8-2.2
		c0.2,0,0.5,0,0.7,0V811z"/>
	<path fill="#6DB4D6" d="M852.2,817.1h-10.9c0.2,3.1,2.1,4.9,4.9,4.9c1.6,0,3-0.7,4.2-2.2l1.5,1.4c-1.6,1.9-3.5,2.8-5.7,2.8
		c-2.2,0-4-0.7-5.3-2.1c-1.3-1.4-1.9-3.2-1.9-5.5c0-2.2,0.6-4.1,1.8-5.5c1.2-1.5,2.9-2.2,4.9-2.2c1.5,0,2.8,0.4,3.8,1.2
		c2.1,1.6,2.8,3.8,2.8,6.2L852.2,817.1z M841.3,815.1h8.6c-0.2-2.6-1.8-4.3-4.3-4.3C843.2,810.8,841.7,812.5,841.3,815.1z"/>
	<path fill="#6DB4D6" d="M856.7,819.4v-8.3h-2.4v-2h2.4v-4.1h2.2v4.1h3.4v2h-3.4v8c0,1.9,0.5,2.7,2.2,2.7l1.2,0v2
		c-0.4,0-0.9,0.1-1.4,0.1C858,823.8,856.7,822.6,856.7,819.4z"/>
	<path fill="#6DB4D6" d="M866.9,819.4v-8.3h-2.4v-2h2.4v-4.1h2.2v4.1h3.4v2h-3.4v8c0,1.9,0.5,2.7,2.2,2.7l1.2,0v2
		c-0.4,0-0.9,0.1-1.4,0.1C868.3,823.8,866.9,822.6,866.9,819.4z"/>
	<path fill="#6DB4D6" d="M898.5,823.7L893,816h-5v7.7h-2.3v-21h7.3c2.3,0,4.2,0.6,5.6,1.8c1.4,1.2,2.1,2.8,2.1,4.8
		c0,3.2-1.9,5.5-5.1,6.4l5.6,8H898.5z M888,804.9v9h5.4c3.1,0,5.1-1.5,5.1-4.5c0-2.9-2-4.5-5.1-4.5H888z"/>
	<path fill="#6DB4D6" d="M917.1,817.1h-10.9c0.2,3.1,2.1,4.9,4.9,4.9c1.7,0,3-0.7,4.2-2.2l1.5,1.4c-1.6,1.9-3.5,2.8-5.7,2.8
		c-2.2,0-4-0.7-5.3-2.1c-1.3-1.4-1.9-3.2-1.9-5.5c0-2.2,0.6-4.1,1.8-5.5c1.2-1.5,2.8-2.2,4.9-2.2c1.5,0,2.8,0.4,3.8,1.2
		c2.1,1.6,2.8,3.8,2.8,6.2L917.1,817.1z M906.2,815.1h8.6c-0.2-2.6-1.8-4.3-4.3-4.3C908.1,810.8,906.6,812.5,906.2,815.1z"/>
	<path fill="#6DB4D6" d="M923.4,809v1.8c1-1.3,2.8-2.2,4.7-2.2c3.7,0,5.8,2.3,5.8,6.5v8.5h-2.2V815c0-2.7-1.4-4.3-3.8-4.3
		c-2.9,0-4.4,2.2-4.4,5.7v7.3h-2.2V809H923.4z"/>
	<path fill="#6DB4D6" d="M944.8,802.7v2H944c-2.2,0-3,1-3,3.2v1.1h3.4v2h-3.4v12.7h-2.2v-12.7h-2.4v-2h2.4v-1.1
		c0-3.6,1.8-5.2,5.2-5.2L944.8,802.7z"/>
	<path fill="#6DB4D6" d="M960.3,817.1h-10.9c0.2,3.1,2.1,4.9,4.9,4.9c1.7,0,3-0.7,4.2-2.2l1.5,1.4c-1.6,1.9-3.5,2.8-5.7,2.8
		c-2.2,0-4-0.7-5.3-2.1c-1.3-1.4-2-3.2-2-5.5c0-2.2,0.6-4.1,1.8-5.5c1.2-1.5,2.8-2.2,4.9-2.2c1.5,0,2.8,0.4,3.8,1.2
		c2.1,1.6,2.8,3.8,2.8,6.2L960.3,817.1z M949.4,815.1h8.6c-0.2-2.6-1.8-4.3-4.3-4.3C951.3,810.8,949.8,812.5,949.4,815.1z"/>
	<path fill="#6DB4D6" d="M972,811c-0.2,0-0.3,0-0.5,0c-3.5,0-4.9,1.7-4.9,6.5v6.3h-2.2V809h2.2v2c1.3-1.6,2.6-2.2,4.8-2.2
		c0.2,0,0.5,0,0.7,0V811z"/>
</g>
</svg>
