<?xml version="1.0" encoding="utf-8"?>
<!-- Generator: Adobe Illustrator 19.1.0, SVG Export Plug-In . SVG Version: 6.00 Build 0)  -->
<svg version="1.1" baseProfile="tiny" id="Layer_1_copy"
	 xmlns="http://www.w3.org/2000/svg" xmlns:xlink="http://www.w3.org/1999/xlink" x="0px" y="0px" >
<rect fill="#FFFFFF" width="1920" height="1080"/>
<g>
	<path fill="#9AD2E6" d="M719.9,456.9c-4.6-0.8-8.5-2.5-11.4-5.1c-3-2.6-4.5-6-4.5-10.4c0-4.8,1.9-8.5,5.8-11.4
		c3.9-2.8,8.5-4.3,13.7-4.3c7.7,0,14.2,2.9,19.4,8.6l-4.1,4.5c-4.1-4.9-9.3-7.4-15.8-7.4c-7.4,0-12.9,3.9-12.9,9.7
		c0,5.3,4,8.6,12,9.9l5.6,1c10.9,1.7,17.2,7.2,17.2,16.1c0,4.6-1.9,8.4-5.6,11.4c-3.8,3-8.8,4.5-15,4.5c-9.3,0-17.2-4.2-21.6-10.3
		l4.2-4.4c4.4,6,10.4,8.9,18.1,8.9c8,0,13.8-3.7,13.8-10.1c0-5.4-3.9-8.8-11.8-10.2L719.9,456.9z"/>
	<path fill="#9AD2E6" d="M754,472.1c0-7.8,5.9-12.4,14.6-12.4c2.9,0,6.5,0.6,10.8,1.9v-4c0-5.9-4-9.3-9.8-9.3
		c-4.8,0-8.7,2.9-10.3,6.5l-4.1-3.9c3.1-5.5,8-8.2,14.5-8.2c9.6,0,15.6,5.6,15.6,15.5v25h-5.8v-4.1c-3,3.3-7,5-12.3,5
		C759.8,484.1,754,479.6,754,472.1z M767.7,478.8c4.8,0,9.3-2.7,11.8-6.3v-5.3c-3.9-1.3-7.3-1.9-10.5-1.9c-6,0-8.9,2.8-8.9,7
		C760,476.2,763.1,478.8,767.7,478.8z"/>
	<path fill="#9AD2E6" d="M828.5,443.7l-15,39.5h-6.3l-15-39.5h6.5l11.6,32.2l11.6-32.2H828.5z"/>
	<path fill="#9AD2E6" d="M869.6,465.3h-29.4c0.6,8.3,5.6,13.2,13.3,13.2c4.4,0,8.1-1.9,11.3-5.8l4.1,3.8c-4.2,5.1-9.4,7.6-15.4,7.6
		c-5.9,0-10.6-1.9-14.2-5.6c-3.5-3.8-5.2-8.7-5.2-14.8c0-6,1.6-11,4.8-14.9c3.3-4,7.7-6,13.1-6c4,0,7.4,1,10.2,3.1
		c5.6,4.2,7.5,10.2,7.5,16.7L869.6,465.3z M840.4,460h23.2c-0.6-7-4.9-11.6-11.4-11.6C845.4,448.4,841.4,453.2,840.4,460z"/>
	<path fill="#9AD2E6" d="M918.2,498.9h-6.5l6-15.2l-16.4-40h6.7l13,32.8l12.7-32.8h6.6L918.2,498.9z"/>
	<path fill="#9AD2E6" d="M950.6,478.1c-3.8-4-5.6-8.9-5.6-14.7s1.9-10.6,5.6-14.7c3.8-4,8.5-6,14.2-6c5.6,0,10.4,2,14.2,6
		c3.9,4,5.8,8.9,5.8,14.7s-1.9,10.6-5.7,14.7c-3.8,4-8.5,6-14.3,6C959.1,484.1,954.4,482.1,950.6,478.1z M974.7,474.3
		c2.6-2.9,3.9-6.5,3.9-10.8s-1.3-7.9-3.9-10.7c-2.6-2.9-5.9-4.4-9.9-4.4c-4,0-7.3,1.5-9.8,4.4c-2.6,2.8-3.9,6.4-3.9,10.7
		s1.3,7.9,3.9,10.8c2.6,2.8,5.9,4.3,9.8,4.3C968.8,478.6,972.1,477.1,974.7,474.3z"/>
	<path fill="#9AD2E6" d="M1021.9,483.2v-5c-3.1,4-7.3,5.9-12.5,5.9c-9.9,0-14.8-5.8-14.8-17.4v-23h6v23.2c0,7.5,3.3,11.5,9.7,11.5
		c7.7,0,11.4-5.6,11.4-15.2v-19.6h6v39.5H1021.9z"/>
	<path fill="#9AD2E6" d="M1061.9,449c-0.4-0.1-0.9-0.1-1.4-0.1c-9.4,0-13.1,4.7-13.1,17.5v16.8h-6v-39.5h5.8v5.2
		c3.5-4.3,7.1-5.8,12.9-5.8c0.6,0,1.2,0,1.8,0.1V449z"/>
	<path fill="#9AD2E6" d="M1101.3,443.7v4.8c2.3-3.2,6.6-5.7,11.4-5.7c5.4,0,9.3,2.2,11.8,6.5c3-4.4,7.1-6.5,12.3-6.5
		c10.2,0,15.2,5.8,15.2,17.5v23h-6v-23.5c0-7.7-3.1-11.4-9.2-11.4c-6.5,0-10.2,4.8-10.2,13.1v21.8h-6v-23.1c0-7.9-3-11.9-8.9-11.9
		c-6.8,0-10.4,4.8-10.4,13.1v21.8h-6v-39.5H1101.3z"/>
	<path fill="#9AD2E6" d="M1162.6,472.1c0-7.8,5.9-12.4,14.6-12.4c2.9,0,6.5,0.6,10.8,1.9v-4c0-5.9-3.9-9.3-9.8-9.3
		c-4.8,0-8.7,2.9-10.3,6.5l-4.1-3.9c3.1-5.5,8-8.2,14.5-8.2c9.6,0,15.6,5.6,15.6,15.5v25h-5.8v-4.1c-3,3.3-7,5-12.3,5
		C1168.4,484.1,1162.6,479.6,1162.6,472.1z M1176.2,478.8c4.8,0,9.3-2.7,11.8-6.3v-5.3c-3.9-1.3-7.3-1.9-10.5-1.9
		c-6,0-8.9,2.8-8.9,7C1168.6,476.2,1171.7,478.8,1176.2,478.8z"/>
	<path fill="#9AD2E6" d="M1216.3,465.5c-7.5-1.8-11.2-5.6-11.2-11.4c0-3.5,1.4-6.3,4-8.3c2.7-2,5.9-3.1,9.6-3.1
		c5.2,0,9.9,2.1,14,6.4l-4,4.3c-3.2-3.4-6.7-5.1-10.4-5.1c-4.3,0-7.3,2.3-7.3,5.6c0,3,1.9,4.9,5.9,5.8l6.2,1.5
		c7.5,1.8,11.2,5.5,11.2,11.1c0,7-5.8,11.9-14.8,11.9c-6.8,0-12.7-3.2-16-7.4l4-4.1c3.2,4,7.2,6,11.9,6c5.6,0,8.9-2.3,8.9-6
		c0-2.8-2.1-4.8-6.2-5.7L1216.3,465.5z"/>
	<path fill="#9AD2E6" d="M1245.4,483.2v-56.5h6V464l18.3-20.2h7.8l-15.4,16.7l16.3,22.8h-7.7l-12.9-18.1l-6.4,7v11.1H1245.4z"/>
	<path fill="#9AD2E6" d="M722.3,508.8v5.4h-2.1c-5.9,0-8,2.7-8,8.5v3h9.2v5.5h-9.2v34h-6v-34h-6.4v-5.5h6.4v-3c0-9.8,4.8-14,13.9-14
		L722.3,508.8z"/>
	<path fill="#9AD2E6" d="M752.1,531c-0.4-0.1-0.9-0.1-1.4-0.1c-9.4,0-13.1,4.7-13.1,17.5v16.8h-6v-39.5h5.8v5.2
		c3.5-4.3,7.1-5.8,12.9-5.8c0.6,0,1.2,0,1.8,0.1V531z"/>
	<path fill="#9AD2E6" d="M763.8,560.1c-3.8-4-5.6-8.9-5.6-14.7s1.9-10.6,5.6-14.7c3.8-4,8.5-6,14.2-6c5.6,0,10.4,2,14.2,6
		c3.9,4,5.8,8.9,5.8,14.7s-1.9,10.6-5.7,14.7c-3.8,3.9-8.5,6-14.3,6C772.3,566.1,767.6,564.1,763.8,560.1z M787.9,556.3
		c2.6-2.9,3.9-6.5,3.9-10.8s-1.3-7.9-3.9-10.7c-2.6-2.9-5.9-4.4-9.9-4.4c-4,0-7.3,1.5-9.8,4.4c-2.6,2.8-3.9,6.4-3.9,10.7
		s1.3,7.9,3.9,10.8c2.6,2.8,5.9,4.3,9.8,4.3C782,560.6,785.3,559.1,787.9,556.3z"/>
	<path fill="#9AD2E6" d="M814.8,525.7v4.8c2.3-3.2,6.6-5.7,11.4-5.7c5.4,0,9.3,2.2,11.8,6.5c3-4.4,7.1-6.5,12.3-6.5
		c10.2,0,15.2,5.8,15.2,17.5v23h-6v-23.5c0-7.7-3.1-11.4-9.2-11.4c-6.5,0-10.2,4.8-10.2,13.1v21.8h-6v-23.1c0-7.9-3-11.9-8.9-11.9
		c-6.8,0-10.4,4.8-10.4,13.1v21.8h-6v-39.5H814.8z"/>
	<path fill="#9AD2E6" d="M904.6,553.6v-22.4h-6.4v-5.5h6.4v-11h6v11h9.2v5.5h-9.2v21.5c0,5.2,1.3,7.2,6,7.2l3.1-0.1v5.4
		c-1,0.1-2.3,0.2-3.7,0.2C908.3,565.4,904.6,562.1,904.6,553.6z"/>
	<path fill="#9AD2E6" d="M936.3,508.7v21.8c2.7-3.5,7.4-5.7,12.3-5.7c10.1,0,15.7,6.3,15.7,17.5v23h-6v-23.5
		c0-7.3-3.7-11.4-10.1-11.4c-7.7,0-11.9,5.9-11.9,15.3v19.6h-6v-56.5H936.3z"/>
	<path fill="#9AD2E6" d="M1009.1,547.3h-29.4c0.6,8.3,5.6,13.2,13.3,13.2c4.4,0,8.1-1.9,11.3-5.8l4.1,3.8c-4.2,5.1-9.4,7.6-15.4,7.6
		c-5.9,0-10.6-1.9-14.2-5.6c-3.5-3.8-5.2-8.7-5.2-14.8c0-6,1.6-11,4.8-14.9c3.3-4,7.7-6,13.1-6c4,0,7.4,1,10.2,3.1
		c5.6,4.2,7.5,10.2,7.5,16.7L1009.1,547.3z M979.9,542h23.2c-0.6-7-4.9-11.6-11.4-11.6C985,530.4,981,535.2,979.9,542z"/>
	<path fill="#9AD2E6" d="M1063,508.8v5.4h-2.1c-5.9,0-8,2.7-8,8.5v3h9.2v5.5h-9.2v34h-6v-34h-6.4v-5.5h6.4v-3c0-9.8,4.8-14,13.9-14
		L1063,508.8z"/>
	<path fill="#9AD2E6" d="M1072.6,509.1c1.9-1.7,4.7-1.7,6.4,0c1.9,1.7,1.9,4.5,0,6.4c-1.7,1.7-4.5,1.7-6.4,0
		C1070.9,513.6,1070.9,510.8,1072.6,509.1z M1072.8,565.2v-39.5h6v39.5H1072.8z"/>
	<path fill="#9AD2E6" d="M1093.2,565.2v-56.5h6v56.5H1093.2z"/>
	<path fill="#9AD2E6" d="M1145.7,547.3h-29.4c0.6,8.3,5.6,13.2,13.3,13.2c4.4,0,8.1-1.9,11.3-5.8l4.1,3.8c-4.2,5.1-9.4,7.6-15.4,7.6
		c-5.9,0-10.6-1.9-14.2-5.6c-3.5-3.8-5.2-8.7-5.2-14.8c0-6,1.6-11,4.8-14.9c3.3-4,7.7-6,13.1-6c4,0,7.4,1,10.2,3.1
		c5.6,4.2,7.5,10.2,7.5,16.7L1145.7,547.3z M1116.6,542h23.2c-0.6-7-4.9-11.6-11.4-11.6C1121.6,530.4,1117.6,535.2,1116.6,542z"/>
	<path fill="#9AD2E6" d="M1187.5,525.7v4.8c2.3-3.2,6.6-5.7,11.4-5.7c5.4,0,9.3,2.2,11.8,6.5c3-4.4,7.1-6.5,12.3-6.5
		c10.2,0,15.2,5.8,15.2,17.5v23h-6v-23.5c0-7.7-3.1-11.4-9.2-11.4c-6.5,0-10.2,4.8-10.2,13.1v21.8h-6v-23.1c0-7.9-3-11.9-8.9-11.9
		c-6.8,0-10.4,4.8-10.4,13.1v21.8h-6v-39.5H1187.5z"/>
	<path fill="#9AD2E6" d="M1284.3,547.3h-29.4c0.6,8.3,5.6,13.2,13.3,13.2c4.4,0,8.1-1.9,11.3-5.8l4.1,3.8c-4.2,5.1-9.4,7.6-15.4,7.6
		c-5.9,0-10.6-1.9-14.2-5.6c-3.5-3.8-5.2-8.7-5.2-14.8c0-6,1.6-11,4.8-14.9c3.3-4,7.7-6,13.1-6c4,0,7.4,1,10.2,3.1
		c5.6,4.2,7.5,10.2,7.5,16.7L1284.3,547.3z M1255.2,542h23.2c-0.6-7-4.9-11.6-11.4-11.6C1260.2,530.4,1256.2,535.2,1255.2,542z"/>
	<path fill="#9AD2E6" d="M1301.3,525.7v4.8c2.7-3.5,7.6-5.8,12.5-5.8c10.1,0,15.7,6.3,15.7,17.5v23h-6v-23.5
		c0-7.3-3.7-11.4-10.1-11.4c-7.7,0-11.9,5.9-11.9,15.3v19.6h-6v-39.5H1301.3z"/>
	<path fill="#9AD2E6" d="M1368.9,565.2v-5c-3.1,4-7.3,5.9-12.5,5.9c-9.9,0-14.8-5.8-14.8-17.4v-23h6v23.2c0,7.5,3.3,11.5,9.7,11.5
		c7.7,0,11.4-5.6,11.4-15.2v-19.6h6v39.5H1368.9z"/>
	<path fill="#9AD2E6" d="M725.2,659.8l-4.3,4c-11-10.6-16.4-23.1-16.4-37.5c0-14.3,5.5-26.8,16.4-37.5l4.3,3.9
		c-10,10.2-14.5,20.6-14.5,33.5C710.7,639.2,715.2,649.7,725.2,659.8z"/>
	<path fill="#9AD2E6" d="M734,642.1c-3.8-4-5.6-8.9-5.6-14.7s1.9-10.6,5.6-14.7c3.8-4,8.5-6,14.2-6s10.4,2,14.2,6
		c3.9,4,5.8,8.9,5.8,14.7s-1.9,10.6-5.7,14.7c-3.8,3.9-8.5,6-14.3,6C742.6,648.1,737.8,646.1,734,642.1z M758.1,638.3
		c2.6-2.9,3.9-6.5,3.9-10.8s-1.3-7.9-3.9-10.7c-2.6-2.9-5.9-4.4-9.9-4.4c-3.9,0-7.3,1.5-9.8,4.4c-2.6,2.8-3.9,6.4-3.9,10.7
		s1.3,7.9,3.9,10.8c2.6,2.8,5.9,4.3,9.8,4.3C752.3,642.6,755.6,641.1,758.1,638.3z"/>
	<path fill="#9AD2E6" d="M799.7,613c-0.4-0.1-0.9-0.1-1.4-0.1c-9.4,0-13.1,4.7-13.1,17.5v16.8h-6v-39.5h5.8v5.2
		c3.5-4.3,7.1-5.8,12.9-5.8c0.6,0,1.2,0,1.8,0.1V613z"/>
	<path fill="#9AD2E6" d="M839.3,662.9h-6v-55.1h5.8v5.4c3.6-4.3,8.1-6.4,13.5-6.4c5.4,0,9.8,2,13.2,6c3.5,4,5.2,8.9,5.2,14.7
		s-1.7,10.7-5.2,14.7c-3.5,3.9-7.8,6-13.2,6c-5.4,0-9.8-2-13.3-6.1V662.9z M864.9,627.5c0-4.4-1.1-8-3.5-10.8s-5.4-4.3-9.4-4.3
		c-4,0-7.1,1.5-9.4,4.3s-3.5,6.4-3.5,10.8s1.1,8,3.5,10.8s5.5,4.3,9.4,4.3c3.9,0,7-1.5,9.4-4.3S864.9,631.8,864.9,627.5z"/>
	<path fill="#9AD2E6" d="M902.5,613c-0.4-0.1-0.9-0.1-1.4-0.1c-9.4,0-13.1,4.7-13.1,17.5v16.8h-6v-39.5h5.8v5.2
		c3.5-4.3,7.1-5.8,12.9-5.8c0.6,0,1.2,0,1.8,0.1V613z"/>
	<path fill="#9AD2E6" d="M944.1,629.3h-29.4c0.6,8.3,5.6,13.2,13.3,13.2c4.4,0,8.1-1.9,11.3-5.8l4.1,3.8c-4.2,5.1-9.4,7.6-15.4,7.6
		c-5.9,0-10.6-1.9-14.2-5.6c-3.5-3.8-5.2-8.7-5.2-14.8c0-6,1.6-11,4.8-14.9c3.3-4,7.7-6,13.1-6c4,0,7.4,1,10.2,3.1
		c5.6,4.2,7.5,10.2,7.5,16.7L944.1,629.3z M914.9,624h23.2c-0.6-7-4.9-11.6-11.4-11.6C920,612.4,916,617.2,914.9,624z"/>
	<path fill="#9AD2E6" d="M965.2,629.5c-7.5-1.8-11.2-5.6-11.2-11.4c0-3.5,1.4-6.3,4-8.3c2.7-2,5.9-3.1,9.6-3.1c5.2,0,9.9,2.1,14,6.4
		l-4,4.3c-3.2-3.4-6.7-5.1-10.4-5.1c-4.3,0-7.3,2.3-7.3,5.6c0,3,1.9,4.9,5.9,5.8l6.2,1.5c7.5,1.8,11.2,5.5,11.2,11.1
		c0,7-5.8,11.8-14.8,11.8c-6.8,0-12.7-3.2-16-7.4l4-4.1c3.2,4,7.2,6,11.9,6c5.6,0,8.9-2.3,8.9-6c0-2.8-2.1-4.8-6.2-5.7L965.2,629.5z
		"/>
	<path fill="#9AD2E6" d="M1003.3,629.5c-7.5-1.8-11.2-5.6-11.2-11.4c0-3.5,1.4-6.3,4-8.3c2.7-2,5.9-3.1,9.6-3.1
		c5.2,0,9.9,2.1,14,6.4l-4,4.3c-3.2-3.4-6.7-5.1-10.4-5.1c-4.3,0-7.3,2.3-7.3,5.6c0,3,1.9,4.9,5.9,5.8l6.2,1.5
		c7.5,1.8,11.2,5.5,11.2,11.1c0,7-5.8,11.8-14.8,11.8c-6.8,0-12.7-3.2-16-7.4l4-4.1c3.2,4,7.2,6,11.9,6c5.6,0,8.9-2.3,8.9-6
		c0-2.8-2.1-4.8-6.2-5.7L1003.3,629.5z"/>
	<path fill="#9AD2E6" d="M1057.6,625.1h10.8l3.5-12.3h-10v-5.6h11.6l4.8-16.5h5.6l-4.8,16.5h13.8l4.7-16.5h5.7l-4.8,16.5h9.2v5.6
		h-10.8l-3.5,12.3h10v5.6h-11.5l-4.6,16.5h-5.7l4.7-16.5h-13.8l-4.7,16.5h-5.6l4.7-16.5h-9.2V625.1z M1077.5,612.8l-3.5,12.3h13.8
		l3.5-12.3H1077.5z"/>
	<path fill="#9AD2E6" d="M1130.4,629.5c-7.5-1.8-11.2-5.6-11.2-11.4c0-3.5,1.4-6.3,4-8.3c2.7-2,5.9-3.1,9.6-3.1
		c5.2,0,9.9,2.1,14,6.4l-4,4.3c-3.2-3.4-6.7-5.1-10.4-5.1c-4.3,0-7.3,2.3-7.3,5.6c0,3,1.9,4.9,5.9,5.8l6.2,1.5
		c7.5,1.8,11.2,5.5,11.2,11.1c0,7-5.8,11.8-14.8,11.8c-6.8,0-12.7-3.2-16-7.4l4-4.1c3.2,4,7.2,6,11.9,6c5.6,0,8.9-2.3,8.9-6
		c0-2.8-2.1-4.8-6.2-5.7L1130.4,629.5z"/>
	<path fill="#9AD2E6" d="M1153,592.7l4.3-3.9c11,10.6,16.4,23.1,16.4,37.5c0,14.3-5.5,26.8-16.4,37.5l-4.3-4
		c10-10.2,14.5-20.6,14.5-33.5C1167.5,613.3,1163,602.8,1153,592.7z"/>
	<path fill="#9AD2E6" d="M1197.2,643.4c0,2.7-2.1,4.8-4.9,4.8c-2.7,0-4.8-2.1-4.8-4.8s2.1-4.8,4.8-4.8
		C1195.1,638.5,1197.2,640.5,1197.2,643.4z"/>
</g>
</svg>
